<?xml version="1.0" encoding="UTF-8"?>
<svg xmlns="http://www.w3.org/2000/svg" xmlns:xlink="http://www.w3.org/1999/xlink" width="168pt" height="168pt" viewBox="0 0 168 168" version="1.1">
<g id="surface1536">
<path style=" stroke:none;fill-rule:nonzero;fill:rgb(96.078431%,92.156863%,8.627451%);fill-opacity:1;" d="M 168 84 C 168 130.390625 130.390625 168 84 168 C 37.609375 168 0 130.390625 0 84 C 0 37.609375 37.609375 0 84 0 C 130.390625 0 168 37.609375 168 84 "/>
<path style=" stroke:none;fill-rule:nonzero;fill:rgb(100%,100%,100%);fill-opacity:1;" d="M 83.660156 21 C 49.046875 21.003906 21 49.070312 21 83.683594 C 21.003906 118.292969 49.070312 146.347656 83.683594 146.34375 C 118.292969 146.332031 146.347656 118.273438 146.34375 83.660156 C 146.339844 67.035156 139.734375 51.097656 127.980469 39.347656 C 116.222656 27.59375 100.28125 20.996094 83.660156 21 Z M 58.214844 48.457031 L 58.210938 48.457031 C 58.21875 48.101562 58.511719 47.820312 58.867188 47.828125 L 84.976562 47.828125 C 90.453125 47.726562 95.882812 48.851562 100.867188 51.125 C 101.8125 51.585938 102.742188 52.101562 103.640625 52.65625 L 86.644531 62.382812 L 77.777344 62.382812 L 77.777344 62.386719 C 77.609375 62.390625 77.445312 62.460938 77.328125 62.585938 C 77.207031 62.710938 77.144531 62.875 77.148438 63.046875 L 77.148438 67.941406 L 58.210938 78.894531 L 58.210938 48.457031 Z M 51.183594 103.46875 L 39.832031 92.003906 L 77.210938 70.4375 L 77.210938 84.414062 L 77.210938 84.410156 C 77.21875 84.765625 77.511719 85.046875 77.867188 85.039062 L 83.207031 85.039062 L 51.21875 103.464844 L 51.183594 103.464844 Z M 107.160156 92.8125 C 101.679688 97.390625 94.15625 99.679688 84.589844 99.679688 L 77.78125 99.679688 L 77.777344 99.675781 C 77.421875 99.675781 77.132812 99.964844 77.132812 100.320312 L 77.132812 114.433594 L 67.628906 119.902344 L 58.757812 125.03125 L 58.195312 125.347656 L 58.195312 101.957031 L 87.609375 85.03125 L 87.613281 85.035156 C 90.125 84.957031 92.535156 84.003906 94.421875 82.339844 C 95.089844 81.675781 95.65625 80.910156 96.089844 80.074219 L 114.875 69.203125 C 115.191406 70.925781 115.347656 72.667969 115.34375 74.421875 C 115.363281 82.101562 112.632812 88.230469 107.152344 92.8125 Z M 97.082031 76.960938 C 97.207031 76.15625 97.269531 75.339844 97.277344 74.523438 L 97.273438 74.523438 C 97.429688 71.328125 96.375 68.1875 94.316406 65.734375 C 93.164062 64.453125 91.683594 63.511719 90.039062 63 L 116.148438 47.925781 L 127.605469 59.386719 L 97.082031 76.957031 Z M 97.082031 76.960938 "/>
</g>
</svg>
