<?xml version="1.0" encoding="UTF-8"?>
<svg xmlns="http://www.w3.org/2000/svg" xmlns:xlink="http://www.w3.org/1999/xlink" width="168pt" height="168pt" viewBox="0 0 168 168" version="1.1">
<g id="surface436">
<path style=" stroke:none;fill-rule:nonzero;fill:rgb(100%,56.862745%,30.196078%);fill-opacity:1;" d="M 168 84 C 168 130.390625 130.390625 168 84 168 C 37.609375 168 0 130.390625 0 84 C 0 37.609375 37.609375 0 84 0 C 130.390625 0 168 37.609375 168 84 "/>
<path style=" stroke:none;fill-rule:evenodd;fill:rgb(100%,100%,100%);fill-opacity:1;" d="M 84 143.105469 C 51.355469 143.105469 24.894531 116.644531 24.894531 84 C 24.894531 51.355469 51.355469 24.894531 84 24.894531 C 116.644531 24.894531 143.105469 51.355469 143.105469 84 C 143.105469 116.644531 116.644531 143.105469 84 143.105469 Z M 84 139.628906 C 114.722656 139.628906 139.628906 114.722656 139.628906 84 C 139.628906 53.277344 114.722656 28.371094 84 28.371094 C 53.277344 28.371094 28.371094 53.277344 28.371094 84 C 28.371094 114.722656 53.277344 139.628906 84 139.628906 Z M 84 139.628906 "/>
<path style=" stroke:none;fill-rule:nonzero;fill:rgb(100%,100%,100%);fill-opacity:1;" d="M 73.972656 126.691406 C 75.273438 126.15625 80.367188 122.230469 85.285156 118.003906 C 91.382812 112.820312 97.25 107.367188 102.863281 101.660156 C 108.25 96.273438 110.25 93.957031 110.582031 92.761719 C 111.746094 88.554688 99.003906 42.332031 96.414062 41.339844 C 94.832031 40.730469 80.699219 52.484375 68.183594 64.792969 C 60.84375 72.007812 58.8125 74.40625 58.65625 75.976562 C 58.550781 77.1875 58.972656 80.230469 59.753906 83.832031 C 62.867188 98.121094 68.53125 117.867188 71.398438 124.351562 C 72.601562 127.101562 72.738281 127.222656 73.972656 126.699219 Z M 73.972656 126.691406 "/>
</g>
</svg>
