<?xml version="1.0" encoding="UTF-8"?>
<svg xmlns="http://www.w3.org/2000/svg" xmlns:xlink="http://www.w3.org/1999/xlink" width="168pt" height="168pt" viewBox="0 0 168 168" version="1.1">
<g id="surface2079">
<path style=" stroke:none;fill-rule:nonzero;fill:rgb(84.705882%,12.941176%,13.333333%);fill-opacity:1;" d="M 168 84 C 168 130.390625 130.390625 168 84 168 C 37.609375 168 0 130.390625 0 84 C 0 37.609375 37.609375 0 84 0 C 130.390625 0 168 37.609375 168 84 "/>
<path style=" stroke:none;fill-rule:nonzero;fill:rgb(100%,100%,100%);fill-opacity:1;" d="M 75.453125 49.738281 C 77.617188 47.113281 76.765625 43.21875 76.765625 43.21875 L 70.476562 52.851562 C 70.382812 52.851562 72.734375 52.945312 75.453125 49.738281 Z M 54.015625 101.964844 L 54.773438 98.136719 C 54.773438 98.136719 51.648438 103.679688 51.367188 104.445312 C 51.082031 105.304688 51.554688 106.835938 52.785156 106.738281 C 54.019531 106.644531 55.53125 104.828125 55.53125 103.484375 C 55.53125 101.769531 54.019531 101.960938 54.019531 101.960938 Z M 54.015625 101.964844 "/>
<path style=" stroke:none;fill-rule:nonzero;fill:rgb(100%,100%,100%);fill-opacity:1;" d="M 110.496094 40.414062 C 110.496094 40.414062 115.261719 40.609375 120.21875 41.1875 C 109.066406 32.292969 98.484375 29.683594 89.90625 29.683594 C 78.089844 29.683594 70.082031 34.613281 69.605469 34.902344 L 73.324219 28.910156 C 73.324219 28.910156 58.449219 27.457031 53.210938 43.410156 C 51.871094 40.023438 50.636719 35.09375 50.636719 35.09375 C 50.636719 35.09375 42.914062 41.960938 46.535156 53.363281 C 37.667969 50.085938 24.988281 45.542969 24.511719 45.445312 C 23.84375 45.351562 23.65625 45.640625 23.65625 45.640625 C 23.65625 45.640625 23.460938 45.933594 24.035156 46.417969 C 25.085938 47.285156 45.101562 62.273438 49.488281 65.171875 C 48.539062 68.652344 48.539062 70.296875 49.488281 71.945312 C 50.828125 74.167969 50.921875 75.328125 50.734375 76.96875 C 50.539062 78.613281 48.824219 92.824219 48.445312 94.566406 C 48.0625 96.304688 44.0625 102.492188 44.246094 104.332031 C 44.441406 106.167969 46.921875 113.996094 49.113281 114.867188 C 50.734375 115.445312 54.734375 116.703125 57.410156 116.703125 C 58.359375 116.703125 59.222656 116.507812 59.597656 116.125 C 61.21875 114.671875 61.699219 114.382812 62.84375 114.382812 L 63.128906 114.382812 C 63.601562 114.382812 64.179688 114.476562 64.84375 114.476562 C 66.367188 114.476562 68.371094 114.1875 69.800781 112.832031 C 71.902344 110.707031 75.523438 107.800781 76.664062 106.453125 C 78.097656 104.617188 78.859375 102.09375 78.476562 99.585938 C 78.191406 97.265625 79.433594 95.234375 80.859375 93.207031 C 82.671875 90.792969 86.003906 86.433594 86.003906 86.433594 C 92.585938 91.464844 96.683594 99.101562 96.683594 107.613281 C 96.683594 122.691406 83.722656 134.875 67.703125 134.875 L 67.695312 134.878906 C 65.253906 134.878906 62.820312 134.585938 60.449219 134.007812 C 67.792969 136.617188 73.988281 137.488281 79.039062 137.488281 C 89.8125 137.488281 95.535156 133.523438 95.535156 133.523438 C 95.535156 133.523438 93.53125 136.132812 90.285156 139.128906 L 90.390625 139.128906 C 108.214844 136.613281 116.886719 121.726562 116.886719 121.726562 C 116.886719 121.726562 116.21875 126.5625 115.363281 129.847656 C 139.09375 111.765625 135.09375 89.144531 135 88.371094 C 135.1875 88.660156 137.574219 91.5625 138.8125 93.105469 C 142.625 53.273438 110.5 40.417969 110.5 40.417969 Z M 73.988281 104.027344 C 73.605469 104.511719 71.988281 105.964844 70.839844 107.023438 C 69.699219 108.089844 68.460938 109.148438 67.507812 110.121094 C 67.128906 110.503906 66.363281 110.699219 65.21875 110.699219 L 62.363281 110.699219 C 63.792969 108.765625 67.984375 104.316406 69.414062 103.347656 C 71.128906 102.191406 71.988281 101.027344 70.9375 99 C 69.894531 96.96875 67.132812 97.453125 67.132812 97.453125 C 67.132812 97.453125 68.75 96.777344 70.179688 96.777344 C 68.375 96.292969 66.085938 96.777344 65.035156 97.84375 C 63.890625 98.902344 64.085938 102.671875 63.605469 105.089844 C 63.128906 107.609375 61.503906 108.863281 59.027344 111.183594 C 57.695312 112.445312 56.738281 112.828125 55.980469 112.828125 L 55.976562 112.828125 C 54.324219 112.535156 52.695312 112.113281 51.109375 111.566406 C 50.160156 110.3125 48.726562 106.160156 48.347656 104.414062 C 48.632812 103.449219 49.777344 101.417969 50.34375 100.257812 C 51.492188 98.03125 52.160156 96.777344 52.347656 95.617188 C 52.730469 93.972656 53.96875 83.820312 54.449219 79.566406 C 55.6875 81.210938 57.40625 83.917969 57.023438 85.65625 C 59.789062 81.691406 57.785156 77.828125 56.835938 76.28125 C 55.976562 74.734375 54.832031 71.640625 55.785156 68.355469 C 56.734375 65.070312 60.167969 55.980469 60.167969 55.980469 C 60.167969 55.980469 61.3125 58.011719 62.933594 57.625 C 64.550781 57.238281 77.613281 37.324219 77.613281 37.324219 C 77.613281 37.324219 81.140625 45.152344 77.425781 50.859375 C 73.609375 56.5625 69.890625 57.625 69.890625 57.625 C 69.890625 57.625 75.136719 58.589844 79.996094 55.015625 C 81.996094 59.75 83.902344 64.679688 84 65.359375 C 83.710938 66.035156 79.898438 75.320312 79.515625 75.894531 C 79.328125 76.089844 77.992188 76.472656 77.039062 76.671875 C 75.417969 77.15625 74.464844 77.445312 74.082031 77.730469 C 73.414062 78.308594 70.363281 86.816406 68.9375 90.976562 C 67.007812 91.472656 65.339844 92.683594 64.265625 94.363281 C 64.933594 93.878906 67.027344 93.585938 68.554688 93.398438 C 69.886719 93.296875 73.988281 95.523438 75.039062 99.683594 L 75.039062 99.871094 C 75.226562 101.417969 74.75 102.867188 73.988281 104.027344 Z M 65.027344 105.1875 C 65.886719 103.925781 65.789062 101.804688 65.886719 101.128906 C 65.980469 100.445312 66.171875 99.191406 66.9375 99.003906 C 67.699219 98.808594 69.511719 99.097656 69.511719 100.453125 C 69.511719 101.714844 68.171875 102 67.222656 102.867188 C 66.554688 103.550781 65.21875 104.992188 65.027344 105.1875 Z M 103.0625 86.722656 C 104.019531 81.789062 104.113281 77.535156 103.824219 74.054688 C 107.550781 79.164062 109.851562 85.171875 110.496094 91.460938 C 110.589844 92.238281 111.355469 93.007812 112.117188 93.78125 C 112.785156 94.359375 113.546875 95.136719 113.546875 95.617188 C 113.546875 97.84375 113.359375 100.0625 112.976562 102.285156 C 112.882812 102.578125 112.027344 103.0625 111.359375 103.449219 C 110.402344 103.933594 109.546875 104.414062 109.355469 105.1875 L 109.351562 105.1875 C 107.261719 112.59375 102.851562 119.132812 96.773438 123.847656 C 105.636719 114.472656 109.925781 99.003906 103.0625 86.726562 Z M 97.054688 124.71875 C 103.25 119.890625 108.015625 113.117188 110.117188 105.476562 C 110.210938 105.1875 111.066406 104.703125 111.640625 104.320312 C 112.597656 103.832031 113.546875 103.253906 113.742188 102.484375 C 114.121094 100.257812 114.3125 97.9375 114.3125 95.617188 C 114.3125 94.746094 113.453125 93.878906 112.597656 93.007812 C 112.121094 92.429688 111.359375 91.746094 111.359375 91.265625 C 110.582031 84.253906 107.875 77.59375 103.535156 72.03125 C 101.632812 60.429688 94.007812 56.851562 93.816406 56.753906 C 94.003906 57.042969 98.960938 64.296875 95.53125 72.804688 C 92.003906 81.414062 82.945312 80.054688 82.1875 80.15625 C 81.421875 80.15625 78.464844 84.019531 74.75 91.175781 L 74.75 91.171875 C 73.203125 90.703125 71.570312 90.605469 69.984375 90.882812 C 71.699219 86.046875 74.273438 79.1875 74.75 78.601562 C 74.945312 78.40625 76.371094 78.023438 77.324219 77.730469 C 79.136719 77.246094 79.996094 76.957031 80.28125 76.574219 C 80.476562 76.28125 81.425781 74.054688 82.382812 71.738281 C 83.238281 71.738281 85.429688 71.542969 85.621094 71.445312 C 85.816406 71.25 87.625 66.515625 87.625 65.933594 C 87.625 65.457031 83.902344 56.074219 82.476562 52.492188 L 82.472656 52.496094 C 83.210938 51.613281 83.878906 50.679688 84.472656 49.695312 C 104.019531 51.820312 119.269531 68.648438 119.269531 89.042969 L 119.269531 89.046875 C 119.285156 96.476562 117.210938 103.761719 113.28125 110.066406 C 109.355469 116.375 103.734375 121.453125 97.0625 124.71875 Z M 97.054688 124.71875 "/>
<path style=" stroke:none;fill-rule:nonzero;fill:rgb(100%,100%,100%);fill-opacity:1;" d="M 71.792969 72.640625 C 73.59375 70.519531 72.644531 66.566406 69.324219 65.894531 C 70.175781 63.867188 71.410156 59.820312 71.410156 59.820312 C 71.410156 59.820312 61.722656 75.238281 60.867188 75.535156 C 60.011719 75.824219 59.160156 72.449219 59.160156 72.449219 C 57.355469 79.484375 62.199219 80.449219 62.765625 78.234375 C 65.425781 77.558594 69.984375 74.664062 71.789062 72.644531 Z M 71.792969 72.640625 "/>
</g>
</svg>
