<?xml version="1.0" encoding="UTF-8"?>
<svg xmlns="http://www.w3.org/2000/svg" xmlns:xlink="http://www.w3.org/1999/xlink" width="168pt" height="168pt" viewBox="0 0 168 168" version="1.1">
<g id="surface146">
<path style=" stroke:none;fill-rule:nonzero;fill:rgb(94.509804%,79.607843%,37.647059%);fill-opacity:1;" d="M 168 84 C 168 130.390625 130.390625 168 84 168 C 37.609375 168 0 130.390625 0 84 C 0 37.609375 37.609375 0 84 0 C 130.390625 0 168 37.609375 168 84 "/>
<path style=" stroke:none;fill-rule:nonzero;fill:rgb(100%,100%,100%);fill-opacity:1;" d="M 80.128906 130.492188 L 80.128906 138.171875 L 84 138.175781 L 84 126.683594 L 76.320312 126.683594 L 76.320312 130.496094 L 80.132812 130.496094 Z M 41.609375 88.335938 L 37.800781 88.335938 L 37.800781 107.507812 L 41.613281 107.507812 L 41.613281 99.828125 L 45.484375 99.828125 L 45.484375 92.148438 L 41.613281 92.148438 L 41.613281 88.335938 Z M 87.867188 111.320312 L 91.679688 111.320312 L 91.679688 122.8125 L 87.867188 122.8125 Z M 84 122.8125 L 87.871094 122.8125 L 87.871094 126.683594 L 84 126.683594 Z M 45.480469 119 L 57.03125 119 L 57.03125 130.492188 L 45.480469 130.492188 Z M 37.800781 80.65625 L 41.671875 80.65625 L 41.671875 84.46875 L 37.800781 84.46875 Z M 60.902344 72.976562 L 64.773438 72.976562 L 64.773438 76.847656 L 60.898438 76.84375 L 60.898438 72.976562 Z M 84.003906 69.105469 L 87.875 69.105469 L 87.875 76.785156 L 84 76.785156 L 84 69.105469 Z M 33.933594 57.613281 L 45.484375 57.613281 L 45.484375 69.105469 L 33.933594 69.105469 Z M 68.582031 130.492188 L 72.453125 130.492188 L 72.453125 138.171875 L 68.582031 138.171875 Z M 72.453125 69.105469 L 68.640625 69.105469 L 68.640625 76.785156 L 72.453125 76.785156 L 72.449219 72.976562 L 76.320312 72.976562 L 76.320312 65.296875 L 72.449219 65.292969 L 72.449219 69.105469 Z M 76.324219 61.484375 L 80.136719 61.484375 L 80.136719 65.296875 L 76.324219 65.296875 Z M 76.324219 72.976562 L 80.136719 72.976562 L 80.136719 76.789062 L 76.324219 76.789062 L 76.320312 72.976562 Z M 57.035156 80.65625 L 68.585938 80.65625 L 68.585938 84.46875 L 57.035156 84.46875 Z M 57.035156 80.65625 "/>
<path style=" stroke:none;fill-rule:nonzero;fill:rgb(100%,100%,100%);fill-opacity:1;" d="M 72.449219 65.292969 L 72.449219 61.480469 L 76.261719 61.480469 L 76.261719 57.609375 L 72.449219 57.613281 L 72.449219 49.992188 L 60.898438 49.992188 L 60.898438 53.804688 L 68.578125 53.804688 L 68.578125 57.617188 L 64.707031 57.617188 L 64.707031 61.429688 L 60.898438 61.425781 L 60.898438 65.238281 L 57.085938 65.238281 L 57.085938 61.484375 L 53.160156 61.484375 L 53.160156 57.671875 L 57.03125 57.671875 L 57.03125 61.425781 L 60.902344 61.425781 L 60.902344 57.613281 L 57.089844 57.613281 L 57.089844 49.992188 L 26.25 49.992188 L 26.25 76.847656 L 57.089844 76.847656 L 57.089844 72.976562 L 60.902344 72.976562 L 60.902344 65.296875 L 64.773438 65.296875 L 64.773438 69.109375 L 68.644531 69.109375 L 68.644531 65.296875 L 72.457031 65.296875 Z M 49.351562 72.976562 L 30.121094 72.976562 L 30.121094 53.804688 L 49.351562 53.800781 Z M 53.164062 72.976562 L 53.164062 65.296875 L 57.035156 65.296875 L 57.03125 72.976562 L 53.160156 72.976562 Z M 68.582031 61.425781 L 68.582031 57.671875 L 72.453125 57.671875 L 72.453125 61.425781 Z M 99.421875 103.640625 L 99.421875 99.828125 L 91.683594 99.828125 L 91.683594 92.148438 L 87.871094 92.148438 L 87.871094 95.960938 L 84.058594 95.960938 L 84.058594 92.148438 L 87.871094 92.148438 L 87.871094 80.597656 L 80.191406 80.597656 L 80.191406 84.46875 L 76.265625 84.46875 L 76.265625 92.148438 L 72.449219 92.148438 L 72.449219 95.960938 L 76.320312 95.960938 L 76.320312 92.148438 L 80.132812 92.148438 L 80.132812 103.640625 L 72.449219 103.640625 L 72.449219 99.828125 L 68.578125 99.828125 L 68.578125 92.148438 L 64.765625 92.148438 L 64.765625 88.335938 L 57.027344 88.335938 L 57.03125 84.523438 L 53.160156 84.523438 L 53.160156 80.710938 L 45.480469 80.714844 L 45.480469 84.527344 L 41.609375 84.527344 L 41.609375 88.339844 L 45.480469 88.339844 L 45.480469 92.152344 L 49.351562 92.148438 L 49.351562 88.335938 L 53.222656 88.335938 L 53.222656 92.148438 L 49.351562 92.148438 L 49.351562 95.960938 L 53.222656 95.960938 L 53.222656 99.773438 L 57.035156 99.773438 L 57.035156 95.960938 L 60.90625 95.960938 L 60.90625 92.148438 L 64.71875 92.148438 L 64.71875 95.960938 L 60.898438 95.960938 L 60.898438 99.773438 L 57.085938 99.773438 L 57.085938 107.453125 L 64.765625 107.453125 L 64.765625 111.324219 L 57.027344 111.324219 L 57.027344 107.511719 L 53.15625 107.511719 L 53.15625 111.324219 L 45.480469 111.320312 L 45.480469 107.507812 L 41.667969 107.507812 L 41.667969 111.320312 L 37.800781 111.320312 L 37.800781 138.175781 L 64.769531 138.175781 L 64.769531 115.132812 L 68.582031 115.132812 L 68.582031 126.683594 L 76.320312 126.683594 L 76.320312 122.871094 L 80.191406 122.871094 L 80.1875 115.132812 L 76.316406 115.132812 L 76.316406 111.320312 L 72.449219 111.320312 L 72.449219 115.132812 L 68.636719 115.132812 L 68.636719 107.453125 L 80.1875 107.453125 L 80.1875 111.265625 L 84.058594 111.265625 L 84.058594 103.644531 L 91.679688 103.644531 L 91.679688 107.515625 L 95.550781 107.515625 L 95.550781 103.644531 L 99.421875 103.644531 Z M 60.898438 134.304688 L 41.667969 134.304688 L 41.667969 115.132812 L 60.898438 115.132812 Z M 64.769531 103.640625 L 60.898438 103.640625 L 60.898438 99.828125 L 64.769531 99.828125 Z M 72.449219 119.003906 L 76.320312 119.003906 L 76.320312 122.816406 L 72.449219 122.8125 L 72.449219 119 Z M 99.417969 49.992188 L 103.230469 49.992188 L 103.230469 57.613281 L 99.417969 57.613281 Z M 91.679688 49.992188 L 87.867188 49.992188 L 87.867188 61.484375 L 84 61.484375 L 84 65.296875 L 87.871094 65.296875 L 87.871094 69.109375 L 91.683594 69.109375 L 91.683594 76.789062 L 95.554688 76.789062 L 95.554688 69.109375 L 99.425781 69.109375 L 99.425781 76.847656 L 103.238281 76.847656 L 103.230469 72.976562 L 107.101562 72.976562 L 107.101562 65.296875 L 99.421875 65.296875 L 99.421875 57.617188 L 91.683594 57.617188 Z M 91.679688 49.992188 "/>
<path style=" stroke:none;fill-rule:evenodd;fill:rgb(100%,100%,100%);fill-opacity:1;" d="M 126.332031 92.148438 L 118.648438 92.148438 L 118.648438 95.960938 L 114.777344 95.960938 L 114.777344 99.832031 L 110.964844 99.832031 L 110.964844 88.339844 L 114.777344 88.339844 L 114.777344 84.46875 L 110.964844 84.46875 L 110.964844 88.28125 L 107.101562 88.277344 L 107.101562 92.148438 L 103.230469 92.148438 L 103.230469 84.46875 L 99.417969 84.46875 L 99.417969 92.148438 L 95.550781 92.148438 L 95.550781 96.019531 L 99.421875 95.960938 L 103.234375 95.960938 L 103.234375 103.640625 L 114.785156 103.640625 L 114.785156 107.511719 L 103.234375 107.511719 L 103.234375 111.324219 L 99.421875 111.324219 L 99.421875 115.136719 L 95.550781 115.132812 L 95.550781 119.003906 L 99.421875 119.003906 L 99.421875 122.816406 L 95.550781 122.8125 L 95.550781 126.683594 L 99.421875 126.683594 L 99.421875 130.496094 L 103.234375 130.496094 L 103.234375 134.308594 L 99.421875 134.308594 L 99.421875 138.179688 L 130.199219 138.175781 L 130.199219 115.132812 L 126.328125 115.132812 L 126.328125 134.304688 L 107.101562 134.304688 L 107.101562 115.132812 L 118.652344 115.132812 L 118.652344 99.828125 L 122.523438 99.828125 L 122.523438 103.640625 L 130.199219 103.640625 L 130.199219 96.019531 L 126.386719 96.019531 L 126.386719 92.148438 L 130.199219 92.148438 L 130.199219 80.65625 L 126.328125 80.65625 Z M 126.332031 92.148438 "/>
<path style=" stroke:none;fill-rule:nonzero;fill:rgb(100%,100%,100%);fill-opacity:1;" d="M 95.550781 107.507812 L 99.421875 107.507812 L 99.421875 111.320312 L 95.550781 111.320312 Z M 114.78125 88.335938 L 118.652344 88.335938 L 118.652344 92.148438 L 114.78125 92.148438 Z M 122.519531 107.507812 L 130.199219 107.507812 L 130.199219 111.378906 L 122.519531 111.378906 Z M 122.519531 57.667969 L 134.070312 57.667969 L 134.070312 69.160156 L 122.519531 69.160156 Z M 107.101562 72.976562 L 110.972656 72.976562 L 110.972656 76.847656 L 107.101562 76.84375 Z M 91.683594 80.65625 L 95.554688 80.65625 L 95.554688 84.46875 L 91.683594 84.46875 Z M 118.652344 80.65625 L 122.523438 80.65625 L 122.523438 84.46875 L 118.648438 84.46875 L 118.648438 80.65625 Z M 110.972656 119.003906 L 122.523438 119.003906 L 122.523438 130.496094 L 110.972656 130.496094 Z M 107.101562 80.65625 L 110.972656 80.65625 L 110.972656 84.46875 L 107.101562 84.46875 Z M 80.132812 57.613281 L 84 57.613281 L 84 61.484375 L 80.128906 61.484375 L 80.128906 57.613281 Z M 80.132812 57.613281 "/>
<path style=" stroke:none;fill-rule:nonzero;fill:rgb(100%,100%,100%);fill-opacity:1;" d="M 107.101562 49.992188 L 107.101562 53.804688 L 114.78125 53.804688 L 114.78125 57.617188 L 110.910156 57.617188 L 110.910156 61.429688 L 107.101562 61.425781 L 107.101562 57.613281 L 103.230469 57.613281 L 103.230469 61.484375 L 107.101562 61.484375 L 107.101562 65.238281 L 110.972656 65.238281 L 110.972656 69.050781 L 114.84375 69.050781 L 114.84375 76.730469 L 141.75 76.730469 L 141.75 49.992188 Z M 137.882812 72.976562 L 118.648438 72.976562 L 118.648438 53.804688 L 137.878906 53.804688 L 137.878906 72.976562 Z M 51.71875 43.234375 C 54.375 45.023438 57.378906 45.371094 59.746094 45.488281 C 61.765625 45.605469 65.175781 45.605469 68.753906 45.605469 C 75.394531 45.605469 83.191406 45.722656 84 45.722656 C 86.136719 45.78125 92.664062 45.78125 98.4375 45.78125 C 102.019531 45.78125 105.367188 45.722656 107.445312 45.664062 C 109.8125 45.546875 112.816406 45.144531 115.472656 43.410156 C 118.820312 41.15625 120.496094 37.460938 120.496094 32.4375 C 120.496094 28.394531 118.820312 25.96875 117.433594 24.582031 C 113.679688 20.945312 107.90625 21.175781 106 21.234375 L 105.769531 21.234375 C 104.613281 21.234375 100.457031 21.871094 95.546875 24.640625 C 91.214844 27.066406 87.460938 30.53125 84.402344 34.863281 L 84.054688 35.730469 L 83.765625 35.269531 C 80.53125 30.417969 76.316406 27.125 71.636719 24.46875 C 66.785156 21.695312 62.628906 21.121094 61.472656 21.121094 L 61.242188 21.121094 C 59.335938 21.0625 53.5625 20.832031 49.808594 24.46875 C 47.269531 26.894531 46.746094 30.070312 46.746094 32.324219 C 46.6875 37.289062 48.363281 40.988281 51.710938 43.238281 Z M 98.378906 30.296875 C 102.480469 27.929688 105.597656 27.582031 105.828125 27.582031 L 106.230469 27.582031 C 109.523438 27.464844 111.832031 27.984375 113.046875 29.140625 C 113.796875 29.890625 114.203125 30.929688 114.203125 32.433594 C 114.203125 37.917969 111.605469 39.132812 107.15625 39.363281 C 103.402344 39.535156 94.683594 39.480469 89.023438 39.421875 C 91.351562 35.664062 94.5625 32.53125 98.378906 30.296875 Z M 54.140625 28.96875 C 55.238281 27.929688 57.203125 27.410156 60.03125 27.410156 L 61.417969 27.410156 C 61.648438 27.410156 64.765625 27.757812 68.867188 30.125 C 72.5625 32.261719 75.738281 35.324219 78.28125 39.25 C 72.5625 39.308594 63.84375 39.367188 60.089844 39.191406 C 55.644531 38.960938 53.042969 37.746094 53.042969 32.261719 C 53.042969 30.761719 53.390625 29.722656 54.140625 28.96875 Z M 91.679688 130.492188 L 87.867188 130.492188 L 87.867188 138.171875 L 91.738281 138.171875 L 91.738281 130.492188 L 95.550781 130.492188 L 95.550781 126.679688 L 91.679688 126.679688 Z M 91.679688 130.492188 "/>
</g>
</svg>
