<?xml version="1.0" encoding="UTF-8"?>
<svg xmlns="http://www.w3.org/2000/svg" xmlns:xlink="http://www.w3.org/1999/xlink" width="168pt" height="168pt" viewBox="0 0 168 168" version="1.1">
<g id="surface301">
<path style=" stroke:none;fill-rule:nonzero;fill:rgb(18.039216%,72.941176%,77.647059%);fill-opacity:1;" d="M 168 84 C 168 130.390625 130.390625 168 84 168 C 37.609375 168 0 130.390625 0 84 C 0 37.609375 37.609375 0 84 0 C 130.390625 0 168 37.609375 168 84 "/>
<path style=" stroke:none;fill-rule:nonzero;fill:rgb(100%,100%,100%);fill-opacity:1;" d="M 120.402344 113.261719 L 92.316406 42.21875 C 90.71875 38.546875 88.378906 36.75 85.277344 36.75 L 82.792969 36.75 C 79.683594 36.75 77.339844 38.550781 75.753906 42.21875 L 63.539062 73.171875 L 54.292969 73.171875 C 51.519531 73.183594 49.273438 75.523438 49.253906 78.421875 L 49.253906 78.496094 C 49.273438 81.398438 51.523438 83.742188 54.292969 83.75 L 59.257812 83.75 L 47.597656 113.261719 C 47.375 113.914062 47.257812 114.59375 47.25 115.28125 C 47.25 116.933594 47.734375 118.230469 48.628906 119.238281 C 49.519531 120.246094 50.765625 120.75 52.355469 120.75 L 52.359375 120.75 C 53.40625 120.734375 54.421875 120.378906 55.257812 119.742188 C 56.148438 119.097656 56.773438 118.15625 57.253906 117.082031 L 70.09375 83.753906 L 78.996094 83.753906 C 81.761719 83.742188 84.011719 81.398438 84.035156 78.5 L 84.035156 78.359375 C 84.007812 75.457031 81.761719 73.109375 78.996094 73.105469 L 74.234375 73.105469 L 84.03125 47.554688 L 110.738281 117.074219 C 111.222656 118.152344 111.839844 119.089844 112.738281 119.734375 C 113.582031 120.375 114.597656 120.730469 115.640625 120.742188 C 117.226562 120.742188 118.46875 120.238281 119.367188 119.230469 C 120.257812 118.222656 120.742188 116.925781 120.742188 115.273438 L 120.746094 115.273438 C 120.773438 114.585938 120.65625 113.898438 120.402344 113.257812 Z M 120.402344 113.261719 "/>
</g>
</svg>
