<?xml version="1.0" encoding="UTF-8"?>
<svg xmlns="http://www.w3.org/2000/svg" xmlns:xlink="http://www.w3.org/1999/xlink" width="168pt" height="168pt" viewBox="0 0 168 168" version="1.1">
<g id="surface611">
<path style=" stroke:none;fill-rule:evenodd;fill:rgb(24.313725%,100%,100%);fill-opacity:1;" d="M 168 84 C 168 130.390625 130.390625 168 84 168 C 37.609375 168 0 130.390625 0 84 C 0 37.609375 37.609375 0 84 0 C 130.390625 0 168 37.609375 168 84 "/>
<path style=" stroke:none;fill-rule:nonzero;fill:rgb(100%,100%,100%);fill-opacity:1;" d="M 34.125 55.058594 L 84 26.25 L 133.875 55.058594 L 133.875 112.945312 L 84 141.75 L 34.125 112.941406 Z M 38.914062 107.402344 L 58.917969 95.824219 L 69.066406 78.054688 L 38.914062 60.609375 Z M 41.3125 111.554688 L 81.746094 134.910156 L 81.746094 112.558594 L 60.546875 100.414062 L 41.3125 111.542969 Z M 129.085938 60.769531 L 99.203125 78.058594 L 109.347656 95.8125 L 129.085938 107.238281 Z M 126.828125 56.527344 L 86.535156 33.253906 L 86.535156 55.875 L 96.824219 73.886719 L 126.828125 56.523438 Z M 95.082031 80.441406 L 88.929688 84 L 101.136719 91.0625 Z M 92.703125 76.273438 L 86.535156 65.457031 L 86.535156 79.84375 Z M 67.167969 91.050781 L 79.347656 84 L 73.210938 80.449219 L 67.171875 91.050781 Z M 65.351562 97.644531 L 81.746094 107.03125 L 81.746094 88.15625 Z M 41.304688 56.449219 L 71.441406 73.878906 L 81.746094 55.84375 L 81.746094 33.089844 L 41.304688 56.445312 Z M 126.828125 111.472656 L 107.738281 100.425781 L 86.535156 112.714844 L 86.535156 134.742188 L 126.828125 111.46875 Z M 102.949219 97.65625 L 86.53125 88.160156 L 86.53125 107.175781 L 102.953125 97.648438 Z M 75.585938 76.285156 L 81.746094 79.84375 L 81.746094 65.484375 Z M 75.585938 76.285156 "/>
</g>
</svg>
