<?xml version="1.0" encoding="UTF-8"?>
<svg xmlns="http://www.w3.org/2000/svg" xmlns:xlink="http://www.w3.org/1999/xlink" width="168pt" height="168pt" viewBox="0 0 168 168" version="1.1">
<g id="surface241">
<path style=" stroke:none;fill-rule:nonzero;fill:rgb(46.27451%,49.019608%,100%);fill-opacity:1;" d="M 168 84 C 168 130.390625 130.390625 168 84 168 C 37.609375 168 0 130.390625 0 84 C 0 37.609375 37.609375 0 84 0 C 130.390625 0 168 37.609375 168 84 "/>
<path style=" stroke:none;fill-rule:evenodd;fill:rgb(100%,100%,100%);fill-opacity:1;" d="M 72.292969 34.125 L 95.707031 34.125 C 97.359375 34.125 98.882812 35.015625 99.691406 36.457031 L 135.949219 101.132812 L 135.949219 101.128906 C 136.726562 102.515625 136.726562 104.207031 135.949219 105.59375 L 124.347656 126.289062 C 123.539062 127.730469 122.019531 128.621094 120.367188 128.625 L 47.632812 128.625 C 45.980469 128.625 44.457031 127.730469 43.648438 126.289062 L 32.050781 105.59375 C 31.273438 104.207031 31.273438 102.515625 32.050781 101.128906 L 68.308594 36.453125 L 68.308594 36.457031 C 69.117188 35.015625 70.640625 34.125 72.292969 34.125 Z M 84 59.855469 L 59.570312 103.363281 L 108.425781 103.363281 Z M 84 59.855469 "/>
</g>
</svg>
