<?xml version="1.0" encoding="UTF-8"?>
<svg xmlns="http://www.w3.org/2000/svg" xmlns:xlink="http://www.w3.org/1999/xlink" width="168pt" height="168pt" viewBox="0 0 168 168" version="1.1">
<g id="surface1836">
<path style=" stroke:none;fill-rule:nonzero;fill:rgb(100%,0%,0%);fill-opacity:1;" d="M 168 84 C 168 130.390625 130.390625 168 84 168 C 37.609375 168 0 130.390625 0 84 C 0 37.609375 37.609375 0 84 0 C 130.390625 0 168 37.609375 168 84 "/>
<path style=" stroke:none;fill-rule:nonzero;fill:rgb(100%,100%,100%);fill-opacity:1;" d="M 23.132812 113.984375 L 51.152344 62.96875 C 52.3125 60.835938 54.238281 60.257812 56.191406 61.414062 L 56.394531 61.414062 C 57.28125 61.945312 58.347656 62.082031 59.339844 61.792969 C 60.328125 61.5 61.152344 60.808594 61.609375 59.882812 L 81.292969 29.726562 C 81.960938 28.457031 82.808594 27.285156 83.8125 26.25 C 84.695312 27.332031 85.351562 28.574219 85.738281 29.914062 L 94.242188 50.980469 C 96.167969 55.820312 100.804688 59.296875 105.644531 59.296875 L 107.183594 59.296875 C 109.667969 59.390625 112.019531 60.425781 113.761719 62.195312 L 119.9375 68.757812 C 121.769531 70.699219 123.453125 72.761719 124.976562 74.949219 L 144.882812 103.550781 C 145.628906 104.683594 146.335938 105.84375 147 107.027344 L 147 107.214844 C 145.925781 106.382812 144.957031 105.425781 144.101562 104.371094 L 117.238281 76.5 L 117.238281 76.496094 C 115.578125 74.824219 114.148438 72.9375 112.980469 70.890625 C 110.839844 66.253906 108.140625 64.3125 103.898438 64.515625 L 98.492188 64.515625 C 95.214844 64.515625 94.433594 63.9375 93.453125 60.644531 L 85.742188 36.496094 C 84.394531 31.65625 84.195312 31.65625 82.84375 36.496094 L 77.628906 52.875 C 76.46875 56.144531 76.074219 61.5625 76.65625 61.5625 C 76.855469 61.5625 78.203125 59.042969 80.332031 54.605469 C 80.734375 53.703125 81.25 52.855469 81.871094 52.085938 C 82.363281 53.933594 82.628906 55.835938 82.660156 57.746094 C 82.09375 59.078125 81.449219 60.371094 80.71875 61.617188 L 80.53125 62.195312 C 78.210938 66.441406 78.210938 66.640625 80.71875 70.699219 L 83.035156 74.558594 C 83.917969 75.746094 84.632812 77.046875 85.167969 78.421875 L 85.160156 78.425781 C 84.066406 79.351562 82.902344 80.191406 81.679688 80.945312 L 69.699219 88.671875 C 67.5625 89.84375 65.179688 90.503906 62.742188 90.597656 C 58.484375 90.410156 54.816406 92.539062 51.527344 96.972656 L 46.890625 103.550781 C 45.222656 105.609375 43.339844 107.488281 41.285156 109.15625 L 37.039062 112.632812 C 34.851562 114.148438 32.523438 115.445312 30.082031 116.503906 L 27.765625 117.082031 C 26.085938 117.691406 24.328125 118.078125 22.546875 118.230469 C 21.753906 118.230469 21 118.230469 21 118.042969 C 21.605469 116.636719 22.3125 115.28125 23.132812 113.984375 Z M 23.132812 113.984375 "/>
</g>
</svg>
