<?xml version="1.0" encoding="UTF-8"?>
<svg xmlns="http://www.w3.org/2000/svg" xmlns:xlink="http://www.w3.org/1999/xlink" width="168pt" height="168pt" viewBox="0 0 168 168" version="1.1">
<defs>
<clipPath id="clip1">
  <rect x="0" y="0" width="168" height="168"/>
</clipPath>
<g id="surface2291" clip-path="url(#clip1)">
<path style=" stroke:none;fill-rule:nonzero;fill:rgb(0%,0%,0%);fill-opacity:1;" d="M 82.554688 34.441406 C 85.070312 33.144531 88.140625 36.140625 86.808594 38.613281 C 86.027344 40.628906 83.082031 41.164062 81.578125 39.625 C 79.988281 38.15625 80.507812 35.234375 82.554688 34.433594 Z M 55.492188 37.308594 C 57.019531 36.6875 58.957031 38.066406 58.800781 39.707031 C 58.957031 41.480469 56.753906 42.792969 55.195312 41.949219 C 53.132812 41.160156 53.367188 37.863281 55.496094 37.308594 Z M 110.921875 41.996094 C 108.53125 41.710938 108.15625 38.015625 110.449219 37.269531 C 112.234375 36.417969 113.871094 38.019531 114.132812 39.683594 C 113.753906 41.101562 112.546875 42.402344 110.917969 41.992188 Z M 61.652344 48.636719 C 64.210938 47.046875 67.851562 49.414062 67.457031 52.339844 C 67.324219 55.285156 63.347656 56.996094 61.097656 55 C 58.925781 53.433594 59.253906 49.84375 61.648438 48.636719 Z M 100.660156 50.328125 C 101.800781 47.441406 106.417969 47.347656 107.714844 50.160156 C 109 52.347656 107.421875 55.0625 105.136719 55.808594 C 102.109375 56.363281 99.234375 53.140625 100.660156 50.328125 Z M 79.296875 55.644531 C 79.269531 53.15625 81.570312 51.308594 83.96875 51.136719 C 85.566406 51.453125 87.296875 52.117188 87.980469 53.699219 C 89.257812 55.882812 88.121094 58.882812 85.828125 59.882812 C 84.777344 60.460938 83.527344 60.246094 82.382812 60.175781 C 80.632812 59.335938 79.160156 57.671875 79.296875 55.644531 Z M 39.050781 59.265625 C 41.386719 57.847656 44.535156 60.421875 43.648438 62.917969 C 43.164062 65.074219 40.214844 65.953125 38.53125 64.578125 C 36.730469 63.285156 37.015625 60.183594 39.054688 59.261719 Z M 125.476562 59.253906 C 127.457031 57.742188 130.726562 59.480469 130.484375 61.9375 C 130.621094 64.179688 127.792969 65.875 125.828125 64.71875 C 123.664062 63.757812 123.4375 60.480469 125.476562 59.257812 Z M 90.617188 63.722656 C 93.882812 62.566406 97.769531 63.949219 99.625 66.820312 C 102.082031 70.320312 100.78125 75.65625 96.964844 77.667969 C 93.015625 80.046875 87.246094 78.035156 85.78125 73.6875 C 84.128906 69.800781 86.542969 64.941406 90.609375 63.722656 Z M 71.4375 64.105469 C 75.058594 62.425781 79.9375 63.832031 81.683594 67.476562 C 83.742188 71.027344 82.152344 75.964844 78.46875 77.796875 C 74.785156 79.859375 69.582031 78.296875 67.800781 74.488281 C 65.800781 70.804688 67.574219 65.800781 71.433594 64.105469 Z M 52.238281 70.558594 C 52.515625 68.265625 54.714844 66.769531 56.9375 66.609375 L 56.9375 66.613281 C 59.320312 66.863281 61.214844 68.730469 61.503906 71.109375 C 61.347656 73.472656 59.492188 75.769531 56.953125 75.761719 C 54.15625 75.996094 51.703125 73.257812 52.238281 70.558594 Z M 108.949219 67.113281 C 111.820312 65.46875 115.804688 67.859375 115.679688 71.101562 C 115.875 74.539062 111.464844 76.960938 108.609375 74.945312 C 105.636719 73.265625 105.867188 68.539062 108.949219 67.113281 Z M 63.640625 79.226562 C 66.988281 78.316406 70.832031 79.871094 72.476562 82.90625 C 74.277344 85.960938 73.542969 90.203125 70.742188 92.449219 C 67.144531 95.734375 60.527344 94.414062 58.613281 89.929688 C 56.414062 85.820312 59.085938 80.304688 63.632812 79.21875 Z M 100.007812 79.210938 C 103.269531 78.292969 107.101562 79.527344 108.855469 82.449219 C 111.175781 85.792969 110.066406 90.785156 106.617188 92.9375 C 102.996094 95.441406 97.398438 94.128906 95.402344 90.210938 C 92.988281 86.164062 95.417969 80.441406 100.007812 79.207031 Z M 42.046875 83.023438 C 44.945312 81.945312 48.15625 85.09375 46.980469 87.921875 C 46.265625 90.496094 42.574219 91.449219 40.671875 89.550781 C 38.441406 87.765625 39.265625 83.800781 42.046875 83.023438 Z M 120.632812 87.128906 C 120.519531 84.722656 122.367188 82.675781 124.773438 82.539062 C 126.757812 82.855469 128.691406 84.429688 128.53125 86.554688 C 128.714844 89.363281 125.277344 91.269531 122.839844 89.953125 C 121.699219 89.382812 121.117188 88.230469 120.636719 87.128906 Z M 27.792969 84.421875 C 29.535156 83.671875 31.695312 85.15625 31.292969 87.0625 C 31.199219 89.21875 27.960938 90.054688 26.773438 88.25 C 25.722656 86.996094 26.351562 85.070312 27.792969 84.417969 Z M 137.773438 84.375 C 139 83.519531 140.976562 84.132812 141.457031 85.546875 C 142.28125 87.089844 140.769531 89.199219 139.003906 88.945312 C 136.527344 89.164062 135.726562 85.453125 137.769531 84.378906 Z M 73.109375 94.734375 C 77.699219 93.5625 82.632812 97.328125 82.664062 101.980469 C 82.957031 106.679688 78.097656 110.84375 73.402344 109.761719 C 69.769531 109.183594 66.917969 105.738281 67.039062 102.132812 C 67.027344 98.679688 69.675781 95.464844 73.109375 94.734375 Z M 91.285156 94.730469 C 95.941406 93.449219 101.023438 97.28125 100.949219 102.039062 C 101.195312 106.648438 96.488281 110.675781 91.886719 109.757812 C 87.554688 109.210938 84.363281 104.535156 85.570312 100.398438 C 86.179688 97.648438 88.519531 95.410156 91.28125 94.726562 Z M 56.234375 97.589844 C 59.457031 97.050781 62.480469 100.582031 61.175781 103.597656 C 60.21875 106.8125 55.472656 107.675781 53.375 105.058594 C 50.917969 102.539062 52.753906 97.941406 56.234375 97.59375 Z M 109.542969 97.730469 C 112.421875 96.542969 115.949219 98.992188 115.726562 102.0625 C 115.84375 105.4375 111.484375 107.769531 108.675781 105.796875 C 105.488281 104.027344 106.070312 98.8125 109.542969 97.734375 Z M 124.441406 112.429688 C 123.316406 110.367188 125.359375 107.632812 127.695312 108.015625 C 128.851562 107.996094 129.664062 108.890625 130.40625 109.648438 C 130.558594 110.871094 130.816406 112.332031 129.78125 113.269531 C 128.378906 115.019531 125.203125 114.519531 124.441406 112.429688 Z M 39.035156 108.585938 C 41.214844 107.164062 44.347656 109.289062 43.855469 111.789062 C 43.59375 114.011719 40.757812 115.273438 38.894531 114.015625 C 36.890625 112.875 36.960938 109.625 39.035156 108.585938 Z M 82.046875 113.222656 C 84.898438 111.988281 88.53125 114.429688 88.257812 117.515625 C 88.46875 120.929688 83.980469 123.289062 81.191406 121.242188 C 78.09375 119.484375 78.613281 114.308594 82.046875 113.21875 Z M 62.128906 117.796875 C 64.554688 116.542969 67.808594 118.710938 67.589844 121.386719 C 67.664062 123.582031 65.488281 125.449219 63.285156 125.125 C 61.464844 125.089844 60.277344 123.476562 59.6875 121.949219 C 59.71875 120.285156 60.417969 118.433594 62.128906 117.800781 Z M 102.480469 117.839844 C 104.980469 116.316406 108.527344 118.5 108.292969 121.355469 C 108.355469 124.347656 104.34375 126.257812 102.019531 124.296875 C 99.773438 122.757812 100.046875 119.0625 102.480469 117.839844 Z M 109.5 134.902344 C 108.386719 133.253906 109.695312 131.265625 111.496094 130.886719 C 112.949219 131.175781 114.488281 132.25 114.179688 133.898438 C 113.96875 136.140625 110.640625 136.824219 109.5 134.90625 Z M 53.792969 133.46875 C 54.234375 132.15625 55.304688 130.859375 56.875 131.199219 C 59.160156 131.355469 59.835938 134.75 57.835938 135.792969 C 56.039062 136.984375 53.949219 135.351562 53.792969 133.46875 Z M 80.671875 134.976562 C 81.109375 133.035156 83.652344 132.09375 85.332031 133.125 C 86.445312 133.597656 86.769531 134.816406 87.054688 135.855469 L 87.0625 135.847656 C 86.910156 136.390625 86.769531 136.929688 86.640625 137.476562 C 85.953125 138.273438 85.066406 139.078125 83.921875 139.050781 C 81.796875 139.296875 79.875 136.929688 80.671875 134.972656 Z M 80.671875 134.976562 "/>
</g>
</defs>
<g id="surface2287">
<path style=" stroke:none;fill-rule:nonzero;fill:rgb(5.098039%,11.764706%,18.823529%);fill-opacity:1;" d="M 168 84 C 168 130.390625 130.390625 168 84 168 C 37.609375 168 0 130.390625 0 84 C 0 37.609375 37.609375 0 84 0 C 130.390625 0 168 37.609375 168 84 "/>
<use xlink:href="#surface2291"/>
<path style=" stroke:none;fill-rule:nonzero;fill:rgb(100%,100%,100%);fill-opacity:1;" d="M 82.554688 31.816406 C 85.070312 30.519531 88.140625 33.515625 86.808594 35.988281 C 86.027344 38.003906 83.082031 38.539062 81.578125 37 C 79.988281 35.53125 80.507812 32.609375 82.554688 31.808594 Z M 55.492188 34.683594 C 57.019531 34.0625 58.957031 35.441406 58.800781 37.082031 C 58.957031 38.855469 56.753906 40.167969 55.195312 39.324219 C 53.132812 38.535156 53.367188 35.238281 55.496094 34.683594 Z M 110.921875 39.371094 C 108.53125 39.085938 108.15625 35.390625 110.449219 34.644531 C 112.234375 33.792969 113.871094 35.394531 114.132812 37.058594 C 113.753906 38.476562 112.546875 39.777344 110.917969 39.367188 Z M 61.652344 46.011719 C 64.210938 44.421875 67.851562 46.789062 67.457031 49.714844 C 67.324219 52.660156 63.347656 54.371094 61.097656 52.375 C 58.925781 50.808594 59.253906 47.21875 61.648438 46.011719 Z M 100.660156 47.703125 C 101.800781 44.816406 106.417969 44.722656 107.714844 47.535156 C 109 49.722656 107.421875 52.4375 105.136719 53.183594 C 102.109375 53.738281 99.234375 50.515625 100.660156 47.703125 Z M 79.296875 53.019531 C 79.269531 50.53125 81.570312 48.683594 83.96875 48.511719 C 85.566406 48.828125 87.296875 49.492188 87.980469 51.074219 C 89.257812 53.257812 88.121094 56.257812 85.828125 57.257812 C 84.777344 57.835938 83.527344 57.621094 82.382812 57.550781 C 80.632812 56.710938 79.160156 55.046875 79.296875 53.019531 Z M 39.050781 56.640625 C 41.386719 55.222656 44.535156 57.796875 43.648438 60.292969 C 43.164062 62.449219 40.214844 63.328125 38.53125 61.953125 C 36.730469 60.660156 37.015625 57.558594 39.054688 56.636719 Z M 125.476562 56.628906 C 127.457031 55.117188 130.726562 56.855469 130.484375 59.3125 C 130.621094 61.554688 127.792969 63.25 125.828125 62.09375 C 123.664062 61.132812 123.4375 57.855469 125.476562 56.632812 Z M 90.617188 61.097656 C 93.882812 59.941406 97.769531 61.324219 99.625 64.195312 C 102.082031 67.695312 100.78125 73.03125 96.964844 75.042969 C 93.015625 77.421875 87.246094 75.410156 85.78125 71.0625 C 84.128906 67.175781 86.542969 62.316406 90.609375 61.097656 Z M 71.4375 61.480469 C 75.058594 59.800781 79.9375 61.207031 81.683594 64.851562 C 83.742188 68.402344 82.152344 73.339844 78.46875 75.171875 C 74.785156 77.234375 69.582031 75.671875 67.800781 71.863281 C 65.800781 68.179688 67.574219 63.175781 71.433594 61.480469 Z M 52.238281 67.933594 C 52.515625 65.640625 54.714844 64.144531 56.9375 63.984375 L 56.9375 63.988281 C 59.320312 64.238281 61.214844 66.105469 61.503906 68.484375 C 61.347656 70.847656 59.492188 73.144531 56.953125 73.136719 C 54.15625 73.371094 51.703125 70.632812 52.238281 67.933594 Z M 108.949219 64.488281 C 111.820312 62.84375 115.804688 65.234375 115.679688 68.476562 C 115.875 71.914062 111.464844 74.335938 108.609375 72.320312 C 105.636719 70.640625 105.867188 65.914062 108.949219 64.488281 Z M 63.640625 76.601562 C 66.988281 75.691406 70.832031 77.246094 72.476562 80.28125 C 74.277344 83.335938 73.542969 87.578125 70.742188 89.824219 C 67.144531 93.109375 60.527344 91.789062 58.613281 87.304688 C 56.414062 83.195312 59.085938 77.679688 63.632812 76.59375 Z M 100.007812 76.585938 C 103.269531 75.667969 107.101562 76.902344 108.855469 79.824219 C 111.175781 83.167969 110.066406 88.160156 106.617188 90.3125 C 102.996094 92.816406 97.398438 91.503906 95.402344 87.585938 C 92.988281 83.539062 95.417969 77.816406 100.007812 76.582031 Z M 42.046875 80.398438 C 44.945312 79.320312 48.15625 82.46875 46.980469 85.296875 C 46.265625 87.871094 42.574219 88.824219 40.671875 86.925781 C 38.441406 85.140625 39.265625 81.175781 42.046875 80.398438 Z M 120.632812 84.503906 C 120.519531 82.097656 122.367188 80.050781 124.773438 79.914062 C 126.757812 80.230469 128.691406 81.804688 128.53125 83.929688 C 128.714844 86.738281 125.277344 88.644531 122.839844 87.328125 C 121.699219 86.757812 121.117188 85.605469 120.636719 84.503906 Z M 27.792969 81.796875 C 29.535156 81.046875 31.695312 82.53125 31.292969 84.4375 C 31.199219 86.59375 27.960938 87.429688 26.773438 85.625 C 25.722656 84.371094 26.351562 82.445312 27.792969 81.792969 Z M 137.773438 81.75 C 139 80.894531 140.976562 81.507812 141.457031 82.921875 C 142.28125 84.464844 140.769531 86.574219 139.003906 86.320312 C 136.527344 86.539062 135.726562 82.828125 137.769531 81.753906 Z M 73.109375 92.109375 C 77.699219 90.9375 82.632812 94.703125 82.664062 99.355469 C 82.957031 104.054688 78.097656 108.21875 73.402344 107.136719 C 69.769531 106.558594 66.917969 103.113281 67.039062 99.507812 C 67.027344 96.054688 69.675781 92.839844 73.109375 92.109375 Z M 91.285156 92.105469 C 95.941406 90.824219 101.023438 94.65625 100.949219 99.414062 C 101.195312 104.023438 96.488281 108.050781 91.886719 107.132812 C 87.554688 106.585938 84.363281 101.910156 85.570312 97.773438 C 86.179688 95.023438 88.519531 92.785156 91.28125 92.101562 Z M 56.234375 94.964844 C 59.457031 94.425781 62.480469 97.957031 61.175781 100.972656 C 60.21875 104.1875 55.472656 105.050781 53.375 102.433594 C 50.917969 99.914062 52.753906 95.316406 56.234375 94.96875 Z M 109.542969 95.105469 C 112.421875 93.917969 115.949219 96.367188 115.726562 99.4375 C 115.84375 102.8125 111.484375 105.144531 108.675781 103.171875 C 105.488281 101.402344 106.070312 96.1875 109.542969 95.109375 Z M 124.441406 109.804688 C 123.316406 107.742188 125.359375 105.007812 127.695312 105.390625 C 128.851562 105.371094 129.664062 106.265625 130.40625 107.023438 C 130.558594 108.246094 130.816406 109.707031 129.78125 110.644531 C 128.378906 112.394531 125.203125 111.894531 124.441406 109.804688 Z M 39.035156 105.960938 C 41.214844 104.539062 44.347656 106.664062 43.855469 109.164062 C 43.59375 111.386719 40.757812 112.648438 38.894531 111.390625 C 36.890625 110.25 36.960938 107 39.035156 105.960938 Z M 82.046875 110.597656 C 84.898438 109.363281 88.53125 111.804688 88.257812 114.890625 C 88.46875 118.304688 83.980469 120.664062 81.191406 118.617188 C 78.09375 116.859375 78.613281 111.683594 82.046875 110.59375 Z M 62.128906 115.171875 C 64.554688 113.917969 67.808594 116.085938 67.589844 118.761719 C 67.664062 120.957031 65.488281 122.824219 63.285156 122.5 C 61.464844 122.464844 60.277344 120.851562 59.6875 119.324219 C 59.71875 117.660156 60.417969 115.808594 62.128906 115.175781 Z M 102.480469 115.214844 C 104.980469 113.691406 108.527344 115.875 108.292969 118.730469 C 108.355469 121.722656 104.34375 123.632812 102.019531 121.671875 C 99.773438 120.132812 100.046875 116.4375 102.480469 115.214844 Z M 109.5 132.277344 C 108.386719 130.628906 109.695312 128.640625 111.496094 128.261719 C 112.949219 128.550781 114.488281 129.625 114.179688 131.273438 C 113.96875 133.515625 110.640625 134.199219 109.5 132.28125 Z M 53.792969 130.84375 C 54.234375 129.53125 55.304688 128.234375 56.875 128.574219 C 59.160156 128.730469 59.835938 132.125 57.835938 133.167969 C 56.039062 134.359375 53.949219 132.726562 53.792969 130.84375 Z M 80.671875 132.351562 C 81.109375 130.410156 83.652344 129.46875 85.332031 130.5 C 86.445312 130.972656 86.769531 132.191406 87.054688 133.230469 L 87.0625 133.222656 C 86.910156 133.765625 86.769531 134.304688 86.640625 134.851562 C 85.953125 135.648438 85.066406 136.453125 83.921875 136.425781 C 81.796875 136.671875 79.875 134.304688 80.671875 132.347656 Z M 80.671875 132.351562 "/>
</g>
</svg>
