<?xml version="1.0" encoding="UTF-8"?>
<svg xmlns="http://www.w3.org/2000/svg" xmlns:xlink="http://www.w3.org/1999/xlink" width="168pt" height="168pt" viewBox="0 0 168 168" version="1.1">
<g id="surface886">
<path style=" stroke:none;fill-rule:nonzero;fill:rgb(99.607843%,78.431373%,2.745098%);fill-opacity:1;" d="M 168 84 C 168 130.390625 130.390625 168 84 168 C 37.609375 168 0 130.390625 0 84 C 0 37.609375 37.609375 0 84 0 C 130.390625 0 168 37.609375 168 84 "/>
<path style=" stroke:none;fill-rule:evenodd;fill:rgb(100%,100%,100%);fill-opacity:1;" d="M 131.164062 92.5625 L 105.292969 92.5625 L 100.671875 78.703125 L 131.125 78.703125 C 133.292969 78.703125 135.050781 76.945312 135.050781 74.777344 C 135.050781 72.605469 133.292969 70.847656 131.125 70.847656 L 98.175781 70.847656 L 84.960938 30.5625 L 84.960938 30.566406 C 84.613281 27.816406 82.320312 25.726562 79.550781 25.632812 C 76.78125 25.542969 74.359375 27.476562 73.832031 30.199219 L 42.226562 126.289062 C 42.140625 126.8125 42.140625 127.339844 42.226562 127.863281 C 42.269531 130.511719 44.257812 132.722656 46.886719 133.046875 C 49.511719 133.371094 51.980469 131.710938 52.667969 129.15625 L 79.1875 48.304688 L 86.761719 70.847656 L 80.199219 70.847656 C 78.03125 70.847656 76.273438 72.605469 76.273438 74.777344 C 76.273438 76.945312 78.03125 78.703125 80.199219 78.703125 L 89.4375 78.703125 L 94.058594 92.5625 L 80.199219 92.5625 C 78.03125 92.5625 76.273438 94.320312 76.273438 96.488281 C 76.273438 98.660156 78.03125 100.417969 80.199219 100.417969 L 96.789062 100.417969 L 104.269531 122.59375 L 64.585938 122.59375 C 61.523438 122.59375 59.042969 125.074219 59.042969 128.136719 C 59.042969 131.199219 61.523438 133.679688 64.585938 133.679688 L 111.527344 133.679688 C 114.4375 133.679688 116.792969 131.324219 116.792969 128.414062 C 116.792969 127.617188 116.621094 126.828125 116.28125 126.105469 L 107.828125 100.417969 L 130.929688 100.417969 C 133.097656 100.417969 134.855469 98.660156 134.855469 96.488281 C 134.855469 94.320312 133.097656 92.5625 130.929688 92.5625 Z M 131.164062 92.5625 "/>
</g>
</svg>
