<?xml version="1.0" encoding="UTF-8"?>
<svg xmlns="http://www.w3.org/2000/svg" xmlns:xlink="http://www.w3.org/1999/xlink" width="168pt" height="168pt" viewBox="0 0 168 168" version="1.1">
<g id="surface1041">
<path style=" stroke:none;fill-rule:evenodd;fill:rgb(10.588235%,45.882353%,73.72549%);fill-opacity:1;" d="M 168 84 C 168 130.390625 130.390625 168 84 168 C 37.609375 168 0 130.390625 0 84 C 0 37.609375 37.609375 0 84 0 C 130.390625 0 168 37.609375 168 84 "/>
<path style=" stroke:none;fill-rule:evenodd;fill:rgb(100%,100%,100%);fill-opacity:1;" d="M 60.832031 45.160156 L 84 69.34375 L 106.601562 45.164062 L 120.75 59.640625 L 97.671875 84 L 120.75 108.164062 L 106.601562 122.828125 L 84 98.65625 L 60.832031 122.828125 L 47.25 108.570312 L 70.140625 83.863281 L 47.25 59.640625 L 60.832031 45.167969 Z M 62.695312 43.1875 L 83.90625 21 L 105.117188 43.1875 L 93.957031 55.078125 L 83.910156 43.980469 L 73.863281 55.078125 L 62.703125 43.1875 Z M 62.695312 124.816406 L 73.855469 112.925781 L 83.902344 124.023438 L 93.949219 112.925781 L 105.109375 124.816406 L 83.90625 147 L 62.695312 124.8125 Z M 62.695312 124.816406 "/>
</g>
</svg>
