<?xml version="1.0" encoding="UTF-8"?>
<svg xmlns="http://www.w3.org/2000/svg" xmlns:xlink="http://www.w3.org/1999/xlink" width="168pt" height="168pt" viewBox="0 0 168 168" version="1.1">
<g id="surface2222">
<path style=" stroke:none;fill-rule:evenodd;fill:rgb(87.058824%,24.705882%,41.960784%);fill-opacity:1;" d="M 168 84 C 168 130.390625 130.390625 168 84 168 C 37.609375 168 0 130.390625 0 84 C 0 37.609375 37.609375 0 84 0 C 130.390625 0 168 37.609375 168 84 "/>
<path style=" stroke:none;fill-rule:nonzero;fill:rgb(100%,100%,100%);fill-opacity:1;" d="M 51.199219 57.75 L 55.945312 57.75 C 63.363281 58.453125 70.226562 62.058594 75.300781 67.253906 C 85.847656 77.957031 91.644531 93.0625 105.066406 101.027344 C 114.769531 106.785156 128.339844 102.078125 133.105469 92.34375 C 135.53125 92.300781 137.972656 92.300781 140.398438 92.3125 C 137.058594 102.199219 127.332031 109.300781 116.695312 110.25 L 112.777344 110.25 C 106.230469 109.726562 99.863281 107.289062 94.910156 103.078125 C 87.71875 97.183594 83.097656 89.09375 77.507812 81.890625 C 72.699219 75.523438 67.796875 68.363281 59.835938 65.46875 C 50.003906 61.902344 37.996094 67.480469 34.410156 76.949219 C 31.261719 84.75 33.820312 94.421875 40.867188 99.417969 C 46.148438 103.367188 53.503906 104.839844 59.847656 102.542969 C 66.894531 100.085938 72.121094 94.5 76.132812 88.578125 C 77.714844 90.765625 79.25 92.988281 80.773438 95.226562 C 74.535156 102.824219 65.882812 109.347656 55.59375 110.253906 L 51.378906 110.253906 C 38.414062 109.378906 27.140625 98.722656 26.25 86.132812 L 26.25 82.011719 C 27.089844 69.449219 38.21875 58.664062 51.199219 57.75 Z M 112.519531 57.75 L 116.457031 57.75 C 129.546875 58.574219 140.675781 69.445312 141.75 82.035156 L 141.75 88.492188 C 130.949219 88.585938 120.140625 88.523438 109.339844 88.535156 C 109.351562 86.644531 109.351562 84.769531 109.339844 82.882812 C 117.875 82.863281 126.402344 82.917969 134.921875 82.863281 C 134.316406 79.523438 133.535156 76.105469 131.488281 73.277344 C 126.5 65.90625 115.953125 62.894531 107.523438 66.085938 C 100.804688 68.5 95.742188 73.78125 91.839844 79.421875 C 90.339844 77.335938 88.847656 75.222656 87.402344 73.089844 C 93.5625 65.382812 102.15625 58.714844 112.511719 57.753906 Z M 112.519531 57.75 "/>
</g>
</svg>
