<?xml version="1.0" encoding="UTF-8"?>
<svg xmlns="http://www.w3.org/2000/svg" xmlns:xlink="http://www.w3.org/1999/xlink" width="168pt" height="168pt" viewBox="0 0 168 168" version="1.1">
<g id="surface2212">
<path style=" stroke:none;fill-rule:nonzero;fill:rgb(7.45098%,26.666667%,31.764706%);fill-opacity:1;" d="M 168 84 C 168 130.390625 130.390625 168 84 168 C 37.609375 168 0 130.390625 0 84 C 0 37.609375 37.609375 0 84 0 C 130.390625 0 168 37.609375 168 84 "/>
<path style=" stroke:none;fill-rule:nonzero;fill:rgb(100%,100%,100%);fill-opacity:1;" d="M 73.496094 85.691406 C 70.886719 85.691406 68.914062 86.132812 67.546875 86.96875 C 66.234375 87.78125 65.574219 89.015625 65.574219 90.632812 C 65.574219 91.839844 65.984375 92.816406 66.753906 93.511719 C 67.546875 94.210938 68.660156 94.554688 70.046875 94.554688 C 72.199219 94.554688 73.996094 93.882812 75.421875 92.558594 C 76.855469 91.214844 77.828125 89.335938 78.308594 86.925781 L 78.527344 85.691406 L 73.488281 85.691406 Z M 101.132812 74.304688 C 100.339844 73.613281 99.226562 73.265625 97.847656 73.265625 C 95.691406 73.265625 93.894531 73.9375 92.464844 75.261719 C 91.035156 76.605469 90.058594 78.484375 89.582031 80.894531 L 89.355469 82.121094 L 94.394531 82.101562 C 97.003906 82.101562 98.976562 81.660156 100.335938 80.824219 C 101.648438 80.011719 102.308594 78.78125 102.308594 77.160156 C 102.308594 75.953125 101.925781 75.003906 101.128906 74.304688 Z M 101.132812 74.304688 "/>
<path style=" stroke:none;fill-rule:nonzero;fill:rgb(100%,100%,100%);fill-opacity:1;" d="M 141.566406 77.226562 C 139.84375 61.664062 112.640625 52.035156 80.824219 55.726562 C 49.007812 59.410156 24.617188 75.019531 26.339844 90.585938 C 28.066406 106.148438 55.25 115.769531 87.082031 112.085938 C 118.921875 108.394531 143.292969 92.785156 141.566406 77.226562 Z M 108.28125 85.015625 C 105.058594 87.316406 100.359375 88.449219 94.191406 88.476562 L 88.199219 88.496094 L 88.015625 89.351562 L 88.015625 89.355469 C 87.960938 89.542969 87.933594 89.738281 87.925781 89.933594 C 87.898438 90.054688 87.898438 90.167969 87.898438 90.265625 C 87.898438 91.589844 88.511719 92.558594 89.714844 93.207031 C 90.921875 93.882812 92.707031 94.203125 95.050781 94.203125 C 97.273438 94.203125 99.410156 93.949219 101.425781 93.488281 C 103.421875 93.019531 105.351562 92.328125 107.191406 91.398438 L 105.667969 99.5625 C 103.378906 100.117188 101.179688 100.558594 99 100.839844 L 99 100.835938 C 96.902344 101.136719 94.785156 101.292969 92.667969 101.304688 C 89.765625 101.304688 87.359375 100.953125 85.429688 100.210938 C 83.433594 99.445312 81.207031 97.773438 80.101562 95.386719 L 80.097656 95.386719 C 78.046875 97.347656 75.664062 98.929688 73.0625 100.070312 C 70.652344 101.101562 68.058594 101.628906 65.4375 101.625 C 62.128906 101.652344 59.515625 100.835938 57.65625 99.234375 C 55.773438 97.636719 54.84375 95.40625 54.820312 92.605469 C 54.792969 88.289062 56.40625 85.019531 59.609375 82.746094 C 62.828125 80.453125 67.527344 79.316406 73.699219 79.292969 L 79.683594 79.273438 L 79.867188 78.414062 L 79.867188 78.410156 C 79.925781 78.222656 79.957031 78.027344 79.960938 77.832031 C 79.980469 77.714844 79.980469 77.601562 79.980469 77.507812 C 79.980469 76.183594 79.367188 75.214844 78.164062 74.5625 C 76.960938 73.890625 75.171875 73.566406 72.828125 73.566406 C 70.605469 73.566406 68.46875 73.824219 66.453125 74.285156 C 64.457031 74.746094 62.527344 75.441406 60.6875 76.375 L 62.210938 68.210938 C 64.5 67.65625 66.699219 67.214844 68.878906 66.933594 L 68.886719 66.933594 C 70.984375 66.632812 73.097656 66.476562 75.214844 66.464844 C 78.125 66.464844 80.527344 66.816406 82.460938 67.558594 C 84.457031 68.324219 86.675781 69.996094 87.789062 72.382812 C 89.84375 70.421875 92.226562 68.835938 94.824219 67.695312 C 97.234375 66.664062 99.828125 66.136719 102.449219 66.140625 C 105.761719 66.121094 108.371094 66.929688 110.230469 68.53125 C 112.121094 70.132812 113.042969 72.363281 113.066406 75.167969 C 113.09375 79.457031 111.507812 82.75 108.285156 85.023438 Z M 108.28125 85.015625 "/>
<path style=" stroke:none;fill-rule:nonzero;fill:rgb(100%,100%,100%);fill-opacity:1;" d="M 86.746094 113.941406 C 82.140625 114.476562 77.578125 114.730469 73.152344 114.730469 C 62.621094 114.730469 52.777344 113.25 44.582031 110.347656 L 44.582031 110.34375 C 41.195312 109.179688 37.953125 107.621094 34.921875 105.707031 C 33.804688 111.578125 34.554688 116.746094 37.4375 120.597656 C 45.714844 131.660156 68.886719 128.136719 91.804688 113.246094 C 90.125 113.5 88.445312 113.730469 86.742188 113.9375 Z M 81.371094 54.105469 C 96.910156 52.292969 111.890625 53.570312 123.527344 57.695312 L 123.527344 57.699219 C 126.917969 58.863281 130.164062 60.421875 133.199219 62.339844 C 134.308594 56.46875 133.5625 51.300781 130.679688 47.449219 C 122.394531 36.386719 99.230469 39.910156 76.3125 54.800781 C 77.992188 54.523438 79.695312 54.292969 81.375 54.109375 Z M 81.371094 54.105469 "/>
<path style=" stroke:none;fill-rule:nonzero;fill:rgb(100%,100%,100%);fill-opacity:1;" d="M 64.464844 127.390625 C 61.433594 128.117188 58.339844 128.542969 55.226562 128.667969 C 57.566406 134.863281 61.222656 139.199219 66.050781 140.820312 C 77.714844 144.742188 92.804688 131.894531 103.492188 110.621094 C 100.972656 111.320312 98.363281 111.945312 95.734375 112.480469 C 85.292969 119.855469 74.402344 125.074219 64.464844 127.390625 Z M 104.355469 40.488281 C 107.386719 39.777344 110.480469 39.363281 113.59375 39.257812 C 111.273438 33.0625 107.644531 28.707031 102.808594 27.0625 C 91.167969 23.09375 76.011719 35.871094 65.253906 57.070312 C 67.773438 56.378906 70.382812 55.773438 73.035156 55.265625 C 83.476562 47.914062 94.390625 42.761719 104.351562 40.488281 Z M 104.355469 40.488281 "/>
</g>
</svg>
