<?xml version="1.0" encoding="UTF-8"?>
<svg xmlns="http://www.w3.org/2000/svg" xmlns:xlink="http://www.w3.org/1999/xlink" width="168pt" height="168pt" viewBox="0 0 168 168" version="1.1">
<g id="surface2405">
<path style=" stroke:none;fill-rule:nonzero;fill:rgb(41.176471%,8.627451%,100%);fill-opacity:1;" d="M 168 84 C 168 130.390625 130.390625 168 84 168 C 37.609375 168 0 130.390625 0 84 C 0 37.609375 37.609375 0 84 0 C 130.390625 0 168 37.609375 168 84 "/>
<path style=" stroke:none;fill-rule:nonzero;fill:rgb(100%,100%,100%);fill-opacity:0.5;" d="M 90.007812 33.726562 C 89.402344 33.289062 89.21875 32.472656 89.582031 31.820312 C 90.078125 31.5 90.71875 31.5 91.21875 31.820312 C 94.917969 33.355469 98.269531 35.628906 101.0625 38.5 C 102.652344 39.976562 103.988281 41.695312 105 43.59375 C 106.070312 45.527344 106.949219 47.546875 107.625 49.640625 C 108.269531 51.808594 108.605469 54.0625 108.613281 56.320312 C 108.28125 58.550781 107.957031 69.367188 101.71875 74.460938 L 101.71875 74.457031 C 100.074219 75.445312 97.949219 75.03125 96.792969 73.5 C 95.878906 72.429688 95.75 70.894531 96.46875 69.683594 C 99.121094 65.578125 100.585938 60.820312 100.699219 55.933594 C 100.816406 51.046875 99.578125 46.226562 97.125 42 C 95.023438 39.027344 92.640625 36.261719 90.007812 33.726562 Z M 80.324219 131.28125 C 80.980469 131.917969 80.980469 132.550781 80.65625 132.871094 C 80.332031 133.191406 79.667969 133.507812 79.34375 133.1875 C 75.644531 131.652344 72.292969 129.378906 69.5 126.507812 C 67.914062 125.042969 66.582031 123.320312 65.5625 121.417969 C 64.492188 119.492188 63.613281 117.46875 62.9375 115.375 C 62.289062 113.207031 61.957031 110.953125 61.949219 108.691406 C 62.28125 106.464844 62.605469 95.644531 68.84375 90.550781 C 70.484375 89.566406 72.609375 89.980469 73.761719 91.507812 C 74.753906 92.589844 74.753906 94.246094 73.761719 95.328125 C 71.113281 99.433594 69.648438 104.191406 69.53125 109.074219 C 69.417969 113.960938 70.652344 118.78125 73.105469 123.007812 C 75.230469 125.984375 77.652344 128.757812 80.324219 131.28125 Z M 80.324219 131.28125 "/>
<path style=" stroke:none;fill-rule:nonzero;fill:rgb(100%,100%,100%);fill-opacity:1;" d="M 108.644531 105.03125 C 108.167969 98.921875 105.753906 93.128906 101.75 88.488281 C 97.699219 84.417969 93.050781 80.980469 87.96875 78.304688 C 83.535156 75.851562 79.359375 72.964844 75.5 69.683594 C 72.328125 66.699219 70.152344 62.8125 69.269531 58.546875 C 68.484375 54.144531 69.042969 49.609375 70.875 45.527344 C 73.066406 40.988281 76.210938 36.972656 80.09375 33.757812 C 80.542969 33.359375 80.675781 32.710938 80.425781 32.167969 C 80.234375 31.828125 79.902344 31.59375 79.515625 31.53125 C 79.132812 31.472656 78.742188 31.589844 78.457031 31.851562 C 73.226562 34.132812 68.777344 37.890625 65.65625 42.667969 C 62.164062 47.683594 60.53125 53.757812 61.03125 59.851562 C 61.292969 62.925781 62.070312 65.9375 63.332031 68.757812 C 64.695312 71.550781 66.464844 74.125 68.582031 76.398438 C 72.753906 80.382812 77.511719 83.710938 82.6875 86.257812 C 87.140625 88.566406 91.324219 91.34375 95.15625 94.53125 C 98.527344 97.488281 100.738281 101.550781 101.394531 105.988281 C 102.320312 110.601562 101.742188 115.386719 99.75 119.667969 C 97.515625 124.179688 94.257812 128.101562 90.230469 131.125 C 89.960938 131.277344 89.773438 131.542969 89.710938 131.84375 C 89.644531 132.148438 89.714844 132.464844 89.902344 132.714844 C 90.085938 133.050781 90.425781 133.292969 90.8125 133.351562 C 91.195312 133.410156 91.59375 133.300781 91.878906 133.035156 L 91.875 133.035156 C 96.753906 130.21875 100.996094 126.425781 104.34375 121.894531 C 107.597656 116.863281 109.101562 110.953125 108.644531 105.03125 Z M 108.644531 105.03125 "/>
</g>
</svg>
