<?xml version="1.0" encoding="UTF-8"?>
<svg xmlns="http://www.w3.org/2000/svg" xmlns:xlink="http://www.w3.org/1999/xlink" width="168pt" height="168pt" viewBox="0 0 168 168" version="1.1">
<g id="surface651">
<path style=" stroke:none;fill-rule:evenodd;fill:rgb(95.686275%,61.960784%,0%);fill-opacity:1;" d="M 168 84 C 168 130.390625 130.390625 168 84 168 C 37.609375 168 0 130.390625 0 84 C 0 37.609375 37.609375 0 84 0 C 130.390625 0 168 37.609375 168 84 "/>
<path style=" stroke:none;fill-rule:nonzero;fill:rgb(100%,100%,100%);fill-opacity:1;" d="M 103.714844 91.003906 C 115.503906 72.527344 124.6875 42 124.6875 42 L 105.027344 46.457031 L 97.828125 71.917969 C 97.152344 52.828125 84.0625 45.839844 84.0625 45.839844 C 73.578125 40.730469 64.234375 42.980469 57.496094 46.492188 C 49.160156 50.828125 43.09375 58.390625 40.191406 67.09375 C 36.066406 79.476562 36.570312 93.375 37.113281 99.664062 C 37.332031 102.613281 37.984375 105.519531 39.054688 108.289062 C 46.289062 127.046875 66.328125 125.980469 66.328125 125.980469 C 84.6875 125.328125 95.84375 103.710938 95.84375 103.710938 L 101.105469 119.609375 C 105.820312 127.585938 116.261719 124.597656 118.410156 124.152344 C 118.789062 124.066406 119.125 124.027344 119.507812 123.941406 L 131.25 122.152344 L 131.25 117.042969 C 105.691406 117.734375 103.714844 91.007812 103.714844 91.007812 M 78.835938 110.21875 C 77.253906 111.839844 75.261719 112.996094 73.070312 113.566406 C 68.308594 114.753906 64.648438 112.753906 62.125 110.300781 C 59.300781 107.453125 57.371094 103.84375 56.5625 99.917969 C 51.933594 73.71875 58.332031 62.238281 62.585938 56.960938 C 64.933594 53.960938 68.585938 52.273438 72.390625 52.425781 C 88.898438 53.285156 92.601562 87.820312 92.601562 87.820312 C 87.929688 100.078125 81.90625 107.191406 78.832031 110.21875 "/>
</g>
</svg>
