<?xml version="1.0" encoding="UTF-8"?>
<svg xmlns="http://www.w3.org/2000/svg" xmlns:xlink="http://www.w3.org/1999/xlink" width="168pt" height="168pt" viewBox="0 0 168 168" version="1.1">
<g id="surface906">
<path style=" stroke:none;fill-rule:nonzero;fill:rgb(0%,74.901961%,92.54902%);fill-opacity:1;" d="M 168 84 C 168 130.390625 130.390625 168 84 168 C 37.609375 168 0 130.390625 0 84 C 0 37.609375 37.609375 0 84 0 C 130.390625 0 168 37.609375 168 84 "/>
<path style=" stroke:none;fill-rule:nonzero;fill:rgb(100%,100%,100%);fill-opacity:1;" d="M 83.847656 121.539062 C 63.074219 121.539062 46.171875 104.746094 46.171875 84.105469 C 46.171875 63.460938 63.078125 46.671875 83.847656 46.671875 C 104.621094 46.671875 121.523438 63.460938 121.523438 84.105469 C 121.523438 104.742188 104.625 121.539062 83.847656 121.539062 Z M 83.847656 54.003906 C 67.148438 54.003906 53.554688 67.507812 53.554688 84.105469 C 53.554688 100.699219 67.148438 114.203125 83.847656 114.203125 C 100.554688 114.203125 114.140625 100.699219 114.140625 84.105469 C 114.140625 67.503906 100.554688 54.003906 83.847656 54.003906 Z M 110.230469 41.324219 C 102.28125 36.484375 93.152344 33.929688 83.847656 33.941406 C 75.28125 33.9375 66.855469 36.101562 59.351562 40.230469 L 55.761719 33.824219 C 64.363281 29.085938 74.027344 26.601562 83.847656 26.601562 C 94.558594 26.601562 105.015625 29.53125 114.09375 35.074219 L 110.230469 41.320312 Z M 121.230469 128 L 116.457031 122.398438 C 127.785156 112.90625 134.328125 98.886719 134.332031 84.105469 L 141.714844 84.105469 C 141.714844 101.042969 134.25 117.039062 121.230469 127.996094 Z M 83.851562 141.597656 C 70.425781 141.597656 57.34375 136.925781 47.015625 128.445312 L 51.71875 122.796875 C 60.78125 130.214844 72.136719 134.265625 83.847656 134.269531 C 92.039062 134.269531 99.851562 132.378906 107.0625 128.664062 L 110.460938 135.175781 L 110.460938 135.171875 C 102.226562 139.398438 93.101562 141.601562 83.847656 141.601562 Z M 83.851562 141.597656 "/>
<path style=" stroke:none;fill-rule:nonzero;fill:rgb(100%,100%,100%);fill-opacity:0.5;" d="M 133.085938 70.480469 C 131.15625 63.558594 127.761719 57.132812 123.132812 51.632812 L 127.859375 47.714844 L 127.859375 47.71875 C 133.046875 53.878906 136.851562 61.085938 139.015625 68.847656 L 133.09375 70.480469 Z M 36.015625 115.375 C 29.863281 106.105469 26.585938 95.226562 26.601562 84.105469 C 26.601562 68.554688 32.796875 54.035156 44.046875 43.214844 L 48.320312 47.609375 L 48.320312 47.605469 C 38.339844 57.117188 32.707031 70.316406 32.75 84.105469 C 32.75 94.074219 35.660156 103.726562 41.148438 112.015625 Z M 36.015625 115.375 "/>
</g>
</svg>
