<?xml version="1.0" encoding="UTF-8"?>
<svg xmlns="http://www.w3.org/2000/svg" xmlns:xlink="http://www.w3.org/1999/xlink" width="168pt" height="168pt" viewBox="0 0 168 168" version="1.1">
<g id="surface136">
<path style=" stroke:none;fill-rule:nonzero;fill:rgb(0%,0%,0%);fill-opacity:1;" d="M 168 84 C 168 130.390625 130.390625 168 84 168 C 37.609375 168 0 130.390625 0 84 C 0 37.609375 37.609375 0 84 0 C 130.390625 0 168 37.609375 168 84 "/>
<path style=" stroke:none;fill-rule:nonzero;fill:rgb(100%,100%,100%);fill-opacity:1;" d="M 53.8125 120.308594 L 65.902344 99.382812 L 77.984375 78.53125 L 89.996094 57.605469 L 91.992188 54.289062 L 92.867188 57.605469 L 96.550781 71.382812 L 92.425781 78.535156 L 80.34375 99.386719 L 68.332031 120.3125 L 82.769531 120.3125 L 94.855469 99.386719 L 101.117188 88.554688 L 104.066406 99.386719 L 109.664062 120.3125 L 122.632812 120.3125 L 117.035156 99.386719 L 111.433594 78.535156 L 109.964844 73.152344 L 118.953125 57.605469 L 105.839844 57.601562 L 105.394531 56.054688 L 100.828125 38.960938 L 100.238281 36.75 L 87.636719 36.75 L 87.34375 37.191406 L 75.550781 57.601562 L 63.464844 78.527344 L 51.457031 99.378906 L 39.375 120.308594 Z M 53.8125 120.308594 "/>
</g>
</svg>
