<?xml version="1.0" encoding="UTF-8"?>
<svg xmlns="http://www.w3.org/2000/svg" xmlns:xlink="http://www.w3.org/1999/xlink" width="168pt" height="168pt" viewBox="0 0 168 168" version="1.1">
<g id="surface891">
<path style=" stroke:none;fill-rule:nonzero;fill:rgb(23.529412%,35.686275%,87.843137%);fill-opacity:1;" d="M 168 84 C 168 130.390625 130.390625 168 84 168 C 37.609375 168 0 130.390625 0 84 C 0 37.609375 37.609375 0 84 0 C 130.390625 0 168 37.609375 168 84 "/>
<path style=" stroke:none;fill-rule:nonzero;fill:rgb(100%,100%,100%);fill-opacity:1;" d="M 141.75 84.078125 L 141.75 84.121094 C 141.734375 84.539062 141.621094 84.949219 141.417969 85.316406 C 140.683594 86.65625 123.089844 118.125 84.003906 118.125 C 44.917969 118.125 27.316406 86.65625 26.585938 85.316406 C 26.382812 84.949219 26.269531 84.539062 26.25 84.121094 L 26.25 83.886719 L 26.253906 83.765625 C 26.285156 83.417969 26.382812 83.082031 26.539062 82.773438 L 26.550781 82.753906 L 26.582031 82.691406 C 27.316406 81.34375 44.914062 49.875 84 49.875 C 123.085938 49.875 140.683594 81.347656 141.414062 82.6875 L 141.445312 82.75 L 141.460938 82.777344 C 141.617188 83.085938 141.710938 83.421875 141.738281 83.765625 L 141.738281 84.007812 L 141.75 84.082031 Z M 135.921875 84 C 132.964844 79.410156 121.855469 64.085938 101.71875 57.921875 C 108.203125 62.464844 112.761719 69.257812 114.511719 76.980469 C 115.890625 77.296875 116.882812 78.535156 116.910156 79.972656 C 116.9375 81.410156 115.992188 82.683594 114.617188 83.050781 C 113.242188 83.417969 111.808594 82.789062 111.125 81.527344 C 110.449219 80.265625 110.703125 78.703125 111.75 77.726562 C 109.15625 66.054688 99.558594 57.042969 87.738281 55.472656 C 87.648438 55.460938 87.5625 55.441406 87.476562 55.414062 C 85.160156 55.289062 82.835938 55.289062 80.519531 55.414062 C 80.433594 55.441406 80.347656 55.460938 80.257812 55.472656 C 75.648438 56.089844 71.265625 57.839844 67.5 60.5625 C 67.125 60.828125 66.652344 60.898438 66.21875 60.753906 C 65.785156 60.609375 65.445312 60.265625 65.308594 59.828125 C 65.121094 59.230469 65.335938 58.582031 65.839844 58.210938 C 65.96875 58.121094 66.09375 58.027344 66.222656 57.9375 C 46.117188 64.117188 35.027344 79.410156 32.078125 84 C 35.003906 88.550781 45.9375 103.636719 65.730469 109.910156 C 59.203125 105.140625 54.742188 98.0625 53.261719 90.117188 C 51.929688 89.617188 51.109375 88.265625 51.265625 86.832031 C 51.421875 85.398438 52.527344 84.257812 53.933594 84.074219 C 55.339844 83.890625 56.695312 84.703125 57.210938 86.054688 C 57.71875 87.394531 57.261719 88.910156 56.097656 89.742188 C 58.355469 101.34375 67.375 110.359375 78.839844 112.476562 C 82.277344 112.757812 85.734375 112.757812 89.171875 112.476562 C 93.449219 111.671875 97.484375 109.890625 100.957031 107.269531 C 101.363281 106.953125 101.910156 106.882812 102.386719 107.085938 C 102.859375 107.296875 103.1875 107.742188 103.246094 108.261719 C 103.300781 108.777344 103.078125 109.285156 102.660156 109.59375 L 102.203125 109.933594 C 122.039062 103.671875 132.996094 88.554688 135.925781 84 Z M 109.304688 84.089844 C 109.304688 98.25 97.953125 109.773438 84 109.773438 C 70.046875 109.773438 58.695312 98.25 58.695312 84.089844 C 58.695312 69.929688 70.046875 58.410156 84 58.410156 C 97.953125 58.410156 109.304688 69.921875 109.304688 84.089844 Z M 106.449219 84.089844 C 106.449219 71.53125 96.378906 61.308594 84 61.308594 C 71.621094 61.308594 61.546875 71.523438 61.546875 84.09375 C 61.546875 96.664062 71.621094 106.867188 84 106.867188 C 96.378906 106.867188 106.449219 96.652344 106.449219 84.085938 Z M 92.273438 77.039062 C 92.273438 79.789062 90.914062 82.351562 88.652344 83.863281 L 90.910156 97.65625 C 91.015625 98.152344 90.886719 98.667969 90.5625 99.054688 C 90.234375 99.441406 89.75 99.660156 89.246094 99.644531 L 79.164062 99.644531 C 78.660156 99.660156 78.171875 99.441406 77.847656 99.054688 C 77.523438 98.667969 77.390625 98.152344 77.496094 97.65625 L 79.742188 83.863281 C 76.527344 81.707031 75.269531 77.535156 76.734375 73.917969 C 78.199219 70.300781 81.984375 68.242188 85.765625 69 C 89.550781 69.761719 92.277344 73.125 92.277344 77.039062 Z M 115.09375 87.765625 L 115.097656 87.765625 C 114.363281 94.339844 111.589844 100.523438 107.167969 105.445312 C 106.828125 105.835938 106.304688 106.007812 105.800781 105.898438 C 105.296875 105.789062 104.890625 105.414062 104.742188 104.921875 C 104.585938 104.421875 104.707031 103.878906 105.058594 103.492188 C 109.074219 99.019531 111.59375 93.402344 112.261719 87.429688 C 112.347656 86.640625 113.054688 86.074219 113.839844 86.15625 C 114.628906 86.25 115.183594 86.96875 115.09375 87.761719 Z M 63.277344 62.207031 C 63.851562 62.761719 63.875 63.671875 63.332031 64.253906 C 59.304688 68.566406 56.695312 74.007812 55.859375 79.847656 C 55.742188 80.628906 55.015625 81.171875 54.234375 81.058594 C 53.449219 80.933594 52.914062 80.203125 53.03125 79.417969 C 53.953125 72.992188 56.824219 67.003906 61.257812 62.265625 C 61.515625 61.988281 61.875 61.824219 62.257812 61.816406 C 62.636719 61.804688 63.003906 61.949219 63.277344 62.210938 Z M 63.277344 62.207031 "/>
</g>
</svg>
