<?xml version="1.0" encoding="UTF-8"?>
<svg xmlns="http://www.w3.org/2000/svg" xmlns:xlink="http://www.w3.org/1999/xlink" width="168pt" height="168pt" viewBox="0 0 168 168" version="1.1">
<g id="surface541">
<path style=" stroke:none;fill-rule:evenodd;fill:rgb(17.647059%,68.235294%,89.411765%);fill-opacity:1;" d="M 168 84 C 168 130.390625 130.390625 168 84 168 C 37.609375 168 0 130.390625 0 84 C 0 37.609375 37.609375 0 84 0 C 130.390625 0 168 37.609375 168 84 "/>
<path style=" stroke:none;fill-rule:evenodd;fill:rgb(100%,100%,100%);fill-opacity:1;" d="M 43.589844 62.773438 L 44.167969 62.773438 C 49.222656 62.679688 53.617188 60.769531 57.34375 57.046875 C 60.964844 53.128906 62.78125 48.640625 62.78125 43.582031 C 62.78125 41.003906 63.710938 38.785156 65.574219 36.917969 L 65.578125 36.917969 C 67.363281 35.085938 69.824219 34.078125 72.382812 34.125 C 74.957031 34.125 77.179688 35.054688 79.039062 36.917969 C 80.902344 38.78125 81.832031 41.003906 81.832031 43.582031 C 81.832031 46.15625 80.949219 48.378906 79.1875 50.246094 L 79.1875 50.242188 C 77.546875 52.042969 75.246094 53.105469 72.8125 53.175781 C 67.367188 52.980469 62.691406 54.84375 58.773438 58.761719 C 54.855469 62.679688 53 67.261719 53.1875 72.515625 C 53.375 77.953125 55.339844 82.492188 59.0625 86.117188 C 63.167969 89.746094 67.75 91.515625 72.8125 91.417969 L 72.8125 91.421875 C 75.246094 91.496094 77.546875 92.558594 79.1875 94.363281 C 80.953125 96.222656 81.832031 98.394531 81.832031 100.875 C 81.832031 103.550781 80.902344 105.820312 79.039062 107.683594 C 77.300781 109.492188 74.890625 110.503906 72.382812 110.476562 C 69.707031 110.476562 67.441406 109.542969 65.578125 107.683594 C 63.746094 105.898438 62.738281 103.433594 62.785156 100.878906 C 62.867188 95.921875 60.894531 91.152344 57.339844 87.703125 C 53.910156 84.0625 49.164062 81.945312 44.164062 81.820312 C 42.351562 81.921875 40.804688 81.632812 39.511719 80.964844 C 38.242188 80.316406 37.160156 79.355469 36.363281 78.171875 C 35.539062 76.957031 34.953125 75.59375 34.640625 74.160156 C 34.308594 72.730469 34.238281 71.25 34.429688 69.792969 C 35.667969 65.113281 38.722656 62.773438 43.589844 62.773438 Z M 43.722656 91.421875 C 46.207031 91.421875 48.378906 92.332031 50.238281 94.148438 C 52.101562 95.960938 53.078125 98.113281 53.179688 100.59375 C 53.078125 105.84375 54.894531 110.425781 58.617188 114.34375 C 62.34375 118.160156 66.828125 120.070312 72.082031 120.070312 L 72.511719 120.070312 C 77.667969 120.070312 82.101562 118.160156 85.832031 114.34375 C 89.648438 110.523438 91.511719 105.945312 91.417969 100.589844 C 91.402344 95.523438 89.273438 90.695312 85.542969 87.269531 C 81.773438 83.683594 77.390625 81.867188 72.382812 81.824219 L 71.792969 81.824219 L 71.792969 81.828125 C 69.359375 81.753906 67.058594 80.695312 65.421875 78.890625 C 63.6875 77.113281 62.730469 74.714844 62.769531 72.230469 C 62.769531 69.65625 63.703125 67.433594 65.5625 65.566406 C 67.144531 63.992188 69.015625 63.078125 71.179688 62.835938 L 71.808594 62.773438 L 72.050781 62.777344 L 72.050781 62.78125 C 72.300781 62.773438 72.550781 62.773438 72.800781 62.785156 C 77.734375 62.722656 82.03125 60.859375 85.699219 57.1875 C 89.617188 53.269531 91.527344 48.640625 91.425781 43.289062 C 91.425781 41.1875 92.144531 39.277344 93.578125 37.5625 L 93.71875 37.421875 L 93.859375 37.273438 C 93.859375 37.179688 93.910156 37.132812 94 37.132812 L 94.148438 36.992188 L 94.148438 36.851562 L 94.289062 36.851562 L 94.296875 36.699219 C 94.390625 36.699219 94.4375 36.652344 94.4375 36.558594 L 94.578125 36.417969 L 94.867188 36.417969 C 94.867188 36.316406 94.917969 36.269531 95.007812 36.269531 L 95.15625 36.128906 L 95.15625 35.988281 L 95.441406 35.988281 C 95.441406 35.886719 95.492188 35.839844 95.582031 35.839844 L 95.730469 35.699219 L 95.871094 35.558594 L 96.011719 35.558594 C 96.011719 35.464844 96.0625 35.417969 96.160156 35.417969 C 96.253906 35.417969 96.300781 35.367188 96.300781 35.269531 L 96.441406 35.269531 L 96.582031 35.128906 L 96.871094 35.128906 L 96.871094 34.988281 L 97.011719 34.988281 L 97.160156 34.839844 L 97.445312 34.839844 L 97.445312 34.703125 L 97.734375 34.703125 L 97.875 34.5625 L 98.164062 34.5625 L 98.304688 34.421875 L 98.734375 34.421875 L 98.875 34.273438 L 99.304688 34.273438 C 99.398438 34.273438 99.445312 34.226562 99.445312 34.132812 L 102.453125 34.132812 L 102.527344 34.207031 C 102.574219 34.253906 102.644531 34.273438 102.738281 34.273438 L 103.027344 34.273438 L 103.101562 34.347656 C 103.148438 34.394531 103.21875 34.421875 103.3125 34.421875 L 103.601562 34.421875 L 103.742188 34.5625 L 104.03125 34.5625 L 104.171875 34.703125 L 104.460938 34.703125 C 104.554688 34.796875 104.648438 34.84375 104.746094 34.84375 L 104.894531 34.992188 L 105.179688 34.992188 L 105.179688 35.132812 L 105.328125 35.132812 L 105.46875 35.273438 L 105.535156 35.347656 C 105.585938 35.398438 105.65625 35.421875 105.75 35.421875 L 105.898438 35.5625 L 106.039062 35.5625 C 106.039062 35.65625 106.132812 35.703125 106.324219 35.703125 L 106.472656 35.84375 L 106.472656 35.992188 L 106.613281 35.992188 C 106.613281 36.085938 106.707031 36.132812 106.902344 36.132812 C 106.902344 36.226562 106.949219 36.273438 107.042969 36.273438 L 107.042969 36.421875 L 107.183594 36.421875 L 107.332031 36.5625 C 107.425781 36.65625 107.519531 36.703125 107.617188 36.703125 L 107.757812 36.851562 C 107.757812 36.945312 107.808594 36.992188 107.90625 36.992188 L 107.90625 37.132812 L 108.046875 37.132812 C 108.046875 37.226562 108.074219 37.300781 108.121094 37.34375 L 108.1875 37.421875 C 108.1875 37.515625 108.238281 37.5625 108.335938 37.5625 L 108.476562 37.703125 C 108.476562 37.796875 108.496094 37.871094 108.542969 37.917969 L 108.757812 38.132812 L 108.90625 38.273438 L 108.90625 38.5625 L 109.046875 38.703125 L 109.046875 38.851562 L 109.1875 38.851562 C 109.1875 38.953125 109.214844 39.019531 109.261719 39.066406 L 109.328125 39.140625 C 109.328125 39.234375 109.378906 39.28125 109.476562 39.28125 L 109.476562 39.429688 C 109.476562 39.523438 109.496094 39.59375 109.542969 39.640625 L 109.757812 39.855469 C 109.757812 40.050781 109.808594 40.144531 109.90625 40.144531 L 109.90625 40.285156 C 109.90625 40.386719 109.925781 40.453125 109.972656 40.5 L 110.046875 40.574219 L 110.046875 40.859375 L 110.1875 41.007812 L 110.1875 41.4375 C 110.28125 41.53125 110.328125 41.625 110.328125 41.722656 L 110.328125 42.152344 C 110.429688 42.246094 110.476562 42.339844 110.476562 42.441406 L 110.480469 43.574219 C 110.480469 48.636719 112.292969 53.125 115.917969 57.039062 C 119.644531 60.761719 124.085938 62.671875 129.242188 62.765625 C 131.816406 62.671875 134.109375 63.554688 136.121094 65.417969 C 138.121094 67.277344 139.125 69.542969 139.125 72.222656 C 139.125 74.894531 138.195312 77.15625 136.332031 79.027344 C 134.59375 80.839844 132.179688 81.851562 129.667969 81.820312 C 127.1875 81.855469 124.792969 80.902344 123.011719 79.171875 C 121.1875 77.488281 120.125 75.132812 120.074219 72.648438 C 120.175781 67.398438 118.261719 62.769531 114.351562 58.757812 C 110.53125 54.9375 105.898438 53.078125 100.453125 53.171875 C 95.453125 53.292969 90.707031 55.410156 87.277344 59.046875 C 83.71875 62.5 81.75 67.269531 81.832031 72.222656 L 81.828125 72.664062 C 81.933594 77.546875 83.746094 81.886719 87.265625 85.683594 C 90.988281 89.410156 95.429688 91.320312 100.585938 91.417969 C 104.019531 91.230469 106.648438 92.46875 108.460938 95.144531 C 110.277344 97.71875 110.851562 100.445312 110.183594 103.308594 C 108.84375 108.085938 105.789062 110.46875 101.015625 110.46875 L 100.585938 110.46875 C 95.234375 110.65625 90.792969 112.621094 87.265625 116.34375 C 83.632812 119.972656 81.820312 124.414062 81.820312 129.664062 C 81.820312 132.242188 80.890625 134.460938 79.027344 136.328125 C 77.289062 138.136719 74.878906 139.148438 72.367188 139.121094 L 72.082031 139.121094 C 69.503906 139.121094 67.304688 138.191406 65.492188 136.328125 C 63.71875 134.566406 62.738281 132.164062 62.769531 129.664062 C 62.769531 124.414062 60.957031 119.972656 57.332031 116.34375 L 57.328125 116.34375 C 53.898438 112.707031 49.152344 110.59375 44.152344 110.46875 C 41.523438 110.617188 38.953125 109.65625 37.066406 107.820312 C 35.136719 106.03125 34.066406 103.503906 34.125 100.875 C 34.125 98.296875 35.054688 96.078125 36.917969 94.210938 C 38.703125 92.382812 41.164062 91.371094 43.722656 91.417969 Z M 43.722656 91.421875 "/>
</g>
</svg>
