<?xml version="1.0" encoding="UTF-8"?>
<svg xmlns="http://www.w3.org/2000/svg" xmlns:xlink="http://www.w3.org/1999/xlink" width="168pt" height="168pt" viewBox="0 0 168 168" version="1.1">
<g id="surface236">
<path style=" stroke:none;fill-rule:nonzero;fill:rgb(0%,0%,0%);fill-opacity:1;" d="M 168 84 C 168 130.390625 130.390625 168 84 168 C 37.609375 168 0 130.390625 0 84 C 0 37.609375 37.609375 0 84 0 C 130.390625 0 168 37.609375 168 84 "/>
<path style=" stroke:none;fill-rule:nonzero;fill:rgb(100%,100%,100%);fill-opacity:1;" d="M 39.433594 122.0625 C 39.359375 120.824219 39.355469 119.582031 39.421875 118.339844 C 39.84375 118.214844 40.273438 118.128906 40.714844 118.078125 C 41.984375 117.863281 43.238281 117.570312 44.480469 117.203125 C 44.816406 117.097656 45.152344 116.984375 45.476562 116.855469 C 47.105469 116.230469 48.542969 115.203125 49.632812 113.867188 C 50.390625 112.9375 51.050781 111.933594 51.617188 110.875 C 52.414062 109.425781 53.125 107.929688 53.75 106.398438 C 55.015625 103.3125 56.273438 100.214844 57.53125 97.109375 L 70.441406 65.121094 C 74.519531 54.984375 78.527344 44.820312 82.449219 34.625 C 82.527344 34.414062 82.617188 34.214844 82.707031 34.003906 C 84.15625 33.605469 85.585938 33.195312 87.066406 32.8125 C 87.152344 33.023438 87.234375 33.199219 87.300781 33.390625 L 92.289062 47.046875 L 92.285156 47.046875 C 97.933594 62.570312 103.660156 78.0625 109.46875 93.527344 C 111.066406 97.753906 112.671875 101.980469 114.292969 106.191406 C 114.933594 107.914062 115.683594 109.59375 116.546875 111.222656 L 116.542969 111.222656 C 116.921875 111.917969 117.332031 112.59375 117.773438 113.253906 C 119.121094 115.3125 121.21875 116.796875 123.636719 117.40625 C 124.9375 117.746094 126.261719 118.003906 127.59375 118.179688 L 128.542969 118.316406 C 128.679688 118.730469 128.59375 119.128906 128.605469 119.523438 C 128.621094 119.921875 128.605469 120.363281 128.605469 120.789062 C 128.621094 121.199219 128.609375 121.601562 128.585938 122.011719 C 128.449219 122.03125 128.34375 122.054688 128.238281 122.0625 L 94.832031 122.0625 L 94.835938 122.0625 C 94.800781 121.992188 94.777344 121.914062 94.761719 121.835938 L 94.761719 118.480469 C 94.769531 118.429688 94.785156 118.382812 94.804688 118.335938 C 95.082031 118.257812 95.363281 118.207031 95.648438 118.175781 C 97.023438 118.003906 98.378906 117.738281 99.722656 117.398438 C 100.257812 117.25 100.789062 117.0625 101.3125 116.875 C 101.574219 116.769531 101.828125 116.648438 102.070312 116.507812 C 103.386719 115.785156 103.917969 114.648438 103.804688 113.199219 C 103.746094 112.542969 103.625 111.894531 103.453125 111.257812 C 103.191406 110.261719 102.824219 109.300781 102.476562 108.332031 C 95.554688 89.425781 88.710938 70.492188 81.941406 51.527344 C 81.867188 51.316406 81.847656 51.089844 81.632812 50.90625 C 81.566406 50.949219 81.476562 50.980469 81.421875 51.039062 C 81.367188 51.136719 81.324219 51.238281 81.296875 51.34375 C 77.988281 60.667969 74.464844 69.917969 70.953125 79.167969 C 68.363281 86.023438 65.769531 92.871094 63.355469 99.785156 C 62.394531 102.558594 61.457031 105.34375 60.546875 108.132812 C 60.191406 109.199219 59.929688 110.292969 59.761719 111.40625 C 59.632812 112.144531 59.609375 112.898438 59.699219 113.648438 C 59.8125 114.628906 60.339844 115.519531 61.148438 116.09375 C 61.683594 116.464844 62.273438 116.765625 62.890625 116.96875 C 63.878906 117.308594 64.894531 117.566406 65.929688 117.734375 C 67.070312 117.9375 68.21875 118.097656 69.363281 118.273438 L 69.609375 118.316406 L 69.609375 118.320312 C 69.636719 118.402344 69.65625 118.484375 69.664062 118.570312 L 69.664062 121.816406 C 69.65625 121.878906 69.640625 121.941406 69.621094 122.003906 C 69.519531 122.027344 69.414062 122.046875 69.308594 122.058594 L 39.433594 122.058594 Z M 39.433594 122.0625 "/>
</g>
</svg>
