<?xml version="1.0" encoding="UTF-8"?>
<svg xmlns="http://www.w3.org/2000/svg" xmlns:xlink="http://www.w3.org/1999/xlink" width="168pt" height="168pt" viewBox="0 0 168 168" version="1.1">
<g id="surface276">
<path style=" stroke:none;fill-rule:nonzero;fill:rgb(18.039216%,41.960784%,96.470588%);fill-opacity:1;" d="M 168 84 C 168 130.390625 130.390625 168 84 168 C 37.609375 168 0 130.390625 0 84 C 0 37.609375 37.609375 0 84 0 C 130.390625 0 168 37.609375 168 84 "/>
<path style=" stroke:none;fill-rule:evenodd;fill:rgb(100%,100%,100%);fill-opacity:1;" d="M 90.898438 33.074219 L 125.652344 50.660156 C 130.691406 53.285156 133.875 58.273438 133.875 64.046875 L 133.875 72.183594 L 121.136719 72.183594 L 121.136719 64.050781 C 121.136719 63.261719 120.613281 62.476562 119.8125 61.949219 L 85.058594 44.363281 C 84.535156 44.101562 83.730469 44.101562 82.9375 44.363281 L 48.183594 61.949219 C 47.390625 62.210938 46.859375 63 46.859375 64.050781 L 46.859375 72.1875 L 34.125 72.1875 L 34.125 64.050781 C 34.125 58.539062 37.304688 53.289062 42.347656 50.664062 L 77.101562 33.078125 C 81.347656 30.976562 86.390625 30.976562 90.898438 33.078125 Z M 94.878906 83.472656 C 94.878906 77.433594 89.839844 72.710938 84 72.710938 C 77.898438 72.710938 73.121094 77.4375 73.121094 83.472656 C 73.121094 89.511719 78.160156 94.234375 84 94.234375 C 89.839844 94.234375 94.878906 89.507812 94.878906 83.472656 Z M 119.554688 106.046875 C 120.34375 105.785156 120.878906 104.996094 120.878906 103.945312 L 120.878906 95.808594 L 133.609375 95.808594 L 133.609375 103.945312 C 133.609375 109.457031 130.429688 114.707031 125.386719 117.332031 L 90.632812 134.917969 C 88.511719 135.96875 86.125 136.492188 83.734375 136.492188 C 81.351562 136.492188 78.957031 135.96875 76.839844 134.917969 L 42.347656 117.332031 C 37.308594 114.707031 34.125 109.71875 34.125 103.945312 L 34.125 95.808594 L 46.863281 95.808594 L 46.863281 103.945312 C 46.863281 104.734375 47.386719 105.519531 48.1875 106.046875 L 77.640625 120.746094 L 77.640625 106.046875 C 67.554688 103.160156 60.394531 94.234375 60.394531 83.472656 C 60.394531 70.609375 71 59.847656 84.273438 59.847656 C 97.273438 59.847656 108.144531 70.347656 108.144531 83.472656 C 108.144531 94.234375 100.722656 103.421875 90.902344 106.046875 L 90.898438 120.75 L 119.546875 106.050781 Z M 119.554688 106.046875 "/>
</g>
</svg>
