<?xml version="1.0" encoding="UTF-8"?>
<svg xmlns="http://www.w3.org/2000/svg" xmlns:xlink="http://www.w3.org/1999/xlink" width="168pt" height="168pt" viewBox="0 0 168 168" version="1.1">
<g id="surface2049">
<path style=" stroke:none;fill-rule:evenodd;fill:rgb(17.254902%,82.745098%,88.235294%);fill-opacity:1;" d="M 168 84 C 168 130.390625 130.390625 168 84 168 C 37.609375 168 0 130.390625 0 84 C 0 37.609375 37.609375 0 84 0 C 130.390625 0 168 37.609375 168 84 "/>
<path style=" stroke:none;fill-rule:nonzero;fill:rgb(100%,100%,100%);fill-opacity:1;" d="M 41.816406 92.390625 C 41.78125 91.835938 41.765625 91.28125 41.765625 90.726562 C 41.765625 72.261719 56.160156 57.253906 74.167969 56.613281 C 74.597656 56.613281 75.058594 56.613281 75.492188 56.648438 L 71.199219 52.378906 C 71.199219 52.378906 88.488281 49.492188 110.683594 62.835938 C 110.683594 62.835938 111.007812 63.511719 110.683594 65.503906 C 110.683594 65.503906 121.140625 69.988281 122.035156 78.703125 C 122.925781 87.417969 117.382812 92.398438 112.90625 93.109375 C 112.90625 93.109375 115.230469 89.519531 111.65625 87.597656 L 111.652344 87.597656 C 110.871094 87.175781 109.992188 86.976562 109.105469 87.027344 C 102.269531 87.027344 101.484375 94.78125 101.484375 94.78125 C 101.410156 95.167969 101.410156 95.5625 101.410156 95.953125 C 101.410156 95.953125 100.414062 105.816406 116.75 106.976562 L 116.75 106.980469 C 120.484375 102.164062 123.753906 97.007812 126.519531 91.574219 C 130.882812 83.015625 134.152344 73.9375 136.246094 64.558594 C 126.726562 56.757812 115.503906 50.070312 103.433594 44.46875 C 98.90625 42.367188 94.523438 40.546875 90.371094 38.984375 L 90.375 38.980469 C 88.257812 38.179688 86.121094 37.425781 83.96875 36.722656 C 82.277344 37.269531 80.136719 38.015625 77.5625 38.980469 C 73.414062 40.539062 69.027344 42.367188 64.503906 44.464844 C 52.445312 50.0625 41.214844 56.75 31.695312 64.5625 C 32.210938 67.039062 32.992188 70.132812 34.117188 73.722656 L 34.121094 73.726562 C 36.125 80.164062 38.699219 86.410156 41.816406 92.390625 Z M 141.75 62.484375 L 141.488281 63.953125 C 141.351562 65.09375 140.421875 69.175781 139.277344 73.089844 C 137.1875 80.246094 134.429688 87.1875 131.039062 93.828125 C 126.28125 103.101562 120.507812 111.183594 113.882812 117.839844 C 105.707031 126.035156 96.25 132.089844 85.707031 135.859375 L 85.117188 136.070312 L 84 136.5 L 82.890625 136.113281 L 82.269531 135.898438 L 82.273438 135.894531 C 71.648438 132.082031 62.019531 125.921875 54.101562 117.871094 C 47.445312 111.152344 41.675781 103.082031 36.945312 93.859375 C 32.535156 85.191406 29.203125 76.019531 27.023438 66.542969 C 26.761719 65.367188 26.472656 63.898438 26.523438 64.105469 L 26.25 62.597656 L 26.878906 62.074219 L 27.339844 61.679688 C 37.019531 53.53125 48.472656 46.542969 60.835938 40.667969 C 67.796875 37.324219 74.960938 34.4375 82.292969 32.019531 L 83.964844 31.5 L 85.105469 31.839844 L 85.671875 32.023438 C 91.34375 33.84375 98.875 36.75 107.113281 40.664062 C 119.460938 46.527344 130.894531 53.503906 140.566406 61.636719 L 141.753906 62.476562 Z M 101.839844 66.285156 C 102.128906 66.144531 103.058594 65.679688 104.132812 64.578125 C 106.28125 64.863281 108.390625 65.539062 108.390625 65.539062 C 104.488281 63.191406 99.152344 61.800781 93.246094 61.835938 C 93.246094 61.835938 95.503906 65.039062 101.765625 66.351562 Z M 101.839844 66.285156 "/>
</g>
</svg>
