<?xml version="1.0" encoding="UTF-8"?>
<svg xmlns="http://www.w3.org/2000/svg" xmlns:xlink="http://www.w3.org/1999/xlink" width="168pt" height="168pt" viewBox="0 0 168 168" version="1.1">
<g id="surface996">
<path style=" stroke:none;fill-rule:nonzero;fill:rgb(0%,32.941176%,97.647059%);fill-opacity:1;" d="M 168 84 C 168 130.390625 130.390625 168 84 168 C 37.609375 168 0 130.390625 0 84 C 0 37.609375 37.609375 0 84 0 C 130.390625 0 168 37.609375 168 84 "/>
<path style=" stroke:none;fill-rule:evenodd;fill:rgb(100%,100%,100%);fill-opacity:1;" d="M 149.335938 76.214844 C 149.523438 77.621094 149.667969 79.039062 149.765625 80.472656 L 149.617188 78.707031 L 149.300781 80.472656 L 149.304688 80.472656 C 149.183594 81.066406 149.046875 81.660156 148.902344 82.25 L 148.429688 84.023438 L 148.1875 84.835938 L 148.1875 84.839844 C 146.976562 88.589844 145.15625 92.113281 142.792969 95.265625 C 140.828125 98.042969 138.46875 100.515625 135.785156 102.609375 C 135.222656 103.058594 134.757812 103.609375 134.410156 104.238281 C 134.058594 105.050781 133.84375 105.917969 133.78125 106.800781 L 133.675781 108.128906 L 133.625 108.695312 L 133.574219 109.214844 L 133.511719 109.699219 L 133.445312 110.167969 L 133.359375 110.625 L 133.148438 111.726562 C 132.082031 117.125 130.152344 121.09375 127.125 125.671875 L 123.910156 130.316406 C 119.03125 136.730469 113.292969 140.867188 106.417969 142.878906 L 104.96875 143.316406 L 103.484375 143.527344 L 103.484375 143.523438 C 101.523438 143.859375 99.539062 144.035156 97.550781 144.050781 L 94.914062 144.050781 L 93.285156 144.15625 C 92.1875 144.15625 91.175781 144.351562 90 144.769531 C 85.222656 146.269531 79.515625 147 72.492188 147 L 71.605469 147 L 70.273438 146.972656 L 69.363281 146.953125 L 67.945312 146.902344 L 66.949219 146.859375 L 65.351562 146.78125 L 64.25 146.730469 L 64.25 146.726562 C 63.222656 146.40625 62.199219 146.058594 61.1875 145.6875 L 65.386719 145.941406 L 66.976562 146.019531 L 68.445312 146.082031 L 69.832031 146.125 L 70.722656 146.144531 L 72.046875 146.160156 L 73.253906 146.160156 C 79.84375 146.109375 85.222656 145.382812 89.722656 143.976562 C 90.96875 143.523438 92.085938 143.320312 93.25 143.320312 L 94.878906 143.214844 L 97.546875 143.214844 C 99.328125 143.214844 101.296875 143.03125 103.351562 142.691406 L 104.78125 142.496094 L 106.707031 141.90625 C 113.164062 139.890625 118.582031 135.914062 123.214844 129.820312 L 126.40625 125.199219 C 129.488281 120.542969 131.410156 116.53125 132.429688 110.933594 L 132.472656 110.703125 L 132.558594 110.25 L 132.632812 109.804688 L 132.695312 109.34375 L 132.746094 108.851562 L 132.804688 108.320312 L 132.882812 107.410156 L 132.957031 106.332031 L 132.957031 106.339844 C 133.0625 105.492188 133.292969 104.667969 133.640625 103.886719 C 133.988281 103.203125 134.554688 102.53125 135.246094 101.953125 C 137.867188 99.910156 140.175781 97.492188 142.101562 94.777344 C 144.441406 91.628906 146.222656 88.195312 147.367188 84.59375 C 148.109375 82.195312 148.636719 79.800781 148.949219 77.453125 L 148.949219 77.242188 L 148.984375 77.085938 Z M 146.324219 63.625 C 146.542969 64.253906 146.761719 64.902344 146.964844 65.546875 L 146.863281 66.296875 L 146.757812 67.085938 L 146.730469 67.234375 L 146.574219 68.199219 L 146.574219 68.476562 C 146.117188 70.96875 145.386719 73.402344 144.402344 75.738281 L 144.335938 75.871094 L 144.335938 75.988281 C 144.335938 76.09375 144.332031 76.171875 144.300781 76.296875 L 144.25 76.53125 L 144.234375 76.617188 L 144.234375 76.972656 L 144.226562 76.96875 C 143.980469 79.074219 143.507812 81.148438 142.820312 83.15625 C 141.769531 86.3125 140.246094 89.292969 138.296875 91.992188 L 137.894531 92.546875 L 137.890625 92.546875 C 136.136719 94.925781 134.046875 97.035156 131.691406 98.820312 C 130.730469 99.480469 129.90625 100.449219 129.25 101.632812 C 128.644531 102.734375 128.332031 103.972656 128.339844 105.230469 C 128.339844 106.816406 128.15625 108.375 127.800781 110.144531 C 127.1875 113.292969 126.101562 116.328125 124.582031 119.148438 L 124.320312 119.632812 L 124.066406 120.09375 L 123.65625 120.796875 L 123.183594 121.570312 L 122.402344 122.816406 L 120.050781 126.191406 C 115.777344 132.03125 110.890625 135.699219 105.035156 137.378906 L 104.667969 137.5 L 104.667969 137.496094 C 104.640625 137.503906 104.613281 137.507812 104.585938 137.511719 L 104.414062 137.554688 L 104 137.671875 L 103.765625 137.734375 L 103.761719 137.734375 C 103.648438 137.761719 103.535156 137.78125 103.417969 137.796875 L 103.15625 137.8125 L 102.851562 137.917969 C 101.519531 138.179688 100.054688 138.3125 98.46875 138.339844 L 97.871094 138.34375 L 95.113281 138.34375 L 94.835938 138.355469 L 93.222656 138.433594 L 92.855469 138.449219 L 92.363281 138.449219 C 92.011719 138.457031 91.664062 138.492188 91.320312 138.554688 L 90.933594 138.621094 L 90.496094 138.714844 L 90.261719 138.773438 L 89.738281 138.90625 L 89.132812 139.0625 C 84.199219 140.5 79 141.183594 72.492188 141.183594 L 71.285156 141.183594 L 70.476562 141.167969 L 69.25 141.132812 L 67.957031 141.082031 L 66.570312 141.019531 L 65.046875 140.933594 L 60.65625 140.660156 L 60.042969 140.65625 L 59.535156 140.550781 L 59.03125 140.484375 L 58.421875 140.410156 L 58.085938 140.378906 L 57.769531 140.359375 L 57.464844 140.347656 L 57.308594 140.347656 C 52.914062 139.910156 49.695312 139.289062 46.179688 137.886719 L 46.171875 137.878906 C 44.914062 136.988281 43.679688 136.058594 42.476562 135.085938 C 42.9375 135.375 43.410156 135.65625 43.898438 135.925781 L 44.40625 136.230469 L 45.035156 136.546875 C 49.046875 138.347656 52.453125 139.070312 57.339844 139.558594 L 57.488281 139.558594 L 57.777344 139.5625 L 58.070312 139.582031 L 58.390625 139.609375 L 58.746094 139.652344 L 59.660156 139.773438 L 60.113281 139.875 L 60.667969 139.875 L 63.984375 140.085938 L 65.601562 140.175781 L 67.523438 140.28125 L 68.835938 140.332031 L 69.671875 140.359375 L 70.878906 140.386719 L 71.683594 140.398438 L 72.488281 140.398438 C 78.917969 140.398438 84.046875 139.730469 88.910156 138.3125 L 89.824219 138.070312 L 90.339844 137.945312 L 90.800781 137.851562 L 91.214844 137.773438 C 91.675781 137.699219 92.085938 137.667969 92.53125 137.667969 L 92.683594 137.667969 L 93.1875 137.652344 L 94.433594 137.585938 L 95.011719 137.566406 L 97.867188 137.566406 C 99.632812 137.566406 101.253906 137.433594 102.644531 137.164062 L 102.964844 137.058594 L 103.089844 137.042969 L 103.09375 137.035156 C 103.3125 137.03125 103.527344 136.996094 103.734375 136.929688 L 104.101562 136.824219 L 104.304688 136.773438 L 104.460938 136.738281 L 104.792969 136.632812 C 110.484375 134.996094 115.230469 131.433594 119.398438 125.738281 L 121.734375 122.382812 L 122.148438 121.730469 L 122.667969 120.890625 L 122.960938 120.402344 L 123.234375 119.933594 L 123.496094 119.480469 L 123.742188 119.019531 L 124.003906 118.535156 L 124.011719 118.539062 C 125.425781 115.851562 126.4375 112.972656 127.019531 109.992188 C 127.371094 108.265625 127.542969 106.757812 127.542969 105.230469 L 127.546875 104.875 C 127.597656 103.578125 127.933594 102.371094 128.550781 101.253906 C 129.257812 99.976562 130.167969 98.917969 131.21875 98.1875 C 133.6875 96.308594 135.84375 94.101562 137.644531 91.535156 L 138.011719 91.019531 C 139.710938 88.582031 141.074219 85.859375 142.066406 82.914062 C 142.730469 80.972656 143.1875 78.964844 143.429688 76.929688 L 143.429688 76.613281 C 143.429688 76.539062 143.441406 76.464844 143.457031 76.382812 L 143.53125 76.066406 C 143.535156 76.039062 143.539062 76.011719 143.539062 75.984375 L 143.539062 75.773438 L 143.582031 75.601562 L 143.675781 75.417969 C 144.65625 73.046875 145.375 70.65625 145.777344 68.410156 L 145.78125 68.140625 L 145.832031 67.824219 L 146.042969 66.449219 C 146.175781 65.472656 146.269531 64.527344 146.320312 63.605469 Z M 105.441406 32.273438 C 109.820312 32.273438 113.511719 32.773438 116.75 33.765625 L 116.902344 33.855469 L 117.058594 34.011719 L 117.484375 34.167969 C 122.949219 36.246094 125.914062 38.488281 129.070312 42.332031 L 130.128906 43.644531 L 130.691406 44.328125 C 131.246094 44.984375 131.773438 45.535156 132.464844 46.164062 L 133.304688 46.984375 L 133.476562 47.152344 L 133.480469 47.148438 C 133.621094 47.28125 133.773438 47.398438 133.933594 47.507812 L 134.425781 47.894531 L 135.003906 48.367188 L 135.609375 48.886719 C 136.96875 50.097656 138.148438 51.492188 139.113281 53.035156 L 139.46875 53.519531 L 139.679688 53.941406 C 141.882812 58.28125 141.96875 61.933594 141.003906 67.253906 L 141 67.515625 C 140.6875 69.339844 140.191406 71.125 139.519531 72.847656 L 139.273438 73.488281 L 139.183594 73.699219 C 138.988281 74.113281 138.878906 74.5625 138.855469 75.023438 C 138.789062 75.273438 138.757812 75.53125 138.761719 75.789062 L 138.761719 76.34375 C 138.585938 78.058594 138.1875 79.742188 137.570312 81.355469 C 136.726562 83.964844 135.449219 86.417969 133.789062 88.605469 C 131.367188 92.082031 128.527344 94.515625 125.085938 96.003906 C 124.386719 96.261719 123.800781 96.769531 123.234375 97.558594 L 123.234375 97.554688 C 122.785156 98.210938 122.515625 98.96875 122.445312 99.761719 L 122.445312 100.574219 C 122.71875 103.835938 122.699219 106.402344 122.226562 109.089844 C 121.421875 113.246094 120.058594 116.109375 117.582031 119.859375 L 116.976562 120.65625 L 116.535156 121.210938 L 116.058594 121.804688 L 116.054688 121.804688 C 114.835938 123.292969 113.542969 124.71875 112.175781 126.074219 C 109.777344 128.445312 107.417969 130.273438 105.191406 131.335938 L 105.195312 131.335938 C 104.652344 131.59375 104.089844 131.8125 103.515625 131.992188 L 102.722656 132.210938 L 101.988281 132.316406 C 100.6875 132.527344 99.382812 132.632812 98.085938 132.632812 L 95.113281 132.632812 L 92.402344 132.753906 L 90.636719 132.847656 L 89.9375 132.898438 L 89.664062 132.929688 L 89.671875 132.929688 C 89.640625 132.9375 89.613281 132.949219 89.585938 132.957031 L 89.398438 133.003906 L 89.144531 133.054688 L 88.964844 133.089844 L 88.964844 133.09375 C 88.867188 133.113281 88.773438 133.152344 88.6875 133.203125 L 88.585938 133.253906 C 83.671875 134.671875 78.707031 135.371094 72.488281 135.371094 L 71.714844 135.371094 L 70.558594 135.351562 L 69.78125 135.332031 L 68.5625 135.289062 L 67.707031 135.246094 L 66.796875 135.203125 L 64.800781 135.085938 L 61.074219 134.84375 L 60.386719 134.84375 L 59.457031 134.722656 L 58.039062 134.523438 L 57.492188 134.464844 L 56.449219 134.34375 C 52.730469 133.882812 50.257812 133.292969 47.257812 131.960938 L 46.785156 131.730469 L 46.492188 131.53125 C 40.585938 128.214844 37.484375 124.269531 34.3125 117.429688 L 33.875 116.484375 L 33.882812 116.488281 C 33.738281 116.15625 33.589844 115.828125 33.449219 115.496094 L 33.207031 115.011719 L 32.976562 114.539062 C 32.832031 114.238281 32.703125 113.925781 32.597656 113.609375 L 32.382812 113.1875 L 32.382812 113.191406 C 31.976562 112.371094 31.621094 111.53125 31.320312 110.671875 L 31.140625 110.179688 L 30.953125 109.617188 L 30.570312 108.445312 L 30.464844 108.234375 L 30.421875 108.078125 L 30.4375 107.960938 C 28.164062 99.859375 28.929688 94.699219 33.363281 88.300781 L 33.808594 87.644531 L 33.925781 87.503906 L 34.347656 86.96875 L 34.871094 86.285156 L 35.832031 85.066406 L 36.609375 84.089844 L 36.945312 83.679688 L 37.261719 83.3125 L 37.566406 82.964844 L 37.859375 82.640625 L 38.164062 82.320312 L 38.480469 81.996094 L 38.816406 81.660156 L 38.8125 81.660156 C 39.089844 81.316406 39.28125 80.917969 39.378906 80.488281 L 39.484375 78.613281 L 39.484375 77.335938 C 39.664062 73.082031 41.136719 69.808594 43.753906 66.046875 L 43.753906 66.050781 C 43.804688 65.996094 43.847656 65.941406 43.882812 65.878906 L 43.945312 65.773438 L 44.0625 65.578125 L 44.121094 65.488281 L 44.347656 65.046875 L 44.542969 64.773438 L 44.894531 64.058594 C 45.320312 63.191406 45.707031 62.347656 46.011719 61.558594 L 46.382812 60.414062 L 46.714844 59.441406 L 46.867188 59.03125 L 46.929688 58.832031 L 46.972656 58.675781 L 47.0625 58.167969 C 47.273438 56.015625 47.78125 53.890625 48.59375 51.726562 L 48.792969 51.332031 L 48.910156 51.027344 L 49.214844 50.144531 L 49.320312 49.882812 C 50.160156 47.210938 51.125 45.230469 53.015625 42.917969 L 53.699219 42.140625 L 54.328125 41.625 C 58.417969 37.949219 62.863281 36.480469 68.121094 36.164062 L 69.1875 36.164062 C 71.691406 36.164062 74.554688 37.054688 77.882812 38.515625 L 78.070312 38.59375 L 78.066406 38.597656 C 78.617188 38.8125 79.214844 38.859375 79.789062 38.734375 L 80.003906 38.699219 L 80.492188 38.59375 L 81 38.410156 C 81.722656 38.132812 82.46875 37.804688 83.242188 37.4375 L 83.820312 37.160156 L 84.878906 36.570312 L 85.667969 36.140625 C 86.089844 35.914062 86.496094 35.703125 86.90625 35.503906 C 89.742188 34.101562 92.457031 33.210938 95.410156 32.898438 C 95.515625 32.898438 95.605469 32.886719 95.746094 32.855469 L 95.964844 32.808594 L 96.039062 32.796875 L 96.089844 32.796875 L 96.195312 32.78125 L 96.429688 32.746094 L 96.566406 32.734375 L 96.890625 32.703125 L 97.917969 32.628906 L 98.347656 32.585938 C 98.839844 32.523438 99.40625 32.46875 100.039062 32.429688 L 100.820312 32.378906 L 101.660156 32.34375 L 102.542969 32.3125 L 103.46875 32.292969 L 104.433594 32.277344 Z M 106.15625 33.007812 L 104.457031 33.007812 L 103.5 33.023438 L 103.039062 33.027344 L 102.148438 33.058594 C 101.996094 33.058594 101.855469 33.070312 101.710938 33.074219 L 100.886719 33.109375 L 100.109375 33.160156 L 99.394531 33.210938 L 98.742188 33.273438 L 98.441406 33.308594 L 97.988281 33.351562 L 97.148438 33.414062 L 96.65625 33.457031 L 96.398438 33.484375 L 96.085938 33.53125 L 95.777344 33.59375 L 95.777344 33.601562 C 95.671875 33.621094 95.566406 33.632812 95.460938 33.632812 C 92.636719 33.925781 90 34.792969 87.238281 36.152344 C 86.683594 36.425781 86.132812 36.714844 85.589844 37.011719 L 85.242188 37.207031 L 84.171875 37.804688 C 83.039062 38.371094 81.875 38.871094 80.683594 39.300781 L 80.148438 39.410156 L 79.914062 39.453125 L 79.910156 39.453125 C 79.644531 39.5 79.371094 39.527344 79.101562 39.527344 C 78.570312 39.523438 78.042969 39.402344 77.5625 39.175781 C 74.339844 37.761719 71.550781 36.898438 69.183594 36.898438 L 68.140625 36.898438 C 63.0625 37.199219 58.769531 38.621094 54.8125 42.175781 L 54.21875 42.664062 L 53.589844 43.386719 C 51.769531 45.609375 50.84375 47.511719 50.019531 50.132812 L 49.898438 50.4375 L 49.699219 51.015625 L 49.5625 51.398438 L 49.46875 51.632812 L 49.273438 52.015625 L 49.269531 52.015625 C 48.507812 54.027344 48.011719 56.125 47.796875 58.265625 L 47.722656 58.679688 L 47.671875 58.914062 L 47.613281 59.128906 L 47.414062 59.683594 L 47.257812 60.152344 L 46.710938 61.804688 L 46.710938 61.808594 C 46.285156 62.863281 45.816406 63.894531 45.296875 64.90625 L 45.175781 65.136719 L 44.988281 65.414062 L 44.777344 65.835938 L 44.703125 65.929688 L 44.515625 66.261719 C 44.460938 66.351562 44.394531 66.4375 44.320312 66.511719 C 41.820312 70.113281 40.394531 73.285156 40.226562 77.351562 L 40.226562 78.632812 L 40.117188 80.574219 L 40.117188 80.578125 C 39.996094 81.148438 39.742188 81.679688 39.375 82.132812 L 38.871094 82.636719 L 38.566406 82.957031 L 38.265625 83.28125 L 37.972656 83.613281 L 37.667969 83.964844 L 37.179688 84.558594 L 36.8125 85.011719 L 35.464844 86.726562 L 34.828125 87.550781 L 34.40625 88.074219 L 33.722656 89.082031 C 29.636719 95.125 28.976562 100.027344 31.160156 107.859375 L 31.160156 107.984375 L 31.25 108.164062 L 31.84375 109.933594 L 32.011719 110.421875 L 32.273438 111.128906 C 32.578125 111.90625 32.894531 112.597656 33.25 113.265625 L 33.269531 113.316406 C 33.363281 113.59375 33.488281 113.894531 33.640625 114.230469 L 33.746094 114.457031 L 34.101562 115.164062 L 34.332031 115.6875 L 34.769531 116.660156 L 34.984375 117.132812 L 35.421875 118.050781 C 38.386719 124.191406 41.394531 127.828125 46.882812 130.914062 L 47.160156 131.097656 L 47.574219 131.300781 C 50.488281 132.585938 52.902344 133.164062 56.566406 133.617188 L 57.59375 133.738281 L 58.132812 133.796875 L 58.648438 133.871094 L 60.433594 134.113281 L 61.09375 134.113281 L 65.871094 134.417969 L 66.832031 134.46875 L 68.585938 134.554688 L 69.398438 134.585938 L 70.1875 134.605469 L 70.570312 134.617188 L 71.714844 134.632812 L 72.480469 134.636719 C 78.628906 134.636719 83.519531 133.949219 88.324219 132.558594 L 88.382812 132.527344 L 88.394531 132.53125 C 88.519531 132.464844 88.652344 132.417969 88.789062 132.382812 L 88.945312 132.347656 L 89.324219 132.269531 L 89.492188 132.226562 L 89.625 132.207031 L 89.992188 132.171875 L 90.484375 132.128906 L 91.519531 132.070312 L 95.101562 131.90625 L 98.089844 131.90625 C 99.351562 131.90625 100.609375 131.800781 101.871094 131.589844 L 102.574219 131.496094 L 103.308594 131.285156 C 103.816406 131.136719 104.335938 130.929688 104.875 130.675781 C 107.015625 129.65625 109.3125 127.878906 111.664062 125.558594 C 113.019531 124.214844 114.308594 122.777344 115.484375 121.34375 L 115.957031 120.761719 L 116.183594 120.484375 L 116.59375 119.960938 L 116.976562 119.453125 C 119.398438 115.789062 120.71875 113.007812 121.507812 108.964844 C 121.964844 106.351562 121.984375 103.847656 121.71875 100.605469 L 121.71875 99.71875 C 121.851562 98.667969 122.117188 97.851562 122.636719 97.136719 C 123.28125 96.246094 123.980469 95.640625 124.816406 95.332031 C 128.109375 93.914062 130.84375 91.566406 133.199219 88.191406 C 134.796875 86.089844 136.042969 83.699219 136.882812 81.113281 C 137.4375 79.734375 137.785156 78.214844 138.027344 76.304688 L 138.027344 75.789062 C 138.027344 75.421875 138.058594 75.199219 138.132812 74.9375 C 138.132812 74.523438 138.210938 74.195312 138.425781 73.636719 L 138.582031 73.222656 L 138.828125 72.59375 L 138.824219 72.585938 C 139.472656 70.929688 139.953125 69.214844 140.265625 67.460938 L 140.265625 67.1875 C 141.222656 61.9375 141.136719 58.429688 139.019531 54.261719 L 138.839844 53.894531 L 138.503906 53.441406 L 138.503906 53.445312 C 137.582031 51.941406 136.4375 50.589844 135.109375 49.429688 C 134.816406 49.171875 134.519531 48.917969 134.214844 48.671875 L 133.496094 48.09375 C 133.316406 47.972656 133.148438 47.839844 132.988281 47.691406 L 132.769531 47.480469 L 131.960938 46.6875 L 131.957031 46.6875 C 131.304688 46.101562 130.691406 45.46875 130.125 44.796875 L 129.890625 44.507812 L 128.492188 42.78125 C 125.316406 38.921875 122.378906 36.75 116.722656 34.660156 L 116.589844 34.574219 L 116.441406 34.433594 L 115.996094 34.300781 C 113.136719 33.488281 109.90625 33.050781 106.152344 33.003906 Z M 149.089844 95.117188 C 148.964844 95.890625 148.828125 96.660156 148.667969 97.425781 L 147.722656 98.757812 L 147.269531 99.371094 C 145.46875 101.800781 143.550781 103.886719 141.46875 105.671875 L 141.472656 105.671875 C 140.511719 106.566406 139.882812 107.761719 139.695312 109.0625 L 139.554688 110.394531 L 139.476562 111 L 139.390625 111.515625 L 139.300781 111.988281 L 139.265625 112.152344 C 138.058594 118.734375 135.667969 123.75 132.371094 128.632812 L 131.636719 129.714844 C 130.59375 130.792969 129.515625 131.832031 128.398438 132.832031 L 131.617188 128.132812 C 134.851562 123.34375 137.183594 118.429688 138.375 111.972656 L 138.410156 111.820312 L 138.5 111.363281 L 138.550781 111.03125 L 138.601562 110.675781 L 138.675781 110.046875 L 138.792969 108.953125 C 139.035156 107.410156 139.757812 105.980469 140.867188 104.996094 C 143.175781 102.996094 145.226562 100.726562 146.984375 98.234375 L 147.4375 97.613281 C 148.019531 96.800781 148.570312 95.960938 149.097656 95.09375 Z M 104.589844 37.636719 C 108.316406 37.636719 111.378906 38.03125 113.972656 38.8125 L 113.914062 38.792969 L 114.078125 38.792969 L 114.210938 38.820312 C 119.230469 40.6875 121.535156 42.46875 124.5 46.191406 L 125.292969 47.15625 L 125.714844 47.660156 L 125.910156 47.886719 L 126.277344 48.296875 C 126.511719 48.558594 126.738281 48.796875 126.980469 49.03125 L 127.359375 49.382812 L 127.558594 49.566406 L 127.996094 49.949219 L 128.207031 50.160156 L 128.386719 50.328125 L 128.570312 50.492188 L 129.023438 50.875 L 129.675781 51.394531 C 131.007812 52.421875 131.722656 53.0625 132.589844 54.214844 C 132.867188 54.582031 133.136719 54.972656 133.402344 55.410156 L 133.613281 55.832031 C 135.046875 58.652344 135.136719 61.148438 134.503906 65.085938 L 134.398438 65.675781 L 134.398438 65.9375 C 134.195312 67.417969 133.714844 68.976562 132.976562 70.679688 L 132.851562 70.941406 L 132.839844 70.9375 C 132.78125 71.070312 132.722656 71.207031 132.671875 71.347656 L 132.566406 71.652344 L 132.464844 71.984375 L 132.46875 71.984375 C 132.449219 72.046875 132.433594 72.109375 132.414062 72.171875 L 132.3125 72.582031 L 132.140625 73.328125 L 131.992188 74.0625 L 131.949219 74.28125 L 131.933594 74.414062 L 131.933594 74.960938 C 131.828125 76.207031 131.519531 77.585938 131.0625 78.933594 L 131.066406 78.933594 C 130.398438 81 129.414062 82.949219 128.140625 84.707031 C 125.957031 87.832031 123.441406 89.769531 120.175781 90.84375 C 118.683594 91.367188 117.394531 92.292969 116.648438 93.402344 L 116.4375 93.824219 L 116.363281 93.917969 L 116.058594 94.21875 C 115.671875 94.65625 115.527344 95.929688 115.589844 97.929688 L 115.601562 98.117188 L 115.636719 98.929688 L 115.6875 99.785156 L 115.804688 102.085938 L 115.855469 103.261719 C 115.90625 104.996094 115.84375 106.285156 115.609375 107.515625 C 114.96875 110.75 113.894531 112.996094 111.707031 116.382812 L 111.558594 116.59375 L 111.210938 117.0625 L 110.789062 117.609375 L 110.554688 117.902344 C 109.652344 119.035156 108.664062 120.171875 107.628906 121.230469 C 105.808594 123.082031 104.027344 124.511719 102.335938 125.339844 C 101.863281 125.570312 101.402344 125.761719 100.960938 125.886719 L 100.613281 125.996094 L 100.175781 126.101562 L 100.191406 126.101562 C 99.351562 126.269531 98.496094 126.339844 97.640625 126.320312 L 95.609375 126.320312 L 95.382812 126.332031 L 94.929688 126.351562 C 94.664062 126.371094 94.402344 126.398438 94.136719 126.429688 L 93.9375 126.429688 L 93.554688 126.441406 L 91.855469 126.503906 L 90.457031 126.566406 L 89.539062 126.617188 L 88.761719 126.679688 L 88.273438 126.730469 L 87.980469 126.761719 L 87.71875 126.796875 L 87.113281 126.902344 L 87.113281 126.910156 C 86.515625 127.023438 85.929688 127.199219 85.363281 127.433594 C 83.140625 128.710938 79.765625 129.324219 74.636719 129.453125 L 73.585938 129.46875 L 72.484375 129.480469 C 68.835938 129.480469 64.996094 129.285156 61.5 128.957031 L 61.027344 128.953125 L 58.476562 128.636719 L 57.550781 128.53125 L 56.699219 128.421875 L 55.910156 128.316406 L 55.917969 128.316406 C 55.554688 128.261719 55.195312 128.199219 54.835938 128.136719 L 54.167969 128.015625 C 52.554688 127.707031 50.988281 127.195312 49.503906 126.492188 L 49.0625 126.277344 C 44.28125 123.625 41.765625 120.304688 39.070312 114.339844 L 38.199219 112.382812 L 37.753906 111.425781 L 37.5 110.863281 C 36.769531 109.398438 36.183594 107.867188 35.757812 106.285156 L 35.769531 106.167969 C 33.921875 99.726562 34.390625 96.359375 37.890625 91.398438 L 38.078125 91.21875 L 38.398438 90.808594 L 38.398438 90.816406 C 38.664062 90.476562 38.910156 90.125 39.132812 89.757812 L 39.738281 88.96875 L 39.738281 88.972656 C 41.3125 86.902344 43.070312 84.980469 44.988281 83.222656 L 45.355469 82.882812 C 45.550781 82.6875 45.671875 82.460938 45.671875 82.292969 L 45.691406 82.175781 L 45.691406 82.179688 C 45.773438 81.945312 45.773438 81.695312 45.691406 81.464844 L 45.144531 79.835938 L 45.039062 79.296875 L 44.992188 79.019531 L 44.960938 78.773438 L 44.941406 78.527344 L 44.925781 78.195312 L 44.925781 77.449219 C 44.992188 75.253906 45.714844 73.28125 47.027344 71.042969 L 47.367188 70.464844 L 48.191406 69.152344 C 48.203125 69.132812 48.21875 69.109375 48.230469 69.089844 L 48.539062 68.679688 L 48.664062 68.507812 L 48.695312 68.457031 L 48.941406 67.984375 C 49.171875 67.679688 49.488281 67.113281 49.816406 66.429688 L 50.070312 65.898438 L 50.324219 65.34375 L 50.570312 64.765625 L 50.691406 64.480469 L 50.917969 63.917969 L 51.121094 63.371094 L 51.164062 63.207031 L 51.375 62.546875 L 52.019531 60.605469 L 52.085938 60.371094 L 52.144531 60.125 L 52.175781 59.988281 L 52.226562 59.6875 L 52.289062 59.335938 L 52.394531 58.679688 L 52.398438 58.679688 C 52.621094 56.925781 53.007812 55.195312 53.554688 53.511719 L 53.566406 53.359375 L 53.59375 53.21875 L 53.660156 53.0625 L 53.765625 52.800781 L 54.085938 51.835938 L 54.179688 51.574219 L 54.226562 51.453125 L 54.351562 51.105469 L 54.691406 50.179688 L 54.902344 49.648438 L 55.101562 49.171875 L 55.296875 48.742188 C 55.476562 48.351562 55.679688 47.972656 55.90625 47.605469 L 56.136719 47.25 C 56.265625 47.0625 56.394531 46.878906 56.53125 46.699219 L 57.191406 45.847656 L 57.523438 45.515625 C 60.480469 42.875 63.648438 41.832031 67.796875 41.527344 L 68.542969 41.527344 C 70.359375 41.527344 71.957031 41.972656 73.765625 42.808594 L 74.144531 42.988281 L 75.140625 43.488281 L 75.425781 43.675781 L 75.714844 43.828125 L 76.214844 44.074219 L 76.425781 44.175781 L 76.492188 44.203125 L 76.492188 44.199219 C 77.308594 44.578125 78.226562 44.679688 79.105469 44.488281 C 81.355469 43.839844 83.546875 43.007812 85.660156 42 L 86.058594 41.800781 C 89.386719 39.828125 92.21875 38.636719 95.457031 38.273438 L 95.550781 38.257812 L 95.828125 38.191406 L 95.828125 38.1875 C 95.871094 38.175781 95.917969 38.171875 95.964844 38.179688 C 96.105469 38.144531 96.25 38.121094 96.394531 38.109375 L 96.695312 38.078125 L 97.605469 38.011719 L 98.0625 37.960938 L 100.476562 37.792969 L 101.585938 37.730469 C 102.652344 37.679688 103.605469 37.644531 104.59375 37.644531 Z M 104.589844 38.371094 C 103.136719 38.371094 101.734375 38.429688 99.9375 38.554688 L 98.125 38.679688 L 97.925781 38.699219 L 96.769531 38.800781 L 96.492188 38.828125 L 96.265625 38.855469 L 96.054688 38.890625 L 96.058594 38.890625 C 95.980469 38.898438 95.902344 38.910156 95.828125 38.933594 L 95.710938 38.960938 L 95.5625 38.992188 L 95.566406 38.992188 C 95.53125 38.996094 95.496094 38.996094 95.460938 38.992188 C 92.433594 39.339844 89.6875 40.492188 86.414062 42.429688 L 85.992188 42.640625 L 85.996094 42.640625 C 83.832031 43.675781 81.589844 44.53125 79.285156 45.195312 C 78.234375 45.425781 77.082031 45.300781 76.214844 44.871094 C 76.023438 44.804688 75.835938 44.722656 75.65625 44.625 L 75.058594 44.304688 L 74.773438 44.117188 L 74.351562 43.90625 L 73.585938 43.539062 L 73.0625 43.292969 C 71.648438 42.628906 70.105469 42.277344 68.542969 42.261719 L 67.824219 42.261719 C 63.855469 42.550781 60.835938 43.542969 58.03125 46.042969 L 57.75 46.324219 L 57.425781 46.753906 L 57.136719 47.121094 L 57.003906 47.304688 L 56.757812 47.652344 L 56.648438 47.820312 L 56.4375 48.160156 L 56.238281 48.507812 C 56.082031 48.808594 55.921875 49.128906 55.765625 49.488281 L 55.578125 49.949219 L 55.578125 49.953125 C 55.542969 50.039062 55.507812 50.121094 55.476562 50.207031 L 55.265625 50.757812 L 54.914062 51.71875 C 54.902344 51.753906 54.886719 51.789062 54.871094 51.824219 L 54.78125 52.078125 L 54.570312 52.71875 L 54.453125 53.054688 L 54.457031 53.050781 C 54.429688 53.128906 54.398438 53.207031 54.367188 53.28125 L 54.300781 53.449219 L 54.300781 53.582031 L 54.285156 53.6875 C 53.738281 55.34375 53.351562 57.050781 53.128906 58.785156 L 53.050781 59.285156 L 52.984375 59.714844 L 52.917969 60.082031 L 52.851562 60.398438 L 52.777344 60.683594 C 52.75 60.773438 52.726562 60.867188 52.6875 60.957031 L 52.140625 62.601562 L 51.910156 63.320312 L 51.832031 63.597656 L 51.828125 63.59375 C 51.761719 63.773438 51.695312 63.953125 51.628906 64.132812 L 51.402344 64.695312 L 51.285156 64.980469 L 51.042969 65.542969 L 51.046875 65.539062 C 51.007812 65.636719 50.964844 65.730469 50.925781 65.824219 L 50.671875 66.363281 L 50.425781 66.871094 C 50.105469 67.527344 49.796875 68.066406 49.570312 68.363281 L 49.359375 68.785156 C 49.308594 68.875 49.253906 68.964844 49.191406 69.046875 L 48.808594 69.550781 L 47.878906 71.042969 L 47.664062 71.410156 C 46.402344 73.550781 45.726562 75.421875 45.667969 77.464844 L 45.667969 78.183594 L 45.671875 78.488281 L 45.691406 78.703125 L 45.722656 78.929688 L 45.765625 79.191406 L 45.867188 79.683594 L 46.390625 81.238281 L 46.394531 81.238281 C 46.507812 81.5625 46.527344 81.914062 46.445312 82.246094 L 46.410156 82.367188 L 46.40625 82.453125 C 46.347656 82.765625 46.203125 83.054688 45.984375 83.285156 L 45.867188 83.40625 L 45.488281 83.757812 L 45.492188 83.757812 C 43.605469 85.488281 41.875 87.382812 40.324219 89.417969 L 39.746094 90.167969 C 39.519531 90.535156 39.300781 90.859375 38.980469 91.269531 L 38.625 91.710938 L 38.457031 91.867188 C 35.347656 96.277344 34.761719 99.3125 36.164062 104.851562 L 36.378906 105.660156 L 36.496094 106.082031 L 36.484375 106.1875 C 36.945312 107.789062 37.480469 109.199219 38.175781 110.566406 L 38.269531 110.785156 L 38.875 112.085938 L 39.746094 114.042969 C 42.382812 119.882812 44.808594 123.082031 49.40625 125.636719 L 49.828125 125.847656 C 51.664062 126.6875 53.144531 127.128906 55.339844 127.484375 L 56.054688 127.59375 L 56.832031 127.699219 L 57.667969 127.804688 L 58.570312 127.914062 L 61.089844 128.230469 L 61.546875 128.230469 L 61.539062 128.230469 C 65.535156 128.609375 69.550781 128.78125 73.5625 128.75 L 74.589844 128.730469 C 74.925781 128.71875 75.257812 128.714844 75.578125 128.699219 L 76.511719 128.65625 C 80.476562 128.4375 83.183594 127.84375 85.03125 126.789062 L 85.035156 126.789062 C 85.773438 126.464844 86.554688 126.246094 87.355469 126.132812 L 87.738281 126.070312 L 88.175781 126.019531 L 88.679688 125.96875 L 89.46875 125.90625 L 90.402344 125.855469 L 91.503906 125.804688 L 93.925781 125.714844 L 94.09375 125.714844 C 94.800781 125.628906 95.25 125.609375 95.847656 125.609375 L 97.644531 125.609375 C 98.695312 125.605469 99.355469 125.558594 100.023438 125.410156 L 100.421875 125.308594 L 101.0625 125.097656 C 101.378906 124.992188 101.691406 124.855469 102.023438 124.695312 C 103.625 123.90625 105.347656 122.53125 107.117188 120.730469 L 107.109375 120.722656 C 108.207031 119.597656 109.242188 118.40625 110.207031 117.164062 L 110.628906 116.628906 L 110.816406 116.375 L 111.101562 115.980469 C 113.234375 112.671875 114.273438 110.503906 114.890625 107.375 C 115.132812 106.113281 115.179688 104.761719 115.101562 102.847656 L 115.101562 102.710938 L 114.871094 98.335938 L 114.851562 97.628906 C 114.800781 95.597656 114.96875 94.335938 115.527344 93.71875 L 115.800781 93.441406 L 116.011719 93.039062 C 116.820312 91.84375 118.113281 90.875 119.613281 90.28125 L 119.9375 90.160156 C 123.050781 89.132812 125.441406 87.292969 127.535156 84.296875 C 128.796875 82.539062 129.738281 80.679688 130.371094 78.710938 C 130.808594 77.410156 131.105469 76.085938 131.199219 74.929688 L 131.199219 74.613281 L 131.203125 74.457031 L 131.203125 74.460938 C 131.214844 74.277344 131.238281 74.09375 131.269531 73.914062 L 131.40625 73.226562 L 131.546875 72.617188 L 131.667969 72.125 L 131.785156 71.699219 L 131.902344 71.328125 C 132.019531 70.976562 132.136719 70.6875 132.296875 70.378906 C 133 68.75 133.46875 67.253906 133.652344 65.890625 L 133.65625 65.628906 L 133.886719 64.160156 C 134.355469 60.828125 134.1875 58.621094 132.941406 56.167969 L 132.746094 55.769531 L 132.746094 55.765625 C 132.511719 55.382812 132.261719 55.011719 131.992188 54.652344 C 131.351562 53.804688 130.601562 53.046875 129.757812 52.40625 L 129.011719 51.816406 L 128.527344 51.433594 L 128.273438 51.222656 L 127.957031 50.945312 L 127.769531 50.773438 L 127.480469 50.488281 L 127.035156 50.09375 L 127.039062 50.09375 C 126.90625 49.976562 126.773438 49.851562 126.640625 49.726562 L 126.273438 49.359375 C 125.882812 48.96875 125.511719 48.5625 125.15625 48.140625 L 124.726562 47.632812 L 123.402344 46.011719 C 120.976562 43.082031 118.910156 41.496094 115.050781 39.933594 L 114 39.53125 L 113.867188 39.53125 L 113.761719 39.519531 C 111.238281 38.757812 108.25 38.375 104.589844 38.375 Z M 105.121094 26.347656 C 108.585938 26.347656 111.710938 26.636719 114.511719 27.222656 C 115.410156 27.695312 116.332031 28.195312 117.242188 28.71875 C 113.835938 27.667969 109.796875 27.132812 105.121094 27.132812 C 102.492188 27.132812 99.765625 27.300781 97.585938 27.554688 L 96.667969 27.648438 L 96.144531 27.714844 L 95.675781 27.777344 L 95.464844 27.808594 L 95.050781 27.871094 L 94.714844 27.9375 L 94.714844 27.945312 C 94.613281 27.96875 94.507812 27.976562 94.398438 27.976562 C 89.578125 28.558594 85.945312 30.09375 81.085938 32.886719 L 80.890625 32.980469 C 80.433594 33.207031 79.933594 33.332031 79.421875 33.347656 C 78.820312 33.34375 78.226562 33.226562 77.667969 33 C 74.914062 31.84375 71.957031 31.246094 68.96875 31.242188 L 67.402344 31.242188 L 66.472656 31.320312 L 66.476562 31.320312 C 64.90625 31.449219 63.355469 31.703125 61.828125 32.089844 C 58.859375 32.808594 56.039062 34.039062 53.492188 35.726562 C 52.480469 36.394531 51.507812 37.144531 50.574219 37.984375 L 49.65625 38.777344 L 48.699219 39.933594 C 46.71875 42.324219 45.691406 44.257812 44.65625 47.0625 L 44.351562 47.933594 L 44.195312 48.390625 C 44.109375 48.863281 43.953125 49.324219 43.734375 49.753906 L 43.535156 50.136719 L 43.53125 50.136719 C 42.621094 52.527344 42.019531 55.027344 41.746094 57.570312 L 41.746094 57.675781 L 41.714844 57.832031 L 41.578125 58.171875 L 41.441406 58.574219 L 41.179688 59.417969 L 40.996094 59.957031 L 40.871094 60.28125 L 40.765625 60.542969 L 40.566406 61.046875 L 40.367188 61.5 L 40.1875 61.886719 L 40.101562 62.050781 L 40.027344 62.15625 L 39.980469 62.183594 L 39.6875 62.6875 L 39.652344 62.773438 L 39.601562 62.859375 L 39.417969 63.121094 L 39.417969 63.125 C 39.390625 63.171875 39.363281 63.214844 39.339844 63.261719 L 38.894531 63.917969 C 36.191406 68.007812 34.679688 71.425781 34.285156 76.039062 C 34.179688 76.722656 33.996094 77.425781 33.722656 78.234375 L 33.082031 79.808594 C 32.925781 80.191406 32.71875 80.550781 32.472656 80.875 L 32.179688 81.269531 L 31.976562 81.503906 L 31.972656 81.507812 C 31.84375 81.660156 31.71875 81.820312 31.59375 81.980469 L 30.804688 82.988281 L 30.5625 83.289062 L 30.390625 83.503906 L 29.683594 84.324219 L 29.566406 84.464844 L 28.882812 85.363281 C 23.496094 93.070312 22.46875 99.691406 25.199219 109.214844 L 25.414062 109.859375 C 26.042969 111.964844 26.792969 113.9375 27.734375 115.792969 L 28.042969 116.382812 L 28.304688 116.890625 C 28.425781 117.152344 28.523438 117.378906 28.59375 117.59375 L 28.804688 118.0625 L 29.414062 119.355469 L 29.78125 120.144531 L 30.144531 120.878906 L 30.484375 121.5625 L 30.820312 122.214844 L 31.152344 122.828125 L 31.476562 123.417969 L 31.644531 123.707031 L 31.980469 124.273438 L 32.320312 124.828125 L 32.5 125.105469 L 32.449219 125.027344 L 32.449219 125.019531 C 31.203125 123.464844 30.027344 121.851562 28.933594 120.1875 L 28.882812 120.070312 L 28.496094 119.242188 L 27.859375 117.878906 C 27.769531 117.617188 27.65625 117.355469 27.492188 117.035156 L 27.070312 116.222656 L 26.710938 115.5 C 25.886719 113.753906 25.203125 111.945312 24.660156 110.09375 L 24.441406 109.441406 C 21.644531 99.675781 22.707031 92.816406 28.238281 84.902344 L 28.878906 84.0625 L 29 83.90625 L 29.136719 83.738281 L 29.628906 83.175781 L 29.839844 82.929688 L 29.960938 82.78125 L 30.253906 82.417969 L 30.96875 81.492188 C 31.179688 81.230469 31.363281 81.003906 31.546875 80.792969 L 31.808594 80.4375 L 31.804688 80.441406 C 32.023438 80.160156 32.207031 79.851562 32.34375 79.523438 L 32.972656 77.964844 C 33.226562 77.222656 33.398438 76.558594 33.488281 75.953125 C 33.910156 71.019531 35.574219 67.410156 38.550781 63.011719 L 38.652344 62.871094 L 38.652344 62.867188 C 38.695312 62.777344 38.75 62.691406 38.808594 62.605469 L 38.929688 62.515625 L 38.980469 62.3125 L 39.363281 61.714844 L 39.421875 61.65625 L 39.554688 61.378906 L 39.738281 60.976562 L 39.832031 60.75 L 40.03125 60.261719 L 40.234375 59.742188 L 40.320312 59.507812 L 40.761719 58.117188 C 40.835938 57.898438 40.910156 57.703125 40.988281 57.527344 L 40.957031 57.59375 L 40.957031 57.527344 C 41.28125 54.835938 41.800781 52.503906 42.617188 50.324219 L 42.8125 49.824219 L 43.023438 49.402344 L 43.019531 49.402344 C 43.214844 49.019531 43.351562 48.613281 43.429688 48.191406 C 44.675781 44.496094 45.734375 42.273438 48.082031 39.441406 L 49.085938 38.234375 L 50.53125 36.972656 L 50.527344 36.96875 C 53.742188 34.25 57.542969 32.316406 61.636719 31.320312 C 63.058594 30.960938 64.507812 30.714844 65.972656 30.582031 L 66.882812 30.496094 L 67.375 30.453125 L 68.972656 30.453125 C 72.070312 30.453125 75.109375 31.078125 77.972656 32.269531 L 77.96875 32.273438 C 78.429688 32.460938 78.921875 32.558594 79.421875 32.558594 C 79.757812 32.558594 80.136719 32.453125 80.550781 32.265625 L 80.714844 32.191406 C 85.632812 29.363281 89.351562 27.796875 94.355469 27.195312 L 94.351562 27.195312 C 94.460938 27.195312 94.570312 27.179688 94.679688 27.152344 L 94.847656 27.117188 L 94.941406 27.101562 L 95.019531 27.101562 L 95.371094 27.035156 L 95.792969 26.972656 L 96.292969 26.910156 L 96.863281 26.847656 L 97.503906 26.78125 C 99.707031 26.527344 102.460938 26.359375 105.121094 26.359375 Z M 108.890625 86.566406 L 109.070312 86.609375 C 110.882812 87.449219 112.378906 88.183594 112.691406 88.5 C 112.796875 88.5 112.796875 88.605469 112.796875 88.710938 C 112.585938 89.242188 112.265625 89.554688 111.945312 89.976562 C 111.519531 90.5 111.09375 91.027344 110.558594 91.871094 C 109.917969 93.132812 109.707031 94.292969 109.597656 97.132812 C 109.492188 100.5 109.597656 102.5 109.703125 103.867188 C 109.808594 105.230469 109.808594 106.070312 109.597656 107.332031 C 109.066406 109.96875 108 111.757812 106.503906 113.960938 C 104.691406 116.703125 102.777344 119.648438 99.679688 120.589844 C 99.421875 120.675781 99.375 120.695312 98.980469 120.695312 L 97.960938 120.695312 C 97.210938 120.699219 96.132812 120.722656 94.453125 120.800781 C 90.398438 120.90625 88.269531 121.011719 86.5625 121.324219 C 84.746094 121.640625 83.789062 122.058594 82.828125 122.480469 C 81.972656 122.796875 81.226562 123.109375 79.625 123.429688 C 78.773438 123.640625 77.386719 123.851562 72.800781 123.851562 C 68.003906 123.851562 65.125 123.851562 61.289062 123.429688 C 56.058594 122.800781 53.398438 122.589844 51.691406 121.644531 C 47.804688 119.582031 46.0625 116.054688 43.5 110.371094 L 42.945312 109.121094 C 42.945312 109.015625 43.050781 108.910156 43.050781 109.015625 C 43.15625 109.121094 43.371094 109.121094 43.480469 109.226562 C 43.585938 109.226562 43.691406 109.332031 43.902344 109.332031 L 44.972656 109.332031 C 45.183594 109.855469 45.398438 110.277344 45.933594 110.488281 C 46.464844 110.699219 47 110.804688 47.53125 110.804688 C 48.066406 110.804688 48.707031 110.804688 49.238281 110.699219 C 49.558594 110.699219 49.878906 110.804688 49.988281 111.121094 C 50.519531 112.382812 51.160156 113.226562 52.121094 113.332031 L 52.332031 113.332031 C 52.546875 113.332031 52.761719 113.332031 53.1875 113.015625 C 53.613281 112.699219 54.359375 112.910156 54.679688 113.332031 C 54.867188 113.535156 55.082031 113.710938 55.320312 113.855469 C 56.28125 114.800781 58.734375 115.332031 60.65625 115.332031 C 61.722656 115.332031 62.683594 115.226562 63.324219 114.910156 C 64.175781 114.488281 64.175781 113.859375 64.070312 113.648438 L 63.859375 112.382812 C 63.859375 112.382812 63.964844 112.277344 63.964844 112.382812 C 64.070312 112.59375 64.175781 113.011719 64.601562 113.011719 L 64.707031 113.011719 C 65.242188 113.011719 66.097656 113.222656 66.308594 113.746094 C 66.414062 114.0625 66.523438 114.269531 66.628906 114.480469 C 66.949219 115.003906 67.695312 115.640625 68.976562 115.640625 L 69.082031 115.640625 C 70.683594 115.640625 71.859375 115.117188 72.597656 114.171875 C 72.597656 114.066406 72.707031 114.066406 72.707031 113.960938 C 73.027344 113.539062 73.882812 113.539062 74.203125 113.855469 C 74.625 114.277344 75.160156 114.378906 75.695312 114.378906 L 76.011719 114.378906 L 76.003906 114.386719 C 76.707031 114.320312 77.335938 113.933594 77.714844 113.335938 C 78.03125 112.898438 78.25 112.394531 78.355469 111.863281 C 78.355469 111.652344 78.671875 111.652344 78.78125 111.757812 C 79.097656 112.074219 79.527344 112.28125 80.273438 112.28125 C 80.488281 112.28125 80.59375 112.28125 80.808594 112.175781 C 82.195312 111.859375 82.835938 110.8125 83.15625 109.546875 C 83.15625 109.546875 83.261719 109.441406 83.261719 109.546875 C 83.582031 109.96875 84.222656 110.386719 85.289062 110.386719 L 85.5 110.386719 L 85.496094 110.386719 C 86.046875 110.363281 86.558594 110.09375 86.886719 109.652344 C 87.320312 109.035156 87.546875 108.296875 87.527344 107.546875 C 87.527344 107.230469 87.738281 107.023438 88.058594 106.917969 C 89.035156 106.484375 89.917969 105.863281 90.65625 105.089844 L 90.941406 104.707031 C 91.046875 104.496094 91.257812 104.285156 91.472656 104.285156 C 92.328125 104.074219 92.753906 103.96875 93.074219 103.761719 C 93.390625 103.65625 93.605469 103.550781 94.246094 103.445312 C 99.476562 102.710938 100.429688 102.5 101.605469 101.761719 C 103.3125 100.605469 103.417969 99.132812 103.417969 97.65625 C 103.523438 96.394531 103.523438 95.03125 104.59375 93.347656 C 104.910156 92.71875 105.339844 91.984375 105.765625 91.136719 C 106.511719 89.773438 107.578125 87.875 108.324219 86.820312 C 108.539062 86.609375 108.859375 86.503906 109.074219 86.609375 Z M 68.222656 108.699219 L 72.171875 108.910156 L 72.277344 109.855469 C 72.382812 110.910156 72.277344 112.28125 71.53125 113.226562 C 70.996094 113.960938 70.144531 114.277344 68.863281 114.277344 C 68.007812 114.277344 67.6875 113.960938 67.582031 113.753906 C 66.941406 112.703125 67.582031 110.289062 68.222656 108.703125 Z M 62.679688 100.386719 C 62.679688 100.703125 62.574219 101.121094 62.46875 101.542969 C 62.46875 102.074219 62.359375 102.808594 62.253906 103.757812 C 62.039062 105.542969 61.933594 107.859375 62.253906 111.011719 C 62.359375 111.851562 62.464844 112.800781 62.570312 113.746094 C 62.359375 113.851562 61.613281 114.0625 60.332031 114.0625 C 58.410156 114.0625 56.597656 113.539062 56.0625 113.011719 L 55.957031 112.90625 C 55.53125 112.589844 55.210938 112.277344 55.210938 111.644531 C 55.210938 111.433594 55.316406 111.222656 55.527344 110.910156 L 55.527344 110.917969 C 55.636719 110.683594 55.78125 110.472656 55.960938 110.285156 C 56.28125 109.859375 56.707031 109.335938 57.027344 108.699219 C 58.203125 106.703125 58.628906 106.179688 59.164062 105.339844 L 59.269531 105.128906 C 59.585938 104.703125 60.015625 104.179688 60.550781 103.226562 C 60.972656 102.597656 61.402344 102.070312 61.617188 101.652344 C 62.148438 101.023438 62.46875 100.601562 62.683594 100.390625 Z M 77.5 107.332031 C 77.605469 108.382812 77.605469 111.328125 76.648438 112.488281 C 76.4375 112.804688 76.113281 112.910156 75.902344 113.011719 C 75.582031 113.011719 75.367188 113.011719 75.152344 112.800781 C 74.40625 112.144531 74.308594 110.34375 74.296875 108.9375 L 74.296875 107.855469 C 75.472656 107.539062 76.859375 107.332031 77.5 107.332031 Z M 49.886719 104.492188 C 50.910156 105.042969 52.511719 105.273438 54.820312 105.320312 L 55.855469 105.332031 C 55.960938 105.226562 56.171875 105.226562 56.386719 105.226562 C 56.28125 105.960938 55.429688 107.960938 54.046875 109.855469 C 52.871094 111.429688 52.230469 111.851562 52.125 111.851562 C 51.589844 111.746094 51.058594 110.488281 50.632812 109.121094 C 50.417969 108.597656 50.3125 108.070312 50.203125 107.652344 C 49.886719 106.597656 49.886719 105.332031 49.886719 104.492188 Z M 66.199219 101.023438 L 66.195312 101.027344 C 66.671875 101.015625 67.144531 101.089844 67.59375 101.246094 L 68.015625 101.445312 C 68.332031 101.550781 68.761719 101.96875 68.761719 102.808594 C 68.65625 103.964844 68.121094 105.648438 67.265625 107.230469 C 66.414062 108.910156 65.453125 110.386719 64.8125 111.226562 C 64.277344 109.863281 63.320312 106.601562 63.640625 103.972656 L 63.640625 103.761719 C 63.746094 102.921875 63.957031 102.179688 64.386719 101.65625 C 64.597656 101.234375 65.347656 101.027344 66.199219 101.027344 Z M 82.089844 106.285156 L 82.089844 108.28125 C 81.984375 109.332031 81.660156 110.703125 80.59375 110.910156 C 80.167969 111.015625 79.847656 110.910156 79.742188 110.699219 C 78.996094 110.070312 78.886719 108.074219 78.996094 106.703125 C 79.417969 106.703125 80.0625 106.597656 80.808594 106.492188 C 81.234375 106.386719 81.660156 106.28125 82.089844 106.28125 Z M 86.144531 105.550781 C 86.25 106.707031 86.355469 108.28125 85.929688 108.910156 C 85.824219 109.015625 85.71875 109.121094 85.503906 109.121094 C 84.96875 109.121094 84.542969 109.015625 84.328125 108.699219 C 83.796875 108.070312 83.902344 106.808594 84.011719 106.074219 Z M 46.148438 103.125 C 46.898438 103.441406 47.75 103.648438 48.605469 103.753906 C 48.390625 105.125 48.710938 107.125 48.921875 107.753906 C 48.921875 108.277344 49.027344 108.488281 49.136719 108.804688 L 49.03125 108.910156 L 47.003906 108.910156 C 46.792969 108.910156 46.578125 108.910156 46.46875 108.699219 L 46.46875 108.703125 C 46.335938 108.402344 46.265625 108.082031 46.257812 107.757812 C 45.953125 106.230469 45.917969 104.664062 46.152344 103.125 Z M 43.054688 102.285156 L 43.589844 102.496094 C 44.015625 102.601562 44.335938 102.707031 44.550781 102.8125 C 44.445312 103.863281 44.339844 104.917969 44.339844 105.96875 C 44.339844 106.320312 44.382812 106.71875 44.445312 107.101562 L 44.550781 107.652344 L 43.910156 107.652344 C 43.804688 107.652344 43.699219 107.652344 43.589844 107.546875 L 43.164062 107.125 C 42.84375 106.601562 42.84375 106.074219 42.84375 105.550781 C 42.84375 104.496094 42.84375 103.441406 43.054688 102.285156 Z M 70.675781 101.761719 C 71.851562 101.445312 73.238281 101.339844 73.664062 101.65625 C 74.089844 102.179688 73.238281 104.492188 72.808594 105.441406 C 72.703125 105.863281 72.492188 106.175781 72.386719 106.492188 C 72.0625 106.597656 70.996094 106.492188 69.929688 106.28125 Z M 75.792969 101.65625 C 76.113281 101.445312 76.753906 101.445312 77.179688 101.761719 C 77.820312 102.285156 78.035156 102.917969 77.820312 103.652344 C 77.714844 103.96875 77.503906 105.023438 77.394531 105.652344 L 74.40625 105.546875 C 74.617188 104.601562 74.832031 103.761719 75.046875 103.027344 C 75.257812 102.285156 75.582031 101.761719 75.792969 101.65625 Z M 81.335938 101.132812 C 81.550781 101.972656 81.550781 103.441406 81.550781 104.386719 L 79.203125 105.128906 C 79.308594 104.183594 79.523438 102.925781 79.523438 102.078125 C 79.523438 101.449219 79.734375 101.34375 79.734375 101.238281 L 79.84375 101.238281 Z M 68.117188 48.109375 C 69.183594 48.109375 70.355469 48.632812 71.632812 49.371094 C 73.234375 50.210938 75.148438 51.261719 77.605469 51.367188 C 78.671875 51.367188 80.164062 51.050781 81.652344 50.632812 L 82.582031 50.523438 C 86.761719 50.035156 92.820312 49.65625 96.582031 52.003906 C 100.417969 54.3125 101.171875 59.476562 101.484375 64.105469 C 101.589844 65.46875 101.484375 67.152344 101.378906 68.941406 L 101.273438 70.59375 C 101.039062 74.984375 101.140625 79.15625 104.367188 80.097656 C 105.859375 80.519531 110.335938 81.882812 115.136719 83.988281 C 115.566406 84.199219 115.566406 84.722656 115.242188 85.039062 C 115.136719 85.144531 115.03125 85.144531 114.925781 85.25 C 114.605469 85.460938 114.285156 85.773438 113.964844 86.089844 C 113.753906 86.410156 113.429688 86.410156 113.113281 86.304688 C 112.152344 85.78125 110.65625 85.148438 109.058594 84.519531 L 108.953125 84.519531 C 108.84375 84.414062 108.84375 84.414062 108.738281 84.414062 L 107.835938 84.0625 L 107.84375 84.050781 C 106.609375 83.585938 105.34375 83.210938 104.054688 82.929688 C 100.640625 82.300781 98.191406 84.191406 97.335938 84.820312 C 96.269531 85.660156 96.058594 86.082031 95.949219 86.714844 C 95.84375 87.03125 95.738281 87.34375 95.097656 88.289062 C 93.710938 90.078125 92.964844 90.609375 92.214844 91.03125 C 91.40625 91.410156 90.734375 92.035156 90.300781 92.816406 C 89.660156 93.867188 89.660156 94.921875 89.765625 96.292969 L 89.765625 98.917969 C 89.765625 101.449219 89.660156 102.601562 89.554688 103.234375 C 89.554688 103.550781 89.449219 103.65625 89.449219 103.757812 L 89.449219 103.863281 L 89.230469 104.121094 C 88.96875 104.382812 88.570312 104.683594 88.164062 104.917969 C 87.847656 105.128906 87.527344 104.917969 87.417969 104.601562 L 87.3125 104.285156 L 87.386719 103.828125 C 87.417969 103.503906 87.417969 103.125 87.417969 102.703125 L 87.417969 102.28125 C 87.417969 102.070312 87.523438 101.757812 87.523438 101.441406 C 87.628906 100.8125 87.738281 99.972656 86.992188 99.652344 C 86.246094 99.335938 85.285156 99.441406 84.539062 99.652344 C 84.328125 99.652344 84.21875 99.757812 84.003906 99.757812 L 83.898438 99.757812 C 83.472656 99.863281 82.191406 99.96875 81.765625 99.96875 L 80.164062 100.074219 C 79.738281 99.96875 79.417969 100.179688 79.097656 100.390625 L 78.777344 100.707031 C 78.671875 100.917969 78.457031 100.917969 78.242188 100.8125 C 77.390625 100.078125 76.109375 100.183594 75.363281 100.601562 C 75.363281 100.707031 75.152344 100.707031 75.042969 100.917969 C 74.9375 101.023438 74.832031 100.917969 74.832031 100.917969 C 73.65625 99.65625 70.667969 100.496094 70.136719 100.707031 L 69.921875 100.8125 C 69.816406 100.8125 69.710938 100.917969 69.710938 101.023438 L 69.710938 101.234375 L 69.386719 100.851562 L 69.394531 100.847656 C 69.183594 100.617188 68.929688 100.425781 68.648438 100.285156 C 67.566406 99.722656 66.316406 99.574219 65.132812 99.867188 C 64.707031 99.972656 64.277344 99.65625 63.960938 99.34375 C 63.855469 99.238281 63.640625 99.132812 63.53125 99.027344 C 63.109375 98.816406 62.679688 98.921875 62.253906 99.238281 C 61.824219 99.554688 61.292969 99.34375 61.078125 98.921875 C 60.761719 98.292969 60.4375 97.765625 59.90625 97.453125 C 59.585938 97.242188 59.160156 97.136719 58.839844 97.027344 L 58.84375 97.023438 C 58.082031 96.78125 57.273438 96.746094 56.496094 96.921875 C 56.390625 97.027344 56.175781 97.027344 56.066406 97.132812 C 55.75 97.34375 55.214844 97.34375 55 97.027344 C 54.683594 96.816406 54.359375 96.503906 53.933594 96.398438 L 53.933594 96.394531 C 53.386719 96.203125 52.792969 96.167969 52.226562 96.289062 C 52.015625 96.289062 51.800781 96.289062 51.585938 96.078125 L 51.585938 96.082031 C 51.027344 95.667969 50.363281 95.414062 49.671875 95.34375 C 49.066406 95.21875 48.4375 95.253906 47.855469 95.449219 C 47.644531 95.449219 47.539062 95.449219 47.433594 95.34375 C 46.898438 94.714844 46.042969 94.394531 45.191406 94.289062 L 44.441406 94.289062 C 44.230469 94.289062 44.125 94.078125 44.230469 93.972656 L 44.230469 93.976562 C 45.703125 92.078125 47.347656 90.316406 49.132812 88.714844 C 52.648438 85.664062 52.867188 84.714844 52.753906 82.929688 L 52.753906 82.71875 C 52.753906 81.5625 52.332031 80.71875 51.902344 79.984375 C 51.585938 79.25 51.261719 78.621094 51.15625 77.5625 C 51.050781 76.933594 52.011719 74.828125 52.4375 74.296875 C 53.078125 73.5625 53.503906 72.828125 53.824219 72.300781 C 54.035156 71.878906 54.25 71.460938 54.464844 71.25 C 56.0625 69.140625 56.597656 67.460938 57.238281 65.25 C 57.449219 64.515625 57.769531 63.570312 58.089844 62.621094 C 58.625 61.152344 58.730469 60.207031 58.839844 59.253906 C 58.945312 58.203125 59.15625 57.148438 59.796875 55.253906 C 61.183594 51.46875 61.613281 50.625 61.933594 50.308594 C 63.210938 49.046875 64.707031 48.3125 67.902344 48.105469 Z M 41.132812 100.1875 C 41.457031 100.398438 41.667969 100.609375 41.988281 100.816406 L 42.308594 101.132812 L 42.308594 101.238281 C 41.992188 102.394531 41.777344 103.652344 41.777344 104.8125 C 41.777344 104.917969 41.671875 104.917969 41.671875 104.8125 C 41.386719 103.527344 40.949219 101.589844 41.050781 100.558594 Z M 86.03125 100.710938 C 86.136719 100.816406 86.03125 101.027344 86.03125 101.234375 C 86.03125 101.550781 85.925781 101.863281 85.925781 102.285156 L 85.925781 103.859375 C 85.285156 104.070312 84.644531 104.070312 83.898438 104.070312 L 83.898438 102.285156 C 83.898438 101.863281 83.898438 101.234375 84.003906 101.023438 L 84.644531 100.917969 C 85.070312 100.8125 85.710938 100.707031 86.03125 100.707031 Z M 57.664062 98.289062 L 58.011719 98.339844 C 58.257812 98.414062 58.519531 98.527344 58.730469 98.601562 L 58.835938 98.601562 C 58.835938 98.707031 58.941406 98.707031 58.941406 98.707031 L 59.050781 98.707031 L 59.15625 98.8125 C 59.261719 98.8125 59.261719 98.917969 59.261719 98.917969 L 59.320312 99.023438 L 59.476562 99.335938 C 59.691406 99.859375 59.796875 100.492188 59.90625 101.121094 C 59.90625 101.332031 60.011719 101.4375 60.328125 101.644531 C 60.222656 101.855469 60.011719 102.175781 59.804688 102.488281 C 59.480469 103.011719 59.164062 103.433594 58.949219 103.75 L 58.84375 103.75 C 57.773438 103.75 56.707031 103.644531 55.746094 103.539062 C 55.214844 103.539062 54.789062 103.433594 54.253906 103.328125 L 53.613281 103.222656 L 53.71875 103.117188 L 54.253906 102.382812 C 54.574219 101.960938 54.894531 101.4375 55.214844 101.019531 C 55.53125 100.496094 55.960938 99.96875 56.28125 99.4375 C 56.386719 99.226562 56.601562 99.015625 56.707031 98.808594 L 56.785156 98.78125 C 56.816406 98.75 56.816406 98.703125 56.816406 98.703125 L 56.921875 98.597656 L 56.949219 98.523438 C 56.980469 98.492188 57.027344 98.492188 57.027344 98.492188 C 57.027344 98.386719 57.132812 98.386719 57.132812 98.386719 C 57.132812 98.28125 57.238281 98.28125 57.347656 98.28125 L 57.667969 98.28125 Z M 53.394531 97.34375 C 53.457031 97.347656 53.5 97.375 53.5 97.449219 L 53.609375 97.449219 L 53.820312 97.554688 C 53.714844 97.449219 53.929688 97.765625 53.929688 97.765625 C 54.171875 98.152344 54.230469 98.433594 54.292969 98.679688 L 54.355469 98.921875 C 53.824219 99.65625 53.398438 100.390625 52.863281 101.125 C 52.652344 101.441406 52.332031 101.859375 52.117188 102.179688 L 51.691406 102.808594 L 51.695312 102.8125 C 51.300781 102.71875 50.910156 102.613281 50.519531 102.496094 L 49.558594 102.179688 C 49.453125 102.179688 49.453125 102.179688 49.347656 102.074219 C 49.347656 102.007812 49.296875 101.933594 49.238281 101.863281 L 49.132812 101.757812 C 49.238281 101.546875 49.34375 101.335938 49.453125 101.023438 L 50.09375 99.761719 C 50.519531 99.019531 51.054688 98.285156 51.800781 97.757812 C 51.800781 97.757812 51.90625 97.757812 51.90625 97.652344 L 51.90625 97.65625 C 52.179688 97.441406 52.519531 97.332031 52.867188 97.339844 Z M 103.058594 84.847656 L 103.835938 84.921875 C 104.265625 85.027344 105.222656 85.34375 106.078125 85.65625 C 106.394531 85.761719 106.609375 86.179688 106.394531 86.5 C 105.757812 87.445312 105.015625 88.808594 104.15625 90.394531 C 103.734375 91.128906 103.304688 91.96875 102.984375 92.496094 C 101.808594 94.496094 101.703125 96.285156 101.597656 97.652344 C 101.492188 99.121094 101.492188 99.757812 100.53125 100.28125 C 99.785156 100.804688 99.035156 100.910156 93.917969 101.644531 C 93.066406 101.75 92.640625 101.960938 92.320312 102.070312 C 92.214844 102.070312 92.214844 102.070312 92.105469 102.175781 C 91.789062 102.28125 91.359375 102.070312 91.464844 101.652344 C 91.464844 100.917969 91.570312 100.078125 91.570312 99.023438 L 91.570312 96.394531 C 91.464844 95.132812 91.464844 94.609375 91.890625 93.972656 C 92.320312 93.34375 92.640625 93.132812 93.171875 92.710938 C 93.917969 92.1875 94.984375 91.550781 96.585938 89.445312 C 97.441406 88.289062 97.546875 87.765625 97.761719 87.242188 C 97.761719 87.03125 97.867188 86.925781 98.507812 86.5 C 99.148438 85.976562 101.175781 84.503906 103.835938 84.925781 Z M 48.28125 96.816406 C 48.597656 96.605469 48.921875 96.710938 49.238281 96.710938 C 49.558594 96.710938 49.878906 96.710938 50.199219 96.816406 C 50.410156 96.921875 50.519531 96.921875 50.519531 96.921875 C 49.667969 97.65625 49.027344 98.601562 48.386719 99.65625 L 47.53125 101.335938 L 47.425781 101.546875 C 47.109375 101.441406 46.894531 101.441406 46.574219 101.335938 L 45.71875 101.019531 C 45.613281 100.914062 45.507812 100.914062 45.402344 100.808594 C 45.71875 100.285156 46.039062 99.863281 46.253906 99.339844 C 46.679688 98.710938 47.105469 98.078125 47.640625 97.449219 C 47.851562 97.238281 48.066406 96.917969 48.28125 96.8125 Z M 44.785156 95.714844 L 45.019531 95.742188 L 45.1875 95.769531 L 45.191406 95.769531 C 45.726562 95.84375 46.21875 96.101562 46.578125 96.503906 C 46.078125 97.066406 45.632812 97.675781 45.222656 98.292969 L 44.65625 99.238281 C 44.445312 99.660156 44.121094 99.972656 44.015625 100.394531 C 43.699219 100.289062 43.484375 100.183594 43.164062 100.078125 L 42.523438 99.65625 C 42.523438 99.65625 42.3125 99.550781 42.3125 99.445312 L 42.203125 99.445312 C 42.308594 99.234375 42.414062 99.023438 42.414062 98.921875 C 42.519531 98.605469 42.734375 98.292969 42.949219 97.976562 C 43.269531 97.453125 43.695312 96.816406 44.015625 96.292969 L 44.015625 96.296875 C 44.136719 96.070312 44.324219 95.886719 44.550781 95.769531 L 44.785156 95.71875 Z M 96.203125 21.007812 C 97.164062 21.179688 98.121094 21.375 99.070312 21.597656 L 97.921875 21.699219 L 96.839844 21.804688 L 96.234375 21.855469 L 95.445312 21.941406 L 94.800781 22.019531 L 94.4375 22.070312 L 94.132812 22.121094 L 94.082031 22.121094 L 93.589844 22.207031 C 93.503906 22.21875 93.417969 22.226562 93.328125 22.222656 C 89.390625 22.664062 85.90625 23.796875 81.855469 25.652344 L 81.859375 25.652344 C 79.921875 26.640625 77.691406 26.878906 75.589844 26.316406 C 73.316406 25.78125 70.988281 25.503906 68.648438 25.488281 L 66.851562 25.488281 C 64.292969 25.582031 61.601562 26.050781 58.746094 26.835938 L 58.746094 26.839844 C 54.226562 28.199219 50.0625 30.539062 46.546875 33.6875 L 45.300781 34.804688 L 44.023438 36.273438 C 41.492188 39.355469 40.34375 41.527344 38.960938 45.226562 L 38.625 46.144531 L 38.453125 46.628906 L 38.457031 46.628906 C 38.410156 46.820312 38.355469 47.003906 38.289062 47.1875 L 38.171875 47.492188 L 37.683594 48.921875 C 36.78125 51.597656 36.183594 54.144531 35.910156 56.578125 L 35.882812 56.683594 C 35.671875 57.191406 35.460938 57.808594 35.363281 58.207031 L 35.320312 58.363281 L 35.320312 58.359375 C 35.269531 58.527344 35.203125 58.6875 35.128906 58.847656 L 34.960938 59.199219 L 34.929688 59.289062 L 34.894531 59.375 L 34.617188 59.832031 L 34.601562 59.894531 L 34.597656 59.890625 C 34.554688 60.03125 34.492188 60.160156 34.402344 60.273438 L 34.351562 60.332031 L 33.882812 61.023438 C 31.0625 65.28125 29.335938 68.964844 28.554688 73.921875 C 28.449219 75.039062 28.066406 76.121094 27.429688 77.246094 L 25.707031 80.21875 L 25.710938 80.21875 C 25.671875 80.277344 25.632812 80.335938 25.59375 80.394531 L 25.382812 80.683594 C 25.25 80.867188 25.105469 81.039062 24.941406 81.195312 L 24.101562 82.222656 C 21.476562 85.988281 19.796875 89.488281 18.851562 93.179688 L 18.851562 93.183594 C 18.757812 92.449219 18.675781 91.714844 18.605469 90.976562 L 19.078125 89.683594 C 20.089844 87.058594 21.515625 84.453125 23.417969 81.71875 L 24.304688 80.632812 L 24.308594 80.632812 C 24.476562 80.46875 24.628906 80.289062 24.765625 80.09375 L 24.984375 79.777344 L 26.683594 76.835938 C 27.261719 75.808594 27.609375 74.835938 27.703125 73.816406 C 28.546875 68.488281 30.433594 64.613281 33.519531 60.039062 L 33.707031 59.777344 L 33.773438 59.671875 L 33.835938 59.460938 L 34.113281 59.015625 L 34.144531 58.929688 L 34.230469 58.734375 L 34.410156 58.347656 L 34.414062 58.355469 C 34.464844 58.238281 34.507812 58.121094 34.539062 58.003906 L 34.589844 57.804688 L 34.730469 57.347656 L 34.898438 56.855469 L 35.085938 56.371094 L 35.066406 56.421875 L 35.132812 55.855469 C 35.441406 53.554688 36.023438 51.160156 36.867188 48.664062 L 37.101562 47.980469 L 37.335938 47.277344 L 37.519531 46.785156 L 37.59375 46.539062 L 37.636719 46.390625 L 37.816406 45.898438 L 38.15625 44.953125 C 39.574219 41.15625 40.761719 38.914062 43.371094 35.738281 L 44.683594 34.226562 L 45.964844 33.070312 L 45.96875 33.070312 C 49.582031 29.832031 53.863281 27.429688 58.511719 26.035156 C 61.222656 25.25 64.019531 24.785156 66.835938 24.648438 L 68.648438 24.648438 C 70.957031 24.648438 73.441406 24.949219 75.800781 25.503906 C 77.738281 26.003906 79.757812 25.792969 81.480469 24.894531 C 85.621094 23 89.199219 21.839844 93.28125 21.382812 C 93.386719 21.382812 93.492188 21.371094 93.675781 21.339844 L 93.960938 21.289062 L 94.054688 21.289062 C 94.097656 21.28125 94.144531 21.269531 94.191406 21.261719 L 94.511719 21.210938 L 94.894531 21.160156 L 95.347656 21.109375 L 96.144531 21.03125 Z M 61.289062 73.878906 L 61.292969 73.882812 C 60.582031 73.808594 59.863281 73.847656 59.164062 73.988281 C 59.058594 73.988281 58.84375 74.09375 58.734375 74.09375 C 58.628906 74.09375 58.628906 74.199219 58.523438 74.199219 C 58.308594 74.304688 58.203125 74.410156 57.988281 74.515625 L 57.777344 74.726562 L 57.777344 74.722656 C 57.585938 74.804688 57.433594 74.953125 57.347656 75.144531 C 56.707031 76.09375 56.601562 77.144531 56.386719 78.410156 C 56.28125 79.039062 56.175781 79.773438 55.964844 80.71875 C 55.855469 81.039062 55.855469 81.25 55.855469 81.460938 C 55.855469 81.671875 55.855469 81.984375 55.644531 82.511719 L 55.535156 82.722656 C 55.535156 82.933594 55.429688 83.144531 55.324219 83.351562 C 55.214844 83.5625 55.214844 83.671875 55.109375 83.882812 L 55.003906 84.09375 L 54.679688 84.722656 C 53.933594 86.40625 54.148438 87.351562 54.363281 88.199219 C 54.46875 88.304688 54.46875 88.410156 54.46875 88.515625 C 54.679688 89.039062 55 89.566406 55.429688 89.984375 C 56.066406 90.613281 56.921875 91.035156 57.5625 91.246094 L 58.203125 91.246094 C 61.617188 91.246094 69.1875 85.886719 70.25 81.148438 C 70.460938 80.097656 70.566406 78.414062 68.648438 76.726562 L 68.542969 76.621094 C 68.542969 76.621094 68.542969 76.515625 68.4375 76.515625 C 68.226562 76.410156 68.117188 76.199219 67.902344 76.09375 C 67.476562 75.882812 67.050781 75.570312 66.515625 75.359375 L 66.410156 75.359375 C 66.304688 75.253906 66.089844 75.253906 65.980469 75.148438 C 65.875 75.148438 65.769531 75.148438 65.664062 75.042969 C 65.664062 75.042969 65.558594 74.9375 65.449219 74.9375 C 65.449219 74.832031 65.34375 74.832031 65.34375 74.832031 C 64.914062 74.621094 64.382812 74.515625 63.742188 74.308594 L 63.746094 74.308594 C 62.941406 74.101562 62.121094 73.960938 61.292969 73.886719 Z M 61.394531 76.195312 C 61.078125 76.617188 60.863281 76.929688 60.542969 77.664062 C 59.6875 79.664062 59.582031 80.71875 59.582031 81.664062 C 59.582031 82.085938 59.582031 82.503906 59.476562 82.925781 L 59.484375 82.929688 C 59.382812 83.265625 59.238281 83.585938 59.050781 83.878906 C 58.519531 85.035156 57.878906 86.613281 58.089844 88.71875 C 57.667969 88.507812 57.023438 88.089844 56.917969 87.773438 C 56.917969 87.667969 56.917969 87.5625 56.8125 87.457031 C 56.707031 86.828125 56.597656 86.402344 57.023438 85.457031 C 58.089844 82.933594 58.304688 82.296875 58.410156 81.667969 C 58.410156 81.5625 58.410156 81.351562 58.515625 81.246094 C 58.730469 80.300781 58.839844 79.355469 58.945312 78.726562 C 59.050781 77.671875 59.15625 77.035156 59.585938 76.511719 C 59.691406 76.300781 60.117188 76.195312 60.652344 76.195312 Z M 99.035156 44.210938 C 103.945312 43.6875 108.207031 43.160156 112.582031 44.734375 C 114.609375 45.46875 118.765625 47.679688 119.832031 49.785156 C 120.578125 51.253906 121.859375 52.414062 124.421875 54.730469 C 125.488281 55.78125 126.332031 56.394531 126.953125 56.878906 L 127.300781 57.152344 C 128.15625 57.886719 128.367188 57.992188 128.6875 58.515625 C 129.542969 60.304688 129.222656 62.097656 128.792969 64.515625 C 128.53125 65.828125 128.261719 66.5625 127.996094 67.3125 L 127.839844 67.773438 C 127.410156 68.71875 126.984375 69.875 126.558594 71.984375 C 126.402344 72.613281 126.359375 73.125 126.300781 73.613281 L 126.238281 74.085938 C 126.132812 75.03125 126.027344 75.554688 125.703125 76.714844 C 125.386719 77.554688 124.851562 79.03125 123.675781 80.609375 C 122.71875 81.871094 121.015625 84.078125 118.878906 84.289062 L 118.132812 84.289062 C 111.949219 81.132812 106.613281 78.820312 104.691406 78.292969 C 102.566406 77.664062 102.773438 73.03125 103.09375 69.03125 C 103.199219 67.246094 103.304688 65.460938 103.199219 63.984375 C 102.882812 58.828125 102.027344 53.25 97.445312 50.40625 C 94.777344 48.726562 91.261719 48.304688 87.847656 48.304688 C 88.269531 48.09375 88.699219 47.832031 89.160156 47.5625 L 89.867188 47.140625 C 91.789062 45.984375 94.242188 44.621094 96.691406 44.410156 L 96.695312 44.429688 C 97.472656 44.304688 98.253906 44.234375 99.042969 44.214844 Z M 89.863281 53.152344 C 85.921875 51.996094 82.722656 54.308594 82.082031 54.835938 L 82.089844 54.839844 C 81.832031 55.03125 81.664062 55.320312 81.625 55.636719 C 81.582031 55.953125 81.671875 56.273438 81.875 56.523438 C 82.300781 57.046875 83.046875 57.152344 83.582031 56.734375 C 83.6875 56.734375 84.222656 56.3125 85.074219 55.894531 C 85.609375 55.683594 85.929688 56.210938 85.609375 56.628906 C 85.503906 56.839844 85.289062 57.050781 85.183594 57.257812 L 85.078125 57.367188 L 85.078125 57.578125 L 84.972656 57.789062 C 84.863281 57.789062 84.863281 57.894531 84.863281 57.894531 C 84.757812 57.894531 84.757812 58 84.757812 58 C 84.652344 58.210938 84.328125 58.628906 84.117188 59.050781 C 84.117188 59.050781 84.011719 59.15625 84.011719 59.261719 C 83.902344 59.367188 83.902344 59.472656 83.796875 59.578125 L 83.128906 60.734375 C 82.796875 61.304688 82.492188 61.835938 82.300781 62.214844 C 81.339844 64 81.234375 66.949219 81.769531 69.476562 C 81.875 69.898438 81.449219 70.316406 81.023438 70.105469 L 81.023438 70.097656 C 80.605469 69.898438 80.269531 69.566406 80.0625 69.152344 L 80.0625 68.632812 C 80.046875 67.75 79.976562 66.867188 79.851562 65.992188 L 79.851562 65.886719 C 79.746094 65.296875 79.746094 64.691406 79.851562 64.101562 L 79.851562 63.996094 C 80.273438 61.785156 80.375 61.152344 80.488281 60.941406 C 80.804688 60.3125 80.488281 59.679688 79.953125 59.367188 C 79.421875 59.050781 78.675781 59.367188 78.355469 59.890625 C 78.25 60.207031 78.035156 60.625 77.5 63.570312 L 77.5 63.675781 C 77.289062 64.726562 77.394531 65.464844 77.5 66.199219 L 77.5 66.304688 C 77.65625 67.355469 77.699219 67.984375 77.710938 68.40625 L 77.710938 68.832031 C 77.710938 69.253906 77.710938 69.460938 77.925781 69.988281 C 78.996094 72.414062 82.089844 72.9375 83.796875 73.253906 C 84.4375 73.359375 85.394531 73.570312 86.570312 73.570312 C 88.167969 73.570312 90.085938 73.253906 91.792969 71.890625 C 92.648438 71.261719 93.179688 70.308594 94.140625 68.625 C 95.742188 65.894531 96.59375 64.316406 96.488281 62.210938 C 96.488281 59.476562 95.101562 57.476562 94.675781 56.84375 C 94.140625 56.109375 92.648438 53.898438 89.871094 53.160156 Z M 69.707031 51.789062 C 68.960938 51.789062 68.320312 51.894531 67.679688 52.105469 C 67.363281 52.210938 67.042969 52.316406 66.828125 52.421875 L 66.292969 52.738281 C 65.976562 52.949219 65.761719 53.160156 65.546875 53.367188 C 64.585938 54.207031 64.265625 55.367188 63.839844 56.632812 C 63.414062 57.894531 62.878906 59.574219 61.492188 61.894531 C 61.28125 62.210938 61.175781 62.523438 60.960938 62.839844 C 59.894531 64.625 59.253906 65.574219 59.574219 67.050781 C 60.105469 69.253906 62.882812 70.097656 64.261719 70.097656 L 64.367188 70.097656 C 66.289062 70.097656 66.929688 69.886719 69.703125 69.257812 C 72.585938 68.523438 73.332031 65.898438 73.652344 63.890625 L 73.757812 63.050781 C 74.398438 58.84375 74.71875 56.949219 74.71875 56 C 74.402344 54.003906 73.757812 53.269531 73.332031 52.953125 L 73.34375 52.953125 C 72.285156 52.195312 71.019531 51.789062 69.71875 51.792969 Z M 68.75 54.203125 L 68.757812 54.207031 C 68.535156 54.777344 68.285156 55.339844 68.007812 55.890625 C 67.371094 57.367188 66.730469 59.050781 66.410156 59.679688 C 65.875 60.730469 65.449219 61.359375 65.023438 61.882812 C 64.59375 62.511719 64.273438 62.9375 64.0625 63.671875 C 63.636719 64.828125 63.527344 66.195312 63.851562 67.671875 C 63.101562 67.566406 61.929688 67.042969 61.714844 66.410156 C 61.609375 65.886719 61.925781 65.464844 62.78125 63.988281 C 62.992188 63.671875 63.101562 63.359375 63.316406 63.042969 C 64.808594 60.511719 65.449219 58.617188 65.875 57.253906 C 66.410156 55.785156 66.621094 55.152344 67.371094 54.625 C 67.902344 54.519531 68.328125 54.308594 68.757812 54.203125 Z M 18.328125 83.226562 C 18.378906 80.878906 18.5625 78.570312 18.867188 76.296875 L 18.621094 78.417969 L 21.242188 74.253906 L 21.253906 74.257812 C 21.730469 73.558594 22.035156 72.75 22.132812 71.910156 C 22.785156 68.402344 23.953125 65.011719 25.597656 61.84375 L 25.875 61.296875 L 26.144531 60.792969 L 26.28125 60.550781 L 26.542969 60.078125 L 26.816406 59.617188 L 27.105469 59.140625 L 27.414062 58.640625 L 27.9375 57.8125 L 28.8125 56.484375 L 29.082031 56.101562 L 29.125 56.035156 L 29.191406 55.949219 L 29.484375 55.09375 L 29.488281 55.09375 C 29.882812 52.273438 30.542969 49.496094 31.457031 46.796875 L 31.734375 46 L 31.828125 45.632812 L 31.832031 45.414062 C 32.304688 44.792969 32.792969 44.191406 33.292969 43.59375 L 32.941406 44.636719 L 32.9375 44.636719 C 32.921875 44.707031 32.90625 44.777344 32.886719 44.84375 L 32.824219 45.011719 L 32.738281 45.152344 L 32.738281 45.675781 L 32.726562 45.785156 L 32.605469 46.246094 C 31.554688 49.132812 30.816406 52.15625 30.367188 55.285156 L 30.0625 56.183594 L 30.046875 56.261719 L 30.050781 56.269531 C 30.039062 56.304688 30.023438 56.339844 30.003906 56.375 L 29.96875 56.425781 L 29.96875 56.492188 L 29.835938 56.625 L 29.785156 56.660156 L 29.574219 56.976562 L 28.914062 57.984375 L 28.363281 58.839844 L 27.890625 59.589844 L 27.742188 59.824219 L 27.46875 60.285156 L 27.207031 60.742188 L 26.949219 61.214844 L 26.6875 61.707031 L 26.410156 62.242188 C 24.835938 65.308594 23.679688 68.542969 23.035156 72.035156 L 23.03125 72.039062 C 22.914062 73.011719 22.5625 73.9375 22.007812 74.746094 L 19.226562 79.183594 L 18.46875 80.34375 C 18.363281 81.824219 18.3125 83.320312 18.3125 84.820312 Z M 18.328125 83.226562 "/>
</g>
</svg>
