<?xml version="1.0" encoding="UTF-8"?>
<svg xmlns="http://www.w3.org/2000/svg" xmlns:xlink="http://www.w3.org/1999/xlink" width="168pt" height="168pt" viewBox="0 0 168 168" version="1.1">
<g id="surface266">
<path style=" stroke:none;fill-rule:evenodd;fill:rgb(12.156863%,29.803922%,62.352941%);fill-opacity:1;" d="M 168 84 C 168 130.390625 130.390625 168 84 168 C 37.609375 168 0 130.390625 0 84 C 0 37.609375 37.609375 0 84 0 C 130.390625 0 168 37.609375 168 84 "/>
<path style=" stroke:none;fill-rule:evenodd;fill:rgb(100%,100%,100%);fill-opacity:1;" d="M 31.5 101.0625 L 84 34.125 L 136.5 101.0625 L 136.5 123.375 L 84 56.4375 L 31.5 123.375 Z M 86.625 107.625 C 79.375 107.625 73.5 101.75 73.5 94.5 C 73.5 87.25 79.375 81.375 86.625 81.375 C 93.875 81.375 99.75 87.25 99.75 94.5 C 99.75 101.75 93.875 107.625 86.625 107.625 Z M 86.625 107.625 "/>
</g>
</svg>
