<?xml version="1.0" encoding="UTF-8"?>
<svg xmlns="http://www.w3.org/2000/svg" xmlns:xlink="http://www.w3.org/1999/xlink" width="168pt" height="168pt" viewBox="0 0 168 168" version="1.1">
<g id="surface2089">
<path style=" stroke:none;fill-rule:nonzero;fill:rgb(99.215686%,52.941176%,36.862745%);fill-opacity:1;" d="M 168 84 C 168 130.390625 130.390625 168 84 168 C 37.609375 168 0 130.390625 0 84 C 0 37.609375 37.609375 0 84 0 C 130.390625 0 168 37.609375 168 84 "/>
<path style=" stroke:none;fill-rule:nonzero;fill:rgb(99.607843%,99.607843%,99.607843%);fill-opacity:1;" d="M 71.714844 91.277344 L 84.242188 53.9375 L 97 91.277344 Z M 124.804688 114.886719 L 114.445312 87.015625 L 120.628906 87.015625 L 120.628906 87.011719 C 123.066406 87.015625 125.054688 85.0625 125.089844 82.625 C 125.089844 81.523438 124.636719 80.457031 123.84375 79.679688 C 123.050781 78.902344 121.964844 78.457031 120.835938 78.457031 L 111.175781 78.457031 L 109.628906 74.121094 L 120.628906 74.121094 C 123.011719 74.140625 124.980469 72.265625 125.070312 69.882812 C 125.074219 68.71875 124.609375 67.605469 123.769531 66.785156 C 122.929688 65.964844 121.796875 65.503906 120.609375 65.507812 L 106.328125 65.507812 L 98.59375 44.675781 C 97.429688 41.6875 95.519531 39.046875 93.046875 37.007812 C 90.578125 35.027344 87.476562 34.003906 84.316406 34.128906 C 81.144531 34.027344 78.039062 35.046875 75.542969 37.007812 C 73.066406 39.050781 71.152344 41.6875 69.976562 44.671875 L 61.875 65.691406 L 47.679688 65.691406 C 45.34375 65.671875 43.429688 67.542969 43.390625 69.878906 C 43.390625 72.285156 45.378906 74.230469 47.835938 74.230469 L 58.613281 74.230469 L 56.953125 78.453125 L 47.292969 78.453125 L 47.296875 78.449219 C 46.171875 78.4375 45.085938 78.875 44.28125 79.660156 C 43.476562 80.449219 43.015625 81.523438 43.003906 82.652344 C 43.003906 85.035156 44.96875 86.960938 47.394531 86.972656 L 53.59375 86.972656 L 43.0625 114.882812 C 42.417969 116.457031 42.058594 118.128906 42.003906 119.824219 C 42.109375 122.203125 43.167969 124.445312 44.945312 126.070312 L 44.941406 126.066406 C 46.902344 127.730469 49.402344 128.632812 51.976562 128.605469 C 56.402344 128.871094 60.421875 126.019531 61.636719 121.753906 L 65.710938 109.839844 L 103.21875 109.839844 L 107.296875 122.035156 L 107.292969 122.035156 C 108.65625 126.152344 112.628906 128.828125 116.953125 128.546875 C 118.582031 128.582031 120.183594 128.179688 121.59375 127.390625 C 122.816406 126.5 123.902344 125.449219 124.816406 124.25 L 124.820312 124.25 C 125.617188 122.914062 126.023438 121.378906 126 119.820312 C 125.746094 118.167969 125.34375 116.539062 124.804688 114.953125 Z M 124.804688 114.886719 "/>
</g>
</svg>
