<?xml version="1.0" encoding="UTF-8"?>
<svg xmlns="http://www.w3.org/2000/svg" xmlns:xlink="http://www.w3.org/1999/xlink" width="168pt" height="168pt" viewBox="0 0 168 168" version="1.1">
<g id="surface1001">
<path style=" stroke:none;fill-rule:nonzero;fill:rgb(65.490196%,7.843137%,20.784314%);fill-opacity:1;" d="M 168 84 C 168 130.390625 130.390625 168 84 168 C 37.609375 168 0 130.390625 0 84 C 0 37.609375 37.609375 0 84 0 C 130.390625 0 168 37.609375 168 84 "/>
<path style=" stroke:none;fill-rule:nonzero;fill:rgb(100%,100%,100%);fill-opacity:1;" d="M 56.464844 27.542969 C 73.898438 18.894531 94.363281 18.839844 111.847656 27.390625 C 129.332031 35.945312 141.847656 52.136719 145.71875 71.210938 C 149.589844 90.285156 144.378906 110.078125 131.617188 124.773438 C 128.492188 117.96875 126.097656 110.835938 123.421875 103.808594 L 107.25 61.441406 C 105.691406 57.148438 103.070312 53.019531 99.003906 50.789062 C 93.308594 48.042969 86.921875 47.050781 80.660156 47.941406 C 75.640625 48.503906 70.402344 50.230469 67 54.1875 C 63.765625 57.921875 62.316406 62.71875 60.480469 67.234375 L 48.824219 96.785156 C 44.921875 106.152344 41.632812 115.851562 37.394531 125.160156 C 31.292969 118.570312 26.808594 110.648438 24.296875 102.023438 C 19.957031 87.796875 20.816406 72.488281 26.71875 58.835938 C 32.621094 45.179688 43.183594 34.070312 56.523438 27.484375 L 56.464844 27.535156 Z M 56.464844 27.542969 "/>
<path style=" stroke:none;fill-rule:nonzero;fill:rgb(100%,100%,100%);fill-opacity:1;" d="M 79.769531 70.246094 C 80.882812 66.902344 85.34375 65.785156 88.242188 67.683594 C 89.800781 68.855469 90.363281 70.859375 91.085938 72.644531 C 98.332031 91.597656 105.472656 110.664062 112.664062 129.679688 C 113.609375 132.410156 115 135.03125 115.5625 137.871094 C 115.105469 138.355469 114.578125 138.769531 114 139.097656 C 98.085938 147.613281 79.28125 148.871094 62.375 142.558594 C 59.25 141.273438 56.023438 140.160156 53.289062 138.207031 C 53.566406 135.644531 54.847656 133.355469 55.796875 131.015625 C 63.824219 110.78125 71.683594 90.484375 79.769531 70.246094 Z M 79.769531 70.246094 "/>
</g>
</svg>
