<?xml version="1.0" encoding="UTF-8"?>
<svg xmlns="http://www.w3.org/2000/svg" xmlns:xlink="http://www.w3.org/1999/xlink" width="168pt" height="168pt" viewBox="0 0 168 168" version="1.1">
<g id="surface1706">
<path style=" stroke:none;fill-rule:nonzero;fill:rgb(96.862745%,0%,0%);fill-opacity:1;" d="M 168 84 C 168 130.390625 130.390625 168 84 168 C 37.609375 168 0 130.390625 0 84 C 0 37.609375 37.609375 0 84 0 C 130.390625 0 168 37.609375 168 84 "/>
<path style=" stroke:none;fill-rule:nonzero;fill:rgb(100%,100%,100%);fill-opacity:1;" d="M 83.722656 70.070312 L 26.25 130.671875 L 83.980469 36.75 L 141.75 131.25 Z M 92.058594 94.140625 L 74.09375 94.140625 L 83.332031 83.976562 L 92.058594 94.230469 Z M 57.410156 110.820312 L 57.410156 110.695312 L 67.601562 100.261719 L 67.601562 100.214844 L 98.679688 100.082031 L 109.167969 110.816406 L 57.414062 110.816406 Z M 57.410156 110.820312 "/>
</g>
</svg>
