<?xml version="1.0" encoding="UTF-8"?>
<svg xmlns="http://www.w3.org/2000/svg" xmlns:xlink="http://www.w3.org/1999/xlink" width="168pt" height="168pt" viewBox="0 0 168 168" version="1.1">
<g id="surface1556">
<path style=" stroke:none;fill-rule:nonzero;fill:rgb(0%,57.254902%,70.980392%);fill-opacity:1;" d="M 168 84 C 168 130.390625 130.390625 168 84 168 C 37.609375 168 0 130.390625 0 84 C 0 37.609375 37.609375 0 84 0 C 130.390625 0 168 37.609375 168 84 "/>
<path style=" stroke:none;fill-rule:nonzero;fill:rgb(100%,100%,100%);fill-opacity:1;" d="M 61.738281 74.035156 L 84.21875 34.460938 C 84.261719 34.386719 84.34375 34.339844 84.640625 34.460938 L 106.027344 73.316406 C 104.8125 74.308594 104.121094 75.800781 104.144531 77.371094 C 104.171875 78.9375 104.914062 80.40625 106.160156 81.359375 L 86.40625 116.996094 C 84.980469 116.3125 83.324219 116.300781 81.890625 116.964844 L 61.558594 80.746094 L 61.554688 80.746094 C 63.289062 78.867188 63.363281 76 61.734375 74.035156 Z M 59.585938 82.089844 L 79.996094 118.445312 L 80 118.445312 C 79.558594 118.996094 79.238281 119.632812 79.054688 120.3125 C 62.574219 116.363281 52.335938 113.921875 48.332031 112.984375 C 46.636719 110.601562 45.15625 108.078125 43.902344 105.4375 L 56.984375 82.410156 C 57.863281 82.519531 58.757812 82.414062 59.585938 82.09375 Z M 56.757812 72.203125 L 40.550781 43.328125 C 51.597656 37.464844 65.304688 34.386719 81.683594 34.125 L 59.832031 72.585938 L 59.835938 72.585938 C 58.871094 72.15625 57.796875 72.019531 56.757812 72.203125 Z M 54.554688 73.128906 C 53.183594 74.113281 52.390625 75.710938 52.425781 77.394531 C 52.460938 79.082031 53.324219 80.640625 54.730469 81.570312 L 42.707031 102.726562 C 40.710938 97.78125 39.523438 92.542969 39.191406 87.21875 L 36.761719 48.464844 L 36.761719 48.460938 C 36.667969 46.949219 37.320312 45.484375 38.503906 44.535156 Z M 89.203125 120.367188 C 89.027344 119.6875 88.714844 119.054688 88.285156 118.503906 L 108.328125 82.347656 C 109.195312 82.519531 110.089844 82.476562 110.933594 82.21875 L 123.921875 105.8125 C 122.820312 108.082031 121.550781 110.265625 120.121094 112.347656 Z M 85.3125 126.667969 C 87.253906 126.226562 88.773438 124.722656 89.234375 122.785156 L 117.878906 115.355469 L 117.878906 115.359375 C 114.414062 119.664062 110.273438 123.371094 105.613281 126.339844 L 86.59375 138.488281 C 86.195312 138.742188 85.765625 138.9375 85.3125 139.066406 Z M 82.929688 126.667969 L 82.929688 139.125 C 82.386719 139.003906 81.875 138.789062 81.40625 138.488281 L 62.386719 126.339844 C 57.9375 123.507812 53.960938 119.996094 50.59375 115.9375 C 55.792969 117.171875 65.257812 119.429688 78.992188 122.714844 C 79.414062 124.671875 80.957031 126.222656 82.929688 126.671875 Z M 111.121094 72.414062 C 110.167969 72.085938 109.140625 72.03125 108.160156 72.265625 L 87.175781 34.140625 C 103.09375 34.492188 116.472656 37.53125 127.292969 43.25 Z M 113.132812 73.679688 L 129.355469 44.425781 C 130.628906 45.363281 131.339844 46.882812 131.246094 48.460938 L 128.816406 87.222656 L 128.8125 87.222656 C 128.472656 92.683594 127.230469 98.050781 125.140625 103.105469 L 112.992188 81.039062 C 114.007812 80.09375 114.597656 78.777344 114.625 77.390625 C 114.652344 76 114.113281 74.660156 113.132812 73.679688 Z M 84 58.976562 C 82.457031 59.003906 81.203125 60.238281 81.160156 61.78125 L 81.160156 72.039062 L 66.007812 81.375 L 67.628906 84.875 L 81.15625 80.445312 L 81.15625 90.703125 L 77.367188 93.5 L 77.367188 96.296875 L 84 94.433594 L 90.628906 96.296875 L 90.628906 93.5 L 86.839844 90.703125 L 86.839844 80.445312 L 100.136719 85.117188 L 101.988281 81.378906 L 86.835938 72.042969 L 86.835938 61.785156 L 86.839844 61.78125 C 86.792969 60.242188 85.546875 59.011719 84.003906 58.984375 Z M 84 58.976562 "/>
</g>
</svg>
