<?xml version="1.0" encoding="UTF-8"?>
<svg xmlns="http://www.w3.org/2000/svg" xmlns:xlink="http://www.w3.org/1999/xlink" width="168pt" height="168pt" viewBox="0 0 168 168" version="1.1">
<g id="surface2305">
<path style=" stroke:none;fill-rule:nonzero;fill:rgb(26.27451%,40%,59.215686%);fill-opacity:1;" d="M 168 84 C 168 130.390625 130.390625 168 84 168 C 37.609375 168 0 130.390625 0 84 C 0 37.609375 37.609375 0 84 0 C 130.390625 0 168 37.609375 168 84 "/>
<path style=" stroke:none;fill-rule:nonzero;fill:rgb(100%,100%,100%);fill-opacity:1;" d="M 100.144531 108.757812 C 99.886719 108.746094 99.640625 108.664062 99.429688 108.515625 C 99.238281 108.398438 99.078125 108.238281 98.957031 108.046875 L 98.910156 108.046875 L 87.265625 128.496094 C 99.097656 125.898438 110.890625 123.246094 122.71875 120.640625 C 122.449219 120.304688 122.195312 119.957031 121.960938 119.59375 C 121.628906 119.121094 121.347656 118.554688 121.015625 117.941406 L 121.019531 117.941406 C 120.714844 117.382812 120.433594 116.8125 120.167969 116.234375 L 120.167969 116.1875 C 120.167969 116.140625 120.117188 116.09375 120.117188 116.09375 L 120.113281 116.09375 C 119.550781 114.898438 119.03125 113.683594 118.554688 112.449219 C 118.414062 112.117188 118.320312 111.835938 118.175781 111.550781 C 117.457031 109.769531 116.777344 107.96875 116.140625 106.15625 C 114.152344 106.535156 112.496094 106.863281 111.363281 107.101562 C 111.3125 107.101562 111.261719 107.101562 111.214844 107.148438 C 109.464844 107.527344 107.808594 107.855469 106.199219 108.144531 C 105.296875 108.328125 104.445312 108.421875 103.640625 108.566406 C 103.453125 108.617188 103.214844 108.617188 102.933594 108.667969 C 102.933594 108.667969 102.363281 108.761719 101.605469 108.808594 L 101.609375 108.804688 C 101.117188 108.84375 100.625 108.824219 100.136719 108.753906 Z M 111.027344 90.671875 C 110.773438 89.769531 110.570312 88.851562 110.414062 87.925781 L 101.515625 103.550781 L 101.566406 103.5 C 101.9375 103.363281 102.363281 103.222656 102.890625 103.078125 C 104.117188 102.695312 105.632812 102.316406 107.480469 101.84375 C 109.328125 101.371094 111.507812 100.847656 114.058594 100.191406 C 113.539062 98.625 112.972656 97.019531 112.453125 95.363281 L 112.449219 95.359375 C 111.917969 93.816406 111.445312 92.253906 111.03125 90.671875 Z M 124.757812 62.984375 L 124.570312 62.984375 L 113.074219 83.195312 C 113.117188 83.195312 113.210938 83.242188 113.351562 83.242188 C 113.402344 83.242188 113.402344 83.242188 113.445312 83.289062 C 113.496094 83.289062 113.496094 83.289062 113.539062 83.335938 C 113.589844 83.335938 113.589844 83.382812 113.632812 83.382812 C 113.683594 83.382812 113.683594 83.382812 113.726562 83.429688 L 113.726562 83.433594 C 113.863281 83.507812 113.992188 83.601562 114.101562 83.714844 C 114.289062 83.902344 114.4375 84.09375 114.484375 84.140625 C 114.53125 84.191406 114.53125 84.234375 114.578125 84.28125 L 114.582031 84.285156 C 114.6875 84.433594 114.78125 84.59375 114.863281 84.757812 C 115.097656 85.183594 115.242188 85.417969 115.242188 85.417969 C 115.808594 86.511719 116.375 87.785156 116.941406 89.304688 C 117.511719 90.816406 118.128906 92.429688 118.695312 94.132812 C 118.835938 94.511719 118.929688 94.839844 119.074219 95.21875 C 119.40625 96.214844 119.832031 97.445312 120.308594 98.863281 C 122.292969 98.484375 124.1875 98.105469 126.03125 97.777344 C 127.878906 97.445312 129.539062 97.210938 131.050781 97.070312 C 132.566406 96.921875 133.84375 96.828125 134.9375 96.875 C 135.550781 96.875 136.023438 96.925781 136.449219 97.023438 C 136.542969 97.023438 136.683594 97.070312 136.78125 97.070312 C 135.882812 94.5625 134.9375 91.769531 133.847656 88.785156 L 124.765625 62.988281 Z M 135.597656 101.277344 C 134.289062 101.757812 132.960938 102.183594 131.617188 102.554688 C 131.332031 102.648438 131.050781 102.695312 130.8125 102.796875 C 130.578125 102.84375 130.339844 102.9375 130.105469 102.984375 C 129.449219 103.164062 128.785156 103.320312 128.117188 103.457031 C 127.742188 103.5625 127.363281 103.65625 126.980469 103.738281 L 126.929688 103.738281 C 125.796875 104.023438 124.285156 104.351562 122.53125 104.734375 C 122.910156 106.058594 123.386719 107.523438 123.949219 109.179688 C 124.472656 110.832031 125 112.445312 125.417969 113.957031 C 125.558594 114.429688 125.652344 114.859375 125.796875 115.332031 C 126.039062 116.039062 126.226562 116.75 126.367188 117.605469 C 126.414062 117.746094 126.414062 117.890625 126.460938 118.027344 C 126.648438 118.789062 126.695312 119.355469 126.648438 119.78125 C 126.648438 119.78125 128.632812 119.402344 129.628906 119.167969 L 129.632812 119.167969 C 133.558594 114.113281 136.613281 108.433594 138.671875 102.371094 C 138.386719 101.515625 138.105469 100.710938 137.820312 99.855469 C 137.390625 100.425781 136.679688 100.851562 135.59375 101.277344 Z M 73.347656 27.910156 L 73.535156 27.910156 C 73.722656 27.910156 73.964844 28.003906 74.25 28.195312 C 74.390625 28.289062 74.582031 28.382812 74.722656 28.527344 L 74.722656 28.523438 C 74.921875 28.667969 75.113281 28.824219 75.289062 28.996094 C 76.140625 29.753906 77.089844 30.65625 78.175781 31.742188 C 79.214844 32.78125 80.308594 33.921875 81.441406 35.15625 C 82.527344 36.332031 83.527344 37.425781 84.421875 38.320312 C 84.847656 37.894531 85.273438 37.421875 85.703125 36.902344 C 86.222656 36.332031 86.742188 35.761719 87.261719 35.148438 C 87.785156 34.582031 88.300781 33.96875 88.875 33.441406 C 89.394531 32.875 89.914062 32.355469 90.433594 31.835938 L 91.191406 31.078125 C 91.480469 30.792969 91.761719 30.554688 92 30.316406 C 92.472656 29.894531 92.898438 29.511719 93.324219 29.183594 C 94.226562 28.425781 94.890625 28.097656 95.410156 28.097656 C 95.597656 28.097656 95.789062 28.144531 95.976562 28.191406 L 95.457031 27.570312 L 94.082031 27.285156 C 94.035156 27.285156 93.988281 27.285156 93.941406 27.238281 C 93.519531 27.144531 93.089844 27.097656 92.664062 27.050781 L 92.570312 27.050781 C 92.144531 27.003906 91.671875 26.910156 91.246094 26.863281 L 91.195312 26.863281 C 88.832031 26.578125 86.417969 26.390625 83.957031 26.390625 L 82.628906 26.390625 C 82.207031 26.390625 81.824219 26.441406 81.449219 26.441406 L 81.308594 26.441406 C 80.882812 26.441406 80.503906 26.484375 80.082031 26.53125 L 80.03125 26.53125 C 77.859375 26.671875 75.726562 26.957031 73.640625 27.335938 C 73.453125 27.523438 73.308594 27.71875 73.121094 27.957031 C 73.214844 27.957031 73.261719 27.90625 73.355469 27.90625 Z M 40.875 54.84375 C 41.109375 54.65625 41.398438 54.371094 41.871094 54.183594 L 41.875 54.179688 C 42.425781 53.925781 43.019531 53.78125 43.621094 53.753906 C 44.425781 53.703125 45.039062 53.941406 45.375 54.039062 C 52.898438 45.566406 60.425781 37.132812 67.949219 28.664062 L 66.105469 29.230469 C 61.890625 30.648438 56.304688 33.015625 50.480469 37.183594 L 50.484375 37.1875 C 45.398438 40.878906 40.925781 45.351562 37.234375 50.4375 C 36.855469 51.007812 36.429688 51.53125 36.046875 52.097656 C 37.660156 52.996094 39.269531 53.945312 40.875 54.84375 Z M 39.648438 60.476562 C 39.304688 59.835938 39.121094 59.117188 39.121094 58.390625 L 39.121094 58.058594 C 39.121094 58.058594 39.171875 57.824219 39.171875 57.726562 L 34.289062 54.980469 L 34.292969 54.984375 C 29.503906 63.128906 26.804688 72.332031 26.4375 81.773438 L 26.4375 85.753906 C 26.578125 90.199219 27.195312 94.511719 28.285156 98.625 C 32.496094 86.414062 36.757812 74.25 40.96875 62.03125 L 40.972656 62.035156 C 40.421875 61.617188 39.972656 61.085938 39.648438 60.476562 Z M 97.113281 30.894531 L 97.113281 30.890625 C 97.003906 31.226562 96.847656 31.546875 96.640625 31.835938 C 96.324219 32.421875 95.972656 32.992188 95.597656 33.542969 C 95.363281 33.875 95.125 34.25 94.890625 34.628906 L 94.886719 34.628906 C 94.269531 35.535156 93.621094 36.417969 92.945312 37.28125 C 92.613281 37.660156 92.332031 38.085938 92 38.507812 C 91.949219 38.558594 91.90625 38.648438 91.859375 38.695312 C 91.246094 39.457031 90.578125 40.261719 89.871094 41.0625 C 89.347656 41.675781 88.875 42.25 88.304688 42.863281 C 89.019531 43.667969 89.820312 44.515625 90.625 45.46875 C 90.910156 45.753906 91.191406 46.082031 91.433594 46.414062 C 92 47.027344 92.519531 47.640625 93.039062 48.261719 L 94.554688 50.058594 C 95.5 51.246094 96.304688 52.285156 96.96875 53.230469 C 97.535156 54.085938 97.820312 54.699219 97.914062 55.171875 L 97.914062 55.359375 C 97.914062 55.832031 97.679688 56.304688 97.253906 56.734375 L 119.882812 56.734375 L 119.882812 56.738281 C 120.023438 56.363281 120.214844 56.011719 120.449219 55.691406 L 97.296875 29.703125 L 97.296875 29.800781 C 97.3125 30.171875 97.25 30.542969 97.113281 30.890625 Z M 110.695312 32.972656 C 110.601562 32.925781 110.554688 32.878906 110.460938 32.878906 L 110.460938 32.875 C 109.828125 32.53125 109.179688 32.21875 108.515625 31.929688 C 108.394531 31.898438 108.277344 31.832031 108.1875 31.742188 C 107.5625 31.449219 106.929688 31.164062 106.296875 30.890625 C 106.15625 30.839844 106.0625 30.796875 105.917969 30.75 C 105.234375 30.453125 104.539062 30.179688 103.835938 29.941406 C 103.742188 29.894531 103.648438 29.894531 103.550781 29.847656 C 102.84375 29.5625 102.082031 29.328125 101.324219 29.089844 C 108.664062 37.328125 115.996094 45.613281 123.382812 53.847656 C 123.476562 53.847656 123.617188 53.796875 123.714844 53.796875 L 124.707031 53.796875 C 124.941406 53.847656 125.367188 53.898438 125.894531 54.085938 C 125.941406 54.085938 125.988281 54.132812 126.035156 54.179688 C 126.082031 54.226562 126.175781 54.226562 126.222656 54.273438 L 126.226562 54.273438 C 126.582031 54.457031 126.914062 54.679688 127.21875 54.9375 C 127.265625 54.9375 127.265625 54.984375 127.3125 54.984375 C 127.453125 55.078125 127.546875 55.21875 127.644531 55.316406 C 129.210938 54.417969 130.769531 53.5625 132.285156 52.664062 C 127.3125 45.058594 120.632812 38.722656 112.78125 34.15625 L 112.734375 34.15625 C 112.074219 33.730469 111.359375 33.347656 110.699219 32.96875 Z M 92.945312 56.074219 C 92.710938 55.886719 92.519531 55.695312 92.285156 55.507812 L 90.816406 54.183594 L 90.058594 53.421875 L 90.058594 53.417969 C 89.21875 52.601562 88.414062 51.75 87.644531 50.867188 C 87.078125 50.246094 86.558594 49.632812 86.039062 49.066406 C 85.515625 48.453125 84.945312 47.878906 84.425781 47.3125 C 82.675781 49.113281 81.207031 50.671875 79.980469 52 C 79.695312 52.285156 79.410156 52.613281 79.125 52.898438 L 79.03125 52.992188 C 78.464844 53.558594 77.992188 54.085938 77.519531 54.558594 L 76.859375 55.21875 L 76.855469 55.21875 C 76.285156 55.773438 75.683594 56.296875 75.054688 56.785156 L 93.75 56.785156 C 93.703125 56.734375 93.609375 56.691406 93.5625 56.644531 C 93.375 56.402344 93.140625 56.261719 92.949219 56.074219 Z M 48.074219 56.742188 L 71.457031 56.742188 C 71.363281 56.648438 71.269531 56.5 71.171875 56.40625 C 71.078125 56.3125 71.03125 56.171875 70.976562 56.074219 C 70.882812 55.839844 70.789062 55.601562 70.789062 55.367188 C 70.789062 55.226562 70.839844 55.035156 70.882812 54.800781 C 70.882812 54.75 70.933594 54.707031 70.933594 54.660156 C 70.976562 54.566406 71.027344 54.425781 71.121094 54.28125 C 71.261719 53.996094 71.453125 53.660156 71.6875 53.335938 C 71.734375 53.285156 71.734375 53.234375 71.78125 53.234375 L 71.789062 53.230469 C 73.207031 51.234375 74.738281 49.324219 76.378906 47.507812 C 76.679688 47.148438 76.992188 46.800781 77.320312 46.460938 C 77.65625 46.128906 77.941406 45.753906 78.269531 45.421875 C 78.976562 44.613281 79.6875 43.808594 80.304688 43.054688 C 80.351562 43.003906 80.398438 42.960938 80.398438 42.914062 L 80.402344 42.914062 C 78.675781 40.910156 76.988281 38.875 75.335938 36.808594 C 74.863281 36.1875 74.4375 35.574219 74.011719 35.007812 L 74.015625 35.007812 C 73.3125 34.015625 72.664062 32.988281 72.070312 31.929688 L 71.785156 31.363281 C 71.691406 31.175781 71.644531 30.984375 71.550781 30.839844 C 71.457031 30.507812 71.363281 30.226562 71.363281 29.988281 L 47.878906 56.304688 C 47.929688 56.445312 48.027344 56.59375 48.074219 56.734375 Z M 86.132812 141.519531 L 86.132812 141.515625 C 101.25 140.964844 115.542969 134.464844 125.894531 123.433594 C 112.636719 126.367188 99.382812 129.304688 86.132812 132.191406 Z M 140.949219 92.480469 C 140.996094 92.292969 140.996094 92.148438 141.042969 91.957031 C 141.089844 91.484375 141.183594 91.066406 141.230469 90.59375 L 141.230469 90.542969 L 141.371094 89.074219 C 141.371094 88.9375 141.417969 88.796875 141.417969 88.652344 C 141.417969 88.367188 141.464844 88.128906 141.464844 87.84375 C 141.558594 86.375 141.605469 85.007812 141.605469 83.726562 L 141.609375 83.714844 C 141.566406 75.105469 139.59375 66.613281 135.832031 58.863281 L 135.691406 58.578125 C 135.503906 58.152344 135.265625 57.773438 135.078125 57.351562 L 134.792969 56.785156 C 134.558594 56.355469 134.320312 55.882812 134.078125 55.457031 C 132.328125 56.453125 130.625 57.398438 128.875 58.398438 C 128.875 58.535156 128.875 58.675781 128.824219 58.820312 C 128.78125 59.105469 128.730469 59.34375 128.683594 59.582031 C 128.636719 59.722656 128.589844 59.816406 128.542969 59.960938 L 128.539062 59.953125 C 128.40625 60.304688 128.230469 60.636719 128.019531 60.945312 C 127.925781 61.039062 127.878906 61.132812 127.785156 61.230469 C 131.90625 73.109375 136.023438 84.945312 140.136719 96.824219 C 140.378906 95.832031 140.566406 94.792969 140.757812 93.796875 C 140.757812 93.703125 140.804688 93.609375 140.804688 93.464844 C 140.863281 93.136719 140.910156 92.800781 140.945312 92.46875 Z M 140.949219 92.480469 "/>
<path style=" stroke:none;fill-rule:nonzero;fill:rgb(100%,100%,100%);fill-opacity:1;" d="M 119.925781 60.050781 C 120.210938 60.789062 120.6875 61.441406 121.300781 61.941406 L 84.234375 127.125 L 47.027344 61.65625 L 47.03125 61.65625 C 47.472656 61.1875 47.828125 60.644531 48.074219 60.050781 Z M 82.484375 102.796875 C 81.832031 102.796875 81.304688 103.320312 81.304688 103.976562 L 81.304688 103.996094 C 81.304688 104.574219 81.667969 105.03125 82.171875 105.160156 L 82.488281 105.203125 L 82.484375 105.203125 C 82.800781 105.210938 83.109375 105.082031 83.335938 104.855469 C 83.558594 104.625 83.679688 104.316406 83.667969 103.996094 L 83.667969 103.976562 C 83.667969 103.660156 83.542969 103.359375 83.320312 103.140625 C 83.097656 102.917969 82.796875 102.792969 82.484375 102.796875 Z M 72.503906 91.140625 C 72.019531 91.140625 71.585938 91.433594 71.40625 91.878906 L 71.363281 92.003906 L 71.320312 92.320312 C 71.320312 92.988281 71.839844 93.507812 72.5 93.507812 C 73.160156 93.507812 73.679688 92.988281 73.679688 92.328125 C 73.679688 91.667969 73.160156 91.140625 72.5 91.140625 Z M 91.488281 67.851562 C 89.121094 66.976562 87.71875 67.929688 87.109375 68.566406 L 87.0625 68.617188 C 86.917969 68.753906 86.800781 68.914062 86.703125 69.085938 C 86.703125 69.132812 86.652344 69.179688 86.703125 69.179688 C 86.703125 69.226562 86.75 69.226562 86.796875 69.273438 C 91.007812 71.359375 94.183594 72.964844 95.554688 73.671875 L 95.695312 73.765625 C 95.835938 73.859375 96.261719 74.054688 96.308594 74.386719 C 96.367188 74.664062 96.1875 74.949219 95.953125 75.199219 L 95.75 75.398438 L 95.507812 75.613281 L 95.296875 75.792969 C 94.757812 76.246094 94.03125 76.832031 90.0625 79.925781 C 89.902344 80.089844 89.710938 80.21875 89.496094 80.304688 C 89.292969 80.417969 89.066406 80.480469 88.835938 80.492188 L 88.695312 80.492188 C 88.460938 80.492188 88.265625 80.492188 87.460938 80.160156 L 87.460938 80.164062 C 87.113281 80.027344 86.742188 79.980469 86.371094 80.019531 L 85.898438 80.160156 C 85.804688 80.207031 85.757812 80.253906 85.664062 80.300781 L 85.664062 80.304688 C 85.621094 80.34375 85.574219 80.382812 85.527344 80.417969 L 85.617188 80.351562 C 85.496094 80.433594 85.382812 80.527344 85.28125 80.632812 C 85.234375 80.679688 85.234375 80.726562 85.234375 80.773438 C 85.308594 80.773438 85.355469 80.773438 85.390625 80.792969 L 85.40625 80.835938 L 85.472656 80.867188 C 85.566406 80.867188 85.613281 80.867188 85.707031 80.914062 L 85.710938 80.917969 C 85.828125 80.921875 85.941406 80.953125 86.042969 81.011719 C 86.433594 81.171875 86.800781 81.375 87.144531 81.621094 L 86.890625 81.4375 L 86.894531 81.4375 C 87.09375 81.582031 87.28125 81.738281 87.460938 81.910156 C 87.632812 82.085938 87.789062 82.277344 87.933594 82.476562 L 88.363281 83.097656 L 88.742188 83.617188 C 88.847656 83.828125 88.925781 84.046875 88.976562 84.277344 C 89.070312 84.601562 89.117188 84.9375 89.117188 85.277344 L 89.117188 85.84375 C 89.117188 85.890625 89.117188 85.9375 89.164062 85.984375 L 89.183594 85.996094 L 89.210938 86.03125 L 89.351562 86.03125 C 89.492188 85.9375 89.636719 85.890625 89.730469 85.796875 C 89.777344 85.703125 89.871094 85.65625 89.917969 85.609375 L 89.921875 85.605469 C 90.054688 85.515625 90.15625 85.378906 90.207031 85.222656 C 90.394531 84.800781 90.394531 84.371094 90.394531 84.136719 C 90.300781 83.238281 90.394531 83.050781 90.488281 82.859375 C 90.488281 82.808594 90.539062 82.765625 90.539062 82.71875 L 90.542969 82.71875 C 90.625 82.503906 90.753906 82.308594 90.914062 82.148438 C 91.09375 81.976562 91.285156 81.816406 91.488281 81.675781 C 93.253906 80.402344 95.054688 79.175781 96.890625 78 L 97.214844 77.789062 C 97.636719 77.558594 98.253906 77.132812 98.683594 77.367188 L 98.683594 77.371094 C 98.742188 77.402344 98.792969 77.445312 98.835938 77.496094 C 98.960938 77.699219 99.023438 77.988281 99.054688 78.125 L 99.105469 78.359375 C 99.382812 80.019531 99.957031 83.425781 100.664062 87.96875 C 100.664062 88.019531 100.710938 88.0625 100.710938 88.0625 C 100.714844 88.09375 100.726562 88.113281 100.757812 88.113281 C 100.804688 88.15625 100.804688 88.15625 100.851562 88.15625 C 100.898438 88.15625 103.597656 87.542969 103.410156 83.992188 L 103.03125 75.519531 L 103.03125 75.308594 L 103.035156 75.3125 C 103.054688 74.417969 103.492188 73.582031 104.21875 73.058594 L 106.777344 71.027344 C 106.777344 71.027344 108.335938 69.933594 108.054688 68.234375 C 108.007812 68.183594 108.007812 68.140625 107.960938 68.140625 L 107.996094 68.160156 C 107.960938 68.101562 107.9375 68.085938 107.910156 68.085938 C 106.351562 67.28125 104.882812 68.46875 104.882812 68.46875 L 102.136719 70.3125 L 102.132812 70.3125 C 101.371094 70.917969 100.335938 71.0625 99.433594 70.691406 L 96.875 69.800781 Z M 70.183594 70.691406 C 69.527344 70.695312 69 71.222656 69 71.878906 L 69 71.898438 C 69 72.476562 69.363281 72.925781 69.867188 73.0625 L 70.183594 73.105469 C 70.5 73.109375 70.808594 72.984375 71.035156 72.757812 C 71.257812 72.527344 71.378906 72.21875 71.367188 71.898438 L 71.367188 71.878906 C 71.367188 71.5625 71.242188 71.261719 71.019531 71.039062 C 70.796875 70.816406 70.496094 70.691406 70.183594 70.691406 Z M 79.128906 64.773438 C 78.476562 64.777344 77.945312 65.308594 77.945312 65.960938 L 77.945312 65.980469 C 77.945312 66.558594 78.308594 67.007812 78.8125 67.144531 L 79.128906 67.1875 L 79.128906 67.191406 C 79.449219 67.195312 79.753906 67.066406 79.980469 66.839844 C 80.203125 66.613281 80.324219 66.300781 80.316406 65.980469 L 80.316406 65.960938 C 80.316406 65.644531 80.191406 65.34375 79.96875 65.121094 C 79.746094 64.898438 79.441406 64.773438 79.128906 64.773438 Z M 57.5 64.773438 L 57.496094 64.773438 C 56.84375 64.773438 56.3125 65.304688 56.3125 65.960938 L 56.316406 65.980469 C 56.316406 66.558594 56.671875 67.007812 57.175781 67.144531 L 57.492188 67.1875 L 57.492188 67.191406 C 57.8125 67.195312 58.121094 67.066406 58.34375 66.839844 C 58.566406 66.613281 58.6875 66.300781 58.679688 65.980469 L 58.679688 65.960938 C 58.679688 65.304688 58.15625 64.773438 57.5 64.773438 Z M 42.15625 118.082031 C 42.34375 117.179688 42.578125 116.234375 42.863281 115.140625 L 43.148438 114.007812 C 43.574219 112.496094 44.046875 110.882812 44.617188 109.230469 C 44.753906 108.804688 44.894531 108.421875 44.988281 108.042969 C 45.230469 107.285156 45.460938 106.53125 45.703125 105.820312 L 45.707031 105.824219 C 45.792969 105.484375 45.90625 105.152344 46.039062 104.828125 C 44.757812 104.542969 43.246094 104.167969 41.632812 103.832031 L 41.632812 103.828125 C 40.046875 103.472656 38.46875 103.082031 36.902344 102.648438 C 35.761719 102.316406 34.722656 102.035156 33.824219 101.703125 C 33.492188 101.609375 33.203125 101.46875 32.921875 101.371094 C 32.585938 101.246094 32.253906 101.105469 31.929688 100.945312 C 31.683594 100.828125 31.445312 100.683594 31.222656 100.523438 C 30.796875 101.703125 30.414062 102.886719 29.988281 104.074219 C 32.023438 109.519531 34.816406 114.539062 38.320312 119.078125 C 39.554688 119.363281 40.734375 119.601562 41.964844 119.882812 L 41.964844 119.878906 C 41.949219 119.273438 42.011719 118.671875 42.15625 118.082031 Z M 32.402344 97.019531 C 32.78125 96.96875 33.160156 96.917969 33.636719 96.917969 C 34.722656 96.917969 36 96.96875 37.46875 97.113281 C 38.980469 97.253906 40.640625 97.492188 42.441406 97.820312 C 44.285156 98.152344 46.179688 98.480469 48.121094 98.90625 C 48.640625 97.4375 49.160156 95.878906 49.726562 94.175781 L 49.726562 94.179688 C 50.515625 91.863281 51.386719 89.570312 52.332031 87.3125 C 52.597656 86.707031 52.878906 86.105469 53.183594 85.515625 C 53.371094 85.085938 53.5625 84.753906 53.753906 84.472656 C 53.90625 84.238281 54.082031 84.015625 54.273438 83.8125 C 54.371094 83.71875 54.484375 83.636719 54.605469 83.574219 C 54.820312 83.445312 55.066406 83.382812 55.3125 83.386719 L 44.101562 63.363281 L 32.410156 97.015625 Z M 62.175781 108.1875 C 61.796875 108.09375 61.371094 108.046875 60.996094 107.953125 L 60.996094 107.949219 C 60.15625 107.796875 59.316406 107.621094 58.484375 107.429688 L 57.207031 107.144531 C 55.453125 106.765625 53.847656 106.4375 52.328125 106.148438 C 51.996094 107.097656 51.667969 107.996094 51.289062 108.945312 L 51.292969 108.949219 C 50.972656 109.84375 50.625 110.726562 50.246094 111.597656 C 49.914062 112.449219 49.585938 113.25 49.253906 114.054688 C 48.941406 114.789062 48.609375 115.515625 48.257812 116.234375 C 47.707031 117.40625 47.09375 118.546875 46.414062 119.648438 C 46.226562 120.007812 45.988281 120.34375 45.707031 120.640625 L 81.113281 128.449219 L 69.328125 108.238281 L 69.140625 108.425781 L 69.136719 108.421875 C 69.054688 108.503906 68.957031 108.570312 68.855469 108.617188 C 68.429688 108.851562 67.621094 108.902344 66.386719 108.804688 C 65.375 108.695312 64.363281 108.550781 63.363281 108.375 C 62.9375 108.328125 62.558594 108.234375 62.175781 108.1875 Z M 57.730469 89.207031 C 57.636719 89.679688 57.496094 90.203125 57.351562 90.765625 L 57.066406 91.90625 C 56.734375 93.039062 56.398438 94.226562 55.972656 95.457031 L 55.976562 95.457031 C 55.6875 96.269531 55.417969 97.089844 55.171875 97.917969 C 54.886719 98.722656 54.648438 99.523438 54.367188 100.28125 C 55.644531 100.617188 56.875 100.902344 57.964844 101.183594 C 58.53125 101.324219 59.050781 101.46875 59.578125 101.5625 C 60.097656 101.703125 60.570312 101.796875 61.042969 101.941406 C 61.277344 101.992188 61.515625 102.035156 61.703125 102.128906 L 62.371094 102.269531 C 62.792969 102.363281 63.175781 102.457031 63.550781 102.601562 C 64.308594 102.796875 65.019531 102.984375 65.585938 103.171875 C 66.152344 103.3125 66.625 103.503906 67.054688 103.644531 L 58.054688 87.832031 L 58.058594 87.832031 C 57.917969 88.28125 57.804688 88.742188 57.730469 89.207031 Z M 52.003906 131.859375 C 52.949219 132.472656 53.945312 133.085938 55.03125 133.703125 C 57.964844 135.410156 60.757812 136.683594 63.269531 137.683594 C 63.976562 137.96875 64.6875 138.25 65.496094 138.535156 L 65.492188 138.53125 C 71.050781 140.410156 76.859375 141.433594 82.722656 141.5625 L 82.722656 132.238281 C 69.089844 129.257812 55.5 126.226562 41.867188 123.246094 L 41.867188 123.242188 C 44.933594 126.464844 48.328125 129.351562 52 131.855469 Z M 52.003906 131.859375 "/>
</g>
</svg>
