<?xml version="1.0" encoding="UTF-8"?>
<svg xmlns="http://www.w3.org/2000/svg" xmlns:xlink="http://www.w3.org/1999/xlink" width="168pt" height="168pt" viewBox="0 0 168 168" version="1.1">
<g id="surface971">
<path style=" stroke:none;fill-rule:nonzero;fill:rgb(20.392157%,20.392157%,20.392157%);fill-opacity:1;" d="M 168 84 C 168 130.390625 130.390625 168 84 168 C 37.609375 168 0 130.390625 0 84 C 0 37.609375 37.609375 0 84 0 C 130.390625 0 168 37.609375 168 84 "/>
<path style=" stroke:none;fill-rule:nonzero;fill:rgb(100%,100%,100%);fill-opacity:1;" d="M 125.5625 110.828125 C 127.46875 110.171875 128.695312 108.320312 128.558594 106.3125 L 128.558594 112.085938 C 128.570312 114.101562 127.320312 115.90625 125.433594 116.601562 L 85.597656 130.949219 C 84.589844 131.351562 83.472656 131.351562 82.46875 130.949219 L 42.628906 116.609375 C 40.730469 115.925781 39.476562 114.109375 39.507812 112.09375 L 39.507812 106.320312 C 39.507812 108.308594 40.742188 110.167969 42.632812 110.835938 L 82.601562 125.179688 L 82.597656 125.175781 C 83.601562 125.574219 84.71875 125.574219 85.722656 125.175781 Z M 125.5625 100.601562 C 127.445312 99.917969 128.660156 98.085938 128.558594 96.085938 L 128.558594 101.859375 C 128.570312 103.875 127.320312 105.679688 125.433594 106.375 L 85.597656 120.722656 C 84.589844 121.125 83.472656 121.125 82.46875 120.722656 L 42.628906 106.378906 C 40.730469 105.695312 39.476562 103.882812 39.507812 101.867188 L 39.507812 96.023438 C 39.507812 98.082031 40.742188 99.871094 42.632812 100.601562 L 82.601562 114.949219 L 82.597656 114.949219 C 83.601562 115.347656 84.71875 115.347656 85.722656 114.949219 Z M 125.5625 90.3125 L 125.5625 90.308594 C 127.4375 89.640625 128.667969 87.847656 128.625 85.859375 L 128.625 91.632812 C 128.636719 93.648438 127.386719 95.453125 125.496094 96.148438 L 85.660156 110.496094 C 84.65625 110.894531 83.539062 110.894531 82.535156 110.496094 L 42.628906 96.085938 C 40.730469 95.402344 39.476562 93.589844 39.507812 91.570312 L 39.507812 85.796875 C 39.507812 87.785156 40.742188 89.644531 42.632812 90.3125 L 82.601562 104.65625 L 82.597656 104.652344 C 83.601562 105.050781 84.71875 105.050781 85.722656 104.652344 Z M 39.375 55.976562 C 39.34375 53.957031 40.601562 52.144531 42.5 51.460938 L 82.40625 37.050781 L 82.402344 37.050781 C 83.40625 36.652344 84.523438 36.652344 85.527344 37.050781 L 125.433594 51.460938 C 127.332031 52.144531 128.585938 53.957031 128.558594 55.976562 L 128.558594 81.34375 C 128.570312 83.355469 127.320312 85.160156 125.433594 85.859375 L 85.464844 100.203125 C 84.460938 100.601562 83.34375 100.601562 82.339844 100.203125 L 42.496094 85.859375 L 42.5 85.859375 C 40.601562 85.175781 39.34375 83.359375 39.375 81.34375 Z M 39.375 55.976562 "/>
</g>
</svg>
