<?xml version="1.0" encoding="UTF-8"?>
<svg xmlns="http://www.w3.org/2000/svg" xmlns:xlink="http://www.w3.org/1999/xlink" width="168pt" height="168pt" viewBox="0 0 168 168" version="1.1">
<g id="surface2207">
<path style=" stroke:none;fill-rule:evenodd;fill:rgb(0%,38.039216%,100%);fill-opacity:1;" d="M 168 84 C 168 130.390625 130.390625 168 84 168 C 37.609375 168 0 130.390625 0 84 C 0 37.609375 37.609375 0 84 0 C 130.390625 0 168 37.609375 168 84 "/>
<path style=" stroke:none;fill-rule:nonzero;fill:rgb(100%,100%,100%);fill-opacity:1;" d="M 84.050781 31.5 L 136.5 84.734375 L 134.53125 86.519531 C 133.636719 87.367188 132.703125 88.171875 131.738281 88.933594 C 130.027344 90.304688 128.222656 91.667969 126.402344 92.882812 C 119.058594 97.855469 110.890625 101.484375 102.273438 103.601562 C 96.308594 105.070312 90.1875 105.804688 84.050781 105.804688 C 76.28125 105.804688 68.5625 104.648438 61.160156 102.289062 L 61.164062 102.289062 C 53.589844 99.914062 46.441406 96.34375 39.988281 91.722656 C 37.757812 90.085938 35.601562 88.351562 33.519531 86.523438 L 31.5 84.734375 L 37.25 78.894531 Z M 129.925781 86.46875 C 130.703125 85.839844 131.472656 85.207031 132.152344 84.527344 L 84 35.753906 L 35.851562 84.523438 L 36.832031 85.363281 C 38.4375 86.675781 40.039062 87.988281 41.699219 89.144531 C 54.039062 98.011719 68.859375 102.757812 84.050781 102.707031 C 89.96875 102.699219 95.859375 101.976562 101.601562 100.554688 C 109.878906 98.507812 117.730469 95.023438 124.796875 90.253906 C 126.570312 89.089844 128.28125 87.824219 129.925781 86.472656 Z M 51.019531 83.949219 C 61.15625 79.429688 72.125 77.070312 83.222656 77.011719 C 96.273438 77.011719 109.109375 80.476562 120.34375 87.101562 L 121.074219 87.523438 L 120.34375 87.996094 L 120.347656 87.996094 C 112.921875 92.761719 104.636719 96.027344 95.960938 97.613281 L 95.757812 97.664062 L 95.601562 97.558594 L 95.597656 97.5625 C 82.375 89.324219 67.113281 84.953125 51.535156 84.945312 L 48.691406 84.945312 Z M 96.375 94.460938 C 102.949219 93.199219 109.214844 90.945312 115.011719 87.683594 L 115.011719 87.679688 C 105.152344 82.652344 94.238281 80.042969 83.171875 80.058594 C 76.503906 80.058594 69.875 80.949219 63.449219 82.734375 C 75.105469 84.308594 86.308594 88.300781 96.378906 94.457031 Z M 113.722656 104.8125 L 113.71875 104.8125 C 111.382812 107.992188 108.894531 111.0625 106.265625 114.007812 L 84.050781 136.5 L 68.417969 120.683594 L 71.726562 120.472656 C 82.785156 119.785156 93.539062 116.566406 103.15625 111.0625 C 106.054688 109.644531 113.71875 104.808594 113.71875 104.808594 Z M 75.152344 123.207031 L 84.054688 132.242188 L 99.792969 116.265625 C 92.039062 119.980469 83.699219 122.328125 75.148438 123.207031 Z M 75.152344 123.207031 "/>
</g>
</svg>
