<?xml version="1.0" encoding="UTF-8"?>
<svg xmlns="http://www.w3.org/2000/svg" xmlns:xlink="http://www.w3.org/1999/xlink" width="168pt" height="168pt" viewBox="0 0 168 168" version="1.1">
<g id="surface1606">
<path style=" stroke:none;fill-rule:nonzero;fill:rgb(19.215686%,98.039216%,98.431373%);fill-opacity:1;" d="M 168 84 C 168 130.390625 130.390625 168 84 168 C 37.609375 168 0 130.390625 0 84 C 0 37.609375 37.609375 0 84 0 C 130.390625 0 168 37.609375 168 84 "/>
<path style=" stroke:none;fill-rule:evenodd;fill:rgb(100%,100%,100%);fill-opacity:1;" d="M 84 137.8125 L 70.875 111.886719 L 97.125 111.886719 Z M 84 137.8125 "/>
<path style=" stroke:none;fill-rule:evenodd;fill:rgb(100%,100%,100%);fill-opacity:1;" d="M 84 66.925781 L 60.53125 116.761719 C 59.753906 118.359375 59.351562 119.648438 57.644531 119.648438 L 42.140625 119.660156 C 39.917969 119.660156 38.691406 119.089844 39.773438 116.773438 L 77.679688 35.160156 C 78.460938 33.808594 78.945312 32.8125 80.652344 32.8125 L 87.359375 32.8125 C 89.066406 32.8125 89.546875 33.808594 90.324219 35.164062 L 128.230469 116.769531 C 129.3125 119.089844 128.082031 119.664062 125.863281 119.664062 L 110.359375 119.660156 C 108.652344 119.660156 108.25 118.363281 107.472656 116.765625 Z M 84 66.925781 "/>
</g>
</svg>
