<?xml version="1.0" encoding="UTF-8"?>
<svg xmlns="http://www.w3.org/2000/svg" xmlns:xlink="http://www.w3.org/1999/xlink" width="168pt" height="168pt" viewBox="0 0 168 168" version="1.1">
<g id="surface1496">
<path style=" stroke:none;fill-rule:evenodd;fill:rgb(20.392157%,43.529412%,80.784314%);fill-opacity:1;" d="M 168 84 C 168 130.390625 130.390625 168 84 168 C 37.609375 168 0 130.390625 0 84 C 0 37.609375 37.609375 0 84 0 C 130.390625 0 168 37.609375 168 84 "/>
<path style=" stroke:none;fill-rule:evenodd;fill:rgb(100%,100%,100%);fill-opacity:1;" d="M 105.839844 98.207031 L 110.859375 107.640625 C 113.714844 113.011719 114.320312 119.296875 112.539062 125.113281 C 110.761719 130.929688 106.746094 135.800781 101.378906 138.65625 L 100.726562 139.003906 C 95.355469 141.859375 89.070312 142.464844 83.25 140.6875 C 77.433594 138.910156 72.5625 134.894531 69.703125 129.523438 L 52.78125 97.699219 L 52.785156 97.695312 C 50.03125 92.523438 49.367188 86.492188 50.917969 80.84375 C 52.472656 75.195312 56.132812 70.355469 61.140625 67.316406 L 56.121094 57.882812 C 53.269531 52.511719 52.664062 46.226562 54.441406 40.410156 C 56.222656 34.589844 60.238281 29.71875 65.609375 26.863281 L 66.261719 26.515625 L 66.261719 26.519531 C 71.628906 23.664062 77.914062 23.058594 83.730469 24.835938 C 89.546875 26.613281 94.421875 30.628906 97.277344 36 L 114.199219 67.824219 C 116.949219 72.996094 117.617188 79.027344 116.0625 84.675781 C 114.511719 90.328125 110.855469 95.167969 105.84375 98.207031 Z M 105.839844 98.207031 L 93.9375 75.816406 C 91.082031 70.445312 86.210938 66.429688 80.394531 64.652344 C 74.578125 62.875 68.292969 63.480469 62.921875 66.332031 L 62.269531 66.671875 C 61.886719 66.882812 61.507812 67.09375 61.140625 67.3125 L 73.046875 89.703125 L 73.046875 89.707031 C 75.90625 95.078125 80.777344 99.09375 86.59375 100.871094 C 92.410156 102.648438 98.695312 102.042969 104.066406 99.1875 L 104.71875 98.847656 C 105.101562 98.636719 105.480469 98.425781 105.847656 98.207031 Z M 105.839844 98.207031 "/>
</g>
</svg>
