<?xml version="1.0" encoding="UTF-8"?>
<svg xmlns="http://www.w3.org/2000/svg" xmlns:xlink="http://www.w3.org/1999/xlink" width="168pt" height="168pt" viewBox="0 0 168 168" version="1.1">
<g id="surface1999">
<path style=" stroke:none;fill-rule:nonzero;fill:rgb(18.039216%,19.215686%,28.235294%);fill-opacity:1;" d="M 168 84 C 168 130.390625 130.390625 168 84 168 C 37.609375 168 0 130.390625 0 84 C 0 37.609375 37.609375 0 84 0 C 130.390625 0 168 37.609375 168 84 "/>
<path style=" stroke:none;fill-rule:nonzero;fill:rgb(100%,100%,100%);fill-opacity:1;" d="M 84.105469 29.03125 C 77.308594 29.03125 71.792969 53.691406 71.792969 84.105469 C 71.792969 114.519531 77.304688 139.179688 84.105469 139.179688 C 90.898438 139.179688 96.410156 114.519531 96.410156 84.105469 C 96.410156 53.691406 90.898438 29.03125 84.105469 29.03125 Z M 84.957031 136.0625 C 84.179688 137.101562 83.398438 136.324219 83.398438 136.324219 C 80.269531 132.691406 78.703125 125.957031 78.703125 125.957031 C 73.226562 108.332031 74.53125 70.496094 74.53125 70.496094 C 77.105469 40.460938 81.785156 33.363281 83.378906 31.789062 L 83.375 31.789062 C 83.710938 31.457031 84.238281 31.414062 84.625 31.6875 C 86.933594 33.332031 88.878906 40.175781 88.878906 40.175781 C 94.601562 61.429688 94.082031 81.378906 94.082031 81.378906 C 94.601562 98.746094 91.214844 118.179688 91.214844 118.179688 C 88.605469 132.953125 84.957031 136.0625 84.957031 136.0625 Z M 84.957031 136.0625 "/>
<path style=" stroke:none;fill-rule:nonzero;fill:rgb(100%,100%,100%);fill-opacity:1;" d="M 131.871094 56.699219 C 128.484375 50.796875 104.359375 58.289062 77.96875 73.425781 C 51.578125 88.5625 32.960938 105.609375 36.335938 111.507812 C 39.722656 117.410156 63.851562 109.917969 90.242188 94.78125 C 116.632812 79.644531 135.253906 62.59375 131.875 56.699219 Z M 39.453125 110.695312 C 38.160156 110.539062 38.457031 109.46875 38.457031 109.46875 C 40.042969 104.953125 45.105469 100.238281 45.105469 100.238281 C 57.667969 86.71875 91.144531 69.023438 91.144531 69.023438 C 118.476562 56.308594 126.964844 56.84375 129.117188 57.429688 L 129.113281 57.429688 C 129.574219 57.554688 129.871094 57.996094 129.820312 58.46875 C 129.558594 61.289062 124.570312 66.378906 124.570312 66.378906 C 109 81.925781 91.433594 91.410156 91.433594 91.410156 C 76.628906 100.503906 58.082031 107.226562 58.082031 107.226562 C 43.96875 112.308594 39.453125 110.691406 39.453125 110.691406 Z M 39.453125 110.695312 "/>
<path style=" stroke:none;fill-rule:nonzero;fill:rgb(100%,100%,100%);fill-opacity:1;" d="M 131.75 111.703125 C 135.164062 105.824219 116.59375 88.691406 90.285156 73.441406 C 63.980469 58.195312 39.863281 50.617188 36.457031 56.503906 C 33.042969 62.398438 51.617188 79.515625 77.933594 94.765625 C 104.25 110.011719 128.34375 117.59375 131.75 111.703125 Z M 38.71875 58.777344 C 38.210938 57.582031 39.273438 57.292969 39.273438 57.292969 C 43.984375 56.402344 50.597656 58.433594 50.597656 58.433594 C 68.589844 62.527344 100.671875 82.625 100.671875 82.625 C 125.375 99.90625 129.164062 107.527344 129.730469 109.683594 L 129.734375 109.683594 C 129.851562 110.140625 129.621094 110.617188 129.191406 110.8125 C 126.617188 111.992188 119.714844 110.234375 119.714844 110.234375 C 98.453125 104.53125 81.449219 94.089844 81.449219 94.089844 C 66.171875 85.847656 51.0625 73.167969 51.0625 73.167969 C 39.582031 63.496094 38.726562 58.78125 38.726562 58.78125 L 38.714844 58.777344 Z M 38.71875 58.777344 "/>
<path style=" stroke:none;fill-rule:nonzero;fill:rgb(100%,100%,100%);fill-opacity:1;" d="M 90.453125 83.972656 C 90.453125 87.550781 87.550781 90.453125 83.972656 90.453125 C 80.394531 90.453125 77.496094 87.550781 77.496094 83.972656 C 77.496094 80.394531 80.394531 77.496094 83.972656 77.496094 C 87.550781 77.496094 90.453125 80.394531 90.453125 83.972656 "/>
<path style=" stroke:none;fill-rule:nonzero;fill:rgb(100%,100%,100%);fill-opacity:1;" d="M 115.789062 59.09375 C 115.789062 66.09375 105.289062 66.09375 105.289062 59.09375 C 105.289062 52.09375 115.789062 52.09375 115.789062 59.09375 "/>
<path style=" stroke:none;fill-rule:nonzero;fill:rgb(100%,100%,100%);fill-opacity:1;" d="M 54.105469 72.3125 C 54.105469 79.3125 43.605469 79.3125 43.605469 72.3125 C 43.605469 65.3125 54.105469 65.3125 54.105469 72.3125 "/>
<path style=" stroke:none;fill-rule:nonzero;fill:rgb(100%,100%,100%);fill-opacity:1;" d="M 81.578125 119.992188 C 81.578125 126.992188 71.078125 126.992188 71.078125 119.992188 C 71.078125 112.992188 81.578125 112.992188 81.578125 119.992188 "/>
</g>
</svg>
