<?xml version="1.0" encoding="UTF-8"?>
<svg xmlns="http://www.w3.org/2000/svg" xmlns:xlink="http://www.w3.org/1999/xlink" width="168pt" height="168pt" viewBox="0 0 168 168" version="1.1">
<g id="surface796">
<path style=" stroke:none;fill-rule:nonzero;fill:rgb(20.392157%,19.215686%,54.117647%);fill-opacity:1;" d="M 168 84 C 168 130.390625 130.390625 168 84 168 C 37.609375 168 0 130.390625 0 84 C 0 37.609375 37.609375 0 84 0 C 130.390625 0 168 37.609375 168 84 "/>
<path style=" stroke:none;fill-rule:nonzero;fill:rgb(100%,100%,100%);fill-opacity:1;" d="M 56.984375 69.636719 L 75.9375 79.714844 L 86.015625 74.675781 L 61.921875 61.625 L 61.921875 38.640625 L 108.242188 62.6875 L 118.320312 57.648438 L 58.996094 26.546875 L 59 26.542969 C 57.625 25.820312 55.96875 25.871094 54.640625 26.675781 C 53.308594 27.480469 52.5 28.921875 52.5 30.476562 L 52.5 62.328125 C 52.515625 65.410156 54.242188 68.230469 56.984375 69.636719 Z M 129.207031 64.292969 C 127.867188 62.988281 125.847656 62.667969 124.167969 63.488281 L 56.984375 98.363281 C 54.226562 99.78125 52.496094 102.621094 52.5 105.722656 L 52.5 137.523438 C 52.5 139.078125 53.308594 140.519531 54.640625 141.324219 C 55.96875 142.128906 57.625 142.179688 59 141.457031 L 126.03125 106.679688 C 128.828125 105.230469 130.566406 102.320312 130.519531 99.171875 L 130.519531 67.417969 L 130.519531 67.421875 C 130.519531 66.242188 130.046875 65.117188 129.207031 64.292969 Z M 121.144531 98.617188 L 61.925781 129.359375 L 61.925781 106.375 L 121.144531 75.632812 Z M 121.144531 98.617188 "/>
</g>
</svg>
