<?xml version="1.0" encoding="UTF-8"?>
<svg xmlns="http://www.w3.org/2000/svg" xmlns:xlink="http://www.w3.org/1999/xlink" width="168pt" height="168pt" viewBox="0 0 168 168" version="1.1">
<g id="surface1111">
<path style=" stroke:none;fill-rule:nonzero;fill:rgb(90.588235%,33.72549%,80%);fill-opacity:1;" d="M 168 84 C 168 130.390625 130.390625 168 84 168 C 37.609375 168 0 130.390625 0 84 C 0 37.609375 37.609375 0 84 0 C 130.390625 0 168 37.609375 168 84 "/>
<path style=" stroke:none;fill-rule:nonzero;fill:rgb(100%,100%,100%);fill-opacity:1;" d="M 67.042969 86.796875 C 67.542969 87.976562 68.039062 89.148438 68.566406 90.3125 C 69.042969 91.421875 69.554688 92.515625 70.042969 93.621094 L 71.167969 96.183594 C 71.554688 97.058594 71.964844 97.9375 72.363281 98.808594 L 73.34375 101.011719 L 74.84375 104.394531 C 75.726562 106.335938 76.578125 108.289062 77.441406 110.238281 C 78.492188 112.542969 79.46875 114.875 80.539062 117.167969 C 81.839844 119.789062 82.785156 122.527344 83.96875 125.191406 C 85.148438 121.988281 86.441406 118.890625 87.871094 115.789062 C 88.757812 113.835938 89.605469 111.867188 90.496094 109.910156 C 91.195312 108.367188 91.855469 106.796875 92.542969 105.238281 C 93.226562 103.707031 93.933594 102.175781 94.589844 100.640625 L 95.273438 99.164062 C 95.65625 98.304688 96.035156 97.441406 96.421875 96.585938 C 96.808594 95.710938 97.1875 94.828125 97.582031 93.957031 C 98.1875 92.628906 98.773438 91.289062 99.367188 89.953125 L 99.367188 89.949219 C 99.84375 88.910156 100.292969 87.863281 100.722656 86.804688 C 89.5 86.789062 78.269531 86.789062 67.042969 86.804688 Z M 107.5625 71.886719 L 60.375 71.886719 L 65.300781 83.714844 L 102.140625 83.714844 L 107.558594 71.882812 Z M 142.433594 60.835938 C 143.589844 63.632812 144.503906 66.523438 145.226562 69.457031 C 141.988281 68.921875 138.707031 68.679688 135.421875 68.726562 C 132.917969 68.683594 130.371094 68.960938 127.882812 68.726562 L 127.671875 67.871094 C 128.511719 66.730469 129.597656 65.867188 130.789062 65.109375 C 134.285156 62.90625 138.308594 61.308594 142.429688 60.835938 Z M 62.550781 26.710938 C 69.648438 28.984375 77.136719 30.226562 84.148438 32.726562 C 85.144531 33.199219 86.300781 33.277344 86.34375 34.605469 C 80.5 35.535156 74.808594 35.5625 68.925781 36.011719 C 62.632812 36.433594 56.515625 37.050781 50.199219 36.210938 C 48.230469 36.054688 46.234375 35.570312 44.265625 35.632812 L 44.261719 35.636719 C 49.050781 31.804688 54.355469 28.660156 60.019531 26.300781 C 60.945312 26.117188 61.683594 26.464844 62.550781 26.710938 Z M 110.484375 90.257812 C 110.046875 91.238281 109.601562 92.210938 109.15625 93.183594 C 108.664062 94.277344 108.160156 95.378906 107.65625 96.464844 C 107.183594 97.5 106.730469 98.539062 106.257812 99.566406 C 105.449219 101.308594 104.640625 103.050781 103.859375 104.8125 C 103.035156 106.601562 102.230469 108.402344 101.390625 110.1875 L 98.371094 116.792969 C 97.613281 118.410156 96.890625 120.039062 96.148438 121.660156 C 94.925781 124.40625 93.644531 127.125 92.394531 129.859375 C 91.230469 132.550781 89.96875 135.203125 88.761719 137.871094 C 87.375 140.917969 85.988281 143.964844 84.570312 147 C 84.015625 147 83.457031 147 82.902344 146.988281 C 81.335938 143.507812 79.722656 140.046875 78.171875 136.5625 C 77.070312 134.085938 75.914062 131.632812 74.8125 129.160156 C 73.808594 126.902344 72.765625 124.667969 71.757812 122.410156 L 69.316406 117.035156 C 68.214844 114.503906 67.023438 112.011719 65.898438 109.484375 C 64.902344 107.257812 63.878906 105.042969 62.890625 102.8125 C 62.496094 101.945312 62.109375 101.078125 61.710938 100.21875 C 61.023438 98.644531 60.292969 97.105469 59.585938 95.539062 C 59.082031 94.414062 58.558594 93.300781 58.054688 92.171875 L 56.921875 89.652344 C 56.5 88.691406 56.066406 87.742188 55.609375 86.796875 C 44.074219 86.769531 32.539062 86.824219 21.007812 86.777344 L 21.007812 83.574219 C 32.042969 83.554688 43.074219 83.601562 54.105469 83.554688 L 54.097656 83.554688 C 53.738281 82.621094 53.351562 81.699219 52.941406 80.785156 C 52.285156 79.398438 51.679688 78.003906 51.046875 76.613281 C 50.484375 75.386719 49.945312 74.144531 49.367188 72.921875 C 48.578125 71.230469 47.839844 69.515625 47.046875 67.820312 C 46.101562 65.785156 45.230469 63.703125 44.25 61.683594 C 39 62.535156 34.097656 64.519531 29.917969 67.800781 L 29.828125 67.863281 C 28.027344 69.160156 26.425781 70.855469 24.882812 72.460938 L 24.878906 72.460938 C 23.636719 73.804688 22.5 75.242188 21.476562 76.761719 C 22.648438 66.941406 26.15625 57.546875 31.703125 49.359375 C 34.085938 51.433594 36.988281 52.773438 40.207031 52.605469 C 38.847656 49.59375 37.402344 46.613281 36.136719 43.566406 C 38.589844 40.679688 41.339844 38.058594 44.257812 35.640625 C 46.382812 40.769531 48.742188 45.808594 50.960938 50.898438 C 51.25 51.695312 51.96875 51.613281 52.660156 51.871094 C 54.460938 52.285156 55.726562 53.339844 57.355469 54.140625 C 59.207031 55.089844 61.382812 55.574219 63.429688 55.941406 C 64.289062 56.113281 65.164062 56.214844 66.039062 56.308594 L 66.265625 56.832031 C 62.339844 57.898438 58.421875 57.960938 54.394531 58.148438 C 54.730469 59.507812 55.308594 60.757812 55.894531 62.023438 C 74.523438 62.058594 93.148438 62.003906 111.777344 62.050781 C 113.003906 59.609375 114.035156 57.074219 115.214844 54.613281 C 111.777344 55.804688 108.347656 56.929688 104.746094 57.539062 C 104.152344 57.613281 103.527344 57.613281 102.929688 57.613281 C 103.773438 57.089844 104.652344 56.632812 105.550781 56.195312 C 109.472656 54.34375 113.300781 52.207031 116.855469 49.726562 C 117.882812 49.027344 118.125 48.015625 118.628906 46.953125 C 120.328125 43.183594 121.996094 39.394531 123.707031 35.632812 C 128.648438 39.660156 133 44.382812 136.515625 49.6875 C 134.207031 48.730469 131.9375 48.515625 129.453125 48.738281 L 125.296875 57.835938 C 124.484375 59.65625 123.621094 61.457031 122.808594 63.28125 L 120.226562 68.933594 C 119.613281 70.308594 118.941406 71.664062 118.375 73.054688 C 117.671875 74.382812 117.113281 75.785156 116.464844 77.144531 C 115.835938 78.503906 115.257812 79.878906 114.613281 81.238281 C 114.234375 82 113.878906 82.777344 113.527344 83.554688 C 124.683594 83.605469 135.839844 83.558594 146.996094 83.582031 C 147.011719 84.660156 146.992188 85.730469 146.953125 86.796875 C 135.351562 86.816406 123.742188 86.785156 112.140625 86.816406 C 111.53125 87.933594 111.007812 89.109375 110.476562 90.265625 Z M 110.484375 90.257812 "/>
</g>
</svg>
