<?xml version="1.0" encoding="UTF-8"?>
<svg xmlns="http://www.w3.org/2000/svg" xmlns:xlink="http://www.w3.org/1999/xlink" width="168pt" height="168pt" viewBox="0 0 168 168" version="1.1">
<g id="surface246">
<path style=" stroke:none;fill-rule:evenodd;fill:rgb(98.039216%,70.588235%,19.215686%);fill-opacity:1;" d="M 168 84 C 168 130.390625 130.390625 168 84 168 C 37.609375 168 0 130.390625 0 84 C 0 37.609375 37.609375 0 84 0 C 130.390625 0 168 37.609375 168 84 "/>
<path style=" stroke:none;fill-rule:evenodd;fill:rgb(100%,100%,100%);fill-opacity:1;" d="M 128.625 101.152344 L 106.652344 87.96875 L 109.171875 77.527344 L 118.554688 83.066406 L 118.554688 63.996094 L 88.417969 46.03125 L 88.417969 87.507812 L 81.25 91.472656 L 120.824219 114.941406 L 84 136.5 L 39.375 110.367188 L 39.375 58.101562 L 84 31.5 L 128.625 58.101562 Z M 49.445312 63.996094 L 49.445312 98.003906 L 78.414062 81.203125 L 78.414062 46.726562 L 49.445312 63.992188 Z M 70.953125 97.300781 L 54.480469 107.375 L 84 124.660156 L 100.667969 114.894531 L 70.953125 97.296875 Z M 70.953125 97.300781 "/>
</g>
</svg>
