<?xml version="1.0" encoding="UTF-8"?>
<svg xmlns="http://www.w3.org/2000/svg" xmlns:xlink="http://www.w3.org/1999/xlink" width="168pt" height="168pt" viewBox="0 0 168 168" version="1.1">
<g id="surface2217">
<path style=" stroke:none;fill-rule:nonzero;fill:rgb(90.980392%,25.490196%,25.882353%);fill-opacity:1;" d="M 168 84 C 168 130.390625 130.390625 168 84 168 C 37.609375 168 0 130.390625 0 84 C 0 37.609375 37.609375 0 84 0 C 130.390625 0 168 37.609375 168 84 "/>
<path style=" stroke:none;fill-rule:evenodd;fill:rgb(100%,100%,100%);fill-opacity:1;" d="M 60.46875 119.4375 L 44.574219 119.4375 C 41.234375 119.4375 39.585938 119.4375 38.578125 118.792969 C 37.5 118.089844 36.820312 116.914062 36.75 115.632812 C 36.6875 114.445312 37.511719 112.992188 39.164062 110.09375 L 78.390625 40.832031 C 80.058594 37.890625 80.910156 36.421875 81.972656 35.875 C 83.125 35.289062 84.488281 35.289062 85.636719 35.875 C 86.703125 36.421875 87.546875 37.890625 89.21875 40.832031 L 97.28125 54.933594 L 97.324219 55.007812 C 99.125 58.15625 100.039062 59.765625 100.4375 61.445312 L 100.4375 61.441406 C 100.882812 63.28125 100.882812 65.199219 100.4375 67.039062 C 100.039062 68.734375 99.128906 70.347656 97.304688 73.550781 L 76.691406 110.039062 L 76.640625 110.128906 C 74.824219 113.308594 73.910156 114.921875 72.628906 116.140625 L 72.628906 116.136719 C 71.25 117.457031 69.574219 118.425781 67.746094 118.96875 C 66.070312 119.4375 64.203125 119.4375 60.464844 119.4375 Z M 100.59375 119.4375 L 123.359375 119.4375 C 126.71875 119.4375 128.410156 119.4375 129.417969 118.777344 C 130.503906 118.070312 131.183594 116.882812 131.246094 115.589844 C 131.304688 114.441406 130.5 113.050781 128.921875 110.3125 L 128.753906 110.027344 L 117.351562 90.488281 L 117.21875 90.269531 C 115.617188 87.554688 114.804688 86.183594 113.769531 85.65625 L 113.765625 85.652344 C 112.625 85.070312 111.273438 85.070312 110.128906 85.652344 C 109.078125 86.199219 108.238281 87.632812 106.570312 90.507812 L 95.203125 110.046875 L 95.167969 110.113281 C 93.503906 112.992188 92.667969 114.421875 92.730469 115.605469 L 92.730469 115.609375 C 92.800781 116.898438 93.480469 118.082031 94.558594 118.792969 C 95.546875 119.4375 97.234375 119.4375 100.597656 119.4375 Z M 100.59375 119.4375 "/>
</g>
</svg>
