<?xml version="1.0" encoding="UTF-8"?>
<svg xmlns="http://www.w3.org/2000/svg" xmlns:xlink="http://www.w3.org/1999/xlink" width="168pt" height="168pt" viewBox="0 0 168 168" version="1.1">
<g id="surface251">
<path style=" stroke:none;fill-rule:nonzero;fill:rgb(20%,33.333333%,70.980392%);fill-opacity:1;" d="M 168 84 C 168 130.390625 130.390625 168 84 168 C 37.609375 168 0 130.390625 0 84 C 0 37.609375 37.609375 0 84 0 C 130.390625 0 168 37.609375 168 84 "/>
<path style=" stroke:none;fill-rule:nonzero;fill:rgb(100%,100%,100%);fill-opacity:1;" d="M 84 21 C 49.207031 21 21 49.207031 21 84 C 21 118.792969 49.207031 147 84 147 C 118.792969 147 147 118.792969 147 84 C 147 67.292969 140.363281 51.265625 128.546875 39.453125 C 116.734375 27.636719 100.707031 21 84 21 Z M 84 145.792969 C 49.875 145.792969 22.207031 118.125 22.207031 84 C 22.207031 49.875 49.875 22.207031 84 22.207031 C 118.125 22.207031 145.792969 49.875 145.792969 84 C 145.792969 100.386719 139.28125 116.105469 127.695312 127.695312 C 116.105469 139.28125 100.386719 145.792969 84 145.792969 Z M 84 145.792969 "/>
<path style=" stroke:none;fill-rule:evenodd;fill:rgb(100%,100%,100%);fill-opacity:1;" d="M 101.273438 70.875 L 100.960938 69.71875 L 100.804688 69.089844 L 100.59375 68.566406 L 100.4375 67.988281 L 100.226562 67.464844 L 99.964844 66.886719 L 99.753906 66.363281 L 99.492188 65.890625 L 99.230469 65.367188 L 98.96875 64.894531 L 98.652344 64.421875 L 98.390625 64 L 98.074219 63.527344 L 97.757812 63.160156 L 97.390625 62.738281 L 96.757812 62.003906 L 95.65625 61.054688 L 95.289062 60.792969 L 94.867188 60.53125 L 94.5 60.320312 L 94.078125 60.058594 L 93.710938 59.902344 L 93.289062 59.691406 L 92.445312 59.378906 L 91.972656 59.273438 L 91.128906 59.0625 L 90.183594 58.960938 L 89.761719 58.910156 L 88.34375 58.910156 L 87.398438 59.011719 L 86.875 59.0625 L 85.457031 59.378906 L 84.933594 59.535156 L 84.460938 59.691406 L 83.9375 59.847656 L 83.414062 60.058594 L 82.941406 60.269531 L 82.417969 60.53125 L 81.945312 60.742188 L 81.421875 61.003906 L 80.898438 61.320312 L 80.425781 61.582031 L 79.902344 61.898438 L 79.378906 62.265625 L 78.90625 62.582031 L 78.382812 62.949219 L 77.859375 63.371094 L 77.335938 63.738281 L 76.863281 64.160156 L 76.339844 64.582031 L 75.867188 65.054688 L 74.820312 66 L 74.347656 66.523438 L 73.824219 67.046875 L 72.878906 68.09375 L 72.355469 68.671875 L 71.410156 69.828125 L 70.464844 71.085938 L 69.992188 71.769531 L 69.363281 72.660156 L 68.734375 73.605469 L 68.105469 74.601562 L 67.527344 75.546875 L 66.949219 76.597656 L 66.371094 77.59375 L 65.847656 78.589844 L 65.324219 79.640625 L 64.378906 81.742188 L 63.957031 82.792969 L 63.589844 83.632812 L 101.335938 71.296875 Z M 67.199219 89.300781 L 100.640625 89.039062 L 101.109375 86.835938 L 101.265625 86.046875 L 101.371094 85.3125 L 101.527344 84.578125 L 101.632812 83.84375 L 101.683594 83.109375 L 101.789062 82.375 L 101.839844 81.640625 L 101.890625 80.957031 L 101.992188 79.488281 L 101.992188 77.964844 Z M 67.199219 89.300781 "/>
<path style=" stroke:none;fill-rule:nonzero;fill:rgb(100%,100%,100%);fill-opacity:1;" d="M 84 23.941406 C 50.832031 23.941406 23.941406 50.832031 23.941406 84 C 23.941406 117.167969 50.832031 144.058594 84 144.058594 C 117.167969 144.058594 144.058594 117.167969 144.058594 84 C 144.058594 68.070312 137.730469 52.792969 126.46875 41.53125 C 115.207031 30.269531 99.929688 23.941406 84 23.941406 Z M 118.019531 88.832031 L 116.96875 95.027344 L 107.570312 95.027344 L 107.253906 96.078125 L 106.097656 99.226562 L 105.46875 100.800781 L 104.996094 102.375 L 104.3125 103.898438 L 102.84375 106.945312 L 101.265625 109.882812 L 99.585938 112.71875 L 98.695312 114.136719 L 97.644531 115.5 L 96.699219 116.867188 L 91.816406 108.675781 L 92.761719 107.308594 L 94.871094 103.890625 L 95.238281 103.207031 L 96.707031 100.269531 L 98.289062 96.597656 L 98.550781 95.863281 L 98.550781 95.234375 L 60.382812 95.550781 L 60.382812 105.261719 L 50.617188 112.035156 L 50.609375 95.550781 L 47.773438 95.550781 L 46.722656 95.917969 L 44.9375 89.671875 L 53.757812 86.785156 L 53.757812 86.101562 L 54.125 85 L 54.648438 84.003906 L 55.015625 82.953125 L 56.703125 78.75 L 58.121094 75.597656 L 58.59375 74.601562 L 60.6875 70.617188 L 61.265625 69.621094 L 62.421875 67.730469 L 63 66.734375 L 63.578125 65.789062 L 64.835938 64.007812 L 65.414062 63.011719 L 66.042969 62.121094 L 66.671875 61.28125 L 67.355469 60.441406 L 68.246094 59.707031 L 70.296875 57.339844 L 72.5 55.136719 L 74.703125 53.085938 L 75.28125 52.507812 L 76.070312 51.878906 L 78.4375 50.144531 L 79.226562 49.621094 L 80.804688 48.675781 L 82.382812 47.832031 L 83.066406 47.253906 L 84.011719 46.992188 L 85.480469 46.359375 L 86.214844 46.097656 L 98.867188 46.097656 L 100.023438 46.621094 L 101.179688 47.253906 L 102.226562 47.988281 L 103.273438 48.832031 L 104.21875 49.777344 L 105.164062 50.824219 L 106.429688 52.558594 L 106.851562 53.1875 L 107.21875 53.816406 L 107.953125 55.183594 L 108.902344 57.386719 L 109.21875 58.175781 L 109.480469 58.964844 L 109.460938 68.25 L 114.710938 66.570312 L 116.496094 72.816406 L 109.777344 75.019531 L 109.777344 83.578125 L 109.515625 85.152344 L 109.199219 86.726562 L 108.832031 88.300781 L 108.832031 88.984375 L 118.019531 88.828125 Z M 118.019531 88.832031 "/>
</g>
</svg>
