<?xml version="1.0" encoding="UTF-8"?>
<svg xmlns="http://www.w3.org/2000/svg" xmlns:xlink="http://www.w3.org/1999/xlink" width="168pt" height="168pt" viewBox="0 0 168 168" version="1.1">
<g id="surface791">
<path style=" stroke:none;fill-rule:nonzero;fill:rgb(94.509804%,62.352941%,7.45098%);fill-opacity:1;" d="M 168 84 C 168 130.390625 130.390625 168 84 168 C 37.609375 168 0 130.390625 0 84 C 0 37.609375 37.609375 0 84 0 C 130.390625 0 168 37.609375 168 84 "/>
<path style=" stroke:none;fill-rule:nonzero;fill:rgb(100%,100%,100%);fill-opacity:1;" d="M 119.542969 73.238281 L 145.109375 73.238281 L 147 62.738281 L 122.273438 62.738281 C 117.398438 62.890625 112.671875 64.457031 108.675781 67.253906 C 107.207031 62.003906 92.925781 62.738281 92.925781 62.738281 L 94.816406 52.238281 L 89.25 52.238281 L 87.359375 62.738281 L 81.53125 62.738281 L 83.160156 52.238281 L 77.121094 52.238281 L 74.917969 62.738281 L 68.671875 62.738281 L 65.46875 79.117188 L 61.214844 63.050781 L 47.25 63.050781 L 21 101.636719 L 42.628906 101.636719 L 44.832031 91.398438 L 40.425781 91.402344 L 53.027344 72.976562 L 57.753906 91.507812 L 53.027344 91.507812 L 50.980469 101.640625 L 67.046875 101.640625 L 65.734375 108.675781 L 72.035156 108.675781 L 73.503906 101.640625 L 78.753906 101.640625 L 77.441406 108.675781 L 84 108.675781 L 85.3125 101.640625 L 93.503906 101.640625 C 97.269531 101.214844 100.753906 99.441406 103.320312 96.652344 C 106.378906 99.75 110.519531 101.535156 114.871094 101.640625 L 139.597656 101.640625 L 141.226562 91.402344 L 119.019531 91.402344 C 103.742188 91.140625 110.253906 73.132812 119.542969 73.238281 Z M 91.769531 91.140625 L 75.390625 91.140625 L 76.703125 86.152344 L 92.453125 86.152344 C 96.441406 86.414062 95.128906 91.140625 91.769531 91.140625 Z M 94.238281 77.699219 L 77.859375 77.699219 L 79.171875 72.710938 L 94.921875 72.710938 C 98.910156 72.972656 97.441406 77.910156 94.238281 77.910156 Z M 94.238281 77.699219 "/>
</g>
</svg>
