<?xml version="1.0" encoding="UTF-8"?>
<svg xmlns="http://www.w3.org/2000/svg" xmlns:xlink="http://www.w3.org/1999/xlink" width="168pt" height="168pt" viewBox="0 0 168 168" version="1.1">
<g id="surface1781">
<path style=" stroke:none;fill-rule:nonzero;fill:rgb(11.764706%,11.764706%,11.764706%);fill-opacity:1;" d="M 168 84 C 168 130.390625 130.390625 168 84 168 C 37.609375 168 0 130.390625 0 84 C 0 37.609375 37.609375 0 84 0 C 130.390625 0 168 37.609375 168 84 "/>
<path style=" stroke:none;fill-rule:nonzero;fill:rgb(100%,100%,100%);fill-opacity:1;" d="M 84.484375 121.777344 C 55.21875 121.777344 31.5 113.328125 31.5 101.996094 C 31.5 96.085938 37.957031 90.761719 48.300781 87.003906 C 56.375 92.1875 69.914062 94.84375 85.269531 94.84375 C 100.261719 94.84375 113.515625 91.605469 121.652344 86.644531 C 131.410156 90.355469 137.46875 95.539062 137.46875 101.25 C 137.46875 112.59375 113.75 121.78125 84.480469 121.78125 Z M 84.484375 121.777344 "/>
<path style=" stroke:none;fill-rule:nonzero;fill:rgb(100%,100%,100%);fill-opacity:1;" d="M 84.796875 92.296875 C 62.609375 92.296875 44.625 85.339844 44.625 76.757812 C 44.625 72 50.167969 67.738281 58.863281 64.898438 C 65.070312 68.136719 74.367188 70.207031 84.796875 70.207031 C 95.230469 70.207031 104.527344 68.136719 110.730469 64.90625 C 119.441406 67.757812 124.96875 72.003906 124.96875 76.761719 C 124.984375 85.34375 106.992188 92.300781 84.796875 92.300781 Z M 84.796875 92.296875 "/>
<path style=" stroke:none;fill-rule:nonzero;fill:rgb(100%,100%,100%);fill-opacity:1;" d="M 84.652344 67.621094 C 67.5 67.621094 53.59375 61.878906 53.59375 54.8125 C 53.59375 47.75 67.507812 42.003906 84.652344 42.003906 C 101.800781 42.003906 115.710938 47.753906 115.710938 54.8125 C 115.710938 61.878906 101.796875 67.621094 84.652344 67.621094 Z M 84.652344 67.621094 "/>
</g>
</svg>
