<?xml version="1.0" encoding="UTF-8"?>
<svg xmlns="http://www.w3.org/2000/svg" xmlns:xlink="http://www.w3.org/1999/xlink" width="168pt" height="168pt" viewBox="0 0 168 168" version="1.1">
<g id="surface951">
<path style=" stroke:none;fill-rule:nonzero;fill:rgb(31.764706%,41.568627%,100%);fill-opacity:1;" d="M 168 84 C 168 130.390625 130.390625 168 84 168 C 37.609375 168 0 130.390625 0 84 C 0 37.609375 37.609375 0 84 0 C 130.390625 0 168 37.609375 168 84 "/>
<path style=" stroke:none;fill-rule:nonzero;fill:rgb(100%,100%,100%);fill-opacity:1;" d="M 96 65.515625 L 107.550781 72.113281 L 107.550781 39.113281 L 84.449219 27.5625 L 48.5625 47.773438 L 48.5625 119.546875 L 84.453125 140.175781 L 119.925781 119.140625 L 119.925781 83.667969 L 85.683594 63.039062 L 74.132812 68.8125 L 108.375 89.023438 L 108.785156 113.363281 L 84.453125 126.976562 L 59.699219 112.949219 L 59.699219 53.550781 L 84.453125 39.9375 L 96.003906 46.128906 L 96.003906 65.515625 Z M 96 65.515625 "/>
<path style=" stroke:none;fill-rule:nonzero;fill:rgb(100%,100%,100%);fill-opacity:1;" d="M 83.210938 85.3125 L 91.050781 81.1875 L 99.714844 86.554688 L 74.136719 100.992188 L 74.136719 71.292969 L 83.210938 76.648438 "/>
</g>
</svg>
