<?xml version="1.0" encoding="UTF-8"?>
<svg xmlns="http://www.w3.org/2000/svg" xmlns:xlink="http://www.w3.org/1999/xlink" width="168pt" height="168pt" viewBox="0 0 168 168" version="1.1">
<g id="surface2237">
<path style=" stroke:none;fill-rule:evenodd;fill:rgb(38.823529%,33.72549%,67.058824%);fill-opacity:1;" d="M 168 84 C 168 130.390625 130.390625 168 84 168 C 37.609375 168 0 130.390625 0 84 C 0 37.609375 37.609375 0 84 0 C 130.390625 0 168 37.609375 168 84 "/>
<path style=" stroke:none;fill-rule:nonzero;fill:rgb(100%,100%,100%);fill-opacity:1;" d="M 119.617188 83.863281 C 119.921875 83.523438 120.261719 83.179688 120.605469 82.835938 C 121.707031 81.648438 122.914062 80.382812 124.054688 79.160156 L 124.050781 79.160156 C 128.617188 74.402344 131.167969 68.066406 131.175781 61.472656 C 131.175781 61.015625 131.25 59.136719 131.25 58.867188 C 130.71875 43.789062 118.023438 31.5 103.019531 31.5 L 55.769531 31.5 L 55.769531 50.5625 L 36.75 50.5625 L 36.75 136.5 L 103.777344 136.5 C 118.671875 136.5 131.25 123.253906 131.25 107.5625 C 131.285156 96.34375 124.351562 88.421875 119.617188 83.863281 Z M 65.242188 60.132812 L 102.867188 60.167969 L 79.226562 84.132812 L 102.605469 107.863281 L 65.242188 107.863281 Z M 103.777344 126.890625 L 46.222656 126.890625 L 46.222656 60.097656 L 55.777344 60.097656 L 55.777344 117.402344 L 102.605469 117.402344 C 106.46875 117.402344 109.917969 115.066406 111.394531 111.46875 C 112.878906 107.890625 112.074219 103.769531 109.347656 101.015625 L 92.640625 84.09375 L 109.613281 66.90625 C 112.34375 64.148438 113.136719 60.054688 111.660156 56.457031 L 111.664062 56.457031 C 110.210938 52.875 106.734375 50.527344 102.867188 50.527344 L 65.277344 50.527344 L 65.277344 41.035156 L 103.054688 41.035156 C 113.0625 41.035156 121.472656 49.1875 121.8125 59.101562 C 121.8125 59.523438 121.734375 61.171875 121.734375 61.207031 L 121.734375 61.394531 L 121.738281 61.394531 C 121.738281 65.550781 120.121094 69.542969 117.234375 72.535156 C 116.058594 73.761719 114.84375 75.058594 113.75 76.210938 C 111.890625 78.164062 110.300781 79.847656 109.539062 80.617188 L 106.125 83.984375 L 109.5 87.398438 C 109.957031 87.855469 110.523438 88.390625 111.207031 89.042969 C 115.144531 92.71875 121.78125 98.839844 121.78125 107.492188 C 121.816406 117.828125 113.40625 126.902344 103.777344 126.902344 Z M 103.777344 126.890625 "/>
</g>
</svg>
