<?xml version="1.0" encoding="UTF-8"?>
<svg xmlns="http://www.w3.org/2000/svg" xmlns:xlink="http://www.w3.org/1999/xlink" width="168pt" height="168pt" viewBox="0 0 168 168" version="1.1">
<g id="surface701">
<path style=" stroke:none;fill-rule:nonzero;fill:rgb(0%,29.019608%,70.980392%);fill-opacity:1;" d="M 168 84 C 168 130.390625 130.390625 168 84 168 C 37.609375 168 0 130.390625 0 84 C 0 37.609375 37.609375 0 84 0 C 130.390625 0 168 37.609375 168 84 "/>
<path style=" stroke:none;fill-rule:nonzero;fill:rgb(100%,100%,100%);fill-opacity:1;" d="M 65.535156 40.914062 C 51.472656 46.210938 40.890625 58.050781 37.191406 72.613281 C 33.496094 87.179688 37.148438 102.632812 46.980469 113.996094 C 56.8125 125.359375 71.578125 131.203125 86.523438 129.640625 C 101.46875 128.078125 114.707031 119.308594 121.972656 106.15625 L 81.746094 83.921875 L 98.070312 40.949219 C 87.59375 36.972656 76.027344 36.960938 65.539062 40.914062 Z M 68.402344 49.171875 C 76.894531 45.96875 86.261719 45.980469 94.746094 49.203125 L 81.53125 83.996094 L 114.101562 102.003906 C 108.21875 112.648438 97.5 119.746094 85.398438 121.011719 C 73.296875 122.277344 61.34375 117.546875 53.386719 108.34375 C 45.425781 99.144531 42.464844 86.632812 45.457031 74.839844 C 48.453125 63.046875 57.019531 53.464844 68.402344 49.171875 Z M 83.816406 26.144531 C 90.070312 26.390625 96.238281 27.652344 102.085938 29.871094 L 81.53125 83.996094 L 132.199219 112.003906 C 125.523438 124.085938 114.746094 133.382812 101.816406 138.222656 C 88.886719 143.058594 74.65625 143.117188 61.6875 138.386719 C 48.71875 133.65625 37.867188 124.449219 31.089844 112.421875 C 24.3125 100.394531 22.054688 86.339844 24.722656 72.796875 C 27.394531 59.253906 34.816406 47.109375 45.652344 38.554688 C 56.488281 30 70.023438 25.597656 83.816406 26.144531 Z M 123.34375 46.15625 C 124.730469 46.15625 126.019531 46.320312 127.207031 46.65625 C 130.703125 47.617188 133.066406 49.789062 134.292969 53.171875 C 135.042969 55.226562 135.207031 57.242188 134.785156 59.21875 C 134.40625 61.183594 133.5 62.945312 132.058594 64.519531 C 134.757812 64.398438 137.113281 65.003906 139.144531 66.316406 C 141.15625 67.585938 142.640625 69.535156 143.589844 72.148438 C 144.9375 75.855469 144.535156 79.242188 142.367188 82.308594 C 140.226562 85.320312 136.398438 87.835938 130.878906 89.84375 L 109.019531 97.804688 L 93.632812 55.527344 L 114.285156 48.007812 C 117.667969 46.78125 120.683594 46.160156 123.335938 46.160156 Z M 120.140625 54.902344 C 118.878906 54.902344 117.425781 55.207031 115.765625 55.8125 L 106.042969 59.351562 L 109.664062 69.320312 L 119.390625 65.777344 C 121.804688 64.902344 123.484375 63.8125 124.421875 62.511719 C 125.367188 61.210938 125.535156 59.734375 124.929688 58.085938 C 124.332031 56.4375 123.261719 55.433594 121.714844 55.082031 L 121.722656 55.082031 C 121.203125 54.957031 120.671875 54.898438 120.140625 54.90625 Z M 128.339844 71.292969 C 127.015625 71.308594 125.460938 71.640625 123.679688 72.289062 L 112.265625 76.441406 L 116.066406 86.890625 L 127.480469 82.738281 C 130.054688 81.796875 131.839844 80.675781 132.816406 79.355469 C 133.839844 78.027344 134.023438 76.476562 133.382812 74.703125 C 132.542969 72.410156 130.863281 71.269531 128.34375 71.289062 Z M 128.339844 71.292969 "/>
</g>
</svg>
