<?xml version="1.0" encoding="UTF-8"?>
<svg xmlns="http://www.w3.org/2000/svg" xmlns:xlink="http://www.w3.org/1999/xlink" width="168pt" height="168pt" viewBox="0 0 168 168" version="1.1">
<g id="surface1236">
<path style=" stroke:none;fill-rule:nonzero;fill:rgb(96.862745%,57.647059%,10.980392%);fill-opacity:1;" d="M 168 84 C 168 130.390625 130.390625 168 84 168 C 37.609375 168 0 130.390625 0 84 C 0 37.609375 37.609375 0 84 0 C 130.390625 0 168 37.609375 168 84 "/>
<path style=" stroke:none;fill-rule:nonzero;fill:rgb(99.607843%,99.215686%,98.823529%);fill-opacity:1;" d="M 38.59375 101.429688 C 38.550781 85.617188 49.6875 72.34375 65.617188 69.359375 C 66.980469 69.105469 67.371094 68.652344 67.332031 67.316406 C 67.246094 63.765625 67.246094 60.214844 67.332031 56.664062 C 67.359375 55.386719 66.953125 54.628906 65.855469 53.914062 C 62.027344 51.421875 60.464844 46.882812 61.867188 42.804688 C 63.25 38.558594 67.320312 35.777344 71.777344 36.03125 C 75.820312 36.21875 79.519531 39.226562 80.613281 43.222656 C 81.714844 47.234375 80.183594 51.597656 76.625 53.859375 C 75.363281 54.65625 74.972656 55.460938 75.011719 56.886719 C 75.117188 60.4375 75.078125 63.984375 75.03125 67.539062 C 75.015625 68.566406 75.167969 69.121094 76.390625 69.277344 C 78.714844 69.585938 80.988281 70.210938 83.140625 71.136719 C 83.949219 71.484375 84.386719 71.273438 84.925781 70.675781 C 92.460938 62.375 100.019531 54.089844 107.59375 45.828125 C 108.375 44.976562 108.148438 44.394531 107.792969 43.519531 C 105.945312 38.960938 107.027344 34.042969 110.511719 30.789062 C 113.691406 27.824219 118.953125 26.976562 122.753906 28.820312 C 127.226562 30.988281 129.683594 35.148438 129.378906 40.027344 C 128.96875 46.558594 122.617188 51.476562 116.167969 50.140625 C 114.859375 49.867188 114.105469 50.183594 113.257812 51.117188 L 113.269531 51.113281 C 106.257812 58.863281 99.214844 66.589844 92.144531 74.289062 C 91.289062 75.21875 91.167969 75.71875 92.234375 76.640625 C 103.804688 86.730469 106.957031 101.933594 100.363281 115.785156 C 99.863281 116.835938 99.976562 117.433594 100.785156 118.199219 C 102.710938 120.03125 104.574219 121.925781 106.421875 123.84375 C 107.15625 124.605469 107.84375 124.804688 108.9375 124.527344 C 113.191406 123.457031 117.601562 125.367188 119.722656 129.058594 L 119.714844 129.054688 C 121.875 132.804688 121.316406 137.527344 118.34375 140.671875 C 115.433594 143.765625 110.683594 144.660156 106.992188 142.8125 C 102.960938 140.796875 100.734375 136.484375 101.691406 132.058594 C 101.96875 130.789062 101.675781 130.0625 100.824219 129.261719 L 100.828125 129.265625 C 99.261719 127.785156 97.742188 126.253906 96.273438 124.675781 C 95.417969 123.75 94.886719 123.734375 93.910156 124.65625 C 83.941406 133.949219 72.378906 136.351562 59.621094 131.816406 C 46.9375 127.316406 38.625 114.984375 38.589844 101.433594 "/>
</g>
</svg>
