<?xml version="1.0" encoding="UTF-8"?>
<svg xmlns="http://www.w3.org/2000/svg" xmlns:xlink="http://www.w3.org/1999/xlink" width="168pt" height="168pt" viewBox="0 0 168 168" version="1.1">
<g id="surface881">
<path style=" stroke:none;fill-rule:nonzero;fill:rgb(98.823529%,76.470588%,22.352941%);fill-opacity:1;" d="M 168 84 C 168 130.390625 130.390625 168 84 168 C 37.609375 168 0 130.390625 0 84 C 0 37.609375 37.609375 0 84 0 C 130.390625 0 168 37.609375 168 84 "/>
<path style=" stroke:none;fill-rule:nonzero;fill:rgb(100%,100%,100%);fill-opacity:1;" d="M 118.570312 50.894531 L 118.972656 51.792969 L 102.9375 59.152344 L 110.152344 83.039062 L 133.886719 71.054688 L 134.203125 71.679688 L 134.296875 71.5625 L 118.917969 51.054688 Z M 117.703125 50.492188 L 103.144531 43.71875 L 65.496094 43.71875 L 49.945312 50.859375 L 66.117188 57.664062 L 102.078125 57.664062 Z M 48.644531 52.171875 L 34.085938 71.078125 L 57.785156 83.046875 L 65.03125 59.066406 Z M 66.703125 59.378906 L 59.222656 84.160156 L 83.964844 127.902344 L 108.714844 84.160156 L 101.226562 59.378906 Z M 132.390625 73.726562 L 110.25 84.914062 L 88.171875 123.9375 Z M 79.644531 123.726562 L 57.6875 84.914062 L 35.660156 73.789062 Z M 33.757812 71.625 L 33.929688 71.273438 L 33.703125 71.566406 Z M 48.410156 49.675781 L 65.125 42 L 103.511719 42 L 120.019531 49.675781 L 136.5 71.652344 L 84 131.25 L 31.5 71.640625 Z M 96.714844 77.878906 C 97.023438 81.066406 95.707031 82.980469 93.597656 84.070312 C 97.066406 84.910156 99.242188 87 98.8125 91.683594 C 98.289062 97.488281 94.007812 99.042969 87.898438 99.402344 L 87.898438 105.507812 L 84.265625 105.507812 L 84.265625 99.484375 C 83.320312 99.484375 82.359375 99.472656 81.363281 99.453125 L 81.363281 105.507812 L 77.734375 105.507812 L 77.738281 99.382812 C 76.886719 99.378906 76.023438 99.363281 75.140625 99.363281 L 70.414062 99.363281 L 71.132812 94.96875 C 71.132812 94.96875 73.820312 95.011719 73.773438 94.96875 C 74.800781 94.96875 75.074219 94.21875 75.136719 93.75 L 75.136719 84.105469 L 75.527344 84.105469 C 75.398438 84.085938 75.269531 84.078125 75.136719 84.078125 L 75.136719 77.195312 C 75 76.445312 74.523438 75.582031 73.046875 75.578125 C 73.09375 75.527344 70.410156 75.578125 70.410156 75.578125 L 70.410156 71.652344 L 75.417969 71.652344 L 75.417969 71.671875 C 76.175781 71.671875 76.941406 71.65625 77.726562 71.640625 L 77.726562 65.597656 L 81.363281 65.597656 L 81.363281 71.523438 C 82.328125 71.503906 83.304688 71.480469 84.261719 71.480469 L 84.261719 65.601562 L 87.894531 65.597656 L 87.894531 71.640625 C 92.589844 72.0625 96.300781 73.519531 96.714844 77.878906 Z M 91.632812 90.953125 C 91.632812 86.1875 83.910156 86.90625 81.449219 86.90625 L 81.449219 95.007812 C 83.910156 95.007812 91.632812 95.523438 91.632812 90.953125 Z M 89.941406 79.523438 C 89.941406 75.1875 83.496094 75.847656 81.445312 75.847656 L 81.445312 83.199219 C 83.492188 83.199219 89.941406 83.683594 89.941406 79.523438 Z M 89.941406 79.523438 "/>
</g>
</svg>
