<?xml version="1.0" encoding="UTF-8"?>
<svg xmlns="http://www.w3.org/2000/svg" xmlns:xlink="http://www.w3.org/1999/xlink" width="168pt" height="168pt" viewBox="0 0 168 168" version="1.1">
<g id="surface771">
<path style=" stroke:none;fill-rule:evenodd;fill:rgb(55.294118%,76.470588%,31.764706%);fill-opacity:1;" d="M 168 84 C 168 130.390625 130.390625 168 84 168 C 37.609375 168 0 130.390625 0 84 C 0 37.609375 37.609375 0 84 0 C 130.390625 0 168 37.609375 168 84 "/>
<path style=" stroke:none;fill-rule:nonzero;fill:rgb(100%,100%,100%);fill-opacity:1;" d="M 111.335938 55.304688 C 107.261719 44.953125 97.046875 44.015625 85.148438 46.328125 L 80.910156 31.558594 L 71.921875 34.136719 L 76.046875 48.523438 C 73.683594 49.195312 71.28125 49.941406 68.890625 50.675781 L 64.742188 36.195312 L 55.757812 38.769531 L 59.984375 53.539062 C 58.050781 54.136719 56.152344 54.726562 54.289062 55.261719 L 54.273438 55.210938 L 41.871094 58.765625 L 44.628906 68.375 C 44.628906 68.375 51.234375 66.339844 51.15625 66.496094 C 54.800781 65.453125 56.589844 67.226562 57.457031 68.953125 L 62.285156 85.773438 C 62.53125 85.707031 62.863281 85.621094 63.25 85.5625 L 62.300781 85.835938 L 69.058594 109.410156 C 69.226562 110.601562 69.078125 112.625 66.539062 113.359375 C 66.679688 113.425781 59.996094 115.226562 59.996094 115.226562 L 61.292969 126.476562 L 72.988281 123.117188 C 75.167969 122.503906 77.320312 121.925781 79.425781 121.332031 L 83.714844 136.269531 L 92.691406 133.695312 L 88.453125 118.917969 L 88.460938 118.90625 C 90.871094 118.269531 93.273438 117.601562 95.664062 116.914062 L 99.875 131.628906 L 108.867188 129.050781 L 104.59375 114.140625 C 119.457031 108.9375 128.941406 102.097656 126.1875 87.523438 C 123.972656 75.796875 117.136719 72.234375 107.964844 72.632812 C 112.417969 68.484375 114.332031 62.878906 111.335938 55.308594 Z M 107.921875 90.847656 C 111.125 102.015625 91.648438 106.226562 85.558594 107.976562 L 79.882812 88.183594 C 85.972656 86.433594 104.578125 79.207031 107.917969 90.851562 Z M 95.730469 64.125 C 98.640625 74.285156 82.359375 77.671875 77.28125 79.125 L 72.136719 61.175781 C 77.207031 59.722656 92.691406 53.535156 95.730469 64.132812 Z M 95.730469 64.125 "/>
</g>
</svg>
