<?xml version="1.0" encoding="UTF-8"?>
<svg xmlns="http://www.w3.org/2000/svg" xmlns:xlink="http://www.w3.org/1999/xlink" width="168pt" height="168pt" viewBox="0 0 168 168" version="1.1">
<g id="surface2380">
<path style=" stroke:none;fill-rule:nonzero;fill:rgb(24.705882%,26.27451%,67.843137%);fill-opacity:1;" d="M 168 84 C 168 130.390625 130.390625 168 84 168 C 37.609375 168 0 130.390625 0 84 C 0 37.609375 37.609375 0 84 0 C 130.390625 0 168 37.609375 168 84 "/>
<path style=" stroke:none;fill-rule:nonzero;fill:rgb(100%,100%,100%);fill-opacity:1;" d="M 62.683594 39.039062 C 60.25 39.179688 58.351562 41.195312 58.351562 43.636719 C 58.351562 46.074219 60.25 48.089844 62.683594 48.230469 C 65.117188 48.089844 67.019531 46.074219 67.019531 43.636719 C 67.019531 41.195312 65.117188 39.179688 62.683594 39.039062 M 83.945312 26.28125 L 83.949219 26.28125 C 81.492188 26.398438 79.5625 28.421875 79.5625 30.878906 C 79.5625 33.339844 81.492188 35.363281 83.949219 35.480469 C 86.402344 35.363281 88.332031 33.339844 88.332031 30.878906 C 88.332031 28.421875 86.402344 26.398438 83.949219 26.28125 M 83.949219 77.304688 C 81.511719 77.449219 79.613281 79.464844 79.613281 81.902344 C 79.613281 84.339844 81.511719 86.355469 83.949219 86.5 C 86.382812 86.355469 88.28125 84.339844 88.28125 81.902344 C 88.28125 79.464844 86.382812 77.449219 83.949219 77.304688 M 105.207031 64.546875 L 105.203125 64.546875 C 102.664062 64.550781 100.605469 66.613281 100.609375 69.15625 C 100.609375 71.695312 102.675781 73.753906 105.214844 73.753906 C 107.757812 73.75 109.816406 71.6875 109.8125 69.144531 C 109.808594 66.605469 107.746094 64.546875 105.203125 64.546875 M 126.460938 51.792969 L 126.460938 51.796875 C 125.214844 51.753906 124.003906 52.222656 123.109375 53.089844 C 122.210938 53.960938 121.707031 55.15625 121.707031 56.402344 C 121.710938 57.652344 122.21875 58.84375 123.117188 59.710938 C 124.011719 60.578125 125.226562 61.042969 126.472656 61 C 128.953125 60.914062 130.917969 58.875 130.917969 56.394531 C 130.914062 53.910156 128.941406 51.878906 126.460938 51.796875 M 62.683594 90.0625 C 60.25 90.207031 58.351562 92.222656 58.351562 94.660156 C 58.351562 97.097656 60.25 99.113281 62.683594 99.257812 C 65.117188 99.113281 67.019531 97.097656 67.019531 94.660156 C 67.019531 92.222656 65.117188 90.207031 62.683594 90.0625 M 41.421875 51.796875 C 38.882812 51.800781 36.824219 53.859375 36.828125 56.402344 C 36.832031 58.941406 38.894531 60.996094 41.433594 60.996094 C 43.972656 60.992188 46.03125 58.929688 46.027344 56.390625 C 46.023438 53.851562 43.960938 51.792969 41.421875 51.796875 M 41.421875 102.816406 C 38.882812 102.820312 36.824219 104.882812 36.824219 107.421875 C 36.828125 109.964844 38.890625 112.023438 41.433594 112.019531 C 43.972656 112.015625 46.03125 109.953125 46.03125 107.414062 C 46.027344 104.871094 43.964844 102.8125 41.421875 102.816406 M 41.421875 77.308594 L 41.421875 77.304688 C 38.988281 77.449219 37.085938 79.464844 37.085938 81.902344 C 37.085938 84.339844 38.988281 86.355469 41.421875 86.5 C 43.855469 86.355469 45.757812 84.339844 45.757812 81.902344 C 45.757812 79.464844 43.855469 77.449219 41.421875 77.304688 M 83.945312 51.796875 L 83.949219 51.796875 C 82.699219 51.753906 81.488281 52.21875 80.589844 53.089844 C 79.695312 53.957031 79.1875 55.148438 79.1875 56.398438 C 79.1875 57.644531 79.695312 58.839844 80.589844 59.707031 C 81.488281 60.574219 82.699219 61.042969 83.949219 61 C 86.429688 60.914062 88.394531 58.878906 88.394531 56.398438 C 88.394531 53.914062 86.429688 51.878906 83.949219 51.796875 M 105.207031 39.039062 L 105.203125 39.039062 C 103.957031 39 102.746094 39.464844 101.851562 40.335938 C 100.953125 41.203125 100.449219 42.398438 100.449219 43.644531 C 100.453125 44.894531 100.960938 46.089844 101.859375 46.953125 C 102.757812 47.820312 103.96875 48.285156 105.214844 48.242188 C 107.695312 48.15625 109.660156 46.117188 109.660156 43.636719 C 109.65625 41.152344 107.6875 39.121094 105.203125 39.039062 M 105.203125 90.0625 C 102.664062 90.066406 100.605469 92.125 100.609375 94.664062 C 100.609375 97.207031 102.671875 99.261719 105.210938 99.261719 C 107.75 99.261719 109.808594 97.199219 109.804688 94.660156 C 109.804688 92.121094 107.746094 90.0625 105.203125 90.0625 M 126.460938 77.304688 C 124.027344 77.449219 122.125 79.464844 122.125 81.902344 C 122.125 84.339844 124.027344 86.355469 126.460938 86.5 C 128.894531 86.355469 130.796875 84.339844 130.796875 81.902344 C 130.796875 79.464844 128.894531 77.449219 126.460938 77.304688 M 105.203125 115.570312 L 105.203125 115.574219 C 103.984375 115.574219 102.8125 116.058594 101.953125 116.921875 C 101.089844 117.785156 100.605469 118.957031 100.605469 120.179688 C 100.605469 122.71875 102.667969 124.777344 105.210938 124.777344 C 107.75 124.773438 109.808594 122.714844 109.808594 120.171875 C 109.808594 117.632812 107.746094 115.570312 105.203125 115.574219 M 126.460938 102.816406 C 124.007812 102.933594 122.078125 104.957031 122.078125 107.414062 C 122.078125 109.871094 124.007812 111.898438 126.460938 112.015625 C 128.917969 111.898438 130.847656 109.871094 130.847656 107.414062 C 130.847656 104.957031 128.917969 102.933594 126.460938 102.816406 M 83.945312 128.332031 L 83.949219 128.332031 C 81.511719 128.472656 79.613281 130.488281 79.613281 132.925781 C 79.613281 135.367188 81.511719 137.382812 83.949219 137.523438 C 86.484375 137.519531 88.539062 135.464844 88.546875 132.929688 C 88.542969 130.390625 86.484375 128.332031 83.949219 128.332031 M 83.949219 102.816406 C 81.40625 102.816406 79.34375 104.878906 79.347656 107.421875 C 79.347656 109.964844 81.410156 112.027344 83.953125 112.023438 C 86.496094 112.023438 88.554688 109.960938 88.554688 107.417969 C 88.554688 104.875 86.492188 102.816406 83.949219 102.816406 M 62.6875 64.550781 L 62.683594 64.546875 C 60.25 64.691406 58.351562 66.707031 58.351562 69.144531 C 58.351562 71.582031 60.25 73.597656 62.683594 73.742188 C 65.101562 73.578125 66.976562 71.570312 66.976562 69.148438 C 66.976562 66.726562 65.101562 64.71875 62.683594 64.554688 M 62.683594 115.574219 C 60.25 115.714844 58.351562 117.730469 58.351562 120.167969 C 58.351562 122.609375 60.25 124.625 62.683594 124.765625 C 65.117188 124.625 67.019531 122.609375 67.019531 120.167969 C 67.019531 117.730469 65.117188 115.714844 62.683594 115.574219 "/>
</g>
</svg>
