<?xml version="1.0" encoding="UTF-8"?>
<svg xmlns="http://www.w3.org/2000/svg" xmlns:xlink="http://www.w3.org/1999/xlink" width="168pt" height="168pt" viewBox="0 0 168 168" version="1.1">
<g id="surface1791">
<path style=" stroke:none;fill-rule:nonzero;fill:rgb(94.117647%,25.098039%,52.54902%);fill-opacity:1;" d="M 167.988281 83.996094 C 167.988281 130.382812 130.382812 167.988281 83.996094 167.988281 C 37.605469 167.988281 0 130.382812 0 83.996094 C 0 37.605469 37.605469 0 83.996094 0 C 130.382812 0 167.988281 37.605469 167.988281 83.996094 "/>
<path style=" stroke:none;fill-rule:nonzero;fill:rgb(100%,100%,100%);fill-opacity:1;" d="M 123.042969 87.957031 C 119.734375 84.304688 114.980469 82.035156 108.761719 81.152344 L 108.761719 81.019531 C 114.207031 80.136719 118.484375 77.90625 121.394531 74.335938 L 121.394531 74.339844 C 124.347656 70.800781 125.949219 66.328125 125.921875 61.71875 C 125.921875 54.046875 123.453125 48.835938 118.339844 44.734375 C 113.226562 40.640625 105.550781 39.289062 95.152344 39.289062 L 55.878906 39.289062 L 55.878906 75.84375 L 33.320312 75.847656 L 33.320312 89.847656 L 94.886719 89.847656 C 99.734375 89.847656 103.371094 90.1875 105.773438 92.125 C 108.179688 94.0625 109.40625 96.566406 109.40625 100.269531 C 109.40625 103.972656 108.195312 107.132812 105.773438 109.117188 C 103.359375 111.097656 99.714844 112.402344 94.886719 112.402344 L 73.761719 112.402344 L 73.761719 101.515625 L 55.875 101.515625 L 55.875 126.40625 L 96.441406 126.40625 C 106.757812 126.40625 114.644531 123.714844 120.113281 119.527344 C 125.578125 115.34375 128.144531 109.164062 128.144531 101.578125 L 128.148438 101.578125 C 128.214844 96.558594 126.394531 91.695312 123.042969 87.957031 Z M 92.628906 75.808594 L 73.761719 75.808594 L 73.761719 53.253906 L 92.628906 53.253906 C 102.332031 53.253906 107.171875 57.039062 107.171875 64.53125 C 107.171875 72.023438 102.332031 75.808594 92.628906 75.808594 Z M 92.628906 75.808594 "/>
</g>
</svg>
