<?xml version="1.0" encoding="UTF-8"?>
<svg xmlns="http://www.w3.org/2000/svg" xmlns:xlink="http://www.w3.org/1999/xlink" width="168pt" height="168pt" viewBox="0 0 168 168" version="1.1">
<g id="surface361">
<path style=" stroke:none;fill-rule:evenodd;fill:rgb(17.254902%,46.27451%,71.764706%);fill-opacity:1;" d="M 168 84 C 168 130.390625 130.390625 168 84 168 C 37.609375 168 0 130.390625 0 84 C 0 37.609375 37.609375 0 84 0 C 130.390625 0 168 37.609375 168 84 "/>
<path style=" stroke:none;fill-rule:nonzero;fill:rgb(100%,100%,100%);fill-opacity:1;" d="M 74.140625 109.335938 L 66.234375 104.882812 C 64.238281 107.585938 60.996094 109.34375 57.320312 109.34375 C 53.644531 109.34375 50.390625 107.578125 48.402344 104.867188 L 45.835938 106.320312 L 45.832031 106.324219 C 46.0625 106.871094 46.179688 107.460938 46.179688 108.054688 C 46.164062 109.289062 45.660156 110.46875 44.773438 111.332031 C 43.890625 112.195312 42.699219 112.667969 41.464844 112.65625 C 38.859375 112.65625 36.75 110.597656 36.75 108.058594 C 36.75 105.519531 38.859375 103.453125 41.464844 103.453125 C 42.980469 103.453125 44.324219 104.152344 45.191406 105.238281 L 47.710938 103.808594 C 46.820312 102.234375 46.351562 100.453125 46.351562 98.640625 C 46.351562 92.867188 51.035156 88.160156 56.894531 87.941406 L 56.894531 79.78125 C 51.1875 79.5625 46.636719 74.976562 46.636719 69.355469 C 46.636719 67.570312 47.097656 65.878906 47.914062 64.410156 L 45.238281 62.917969 L 45.234375 62.921875 C 44.332031 64.085938 42.9375 64.765625 41.464844 64.757812 C 38.859375 64.757812 36.75 62.695312 36.75 60.152344 C 36.75 57.613281 38.859375 55.554688 41.464844 55.554688 C 44.070312 55.554688 46.179688 57.613281 46.179688 60.152344 C 46.179688 60.742188 46.0625 61.308594 45.859375 61.820312 L 48.589844 63.34375 C 50.523438 60.667969 53.714844 58.921875 57.320312 58.921875 C 61.003906 58.921875 64.25 60.738281 66.171875 63.503906 L 74.21875 59.046875 C 73.484375 57.617188 73.0625 56 73.0625 54.296875 C 73.0625 48.667969 77.566406 44.070312 83.246094 43.746094 L 83.246094 40.660156 L 83.25 40.660156 C 80.941406 40.375 79.203125 38.425781 79.179688 36.097656 C 79.179688 33.558594 81.289062 31.5 83.894531 31.5 C 86.5 31.5 88.609375 33.558594 88.609375 36.097656 C 88.609375 38.429688 86.835938 40.351562 84.535156 40.660156 L 84.535156 43.746094 C 90.214844 44.070312 94.71875 48.671875 94.71875 54.296875 C 94.71875 56.007812 94.296875 57.628906 93.558594 59.0625 L 101.589844 63.582031 L 101.59375 63.589844 C 103.597656 60.59375 106.96875 58.804688 110.570312 58.820312 C 114.292969 58.820312 117.5625 60.671875 119.480469 63.488281 L 122.132812 61.804688 L 122.128906 61.804688 C 121.925781 61.277344 121.820312 60.71875 121.820312 60.15625 C 121.820312 57.617188 123.929688 55.558594 126.535156 55.558594 C 129.140625 55.558594 131.25 57.617188 131.25 60.15625 C 131.25 62.695312 129.140625 64.761719 126.535156 64.761719 L 126.535156 64.757812 C 125.054688 64.765625 123.65625 64.078125 122.753906 62.90625 L 120.128906 64.574219 C 120.847656 65.980469 121.257812 67.566406 121.257812 69.253906 C 121.257812 74.980469 116.53125 79.632812 110.679688 79.6875 L 110.679688 88.183594 C 116.613281 88.234375 121.398438 92.949219 121.398438 98.75 C 121.398438 100.507812 120.957031 102.167969 120.175781 103.632812 L 122.875 105.15625 L 122.875 105.152344 C 123.78125 104.070312 125.125 103.445312 126.535156 103.453125 C 129.140625 103.453125 131.25 105.515625 131.25 108.058594 C 131.25 110.597656 129.140625 112.65625 126.535156 112.65625 C 125.300781 112.667969 124.109375 112.195312 123.226562 111.332031 C 122.339844 110.46875 121.835938 109.289062 121.820312 108.054688 C 121.820312 107.425781 121.953125 106.800781 122.210938 106.222656 L 119.519531 104.699219 C 117.570312 107.480469 114.289062 109.3125 110.574219 109.3125 C 106.894531 109.3125 103.644531 107.515625 101.6875 104.777344 L 93.632812 109.308594 C 94.507812 110.855469 95.007812 112.640625 95.007812 114.539062 C 95.007812 120.246094 90.492188 124.921875 84.753906 125.355469 L 84.753906 127.371094 L 84.75 127.371094 C 86.964844 127.746094 88.589844 129.65625 88.609375 131.902344 C 88.59375 133.136719 88.089844 134.316406 87.203125 135.175781 C 86.320312 136.039062 85.128906 136.515625 83.894531 136.5 C 82.660156 136.515625 81.46875 136.039062 80.585938 135.175781 C 79.699219 134.316406 79.195312 133.136719 79.179688 131.902344 C 79.179688 129.496094 81.058594 127.527344 83.464844 127.320312 L 83.464844 125.378906 C 77.53125 125.160156 72.785156 120.390625 72.785156 114.542969 C 72.785156 112.652344 73.273438 110.882812 74.140625 109.339844 Z M 74.824219 108.269531 C 76.9375 105.378906 80.3125 103.675781 83.894531 103.691406 C 87.621094 103.691406 90.929688 105.492188 92.945312 108.25 L 101.007812 103.707031 L 101.011719 103.707031 C 100.179688 102.1875 99.742188 100.480469 99.746094 98.746094 C 99.746094 93.296875 103.96875 88.8125 109.394531 88.234375 L 109.394531 79.625 C 104.042969 79.046875 99.886719 74.628906 99.886719 69.25 C 99.886719 67.613281 100.269531 66.058594 100.964844 64.683594 L 92.910156 60.148438 C 90.96875 62.992188 87.660156 64.867188 83.894531 64.867188 C 80.125 64.867188 76.808594 62.988281 74.863281 60.140625 L 66.832031 64.585938 C 67.582031 66.015625 68.007812 67.632812 68.007812 69.351562 C 68.007812 74.832031 63.683594 79.328125 58.179688 79.746094 L 58.179688 87.960938 C 63.832031 88.382812 68.292969 93 68.292969 98.632812 C 68.292969 100.511719 67.792969 102.277344 66.921875 103.816406 Z M 57.320312 104.246094 C 60.496094 104.246094 63.070312 101.738281 63.070312 98.640625 C 63.070312 95.542969 60.496094 93.035156 57.320312 93.035156 C 54.148438 93.035156 51.578125 95.542969 51.578125 98.640625 C 51.578125 101.738281 54.152344 104.246094 57.320312 104.246094 Z M 57.320312 74.820312 C 60.417969 74.820312 62.921875 72.375 62.921875 69.359375 C 62.921875 66.347656 60.414062 63.890625 57.320312 63.890625 C 54.226562 63.890625 51.722656 66.335938 51.722656 69.355469 C 51.722656 72.375 54.226562 74.820312 57.320312 74.820312 Z M 83.894531 59.832031 C 87.023438 59.832031 89.566406 57.355469 89.566406 54.296875 C 89.566406 51.234375 87.027344 48.757812 83.894531 48.757812 C 80.761719 48.757812 78.222656 51.234375 78.222656 54.296875 C 78.222656 57.351562 80.757812 59.832031 83.894531 59.832031 Z M 110.570312 74.714844 C 113.667969 74.714844 116.171875 72.269531 116.171875 69.253906 C 116.171875 66.230469 113.664062 63.785156 110.570312 63.785156 C 107.476562 63.785156 104.972656 66.230469 104.972656 69.25 C 104.972656 72.269531 107.476562 74.714844 110.570312 74.714844 Z M 110.570312 104.277344 C 113.703125 104.277344 116.242188 101.800781 116.242188 98.742188 C 116.242188 95.679688 113.707031 93.203125 110.570312 93.203125 C 107.441406 93.203125 104.898438 95.679688 104.898438 98.742188 C 104.898438 101.796875 107.4375 104.277344 110.570312 104.277344 Z M 83.894531 120.226562 C 87.109375 120.226562 89.710938 117.679688 89.710938 114.546875 C 89.710938 111.414062 87.105469 108.867188 83.894531 108.867188 C 80.675781 108.867188 78.074219 111.40625 78.074219 114.546875 C 78.074219 117.6875 80.679688 120.226562 83.894531 120.226562 Z M 83.894531 99.332031 C 75.222656 99.332031 68.191406 92.46875 68.191406 84.007812 C 68.191406 75.542969 75.222656 68.679688 83.890625 68.679688 C 92.570312 68.679688 99.597656 75.546875 99.597656 84.007812 C 99.597656 92.472656 92.5625 99.335938 83.894531 99.335938 Z M 83.894531 90.011719 C 87.292969 90.011719 90.046875 87.324219 90.046875 84.003906 C 90.046875 80.6875 87.289062 77.996094 83.894531 77.996094 C 80.492188 77.996094 77.734375 80.683594 77.734375 84.003906 C 77.734375 87.320312 80.492188 90.011719 83.894531 90.011719 Z M 83.894531 90.011719 "/>
</g>
</svg>
