<?xml version="1.0" encoding="UTF-8"?>
<svg xmlns="http://www.w3.org/2000/svg" xmlns:xlink="http://www.w3.org/1999/xlink" width="168pt" height="168pt" viewBox="0 0 168 168" version="1.1">
<g id="surface1096">
<path style=" stroke:none;fill-rule:nonzero;fill:rgb(25.098039%,25.098039%,25.098039%);fill-opacity:1;" d="M 168 84 C 168 130.390625 130.390625 168 84 168 C 37.609375 168 0 130.390625 0 84 C 0 37.609375 37.609375 0 84 0 C 130.390625 0 168 37.609375 168 84 "/>
<path style=" stroke:none;fill-rule:nonzero;fill:rgb(100%,100%,100%);fill-opacity:1;" d="M 84 141.75 C 52.105469 141.75 26.25 115.894531 26.25 84 C 26.25 52.105469 52.105469 26.25 84 26.25 C 115.894531 26.25 141.75 52.105469 141.75 84 C 141.75 115.894531 115.894531 141.75 84 141.75 Z M 84 135.964844 C 112.695312 135.964844 135.964844 112.695312 135.964844 84 C 135.964844 55.304688 112.695312 32.035156 84 32.035156 C 55.304688 32.035156 32.035156 55.304688 32.035156 84 C 32.035156 112.695312 55.304688 135.964844 84 135.964844 Z M 115.726562 63.628906 C 116.59375 79.054688 102.339844 83.128906 102.339844 83.128906 C 118.628906 85.453125 117.757812 99.425781 117.757812 99.425781 C 117.757812 122.117188 92.441406 123.003906 92.441406 123.003906 L 56.9375 123.003906 L 56.9375 45.003906 L 88.953125 45.003906 C 115.726562 46.167969 115.726562 63.632812 115.726562 63.632812 Z M 75.269531 58.972656 L 75.269531 77.882812 L 88.078125 77.882812 C 88.078125 77.882812 97.097656 77.59375 97.675781 70.316406 L 97.675781 65.660156 C 97.675781 65.660156 97.675781 59.554688 88.945312 58.972656 Z M 99.417969 101.761719 L 99.417969 97.101562 C 99.417969 97.101562 99.417969 90.984375 90.691406 90.402344 L 75.261719 90.402344 L 75.261719 109.328125 L 89.820312 109.328125 C 89.820312 109.328125 98.839844 109.039062 99.421875 101.757812 Z M 99.417969 101.761719 "/>
</g>
</svg>
