<?xml version="1.0" encoding="UTF-8"?>
<svg xmlns="http://www.w3.org/2000/svg" xmlns:xlink="http://www.w3.org/1999/xlink" width="168pt" height="168pt" viewBox="0 0 168 168" version="1.1">
<g id="surface356">
<path style=" stroke:none;fill-rule:evenodd;fill:rgb(89.803922%,29.803922%,25.098039%);fill-opacity:1;" d="M 168 84 C 168 130.390625 130.390625 168 84 168 C 37.609375 168 0 130.390625 0 84 C 0 37.609375 37.609375 0 84 0 C 130.390625 0 168 37.609375 168 84 "/>
<path style=" stroke:none;fill-rule:nonzero;fill:rgb(100%,100%,100%);fill-opacity:1;" d="M 48.972656 45.238281 C 48.867188 44.464844 49.59375 44.003906 50.007812 43.480469 C 55.226562 38.316406 60.417969 33.128906 65.589844 27.914062 C 65.515625 42.171875 65.632812 56.433594 65.53125 70.691406 C 76.289062 64.757812 89.839844 64.496094 100.894531 69.808594 C 100.882812 70.726562 100.882812 71.640625 100.882812 72.566406 C 92.058594 67.820312 81.207031 67.210938 71.792969 70.519531 C 60.960938 74.246094 52.332031 83.417969 48.957031 94.332031 C 48.972656 77.960938 48.953125 61.605469 48.972656 45.238281 Z M 119.269531 106.464844 C 118.941406 115.144531 115.390625 123.390625 109.308594 129.589844 C 103.59375 135.464844 96.003906 139.160156 87.851562 140.03125 C 79.699219 140.90625 71.5 138.902344 64.667969 134.367188 C 56.898438 129.253906 51.28125 120.957031 49.558594 111.8125 C 48.0625 104.566406 49.074219 96.875 52.1875 90.183594 L 52.191406 90.183594 C 55.726562 82.65625 61.800781 76.613281 69.347656 73.113281 C 79.238281 68.453125 91.292969 68.84375 100.867188 74.121094 C 100.808594 81.964844 100.816406 89.808594 100.871094 97.652344 C 99.304688 94.414062 96.984375 91.515625 93.914062 89.59375 C 87.839844 85.671875 79.398438 85.855469 73.535156 90.109375 C 67.078125 94.550781 64.164062 103.359375 66.730469 110.769531 C 69.023438 118.074219 76.285156 123.433594 83.960938 123.347656 C 91.34375 123.53125 98.464844 118.707031 101.109375 111.824219 C 102.789062 107.921875 102.371094 103.613281 102.40625 99.488281 C 102.4375 78.199219 102.355469 56.910156 102.363281 35.628906 C 102.367188 32.953125 102.414062 30.273438 102.257812 27.605469 C 107.980469 33.242188 113.648438 38.949219 119.320312 44.648438 C 119.203125 65.253906 119.320312 85.859375 119.269531 106.476562 Z M 119.269531 106.464844 "/>
</g>
</svg>
