<?xml version="1.0" encoding="UTF-8"?>
<svg xmlns="http://www.w3.org/2000/svg" xmlns:xlink="http://www.w3.org/1999/xlink" width="168pt" height="168pt" viewBox="0 0 168 168" version="1.1">
<g id="surface1016">
<path style=" stroke:none;fill-rule:nonzero;fill:rgb(4.313725%,46.27451%,100%);fill-opacity:1;" d="M 168 84 C 168 130.390625 130.390625 168 84 168 C 37.609375 168 0 130.390625 0 84 C 0 37.609375 37.609375 0 84 0 C 130.390625 0 168 37.609375 168 84 "/>
<path style=" stroke:none;fill-rule:nonzero;fill:rgb(100%,100%,100%);fill-opacity:1;" d="M 142.589844 66.464844 L 142.589844 54.914062 L 105 76.808594 L 81.796875 36.804688 L 81.796875 63.054688 L 93.609375 83.53125 L 88.832031 86.367188 L 81.796875 73.976562 L 74.238281 87.417969 L 68.988281 85.265625 L 81.796875 63.058594 L 81.796875 36.808594 L 56.386719 80.070312 L 21 65.414062 L 21 78.800781 L 52.5 86.570312 L 32.550781 120.800781 L 81.796875 120.800781 L 81.796875 106.679688 L 56.648438 106.679688 L 66.046875 90.195312 L 71.71875 91.613281 L 66.046875 101.589844 L 97.546875 101.589844 L 92.820312 93.242188 L 99.066406 92.769531 L 107.097656 106.683594 L 81.792969 106.683594 L 81.792969 120.804688 L 131.25 120.800781 L 114.238281 91.769531 L 142.796875 89.667969 L 142.796875 78.066406 L 110.667969 85.992188 L 142.746094 77.75 L 142.746094 67.25 L 107.9375 81.371094 L 142.585938 66.460938 Z M 96.914062 89.300781 L 91.242188 90.71875 L 96.808594 89.300781 Z M 95.128906 86.152344 L 89.878906 88.253906 L 95.128906 86.101562 Z M 95.128906 86.152344 "/>
</g>
</svg>
