<?xml version="1.0" encoding="UTF-8"?>
<svg xmlns="http://www.w3.org/2000/svg" xmlns:xlink="http://www.w3.org/1999/xlink" width="168pt" height="168pt" viewBox="0 0 168 168" version="1.1">
<g id="surface191">
<path style=" stroke:none;fill-rule:evenodd;fill:rgb(7.45098%,62.745098%,96.470588%);fill-opacity:1;" d="M 168 84 C 168 130.390625 130.390625 168 84 168 C 37.609375 168 0 130.390625 0 84 C 0 37.609375 37.609375 0 84 0 C 130.390625 0 168 37.609375 168 84 "/>
<path style=" stroke:none;fill-rule:evenodd;fill:rgb(100%,100%,100%);fill-opacity:1;" d="M 43.558594 60.730469 C 39.371094 58.535156 36.746094 54.195312 36.75 49.464844 C 34.933594 46.019531 34.800781 41.925781 36.390625 38.367188 C 37.984375 34.8125 41.121094 32.183594 44.902344 31.242188 C 48.6875 30.296875 52.691406 31.148438 55.765625 33.542969 C 58.839844 35.9375 60.640625 39.613281 60.652344 43.511719 C 67.820312 39.320312 75.980469 37.117188 84.285156 37.128906 C 110.21875 37.128906 131.25 58.203125 131.25 84.191406 C 131.25 110.175781 110.222656 131.25 84.285156 131.25 C 58.34375 131.25 37.320312 110.183594 37.320312 84.1875 L 37.316406 84.1875 C 37.304688 75.957031 39.457031 67.867188 43.558594 60.730469 Z M 84.28125 107.339844 C 97.039062 107.339844 107.382812 96.976562 107.382812 84.1875 C 107.382812 71.398438 97.039062 61.035156 84.28125 61.035156 C 71.523438 61.035156 61.179688 71.402344 61.179688 84.1875 C 61.179688 96.972656 71.523438 107.339844 84.28125 107.339844 Z M 84.28125 107.339844 "/>
</g>
</svg>
