<?xml version="1.0" encoding="UTF-8"?>
<svg xmlns="http://www.w3.org/2000/svg" xmlns:xlink="http://www.w3.org/1999/xlink" width="168pt" height="168pt" viewBox="0 0 168 168" version="1.1">
<g id="surface1006">
<path style=" stroke:none;fill-rule:evenodd;fill:rgb(0%,0%,0%);fill-opacity:1;" d="M 168 84 C 168 130.390625 130.390625 168 84 168 C 37.609375 168 0 130.390625 0 84 C 0 37.609375 37.609375 0 84 0 C 130.390625 0 168 37.609375 168 84 "/>
<path style=" stroke:none;fill-rule:nonzero;fill:rgb(100%,100%,100%);fill-opacity:1;" d="M 88.941406 129.027344 C 89.214844 129.667969 89.363281 130.367188 89.363281 131.101562 C 89.363281 134.082031 86.90625 136.5 83.878906 136.5 C 80.851562 136.5 78.394531 134.085938 78.394531 131.101562 C 78.394531 130.386719 78.535156 129.703125 78.792969 129.082031 L 46.191406 110.566406 L 46.183594 110.566406 C 45.144531 111.625 43.71875 112.21875 42.234375 112.214844 C 39.207031 112.214844 36.75 109.800781 36.75 106.816406 C 36.75 104.296875 38.5 102.1875 40.867188 101.585938 L 40.867188 64.695312 C 38.460938 64.101562 36.765625 61.945312 36.75 59.464844 C 36.75 56.484375 39.207031 54.066406 42.234375 54.066406 C 44.050781 54.066406 45.664062 54.9375 46.664062 56.28125 L 78.542969 38.167969 L 78.546875 38.171875 C 78.4375 37.753906 78.386719 37.328125 78.386719 36.898438 C 78.386719 33.914062 80.851562 31.5 83.875 31.5 C 85.53125 31.492188 87.105469 32.238281 88.144531 33.53125 C 89.183594 34.824219 89.578125 36.523438 89.214844 38.140625 L 121.28125 56.359375 C 122.277344 54.972656 123.910156 54.070312 125.765625 54.070312 C 128.792969 54.070312 131.25 56.484375 131.25 59.46875 C 131.25 61.988281 129.492188 64.109375 127.117188 64.703125 L 127.023438 101.558594 C 129.445312 102.121094 131.25 104.261719 131.25 106.820312 C 131.25 109.800781 128.792969 112.21875 125.765625 112.21875 L 125.765625 112.214844 C 124.214844 112.21875 122.738281 111.570312 121.691406 110.429688 Z M 87.476562 127.03125 L 120.484375 108.277344 L 120.480469 108.28125 C 120.171875 107.207031 120.210938 106.066406 120.585938 105.015625 L 88.746094 84.539062 C 87.511719 85.84375 85.796875 86.582031 84 86.578125 C 81.992188 86.582031 80.097656 85.664062 78.859375 84.085938 L 47.480469 105.226562 C 47.808594 106.28125 47.800781 107.410156 47.460938 108.460938 L 80.230469 127.070312 C 81.238281 126.1875 82.535156 125.703125 83.875 125.707031 C 85.253906 125.707031 86.515625 126.207031 87.476562 127.03125 Z M 88.101562 40.339844 C 87.355469 41.222656 86.347656 41.847656 85.226562 42.125 L 85.140625 73.917969 L 85.144531 73.921875 C 88.210938 74.441406 90.464844 77.085938 90.484375 80.199219 C 90.484375 80.992188 90.335938 81.757812 90.0625 82.457031 L 121.929688 102.953125 C 122.636719 102.269531 123.53125 101.78125 124.527344 101.554688 L 124.621094 64.746094 L 124.625 64.75 C 121.808594 64.175781 119.929688 61.503906 120.339844 58.660156 Z M 79.675781 40.367188 L 47.644531 58.558594 C 48.117188 61.441406 46.222656 64.179688 43.359375 64.753906 L 43.359375 101.53125 C 44.472656 101.761719 45.460938 102.320312 46.214844 103.105469 L 77.742188 81.871094 L 77.742188 81.867188 C 77.292969 80.167969 77.566406 78.355469 78.492188 76.859375 C 79.421875 75.363281 80.925781 74.316406 82.652344 73.960938 L 82.738281 42.175781 L 82.734375 42.179688 C 81.542969 41.929688 80.464844 41.292969 79.675781 40.367188 Z M 79.675781 40.367188 "/>
</g>
</svg>
