<?xml version="1.0" encoding="UTF-8"?>
<svg xmlns="http://www.w3.org/2000/svg" xmlns:xlink="http://www.w3.org/1999/xlink" width="168pt" height="168pt" viewBox="0 0 168 168" version="1.1">
<g id="surface1581">
<path style=" stroke:none;fill-rule:evenodd;fill:rgb(16.470588%,67.058824%,89.411765%);fill-opacity:1;" d="M 168 84 C 168 130.390625 130.390625 168 84 168 C 37.609375 168 0 130.390625 0 84 C 0 37.609375 37.609375 0 84 0 C 130.390625 0 168 37.609375 168 84 "/>
<path style=" stroke:none;fill-rule:evenodd;fill:rgb(100%,100%,100%);fill-opacity:1;" d="M 41.476562 36.75 L 74.027344 36.75 L 74.023438 36.75 C 76.632812 36.75 78.75 38.867188 78.75 41.476562 L 78.75 74.027344 L 78.75 74.023438 C 78.75 76.632812 76.632812 78.75 74.023438 78.75 L 41.476562 78.75 C 38.867188 78.75 36.75 76.632812 36.75 74.023438 L 36.75 41.476562 C 36.75 38.867188 38.867188 36.75 41.476562 36.75 Z M 93.976562 36.75 L 126.527344 36.75 L 126.523438 36.75 C 129.132812 36.75 131.25 38.867188 131.25 41.476562 L 131.25 74.027344 L 131.25 74.023438 C 131.25 76.632812 129.132812 78.75 126.523438 78.75 L 93.972656 78.75 L 93.976562 78.75 C 91.367188 78.75 89.25 76.632812 89.25 74.023438 L 89.25 41.476562 C 89.25 38.867188 91.367188 36.75 93.976562 36.75 Z M 93.976562 89.25 L 126.527344 89.25 L 126.523438 89.25 C 129.132812 89.25 131.25 91.367188 131.25 93.976562 L 131.25 126.527344 L 131.25 126.523438 C 131.25 129.132812 129.132812 131.25 126.523438 131.25 L 93.972656 131.25 L 93.976562 131.25 C 91.367188 131.25 89.25 129.132812 89.25 126.523438 L 89.25 93.972656 L 89.25 93.976562 C 89.25 91.367188 91.367188 89.25 93.976562 89.25 Z M 41.476562 89.25 L 74.027344 89.25 L 74.023438 89.25 C 76.632812 89.25 78.75 91.367188 78.75 93.976562 L 78.75 126.527344 L 78.75 126.523438 C 78.75 129.132812 76.632812 131.25 74.023438 131.25 L 41.476562 131.25 C 38.867188 131.25 36.75 129.132812 36.75 126.523438 L 36.75 93.972656 L 36.75 93.976562 C 36.75 91.367188 38.867188 89.25 41.476562 89.25 Z M 41.476562 89.25 "/>
</g>
</svg>
