<?xml version="1.0" encoding="UTF-8"?>
<svg xmlns="http://www.w3.org/2000/svg" xmlns:xlink="http://www.w3.org/1999/xlink" width="168pt" height="168pt" viewBox="0 0 168 168" version="1.1">
<g id="surface2267">
<path style=" stroke:none;fill-rule:evenodd;fill:rgb(9.411765%,9.411765%,9.411765%);fill-opacity:1;" d="M 168 84 C 168 130.390625 130.390625 168 84 168 C 37.609375 168 0 130.390625 0 84 C 0 37.609375 37.609375 0 84 0 C 130.390625 0 168 37.609375 168 84 "/>
<path style=" stroke:none;fill-rule:nonzero;fill:rgb(100%,100%,100%);fill-opacity:1;" d="M 121.273438 58.433594 C 121.476562 62.628906 120.347656 66.78125 118.050781 70.296875 C 115.753906 73.816406 112.40625 76.519531 108.484375 78.027344 C 108.484375 78.027344 113.796875 72.777344 113.550781 59.320312 C 113.296875 45.863281 103.417969 39.210938 103.417969 39.210938 C 103.417969 39.210938 121.027344 43.132812 121.269531 58.425781 Z M 62.664062 130.300781 L 44.625 131.1875 L 44.625 129.503906 C 44.625 129.503906 55.664062 128.363281 55.664062 108.554688 L 55.664062 57.945312 C 55.664062 41.175781 44.625 38.273438 44.625 38.273438 L 44.625 36.75 L 62.664062 37.632812 Z M 91.496094 131.246094 C 83.648438 131.3125 69.089844 130.21875 69.089844 130.21875 L 69.089844 37.761719 C 78.6875 37.628906 82.042969 36.308594 89.949219 37.445312 C 97.859375 38.578125 104.65625 46.480469 106.507812 54.382812 C 108.359375 62.285156 106.386719 69.808594 103.851562 73.914062 C 101.316406 78.019531 95.761719 80.871094 95.761719 80.871094 C 95.761719 80.871094 104.160156 83.78125 107.128906 86.304688 C 110.09375 88.835938 115.84375 95.722656 113.617188 110.707031 C 111.390625 125.691406 99.34375 131.183594 91.5 131.246094 Z M 112.34375 127.832031 C 112.34375 127.832031 120.902344 120.378906 120.523438 105.25 C 120.144531 90.125 112.34375 83.015625 112.34375 83.015625 C 112.34375 83.015625 128.441406 87.058594 128.617188 105.074219 C 128.804688 123.085938 112.34375 127.832031 112.34375 127.832031 Z M 96.070312 73.578125 C 101.835938 65.90625 100.023438 51.476562 93.042969 46.539062 C 86.058594 41.605469 78.710938 44.070312 77.292969 45.460938 C 75.863281 46.851562 75.929688 79.21875 75.929688 79.21875 C 75.929688 79.21875 90.304688 81.246094 96.070312 73.574219 Z M 97.136719 87.359375 C 91.738281 84.953125 75.925781 85.585938 75.925781 85.585938 C 75.925781 85.585938 75.679688 93.761719 76.257812 109.058594 C 76.835938 124.355469 81.945312 124.273438 87.257812 124.484375 C 92.570312 124.695312 102.703125 124.316406 106.035156 111.125 C 109.375 97.9375 102.535156 89.761719 97.136719 87.363281 Z M 97.136719 87.359375 "/>
</g>
</svg>
