<?xml version="1.0" encoding="UTF-8"?>
<svg xmlns="http://www.w3.org/2000/svg" xmlns:xlink="http://www.w3.org/1999/xlink" width="168pt" height="168pt" viewBox="0 0 168 168" version="1.1">
<g id="surface1586">
<path style=" stroke:none;fill-rule:nonzero;fill:rgb(6.27451%,7.45098%,25.490196%);fill-opacity:1;" d="M 168 84 C 168 130.390625 130.390625 168 84 168 C 37.609375 168 0 130.390625 0 84 C 0 37.609375 37.609375 0 84 0 C 130.390625 0 168 37.609375 168 84 "/>
<path style=" stroke:none;fill-rule:evenodd;fill:rgb(100%,100%,100%);fill-opacity:1;" d="M 57.867188 36.75 L 111.5625 36.75 L 139.125 84 L 111.5625 131.25 L 57.386719 131.25 L 84.476562 84 L 57.859375 36.75 Z M 86.375 53.371094 L 103.964844 84 L 86.378906 114.628906 L 102.066406 114.628906 L 119.640625 84 L 102.054688 53.371094 Z M 86.375 53.371094 "/>
<path style=" stroke:none;fill-rule:evenodd;fill:rgb(100%,100%,100%);fill-opacity:0.5;" d="M 63.59375 57.886719 L 48.359375 84 L 63.457031 109.882812 L 53.800781 126.730469 L 28.875 84 L 54.015625 40.890625 Z M 63.59375 57.886719 "/>
</g>
</svg>
