<?xml version="1.0" encoding="UTF-8"?>
<svg xmlns="http://www.w3.org/2000/svg" xmlns:xlink="http://www.w3.org/1999/xlink" width="168pt" height="168pt" viewBox="0 0 168 168" version="1.1">
<g id="surface1291">
<path style=" stroke:none;fill-rule:evenodd;fill:rgb(9.411765%,34.117647%,54.901961%);fill-opacity:1;" d="M 168 84 C 168 130.390625 130.390625 168 84 168 C 37.609375 168 0 130.390625 0 84 C 0 37.609375 37.609375 0 84 0 C 130.390625 0 168 37.609375 168 84 "/>
<path style=" stroke:none;fill-rule:nonzero;fill:rgb(100%,100%,100%);fill-opacity:1;" d="M 61.074219 106.765625 C 64.550781 110.308594 64.550781 116.054688 61.074219 119.597656 C 57.597656 123.140625 51.960938 123.152344 48.472656 119.613281 C 46.792969 117.914062 45.847656 115.597656 45.847656 113.183594 C 45.847656 110.769531 46.792969 108.457031 48.472656 106.753906 L 48.472656 106.75 C 50.132812 105.050781 52.40625 104.097656 54.777344 104.101562 C 57.148438 104.101562 59.417969 105.0625 61.074219 106.765625 Z M 119.15625 45.8125 L 119.152344 45.8125 C 122.507812 47.25 124.675781 50.558594 124.65625 54.207031 C 124.65625 57.882812 122.484375 61.191406 119.152344 62.597656 C 115.824219 64.003906 111.984375 63.226562 109.441406 60.628906 C 107.761719 58.910156 106.824219 56.605469 106.828125 54.207031 C 106.828125 51.792969 107.769531 49.480469 109.441406 47.785156 C 111.964844 45.195312 115.820312 44.414062 119.152344 45.816406 Z M 59.902344 99.765625 L 68.496094 90.964844 C 70.195312 95.320312 73.601562 98.792969 77.925781 100.574219 L 69.308594 109.347656 Z M 110.8125 67.546875 L 102.195312 76.324219 C 101.359375 74.167969 100.09375 72.207031 98.46875 70.558594 C 96.855469 68.914062 94.925781 67.617188 92.792969 66.742188 L 101.402344 57.964844 Z M 107.207031 109.242188 L 107.203125 109.242188 C 108.554688 105.871094 111.8125 103.65625 115.441406 103.640625 C 119.046875 103.640625 122.296875 105.851562 123.679688 109.242188 C 125.054688 112.640625 124.292969 116.539062 121.746094 119.136719 C 120.089844 120.839844 117.816406 121.800781 115.441406 121.804688 C 113.070312 121.800781 110.796875 120.839844 109.140625 119.136719 C 106.585938 116.519531 105.824219 112.632812 107.203125 109.242188 Z M 47.433594 49.925781 C 48.78125 46.554688 52.039062 44.335938 55.671875 44.320312 C 59.277344 44.320312 62.527344 46.53125 63.910156 49.925781 C 65.285156 53.316406 64.523438 57.222656 61.976562 59.820312 L 61.976562 59.824219 C 60.320312 61.523438 58.046875 62.484375 55.671875 62.484375 C 53.296875 62.480469 51.027344 61.523438 49.371094 59.824219 C 46.816406 57.203125 46.054688 53.316406 47.433594 49.925781 Z M 100.695312 108.957031 L 92.058594 100.207031 C 96.382812 98.425781 99.789062 94.953125 101.488281 90.597656 L 110.097656 99.375 Z M 70.03125 57.453125 L 78.640625 66.238281 C 76.511719 67.101562 74.589844 68.394531 72.984375 70.035156 C 71.367188 71.683594 70.089844 73.65625 69.234375 75.820312 L 60.625 67.042969 Z M 85.476562 49.679688 C 80.546875 49.679688 76.550781 45.609375 76.550781 40.585938 C 76.550781 35.5625 80.546875 31.5 85.476562 31.5 C 87.839844 31.5 90.113281 32.457031 91.785156 34.160156 C 93.460938 35.867188 94.398438 38.175781 94.394531 40.585938 C 94.394531 45.609375 90.40625 49.679688 85.46875 49.679688 Z M 94.402344 127.410156 C 94.402344 132.429688 90.402344 136.496094 85.476562 136.496094 C 80.550781 136.496094 76.550781 132.425781 76.550781 127.410156 C 76.550781 122.390625 80.546875 118.316406 85.476562 118.316406 C 87.839844 118.316406 90.113281 119.273438 91.785156 120.976562 C 93.460938 122.683594 94.398438 124.992188 94.394531 127.40625 Z M 88.714844 54.433594 L 88.714844 65.691406 C 86.855469 65.363281 84.957031 65.363281 83.097656 65.691406 L 83.097656 54.433594 Z M 88.714844 102.796875 L 88.714844 114.058594 L 83.097656 114.058594 L 83.097656 102.796875 C 84.957031 103.128906 86.855469 103.128906 88.714844 102.796875 Z M 116.707031 84.988281 L 116.707031 84.992188 C 115.324219 81.597656 116.085938 77.707031 118.644531 75.085938 C 121.171875 72.488281 125.027344 71.707031 128.367188 73.113281 C 131.699219 74.519531 133.875 77.839844 133.875 81.511719 C 133.875 83.925781 132.933594 86.238281 131.265625 87.941406 C 129.171875 90.09375 126.125 91.03125 123.183594 90.4375 C 120.238281 89.839844 117.800781 87.789062 116.707031 84.992188 Z M 34.125 83.054688 C 34.125 78.035156 38.113281 73.96875 43.050781 73.96875 C 47.976562 73.96875 51.96875 78.03125 51.976562 83.050781 C 51.976562 85.464844 51.03125 87.777344 49.363281 89.480469 L 49.359375 89.480469 C 47.699219 91.179688 45.425781 92.140625 43.050781 92.144531 C 38.121094 92.144531 34.125 88.074219 34.125 83.0625 Z M 113.3125 85.914062 L 102.265625 85.902344 L 102.265625 85.90625 C 102.585938 84.011719 102.585938 82.078125 102.265625 80.183594 L 113.3125 80.183594 Z M 67.9375 85.914062 L 56.886719 85.914062 L 56.886719 80.191406 L 67.9375 80.191406 L 67.933594 80.195312 C 67.613281 82.085938 67.613281 84.023438 67.933594 85.917969 Z M 85.210938 96.609375 C 78.222656 96.609375 72.558594 90.839844 72.558594 83.726562 C 72.558594 76.613281 78.222656 70.835938 85.210938 70.835938 C 92.195312 70.835938 97.859375 76.609375 97.863281 83.726562 C 97.863281 90.839844 92.191406 96.609375 85.210938 96.609375 Z M 85.210938 96.609375 "/>
</g>
</svg>
