<?xml version="1.0" encoding="UTF-8"?>
<svg xmlns="http://www.w3.org/2000/svg" xmlns:xlink="http://www.w3.org/1999/xlink" width="168pt" height="168pt" viewBox="0 0 168 168" version="1.1">
<g id="surface21">
<path style=" stroke:none;fill-rule:nonzero;fill:rgb(95.294118%,72.941176%,18.431373%);fill-opacity:1;" d="M 168 84 C 168 130.390625 130.390625 168 84 168 C 37.609375 168 0 130.390625 0 84 C 0 37.609375 37.609375 0 84 0 C 130.390625 0 168 37.609375 168 84 "/>
<path style=" stroke:none;fill-rule:nonzero;fill:rgb(100%,100%,100%);fill-opacity:1;" d="M 63.609375 75.621094 L 84 55.230469 L 104.402344 75.632812 L 116.265625 63.769531 L 84 31.5 L 51.742188 63.757812 L 63.605469 75.621094 Z M 31.5 84 L 43.363281 72.136719 L 55.230469 84 L 43.367188 95.863281 Z M 63.609375 92.378906 L 84 112.769531 L 104.402344 92.367188 L 116.265625 104.226562 L 84 136.5 L 51.726562 104.226562 L 63.605469 92.378906 Z M 112.769531 84 L 124.632812 72.136719 L 136.5 84 L 124.636719 95.863281 Z M 96.03125 83.988281 L 96.042969 83.988281 L 96.042969 84 L 84 96.042969 L 71.972656 84.019531 L 71.953125 84 L 71.972656 83.984375 L 74.078125 81.875 L 75.101562 80.851562 L 84 71.957031 L 96.039062 83.996094 Z M 96.03125 83.988281 "/>
</g>
</svg>
