<?xml version="1.0" encoding="UTF-8"?>
<svg xmlns="http://www.w3.org/2000/svg" xmlns:xlink="http://www.w3.org/1999/xlink" width="168pt" height="168pt" viewBox="0 0 168 168" version="1.1">
<g id="surface2074">
<path style=" stroke:none;fill-rule:nonzero;fill:rgb(0%,5.098039%,16.862745%);fill-opacity:1;" d="M 168 84 C 168 130.390625 130.390625 168 84 168 C 37.609375 168 0 130.390625 0 84 C 0 37.609375 37.609375 0 84 0 C 130.390625 0 168 37.609375 168 84 "/>
<path style=" stroke:none;fill-rule:nonzero;fill:rgb(100%,100%,100%);fill-opacity:1;" d="M 83.578125 30.871094 L 59.859375 44.769531 L 83.578125 58.671875 L 107.742188 44.769531 Z M 87.480469 105.074219 L 87.480469 132.871094 L 119.699219 114.492188 L 119.699219 86.6875 Z M 111.644531 53.507812 L 111.644531 81.3125 L 87.472656 95.214844 L 87.476562 67.410156 L 111.648438 53.507812 Z M 53.464844 81.3125 L 77.636719 95.214844 L 77.636719 67.410156 L 53.464844 53.507812 Z M 53.464844 118.976562 L 77.636719 132.875 L 77.636719 105.078125 L 53.464844 91.179688 Z M 53.464844 118.976562 "/>
</g>
</svg>
