<?xml version="1.0" encoding="UTF-8"?>
<svg xmlns="http://www.w3.org/2000/svg" xmlns:xlink="http://www.w3.org/1999/xlink" width="168pt" height="168pt" viewBox="0 0 168 168" version="1.1">
<g id="surface551">
<path style=" stroke:none;fill-rule:nonzero;fill:rgb(99.215686%,47.843137%,23.921569%);fill-opacity:1;" d="M 168 84 C 168 130.390625 130.390625 168 84 168 C 37.609375 168 0 130.390625 0 84 C 0 37.609375 37.609375 0 84 0 C 130.390625 0 168 37.609375 168 84 "/>
<path style=" stroke:none;fill-rule:nonzero;fill:rgb(100%,100%,100%);fill-opacity:1;" d="M 132.273438 101.851562 C 136.316406 104.054688 137.664062 109.128906 134.964844 113.097656 C 132.722656 117.066406 127.5625 118.390625 123.519531 116.183594 L 123.523438 116.183594 C 121.050781 114.757812 119.449219 112.195312 119.253906 109.347656 L 98.59375 109.347656 L 88.714844 126.101562 C 88.714844 126.320312 88.488281 126.542969 88.269531 126.761719 C 90.511719 128.085938 92.085938 130.730469 92.085938 133.597656 C 92.085938 138.007812 88.269531 141.75 83.773438 141.75 C 79.285156 141.75 75.46875 138.222656 75.46875 133.597656 C 75.46875 130.730469 77.042969 128.304688 79.285156 126.761719 C 79.285156 126.542969 79.058594 126.320312 78.832031 126.101562 L 68.957031 109.355469 L 48.300781 109.351562 C 48.074219 112.210938 46.503906 114.636719 44.03125 116.175781 C 39.988281 118.378906 34.828125 117.0625 32.582031 113.09375 C 30.335938 109.125 31.683594 104.058594 35.726562 101.851562 C 38.417969 100.308594 41.339844 100.308594 43.8125 101.632812 C 44.03125 101.414062 44.03125 100.972656 44.257812 100.75 L 54.363281 84 L 44.484375 67.253906 C 44.246094 67.011719 44.085938 66.699219 44.03125 66.367188 C 41.5625 67.46875 38.417969 67.691406 35.945312 66.148438 L 35.945312 66.144531 C 34.023438 65.085938 32.609375 63.296875 32.019531 61.183594 C 31.429688 59.070312 31.714844 56.808594 32.808594 54.90625 C 35.050781 50.933594 40.214844 49.613281 44.257812 51.816406 C 46.949219 53.359375 48.300781 56.007812 48.527344 58.652344 L 69.40625 58.652344 L 79.285156 41.898438 C 79.285156 41.679688 79.511719 41.457031 79.730469 41.238281 C 77.359375 39.777344 75.914062 37.191406 75.914062 34.402344 C 75.914062 29.992188 79.730469 26.25 84.226562 26.25 C 88.714844 26.25 92.53125 29.777344 92.53125 34.402344 C 92.53125 37.269531 90.957031 39.695312 88.714844 41.238281 C 88.714844 41.457031 88.941406 41.679688 89.167969 41.898438 L 99.042969 58.644531 L 119.699219 58.648438 C 119.925781 55.789062 121.496094 53.363281 123.96875 51.824219 C 128.011719 49.621094 133.171875 50.9375 135.417969 54.90625 C 136.511719 56.808594 136.796875 59.070312 136.203125 61.183594 C 135.613281 63.296875 134.195312 65.085938 132.273438 66.144531 C 129.582031 67.6875 126.660156 67.6875 124.1875 66.363281 C 123.96875 66.582031 123.96875 67.023438 123.742188 67.246094 L 113.863281 84 L 123.742188 100.746094 C 123.980469 100.988281 124.136719 101.300781 124.195312 101.632812 C 126.664062 100.53125 129.808594 100.308594 132.28125 101.851562 Z M 94.777344 78.488281 C 94.777344 73.863281 90.960938 70.113281 86.246094 70.113281 L 75.46875 70.113281 C 74.9375 70.105469 74.425781 70.3125 74.042969 70.683594 C 73.664062 71.058594 73.449219 71.566406 73.449219 72.097656 L 73.449219 95.902344 C 73.449219 97.003906 74.347656 97.886719 75.46875 97.886719 L 86.246094 97.886719 C 90.960938 97.886719 94.777344 94.136719 94.777344 89.511719 C 94.777344 87.527344 94.105469 85.542969 92.757812 84.21875 C 93.882812 82.453125 94.777344 80.691406 94.777344 78.484375 Z M 94.777344 78.488281 "/>
</g>
</svg>
