<?xml version="1.0" encoding="UTF-8"?>
<svg xmlns="http://www.w3.org/2000/svg" xmlns:xlink="http://www.w3.org/1999/xlink" width="168pt" height="168pt" viewBox="0 0 168 168" version="1.1">
<g id="surface176">
<path style=" stroke:none;fill-rule:nonzero;fill:rgb(0%,70.588235%,95.686275%);fill-opacity:1;" d="M 168 84 C 168 130.390625 130.390625 168 84 168 C 37.609375 168 0 130.390625 0 84 C 0 37.609375 37.609375 0 84 0 C 130.390625 0 168 37.609375 168 84 "/>
<path style=" stroke:none;fill-rule:nonzero;fill:rgb(99.607843%,100%,100%);fill-opacity:1;" d="M 40.808594 120.644531 L 40.808594 121.464844 L 32.355469 121.464844 L 32.355469 105.960938 L 32.09375 106.816406 L 24.007812 104.347656 L 28.574219 89.40625 L 28.007812 90.242188 L 21 85.515625 L 29.757812 72.527344 L 28.921875 73.203125 L 23.605469 66.628906 L 36.207031 56.421875 L 34.601562 57.042969 L 31.574219 49.148438 L 46.625 43.375 L 44.867188 43.496094 L 44.277344 35.066406 L 60.039062 33.964844 L 58.621094 33.632812 L 60.523438 25.390625 L 75.582031 28.871094 L 74.632812 28.324219 L 78.851562 21 L 91.988281 28.582031 L 91.472656 28.035156 L 97.65625 22.265625 L 107.882812 33.238281 L 107.667969 32.785156 L 115.265625 29.078125 L 121.828125 42.527344 L 121.769531 42.148438 L 130.117188 40.824219 L 132.578125 56.363281 L 132.75 55.253906 L 141.101562 56.578125 L 138.601562 72.34375 L 139.222656 71.078125 L 146.824219 74.785156 L 139.789062 89.207031 L 140.8125 88.105469 L 147 93.878906 L 136.070312 105.597656 L 137.394531 104.835938 L 141.621094 112.160156 L 127.882812 120.085938 L 129.261719 119.769531 L 131.164062 128.007812 L 115.980469 131.515625 L 117.152344 131.59375 L 116.558594 140.03125 L 101.359375 138.964844 L 102.136719 139.265625 L 99.109375 147.15625 L 84.554688 141.574219 L 85.472656 142.316406 L 80.15625 148.890625 L 68.144531 139.167969 L 68.738281 140.042969 L 61.730469 144.769531 L 53.148438 132.046875 L 53.40625 132.882812 L 45.316406 135.351562 L 40.816406 120.644531 Z M 40.808594 110.597656 L 46.089844 108.984375 L 50.195312 122.410156 L 54.761719 119.328125 L 62.5625 130.898438 L 66.046875 126.59375 L 76.863281 135.351562 L 78.800781 130.3125 L 91.832031 135.316406 L 92.214844 129.855469 L 106.160156 130.832031 L 104.90625 125.398438 L 118.582031 122.238281 L 115.746094 117.335938 L 127.953125 110.289062 L 123.769531 106.394531 L 133.414062 96.050781 L 128.269531 93.546875 L 134.46875 80.835938 L 128.847656 79.945312 L 131.050781 65.992188 L 125.675781 66.84375 L 123.472656 52.890625 L 118.625 55.253906 L 112.464844 42.636719 L 108.515625 46.316406 L 98.992188 36.105469 L 96.261719 40.824219 L 84.207031 33.863281 L 82.960938 39.261719 L 69.394531 36.128906 L 69.789062 41.761719 L 55.867188 42.734375 L 57.925781 48.101562 L 44.816406 53.132812 L 48.34375 57.492188 L 37.335938 66.40625 L 41.980469 69.535156 L 34.046875 81.296875 L 39.390625 82.933594 L 35.242188 96.488281 L 40.800781 96.488281 L 40.800781 110.609375 Z M 59.5 58.890625 L 76.546875 58.890625 C 78.53125 58.890625 80.5 59.03125 82.457031 59.3125 C 84.414062 59.589844 86.136719 60.152344 87.621094 60.992188 C 89.105469 61.832031 90.242188 63.003906 91.011719 64.507812 C 91.789062 66.015625 92.003906 68.019531 91.65625 70.515625 C 91.316406 73.105469 90.292969 75.242188 88.589844 76.941406 C 86.890625 78.640625 84.808594 79.859375 82.359375 80.589844 L 82.359375 80.722656 C 83.820312 80.9375 85.125 81.359375 86.265625 81.984375 C 87.40625 82.609375 88.34375 83.402344 89.074219 84.375 C 89.808594 85.347656 90.324219 86.476562 90.621094 87.765625 C 90.925781 89.058594 90.96875 90.433594 90.753906 91.898438 C 90.40625 94.3125 89.613281 96.324219 88.363281 97.9375 L 88.367188 97.929688 C 87.140625 99.523438 85.605469 100.855469 83.847656 101.839844 C 82.03125 102.847656 80.070312 103.566406 78.03125 103.972656 C 75.992188 104.394531 73.917969 104.609375 71.835938 104.617188 L 53.105469 104.617188 L 59.496094 58.890625 Z M 66.988281 77.175781 L 74.285156 77.175781 C 75.058594 77.175781 75.832031 77.085938 76.609375 76.914062 L 76.613281 76.914062 C 77.375 76.746094 78.101562 76.460938 78.777344 76.074219 C 79.441406 75.6875 80.015625 75.15625 80.457031 74.523438 C 80.910156 73.878906 81.199219 73.105469 81.328125 72.199219 C 81.476562 71.402344 81.375 70.578125 81.035156 69.839844 C 80.726562 69.230469 80.242188 68.722656 79.648438 68.386719 C 78.992188 68.023438 78.285156 67.773438 77.546875 67.644531 C 76.769531 67.496094 75.980469 67.421875 75.191406 67.421875 L 68.34375 67.421875 Z M 64.335938 96.097656 L 73.382812 96.097656 C 74.15625 96.097656 74.964844 96.007812 75.796875 95.835938 L 75.800781 95.832031 C 77.441406 95.515625 78.90625 94.59375 79.898438 93.25 C 80.441406 92.511719 80.777344 91.640625 80.875 90.730469 C 81 89.660156 80.855469 88.789062 80.421875 88.121094 L 80.425781 88.121094 C 79.984375 87.445312 79.355469 86.914062 78.613281 86.597656 C 77.800781 86.246094 76.941406 86.003906 76.0625 85.890625 C 75.195312 85.765625 74.324219 85.699219 73.449219 85.695312 L 65.828125 85.695312 L 64.34375 96.089844 Z M 112.949219 59.621094 L 102.253906 98.679688 L 93.421875 98.058594 L 100.078125 57.792969 L 112.941406 59.621094 Z M 103.625 102.753906 L 100.851562 116.550781 L 89.105469 113.128906 L 91.792969 99.894531 L 103.625 102.75 Z M 103.625 102.753906 "/>
</g>
</svg>
