<?xml version="1.0" encoding="UTF-8"?>
<svg xmlns="http://www.w3.org/2000/svg" xmlns:xlink="http://www.w3.org/1999/xlink" width="168pt" height="168pt" viewBox="0 0 168 168" version="1.1">
<g id="surface496">
<path style=" stroke:none;fill-rule:evenodd;fill:rgb(0%,65.882353%,83.921569%);fill-opacity:1;" d="M 168 84 C 168 130.390625 130.390625 168 84 168 C 37.609375 168 0 130.390625 0 84 C 0 37.609375 37.609375 0 84 0 C 130.390625 0 168 37.609375 168 84 "/>
<path style=" stroke:none;fill-rule:evenodd;fill:rgb(100%,100%,100%);fill-opacity:1;" d="M 75.769531 99.488281 L 75.769531 89.425781 L 91.277344 89.425781 C 101.621094 89.425781 106.792969 86.84375 106.792969 81.675781 L 106.792969 54.566406 C 106.792969 49.40625 101.621094 46.824219 91.277344 46.824219 L 66.464844 46.820312 L 66.464844 63.085938 L 52.5 63.085938 L 52.5 36.75 L 89.722656 36.75 C 110.40625 36.75 120.75 42.429688 120.75 53.792969 L 120.75 82.453125 C 120.75 93.8125 110.40625 99.496094 89.722656 99.496094 L 75.769531 99.496094 Z M 106.792969 105.6875 L 120.75 105.6875 L 120.75 114.207031 C 120.75 125.570312 110.40625 131.25 89.722656 131.25 L 52.5 131.25 L 52.5 70.832031 L 89.722656 70.832031 C 91.910156 70.832031 93.976562 70.894531 95.933594 71.019531 L 95.933594 81.105469 C 94.386719 80.960938 92.832031 80.890625 91.277344 80.898438 L 66.464844 80.898438 L 66.464844 121.183594 L 91.28125 121.183594 C 101.625 121.183594 106.796875 118.601562 106.796875 113.441406 L 106.796875 105.683594 Z M 106.792969 105.6875 "/>
</g>
</svg>
