<?xml version="1.0" encoding="UTF-8"?>
<svg xmlns="http://www.w3.org/2000/svg" xmlns:xlink="http://www.w3.org/1999/xlink" width="168pt" height="168pt" viewBox="0 0 168 168" version="1.1">
<g id="surface826">
<path style=" stroke:none;fill-rule:nonzero;fill:rgb(5.882353%,38.823529%,84.705882%);fill-opacity:1;" d="M 168 84 C 168 130.390625 130.390625 168 84 168 C 37.609375 168 0 130.390625 0 84 C 0 37.609375 37.609375 0 84 0 C 130.390625 0 168 37.609375 168 84 "/>
<path style=" stroke:none;fill-rule:nonzero;fill:rgb(100%,100%,100%);fill-opacity:1;" d="M 135.890625 108.871094 C 135.386719 109.910156 134.828125 110.925781 134.226562 111.914062 C 133.824219 112.636719 133.433594 113.363281 133.007812 114.050781 C 132.8125 114.371094 132.65625 114.703125 132.460938 115.011719 L 132.398438 115.011719 C 124.164062 128.097656 110.984375 137.292969 95.859375 140.503906 C 80.738281 143.710938 64.957031 140.664062 52.117188 132.054688 C 51.855469 131.875 51.628906 131.683594 51.371094 131.507812 C 50.378906 130.863281 49.414062 130.175781 48.488281 129.4375 C 47.023438 128.320312 45.621094 127.121094 44.289062 125.847656 C 43.652344 125.257812 43.03125 124.652344 42.425781 124.03125 C 41.773438 123.363281 41.207031 122.71875 40.546875 121.96875 C 39.878906 121.21875 39.234375 120.457031 38.601562 119.679688 C 38.109375 119.050781 37.632812 118.410156 37.171875 117.757812 C 36.527344 116.875 35.90625 115.972656 35.3125 115.054688 C 34.929688 114.457031 34.570312 113.847656 34.210938 113.226562 C 33.617188 112.238281 33.058594 111.230469 32.535156 110.203125 C 32.226562 109.59375 31.9375 108.976562 31.648438 108.355469 C 31.164062 107.308594 30.703125 106.253906 30.265625 105.1875 C 30.003906 104.527344 29.765625 103.855469 29.53125 103.183594 C 29.167969 102.132812 28.8125 101.035156 28.503906 100.007812 C 28.292969 99.261719 28.164062 98.554688 27.933594 97.785156 L 27.929688 97.785156 C 27.667969 96.761719 27.433594 95.726562 27.230469 94.6875 C 27.125 93.898438 26.953125 93.070312 26.878906 92.324219 L 26.878906 92.328125 C 26.726562 91.296875 26.597656 90.265625 26.496094 89.230469 C 26.421875 88.417969 26.332031 87.601562 26.332031 86.785156 C 26.25 85.753906 26.25 84.71875 26.25 83.683594 C 26.25 82.894531 26.3125 82.109375 26.3125 81.316406 C 26.398438 79.492188 26.566406 77.667969 26.816406 75.855469 C 27.335938 72.164062 28.207031 68.53125 29.421875 65.003906 C 29.867188 63.710938 30.367188 62.429688 30.917969 61.15625 C 31.039062 60.867188 31.179688 60.515625 31.253906 60.28125 C 31.339844 60.019531 31.480469 59.785156 31.671875 59.585938 C 32.210938 58.421875 32.8125 57.265625 33.441406 56.121094 C 33.742188 55.480469 34.101562 54.851562 34.476562 54.230469 C 34.738281 53.777344 34.917969 53.355469 35.265625 52.859375 C 35.601562 52.359375 35.996094 51.847656 36.347656 51.332031 L 36.347656 51.335938 C 36.796875 50.628906 37.273438 49.941406 37.777344 49.269531 C 38.4375 48.378906 39.125 47.511719 39.839844 46.664062 L 39.84375 46.667969 C 41.09375 45.1875 42.414062 43.773438 43.804688 42.425781 C 44.320312 41.941406 44.828125 41.453125 45.351562 40.992188 L 45.355469 40.992188 C 46.769531 39.777344 48.226562 38.609375 49.71875 37.492188 C 50.707031 36.808594 51.714844 36.117188 52.730469 35.429688 L 52.730469 35.425781 C 53.273438 35.070312 53.824219 34.726562 54.382812 34.398438 C 55.417969 33.800781 56.445312 33.222656 57.480469 32.683594 L 57.480469 32.679688 C 59.816406 31.472656 62.234375 30.429688 64.714844 29.5625 C 67.304688 28.636719 69.957031 27.90625 72.65625 27.375 C 74.421875 27.027344 76.199219 26.757812 77.988281 26.566406 C 79.152344 26.441406 80.328125 26.355469 81.515625 26.304688 C 82.15625 26.253906 82.808594 26.253906 83.457031 26.253906 L 83.460938 26.25 C 85.324219 26.226562 87.191406 26.300781 89.050781 26.46875 C 92.074219 26.730469 95.070312 27.242188 98.011719 27.992188 C 98.761719 28.191406 99.519531 28.402344 100.269531 28.621094 C 101.371094 28.9375 102.40625 29.277344 103.441406 29.65625 C 104.214844 29.933594 104.988281 30.234375 105.75 30.554688 C 106.328125 30.796875 106.914062 30.980469 107.492188 31.238281 L 107.492188 31.324219 L 107.492188 31.320312 C 121.667969 37.527344 132.722656 49.210938 138.136719 63.707031 C 143.546875 78.203125 142.859375 94.273438 136.222656 108.25 C 136.117188 108.46875 135.992188 108.652344 135.890625 108.871094 Z M 62.097656 132.496094 L 62.097656 132.484375 C 73.886719 137.765625 87.191406 138.582031 99.539062 134.785156 C 111.886719 130.984375 122.433594 122.832031 129.214844 111.835938 C 129.59375 111.207031 129.949219 110.554688 130.308594 109.914062 C 130.800781 108.96875 131.359375 108.054688 131.835938 107.027344 L 131.832031 107.027344 C 138.25 93.832031 138.902344 78.566406 133.640625 64.871094 C 128.378906 51.175781 117.671875 40.277344 104.070312 34.777344 C 103.390625 34.484375 102.703125 34.214844 102.007812 33.960938 C 100.355469 33.375 98.675781 32.863281 96.976562 32.425781 C 94.230469 31.722656 91.433594 31.246094 88.609375 31 L 86.84375 30.875 C 85.703125 30.824219 84.574219 30.796875 83.445312 30.796875 L 81.671875 30.796875 C 80.574219 30.84375 79.488281 30.921875 78.402344 31.03125 C 77.746094 31.105469 77.09375 31.1875 76.449219 31.277344 L 76.449219 31.28125 C 74.703125 31.515625 72.96875 31.847656 71.257812 32.277344 C 69.535156 32.691406 67.835938 33.199219 66.164062 33.800781 C 65.421875 34.054688 64.710938 34.324219 64.023438 34.605469 L 64.023438 34.601562 C 62.492188 35.230469 60.984375 35.917969 59.507812 36.664062 C 58.011719 37.441406 56.546875 38.28125 55.121094 39.1875 C 54.160156 39.785156 53.222656 40.425781 52.320312 41.109375 C 51.847656 41.429688 51.375 41.777344 50.914062 42.136719 C 49.539062 43.226562 48.210938 44.378906 46.945312 45.597656 C 46.171875 46.375 45.417969 47.164062 44.671875 47.960938 L 44.671875 47.957031 C 43.5 49.246094 42.386719 50.585938 41.339844 51.976562 C 40.25 53.441406 39.230469 54.957031 38.28125 56.515625 C 37.941406 57.082031 37.628906 57.648438 37.308594 58.214844 C 36.679688 59.273438 36.164062 60.351562 35.648438 61.46875 L 35.652344 61.472656 C 34.675781 63.582031 33.839844 65.75 33.144531 67.964844 C 32.5625 69.667969 32.097656 71.40625 31.742188 73.167969 C 31.515625 74.269531 31.328125 75.390625 31.175781 76.5 C 31.089844 77.140625 30.996094 77.792969 30.941406 78.433594 C 30.835938 79.46875 30.722656 80.496094 30.722656 81.53125 C 30.660156 82.234375 30.660156 82.949219 30.660156 83.65625 C 30.660156 84.636719 30.746094 85.613281 30.746094 86.597656 L 30.738281 86.597656 C 30.828125 88.304688 31 90.003906 31.253906 91.691406 C 31.390625 92.398438 31.507812 93.070312 31.636719 93.832031 C 31.824219 94.804688 32.050781 95.773438 32.289062 96.746094 C 32.457031 97.402344 32.621094 98.0625 32.8125 98.734375 C 33.101562 99.730469 33.433594 100.714844 33.785156 101.695312 C 34 102.292969 34.207031 102.902344 34.445312 103.5 C 34.839844 104.492188 35.269531 105.453125 35.671875 106.472656 C 35.941406 107.039062 36.195312 107.613281 36.484375 108.167969 C 37 109.109375 37.496094 110.035156 38.03125 110.949219 C 38.382812 111.519531 38.714844 112.078125 39.066406 112.632812 C 39.601562 113.476562 40.191406 114.300781 40.777344 115.132812 C 41.214844 115.730469 41.527344 116.226562 42.101562 116.90625 C 42.667969 117.589844 43.308594 118.328125 43.867188 118.96875 C 44.421875 119.609375 45.042969 120.300781 45.601562 120.878906 C 46.15625 121.457031 46.59375 121.867188 47.3125 122.546875 L 47.3125 122.554688 C 48.53125 123.734375 49.820312 124.839844 51.167969 125.867188 C 54.53125 128.507812 58.199219 130.734375 62.097656 132.496094 Z M 83.894531 128.164062 C 72.171875 128.171875 60.929688 123.523438 52.632812 115.238281 C 44.339844 106.957031 39.675781 95.71875 39.667969 83.996094 C 39.660156 72.273438 44.3125 61.03125 52.59375 52.738281 C 60.878906 44.445312 72.117188 39.78125 83.839844 39.773438 C 95.5625 39.765625 106.804688 44.417969 115.097656 52.703125 C 123.390625 60.988281 128.050781 72.226562 128.058594 83.949219 C 128.050781 95.664062 123.394531 106.894531 115.117188 115.183594 C 106.839844 123.472656 95.609375 128.140625 83.894531 128.164062 Z M 83.894531 54.253906 C 76.011719 54.242188 68.445312 57.367188 62.867188 62.9375 C 57.285156 68.507812 54.148438 76.066406 54.144531 83.949219 C 54.136719 91.835938 57.265625 99.398438 62.839844 104.972656 C 68.414062 110.550781 75.976562 113.683594 83.859375 113.683594 C 91.746094 113.683594 99.304688 110.550781 104.878906 104.972656 C 110.449219 99.394531 113.578125 91.832031 113.574219 83.949219 C 113.566406 76.074219 110.4375 68.527344 104.875 62.957031 C 99.3125 57.386719 91.765625 54.25 83.894531 54.234375 Z M 83.894531 54.253906 "/>
</g>
</svg>
