<?xml version="1.0" encoding="UTF-8"?>
<svg xmlns="http://www.w3.org/2000/svg" xmlns:xlink="http://www.w3.org/1999/xlink" width="168pt" height="168pt" viewBox="0 0 168 168" version="1.1">
<g id="surface1156">
<path style=" stroke:none;fill-rule:evenodd;fill:rgb(11.372549%,11.372549%,11.372549%);fill-opacity:1;" d="M 168 84 C 168 130.390625 130.390625 168 84 168 C 37.609375 168 0 130.390625 0 84 C 0 37.609375 37.609375 0 84 0 C 130.390625 0 168 37.609375 168 84 "/>
<path style=" stroke:none;fill-rule:evenodd;fill:rgb(100%,100%,100%);fill-opacity:1;" d="M 52.300781 89.007812 C 52.300781 94.386719 54.445312 99.539062 58.257812 103.332031 C 62.070312 107.121094 67.234375 109.238281 72.613281 109.210938 C 83.753906 109.144531 92.804688 100.203125 92.808594 89.261719 C 92.859375 83.867188 90.742188 78.683594 86.933594 74.863281 C 83.128906 71.046875 77.945312 68.914062 72.554688 68.949219 C 61.363281 68.964844 52.300781 77.9375 52.300781 89.007812 M 52.320312 110.742188 L 52.320312 117.425781 L 42 117.425781 L 42 42 C 44.933594 42.050781 47.414062 43.101562 49.402344 45.175781 C 51.308594 47.171875 52.257812 49.558594 52.246094 52.332031 C 52.21875 57.304688 52.234375 62.277344 52.234375 67.484375 C 59.441406 61.460938 67.46875 58.496094 76.820312 59.925781 C 86.085938 61.34375 93.199219 66.003906 98.050781 73.980469 C 105.375 86.027344 103 101.417969 92.390625 110.992188 C 82.042969 120.335938 64.847656 121.785156 52.316406 110.746094 Z M 85.703125 117.289062 C 86.113281 117.042969 86.328125 116.894531 86.554688 116.78125 L 86.558594 116.78125 C 89.808594 115.183594 92.742188 113.007812 95.21875 110.367188 C 95.726562 109.789062 96.449219 109.449219 97.214844 109.425781 C 105.980469 108.921875 113.882812 101.867188 115.371094 93.234375 C 117.324219 81.894531 110.4375 71.886719 99.042969 69.714844 C 97.476562 69.476562 96.046875 68.695312 95 67.507812 C 92.898438 65.1875 90.347656 63.375 87.632812 61.816406 C 87.402344 61.683594 87.179688 61.542969 86.804688 61.3125 C 91.96875 59.894531 97.003906 59.558594 102.109375 60.71875 C 107.1875 61.867188 111.558594 64.355469 115.65625 67.753906 L 115.65625 61.058594 L 126 61.0625 L 126 136.5 C 123.222656 136.484375 120.570312 135.34375 118.644531 133.339844 C 116.742188 131.421875 115.695312 128.816406 115.746094 126.117188 L 115.746094 111.050781 C 106.832031 118.523438 96.972656 120.757812 85.707031 117.292969 Z M 85.703125 117.289062 "/>
</g>
</svg>
