<?xml version="1.0" encoding="UTF-8"?>
<svg xmlns="http://www.w3.org/2000/svg" xmlns:xlink="http://www.w3.org/1999/xlink" width="168pt" height="168pt" viewBox="0 0 168 168" version="1.1">
<g id="surface1081">
<path style=" stroke:none;fill-rule:evenodd;fill:rgb(99.607843%,36.470588%,52.54902%);fill-opacity:1;" d="M 168 84 C 168 130.390625 130.390625 168 84 168 C 37.609375 168 0 130.390625 0 84 C 0 37.609375 37.609375 0 84 0 C 130.390625 0 168 37.609375 168 84 "/>
<path style=" stroke:none;fill-rule:nonzero;fill:rgb(100%,100%,100%);fill-opacity:1;" d="M 42 47.453125 C 42 44.441406 44.476562 42 47.535156 42 L 87.371094 42 C 110.871094 42 119.160156 44.773438 124.871094 50.40625 C 128.441406 54.035156 130.3125 59.003906 130.015625 64.085938 C 130.015625 73.804688 124.78125 80.390625 110.660156 83.285156 C 124.300781 85.667969 131.222656 91.210938 131.222656 102.363281 C 131.484375 107.621094 129.546875 112.75 125.867188 116.519531 C 120.277344 122.03125 111.140625 126 86.558594 126 L 47.535156 126 C 44.5 126.019531 42.023438 123.578125 42 120.546875 Z M 72.246094 78.753906 C 72.246094 76.742188 73.898438 75.117188 75.9375 75.117188 L 88.761719 75.117188 C 96.082031 75.117188 101.554688 74.761719 104.089844 72.136719 C 105.285156 70.882812 105.902344 69.183594 105.789062 67.457031 C 105.945312 65.777344 105.378906 64.109375 104.214844 62.863281 C 101.640625 60.332031 96.171875 59.886719 88.765625 59.886719 L 64.890625 59.886719 L 64.890625 108.355469 L 88.515625 108.355469 C 96.558594 108.355469 102.515625 107.757812 105.300781 104.984375 C 106.582031 103.671875 107.242188 101.886719 107.117188 100.066406 C 107.234375 98.214844 106.578125 96.390625 105.300781 95.027344 C 102.488281 92.261719 96.535156 92.050781 88.515625 92.050781 L 76.019531 92.050781 L 76.019531 92.046875 C 75.007812 92.074219 74.03125 91.683594 73.3125 90.972656 C 72.597656 90.265625 72.210938 89.296875 72.238281 88.292969 Z M 72.246094 78.753906 "/>
</g>
</svg>
