<?xml version="1.0" encoding="UTF-8"?>
<svg xmlns="http://www.w3.org/2000/svg" xmlns:xlink="http://www.w3.org/1999/xlink" width="168pt" height="168pt" viewBox="0 0 168 168" version="1.1">
<g id="surface291">
<path style=" stroke:none;fill-rule:nonzero;fill:rgb(91.764706%,70.196078%,1.568627%);fill-opacity:1;" d="M 168 84 C 168 130.390625 130.390625 168 84 168 C 37.609375 168 0 130.390625 0 84 C 0 37.609375 37.609375 0 84 0 C 130.390625 0 168 37.609375 168 84 "/>
<path style=" stroke:none;fill-rule:nonzero;fill:rgb(100%,100%,100%);fill-opacity:1;" d="M 116.289062 76.492188 L 116.65625 75.757812 C 116.65625 75.390625 116.65625 75.023438 117.390625 75.285156 C 117.445312 74.953125 117.445312 74.617188 117.390625 74.289062 C 117.566406 73.8125 117.566406 73.292969 117.390625 72.816406 C 116.644531 71 116.515625 68.992188 117.023438 67.09375 C 117.082031 66.851562 117.082031 66.601562 117.023438 66.359375 L 117.390625 65.992188 C 117.539062 66.128906 117.664062 66.289062 117.757812 66.464844 C 117.816406 66.707031 117.816406 66.957031 117.757812 67.199219 L 117.757812 67.566406 C 117.757812 67.933594 118.386719 67.199219 118.648438 66.9375 C 118.972656 66.6875 119.328125 66.476562 119.699219 66.308594 C 119.769531 65.347656 119.644531 64.382812 119.332031 63.472656 C 118.746094 61.496094 118.878906 59.378906 119.699219 57.488281 C 119.699219 57.855469 120.171875 58.117188 120.171875 58.484375 C 120.261719 59.847656 120.839844 61.136719 121.800781 62.105469 C 122.867188 63.328125 123.667969 64.757812 124.164062 66.304688 C 124.164062 66.304688 124.164062 66.777344 124.53125 66.777344 C 126.042969 67.214844 127.417969 68.023438 128.519531 69.140625 C 129.789062 70.285156 130.996094 71.492188 132.140625 72.761719 L 132.140625 72.765625 C 132.339844 72.980469 132.5 73.230469 132.613281 73.5 L 132.984375 73.5 C 133.042969 72.347656 133.042969 71.1875 132.984375 70.035156 C 132.984375 69.039062 133.457031 68.039062 134.453125 68.199219 L 134.925781 68.199219 C 134.972656 67.289062 135.613281 66.515625 136.5 66.308594 C 136.875 66.957031 136.875 67.757812 136.5 68.40625 C 137.234375 69.296875 137.390625 69.769531 136.5 70.769531 C 135.609375 71.765625 136.027344 71.871094 136.5 72.871094 C 136.601562 72.292969 136.816406 71.738281 137.128906 71.242188 C 137.390625 70.71875 137.496094 69.878906 138.125 69.613281 L 138.128906 69.613281 C 138.332031 69.542969 138.554688 69.542969 138.757812 69.613281 C 139.363281 69.734375 139.988281 69.734375 140.59375 69.613281 C 141.378906 69.550781 142.121094 69.992188 142.433594 70.71875 L 140.699219 71.558594 C 141.066406 72.292969 140.699219 72.554688 139.964844 73.027344 C 139.597656 73.363281 139.265625 73.734375 138.96875 74.128906 C 139.640625 74.011719 140.308594 73.851562 140.960938 73.65625 C 141.882812 73.421875 142.839844 73.890625 143.21875 74.761719 C 143.359375 75.058594 143.578125 75.3125 143.851562 75.496094 C 144.359375 75.9375 144.679688 76.558594 144.742188 77.226562 C 144.78125 77.382812 144.78125 77.546875 144.742188 77.699219 L 143.746094 76.964844 C 143.480469 76.710938 143.0625 76.710938 142.800781 76.964844 C 142.433594 77.320312 141.855469 77.320312 141.488281 76.964844 C 140.757812 76.53125 139.851562 76.53125 139.125 76.964844 C 138.566406 77.332031 137.988281 77.664062 137.390625 77.960938 C 138.789062 78.148438 140.015625 78.988281 140.699219 80.21875 C 141.066406 80.953125 141.589844 81.6875 141.960938 82.476562 C 142.257812 83.128906 141.976562 83.902344 141.328125 84.210938 L 141.066406 84.210938 L 141.066406 83.949219 C 141.066406 83.320312 140.699219 83.214844 140.070312 83.320312 L 140.070312 83.316406 C 139.722656 83.433594 139.34375 83.402344 139.015625 83.234375 C 138.691406 83.066406 138.445312 82.773438 138.335938 82.425781 C 137.726562 81.203125 136.707031 80.234375 135.449219 79.695312 L 134.347656 79.222656 C 134.265625 79.699219 134.105469 80.160156 133.875 80.585938 C 133.703125 80.863281 133.488281 81.109375 133.246094 81.324219 C 132.511719 81.953125 132.511719 82.058594 133.246094 82.953125 C 133.980469 83.84375 133.613281 83.425781 133.875 83.84375 C 133.074219 83.890625 132.296875 83.558594 131.773438 82.949219 C 131.121094 82.214844 130.589844 81.382812 130.199219 80.484375 C 129.886719 79.621094 130.1875 78.652344 130.933594 78.121094 C 131.304688 77.753906 131.605469 77.328125 131.828125 76.859375 L 128.101562 75.863281 C 128.160156 76.4375 128.160156 77.019531 128.101562 77.59375 C 128.226562 79.710938 128.226562 81.832031 128.101562 83.945312 L 128.101562 83.949219 C 127.972656 87.089844 127.480469 90.210938 126.628906 93.238281 C 126.015625 95.574219 125.132812 97.828125 124.003906 99.960938 C 123.058594 101.882812 121.988281 103.742188 120.800781 105.523438 C 119.789062 107.007812 118.667969 108.410156 117.441406 109.726562 C 116.203125 111.179688 114.832031 112.515625 113.347656 113.714844 C 111.71875 115.078125 109.988281 116.183594 108.097656 117.335938 C 105.554688 118.953125 102.796875 120.207031 99.90625 121.066406 C 97.957031 121.636719 95.976562 122.09375 93.976562 122.429688 C 92.863281 122.648438 91.742188 122.804688 90.613281 122.902344 C 89.914062 123.125 89.367188 123.671875 89.144531 124.371094 C 88.832031 126.054688 87.847656 127.535156 86.414062 128.46875 C 85.785156 128.941406 85.050781 129.359375 84.3125 129.832031 L 84.679688 128.730469 L 84.683594 128.730469 C 84.8125 128.242188 84.671875 127.722656 84.316406 127.363281 C 83.949219 126.996094 83.425781 127.363281 82.953125 127.363281 C 82.480469 127.363281 82.0625 127.992188 81.957031 128.726562 L 81.953125 128.730469 C 81.746094 130.097656 80.855469 131.265625 79.589844 131.828125 L 78.960938 131.828125 C 79.125 131.386719 79.246094 130.929688 79.328125 130.460938 C 79.328125 130.09375 78.960938 129.726562 78.699219 129.359375 C 78.4375 128.992188 78.226562 129.359375 77.964844 129.359375 L 75.707031 130.460938 L 74.972656 130.828125 L 76.96875 131.71875 L 76.964844 131.722656 C 78.042969 132.238281 78.914062 133.109375 79.433594 134.191406 C 79.871094 134.78125 79.871094 135.59375 79.433594 136.183594 C 79.308594 136.375 79.308594 136.625 79.433594 136.816406 C 79.777344 138.070312 79.609375 139.414062 78.960938 140.542969 C 78.960938 140.910156 78.332031 141.277344 78.070312 141.644531 L 77.703125 139.125 L 77.699219 139.125 C 77.699219 138.863281 77.488281 138.652344 77.226562 138.652344 C 75.714844 138.71875 74.300781 137.898438 73.605469 136.550781 L 73.238281 136.078125 C 72.585938 137.011719 71.613281 137.664062 70.507812 137.917969 C 68.988281 138.605469 67.855469 139.933594 67.410156 141.539062 C 67.230469 142.449219 66.929688 143.332031 66.515625 144.164062 C 66.050781 145.355469 64.726562 145.957031 63.523438 145.53125 L 63.523438 147.527344 L 63.523438 147.523438 C 62.949219 147.378906 62.460938 147.003906 62.164062 146.492188 C 61.867188 145.976562 61.789062 145.367188 61.949219 144.796875 C 62.015625 144.5 62.015625 144.195312 61.949219 143.902344 C 61.195312 142.425781 61.667969 140.617188 63.050781 139.703125 C 64.082031 138.953125 64.96875 138.027344 65.675781 136.972656 C 65.714844 136.851562 65.714844 136.726562 65.675781 136.605469 L 61.949219 136.132812 C 61.027344 135.878906 60.042969 136.011719 59.21875 136.5 L 58.484375 137.445312 C 57.382812 138.707031 56.855469 138.808594 55.386719 138.074219 C 54.808594 139.09375 54.585938 140.277344 54.757812 141.433594 C 54.203125 140.894531 53.816406 140.199219 53.65625 139.441406 C 53.589844 139.023438 53.589844 138.597656 53.65625 138.179688 L 53.65625 137.445312 C 53.535156 137.085938 53.535156 136.699219 53.65625 136.34375 C 54.09375 135.332031 54.902344 134.523438 55.914062 134.085938 C 57.027344 133.355469 58.308594 132.921875 59.640625 132.824219 C 60.636719 132.761719 61.636719 132.761719 62.632812 132.824219 L 63.367188 132.824219 C 62.917969 131.722656 62.019531 130.863281 60.898438 130.460938 L 58.0625 129.359375 L 58.066406 129.359375 C 57.414062 129.453125 56.808594 129.011719 56.699219 128.363281 C 56.699219 128.101562 56.488281 127.890625 56.226562 127.890625 C 55.351562 127.886719 54.492188 128.144531 53.761719 128.625 C 54.128906 127.523438 54.652344 126.367188 55.863281 126.15625 L 55.859375 126.15625 C 56.402344 126.09375 56.945312 126.09375 57.488281 126.15625 L 57.960938 126.15625 C 58.695312 125.054688 59.796875 125.265625 60.796875 125.789062 C 62.25 126.480469 63.457031 127.59375 64.261719 128.992188 C 64.628906 129.726562 65.300781 130.261719 66.097656 130.460938 C 66.167969 129.503906 66.042969 128.539062 65.730469 127.628906 C 65.691406 126.761719 65.097656 126.015625 64.261719 125.789062 C 63 125.421875 62.632812 124.527344 63.265625 123.164062 L 63.261719 123.164062 C 62.417969 122.414062 61.234375 122.175781 60.164062 122.535156 C 60.53125 121.539062 62 121.171875 63 121.273438 C 63.902344 121.8125 64.945312 122.070312 65.992188 122.011719 C 66.707031 122.144531 67.3125 122.613281 67.621094 123.269531 L 68.355469 124.738281 C 68.984375 125.839844 69.457031 127.101562 69.984375 128.203125 C 70.71875 126.101562 71.613281 123.84375 72.453125 121.484375 L 71.191406 121.011719 L 67.570312 119.542969 L 67.566406 119.542969 C 64.804688 118.347656 62.179688 116.851562 59.746094 115.078125 C 59.320312 114.847656 58.859375 114.691406 58.378906 114.609375 C 58.011719 114.609375 57.488281 115.082031 57.75 115.5 C 58.011719 115.921875 58.378906 115.972656 58.640625 116.390625 C 58.902344 116.8125 58.640625 116.757812 59.113281 117.019531 L 58.484375 117.019531 L 58.484375 117.023438 C 56.738281 117.0625 55.148438 116.015625 54.496094 114.398438 C 53.722656 112.839844 53.257812 111.144531 53.128906 109.410156 C 53.179688 109.292969 53.179688 109.160156 53.128906 109.042969 L 49.769531 105.316406 C 49.519531 105.957031 49.519531 106.667969 49.769531 107.308594 L 50.136719 108.042969 L 50.136719 108.933594 L 49.140625 108.933594 L 49.140625 108.9375 C 48.574219 108.316406 48.113281 107.609375 47.773438 106.835938 C 47.300781 105 47.039062 103.109375 46.671875 101.269531 L 46.671875 101.273438 C 46.582031 100.351562 46.425781 99.441406 46.199219 98.542969 C 45.929688 97.492188 45.59375 96.457031 45.203125 95.445312 L 45.203125 98.332031 C 45.203125 98.59375 44.574219 98.332031 44.46875 97.859375 C 43.898438 96.882812 43.558594 95.785156 43.46875 94.65625 C 43.410156 92.007812 43.78125 89.363281 44.574219 86.835938 C 44.8125 85.90625 45.109375 84.996094 45.464844 84.105469 C 45.34375 84.402344 45.1875 84.6875 44.992188 84.945312 L 44.519531 85.417969 L 44.519531 84.789062 C 44.503906 83.605469 44.8125 82.445312 45.414062 81.425781 C 46.304688 79.429688 47.410156 77.4375 48.40625 75.492188 L 48.40625 75.496094 C 48.816406 74.800781 49.273438 74.136719 49.769531 73.5 L 48.878906 74.445312 L 48.25 74.8125 L 48.25 74.445312 L 48.246094 74.445312 C 48.585938 73.882812 48.953125 73.339844 49.351562 72.816406 C 50.53125 71.386719 51.910156 70.132812 53.445312 69.089844 C 53.800781 68.964844 54.191406 68.964844 54.546875 69.089844 L 59.796875 70.191406 L 61.632812 70.664062 L 61.636719 70.664062 C 61.136719 71.179688 60.710938 71.761719 60.375 72.398438 C 60.046875 73.039062 60.046875 73.800781 60.375 74.445312 C 60.558594 74.714844 60.558594 75.070312 60.375 75.335938 C 59.179688 76.367188 58.167969 77.59375 57.382812 78.960938 L 57.382812 79.433594 C 57.382812 79.433594 59.117188 81.167969 60.007812 82.164062 C 60.058594 82.320312 60.058594 82.480469 60.007812 82.636719 C 59.199219 84.011719 59.199219 85.71875 60.007812 87.097656 C 60.128906 87.570312 60.441406 87.972656 60.867188 88.210938 C 61.292969 88.449219 61.796875 88.503906 62.265625 88.359375 C 62.222656 89.378906 62.535156 90.382812 63.15625 91.191406 C 63.523438 91.558594 64.046875 91.820312 64.417969 92.1875 L 64.417969 92.191406 C 64.636719 92.34375 64.804688 92.566406 64.890625 92.820312 C 65.484375 94.730469 67.113281 96.132812 69.089844 96.441406 C 70.601562 96.652344 72.136719 96.335938 73.449219 95.550781 C 73.921875 95.550781 74.078125 95.183594 74.183594 95.550781 C 74.476562 97.382812 75.066406 99.152344 75.917969 100.800781 C 77.003906 102.722656 78.347656 104.484375 79.90625 106.050781 C 81.308594 107.390625 83.023438 108.359375 84.894531 108.886719 C 87.203125 109.40625 89.621094 108.753906 91.351562 107.152344 C 92.4375 106.050781 93.359375 104.796875 94.078125 103.425781 L 96.335938 99.804688 L 96.335938 99.800781 C 97.332031 98.433594 98.601562 97.289062 100.066406 96.441406 C 100.558594 96.0625 101.195312 95.929688 101.796875 96.074219 L 101.429688 96.808594 C 100.859375 97.726562 100.859375 98.886719 101.429688 99.800781 C 101.796875 100.273438 102.058594 100.273438 102.320312 99.800781 C 102.582031 99.328125 103.054688 98.4375 104.054688 98.539062 C 105.050781 98.644531 105.050781 97.910156 105.15625 97.277344 L 105.15625 97.28125 C 105.261719 94.546875 106.074219 91.886719 107.519531 89.566406 C 107.789062 89.289062 108.089844 89.042969 108.414062 88.828125 L 108.414062 90.824219 C 108.515625 91.378906 108.675781 91.925781 108.886719 92.453125 L 109.203125 91.769531 L 109.199219 91.769531 C 109.382812 91.386719 109.769531 91.140625 110.199219 91.140625 C 110.445312 91.097656 110.667969 90.964844 110.828125 90.773438 C 111.53125 89.945312 111.769531 88.820312 111.457031 87.78125 C 111.332031 86.996094 111.332031 86.199219 111.457031 85.417969 C 111.453125 84.425781 111.707031 83.449219 112.191406 82.582031 C 112.308594 82.3125 112.464844 82.0625 112.664062 81.847656 L 113.03125 81.847656 L 113.03125 83.582031 L 113.03125 83.578125 C 112.992188 83.734375 112.992188 83.898438 113.03125 84.050781 L 113.503906 84.050781 L 114.449219 83.421875 C 114.808594 82.78125 114.972656 82.054688 114.921875 81.324219 C 114.851562 80.90625 114.851562 80.480469 114.921875 80.0625 L 114.921875 75.757812 C 114.921875 75.179688 114.921875 75.128906 115.289062 74.761719 L 115.867188 74.445312 L 115.867188 76.753906 C 115.945312 76.59375 116.109375 76.492188 116.289062 76.492188 Z M 51.765625 52.550781 L 54.863281 49.453125 C 55.042969 49.261719 55.253906 49.101562 55.492188 48.984375 C 55.859375 48.617188 55.492188 48.25 55.492188 47.882812 C 55.492188 47.515625 55.019531 47.882812 54.601562 47.882812 L 54.128906 47.882812 L 54.128906 47.25 C 54.390625 46.378906 55.023438 45.667969 55.859375 45.308594 C 57.21875 44.820312 58.703125 44.820312 60.058594 45.308594 C 60.292969 45.421875 60.5625 45.421875 60.796875 45.308594 L 63.789062 43.679688 C 64.261719 43.679688 64.15625 43.207031 63.789062 42.945312 C 63.421875 42.683594 62.898438 42.316406 62.425781 42.945312 L 62.421875 42.945312 C 62.265625 42.984375 62.105469 42.984375 61.949219 42.945312 C 61.949219 42.054688 62.839844 41.316406 63.683594 40.949219 C 65.101562 40.511719 66.625 40.511719 68.042969 40.949219 L 68.25 40.949219 C 68.617188 40.949219 69.71875 41.421875 70.613281 40.949219 L 72.449219 40.320312 C 72.921875 40.320312 72.921875 39.953125 72.449219 39.691406 C 71.976562 39.429688 71.820312 38.957031 71.347656 39.324219 C 70.875 39.691406 71.347656 39.324219 70.875 39.324219 C 70.667969 39.101562 70.667969 38.757812 70.875 38.535156 C 71.789062 37.84375 72.941406 37.542969 74.078125 37.695312 C 75.109375 37.773438 76.097656 38.160156 76.914062 38.796875 L 77.28125 38.796875 C 77.640625 39.21875 78.210938 39.402344 78.75 39.269531 C 79.363281 38.902344 80.128906 38.902344 80.746094 39.269531 L 81.113281 39.269531 L 81.113281 38.796875 C 80.941406 38.132812 80.332031 37.671875 79.640625 37.695312 L 79.273438 37.695312 C 80.542969 36.703125 82.242188 36.464844 83.738281 37.066406 C 84.820312 37.507812 85.765625 38.230469 86.46875 39.167969 L 86.46875 39.164062 C 86.742188 39.335938 87.042969 39.460938 87.359375 39.53125 C 88.078125 39.511719 88.792969 39.636719 89.460938 39.898438 C 90.089844 40.265625 89.828125 39.898438 89.933594 40.371094 C 90.09375 40.03125 90.113281 39.640625 89.984375 39.285156 C 89.855469 38.929688 89.589844 38.640625 89.25 38.484375 L 88.199219 38.484375 L 88.199219 37.695312 C 88.773438 37.582031 89.359375 37.582031 89.933594 37.695312 C 91.59375 37.890625 93.082031 38.789062 94.027344 40.164062 C 94.394531 40.792969 94.699219 41.460938 94.917969 42.160156 L 94.921875 42.15625 C 95.828125 42.046875 96.730469 42.425781 97.28125 43.15625 L 97.648438 43.15625 C 97.867188 43.109375 98.078125 43.039062 98.28125 42.945312 C 98.257812 42.105469 97.710938 41.371094 96.914062 41.109375 L 96.546875 41.109375 C 97.019531 41.109375 97.4375 40.742188 97.910156 41.109375 C 98.699219 41.183594 99.457031 41.398438 100.167969 41.738281 C 102.035156 42.5 103.433594 44.09375 103.949219 46.042969 C 104.839844 46.515625 105.417969 47.039062 106.050781 47.40625 L 106.785156 47.40625 L 106.785156 46.304688 C 106.628906 45.546875 106.121094 44.902344 105.421875 44.574219 L 104.949219 44.207031 L 104.949219 44.203125 C 106.117188 43.941406 107.335938 44.324219 108.148438 45.203125 C 109.121094 46.023438 109.84375 47.09375 110.25 48.300781 C 110.335938 48.699219 110.609375 49.03125 110.984375 49.191406 C 111.382812 49.492188 111.75 49.820312 112.085938 50.1875 C 112.558594 48.824219 111.457031 48.085938 111.089844 47.089844 L 111.089844 47.09375 C 111.902344 47.109375 112.664062 47.472656 113.191406 48.089844 C 113.925781 48.855469 114.589844 49.679688 115.1875 50.558594 C 115.566406 51.199219 115.984375 51.8125 116.449219 52.394531 C 116.828125 53.097656 117.074219 53.863281 117.183594 54.652344 L 117.179688 54.652344 C 117.253906 56.433594 117.003906 58.210938 116.445312 59.902344 C 116.382812 61.054688 116.382812 62.214844 116.445312 63.367188 C 116.496094 63.523438 116.496094 63.683594 116.445312 63.839844 C 115.507812 64.613281 114.921875 65.726562 114.816406 66.9375 C 114.566406 68.503906 114.566406 70.097656 114.816406 71.664062 L 114.816406 72.03125 C 113.351562 72.996094 112.464844 74.632812 112.453125 76.386719 L 112.453125 79.117188 C 110.914062 79.429688 109.667969 80.558594 109.199219 82.058594 C 108.832031 82.792969 108.726562 83.6875 108.308594 84.421875 C 107.886719 85.15625 107.835938 84.894531 107.574219 85.15625 L 107.574219 84.15625 C 107.886719 82.515625 108.007812 80.839844 107.941406 79.171875 C 107.992188 76.703125 107.527344 74.253906 106.574219 71.976562 L 106.574219 71.085938 C 107.398438 70.246094 107.914062 69.15625 108.046875 67.988281 C 108.175781 66.238281 108.175781 64.484375 108.046875 62.738281 C 108.066406 61.5 107.617188 60.296875 106.785156 59.378906 C 105.910156 58.480469 104.578125 58.210938 103.425781 58.695312 C 101.929688 59.328125 100.957031 60.796875 100.957031 62.421875 L 100.957031 64.261719 C 99.101562 62.398438 96.863281 60.964844 94.394531 60.058594 C 92.980469 59.5625 91.519531 59.191406 90.039062 58.957031 L 86.835938 58.957031 C 84.765625 58.964844 82.710938 59.300781 80.746094 59.953125 C 79.644531 60.320312 78.644531 60.84375 77.542969 61.214844 C 77.3125 61.335938 77.039062 61.335938 76.808594 61.214844 C 74.453125 59.792969 71.90625 58.714844 69.246094 58.011719 C 67.996094 57.671875 66.710938 57.460938 65.414062 57.382812 C 62.789062 56.859375 60.164062 56.492188 57.960938 55.808594 C 55.984375 55.335938 54.105469 54.539062 52.394531 53.445312 C 52.277344 53.09375 52.058594 52.78125 51.765625 52.550781 Z M 101.378906 77.226562 C 101.378906 78.117188 99.75 78.328125 98.019531 77.855469 L 98.019531 79.691406 L 98.015625 79.695312 C 98.042969 79.902344 98.042969 80.117188 98.015625 80.324219 L 97.28125 80.324219 C 96.761719 79.902344 96.269531 79.449219 95.8125 78.960938 C 95.1875 79.230469 94.722656 79.773438 94.550781 80.429688 C 94.183594 81.425781 93.660156 81.53125 92.921875 80.429688 L 92.925781 80.429688 C 92.652344 80.15625 92.355469 79.910156 92.03125 79.695312 C 91.695312 80.175781 91.328125 80.628906 90.929688 81.058594 C 90.746094 81.277344 90.480469 81.410156 90.195312 81.425781 C 90.007812 81.242188 89.847656 81.03125 89.722656 80.796875 C 89.667969 80.433594 89.667969 80.058594 89.722656 79.695312 C 89.09375 81.324219 88.359375 82.6875 86.519531 83.054688 C 86.453125 82.367188 86.582031 81.675781 86.886719 81.058594 C 87.253906 80.429688 86.886719 81.058594 86.886719 80.691406 C 86.066406 81.480469 85.578125 82.550781 85.523438 83.683594 C 85.609375 85.957031 86.195312 88.183594 87.257812 90.195312 C 87.992188 92.03125 88.886719 93.816406 89.621094 95.445312 C 90.292969 97.109375 90.597656 98.898438 90.511719 100.695312 C 90.683594 102.558594 89.738281 104.351562 88.101562 105.261719 C 86.460938 106.171875 84.441406 106.027344 82.949219 104.894531 C 81.75 104.152344 80.699219 103.191406 79.851562 102.058594 C 79.117188 101.0625 78.382812 100.0625 77.75 99.066406 L 77.753906 99.066406 C 77.398438 98.335938 77.101562 97.582031 76.859375 96.808594 L 76.859375 96.074219 C 77.460938 96.039062 78.015625 96.402344 78.226562 96.96875 C 78.488281 97.390625 79.589844 99.070312 80.328125 100.066406 C 80.933594 101.273438 81.839844 102.304688 82.953125 103.058594 L 82.949219 103.058594 C 83.695312 103.371094 84.535156 103.375 85.28125 103.070312 C 86.03125 102.765625 86.628906 102.175781 86.941406 101.429688 L 86.941406 101.0625 C 87.386719 99.742188 87.253906 98.289062 86.574219 97.074219 C 85.683594 95.078125 84.578125 93.085938 83.582031 91.140625 L 83.578125 91.140625 C 82.425781 89.046875 81.628906 86.777344 81.21875 84.421875 C 81.15625 83.84375 81.15625 83.261719 81.21875 82.6875 C 80.429688 82.75 79.644531 82.75 78.855469 82.6875 L 76.492188 82.058594 L 75.390625 82.792969 C 75.441406 82.550781 75.441406 82.300781 75.390625 82.058594 C 75.414062 81.078125 74.886719 80.164062 74.023438 79.695312 C 73.472656 79.695312 73.027344 80.140625 73.027344 80.691406 C 72.949219 81.785156 73.472656 82.832031 74.390625 83.421875 L 76.492188 84.890625 C 77.226562 85.363281 77.121094 85.363281 77.488281 84.890625 C 77.539062 84.648438 77.539062 84.398438 77.488281 84.15625 C 78.484375 84.15625 78.851562 84.785156 78.957031 85.785156 C 79.199219 87.046875 79.535156 88.292969 79.953125 89.511719 L 79.957031 89.511719 C 80.003906 90.046875 79.832031 90.574219 79.484375 90.984375 C 78.835938 91.800781 77.984375 92.433594 77.015625 92.820312 C 76.222656 93.128906 75.34375 93.128906 74.550781 92.820312 C 75.007812 92.363281 75.5 91.941406 76.019531 91.558594 C 76.46875 91.105469 76.648438 90.449219 76.492188 89.828125 C 76.414062 89.625 76.234375 89.484375 76.019531 89.460938 C 75.53125 89.398438 75.039062 89.398438 74.550781 89.460938 C 74.171875 89.488281 73.8125 89.65625 73.550781 89.933594 C 72.691406 90.617188 71.777344 91.230469 70.824219 91.769531 C 69.222656 92.601562 67.273438 92.304688 65.992188 91.035156 C 65.542969 90.53125 65.203125 89.941406 64.996094 89.300781 L 64.628906 88.566406 C 64.441406 88.753906 64.230469 88.914062 63.996094 89.039062 C 63.734375 89.039062 63.628906 88.410156 63.996094 88.304688 C 64.148438 87.621094 64.363281 86.957031 64.625 86.308594 L 64.628906 86.308594 C 64.75 86.078125 64.75 85.804688 64.628906 85.574219 C 64.207031 84.992188 63.648438 84.523438 63 84.210938 C 62.527344 83.84375 62.109375 84.210938 61.738281 84.210938 L 61.109375 84.210938 C 61.121094 84 61.121094 83.789062 61.109375 83.578125 C 61.292969 82.453125 62.109375 81.53125 63.210938 81.21875 L 63.839844 81.21875 C 62.335938 80.644531 60.972656 79.746094 59.851562 78.59375 C 59.484375 78.226562 59.378906 77.964844 59.851562 77.597656 C 60.324219 77.230469 61.214844 76.390625 61.953125 75.863281 L 61.949219 75.863281 C 63.359375 75.363281 64.898438 75.363281 66.308594 75.863281 C 67.605469 76.292969 68.792969 77.007812 69.773438 77.964844 L 70.140625 78.332031 L 70.140625 78.328125 C 69.539062 76.507812 68.121094 75.070312 66.308594 74.445312 C 64.707031 73.851562 63.023438 73.511719 61.320312 73.449219 C 61.492188 72.796875 62.023438 72.308594 62.683594 72.1875 L 65.519531 71.664062 C 66.527344 71.4375 67.464844 70.96875 68.25 70.296875 C 67.742188 69.878906 67.199219 69.511719 66.621094 69.195312 C 65.152344 68.566406 63.628906 67.832031 62.160156 67.359375 C 60.824219 66.769531 59.410156 66.378906 57.960938 66.203125 C 55.9375 65.921875 53.949219 65.425781 52.027344 64.734375 C 49.710938 64.101562 47.496094 63.125 45.464844 61.84375 C 43.363281 60.480469 41.578125 58.695312 40.214844 56.59375 C 39.898438 56.050781 39.648438 55.46875 39.480469 54.863281 L 39.480469 54.234375 L 40.109375 54.234375 L 40.949219 54.707031 C 42.3125 55.808594 43.574219 57.175781 44.9375 58.171875 L 44.941406 58.171875 C 46.613281 59.386719 48.503906 60.277344 50.503906 60.796875 C 52.132812 61.164062 53.707031 61.53125 55.332031 61.792969 C 56.960938 62.054688 58.0625 61.792969 59.425781 62.160156 L 62.417969 62.527344 C 63.558594 62.605469 64.6875 62.816406 65.777344 63.15625 C 67.511719 63.785156 69.136719 64.519531 70.765625 65.152344 L 70.769531 65.152344 C 70.960938 65.277344 71.207031 65.277344 71.398438 65.152344 C 72.082031 65 72.746094 64.785156 73.394531 64.523438 L 73.394531 63.945312 C 72.183594 63.269531 70.941406 62.65625 69.667969 62.109375 C 67.28125 61.167969 64.769531 60.585938 62.210938 60.375 L 58.746094 60.007812 C 56.847656 59.691406 54.972656 59.253906 53.128906 58.695312 C 51.222656 58 49.449219 56.988281 47.878906 55.703125 C 46.558594 54.683594 45.574219 53.292969 45.046875 51.710938 L 45.046875 50.609375 C 45.332031 50.492188 45.652344 50.492188 45.9375 50.609375 L 47.300781 52.078125 C 48.035156 52.8125 48.769531 53.546875 49.664062 54.335938 C 51.742188 55.964844 54.136719 57.144531 56.699219 57.800781 C 58.167969 58.167969 59.691406 58.429688 61.160156 58.691406 C 63.523438 59.058594 65.988281 59.425781 68.351562 59.953125 L 68.355469 59.953125 C 71.15625 60.457031 73.769531 61.710938 75.914062 63.578125 C 76.804688 64.3125 77.542969 63.945312 78.382812 63.578125 C 79.296875 63.40625 80.214844 63.851562 80.640625 64.679688 C 81.269531 66.375 81.269531 68.234375 80.640625 69.929688 C 80.523438 70.574219 80.816406 71.21875 81.375 71.558594 L 82.003906 71.558594 C 83.496094 70.945312 85.203125 71.1875 86.46875 72.1875 C 86.867188 72.503906 87.433594 72.503906 87.832031 72.1875 C 88.863281 71.707031 89.863281 71.164062 90.824219 70.558594 C 91.820312 69.929688 91.296875 69.667969 91.558594 69.195312 C 92.292969 67.703125 93.90625 66.855469 95.550781 67.09375 C 96.679688 67.09375 97.808594 67.214844 98.910156 67.460938 C 99.804688 67.703125 100.746094 67.703125 101.640625 67.460938 C 102.796875 67.324219 103.730469 66.453125 103.949219 65.308594 L 103.949219 61.949219 C 103.949219 61.582031 103.949219 61.214844 104.578125 61.214844 C 105.207031 61.214844 105.050781 61.6875 105.050781 62.105469 C 105.429688 63.839844 105.429688 65.621094 105.050781 67.355469 L 105.050781 67.359375 C 104.835938 68.914062 103.410156 70.011719 101.851562 69.824219 L 97.386719 69.824219 C 96.136719 69.746094 95.019531 70.59375 94.761719 71.820312 C 94.703125 72.0625 94.703125 72.3125 94.761719 72.554688 C 95.128906 73.289062 95.390625 73.917969 96.496094 73.816406 C 97.085938 73.867188 97.546875 74.332031 97.597656 74.917969 C 97.832031 76.210938 98.910156 77.183594 100.222656 77.28125 L 101.378906 77.230469 Z M 72.136719 73.605469 C 72.765625 74.25 73.433594 74.867188 74.132812 75.441406 L 74.128906 75.441406 C 74.859375 75.992188 75.867188 75.992188 76.597656 75.441406 C 77.289062 75.03125 77.957031 74.574219 78.59375 74.078125 L 78.59375 73.710938 C 78.472656 73.230469 78.144531 72.824219 77.699219 72.609375 C 77.253906 72.488281 76.78125 72.488281 76.335938 72.609375 L 75.445312 72.976562 L 75.441406 72.976562 C 74.546875 73.214844 73.605469 73.214844 72.710938 72.976562 L 72.132812 73.605469 Z M 89.25 75.339844 L 89.25 75.335938 C 89.464844 75.515625 89.714844 75.640625 89.984375 75.703125 C 90.902344 75.878906 91.738281 76.363281 92.347656 77.070312 C 92.957031 77.128906 93.574219 77.128906 94.183594 77.070312 C 94.550781 77.070312 94.8125 76.703125 95.179688 76.597656 L 95.183594 76.597656 C 94.882812 76.234375 94.546875 75.902344 94.183594 75.601562 C 92.621094 74.941406 90.875 74.847656 89.25 75.335938 Z M 23.835938 91.507812 C 25.171875 92.9375 27.199219 93.503906 29.085938 92.976562 C 29.710938 92.792969 30.214844 92.328125 30.449219 91.71875 C 28.480469 92.171875 26.417969 91.910156 24.621094 90.984375 C 22.90625 90.003906 21.6875 88.34375 21.261719 86.414062 C 20.457031 83.546875 21.601562 80.484375 24.097656 78.855469 C 22.96875 82.480469 24.988281 86.332031 28.613281 87.464844 L 29.347656 87.464844 C 32.566406 88.136719 35.832031 86.535156 37.273438 83.578125 C 36.726562 84.003906 36.199219 84.460938 35.699219 84.945312 C 33.40625 86.519531 30.382812 86.519531 28.085938 84.945312 C 26.824219 84.113281 26.042969 82.71875 25.992188 81.207031 C 25.941406 79.695312 26.621094 78.25 27.824219 77.332031 C 27.96875 78.21875 28.507812 78.996094 29.296875 79.433594 C 30.066406 79.855469 30.898438 80.160156 31.761719 80.324219 C 33.671875 80.632812 35.613281 80.027344 37.011719 78.699219 C 37.773438 77.917969 38.363281 76.988281 38.746094 75.96875 C 39.742188 73.605469 40.480469 71.140625 41.582031 68.777344 L 41.578125 68.773438 C 42.292969 67.335938 43.082031 65.933594 43.941406 64.574219 C 43.941406 64.207031 44.414062 64.574219 44.675781 64.574219 L 47.40625 66.042969 L 49.140625 66.777344 L 48.40625 67.40625 L 48.40625 67.410156 C 46.761719 69.164062 45.347656 71.121094 44.203125 73.238281 C 43.3125 74.867188 42.46875 76.335938 41.734375 77.964844 C 41 79.59375 40.265625 81.691406 39.632812 83.53125 L 38.164062 87.730469 C 37.796875 88.832031 37.273438 89.832031 36.800781 90.933594 L 36.800781 90.929688 C 36.097656 92.527344 34.878906 93.839844 33.335938 94.65625 C 32.433594 95.097656 31.453125 95.363281 30.449219 95.445312 C 29.457031 95.570312 28.449219 95.570312 27.457031 95.445312 C 25.8125 95.320312 24.414062 94.191406 23.941406 92.609375 C 24.011719 92.238281 23.976562 91.855469 23.835938 91.507812 Z M 97.703125 87.308594 C 97.765625 87.886719 97.765625 88.464844 97.703125 89.042969 C 97.703125 89.777344 97.230469 89.777344 96.601562 89.410156 L 95.132812 88.675781 L 94.5 88.671875 C 94.929688 89.53125 94.929688 90.542969 94.5 91.402344 C 94.414062 91.65625 94.25 91.878906 94.027344 92.03125 L 93.449219 92.03125 L 93.082031 90.929688 C 92.816406 90.324219 92.117188 90.042969 91.507812 90.300781 C 91.019531 90.433594 90.558594 90.644531 90.140625 90.929688 L 89.40625 90.929688 C 88.5 89.195312 87.914062 87.308594 87.675781 85.363281 L 88.199219 85.992188 L 88.199219 85.996094 C 89.082031 86.667969 90.308594 86.667969 91.191406 85.996094 C 91.449219 85.445312 91.449219 84.8125 91.191406 84.261719 C 91.191406 83.894531 90.824219 83.632812 90.71875 83.265625 C 91.453125 83.265625 91.453125 82.636719 93.34375 84.894531 L 94.707031 84.160156 C 95.179688 84.160156 94.707031 83.425781 94.707031 83.164062 L 94.707031 82.0625 L 95.597656 82.429688 L 95.601562 82.425781 C 95.859375 82.511719 96.078125 82.675781 96.234375 82.898438 C 97.015625 83.78125 97.898438 84.574219 98.859375 85.261719 C 99.449219 85.75 99.777344 86.488281 99.75 87.253906 L 99.75 87.726562 L 99.382812 87.726562 C 98.070312 87.304688 98.070312 87.304688 97.703125 87.304688 Z M 35.699219 78.960938 C 34.6875 78.363281 33.507812 78.105469 32.339844 78.226562 C 31.851562 78.285156 31.359375 78.285156 30.871094 78.226562 C 30.25 78.121094 29.714844 77.734375 29.425781 77.175781 C 29.136719 76.617188 29.125 75.957031 29.398438 75.390625 C 29.871094 75.390625 30.289062 76.019531 30.761719 76.28125 C 31.234375 76.542969 31.390625 76.28125 31.390625 75.914062 L 31.394531 75.914062 C 31.359375 75.289062 31.714844 74.703125 32.289062 74.445312 C 33.101562 74.160156 34.007812 74.339844 34.648438 74.917969 C 35.707031 75.96875 36.117188 77.523438 35.699219 78.960938 Z M 35.699219 78.960938 "/>
</g>
</svg>
