<?xml version="1.0" encoding="UTF-8"?>
<svg xmlns="http://www.w3.org/2000/svg" xmlns:xlink="http://www.w3.org/1999/xlink" width="168pt" height="168pt" viewBox="0 0 168 168" version="1.1">
<g id="surface1056">
<path style=" stroke:none;fill-rule:evenodd;fill:rgb(96.862745%,57.647059%,10.196078%);fill-opacity:1;" d="M 168 84 C 168 130.390625 130.390625 168 84 168 C 37.609375 168 0 130.390625 0 84 C 0 37.609375 37.609375 0 84 0 C 130.390625 0 168 37.609375 168 84 "/>
<path style=" stroke:none;fill-rule:nonzero;fill:rgb(100%,100%,100%);fill-opacity:1;" d="M 121.742188 73.605469 C 123.390625 62.601562 115.007812 56.683594 103.550781 52.738281 L 107.269531 37.828125 L 98.199219 35.570312 L 94.578125 50.085938 C 92.195312 49.488281 89.75 48.929688 87.308594 48.375 L 90.957031 33.765625 L 81.878906 31.5 L 78.160156 46.40625 C 76.1875 45.953125 74.242188 45.515625 72.363281 45.042969 L 72.375 44.996094 L 59.859375 41.871094 L 57.445312 51.5625 C 57.445312 51.5625 64.179688 53.105469 64.039062 53.199219 C 67.714844 54.117188 68.375 56.546875 68.265625 58.480469 L 64.035156 75.464844 C 64.289062 75.527344 64.613281 75.621094 64.980469 75.765625 L 64.019531 75.53125 L 58.085938 99.324219 C 57.632812 100.4375 56.496094 102.113281 53.921875 101.476562 C 54.015625 101.609375 47.328125 99.832031 47.328125 99.832031 L 42.824219 110.214844 L 54.636719 113.160156 C 56.832031 113.710938 58.984375 114.289062 61.097656 114.828125 L 57.34375 129.90625 L 66.410156 132.164062 L 70.128906 117.253906 C 72.605469 117.921875 75.011719 118.539062 77.363281 119.128906 L 73.65625 133.976562 L 82.726562 136.234375 L 86.480469 121.1875 C 101.957031 124.117188 113.589844 122.9375 118.488281 108.9375 C 122.4375 97.671875 118.292969 91.167969 110.152344 86.929688 C 116.085938 85.566406 120.546875 81.664062 121.738281 73.605469 Z M 101.003906 102.679688 C 98.207031 113.953125 79.226562 107.855469 73.074219 106.328125 L 78.0625 86.351562 C 84.214844 87.890625 103.941406 90.929688 101.003906 102.679688 Z M 103.8125 73.441406 C 101.253906 83.695312 85.464844 78.480469 80.34375 77.207031 L 84.859375 59.09375 C 89.976562 60.371094 106.480469 62.746094 103.8125 73.441406 Z M 103.8125 73.441406 "/>
</g>
</svg>
