<?xml version="1.0" encoding="UTF-8"?>
<svg xmlns="http://www.w3.org/2000/svg" xmlns:xlink="http://www.w3.org/1999/xlink" width="168pt" height="168pt" viewBox="0 0 168 168" version="1.1">
<g id="surface2114">
<path style=" stroke:none;fill-rule:nonzero;fill:rgb(100%,40%,0%);fill-opacity:1;" d="M 168 84 C 168 130.390625 130.390625 168 84 168 C 37.609375 168 0 130.390625 0 84 C 0 37.609375 37.609375 0 84 0 C 130.390625 0 168 37.609375 168 84 "/>
<path style=" stroke:none;fill-rule:nonzero;fill:rgb(100%,100%,100%);fill-opacity:1;" d="M 89.660156 101.617188 C 116.332031 93.390625 106.8125 65.738281 89.660156 64.6875 C 94.019531 64.6875 97.578125 52.207031 97.578125 36.746094 C 139.453125 39.722656 159.125 108.730469 96.316406 130.316406 C 96.71875 124.714844 94.425781 109.082031 89.664062 101.613281 Z M 31.5 93.449219 L 31.5 64.746094 L 31.550781 64.746094 C 46.695312 64.6875 58.914062 52.144531 58.859375 36.804688 L 88.050781 36.804688 C 88.058594 68.128906 62.765625 93.449219 31.5 93.449219 Z M 69.757812 88.25 C 87.082031 102.488281 88.058594 126.464844 88.058594 131.246094 L 58.863281 131.246094 C 58.863281 115.378906 48.535156 102.542969 35.746094 102.542969 C 57.429688 99.046875 61.84375 95.371094 69.753906 88.253906 Z M 69.757812 88.25 "/>
</g>
</svg>
