<?xml version="1.0" encoding="UTF-8"?>
<svg xmlns="http://www.w3.org/2000/svg" xmlns:xlink="http://www.w3.org/1999/xlink" width="168pt" height="168pt" viewBox="0 0 168 168" version="1.1">
<g id="surface741">
<path style=" stroke:none;fill-rule:nonzero;fill:rgb(27.843137%,0%,76.078431%);fill-opacity:1;" d="M 168 84 C 168 130.390625 130.390625 168 84 168 C 37.609375 168 0 130.390625 0 84 C 0 37.609375 37.609375 0 84 0 C 130.390625 0 168 37.609375 168 84 "/>
<path style=" stroke:none;fill-rule:evenodd;fill:rgb(100%,100%,100%);fill-opacity:1;" d="M 71.832031 76.175781 C 70.203125 77.234375 68.339844 78.359375 66.410156 79.535156 L 66.410156 90.144531 C 68.164062 89.257812 69.96875 88.359375 71.832031 87.472656 L 71.832031 76.167969 Z M 44.707031 95.796875 L 44.703125 95.796875 C 45.730469 97.785156 48.160156 98.582031 50.164062 97.582031 L 55.234375 95.023438 C 55.265625 90.761719 55.285156 87.519531 55.285156 86.234375 L 55.285156 85.894531 C 50.980469 88.035156 47.714844 89.679688 46.460938 90.304688 C 44.460938 91.335938 43.675781 93.792969 44.703125 95.796875 Z M 73.367188 94.71875 L 73.363281 94.71875 C 73.359375 95.796875 73.785156 96.828125 74.542969 97.589844 C 75.300781 98.351562 76.332031 98.777344 77.40625 98.777344 L 77.453125 98.777344 C 79.691406 98.777344 81.507812 96.960938 81.507812 94.71875 L 81.507812 61.101562 L 81.507812 61.105469 C 81.503906 59.9375 81 58.824219 80.121094 58.054688 C 79.246094 57.28125 78.078125 56.925781 76.917969 57.078125 C 74.894531 57.328125 73.375 59.050781 73.378906 61.089844 L 73.378906 77.878906 C 73.363281 83.515625 73.363281 89.113281 73.363281 94.722656 Z M 73.367188 94.71875 "/>
<path style=" stroke:none;fill-rule:evenodd;fill:rgb(100%,100%,100%);fill-opacity:1;" d="M 131.171875 68.6875 C 130.914062 66.722656 129.613281 65.632812 127.632812 65.117188 C 126.058594 64.714844 124.429688 64.632812 122.769531 64.617188 C 118.90625 64.601562 115.074219 65.226562 111.273438 65.964844 C 105.78125 67.03125 100.351562 68.394531 95.015625 70.058594 C 93.402344 70.550781 91.8125 71.066406 90.203125 71.582031 L 90.1875 71.519531 L 90.476562 71.277344 C 93.585938 68.621094 96.671875 65.964844 99.800781 63.339844 C 106.65625 57.542969 112.839844 51.1875 118.585938 44.476562 C 120.152344 42.65625 121.5 40.707031 122.191406 38.484375 C 123.242188 35.152344 122.066406 33.078125 118.683594 32.140625 L 118.679688 32.144531 C 117.25 31.800781 115.777344 31.636719 114.304688 31.664062 C 111.082031 31.648438 107.898438 32.179688 104.753906 32.820312 C 101.472656 33.503906 96.722656 34.710938 93.503906 35.6875 C 88.355469 37.261719 81.992188 39.972656 76.308594 42.269531 C 73.410156 43.398438 70.324219 44.847656 67.4375 45.976562 L 56.523438 50.417969 C 42.035156 56.648438 37.816406 52.171875 37.816406 52.171875 C 37.816406 52.191406 37.820312 52.207031 37.832031 52.222656 C 37.804688 52.179688 37.78125 52.136719 37.769531 52.089844 C 34.949219 57.644531 37.296875 67.734375 53.59375 60.527344 C 56.15625 59.53125 58.757812 58.449219 61.304688 57.464844 C 66.214844 55.546875 71.074219 53.179688 76.003906 51.285156 L 76.003906 51.289062 C 79.394531 49.890625 82.8125 48.566406 86.257812 47.308594 L 89.367188 46.101562 C 92.554688 45.050781 95.742188 44.011719 98.992188 43.203125 C 102.535156 42.289062 105.628906 41.738281 107.496094 41.980469 C 107.683594 41.996094 107.878906 42.011719 108.058594 42.046875 C 108.910156 42.15625 109.359375 42.609375 109.28125 43.203125 C 109.25 44.121094 107.769531 47.167969 94.292969 58.386719 C 93.3125 59.226562 92.328125 60.078125 91.347656 60.910156 C 89.835938 62.21875 88.371094 63.503906 86.886719 64.796875 L 85.648438 65.890625 L 85.632812 65.90625 L 85.054688 66.421875 L 85.050781 66.417969 C 85.003906 66.464844 84.957031 66.507812 84.902344 66.550781 L 84.761719 66.675781 L 83.632812 67.53125 C 83.554688 67.605469 83.476562 67.675781 83.390625 67.742188 L 83.390625 81.984375 C 88.15625 80.355469 111.351562 72.617188 113.851562 74.886719 C 114.046875 75.148438 116.992188 76.980469 90.023438 95.429688 C 88.964844 96.234375 87.933594 97.035156 86.875 97.84375 L 82.972656 100.820312 C 78.09375 104.347656 73.25 107.886719 68.378906 111.414062 L 66.261719 112.941406 C 66.230469 116.789062 66.214844 120.476562 66.199219 123.863281 L 117.648438 85.894531 C 120.785156 83.25 123.757812 80.417969 126.550781 77.410156 C 128.125 75.726562 129.542969 73.933594 130.476562 71.890625 C 130.960938 70.824219 131.316406 69.796875 131.167969 68.6875 Z M 47.34375 127.078125 C 45.972656 128.785156 46.089844 131.253906 47.617188 132.824219 C 49.007812 134.296875 51.230469 134.605469 52.96875 133.566406 L 55.027344 132.054688 C 55.042969 128.960938 55.078125 125.199219 55.105469 121.132812 L 48.15625 126.289062 L 48.152344 126.289062 C 47.851562 126.519531 47.582031 126.78125 47.34375 127.078125 Z M 47.34375 127.078125 "/>
<path style=" stroke:none;fill-rule:evenodd;fill:rgb(100%,100%,100%);fill-opacity:1;" d="M 64.910156 67.960938 C 64.382812 65.988281 62.472656 64.714844 60.449219 64.984375 C 58.425781 65.234375 56.90625 66.957031 56.910156 68.996094 L 56.910156 85.785156 C 56.910156 89.183594 56.761719 106.039062 56.636719 120.027344 C 56.605469 124.039062 56.570312 127.800781 56.550781 130.949219 C 56.519531 134.9375 56.503906 137.933594 56.503906 139.15625 L 56.503906 139.152344 C 56.5 140.226562 56.925781 141.257812 57.683594 142.019531 C 58.441406 142.78125 59.472656 143.210938 60.546875 143.210938 L 60.59375 143.210938 C 61.671875 143.210938 62.703125 142.78125 63.464844 142.019531 C 64.226562 141.261719 64.652344 140.226562 64.652344 139.152344 C 64.652344 136.339844 64.683594 131.199219 64.714844 124.902344 C 64.730469 121.542969 64.765625 117.835938 64.777344 113.988281 C 64.894531 96.488281 65.050781 75.875 65.039062 68.996094 L 65.042969 68.996094 C 65.039062 68.648438 64.996094 68.300781 64.910156 67.960938 Z M 64.910156 67.960938 "/>
</g>
</svg>
