<?xml version="1.0" encoding="UTF-8"?>
<svg xmlns="http://www.w3.org/2000/svg" xmlns:xlink="http://www.w3.org/1999/xlink" width="168pt" height="168pt" viewBox="0 0 168 168" version="1.1">
<g id="surface76">
<path style=" stroke:none;fill-rule:evenodd;fill:rgb(15.294118%,17.647059%,38.823529%);fill-opacity:1;" d="M 168 84 C 168 130.390625 130.390625 168 84 168 C 37.609375 168 0 130.390625 0 84 C 0 37.609375 37.609375 0 84 0 C 130.390625 0 168 37.609375 168 84 "/>
<path style=" stroke:none;fill-rule:nonzero;fill:rgb(99.607843%,99.607843%,99.607843%);fill-opacity:1;" d="M 106.128906 37.800781 L 102.453125 52.722656 C 113.8125 56.691406 122.175781 62.644531 120.542969 73.671875 C 120.070312 77.019531 118.914062 80.375 116.53125 82.910156 C 114.488281 85.097656 111.296875 86.257812 108.570312 87.152344 L 108.574219 87.148438 C 105.308594 88.253906 101.890625 88.855469 98.441406 88.929688 C 96.132812 88.929688 93.882812 88.863281 91.574219 88.65625 C 87.835938 88.378906 84.023438 88.035156 80.355469 87.21875 C 79.199219 86.945312 78.109375 86.742188 77.089844 86.460938 L 72.125 106.515625 L 69.199219 117.46875 L 65.523438 132.460938 L 56.484375 130.203125 L 60.226562 115.074219 C 58.117188 114.527344 55.9375 113.914062 53.765625 113.363281 L 42 110.421875 L 46.488281 100.078125 C 46.488281 100.078125 53.15625 101.863281 53.082031 101.726562 C 55.671875 102.339844 56.757812 100.628906 57.230469 99.539062 L 62.332031 79 L 64.710938 69.488281 L 67.4375 58.535156 C 67.570312 56.617188 66.890625 54.15625 63.214844 53.265625 C 63.351562 53.199219 56.621094 51.621094 56.621094 51.621094 L 59 41.902344 L 71.441406 45.050781 C 73.351562 45.523438 75.253906 45.9375 77.226562 46.414062 L 80.902344 31.5 L 89.941406 33.757812 L 86.339844 48.40625 C 88.71875 48.957031 91.167969 49.503906 93.546875 50.117188 L 97.082031 35.539062 Z M 105.382812 91.875 C 107.898438 91.460938 110.957031 90.4375 113.132812 89.542969 C 113.199219 89.476562 113.34375 89.476562 113.40625 89.40625 C 118.101562 93.578125 120.339844 100.359375 117.28125 109.050781 C 112.453125 123.152344 100.828125 124.3125 85.457031 121.371094 L 81.714844 136.5 L 72.738281 134.242188 L 76.203125 119.800781 L 76.339844 119.324219 L 79.066406 108.230469 C 87.089844 110.015625 97.902344 111.175781 99.941406 102.824219 C 101.035156 98.378906 98.921875 95.160156 95.519531 92.832031 L 99.058594 92.621094 C 101.578125 92.488281 102.863281 92.285156 105.386719 91.871094 Z M 102.726562 73.527344 C 105.382812 62.78125 88.917969 60.453125 83.828125 59.089844 L 79.335938 77.292969 C 84.4375 78.59375 100.214844 83.796875 102.730469 73.527344 Z M 102.726562 73.527344 "/>
</g>
</svg>
