<?xml version="1.0" encoding="UTF-8"?>
<svg xmlns="http://www.w3.org/2000/svg" xmlns:xlink="http://www.w3.org/1999/xlink" width="168pt" height="168pt" viewBox="0 0 168 168" version="1.1">
<g id="surface1196">
<path style=" stroke:none;fill-rule:nonzero;fill:rgb(97.254902%,76.078431%,29.019608%);fill-opacity:1;" d="M 168 84 C 168 130.390625 130.390625 168 84 168 C 37.609375 168 0 130.390625 0 84 C 0 37.609375 37.609375 0 84 0 C 130.390625 0 168 37.609375 168 84 "/>
<path style=" stroke:none;fill-rule:nonzero;fill:rgb(100%,100%,100%);fill-opacity:1;" d="M 84 141.75 C 52.152344 141.75 26.25 115.847656 26.25 84 C 26.25 52.152344 52.167969 26.25 84 26.25 C 115.832031 26.25 141.75 52.167969 141.75 84 C 141.75 89.261719 141.035156 94.5 139.625 99.570312 C 138.886719 101.996094 136.347656 103.386719 133.90625 102.707031 C 131.46875 102.023438 130.019531 99.515625 130.644531 97.0625 C 131.824219 92.808594 132.429688 88.414062 132.425781 84 C 132.425781 57.296875 110.703125 35.574219 84 35.574219 C 57.296875 35.574219 35.574219 57.296875 35.574219 84 C 35.574219 110.703125 57.296875 132.425781 84 132.425781 C 88.996094 132.425781 93.96875 131.660156 98.730469 130.140625 C 99.917969 129.734375 101.222656 129.820312 102.34375 130.382812 C 103.464844 130.945312 104.3125 131.941406 104.695312 133.136719 C 105.074219 134.332031 104.957031 135.632812 104.367188 136.742188 C 103.773438 137.851562 102.761719 138.675781 101.554688 139.023438 C 95.878906 140.835938 89.957031 141.753906 84 141.75 Z M 101.71875 83.863281 C 103.714844 85.53125 105.058594 87.949219 105.75 91.101562 C 106.203125 92.917969 106.171875 94.824219 105.664062 96.625 L 105.667969 96.625 C 105.164062 98.296875 104.273438 99.824219 103.074219 101.089844 C 101.757812 102.457031 100.214844 103.589844 98.515625 104.433594 C 96.71875 105.363281 96.292969 105.660156 94.152344 106.132812 L 92.820312 106.453125 C 91.996094 106.652344 91.484375 107.476562 91.671875 108.300781 L 92.460938 111.828125 L 92.457031 111.832031 C 92.546875 112.234375 92.472656 112.65625 92.25 113.003906 C 92.027344 113.351562 91.675781 113.59375 91.269531 113.683594 L 87.714844 114.472656 L 87.71875 114.472656 C 87.316406 114.558594 86.894531 114.484375 86.546875 114.265625 C 86.199219 114.042969 85.953125 113.691406 85.863281 113.289062 L 85.085938 109.789062 C 84.996094 109.386719 84.753906 109.035156 84.40625 108.8125 C 84.058594 108.59375 83.636719 108.519531 83.234375 108.605469 L 73.609375 110.738281 C 71.566406 111.1875 69.546875 109.894531 69.09375 107.851562 L 60.429688 68.691406 L 60.433594 68.691406 C 59.984375 66.648438 61.277344 64.625 63.320312 64.175781 L 72.945312 62.042969 C 73.347656 61.957031 73.695312 61.710938 73.917969 61.363281 C 74.140625 61.015625 74.214844 60.59375 74.125 60.191406 L 73.335938 56.664062 C 73.25 56.261719 73.328125 55.839844 73.550781 55.492188 C 73.773438 55.144531 74.125 54.902344 74.527344 54.816406 L 78.082031 54.027344 C 78.484375 53.9375 78.90625 54.011719 79.253906 54.234375 C 79.601562 54.457031 79.847656 54.804688 79.9375 55.210938 L 80.714844 58.71875 L 80.714844 58.714844 C 80.902344 59.550781 81.730469 60.078125 82.566406 59.890625 L 85.507812 59.25 C 87.03125 58.894531 88.621094 58.917969 90.128906 59.328125 C 91.566406 59.722656 92.910156 60.394531 94.082031 61.308594 L 94.078125 61.308594 C 96.457031 63.207031 98.117188 65.867188 98.773438 68.839844 C 99.265625 71.042969 99.167969 73.34375 98.488281 75.507812 L 98.488281 75.503906 C 97.789062 77.75 96.375 79.703125 94.464844 81.070312 C 97.121094 81.195312 99.664062 82.171875 101.71875 83.863281 Z M 73.210938 75.480469 L 73.726562 77.71875 L 73.726562 77.714844 C 74.175781 79.757812 76.195312 81.050781 78.242188 80.601562 L 85.105469 79.078125 L 85.101562 79.082031 C 86.261719 78.832031 87.292969 78.167969 87.988281 77.207031 C 88.730469 76.21875 88.917969 74.898438 88.550781 73.234375 C 88.210938 71.703125 87.542969 70.609375 86.554688 69.957031 L 86.558594 69.957031 C 85.617188 69.3125 84.453125 69.09375 83.34375 69.359375 L 76.097656 70.960938 C 75.117188 71.175781 74.257812 71.773438 73.71875 72.621094 C 73.175781 73.46875 72.992188 74.496094 73.210938 75.480469 Z M 93.734375 95.257812 L 93.746094 95.257812 L 93.742188 95.257812 C 94.464844 94.085938 94.675781 92.671875 94.320312 91.34375 C 94.0625 90.003906 93.328125 88.796875 92.257812 87.949219 C 91.289062 87.144531 90.003906 86.839844 88.777344 87.128906 L 80.082031 89.054688 C 78.039062 89.503906 76.746094 91.527344 77.195312 93.570312 L 77.804688 96.335938 C 78.019531 97.320312 78.617188 98.175781 79.464844 98.71875 C 80.316406 99.261719 81.34375 99.441406 82.324219 99.226562 L 90.5625 97.40625 L 90.5625 97.402344 C 91.871094 97.15625 93.019531 96.378906 93.734375 95.257812 Z M 111.050781 123.519531 L 119.097656 113.902344 L 119.097656 113.898438 C 119.460938 113.464844 119.539062 112.859375 119.300781 112.347656 C 119.058594 111.835938 118.542969 111.507812 117.976562 111.511719 L 112.558594 111.511719 C 112.171875 111.511719 111.800781 111.359375 111.527344 111.085938 C 111.253906 110.8125 111.101562 110.441406 111.101562 110.054688 L 111.101562 108.921875 C 111.101562 108.117188 111.753906 107.46875 112.5625 107.46875 L 124.941406 107.46875 C 125.324219 107.46875 125.695312 107.621094 125.96875 107.894531 C 126.242188 108.167969 126.394531 108.535156 126.394531 108.921875 L 126.394531 110.414062 C 126.394531 110.742188 126.28125 111.058594 126.078125 111.316406 L 118.375 120.988281 L 118.378906 120.984375 C 118.027344 121.421875 117.960938 122.023438 118.203125 122.527344 C 118.445312 123.03125 118.957031 123.351562 119.515625 123.347656 L 125.035156 123.347656 C 125.839844 123.347656 126.496094 124 126.496094 124.800781 L 126.496094 125.929688 L 126.492188 125.933594 C 126.492188 126.316406 126.339844 126.6875 126.066406 126.960938 C 125.792969 127.234375 125.421875 127.386719 125.035156 127.386719 L 112.160156 127.386719 C 111.359375 127.386719 110.707031 126.734375 110.707031 125.933594 L 110.707031 124.460938 C 110.707031 124.117188 110.828125 123.78125 111.046875 123.515625 Z M 111.050781 123.519531 "/>
</g>
</svg>
