<?xml version="1.0" encoding="UTF-8"?>
<svg xmlns="http://www.w3.org/2000/svg" xmlns:xlink="http://www.w3.org/1999/xlink" width="168pt" height="168pt" viewBox="0 0 168 168" version="1.1">
<g id="surface71">
<path style=" stroke:none;fill-rule:nonzero;fill:rgb(0%,66.666667%,100%);fill-opacity:1;" d="M 168 84 C 168 130.390625 130.390625 168 84 168 C 37.609375 168 0 130.390625 0 84 C 0 37.609375 37.609375 0 84 0 C 130.390625 0 168 37.609375 168 84 "/>
<path style=" stroke:none;fill-rule:nonzero;fill:rgb(100%,100%,100%);fill-opacity:1;" d="M 83.800781 25.933594 C 51.839844 25.933594 25.933594 51.839844 25.933594 83.800781 C 25.933594 115.757812 51.835938 141.671875 83.800781 141.671875 C 115.757812 141.671875 141.671875 115.757812 141.671875 83.800781 C 141.671875 51.839844 115.757812 25.933594 83.800781 25.933594 Z M 83.984375 35.101562 C 93.382812 35.097656 102.1875 39.6875 107.566406 47.394531 C 112.949219 55.097656 114.222656 64.945312 110.984375 73.769531 C 105.960938 72.886719 100.796875 74.082031 96.671875 77.085938 C 100.28125 73.636719 102.316406 68.863281 102.3125 63.871094 C 102.3125 59.007812 100.378906 54.339844 96.941406 50.898438 C 93.5 47.460938 88.839844 45.523438 83.972656 45.515625 C 79.433594 45.519531 75.054688 47.207031 71.6875 50.25 C 68.316406 53.296875 66.199219 57.480469 65.734375 61.996094 C 62.285156 61.382812 58.757812 61.34375 55.296875 61.890625 C 55.796875 54.625 59.035156 47.816406 64.359375 42.84375 C 69.683594 37.871094 76.699219 35.101562 83.984375 35.101562 Z M 94.5625 89.132812 L 84.386719 83.042969 C 83.710938 82.636719 82.863281 82.644531 82.195312 83.058594 L 73.269531 88.570312 L 73.269531 88.574219 C 72.554688 89.007812 72.167969 89.824219 72.28125 90.652344 C 72.757812 94.085938 71.753906 97.558594 69.523438 100.210938 C 67.292969 102.863281 64.042969 104.445312 60.578125 104.5625 C 57.277344 104.667969 54.074219 103.425781 51.703125 101.125 C 49.332031 98.824219 47.996094 95.65625 48 92.351562 C 48.039062 85.710938 53.359375 80.304688 60.003906 80.164062 C 63.550781 80.101562 66.953125 81.59375 69.308594 84.246094 C 69.960938 84.980469 71.042969 85.136719 71.890625 84.667969 L 80.488281 79.84375 L 80.492188 79.84375 C 81.15625 79.464844 81.570312 78.761719 81.574219 78 L 81.574219 77.472656 C 81.570312 76.566406 80.984375 75.761719 80.121094 75.472656 C 74.335938 73.546875 70.863281 67.644531 71.980469 61.652344 C 73.09375 55.660156 78.460938 51.410156 84.550781 51.691406 C 90.703125 52.007812 95.664062 56.847656 96.132812 62.988281 C 96.570312 68.863281 92.742188 74.207031 87.046875 75.6875 C 86.101562 75.921875 85.4375 76.765625 85.429688 77.738281 L 85.429688 77.828125 C 85.429688 78.5625 85.816406 79.242188 86.4375 79.628906 L 95.472656 85.183594 L 95.472656 85.179688 C 96.371094 85.738281 97.546875 85.542969 98.210938 84.71875 C 100.59375 81.75 104.222656 80.058594 108.027344 80.152344 C 114.769531 80.410156 120.023438 86.085938 119.765625 92.828125 C 119.507812 99.570312 113.832031 104.824219 107.089844 104.5625 C 103.757812 104.382812 100.644531 102.847656 98.46875 100.316406 C 96.296875 97.785156 95.25 94.476562 95.570312 91.15625 C 95.65625 90.34375 95.261719 89.554688 94.5625 89.132812 Z M 60.191406 120.804688 L 60.191406 120.808594 C 52.640625 120.808594 45.398438 117.8125 40.058594 112.472656 C 34.71875 107.136719 31.71875 99.894531 31.71875 92.34375 C 31.714844 83.835938 35.515625 75.773438 42.082031 70.359375 C 48.644531 64.949219 57.285156 62.761719 65.636719 64.390625 C 65.773438 69.203125 67.796875 73.769531 71.273438 77.101562 C 68.0625 74.753906 64.183594 73.492188 60.207031 73.5 C 53.550781 73.609375 47.445312 77.226562 44.148438 83.011719 C 40.851562 88.796875 40.851562 95.894531 44.148438 101.675781 C 47.445312 107.460938 53.550781 111.078125 60.207031 111.191406 C 63.972656 111.1875 67.652344 110.058594 70.769531 107.941406 C 73.886719 105.828125 76.296875 102.824219 77.691406 99.324219 C 78.589844 103.242188 80.25 106.859375 82.484375 110.050781 C 77.089844 116.859375 68.875 120.824219 60.191406 120.8125 Z M 107.734375 120.804688 L 107.734375 120.808594 C 100.519531 120.808594 93.574219 118.066406 88.300781 113.140625 C 83.027344 108.214844 79.820312 101.472656 79.328125 94.273438 C 82.53125 94.761719 85.792969 94.742188 88.992188 94.214844 C 89.449219 98.78125 91.550781 103.023438 94.910156 106.148438 C 98.269531 109.273438 102.65625 111.0625 107.242188 111.1875 C 111.828125 111.3125 116.300781 109.757812 119.824219 106.816406 C 123.34375 103.878906 125.675781 99.753906 126.375 95.222656 C 127.074219 90.6875 126.097656 86.054688 123.625 82.1875 C 121.152344 78.324219 117.351562 75.496094 112.941406 74.230469 C 114.035156 71.179688 114.636719 67.976562 114.71875 64.738281 C 123.753906 67.039062 131.089844 73.625 134.359375 82.359375 C 137.625 91.09375 136.40625 100.875 131.097656 108.542969 C 125.789062 116.210938 117.0625 120.792969 107.734375 120.808594 Z M 107.734375 120.804688 "/>
<path style=" stroke:none;fill-rule:nonzero;fill:rgb(100%,100%,100%);fill-opacity:1;" d="M 84 15.75 C 46.308594 15.75 15.75 46.308594 15.75 84 C 15.75 121.691406 46.308594 152.25 84 152.25 C 121.691406 152.25 152.25 121.691406 152.25 84 C 152.25 46.308594 121.691406 15.75 84 15.75 Z M 83.800781 147.117188 C 48.835938 147.117188 20.496094 118.777344 20.496094 83.8125 C 20.496094 48.847656 48.835938 20.511719 83.800781 20.511719 C 118.761719 20.511719 147.101562 48.851562 147.101562 83.8125 C 147.101562 118.777344 118.761719 147.117188 83.800781 147.117188 Z M 83.800781 147.117188 "/>
</g>
</svg>
