<?xml version="1.0" encoding="UTF-8"?>
<svg xmlns="http://www.w3.org/2000/svg" xmlns:xlink="http://www.w3.org/1999/xlink" width="168pt" height="168pt" viewBox="0 0 168 168" version="1.1">
<g id="surface1636">
<path style=" stroke:none;fill-rule:nonzero;fill:rgb(92.156863%,65.882353%,3.529412%);fill-opacity:1;" d="M 168 84 C 168 130.390625 130.390625 168 84 168 C 37.609375 168 0 130.390625 0 84 C 0 37.609375 37.609375 0 84 0 C 130.390625 0 168 37.609375 168 84 "/>
<path style=" stroke:none;fill-rule:evenodd;fill:rgb(100%,100%,100%);fill-opacity:1;" d="M 84 141.75 C 52.105469 141.75 26.25 115.894531 26.25 84 C 26.25 52.105469 52.105469 26.25 84 26.25 C 115.894531 26.25 141.75 52.105469 141.75 84 C 141.75 115.894531 115.894531 141.75 84 141.75 Z M 78.8125 35.386719 C 78.824219 39.980469 78.824219 44.574219 78.824219 49.167969 L 85.703125 49.179688 C 85.71875 44.46875 85.730469 39.757812 85.703125 35.046875 C 83.410156 35.125 81.105469 35.234375 78.816406 35.386719 Z M 95.359375 49.386719 C 101.40625 50.199219 107.90625 51.125 112.722656 55.203125 C 120.078125 61.800781 119.128906 75.65625 110.125 80.441406 C 115.515625 81.703125 120.855469 85.289062 122.183594 90.953125 C 123.917969 98.375 122.539062 107.28125 116.570312 112.507812 C 110.660156 117.363281 102.65625 118.003906 95.34375 118.703125 C 95.375 122.996094 95.363281 127.292969 95.355469 131.597656 C 110.738281 127.84375 124.019531 116.398438 129.664062 101.59375 C 135.019531 87.933594 133.757812 71.863281 126.1875 59.277344 C 119.503906 47.9375 108.144531 39.589844 95.386719 36.398438 C 95.355469 40.730469 95.355469 45.0625 95.367188 49.386719 Z M 49.441406 49.203125 C 56.109375 49.519531 62.777344 49.457031 69.445312 49.445312 C 69.445312 45.390625 69.460938 41.339844 69.425781 37.285156 C 61.960938 39.707031 55.3125 44.046875 49.4375 49.203125 Z M 41.660156 59.652344 C 33.820312 72.988281 32.941406 90.097656 39.476562 104.128906 C 45.121094 116.707031 56.320312 126.492188 69.429688 130.710938 C 69.457031 126.667969 69.445312 122.617188 69.445312 118.574219 C 62.75 118.507812 56.042969 118.753906 49.363281 118.390625 C 49.4375 114.664062 50.308594 111.019531 51.585938 107.519531 C 54.863281 107.453125 58.28125 108.023438 61.445312 106.957031 C 63.292969 105.402344 62.769531 102.835938 62.863281 100.710938 C 62.769531 88.5625 62.914062 76.410156 62.800781 64.261719 C 62.921875 62.304688 61.691406 60.1875 59.652344 59.800781 C 56.292969 59.132812 52.84375 59.398438 49.445312 59.375 C 49.046875 56.644531 49.003906 53.878906 48.957031 51.113281 L 48.957031 51.101562 C 49.066406 50.535156 48.929688 49.949219 48.582031 49.488281 C 46.660156 53.132812 43.605469 56.015625 41.664062 59.648438 Z M 79.09375 60.183594 L 79.09375 78.097656 C 85.085938 77.992188 91.726562 78.652344 96.964844 75.179688 C 101.3125 72.339844 101.035156 65.132812 96.542969 62.578125 C 91.304688 59.46875 84.910156 60.351562 79.097656 60.183594 Z M 79.09375 87.734375 L 79.09375 107.605469 C 86.484375 107.007812 94.78125 108.25 101.210938 103.792969 C 105.808594 100.742188 105.257812 93.191406 100.519531 90.550781 C 94.078125 86.703125 86.25 87.925781 79.097656 87.730469 Z M 78.824219 118.839844 C 78.824219 123.433594 78.8125 128.027344 78.796875 132.632812 C 81.191406 132.789062 83.585938 132.886719 85.980469 132.949219 C 86 128.25 85.992188 123.546875 85.992188 118.84375 L 78.824219 118.84375 Z M 78.824219 118.839844 "/>
</g>
</svg>
