<?xml version="1.0" encoding="UTF-8"?>
<svg xmlns="http://www.w3.org/2000/svg" xmlns:xlink="http://www.w3.org/1999/xlink" width="168pt" height="168pt" viewBox="0 0 168 168" version="1.1">
<g id="surface1476">
<path style=" stroke:none;fill-rule:nonzero;fill:rgb(31.372549%,29.803922%,29.803922%);fill-opacity:1;" d="M 168 84 C 168 130.390625 130.390625 168 84 168 C 37.609375 168 0 130.390625 0 84 C 0 37.609375 37.609375 0 84 0 C 130.390625 0 168 37.609375 168 84 "/>
<path style=" stroke:none;fill-rule:nonzero;fill:rgb(100%,100%,100%);fill-opacity:1;" d="M 56.839844 80.722656 L 47.679688 100.136719 L 51.941406 116.054688 L 62.789062 118.953125 L 76.25 132.429688 L 72.195312 136.5 L 40.105469 127.890625 L 31.5 95.800781 L 37.957031 89.355469 L 66.003906 61.304688 L 56.84375 80.722656 L 47.683594 100.136719 L 76.253906 71.566406 L 66.007812 61.300781 L 56.847656 80.71875 Z M 71.566406 91.746094 L 100.136719 120.316406 L 116.054688 116.054688 L 118.964844 105.207031 L 132.429688 91.746094 L 136.5 95.800781 L 127.902344 127.898438 L 95.800781 136.5 L 61.3125 101.996094 L 71.566406 91.75 Z M 96.429688 76.25 L 67.859375 47.679688 L 51.929688 51.941406 L 49.03125 62.773438 L 35.566406 76.25 L 31.5 72.199219 L 40.109375 40.101562 L 72.199219 31.5 L 78.644531 37.957031 L 106.679688 65.992188 L 96.433594 76.25 Z M 105.210938 49.035156 L 91.75 35.570312 L 95.804688 31.5 L 127.902344 40.097656 L 136.5 72.199219 L 101.996094 106.6875 L 91.75 96.433594 L 120.332031 67.851562 L 116.058594 51.933594 Z M 105.210938 49.035156 "/>
</g>
</svg>
