<?xml version="1.0" encoding="UTF-8"?>
<svg xmlns="http://www.w3.org/2000/svg" xmlns:xlink="http://www.w3.org/1999/xlink" width="168pt" height="168pt" viewBox="0 0 168 168" version="1.1">
<g id="surface116">
<path style=" stroke:none;fill-rule:nonzero;fill:rgb(20.784314%,72.941176%,92.156863%);fill-opacity:1;" d="M 168 84 C 168 130.390625 130.390625 168 84 168 C 37.609375 168 0 130.390625 0 84 C 0 37.609375 37.609375 0 84 0 C 130.390625 0 168 37.609375 168 84 "/>
<path style=" stroke:none;fill-rule:nonzero;fill:rgb(100%,100%,100%);fill-opacity:1;" d="M 47.40625 26.25 L 80.34375 55.464844 C 80.726562 55.816406 81.140625 56.109375 81.460938 56.488281 L 81.464844 56.488281 C 81.5 56.714844 81.515625 56.941406 81.511719 57.167969 C 81.496094 69.753906 81.542969 82.324219 81.496094 94.894531 C 79.847656 95.234375 78.269531 95.84375 76.824219 96.703125 L 47.722656 67.609375 C 47.496094 67.425781 47.378906 67.132812 47.414062 66.84375 C 47.445312 53.308594 47.414062 39.785156 47.445312 26.261719 Z M 86.503906 71.4375 C 94.480469 71.96875 102.0625 75.101562 108.09375 80.351562 C 106.378906 82.1875 104.523438 83.921875 102.75 85.722656 C 99 89.460938 95.277344 93.230469 91.515625 96.929688 L 91.511719 96.929688 C 89.992188 95.9375 88.296875 95.246094 86.515625 94.894531 C 86.472656 87.085938 86.515625 79.265625 86.515625 71.4375 Z M 47.421875 74.945312 C 55.96875 83.414062 64.464844 91.941406 72.996094 100.421875 C 72 101.96875 71.285156 103.675781 70.886719 105.476562 L 47.40625 105.476562 L 47.40625 74.925781 L 47.421875 74.941406 Z M 108.351562 87.195312 C 109.46875 86.125 110.492188 84.972656 111.675781 83.941406 L 111.679688 83.9375 C 116.929688 89.941406 120.0625 97.503906 120.601562 105.460938 C 112.898438 105.492188 105.183594 105.460938 97.480469 105.476562 C 97.019531 105.582031 97.019531 105.046875 96.929688 104.757812 C 96.5625 103.238281 95.921875 101.796875 95.046875 100.5 C 99.457031 96.058594 103.914062 91.632812 108.355469 87.207031 L 108.355469 87.191406 Z M 47.40625 110.46875 L 67.464844 110.46875 C 68.613281 110.46875 69.765625 110.417969 70.929688 110.496094 C 71.285156 112.269531 71.980469 113.960938 72.960938 115.472656 L 56.6875 131.707031 C 56.566406 131.800781 56.367188 132.089844 56.226562 131.863281 C 51.035156 125.886719 47.9375 118.371094 47.40625 110.46875 Z M 97.082031 110.496094 C 100.390625 110.421875 103.664062 110.496094 106.972656 110.46875 L 120.601562 110.46875 C 120.085938 118.304688 117.035156 125.761719 111.902344 131.707031 L 102.410156 122.246094 C 100.039062 119.855469 97.617188 117.511719 95.269531 115.089844 C 96.144531 113.683594 96.761719 112.125 97.082031 110.496094 Z M 90.5 119.578125 C 90.867188 119.367188 91.234375 119.148438 91.601562 118.964844 L 108.171875 135.503906 C 102.132812 140.796875 94.515625 143.949219 86.503906 144.464844 L 86.503906 121.035156 C 87.898438 120.753906 89.242188 120.257812 90.484375 119.5625 Z M 66.398438 128.996094 C 69.769531 125.65625 73.101562 122.277344 76.503906 118.96875 C 78.027344 119.945312 79.722656 120.648438 81.492188 121.03125 L 81.492188 144.464844 C 73.511719 143.945312 65.925781 140.8125 59.902344 135.550781 C 62.019531 133.328125 64.238281 131.203125 66.398438 129.015625 Z M 66.398438 128.996094 "/>
</g>
</svg>
