<?xml version="1.0" encoding="UTF-8"?>
<svg xmlns="http://www.w3.org/2000/svg" xmlns:xlink="http://www.w3.org/1999/xlink" width="168pt" height="168pt" viewBox="0 0 168 168" version="1.1">
<g id="surface311">
<path style=" stroke:none;fill-rule:nonzero;fill:rgb(0%,0%,0%);fill-opacity:1;" d="M 168 84 C 168 130.390625 130.390625 168 84 168 C 37.609375 168 0 130.390625 0 84 C 0 37.609375 37.609375 0 84 0 C 130.390625 0 168 37.609375 168 84 "/>
<path style=" stroke:none;fill-rule:nonzero;fill:rgb(100%,100%,100%);fill-opacity:1;" d="M 145.652344 71.078125 C 144.820312 67.046875 143.59375 63.105469 141.984375 59.316406 C 140.402344 55.582031 138.464844 52.007812 136.199219 48.640625 C 133.953125 45.316406 131.394531 42.21875 128.550781 39.386719 C 125.71875 36.542969 122.617188 33.980469 119.289062 31.734375 C 115.921875 29.484375 112.347656 27.546875 108.621094 25.949219 C 93.050781 19.347656 75.464844 19.347656 59.890625 25.949219 C 52.4375 29.09375 45.671875 33.660156 39.964844 39.390625 C 37.121094 42.222656 34.558594 45.320312 32.3125 48.640625 C 30.058594 52.011719 28.125 55.585938 26.527344 59.316406 C 19.921875 74.886719 19.921875 92.472656 26.527344 108.046875 C 28.070312 111.773438 30.066406 115.308594 32.3125 118.714844 C 34.558594 122.039062 37.121094 125.140625 39.964844 127.972656 C 42.796875 130.816406 45.898438 133.378906 49.222656 135.625 C 52.5625 137.871094 56.164062 139.804688 59.890625 141.410156 C 75.464844 148.011719 93.050781 148.011719 108.621094 141.410156 C 112.347656 139.867188 115.882812 137.871094 119.289062 135.625 C 122.617188 133.378906 125.71875 130.816406 128.550781 127.972656 C 131.394531 125.140625 133.957031 122.039062 136.199219 118.714844 C 138.445312 115.375 140.378906 111.773438 141.984375 108.046875 C 146.933594 96.382812 148.210938 83.488281 145.652344 71.078125 Z M 84.316406 138.515625 C 54.039062 138.515625 29.546875 113.957031 29.546875 83.742188 C 29.546875 53.527344 54.105469 28.96875 84.316406 28.96875 C 114.53125 28.96875 139.089844 53.527344 139.089844 83.742188 C 139.089844 113.957031 114.535156 138.515625 84.316406 138.515625 Z M 84.316406 138.515625 "/>
<path style=" stroke:none;fill-rule:nonzero;fill:rgb(100%,100%,100%);fill-opacity:1;" d="M 85.285156 133.757812 L 86.765625 133.757812 C 87.023438 133.757812 87.273438 133.757812 87.53125 133.691406 L 87.597656 133.691406 C 87.855469 133.691406 88.042969 133.691406 88.300781 133.628906 L 88.496094 133.628906 C 88.691406 133.628906 88.882812 133.628906 89.074219 133.566406 L 89.269531 133.566406 C 89.464844 133.566406 89.65625 133.503906 89.914062 133.503906 L 90.039062 133.503906 C 90.296875 133.503906 90.554688 133.4375 90.8125 133.4375 C 91.070312 133.4375 91.265625 133.375 91.519531 133.3125 L 91.644531 133.3125 C 91.839844 133.3125 92.03125 133.25 92.222656 133.25 L 92.355469 133.25 C 92.613281 133.183594 92.808594 133.183594 93.0625 133.117188 C 93.570312 133.054688 94.085938 132.921875 94.539062 132.796875 L 94.671875 132.796875 C 94.859375 132.734375 95.117188 132.734375 95.3125 132.664062 L 95.375 132.664062 C 95.890625 132.539062 96.339844 132.40625 96.855469 132.28125 L 96.855469 132.277344 C 92.042969 132.433594 87.226562 131.976562 82.523438 130.929688 C 75.445312 129.386719 68.699219 126.625 62.976562 121.863281 L 62.980469 121.863281 C 53.84375 114.261719 48.605469 102.957031 48.710938 91.070312 C 48.753906 82.316406 51.871094 73.855469 57.515625 67.15625 C 64.84375 58.476562 75.261719 53.910156 85.929688 53.652344 L 87.410156 53.652344 L 87.40625 45.109375 L 85.738281 45.109375 C 82.492188 45.167969 79.261719 45.554688 76.09375 46.261719 C 72.90625 46.984375 69.804688 48.039062 66.835938 49.414062 C 63.8125 50.832031 60.980469 52.5625 58.347656 54.558594 C 55.625 56.628906 53.144531 59 50.957031 61.628906 C 48.894531 64.0625 47.105469 66.714844 45.621094 69.535156 C 44.152344 72.257812 42.96875 75.121094 42.085938 78.082031 C 41.214844 81 40.636719 83.996094 40.351562 87.023438 L 40.15625 89.847656 L 40.15625 91.515625 C 40.21875 94.796875 40.609375 98.011719 41.3125 101.160156 C 42.019531 104.378906 43.113281 107.460938 44.460938 110.421875 C 46.074219 113.957031 48.964844 119.164062 53.269531 123.085938 L 53.273438 123.085938 C 62.0625 130.015625 72.933594 133.777344 84.125 133.757812 Z M 85.285156 133.757812 "/>
<path style=" stroke:none;fill-rule:nonzero;fill:rgb(100%,100%,100%);fill-opacity:1;" d="M 99.296875 125.527344 C 96.128906 125.414062 92.96875 125.070312 89.847656 124.5 C 76.605469 122.121094 65.226562 114.019531 61.050781 101.808594 C 55.96875 86.957031 63.75 70.886719 78.535156 66.003906 C 81.351562 65.058594 84.304688 64.578125 87.277344 64.585938 C 91.074219 64.585938 94.863281 65.359375 98.339844 66.769531 L 101.9375 59.121094 L 101.933594 59.121094 C 100.851562 58.6875 99.761719 58.28125 98.65625 57.902344 C 94.976562 56.746094 91.136719 56.160156 87.277344 56.164062 C 83.410156 56.171875 79.566406 56.800781 75.898438 58.027344 C 71.21875 59.570312 66.90625 62.066406 63.234375 65.355469 C 61.464844 66.933594 59.851562 68.679688 58.417969 70.566406 C 56.996094 72.429688 55.769531 74.433594 54.753906 76.546875 C 52.679688 80.789062 51.457031 85.398438 51.152344 90.109375 C 50.832031 94.992188 51.472656 99.875 53.078125 104.503906 L 53.078125 104.507812 C 54.714844 109.269531 57.34375 113.632812 60.796875 117.300781 C 63.945312 120.707031 67.613281 123.28125 72.042969 125.660156 C 76.671875 128.101562 82.394531 129.386719 88.371094 130.226562 C 92.230469 130.734375 97.375 130.867188 100.394531 130.867188 C 103.03125 129.902344 104.121094 129.449219 105.539062 128.871094 C 106.761719 128.292969 107.980469 127.714844 109.203125 127.007812 C 110.425781 126.300781 110.621094 126.167969 112.671875 124.824219 C 112.851562 124.710938 113.023438 124.582031 113.183594 124.433594 C 106.113281 125.65625 104.3125 125.589844 99.296875 125.527344 Z M 99.296875 125.527344 "/>
<path style=" stroke:none;fill-rule:nonzero;fill:rgb(100%,100%,100%);fill-opacity:1;" d="M 115.117188 115.953125 C 113.121094 116.078125 110.292969 116.269531 107.078125 116.269531 C 101.355469 116.269531 94.347656 115.761719 88.371094 113.765625 C 79.109375 110.683594 70.367188 102.777344 70.367188 93 L 70.371094 93 C 70.367188 88.324219 72.222656 83.84375 75.523438 80.539062 C 78.828125 77.234375 83.3125 75.378906 87.984375 75.382812 C 94.605469 75.382812 100.328125 79.046875 103.351562 84.382812 L 111 80.59375 C 109.800781 78.335938 108.261719 76.273438 106.433594 74.488281 C 101.542969 69.589844 94.90625 66.835938 87.980469 66.835938 C 81.058594 66.835938 74.421875 69.589844 69.53125 74.488281 C 64.632812 79.378906 61.882812 86.015625 61.882812 92.933594 C 61.898438 96.527344 62.667969 100.074219 64.140625 103.351562 C 65.484375 106.308594 67.355469 109.074219 69.730469 111.648438 C 73.910156 116.140625 79.625 119.742188 85.738281 121.800781 C 91.585938 123.726562 100.203125 124.4375 108.558594 123.859375 C 110.867188 123.664062 112.605469 123.472656 115.5625 122.832031 L 115.5625 122.828125 C 118.414062 120.578125 121.003906 118.011719 123.28125 115.179688 C 121.285156 115.375 117.621094 115.757812 115.117188 115.953125 Z M 115.117188 115.953125 "/>
</g>
</svg>
