<?xml version="1.0" encoding="UTF-8"?>
<svg xmlns="http://www.w3.org/2000/svg" xmlns:xlink="http://www.w3.org/1999/xlink" width="168pt" height="168pt" viewBox="0 0 168 168" version="1.1">
<g id="surface1306">
<path style=" stroke:none;fill-rule:evenodd;fill:rgb(98.431373%,18.039216%,63.921569%);fill-opacity:1;" d="M 168 84 C 168 130.390625 130.390625 168 84 168 C 37.609375 168 0 130.390625 0 84 C 0 37.609375 37.609375 0 84 0 C 130.390625 0 168 37.609375 168 84 "/>
<path style=" stroke:none;fill-rule:nonzero;fill:rgb(100%,100%,100%);fill-opacity:1;" d="M 118.816406 73.605469 C 117.625 81.664062 113.15625 85.566406 107.230469 86.929688 C 115.367188 91.167969 119.515625 97.671875 115.566406 108.9375 C 110.667969 122.933594 99.035156 124.109375 83.5625 121.1875 L 79.800781 136.238281 L 70.730469 133.976562 L 74.4375 119.128906 L 74.433594 119.128906 C 72.015625 118.527344 69.605469 117.902344 67.199219 117.25 L 63.480469 132.171875 L 54.414062 129.914062 L 58.171875 114.832031 C 56.050781 114.292969 53.898438 113.714844 51.699219 113.164062 L 39.890625 110.222656 L 44.394531 99.828125 C 44.394531 99.828125 51.082031 101.613281 50.988281 101.476562 C 53.5625 102.113281 54.699219 100.4375 55.152344 99.324219 L 61.085938 75.53125 L 62.046875 75.765625 L 62.050781 75.761719 C 61.742188 75.640625 61.425781 75.542969 61.105469 75.464844 L 65.335938 58.480469 C 65.445312 56.546875 64.785156 54.121094 61.109375 53.199219 C 61.25 53.105469 54.515625 51.5625 54.515625 51.5625 L 56.929688 41.871094 L 69.445312 44.996094 L 69.433594 45.046875 C 71.3125 45.507812 73.253906 45.957031 75.230469 46.40625 L 78.953125 31.5 L 88.023438 33.757812 L 84.378906 48.375 C 86.808594 48.929688 89.261719 49.488281 91.644531 50.085938 L 95.265625 35.570312 L 104.335938 37.828125 L 100.617188 52.738281 C 112.078125 56.6875 120.457031 62.601562 118.808594 73.605469 Z M 98.078125 102.679688 C 101.019531 90.929688 81.289062 87.890625 75.136719 86.351562 L 70.15625 106.328125 C 76.308594 107.855469 95.28125 113.949219 98.085938 102.679688 Z M 100.886719 73.441406 C 103.554688 62.746094 87.058594 60.367188 81.933594 59.089844 L 77.417969 77.207031 C 82.535156 78.488281 98.328125 83.695312 100.886719 73.441406 Z M 127.292969 113.492188 L 127.296875 113.496094 C 126.410156 113.375 125.507812 113.617188 124.796875 114.160156 C 124.117188 114.746094 123.652344 115.546875 123.484375 116.429688 C 123.378906 116.921875 123.34375 117.425781 123.378906 117.925781 C 123.425781 118.496094 123.609375 119.046875 123.914062 119.53125 C 124.230469 120.054688 124.734375 120.550781 125.414062 121.011719 C 126.097656 121.46875 127.042969 121.835938 128.25 122.113281 C 128.902344 122.269531 129.574219 122.34375 130.261719 122.339844 C 130.953125 122.339844 131.59375 122.230469 132.183594 122.007812 L 132.183594 122.011719 C 133.449219 121.5625 134.386719 120.484375 134.652344 119.167969 C 134.902344 118.238281 134.769531 117.246094 134.285156 116.414062 C 133.800781 115.605469 133.007812 114.984375 131.902344 114.554688 L 132.710938 111.058594 C 134.707031 111.863281 136.101562 113.011719 136.910156 114.496094 C 137.71875 115.988281 137.886719 117.757812 137.414062 119.804688 C 137.175781 120.941406 136.699219 122.011719 136.023438 122.953125 C 134.789062 124.636719 132.886719 125.695312 130.808594 125.863281 C 129.679688 125.964844 128.542969 125.882812 127.4375 125.617188 C 126.304688 125.363281 125.214844 124.9375 124.210938 124.355469 C 123.28125 123.824219 122.472656 123.109375 121.832031 122.257812 C 121.207031 121.40625 120.78125 120.429688 120.582031 119.394531 C 120.371094 118.207031 120.414062 116.988281 120.714844 115.820312 C 120.914062 114.933594 121.238281 114.078125 121.675781 113.277344 C 122.101562 112.5 122.621094 111.84375 123.246094 111.308594 C 123.867188 110.773438 124.578125 110.382812 125.386719 110.144531 C 126.199219 109.898438 127.101562 109.851562 128.105469 109.992188 L 127.296875 113.492188 Z M 141.425781 102.398438 L 141.429688 102.402344 C 141.183594 103.570312 140.703125 104.671875 140.015625 105.652344 C 139.371094 106.542969 138.597656 107.25 137.707031 107.769531 L 137.707031 107.765625 C 136.785156 108.292969 135.761719 108.617188 134.703125 108.722656 C 133.53125 108.839844 132.347656 108.757812 131.203125 108.480469 C 130.0625 108.230469 128.972656 107.785156 127.980469 107.167969 C 127.078125 106.609375 126.300781 105.871094 125.699219 104.996094 C 125.113281 104.113281 124.71875 103.121094 124.546875 102.074219 C 124.359375 100.898438 124.414062 99.699219 124.703125 98.542969 C 124.949219 97.375 125.429688 96.269531 126.117188 95.292969 C 126.769531 94.402344 127.535156 93.691406 128.433594 93.175781 L 128.429688 93.175781 C 129.355469 92.652344 130.378906 92.328125 131.433594 92.222656 C 132.535156 92.101562 133.691406 92.179688 134.898438 92.457031 C 136.050781 92.710938 137.148438 93.152344 138.152344 93.769531 C 139.097656 94.367188 139.851562 95.09375 140.429688 95.949219 C 141.007812 96.804688 141.390625 97.777344 141.585938 98.863281 C 141.773438 100.039062 141.71875 101.246094 141.429688 102.402344 Z M 127.648438 87.707031 L 128.410156 84.425781 L 131.476562 85.132812 L 131.492188 85.070312 L 131.496094 85.078125 C 131.070312 84.855469 130.6875 84.550781 130.378906 84.183594 C 129.667969 83.355469 129.195312 82.347656 129.011719 81.269531 C 128.925781 80.726562 128.945312 80.167969 129.066406 79.632812 C 129.160156 79.1875 129.292969 78.753906 129.464844 78.335938 L 132.839844 79.113281 C 132.742188 79.351562 132.648438 79.597656 132.5625 79.84375 C 132.472656 80.085938 132.402344 80.332031 132.34375 80.582031 C 132.046875 81.75 132.304688 82.988281 133.035156 83.941406 C 133.445312 84.46875 133.949219 84.917969 134.527344 85.253906 C 135.152344 85.636719 135.902344 85.929688 136.785156 86.136719 L 144.335938 87.878906 L 143.527344 91.375 L 127.65625 87.710938 Z M 139.617188 76.210938 C 140.226562 76.359375 140.839844 76.40625 141.453125 76.367188 L 141.460938 76.371094 C 142.042969 76.335938 142.613281 76.183594 143.140625 75.929688 C 143.664062 75.675781 144.121094 75.304688 144.480469 74.847656 C 144.886719 74.316406 145.164062 73.695312 145.300781 73.039062 C 145.542969 72.175781 145.511719 71.257812 145.210938 70.414062 C 144.867188 69.636719 144.289062 68.988281 143.554688 68.558594 L 144.316406 65.246094 C 146.640625 66.300781 148.171875 68.574219 148.28125 71.121094 C 148.332031 71.960938 148.261719 72.8125 148.066406 73.671875 C 147.777344 74.921875 147.316406 75.980469 146.6875 76.847656 L 146.683594 76.847656 C 145.457031 78.570312 143.523438 79.652344 141.414062 79.789062 C 139.113281 79.972656 136.816406 79.429688 134.839844 78.234375 C 133.9375 77.671875 133.152344 76.941406 132.519531 76.082031 C 131.90625 75.234375 131.476562 74.269531 131.253906 73.246094 C 131.019531 72.207031 131.042969 71.09375 131.3125 69.902344 C 131.5625 68.730469 132.097656 67.636719 132.871094 66.722656 C 133.597656 65.871094 134.496094 65.191406 135.511719 64.726562 C 136.550781 64.269531 137.667969 64.019531 138.804688 63.992188 C 139.992188 63.949219 141.15625 64.140625 142.3125 64.554688 L 139.621094 76.21875 Z M 138.660156 101.761719 L 138.667969 101.765625 C 139.019531 100.398438 138.648438 98.945312 137.679688 97.917969 C 137.222656 97.417969 136.679688 97 136.074219 96.6875 C 134.820312 96.03125 133.421875 95.703125 132.007812 95.746094 C 131.328125 95.757812 130.65625 95.894531 130.027344 96.148438 C 128.714844 96.65625 127.75 97.796875 127.46875 99.179688 C 127.113281 100.539062 127.480469 101.988281 128.4375 103.019531 C 128.875 103.511719 129.410156 103.917969 130.042969 104.246094 L 130.042969 104.25 C 131.296875 104.90625 132.695312 105.230469 134.109375 105.195312 C 134.792969 105.175781 135.464844 105.039062 136.097656 104.789062 C 137.414062 104.289062 138.386719 103.148438 138.667969 101.765625 Z M 139.195312 67.515625 L 139.203125 67.519531 C 138.648438 67.433594 138.082031 67.429688 137.523438 67.503906 C 136.453125 67.625 135.472656 68.167969 134.800781 69.011719 C 134.101562 69.953125 133.820312 71.132812 134.011719 72.289062 C 134.117188 72.839844 134.3125 73.339844 134.605469 73.785156 C 135.253906 74.722656 136.214844 75.398438 137.320312 75.6875 L 139.203125 67.519531 Z M 139.195312 67.515625 "/>
</g>
</svg>
