<?xml version="1.0" encoding="UTF-8"?>
<svg xmlns="http://www.w3.org/2000/svg" xmlns:xlink="http://www.w3.org/1999/xlink" width="168pt" height="168pt" viewBox="0 0 168 168" version="1.1">
<g id="surface431">
<path style=" stroke:none;fill-rule:evenodd;fill:rgb(17.647059%,17.647059%,17.647059%);fill-opacity:1;" d="M 168 84 C 168 130.390625 130.390625 168 84 168 C 37.609375 168 0 130.390625 0 84 C 0 37.609375 37.609375 0 84 0 C 130.390625 0 168 37.609375 168 84 "/>
<path style=" stroke:none;fill-rule:nonzero;fill:rgb(100%,100%,100%);fill-opacity:1;" d="M 61.457031 101.304688 L 21 88.042969 L 48.0625 88.042969 L 50.738281 75.21875 L 74.773438 75.234375 L 80.769531 42 L 104.949219 42 C 121.320312 42 127.953125 48.589844 125.503906 62.1875 L 124.980469 65.101562 C 123.546875 73.023438 119.929688 78.289062 113.714844 81.328125 C 119.875 84.476562 121.941406 90.4375 120.394531 99.019531 L 119.199219 105.667969 C 116.800781 118.929688 107.046875 126 91.203125 126 L 65.609375 126 L 72.238281 89.285156 L 64.207031 89.285156 Z M 88.054688 86.882812 L 83.097656 114.339844 L 93.308594 114.339844 C 99.367188 114.339844 102.730469 111.652344 103.875 105.308594 L 105.160156 98.207031 C 106.621094 90.105469 103.816406 86.882812 95.871094 86.882812 Z M 94.054688 53.65625 L 89.730469 77.617188 L 97.144531 77.617188 C 103.90625 77.617188 107.859375 74.730469 109.074219 68.007812 L 109.898438 63.460938 C 111.078125 56.914062 108.632812 53.652344 102.433594 53.652344 L 95.023438 53.65625 Z M 94.054688 53.65625 "/>
</g>
</svg>
