<?xml version="1.0" encoding="UTF-8"?>
<svg xmlns="http://www.w3.org/2000/svg" xmlns:xlink="http://www.w3.org/1999/xlink" width="168pt" height="168pt" viewBox="0 0 168 168" version="1.1">
<g id="surface1286">
<path style=" stroke:none;fill-rule:nonzero;fill:rgb(0%,68.235294%,93.72549%);fill-opacity:1;" d="M 168 84 C 168 130.390625 130.390625 168 84 168 C 37.609375 168 0 130.390625 0 84 C 0 37.609375 37.609375 0 84 0 C 130.390625 0 168 37.609375 168 84 "/>
<path style=" stroke:none;fill-rule:nonzero;fill:rgb(100%,100%,100%);fill-opacity:1;" d="M 73.246094 128.421875 L 43.386719 128.421875 L 49.246094 95.269531 L 80.246094 67.34375 L 53.878906 67.34375 L 75.199219 54.277344 L 109.863281 54.277344 L 65.027344 98.535156 L 62.015625 115.441406 C 62.015625 115.441406 72.027344 116.175781 79.917969 115.441406 C 87.8125 114.628906 96.679688 111.363281 96.679688 111.363281 L 73.242188 128.425781 Z M 120.203125 57.460938 L 106.859375 70.527344 C 106.859375 70.527344 118.089844 83.023438 107.75 100.167969 C 97.582031 116.988281 63.808594 113.886719 63.808594 113.886719 L 66.414062 99.109375 L 113.9375 52.726562 L 74.550781 52.726562 L 78.539062 30.1875 L 59.496094 30.1875 L 52.660156 68.726562 L 76.910156 68.726562 L 48.101562 94.699219 L 42 129.648438 C 42 129.648438 65.03125 130.300781 84.5625 129.648438 C 104.171875 128.992188 127.035156 112.171875 130.375 93.144531 C 134.933594 67.417969 120.207031 57.460938 120.207031 57.460938 Z M 120.203125 57.460938 "/>
</g>
</svg>
