<?xml version="1.0" encoding="UTF-8"?>
<svg xmlns="http://www.w3.org/2000/svg" xmlns:xlink="http://www.w3.org/1999/xlink" width="168pt" height="168pt" viewBox="0 0 168 168" version="1.1">
<g id="surface846">
<path style=" stroke:none;fill-rule:nonzero;fill:rgb(98.431373%,70.588235%,7.45098%);fill-opacity:1;" d="M 168 84 C 168 130.390625 130.390625 168 84 168 C 37.609375 168 0 130.390625 0 84 C 0 37.609375 37.609375 0 84 0 C 130.390625 0 168 37.609375 168 84 "/>
<path style=" stroke:none;fill-rule:nonzero;fill:rgb(100%,100%,100%);fill-opacity:1;" d="M 84.089844 114.472656 C 87.574219 114.628906 91.050781 114.027344 94.28125 112.707031 C 95.5625 112.25 96.785156 111.648438 97.929688 110.910156 C 98.132812 110.730469 98.40625 110.644531 98.675781 110.679688 C 98.949219 110.714844 99.191406 110.863281 99.347656 111.089844 L 107.636719 119.621094 C 108.230469 120.242188 108.207031 120.441406 107.5 120.929688 C 104.621094 122.902344 101.492188 124.484375 98.195312 125.636719 C 94.117188 127.03125 89.855469 127.820312 85.546875 127.980469 C 80.0625 128.261719 74.574219 127.511719 69.367188 125.769531 C 64.882812 124.214844 60.714844 121.871094 57.058594 118.847656 C 53.753906 116.117188 50.851562 112.933594 48.4375 109.390625 C 47.074219 107.457031 45.894531 105.402344 44.917969 103.246094 C 44.183594 101.542969 43.519531 99.808594 42.929688 98.050781 C 41.953125 94.820312 41.328125 91.492188 41.074219 88.125 C 40.800781 85.65625 40.835938 83.160156 41.179688 80.699219 C 41.441406 78.261719 41.871094 75.847656 42.464844 73.46875 L 42.46875 73.46875 C 43.457031 69.832031 44.898438 66.335938 46.757812 63.058594 C 50.746094 56.152344 56.597656 50.511719 63.644531 46.78125 C 66.320312 45.332031 69.144531 44.179688 72.066406 43.339844 C 74.4375 42.628906 76.875 42.152344 79.339844 41.921875 C 81.234375 41.683594 83.152344 41.640625 85.058594 41.789062 C 85.398438 41.808594 85.742188 41.808594 86.078125 41.789062 C 89.203125 41.871094 92.300781 42.359375 95.296875 43.25 C 97.855469 43.933594 100.328125 44.898438 102.65625 46.148438 C 105.117188 47.367188 107.433594 48.847656 109.574219 50.570312 C 109.996094 50.941406 110.324219 50.769531 110.65625 50.414062 L 115.765625 45.023438 L 123.125 37.199219 C 123.984375 36.269531 124.207031 36.242188 125.136719 37.082031 C 127.972656 39.640625 130.597656 42.425781 132.960938 45.417969 C 135.964844 49.144531 138.523438 53.210938 140.589844 57.53125 C 142.242188 61.101562 143.601562 64.796875 144.660156 68.582031 C 145.546875 71.699219 145.832031 74.882812 146.519531 78 L 146.515625 78 C 146.523438 78.058594 146.523438 78.117188 146.515625 78.179688 C 146.515625 81.074219 147.15625 83.96875 146.847656 86.863281 C 146.496094 90.160156 146.316406 93.5 145.628906 96.75 C 145.046875 99.480469 144.304688 102.167969 143.425781 104.8125 C 141.253906 111.375 138.003906 117.535156 133.808594 123.027344 C 133.167969 123.867188 132.96875 123.886719 132.234375 123.027344 C 129.808594 120.570312 127.378906 118.078125 124.921875 115.644531 C 124.414062 115.136719 124.480469 114.734375 124.921875 114.183594 L 124.917969 114.1875 C 127.507812 110.558594 129.605469 106.605469 131.15625 102.425781 C 132.546875 98.503906 133.503906 94.441406 134.007812 90.308594 C 134.3125 87.144531 134.375 83.957031 134.207031 80.785156 C 134.132812 78.980469 133.914062 77.183594 133.558594 75.410156 C 132.21875 68.132812 129.277344 61.246094 124.941406 55.25 C 124.480469 54.589844 123.902344 53.988281 123.480469 53.285156 C 123.058594 52.578125 123.019531 52.777344 122.621094 53.175781 C 120.28125 55.539062 117.871094 57.835938 115.589844 60.246094 C 114.796875 61.085938 113.890625 61.746094 113.136719 62.609375 C 112.386719 63.476562 111.476562 64.289062 110.636719 65.128906 L 108.074219 67.695312 C 107.675781 68.09375 107.367188 67.9375 107.097656 67.5625 L 107.101562 67.566406 C 104.929688 64.390625 102.140625 61.683594 98.898438 59.609375 C 95.765625 57.589844 92.253906 56.238281 88.578125 55.628906 C 85.710938 55.1875 82.792969 55.152344 79.914062 55.519531 C 76.378906 55.898438 72.949219 56.980469 69.835938 58.699219 C 66.492188 60.535156 63.558594 63.035156 61.210938 66.039062 C 59.167969 68.628906 57.589844 71.550781 56.546875 74.679688 C 55.375 78.390625 54.84375 82.269531 54.976562 86.15625 C 54.929688 93.132812 57.519531 99.867188 62.226562 105.011719 C 65.054688 108.136719 68.523438 110.621094 72.398438 112.285156 C 76.074219 113.902344 80.078125 114.652344 84.089844 114.46875 Z M 84.089844 114.472656 "/>
<path style=" stroke:none;fill-rule:nonzero;fill:rgb(100%,100%,100%);fill-opacity:1;" d="M 131.445312 124.484375 L 109.082031 101.714844 C 108.59375 101.207031 108.191406 101.191406 107.796875 101.714844 L 107.792969 101.714844 C 106.210938 104.019531 104.296875 106.074219 102.113281 107.8125 C 101.582031 108.234375 101.582031 108.5625 102.113281 109.050781 C 104.125 111.0625 106.113281 113.121094 108.105469 115.128906 C 110.695312 117.757812 113.277344 120.390625 115.886719 123.019531 C 116.347656 123.480469 116.328125 123.703125 115.886719 124.101562 C 114.847656 124.878906 113.828125 125.675781 112.746094 126.3125 L 112.742188 126.316406 C 107.074219 130.230469 100.640625 132.894531 93.863281 134.144531 C 91.230469 134.738281 88.542969 135.050781 85.84375 135.070312 L 84.761719 135.070312 C 82.851562 135.203125 80.929688 135.144531 79.039062 134.890625 C 76.824219 134.558594 74.746094 134.292969 72.644531 133.832031 C 69.984375 133.226562 67.378906 132.390625 64.863281 131.335938 C 60.589844 129.554688 56.578125 127.195312 52.945312 124.324219 C 49.359375 121.5 46.15625 118.21875 43.421875 114.558594 C 40.539062 110.730469 38.246094 106.488281 36.613281 101.980469 C 34.824219 97.566406 33.808594 92.878906 33.605469 88.121094 C 33.566406 87.621094 33.566406 87.117188 33.605469 86.613281 L 33.605469 81.398438 L 33.605469 81.402344 C 33.484375 80.839844 33.484375 80.257812 33.605469 79.695312 C 33.605469 79.273438 33.785156 78.882812 33.851562 78.460938 C 34.070312 76.503906 34.417969 74.558594 34.890625 72.644531 C 35.496094 70.070312 36.296875 67.550781 37.300781 65.105469 C 41.75 54.207031 49.84375 45.191406 60.203125 39.59375 C 66.328125 36.195312 73.113281 34.152344 80.097656 33.609375 L 81.375 33.609375 C 88.648438 33.148438 95.933594 34.296875 102.710938 36.96875 L 104.613281 37.761719 C 107.507812 39.046875 110.285156 40.59375 112.902344 42.382812 C 113.089844 42.558594 113.347656 42.640625 113.601562 42.617188 C 113.859375 42.59375 114.09375 42.460938 114.246094 42.253906 C 116.59375 39.578125 119.066406 37.035156 121.523438 34.472656 C 121.984375 33.984375 122.007812 33.542969 121.523438 33.144531 C 113.417969 27.25 104.03125 23.371094 94.132812 21.824219 C 91.292969 21.371094 88.429688 21.097656 85.554688 21.003906 C 81.101562 20.933594 76.65625 21.351562 72.292969 22.246094 C 69.507812 22.796875 66.757812 23.535156 64.070312 24.453125 C 59.28125 26.054688 54.714844 28.25 50.472656 30.972656 C 45.378906 34.226562 40.777344 38.175781 36.792969 42.710938 L 36.792969 42.714844 C 31.46875 48.753906 27.363281 55.765625 24.703125 63.363281 C 23.589844 66.578125 22.707031 69.863281 22.074219 73.203125 C 21.585938 76.128906 21.253906 79.082031 21.078125 82.042969 L 21.074219 82.042969 C 20.894531 85.222656 21.042969 88.414062 21.515625 91.566406 C 21.863281 94.699219 22.460938 97.796875 23.304688 100.832031 C 23.902344 102.886719 24.5 104.941406 25.273438 106.933594 C 26.816406 110.921875 28.753906 114.757812 31.0625 118.363281 L 31.0625 118.359375 C 33.9375 122.796875 37.328125 126.878906 41.164062 130.515625 C 43.648438 132.804688 46.308594 134.890625 49.125 136.753906 C 52.894531 139.332031 56.949219 141.480469 61.199219 143.144531 C 65.429688 144.824219 69.847656 146.023438 74.34375 146.726562 C 77.71875 147.230469 81.125 147.523438 84.539062 147.609375 C 86.742188 147.609375 88.960938 147.257812 91.035156 147.210938 C 92.609375 147.09375 94.167969 146.859375 95.703125 146.507812 C 97.402344 146.21875 99.085938 145.773438 100.765625 145.332031 L 100.761719 145.324219 C 107.046875 143.679688 113.019531 141.023438 118.445312 137.457031 C 123.363281 134.308594 127.828125 130.5 131.710938 126.144531 C 132.351562 125.410156 132.332031 125.285156 131.449219 124.484375 Z M 131.445312 124.484375 "/>
</g>
</svg>
