<?xml version="1.0" encoding="UTF-8"?>
<svg xmlns="http://www.w3.org/2000/svg" xmlns:xlink="http://www.w3.org/1999/xlink" width="168pt" height="168pt" viewBox="0 0 168 168" version="1.1">
<g id="surface1914">
<path style=" stroke:none;fill-rule:nonzero;fill:rgb(21.176471%,69.019608%,95.294118%);fill-opacity:1;" d="M 168 84 C 168 130.390625 130.390625 168 84 168 C 37.609375 168 0 130.390625 0 84 C 0 37.609375 37.609375 0 84 0 C 130.390625 0 168 37.609375 168 84 "/>
<path style=" stroke:none;fill-rule:evenodd;fill:rgb(100%,100%,100%);fill-opacity:1;" d="M 73.972656 22.371094 C 78.171875 21.53125 82.453125 21.167969 86.730469 21.289062 C 89.398438 21.289062 92.066406 21.53125 94.695312 22.007812 C 99.8125 22.710938 104.75 24.339844 109.5625 26.164062 C 113.0625 27.730469 116.734375 29.199219 119.578125 31.855469 C 120.371094 32.433594 119.945312 33.589844 119.242188 34.042969 C 117.613281 35.085938 115.65625 35.386719 113.796875 35.796875 C 105.417969 37.234375 96.890625 37.882812 88.660156 40.113281 C 84.96875 40.941406 81.421875 42.296875 77.90625 43.699219 C 71.378906 46.617188 65.378906 50.90625 61.039062 56.640625 L 61.042969 56.640625 C 60.210938 57.855469 59.414062 59.089844 58.648438 60.34375 C 57.960938 61.683594 57.269531 63.019531 56.707031 64.421875 C 56.285156 65.425781 55.898438 66.4375 55.53125 67.457031 C 54.789062 69.625 54.429688 71.886719 53.878906 74.113281 C 53.707031 75.574219 53.605469 77.042969 53.300781 78.488281 C 53.105469 81.796875 53.199219 85.101562 53.226562 88.410156 C 53.226562 89.511719 53.527344 90.59375 53.542969 91.703125 C 53.558594 92.722656 53.699219 93.734375 53.972656 94.714844 C 54.496094 97.472656 55.136719 100.265625 56.308594 102.84375 C 57.824219 106.503906 60.1875 109.929688 63.546875 112.109375 C 66.335938 114.179688 69.785156 115.058594 73.164062 115.585938 C 77.679688 116.175781 82.261719 115.636719 86.710938 114.828125 C 89.035156 114.40625 91.347656 113.882812 93.640625 113.269531 C 95.09375 112.859375 96.589844 112.585938 98.03125 112.097656 L 98.027344 112.097656 C 98.578125 112.003906 99.136719 111.949219 99.699219 111.941406 C 97.898438 113.546875 96.085938 115.144531 94.050781 116.441406 C 87.109375 120.914062 79.042969 123.246094 70.992188 124.746094 C 67.355469 125.492188 63.652344 125.933594 59.988281 126.5625 C 55.816406 127.167969 51.488281 127.664062 47.722656 129.710938 C 46.597656 130.5 45.726562 131.570312 44.945312 132.683594 C 44.710938 133.167969 44.261719 132.683594 44 132.511719 C 43.144531 131.53125 42.046875 130.8125 41.117188 129.902344 C 40.125 128.945312 39.152344 127.972656 38.199219 126.980469 C 36.671875 125.199219 35.101562 123.445312 33.753906 121.53125 C 31.066406 117.886719 28.6875 113.988281 26.945312 109.808594 L 26.640625 109.671875 C 26.421875 108.46875 25.8125 107.410156 25.40625 106.269531 C 24.453125 103.773438 23.679688 101.210938 23.09375 98.605469 C 22.863281 97.808594 22.683594 97 22.554688 96.179688 C 22.273438 95.257812 22.101562 94.308594 22.050781 93.34375 C 21.535156 91.085938 21.628906 88.753906 21.304688 86.476562 C 21.304688 84.574219 21.179688 82.660156 21.410156 80.765625 C 21.664062 79.191406 21.558594 77.578125 21.882812 76.007812 C 22.203125 74.730469 22.140625 73.398438 22.542969 72.144531 C 23.046875 69.339844 23.785156 66.578125 24.75 63.890625 C 25.128906 62.902344 25.46875 61.90625 25.820312 60.914062 C 26.03125 60.457031 26.203125 59.988281 26.34375 59.511719 L 26.621094 59.179688 L 26.621094 59.183594 C 26.960938 58.199219 27.394531 57.246094 27.917969 56.347656 C 28.441406 55.253906 29.011719 54.179688 29.625 53.136719 C 29.804688 52.765625 30.003906 52.402344 30.214844 52.035156 C 33.523438 46.851562 37.386719 41.945312 42.039062 37.890625 L 42.035156 37.890625 C 47.808594 32.753906 54.433594 28.667969 61.613281 25.820312 C 65.605469 24.25 69.75 23.09375 73.976562 22.371094 Z M 73.972656 22.371094 "/>
<path style=" stroke:none;fill-rule:evenodd;fill:rgb(100%,100%,100%);fill-opacity:1;" d="M 122.015625 38.796875 C 123.171875 38.125 123.964844 37.039062 124.761719 36.003906 C 137.488281 46.886719 145.359375 62.386719 146.640625 79.082031 C 147.921875 95.777344 142.503906 112.296875 131.585938 124.992188 C 121.941406 136.320312 108.09375 144.019531 93.335938 146.058594 C 86.546875 147.054688 79.632812 146.792969 72.851562 145.863281 C 67.652344 145.128906 62.570312 143.710938 57.746094 141.636719 C 55.121094 140.480469 52.511719 139.128906 50.460938 137.078125 C 49.929688 136.617188 49.59375 135.851562 49.945312 135.183594 C 50.46875 134.371094 51.414062 133.964844 52.308594 133.675781 C 54.855469 132.941406 57.472656 132.511719 60.09375 132.105469 C 64.828125 131.28125 69.613281 130.75 74.3125 129.714844 C 82.121094 128.03125 89.925781 125.640625 96.675781 121.261719 C 101.265625 118.332031 105.308594 114.519531 108.285156 109.953125 C 112.558594 103.507812 114.53125 95.785156 115.003906 88.128906 C 115.238281 82.433594 115.109375 76.683594 113.917969 71.085938 C 112.832031 66.257812 110.925781 61.390625 107.320312 57.871094 C 104.5625 55.042969 100.808594 53.28125 96.9375 52.609375 C 90.507812 51.40625 83.9375 52.566406 77.636719 53.984375 C 74.6875 54.683594 71.777344 55.558594 68.796875 56.136719 C 73.039062 52.140625 78.230469 49.285156 83.6875 47.332031 C 86.820312 46.171875 90.078125 45.398438 93.316406 44.640625 C 100.414062 43.042969 107.679688 42.4375 114.839844 41.207031 C 117.339844 40.683594 119.878906 40.179688 122.023438 38.785156 Z M 122.015625 38.796875 "/>
</g>
</svg>
