<?xml version="1.0" encoding="UTF-8"?>
<svg xmlns="http://www.w3.org/2000/svg" xmlns:xlink="http://www.w3.org/1999/xlink" width="168pt" height="168pt" viewBox="0 0 168 168" version="1.1">
<g id="surface16">
<path style=" stroke:none;fill-rule:evenodd;fill:rgb(96.862745%,3.137255%,3.137255%);fill-opacity:1;" d="M 168 84 C 168 130.390625 130.390625 168 84 168 C 37.609375 168 0 130.390625 0 84 C 0 37.609375 37.609375 0 84 0 C 130.390625 0 168 37.609375 168 84 "/>
<path style=" stroke:none;fill-rule:nonzero;fill:rgb(100%,100%,100%);fill-opacity:1;" d="M 84 31.5 L 75.285156 47.335938 C 74.296875 49.058594 72.527344 48.902344 70.753906 47.941406 L 64.453125 44.753906 L 69.148438 69.078125 C 70.140625 73.523438 66.96875 73.523438 65.40625 71.597656 L 54.390625 59.585938 L 52.605469 65.6875 C 52.394531 66.492188 51.492188 67.332031 50.132812 67.132812 L 36.21875 64.277344 L 39.867188 77.234375 C 40.65625 80.117188 41.265625 81.308594 39.078125 82.0625 L 34.117188 84.339844 L 58.074219 103.304688 C 59.050781 104.042969 59.480469 105.296875 59.167969 106.480469 L 57.066406 113.191406 C 65.320312 112.261719 72.710938 110.871094 80.964844 110.011719 C 81.695312 109.9375 82.914062 111.109375 82.90625 111.933594 L 81.820312 136.5 L 85.832031 136.5 L 85.203125 111.984375 C 85.199219 111.160156 86.304688 109.9375 87.03125 110.011719 C 95.285156 110.871094 102.675781 112.269531 110.925781 113.191406 L 108.832031 106.480469 L 108.828125 106.480469 C 108.511719 105.296875 108.945312 104.042969 109.917969 103.304688 L 133.875 84.339844 L 128.914062 82.066406 C 126.730469 81.304688 127.339844 80.113281 128.125 77.230469 L 131.777344 64.273438 L 117.859375 67.128906 C 116.5 67.328125 115.589844 66.488281 115.390625 65.683594 L 113.601562 59.582031 L 102.59375 71.59375 C 101.027344 73.515625 97.859375 73.515625 98.851562 69.074219 L 103.550781 44.746094 L 97.246094 47.933594 C 95.472656 48.894531 93.703125 49.050781 92.714844 47.328125 Z M 84 31.5 "/>
</g>
</svg>
