<?xml version="1.0" encoding="UTF-8"?>
<svg xmlns="http://www.w3.org/2000/svg" xmlns:xlink="http://www.w3.org/1999/xlink" width="168pt" height="168pt" viewBox="0 0 168 168" version="1.1">
<g id="surface1131">
<path style=" stroke:none;fill-rule:nonzero;fill:rgb(15.294118%,15.294118%,19.215686%);fill-opacity:1;" d="M 168 84 C 168 130.390625 130.390625 168 84 168 C 37.609375 168 0 130.390625 0 84 C 0 37.609375 37.609375 0 84 0 C 130.390625 0 168 37.609375 168 84 "/>
<path style=" stroke:none;fill-rule:nonzero;fill:rgb(100%,100%,100%);fill-opacity:1;" d="M 141.75 84.15625 C 141.75 99.433594 135.738281 114.082031 125.023438 124.886719 C 114.347656 135.671875 99.804688 141.742188 84.628906 141.75 L 84.628906 127.039062 C 105.355469 127.101562 123.085938 112.039062 126.542969 91.433594 L 106.121094 91.433594 C 106.929688 89.039062 107.34375 86.53125 107.347656 84 L 107.351562 84 C 107.320312 81.472656 106.90625 78.96875 106.125 76.566406 L 126.546875 76.566406 C 123.039062 55.988281 105.335938 40.949219 84.632812 40.960938 L 84.628906 26.25 C 116.171875 26.554688 141.617188 52.351562 141.75 84.15625 Z M 103.667969 96.539062 L 119.796875 96.539062 C 113.832031 113.890625 96.320312 124.363281 78.359375 121.320312 C 60.402344 118.265625 47.25 102.589844 47.25 84.226562 C 47.25 65.863281 60.402344 50.191406 78.355469 47.140625 C 96.316406 44.09375 113.828125 54.570312 119.792969 71.921875 L 103.664062 71.921875 L 103.667969 71.917969 C 101.851562 69.160156 99.5 66.792969 96.757812 64.953125 C 91.691406 61.691406 85.527344 60.59375 79.644531 61.902344 C 73.765625 63.210938 68.648438 66.820312 65.441406 71.917969 C 58.699219 82.558594 61.792969 96.699219 72.351562 103.496094 L 72.351562 103.5 C 77.417969 106.757812 83.578125 107.859375 89.460938 106.550781 C 95.34375 105.242188 100.457031 101.636719 103.667969 96.535156 Z M 103.667969 96.539062 "/>
</g>
</svg>
