<?xml version="1.0" encoding="UTF-8"?>
<svg xmlns="http://www.w3.org/2000/svg" xmlns:xlink="http://www.w3.org/1999/xlink" width="168pt" height="168pt" viewBox="0 0 168 168" version="1.1">
<g id="surface576">
<path style=" stroke:none;fill-rule:evenodd;fill:rgb(18.823529%,53.72549%,94.901961%);fill-opacity:1;" d="M 168 84 C 168 130.390625 130.390625 168 84 168 C 37.609375 168 0 130.390625 0 84 C 0 37.609375 37.609375 0 84 0 C 130.390625 0 168 37.609375 168 84 "/>
<path style=" stroke:none;fill-rule:nonzero;fill:rgb(100%,100%,100%);fill-opacity:1;" d="M 113.542969 93.859375 C 111.328125 95.765625 109.34375 97.460938 107.378906 99.175781 C 107.160156 99.371094 106.9375 99.714844 106.9375 99.996094 C 106.90625 103.34375 106.917969 106.691406 106.917969 110.15625 C 111.964844 108.023438 114.597656 101.546875 113.542969 93.859375 Z M 107.464844 73.398438 C 113.085938 70.050781 113.753906 68.890625 113.773438 62.242188 C 113.773438 61.71875 113.789062 61.199219 113.769531 60.675781 C 113.527344 54.570312 109.347656 49.179688 103.5625 47.886719 C 98.363281 46.730469 93.125 45.769531 87.875 44.882812 C 85.203125 44.425781 82.46875 44.039062 79.773438 44.125 C 76.511719 44.230469 73.851562 45.941406 71.398438 48.734375 C 77.339844 49.84375 82.859375 50.980469 88.414062 51.882812 C 96.042969 53.121094 101.863281 56.949219 105.046875 64.242188 C 106.28125 67.070312 106.675781 70.28125 107.460938 73.394531 Z M 61.144531 57.605469 C 56.628906 60.410156 54.402344 64.210938 54.335938 68.933594 L 54.332031 68.9375 C 54.179688 81.695312 54.164062 94.453125 54.296875 107.210938 C 54.347656 113.390625 58.429688 118.6875 64.320312 120.125 C 69.359375 121.351562 74.515625 122.109375 79.617188 123.097656 C 82.851562 123.726562 86.054688 124.683594 89.394531 123.855469 C 92.125 123.171875 94.558594 122.023438 96.480469 119.324219 C 90.359375 118.175781 84.609375 116.910156 78.804688 116.046875 C 68.867188 114.570312 61.160156 105.765625 61.148438 95.519531 C 61.132812 83.800781 61.144531 72.089844 61.144531 60.371094 Z M 68.167969 55.761719 C 68.105469 57.058594 68.011719 58.023438 68.011719 58.992188 L 68.007812 58.996094 C 67.992188 70.785156 67.992188 82.578125 68.007812 94.367188 C 68.023438 102.117188 72.707031 107.679688 80.144531 108.984375 C 85.519531 109.929688 90.875 110.980469 96.242188 111.976562 C 96.613281 112.042969 96.992188 112.082031 97.371094 112.125 C 99.917969 112.410156 100.007812 112.359375 100.023438 109.808594 C 100.050781 105.898438 99.917969 101.984375 100.101562 98.085938 C 100.152344 96.929688 100.738281 95.476562 101.570312 94.738281 C 105.828125 90.941406 110.25 87.335938 114.609375 83.660156 C 115.796875 82.664062 117.015625 81.980469 118.609375 82.75 C 120.292969 83.5625 120.734375 84.972656 120.710938 86.738281 C 120.648438 91.167969 120.742188 95.605469 120.605469 100.027344 C 120.347656 108.019531 114.550781 115.882812 107.113281 118.402344 L 107.117188 118.402344 C 105.84375 118.792969 104.78125 119.683594 104.175781 120.871094 C 99.59375 129.007812 91.738281 132.148438 83.324219 131.035156 C 76.425781 130.117188 69.578125 128.664062 62.765625 127.203125 C 53.988281 125.324219 47.503906 117.15625 47.363281 107.378906 C 47.175781 94.222656 47.238281 81.0625 47.464844 67.910156 C 47.601562 59.6875 53.710938 52.054688 61.460938 49.535156 L 61.457031 49.535156 C 62.320312 49.214844 63.046875 48.613281 63.523438 47.828125 C 68.722656 38.808594 77.164062 35.148438 87.195312 37.394531 C 92.761719 38.640625 98.425781 39.457031 104.023438 40.597656 C 113.957031 42.625 120.59375 50.824219 120.722656 61.144531 C 120.757812 64.078125 120.78125 67.015625 120.617188 69.9375 C 120.570312 70.867188 120.160156 72.054688 119.5 72.636719 C 114.738281 76.835938 109.917969 80.972656 104.976562 84.953125 C 104.214844 85.566406 102.507812 85.710938 101.660156 85.253906 C 100.824219 84.800781 100.121094 83.335938 100.0625 82.277344 C 99.859375 78.777344 100.246094 75.222656 99.90625 71.742188 C 99.222656 64.765625 94.472656 60.15625 87.3125 58.964844 C 81.621094 58.019531 75.941406 56.996094 70.253906 56.019531 C 69.644531 55.914062 69.027344 55.867188 68.164062 55.765625 Z M 68.167969 55.761719 "/>
</g>
</svg>
