<?xml version="1.0" encoding="UTF-8"?>
<svg xmlns="http://www.w3.org/2000/svg" xmlns:xlink="http://www.w3.org/1999/xlink" width="168pt" height="168pt" viewBox="0 0 168 168" version="1.1">
<g id="surface991">
<path style=" stroke:none;fill-rule:nonzero;fill:rgb(0%,67.45098%,92.941176%);fill-opacity:1;" d="M 168 84 C 168 130.390625 130.390625 168 84 168 C 37.609375 168 0 130.390625 0 84 C 0 37.609375 37.609375 0 84 0 C 130.390625 0 168 37.609375 168 84 "/>
<path style=" stroke:none;fill-rule:evenodd;fill:rgb(100%,100%,100%);fill-opacity:1;" d="M 31.5 51 L 31.5 72.398438 L 83.449219 102.402344 L 117.152344 82.898438 L 117.152344 100.300781 L 135.296875 111 L 135.296875 51 L 83.402344 81.003906 Z M 31.5 51 "/>
<path style=" stroke:none;fill-rule:evenodd;fill:rgb(100%,100%,100%);fill-opacity:0.7;" d="M 83.402344 21 L 31.5 51 L 31.5 111.003906 L 83.402344 141.003906 L 135.152344 111.003906 L 116.804688 100.304688 L 83.402344 119.605469 L 49.855469 100.304688 L 49.855469 61.703125 L 83.402344 42.402344 L 116.804688 61.703125 L 135.152344 51.003906 Z M 83.402344 21 "/>
</g>
</svg>
