<?xml version="1.0" encoding="UTF-8"?>
<svg xmlns="http://www.w3.org/2000/svg" xmlns:xlink="http://www.w3.org/1999/xlink" width="168pt" height="168pt" viewBox="0 0 168 168" version="1.1">
<g id="surface2059">
<path style=" stroke:none;fill-rule:evenodd;fill:rgb(10.980392%,59.607843%,96.862745%);fill-opacity:1;" d="M 168 84 C 168 130.390625 130.390625 168 84 168 C 37.609375 168 0 130.390625 0 84 C 0 37.609375 37.609375 0 84 0 C 130.390625 0 168 37.609375 168 84 "/>
<path style=" stroke:none;fill-rule:evenodd;fill:rgb(100%,100%,100%);fill-opacity:1;" d="M 85.46875 122.457031 C 89.164062 122.199219 92.828125 121.601562 96.410156 120.671875 C 100.835938 122.019531 105.511719 122.328125 110.070312 121.5625 C 110.253906 121.535156 110.433594 121.519531 110.617188 121.523438 C 112.246094 121.523438 114.382812 122.46875 117.496094 124.464844 L 117.496094 121.179688 C 117.496094 120.023438 118.121094 118.960938 119.128906 118.394531 C 120.484375 117.628906 121.742188 116.746094 122.894531 115.773438 C 127.429688 111.929688 129.992188 106.804688 129.992188 101.378906 C 129.992188 99.558594 129.703125 97.789062 129.15625 96.097656 C 130.527344 93.539062 131.632812 90.851562 132.449219 88.066406 L 132.445312 88.0625 C 135.078125 92.007812 136.488281 96.636719 136.5 101.378906 C 136.5 108.753906 133.066406 115.632812 127.128906 120.664062 L 127.128906 120.660156 C 126.136719 121.5 125.09375 122.273438 124.003906 122.980469 L 124.003906 130.652344 C 124.003906 133.292969 120.957031 134.808594 118.8125 133.242188 L 118.8125 133.238281 C 116.78125 131.722656 114.679688 130.304688 112.511719 128.988281 C 111.890625 128.617188 111.246094 128.289062 110.582031 128.003906 C 108.796875 128.273438 106.96875 128.40625 105.128906 128.40625 C 97.714844 128.40625 90.871094 126.183594 85.476562 122.453125 Z M 46.273438 107.117188 C 36.90625 99.171875 31.5 88.351562 31.5 76.753906 C 31.5 53.0625 53.855469 34.125 81.148438 34.125 C 108.449219 34.125 130.804688 53.0625 130.804688 76.753906 C 130.804688 100.453125 108.445312 119.390625 81.148438 119.390625 C 78.082031 119.390625 75.046875 119.15625 72.078125 118.683594 C 70.792969 118.988281 65.652344 122.042969 58.246094 127.449219 C 55.5625 129.414062 51.757812 127.515625 51.757812 124.214844 L 51.757812 111.132812 L 51.753906 111.132812 C 49.835938 109.921875 48.003906 108.582031 46.273438 107.117188 Z M 72.253906 110.613281 C 72.480469 110.613281 72.710938 110.628906 72.9375 110.664062 C 75.613281 111.117188 78.367188 111.347656 81.148438 111.347656 C 104.207031 111.347656 122.660156 95.714844 122.660156 76.753906 C 122.660156 57.800781 104.207031 42.167969 81.148438 42.167969 C 58.101562 42.167969 39.636719 57.800781 39.636719 76.753906 C 39.636719 85.921875 43.945312 94.550781 51.570312 101.007812 C 53.488281 102.625 55.59375 104.09375 57.847656 105.375 C 59.113281 106.089844 59.894531 107.421875 59.894531 108.859375 L 59.894531 116.402344 C 65.753906 112.46875 69.605469 110.605469 72.253906 110.605469 Z M 59.984375 84.804688 C 56.386719 84.804688 53.472656 81.917969 53.472656 78.367188 C 53.472656 74.8125 56.386719 71.929688 59.984375 71.929688 C 63.582031 71.929688 66.496094 74.8125 66.496094 78.367188 C 66.496094 81.921875 63.582031 84.804688 59.984375 84.804688 Z M 81.148438 84.804688 C 77.550781 84.804688 74.636719 81.917969 74.636719 78.367188 C 74.636719 74.8125 77.550781 71.929688 81.148438 71.929688 C 84.746094 71.929688 87.660156 74.8125 87.660156 78.367188 C 87.660156 81.921875 84.746094 84.804688 81.148438 84.804688 Z M 102.3125 84.804688 C 98.714844 84.804688 95.800781 81.917969 95.800781 78.367188 C 95.800781 74.8125 98.714844 71.929688 102.3125 71.929688 C 105.910156 71.929688 108.824219 74.8125 108.824219 78.367188 C 108.824219 81.921875 105.910156 84.804688 102.3125 84.804688 Z M 102.3125 84.804688 "/>
</g>
</svg>
