<?xml version="1.0" encoding="UTF-8"?>
<svg xmlns="http://www.w3.org/2000/svg" xmlns:xlink="http://www.w3.org/1999/xlink" width="168pt" height="168pt" viewBox="0 0 168 168" version="1.1">
<g id="surface2400">
<path style=" stroke:none;fill-rule:nonzero;fill:rgb(34.901961%,50.588235%,50.980392%);fill-opacity:1;" d="M 168 84 C 168 130.390625 130.390625 168 84 168 C 37.609375 168 0 130.390625 0 84 C 0 37.609375 37.609375 0 84 0 C 130.390625 0 168 37.609375 168 84 "/>
<path style=" stroke:none;fill-rule:evenodd;fill:rgb(100%,100%,100%);fill-opacity:1;" d="M 71.128906 133.390625 C 75.566406 127.65625 80.003906 121.921875 84.441406 116.1875 C 89.421875 116.964844 94.332031 116.523438 99.027344 114.488281 C 100.722656 113.753906 102.242188 112.609375 103.835938 111.644531 C 104.0625 111.507812 104.273438 111.328125 104.445312 111.199219 L 120.574219 127.148438 C 119.234375 128.039062 117.90625 129.007812 116.496094 129.835938 L 116.492188 129.832031 C 111.027344 133 105.003906 135.085938 98.753906 135.976562 C 95.0625 136.492188 91.332031 136.632812 87.613281 136.394531 C 82.007812 136.136719 76.460938 135.128906 71.128906 133.390625 Z M 66.058594 131.417969 L 66.054688 131.417969 C 64.261719 130.617188 62.519531 129.714844 60.828125 128.71875 C 52.183594 123.710938 45.363281 116.078125 41.347656 106.933594 C 39.230469 102.160156 37.839844 97.101562 37.21875 91.917969 C 36.730469 87.898438 36.621094 83.839844 36.890625 79.800781 C 37.535156 69.433594 40.691406 59.902344 47.050781 51.519531 C 52.921875 43.78125 60.628906 38.484375 69.746094 35.085938 C 74.074219 33.445312 78.601562 32.402344 83.210938 31.988281 C 86.691406 31.6875 90.210938 31.390625 93.691406 31.542969 C 95.84375 31.632812 97.960938 31.84375 100.042969 32.171875 C 95.542969 38.707031 91.042969 45.242188 86.539062 51.777344 C 82.039062 52.152344 77.695312 53.625 73.886719 56.058594 C 66.902344 60.488281 62.726562 66.875 60.761719 74.75 C 59.929688 78.066406 59.550781 81.484375 59.628906 84.902344 C 59.675781 86.699219 59.828125 88.457031 60.097656 90.171875 L 58.480469 92.519531 C 57.179688 94.410156 58.78125 96.910156 61.09375 96.605469 L 61.683594 96.53125 C 63.039062 100.359375 65.089844 103.933594 67.929688 107.214844 C 69.695312 109.242188 71.664062 110.941406 73.832031 112.308594 L 66.246094 130.636719 C 66.140625 130.886719 66.078125 131.152344 66.054688 131.421875 Z M 105.132812 33.253906 C 109.804688 34.5 114.234375 36.523438 118.234375 39.242188 C 118.957031 39.734375 119.621094 40.320312 120.3125 40.859375 C 120.445312 40.960938 120.582031 41.046875 120.75 41.164062 C 120.53125 41.417969 120.402344 41.585938 120.25 41.730469 C 115.46875 46.445312 110.675781 51.144531 105.90625 55.875 C 105.382812 56.398438 105.050781 56.484375 104.414062 56.03125 L 104.417969 56.035156 C 102.492188 54.664062 100.363281 53.609375 98.113281 52.902344 L 104.847656 35.183594 L 105.027344 34.726562 L 105.027344 34.730469 C 105.207031 34.257812 105.242188 33.746094 105.132812 33.253906 Z M 85.6875 90.730469 L 60.734375 93.992188 L 102.25 33.703125 L 102.480469 33.808594 L 86.441406 75.972656 L 115.710938 71.351562 L 68.992188 131.777344 L 68.765625 131.621094 Z M 85.6875 90.730469 "/>
</g>
</svg>
