<?xml version="1.0" encoding="UTF-8"?>
<svg xmlns="http://www.w3.org/2000/svg" xmlns:xlink="http://www.w3.org/1999/xlink" width="168pt" height="168pt" viewBox="0 0 168 168" version="1.1">
<g id="surface591">
<path style=" stroke:none;fill-rule:nonzero;fill:rgb(0.392157%,76.470588%,55.294118%);fill-opacity:1;" d="M 168 84 C 168 130.390625 130.390625 168 84 168 C 37.609375 168 0 130.390625 0 84 C 0 37.609375 37.609375 0 84 0 C 130.390625 0 168 37.609375 168 84 "/>
<path style=" stroke:none;fill-rule:nonzero;fill:rgb(100%,100%,100%);fill-opacity:1;" d="M 97.140625 28.875 L 88.101562 34.007812 L 88.101562 77.605469 L 93.035156 80.410156 L 93.035156 47.207031 L 109.992188 56.832031 L 110.007812 56.828125 L 113.300781 58.691406 L 116.050781 57.144531 L 116.050781 54.519531 L 93.039062 41.476562 L 93.039062 36.941406 L 97.140625 34.609375 L 120.976562 48.136719 L 120.976562 60.179688 L 109.53125 66.636719 L 109.148438 66.441406 L 109.148438 66.445312 C 108.484375 66.109375 107.75 65.929688 107.003906 65.925781 C 104.261719 65.949219 102.054688 68.183594 102.070312 70.925781 C 102.070312 73.683594 104.28125 75.929688 107.003906 75.929688 C 109.546875 75.914062 111.660156 73.96875 111.886719 71.4375 L 111.929688 71.007812 L 123.480469 64.492188 L 134.191406 70.570312 L 134.191406 97.464844 L 123.464844 103.542969 L 79.898438 78.804688 L 79.898438 34.007812 L 70.855469 28.875 L 42.089844 45.203125 L 42.089844 60.113281 L 28.875 67.605469 L 28.875 100.367188 L 42.089844 107.871094 L 42.089844 122.796875 L 70.859375 139.128906 L 79.898438 133.996094 L 79.898438 90.300781 L 74.964844 87.496094 L 74.964844 120.792969 L 54.699219 109.3125 L 51.949219 110.859375 L 51.949219 113.484375 L 74.960938 126.523438 L 74.960938 131.058594 L 70.855469 133.390625 L 47.027344 119.863281 L 47.027344 107.820312 L 58.472656 101.367188 L 58.855469 101.554688 C 59.554688 101.894531 60.273438 102.070312 60.996094 102.070312 C 63.722656 102.070312 65.929688 99.828125 65.929688 97.074219 C 65.945312 94.328125 63.738281 92.09375 60.996094 92.070312 C 58.453125 92.085938 56.339844 94.03125 56.113281 96.5625 L 56.070312 96.992188 L 44.519531 103.507812 L 33.808594 97.429688 L 33.808594 70.535156 L 44.535156 64.457031 L 88.101562 89.195312 L 88.101562 133.992188 L 97.140625 139.125 L 125.910156 122.796875 L 125.910156 107.886719 L 139.125 100.394531 L 139.125 67.632812 L 125.910156 60.136719 L 125.910156 45.207031 Z M 47.023438 48.140625 L 70.859375 34.605469 L 74.960938 36.9375 L 74.960938 41.476562 L 47.03125 57.3125 L 47.03125 48.140625 Z M 49.585938 61.589844 L 74.960938 47.203125 L 74.960938 75.992188 L 49.585938 61.585938 Z M 93.039062 91.992188 L 118.414062 106.402344 L 93.039062 120.789062 Z M 93.039062 131.058594 L 93.039062 126.523438 L 120.96875 110.6875 L 120.96875 119.859375 L 97.140625 133.386719 L 93.039062 131.054688 Z M 93.039062 131.058594 "/>
</g>
</svg>
