<?xml version="1.0" encoding="UTF-8"?>
<svg xmlns="http://www.w3.org/2000/svg" xmlns:xlink="http://www.w3.org/1999/xlink" width="168pt" height="168pt" viewBox="0 0 168 168" version="1.1">
<g id="surface121">
<path style=" stroke:none;fill-rule:nonzero;fill:rgb(80.392157%,0.392157%,14.117647%);fill-opacity:1;" d="M 168 84 C 168 130.390625 130.390625 168 84 168 C 37.609375 168 0 130.390625 0 84 C 0 37.609375 37.609375 0 84 0 C 130.390625 0 168 37.609375 168 84 "/>
<path style=" stroke:none;fill-rule:evenodd;fill:rgb(100%,100%,100%);fill-opacity:1;" d="M 122.425781 38.0625 C 125.847656 38.0625 128.625 40.929688 128.625 44.46875 C 128.625 48.007812 125.847656 50.875 122.425781 50.875 L 122.042969 50.871094 L 108.6875 83.378906 C 109.449219 84.445312 109.898438 85.761719 109.898438 87.183594 C 109.898438 90.4375 107.550781 93.125 104.511719 93.535156 L 90.742188 127.054688 C 91.765625 128.195312 92.390625 129.726562 92.390625 131.40625 C 92.390625 134.945312 89.613281 137.8125 86.191406 137.8125 C 82.769531 137.8125 79.992188 134.945312 79.992188 131.40625 C 79.992188 129.707031 80.628906 128.160156 81.671875 127.015625 L 65.886719 93.566406 L 65.519531 93.585938 C 62.3125 93.585938 59.671875 91.066406 59.351562 87.832031 L 59.320312 87.175781 C 59.320312 85.554688 59.910156 84.074219 60.867188 82.9375 L 45.726562 50.871094 L 45.578125 50.882812 C 42.371094 50.882812 39.730469 48.363281 39.410156 45.128906 L 39.375 44.46875 C 39.375 40.929688 42.152344 38.0625 45.574219 38.0625 C 48.183594 38.0625 50.414062 39.726562 51.328125 42.078125 L 116.667969 42.078125 C 117.582031 39.726562 119.816406 38.0625 122.421875 38.0625 Z M 85.273438 75.554688 L 71.585938 85.84375 L 71.582031 85.84375 C 72.019531 87.878906 71.453125 89.996094 70.0625 91.542969 L 85.863281 125.011719 L 86.1875 124.996094 C 86.308594 124.996094 86.433594 124.996094 86.554688 125.007812 L 99.984375 92.316406 C 97.710938 90.511719 96.890625 87.429688 97.964844 84.734375 L 85.269531 75.550781 Z M 50.714844 50.558594 L 64.988281 80.804688 L 65.511719 80.777344 C 66.808594 80.777344 68.003906 81.1875 68.996094 81.878906 L 81.265625 72.660156 L 50.710938 50.558594 Z M 116.503906 52.113281 L 89.226562 72.589844 L 101.253906 81.300781 C 101.820312 81.046875 102.429688 80.878906 103.066406 80.8125 L 103.703125 80.78125 C 104.042969 80.78125 104.375 80.808594 104.699219 80.867188 L 116.507812 52.117188 Z M 115.644531 46.859375 L 53.65625 46.855469 L 85.222656 69.691406 L 115.640625 46.855469 Z M 115.644531 46.859375 "/>
</g>
</svg>
