<?xml version="1.0" encoding="UTF-8"?>
<svg xmlns="http://www.w3.org/2000/svg" xmlns:xlink="http://www.w3.org/1999/xlink" width="168pt" height="168pt" viewBox="0 0 168 168" version="1.1">
<g id="surface1861">
<path style=" stroke:none;fill-rule:nonzero;fill:rgb(1.960784%,46.27451%,70.588235%);fill-opacity:1;" d="M 168 84 C 168 130.390625 130.390625 168 84 168 C 37.609375 168 0 130.390625 0 84 C 0 37.609375 37.609375 0 84 0 C 130.390625 0 168 37.609375 168 84 "/>
<path style=" stroke:none;fill-rule:nonzero;fill:rgb(100%,100%,100%);fill-opacity:1;" d="M 129.507812 99.03125 L 123.949219 95.550781 L 136.078125 95.410156 L 136.332031 95.273438 L 136.332031 95.40625 L 141.339844 95.355469 L 132.839844 109.183594 L 132.078125 102.515625 L 93.417969 123.847656 L 78.75 104.265625 L 37.640625 125.925781 L 37.640625 120.992188 L 80.023438 98.664062 L 94.679688 118.242188 Z M 76.417969 94.28125 L 60.351562 102.738281 L 60.355469 45.382812 L 76.421875 45.382812 L 76.421875 94.28125 Z M 121.847656 96.804688 L 105.78125 105.730469 L 105.78125 45.382812 L 121.847656 45.382812 Z M 121.847656 96.804688 "/>
<path style=" stroke:none;fill-rule:nonzero;fill:rgb(100%,100%,100%);fill-opacity:0.5;" d="M 99.136719 109.425781 L 95.6875 111.335938 L 83.066406 94.484375 L 83.066406 51.945312 L 99.132812 51.945312 L 99.132812 109.425781 Z M 53.703125 106.238281 L 37.636719 114.703125 L 37.636719 59.386719 L 53.703125 59.386719 Z M 53.703125 106.238281 "/>
</g>
</svg>
