<?xml version="1.0" encoding="UTF-8"?>
<svg xmlns="http://www.w3.org/2000/svg" xmlns:xlink="http://www.w3.org/1999/xlink" width="168pt" height="168pt" viewBox="0 0 168 168" version="1.1">
<g id="surface2385">
<path style=" stroke:none;fill-rule:evenodd;fill:rgb(12.54902%,77.254902%,82.745098%);fill-opacity:1;" d="M 168 84 C 168 130.390625 130.390625 168 84 168 C 37.609375 168 0 130.390625 0 84 C 0 37.609375 37.609375 0 84 0 C 130.390625 0 168 37.609375 168 84 "/>
<path style=" stroke:none;fill-rule:nonzero;fill:rgb(100%,100%,100%);fill-opacity:1;" d="M 93.503906 41.316406 L 93.503906 40.847656 C 94.433594 40.453125 96.277344 40.082031 99.445312 40.933594 C 103.074219 41.910156 105.875 45.554688 107.164062 47.515625 L 107.152344 48.777344 C 107.089844 55.808594 104.851562 73.175781 100.976562 86.195312 C 97.589844 97.570312 90.203125 112.707031 88.703125 115.730469 C 87.964844 115.570312 87.21875 115.453125 86.46875 115.378906 C 87.09375 111.542969 89.816406 94.445312 91.535156 78.871094 C 93.355469 62.34375 93.5 45.953125 93.5 41.324219 Z M 108.722656 48.792969 L 108.722656 48.734375 C 110.085938 48.703125 113.113281 48.949219 116.5625 51.171875 C 119.902344 53.320312 121.625 57.402344 122.335938 59.597656 L 122.003906 60.894531 C 121.191406 64.054688 115.164062 80.347656 108.679688 92.625 C 103.175781 103.03125 94.394531 114.542969 92.476562 117.011719 L 92.480469 117.011719 C 91.757812 116.667969 91.011719 116.375 90.246094 116.136719 C 92.03125 112.53125 99.15625 97.808594 102.480469 86.632812 C 106.398438 73.476562 108.65625 55.910156 108.722656 48.796875 Z M 110.070312 93.332031 C 116.246094 81.640625 122.480469 65.234375 123.511719 61.324219 C 124.871094 61.816406 127.789062 63.125 129.691406 65.71875 C 131.320312 67.933594 131.847656 70.933594 132.023438 72.816406 L 131.386719 74.296875 C 130.160156 77.148438 122.671875 90.28125 115.128906 99.644531 C 108.597656 107.75 98.785156 117.367188 96.433594 119.648438 C 95.640625 118.9375 94.78125 118.304688 93.871094 117.757812 C 96.082031 114.902344 104.648438 103.597656 110.074219 93.335938 Z M 57.773438 50.007812 L 57.589844 48.570312 C 58.445312 46.707031 60.335938 43.597656 63.953125 41.945312 C 67.890625 40.148438 70.953125 40.636719 72.320312 41.035156 L 72.332031 41.34375 C 72.4375 44.46875 73.261719 59.84375 75.273438 77.992188 C 77.121094 94.597656 80.097656 112.257812 80.671875 115.613281 C 79.882812 115.753906 79.113281 115.949219 78.355469 116.191406 C 76.894531 113.09375 70.394531 99.023438 66.027344 84.925781 C 61.15625 69.203125 58.363281 54.605469 57.773438 50.003906 Z M 73.894531 41.292969 L 73.875 40.574219 C 75.3125 39.28125 78.664062 36.746094 82.851562 36.746094 C 87.03125 36.746094 90.453125 39.28125 91.929688 40.578125 L 91.929688 41.3125 C 91.929688 45.925781 91.789062 62.25 89.972656 78.691406 C 88.234375 94.460938 85.457031 111.804688 84.890625 115.289062 L 84.480469 115.277344 C 83.722656 115.277344 82.972656 115.320312 82.222656 115.394531 C 81.667969 112.164062 78.679688 94.460938 76.832031 77.824219 C 74.828125 59.722656 74.007812 44.398438 73.898438 41.285156 Z M 84.480469 116.824219 C 92.96875 116.824219 96.882812 121.972656 98.0625 123.9375 C 91.632812 128.453125 86.398438 131.246094 84.550781 131.246094 C 82.703125 131.246094 78.109375 128.9375 70.886719 123.710938 C 72.042969 121.847656 75.9375 116.824219 84.484375 116.824219 Z M 132.785156 74.992188 C 134.078125 75.832031 136.726562 78.09375 136.480469 82.445312 C 136.15625 88.179688 126.320312 99.539062 113.972656 111.03125 L 113.976562 111.039062 C 109.347656 115.339844 104.457031 119.347656 99.328125 123.042969 C 98.804688 122.222656 98.203125 121.453125 97.539062 120.738281 C 99.933594 118.421875 109.78125 108.769531 116.355469 100.605469 C 123.914062 91.230469 131.4375 78.058594 132.789062 74.996094 Z M 35.804688 73.882812 C 35.421875 72.933594 35.058594 71.976562 34.71875 71.011719 C 34.710938 69.3125 35.125 67.636719 35.925781 66.132812 C 37.722656 62.878906 42.277344 61.386719 44.085938 60.910156 L 44.097656 60.941406 L 44.292969 61.625 C 45.605469 66.199219 48.671875 76.914062 56.746094 92.402344 C 63.953125 106.226562 71.789062 115.78125 73.980469 118.335938 L 73.976562 118.335938 C 73.390625 118.738281 72.828125 119.175781 72.296875 119.652344 C 64.890625 113.238281 58.027344 106.222656 51.777344 98.671875 C 43.996094 89.265625 38.625 80.925781 35.808594 73.882812 Z M 71.191406 120.753906 C 70.613281 121.382812 70.089844 122.066406 69.617188 122.789062 L 69.613281 122.792969 C 65.0625 119.398438 60.632812 115.84375 56.332031 112.132812 C 40.519531 98.613281 31.867188 89.210938 31.519531 83.273438 C 31.257812 78.742188 33.554688 76.1875 34.667969 75.226562 C 37.617188 82.246094 42.953125 90.453125 50.554688 99.648438 L 50.558594 99.648438 C 56.84375 107.238281 63.746094 114.292969 71.191406 120.75 Z M 45.605469 60.515625 C 45.4375 59.933594 45.273438 59.347656 45.125 58.757812 C 45.527344 56.835938 46.527344 53.960938 48.96875 52.183594 L 48.964844 52.183594 C 51.0625 50.664062 53.613281 49.902344 56.203125 50.027344 L 56.230469 50.207031 C 56.824219 54.851562 59.632812 69.570312 64.535156 85.382812 C 68.882812 99.40625 75.3125 113.402344 76.886719 116.75 C 76.351562 116.972656 75.828125 117.226562 75.320312 117.503906 C 73.402344 115.289062 65.457031 105.726562 58.140625 91.695312 C 50.132812 76.34375 47.101562 65.734375 45.804688 61.203125 Z M 45.605469 60.515625 "/>
</g>
</svg>
