<?xml version="1.0" encoding="UTF-8"?>
<svg xmlns="http://www.w3.org/2000/svg" xmlns:xlink="http://www.w3.org/1999/xlink" width="168pt" height="168pt" viewBox="0 0 168 168" version="1.1">
<g id="surface2335">
<path style=" stroke:none;fill-rule:evenodd;fill:rgb(100%,22.745098%,0%);fill-opacity:1;" d="M 168 84 C 168 130.390625 130.390625 168 84 168 C 37.609375 168 0 130.390625 0 84 C 0 37.609375 37.609375 0 84 0 C 130.390625 0 168 37.609375 168 84 "/>
<path style=" stroke:none;fill-rule:nonzero;fill:rgb(100%,100%,100%);fill-opacity:1;" d="M 84.015625 26.25 C 115.867188 26.300781 141.761719 52.214844 141.75 84.015625 C 141.738281 115.851562 115.824219 141.75 83.980469 141.75 L 83.929688 141.75 C 52.113281 141.71875 26.234375 115.777344 26.25 83.925781 C 26.265625 52.132812 52.183594 26.25 84.015625 26.25 Z M 84 33.695312 C 56.296875 33.695312 33.746094 56.261719 33.738281 83.992188 C 33.734375 111.691406 56.25 134.246094 83.9375 134.265625 C 111.671875 134.265625 134.257812 111.710938 134.28125 83.992188 L 134.277344 83.988281 C 134.320312 70.648438 129.015625 57.851562 119.554688 48.445312 C 110.152344 38.980469 97.351562 33.667969 84.011719 33.695312 Z M 108.820312 78.839844 C 110.601562 87.863281 108.3125 95.445312 101.828125 102.027344 L 100.9375 102.925781 L 99.804688 102.371094 L 99.800781 102.371094 C 99.175781 102.0625 98.539062 101.777344 97.890625 101.507812 L 95.324219 100.4375 L 97.394531 98.578125 C 101.433594 94.957031 103.578125 90.226562 103.785156 84.523438 C 103.996094 78.820312 101.972656 73.851562 97.785156 69.75 L 97.78125 69.75 C 94.109375 66.148438 89.164062 64.136719 84.019531 64.15625 C 78.332031 64.152344 72.917969 66.597656 69.164062 70.871094 C 64.972656 75.648438 63.375 81.464844 64.542969 87.6875 L 64.542969 87.683594 C 65.265625 91.800781 67.320312 95.566406 70.390625 98.402344 L 72.421875 100.285156 L 69.855469 101.320312 C 69.214844 101.578125 68.542969 101.855469 67.824219 102.160156 L 66.722656 102.621094 L 65.882812 101.765625 C 61.5625 97.3125 59.21875 92.191406 58.730469 86.101562 C 57.695312 73.265625 66.015625 61.957031 78.523438 59.214844 C 80.367188 58.804688 82.253906 58.597656 84.140625 58.59375 C 89.960938 58.601562 95.597656 60.621094 100.09375 64.3125 C 104.59375 68 107.675781 73.132812 108.816406 78.839844 Z M 52.355469 111.863281 C 44.609375 103.21875 38.324219 87.890625 43.941406 70.785156 C 46.71875 62.359375 52.082031 55.023438 59.269531 49.820312 C 66.457031 44.617188 75.101562 41.816406 83.972656 41.8125 C 92.769531 41.800781 101.351562 44.542969 108.511719 49.65625 C 115.671875 54.765625 121.050781 61.988281 123.898438 70.3125 C 128.863281 84.867188 125.410156 101.414062 115.105469 112.46875 L 113.792969 113.871094 L 109.082031 108.609375 L 110.121094 107.4375 C 116.566406 100.175781 119.5625 91.566406 119.019531 81.855469 C 118.515625 72.984375 114.988281 65.253906 108.53125 58.890625 L 108.535156 58.894531 C 102.011719 52.445312 93.203125 48.839844 84.03125 48.871094 C 75.605469 48.875 67.464844 51.902344 61.082031 57.402344 C 56.140625 61.621094 52.484375 67.148438 50.535156 73.347656 C 48.558594 79.511719 48.339844 86.105469 49.90625 92.382812 C 51.210938 97.761719 53.785156 102.75 57.414062 106.925781 L 58.441406 108.117188 L 53.632812 113.292969 Z M 52.355469 111.863281 "/>
</g>
</svg>
