<?xml version="1.0" encoding="UTF-8"?>
<svg xmlns="http://www.w3.org/2000/svg" xmlns:xlink="http://www.w3.org/1999/xlink" width="168pt" height="168pt" viewBox="0 0 168 168" version="1.1">
<g id="surface1866">
<path style=" stroke:none;fill-rule:nonzero;fill:rgb(18.431373%,82.352941%,89.803922%);fill-opacity:1;" d="M 168 84 C 168 130.390625 130.390625 168 84 168 C 37.609375 168 0 130.390625 0 84 C 0 37.609375 37.609375 0 84 0 C 130.390625 0 168 37.609375 168 84 "/>
<path style=" stroke:none;fill-rule:nonzero;fill:rgb(100%,100%,100%);fill-opacity:1;" d="M 86.992188 21.035156 C 72.808594 20.542969 58.882812 24.941406 47.554688 33.496094 C 45.332031 35.167969 43.976562 37.75 43.863281 40.53125 C 43.75 43.308594 44.894531 45.992188 46.976562 47.839844 C 50.242188 50.925781 55.273438 51.167969 58.820312 48.410156 C 67.511719 41.648438 78.421875 38.386719 89.398438 39.269531 C 100.371094 40.15625 110.621094 45.121094 118.113281 53.1875 C 121.210938 56.390625 121.304688 61.433594 118.332031 64.753906 L 118.335938 64.753906 C 116.828125 66.371094 114.738281 67.324219 112.527344 67.398438 C 110.316406 67.476562 108.164062 66.671875 106.546875 65.164062 L 106.144531 64.753906 C 101.132812 59.257812 94.105469 56.023438 86.667969 55.796875 C 79.234375 55.570312 72.023438 58.363281 66.679688 63.542969 C 61.339844 68.722656 58.324219 75.84375 58.324219 83.285156 C 58.324219 90.722656 61.339844 97.84375 66.679688 103.023438 C 72.023438 108.203125 79.234375 111 86.667969 110.769531 C 94.105469 110.542969 101.132812 107.308594 106.144531 101.8125 C 108.605469 99.058594 112.609375 98.296875 115.910156 99.960938 C 118.222656 101.121094 119.863281 103.296875 120.339844 105.84375 C 120.816406 108.386719 120.074219 111.007812 118.335938 112.925781 C 110.871094 121.097656 100.609375 126.171875 89.585938 127.136719 C 78.5625 128.105469 67.574219 124.902344 58.800781 118.15625 C 55.214844 115.425781 50.1875 115.667969 46.882812 118.734375 C 44.8125 120.628906 43.703125 123.351562 43.855469 126.152344 C 44.003906 128.953125 45.402344 131.542969 47.664062 133.203125 C 63.546875 144.980469 84.082031 148.511719 102.984375 142.710938 C 121.886719 136.910156 136.90625 122.46875 143.449219 103.808594 C 149.988281 85.152344 147.273438 64.492188 136.132812 48.160156 C 124.988281 31.824219 106.746094 21.757812 86.988281 21.042969 Z M 85.835938 98.671875 C 80.335938 98.652344 75.265625 95.699219 72.53125 90.925781 C 69.796875 86.148438 69.820312 80.28125 72.589844 75.527344 C 75.355469 70.773438 80.453125 67.855469 85.953125 67.878906 C 91.453125 67.898438 96.527344 70.851562 99.261719 75.625 C 101.996094 80.398438 101.972656 86.269531 99.207031 91.023438 C 96.4375 95.777344 91.34375 98.695312 85.84375 98.671875 Z M 85.835938 98.671875 "/>
</g>
</svg>
