<?xml version="1.0" encoding="UTF-8"?>
<svg xmlns="http://www.w3.org/2000/svg" xmlns:xlink="http://www.w3.org/1999/xlink" width="168pt" height="168pt" viewBox="0 0 168 168" version="1.1">
<g id="surface1611">
<path style=" stroke:none;fill-rule:evenodd;fill:rgb(75.686275%,62.745098%,36.078431%);fill-opacity:1;" d="M 168 84 C 168 130.390625 130.390625 168 84 168 C 37.609375 168 0 130.390625 0 84 C 0 37.609375 37.609375 0 84 0 C 130.390625 0 168 37.609375 168 84 "/>
<path style=" stroke:none;fill-rule:evenodd;fill:rgb(100%,100%,100%);fill-opacity:1;" d="M 85.449219 136.5 C 73.273438 136.46875 62.375 132.730469 52.640625 125.578125 C 50.050781 123.675781 49.972656 122.585938 52.179688 120.21875 L 52.378906 120.007812 C 55.070312 117.089844 55.054688 117.105469 58.253906 119.402344 L 58.253906 119.40625 C 65.621094 124.789062 74.453125 127.804688 83.574219 128.046875 C 93.265625 128.382812 102.167969 126.066406 110.21875 120.875 C 119.875 114.648438 126.457031 105.976562 129.214844 94.902344 C 132.675781 81 130.101562 68.128906 120.988281 56.8125 C 114.605469 48.886719 106.308594 43.777344 96.285156 41.355469 C 87.339844 39.191406 78.550781 39.722656 69.914062 42.695312 C 65.339844 44.269531 61.113281 46.589844 57.296875 49.574219 C 55.414062 51.042969 54.699219 51.011719 53.097656 49.21875 C 52.328125 48.382812 51.605469 47.503906 50.933594 46.582031 C 49.945312 45.183594 50.082031 44.355469 51.417969 43.296875 C 57.753906 38.269531 65.136719 34.730469 73.023438 32.933594 C 80.160156 31.242188 87.566406 31.046875 94.785156 32.355469 C 104.59375 34.128906 113.316406 38.160156 120.808594 44.691406 C 126.351562 49.53125 130.835938 55.191406 133.953125 61.804688 C 138.246094 70.917969 139.996094 80.464844 138.710938 90.53125 L 138.710938 90.535156 C 137.5625 99.722656 133.953125 108.429688 128.261719 115.734375 C 122.449219 123.304688 115.011719 128.828125 106.117188 132.457031 C 99.566406 135.167969 92.539062 136.539062 85.449219 136.5 Z M 82.109375 102.988281 C 81.757812 103.523438 81.574219 103.921875 81.28125 104.226562 C 79.507812 106.089844 77.339844 107.207031 74.722656 107.292969 C 72.910156 107.34375 71.09375 107.191406 69.285156 107.234375 L 69.285156 107.238281 C 68.582031 107.230469 67.894531 107.402344 67.277344 107.742188 C 58.910156 112.992188 49.898438 113.757812 40.40625 111.742188 C 37.28125 111.082031 34.484375 109.878906 32.101562 107.832031 C 30.304688 106.292969 29.039062 104.476562 28.886719 101.925781 C 28.625 97.480469 31.914062 94.445312 35.308594 93.453125 C 41.570312 91.617188 47.53125 92.734375 53.230469 95.5 C 55.835938 96.761719 58.269531 98.367188 60.757812 99.859375 C 62.1875 100.703125 62.609375 100.671875 63.324219 99.214844 C 66.554688 92.621094 64.46875 85.347656 56.582031 82.660156 C 49.664062 80.296875 42.894531 80.535156 36.234375 83.605469 C 35.257812 84.058594 34.1875 84.917969 33.039062 83.992188 C 31.847656 83.027344 32.644531 81.875 32.949219 80.859375 C 35.136719 73.488281 37.359375 66.132812 39.613281 58.78125 C 40.105469 57.167969 41.394531 56.339844 43.273438 56.441406 C 46.039062 56.59375 48.792969 57.007812 51.558594 57.070312 C 55.707031 57.175781 59.871094 57.210938 64.011719 57.007812 C 67.09375 56.851562 69.796875 55.496094 72.175781 53.53125 C 72.464844 53.296875 73.046875 53.023438 73.234375 53.148438 C 73.511719 53.332031 73.679688 53.847656 73.707031 54.234375 C 73.902344 57.414062 72.535156 59.867188 70.003906 61.773438 C 67.011719 64.03125 63.59375 65.082031 59.859375 65.171875 C 55.988281 65.261719 52.121094 65.3125 48.257812 65.328125 C 47.386719 65.339844 46.925781 65.652344 46.71875 66.472656 C 46.371094 67.835938 46.003906 69.207031 45.609375 70.566406 C 45.308594 71.578125 45.695312 71.984375 46.71875 71.941406 C 49.15625 71.851562 51.589844 71.6875 54.023438 71.707031 L 54.027344 71.703125 C 59.621094 71.671875 65.027344 73.746094 69.164062 77.511719 C 73.222656 81.125 74.867188 85.785156 75.113281 90.992188 C 75.308594 95.164062 74.507812 99.160156 72.214844 102.757812 C 71.589844 103.738281 71.875 104.164062 72.929688 104.441406 C 75.734375 105.183594 78.320312 104.675781 80.792969 103.296875 C 81.003906 103.179688 81.195312 103.050781 81.414062 102.949219 C 81.488281 102.917969 81.597656 102.953125 82.113281 102.984375 Z M 58.128906 104.175781 L 58.042969 103.667969 C 57.691406 103.453125 57.359375 103.183594 56.976562 103.015625 C 54.195312 101.78125 51.449219 100.417969 48.59375 99.378906 C 45.679688 98.3125 42.652344 97.550781 39.480469 98.292969 C 38.050781 98.625 36.625 98.984375 36.210938 100.628906 C 35.75 102.441406 36.855469 103.570312 38.148438 104.554688 C 38.550781 104.863281 39.050781 105.085938 39.535156 105.273438 C 44.4375 107.164062 49.414062 107.214844 54.414062 105.734375 C 55.695312 105.355469 56.898438 104.699219 58.132812 104.175781 Z M 58.128906 104.175781 "/>
</g>
</svg>
