<?xml version="1.0" encoding="UTF-8"?>
<svg xmlns="http://www.w3.org/2000/svg" xmlns:xlink="http://www.w3.org/1999/xlink" width="168pt" height="168pt" viewBox="0 0 168 168" version="1.1">
<g id="surface1721">
<path style=" stroke:none;fill-rule:evenodd;fill:rgb(21.960784%,22.352941%,22.352941%);fill-opacity:1;" d="M 168 84 C 168 130.390625 130.390625 168 84 168 C 37.609375 168 0 130.390625 0 84 C 0 37.609375 37.609375 0 84 0 C 130.390625 0 168 37.609375 168 84 "/>
<path style=" stroke:none;fill-rule:evenodd;fill:rgb(100%,100%,100%);fill-opacity:1;" d="M 102.234375 60.265625 L 116.234375 57.058594 L 121.65625 48.128906 L 116.300781 39.34375 L 109.445312 34.609375 L 95.359375 31.5 L 86.671875 36.398438 L 72.769531 33.921875 L 53.679688 47.148438 L 52.195312 62.59375 L 44.09375 65.976562 L 45.027344 80.304688 L 39.375 84.808594 L 45.023438 100.9375 L 45.875 102.628906 L 51.847656 119.234375 L 64.128906 123.582031 L 73.230469 132.84375 L 83.699219 136.507812 L 88.433594 135.144531 L 95.945312 134.277344 L 106.960938 131.121094 L 123.371094 121.855469 L 119.078125 104.886719 L 110.816406 101.632812 L 106.699219 106.34375 L 95.121094 109.1875 L 78.285156 106.519531 L 72.851562 100.234375 L 74.742188 94.085938 L 66.78125 81.492188 L 73.476562 73.324219 L 74.191406 59.4375 L 83.777344 53.933594 L 90.351562 51.308594 L 99.277344 52.921875 Z M 102.234375 60.265625 "/>
</g>
</svg>
