<?xml version="1.0" encoding="UTF-8"?>
<svg xmlns="http://www.w3.org/2000/svg" xmlns:xlink="http://www.w3.org/1999/xlink" width="168pt" height="168pt" viewBox="0 0 168 168" version="1.1">
<g id="surface781">
<path style=" stroke:none;fill-rule:evenodd;fill:rgb(29.803922%,41.960784%,68.235294%);fill-opacity:1;" d="M 168 84 C 168 130.390625 130.390625 168 84 168 C 37.609375 168 0 130.390625 0 84 C 0 37.609375 37.609375 0 84 0 C 130.390625 0 168 37.609375 168 84 "/>
<path style=" stroke:none;fill-rule:evenodd;fill:rgb(100%,100%,100%);fill-opacity:0.5;" d="M 33.511719 89.300781 L 26.25 90.054688 C 30.136719 79.1875 37.816406 70.492188 49.304688 63.972656 C 50.390625 72.980469 54.660156 80.429688 62.113281 86.332031 L 55.289062 87.039062 C 55.953125 93.304688 58.648438 99.183594 62.964844 103.777344 C 67.277344 108.367188 72.976562 111.421875 79.191406 112.476562 C 74.617188 115.917969 69.199219 118.066406 63.507812 118.695312 C 67.082031 124.996094 71.316406 130.15625 76.195312 134.167969 L 76.199219 134.167969 C 65.132812 132.445312 54.945312 127.109375 47.226562 118.996094 C 39.503906 110.878906 34.683594 100.441406 33.511719 89.300781 Z M 134.488281 78.695312 L 141.75 77.945312 C 137.863281 88.8125 130.183594 97.507812 118.695312 104.027344 C 117.609375 95.019531 113.339844 87.570312 105.886719 81.667969 L 112.710938 80.960938 C 112.039062 74.628906 109.296875 68.695312 104.902344 64.082031 C 100.511719 59.472656 94.71875 56.441406 88.425781 55.460938 C 92.984375 52.054688 98.371094 49.929688 104.027344 49.304688 C 100.421875 42.957031 96.15625 37.777344 91.226562 33.75 L 91.230469 33.746094 C 102.414062 35.359375 112.738281 40.65625 120.574219 48.796875 C 128.410156 56.9375 133.304688 67.460938 134.488281 78.699219 Z M 134.488281 78.695312 "/>
<path style=" stroke:none;fill-rule:evenodd;fill:rgb(100%,100%,100%);fill-opacity:1;" d="M 88.839844 134.535156 L 89.589844 141.75 C 78.722656 137.863281 70.027344 130.183594 63.507812 118.695312 C 72.511719 117.609375 79.960938 113.339844 85.863281 105.886719 L 86.578125 112.765625 C 93 112.1875 99.046875 109.476562 103.75 105.066406 C 108.457031 100.65625 111.550781 94.796875 112.539062 88.425781 C 115.945312 92.984375 118.070312 98.371094 118.695312 104.027344 C 125.042969 100.421875 130.222656 96.15625 134.25 91.226562 L 134.253906 91.230469 C 132.628906 102.492188 127.269531 112.882812 119.035156 120.734375 C 110.800781 128.589844 100.167969 133.449219 88.839844 134.535156 Z M 78.699219 33.511719 L 77.945312 26.25 C 88.8125 30.136719 97.507812 37.816406 104.027344 49.304688 C 95.019531 50.390625 87.570312 54.660156 81.667969 62.113281 L 80.960938 55.289062 C 74.628906 55.960938 68.695312 58.703125 64.082031 63.097656 C 59.472656 67.488281 56.441406 73.28125 55.460938 79.574219 C 52.054688 75.015625 49.929688 69.628906 49.304688 63.972656 C 42.957031 67.578125 37.777344 71.84375 33.75 76.773438 L 33.746094 76.769531 C 35.359375 65.585938 40.65625 55.261719 48.796875 47.425781 C 56.9375 39.589844 67.460938 34.695312 78.699219 33.511719 Z M 78.699219 33.511719 "/>
</g>
</svg>
