<?xml version="1.0" encoding="UTF-8"?>
<svg xmlns="http://www.w3.org/2000/svg" xmlns:xlink="http://www.w3.org/1999/xlink" width="168pt" height="168pt" viewBox="0 0 168 168" version="1.1">
<g id="surface81">
<path style=" stroke:none;fill-rule:evenodd;fill:rgb(100%,26.27451%,7.843137%);fill-opacity:1;" d="M 168 84 C 168 130.390625 130.390625 168 84 168 C 37.609375 168 0 130.390625 0 84 C 0 37.609375 37.609375 0 84 0 C 130.390625 0 168 37.609375 168 84 "/>
<path style=" stroke:none;fill-rule:evenodd;fill:rgb(100%,100%,100%);fill-opacity:1;" d="M 48.148438 42 L 120.683594 42 L 120.683594 52.105469 L 48.140625 52.105469 Z M 40.0625 71.617188 L 129.695312 71.617188 L 129.695312 81.828125 L 102.238281 81.828125 L 102.238281 115.988281 C 102.238281 118.613281 103.378906 119.925781 105.753906 119.925781 L 117.15625 119.925781 C 118.402344 119.925781 119.433594 119.121094 120.054688 117.605469 C 120.785156 115.988281 121.300781 111.03125 121.507812 102.847656 L 131.246094 105.882812 C 130.523438 117.300781 129.171875 124.074219 127.308594 126.199219 C 125.445312 128.214844 122.75 129.328125 119.117188 129.328125 L 102.648438 129.328125 C 95.289062 129.328125 91.664062 125.589844 91.664062 118.207031 L 91.664062 81.824219 L 76.324219 81.824219 L 76.324219 83.84375 C 75.808594 96.679688 72.910156 106.984375 67.625 114.671875 C 62.441406 121.742188 54.152344 127.304688 42.546875 131.246094 L 36.75 122.355469 C 47.941406 118.511719 55.402344 113.660156 59.339844 108.003906 C 63.277344 101.734375 65.347656 93.75 65.761719 83.847656 L 65.761719 81.828125 L 40.066406 81.828125 Z M 40.0625 71.617188 "/>
</g>
</svg>
