<?xml version="1.0" encoding="UTF-8"?>
<svg xmlns="http://www.w3.org/2000/svg" xmlns:xlink="http://www.w3.org/1999/xlink" width="168pt" height="168pt" viewBox="0 0 168 168" version="1.1">
<g id="surface2069">
<path style=" stroke:none;fill-rule:evenodd;fill:rgb(7.45098%,74.901961%,60%);fill-opacity:1;" d="M 168 84 C 168 130.390625 130.390625 168 84 168 C 37.609375 168 0 130.390625 0 84 C 0 37.609375 37.609375 0 84 0 C 130.390625 0 168 37.609375 168 84 "/>
<path style=" stroke:none;fill-rule:nonzero;fill:rgb(100%,100%,100%);fill-opacity:1;" d="M 84 131.25 L 60.1875 131.25 L 72.117188 110.476562 L 95.890625 110.476562 L 107.8125 131.25 Z M 72.121094 57.519531 L 72.117188 57.519531 L 60.1875 36.75 L 107.816406 36.75 L 95.886719 57.519531 L 72.113281 57.519531 Z M 124.617188 107.597656 L 124.605469 107.597656 L 124.617188 107.597656 L 112.683594 128.378906 L 100.796875 107.605469 L 100.800781 107.605469 L 112.679688 86.824219 L 136.5 86.824219 L 124.613281 107.597656 Z M 43.386719 60.355469 L 55.316406 39.582031 L 67.203125 60.355469 L 55.316406 81.125 L 31.5 81.121094 Z M 67.195312 107.605469 L 67.199219 107.605469 L 55.3125 128.378906 L 43.382812 107.605469 L 31.5 86.820312 L 55.3125 86.820312 L 67.199219 107.59375 Z M 124.613281 60.355469 L 136.5 81.128906 L 112.6875 81.128906 L 100.796875 60.355469 L 112.683594 39.582031 L 124.617188 60.355469 Z M 124.613281 60.355469 "/>
</g>
</svg>
