<?xml version="1.0" encoding="UTF-8"?>
<svg xmlns="http://www.w3.org/2000/svg" xmlns:xlink="http://www.w3.org/1999/xlink" width="168pt" height="168pt" viewBox="0 0 168 168" version="1.1">
<g id="surface731">
<path style=" stroke:none;fill-rule:nonzero;fill:rgb(46.666667%,76.470588%,69.019608%);fill-opacity:1;" d="M 168 84 C 168 130.390625 130.390625 168 84 168 C 37.609375 168 0 130.390625 0 84 C 0 37.609375 37.609375 0 84 0 C 130.390625 0 168 37.609375 168 84 "/>
<path style=" stroke:none;fill-rule:nonzero;fill:rgb(100%,100%,100%);fill-opacity:1;" d="M 134.808594 69.734375 L 125.945312 60.871094 L 125.949219 60.875 C 123.257812 58.171875 119.597656 56.65625 115.785156 56.671875 L 114.421875 56.671875 L 114.421875 55.253906 C 114.421875 52.769531 113.832031 50.40625 112.59375 48.28125 L 112.589844 48.285156 C 111.953125 47.050781 111.113281 45.933594 110.109375 44.976562 L 101.246094 36.109375 C 98.554688 33.40625 94.890625 31.890625 91.078125 31.910156 L 50.242188 31.910156 C 46.398438 31.910156 42.796875 33.390625 40.078125 36.109375 L 31.214844 44.972656 C 28.503906 47.632812 26.988281 51.277344 27.015625 55.078125 L 26.78125 93.375 C 26.730469 97.210938 28.261719 100.933594 30.980469 103.65625 L 39.84375 112.523438 C 42.53125 115.226562 46.195312 116.734375 50.007812 116.71875 L 51.605469 116.71875 L 51.605469 118.136719 C 51.605469 120.621094 52.199219 122.984375 53.4375 125.109375 C 54.089844 126.355469 54.914062 127.472656 55.921875 128.417969 L 64.785156 137.289062 L 64.78125 137.289062 C 67.472656 139.984375 71.132812 141.492188 74.945312 141.476562 L 115.84375 141.476562 C 119.6875 141.476562 123.289062 140 126.007812 137.28125 L 134.875 128.417969 L 134.871094 128.421875 C 137.570312 125.726562 139.082031 122.066406 139.066406 118.257812 L 139.066406 79.84375 C 139.046875 76.042969 137.515625 72.40625 134.816406 69.734375 Z M 50.007812 103.714844 C 49.632812 103.714844 49.269531 103.566406 49.003906 103.304688 L 44.574219 98.867188 L 40.136719 94.4375 C 39.945312 94.214844 39.804688 93.953125 39.722656 93.671875 L 39.722656 55.140625 C 39.722656 54.71875 39.902344 54.367188 40.144531 54.132812 L 49.007812 45.269531 C 49.125 45.148438 49.242188 45.089844 49.359375 45.035156 L 49.355469 45.035156 C 49.574219 44.921875 49.816406 44.859375 50.0625 44.855469 L 90.960938 44.855469 C 91.195312 44.855469 91.375 44.914062 91.613281 45.035156 C 91.792969 45.09375 91.90625 45.214844 92.027344 45.328125 L 100.890625 54.195312 C 101.019531 54.304688 101.121094 54.445312 101.183594 54.605469 C 101.246094 54.667969 101.246094 54.726562 101.246094 54.785156 C 101.246094 54.84375 101.296875 54.90625 101.296875 54.964844 C 101.296875 55.023438 101.359375 55.199219 101.359375 55.316406 L 101.359375 57.207031 C 101.359375 58.035156 100.707031 58.625 99.941406 58.625 L 92.855469 58.625 L 92.855469 58.621094 C 92.480469 58.625 92.117188 58.476562 91.847656 58.210938 L 87.824219 54.195312 L 53.195312 54.195312 L 51.71875 55.664062 L 49.707031 57.679688 L 49.707031 90.949219 L 53.191406 94.433594 L 87.761719 94.433594 L 91.785156 90.359375 L 91.835938 90.296875 C 91.957031 90.238281 92.078125 90.117188 92.191406 90.0625 C 92.371094 89.945312 92.613281 89.945312 92.785156 89.945312 L 99.871094 89.945312 C 100.34375 89.945312 100.761719 90.179688 101.058594 90.535156 L 101.066406 90.535156 C 101.25 90.773438 101.355469 91.066406 101.363281 91.367188 L 101.363281 93.378906 L 101.363281 93.375 C 101.359375 93.753906 101.210938 94.113281 100.945312 94.378906 L 92.085938 103.238281 C 92.027344 103.300781 91.90625 103.359375 91.851562 103.417969 C 91.851562 103.417969 91.792969 103.476562 91.730469 103.476562 C 91.671875 103.539062 91.613281 103.539062 91.550781 103.539062 C 91.5 103.539062 91.5 103.539062 91.433594 103.597656 C 91.375 103.597656 91.3125 103.65625 91.253906 103.65625 L 50.007812 103.65625 Z M 126.128906 118.136719 L 126.125 118.136719 C 126.125 118.511719 125.972656 118.871094 125.707031 119.136719 L 116.84375 128.003906 C 116.742188 128.105469 116.621094 128.183594 116.492188 128.242188 C 116.273438 128.355469 116.03125 128.417969 115.785156 128.421875 L 74.886719 128.421875 C 74.65625 128.417969 74.433594 128.355469 74.234375 128.242188 C 74.078125 128.179688 73.9375 128.078125 73.824219 127.949219 L 64.957031 119.082031 C 64.839844 118.964844 64.722656 118.847656 64.664062 118.667969 C 64.601562 118.617188 64.601562 118.550781 64.601562 118.496094 C 64.601562 118.433594 64.550781 118.375 64.550781 118.316406 C 64.550781 118.257812 64.488281 118.082031 64.488281 117.960938 L 64.488281 116.070312 C 64.488281 115.246094 65.140625 114.652344 65.90625 114.652344 L 72.992188 114.652344 C 73.414062 114.652344 73.765625 114.832031 74 115.066406 L 78.023438 119.082031 L 112.59375 119.082031 L 116.082031 115.59375 L 116.082031 82.324219 L 112.597656 78.832031 L 78.085938 78.832031 L 74.070312 82.910156 L 74.007812 82.96875 C 73.890625 83.03125 73.773438 83.148438 73.65625 83.203125 C 73.476562 83.324219 73.242188 83.324219 73.0625 83.324219 L 65.976562 83.324219 L 65.964844 83.328125 C 65.5 83.320312 65.066406 83.101562 64.78125 82.734375 C 64.597656 82.5 64.492188 82.210938 64.484375 81.910156 L 64.484375 79.898438 C 64.484375 79.523438 64.632812 79.164062 64.902344 78.898438 L 69.332031 74.46875 L 73.761719 70.03125 C 73.824219 69.972656 73.941406 69.914062 73.996094 69.851562 C 73.996094 69.851562 74.058594 69.800781 74.117188 69.800781 C 74.175781 69.738281 74.234375 69.738281 74.296875 69.738281 C 74.347656 69.738281 74.347656 69.738281 74.414062 69.679688 C 74.472656 69.679688 74.535156 69.617188 74.59375 69.617188 L 115.785156 69.617188 C 116.195312 69.617188 116.550781 69.796875 116.789062 70.039062 L 121.21875 74.46875 L 125.65625 78.898438 C 125.707031 78.957031 125.773438 79.015625 125.828125 79.132812 C 125.929688 79.296875 126.011719 79.476562 126.0625 79.664062 L 126.0625 79.957031 C 126.125 79.839844 126.125 118.136719 126.125 118.136719 Z M 126.128906 118.136719 "/>
</g>
</svg>
