<?xml version="1.0" encoding="UTF-8"?>
<svg xmlns="http://www.w3.org/2000/svg" xmlns:xlink="http://www.w3.org/1999/xlink" width="168pt" height="168pt" viewBox="0 0 168 168" version="1.1">
<g id="surface316">
<path style=" stroke:none;fill-rule:nonzero;fill:rgb(0%,82.745098%,58.431373%);fill-opacity:1;" d="M 168 84 C 168 130.390625 130.390625 168 84 168 C 37.609375 168 0 130.390625 0 84 C 0 37.609375 37.609375 0 84 0 C 130.390625 0 168 37.609375 168 84 "/>
<path style=" stroke:none;fill-rule:evenodd;fill:rgb(100%,100%,100%);fill-opacity:1;" d="M 44.992188 113.332031 C 42.339844 111.761719 40.703125 108.914062 40.6875 105.828125 L 40.6875 88.75 C 40.6875 86.71875 42.378906 85.074219 44.445312 85.085938 C 45.105469 85.085938 45.757812 85.257812 46.335938 85.585938 L 85.726562 108.0625 C 88.03125 109.375 89.453125 111.789062 89.453125 114.398438 L 89.453125 132.089844 C 89.449219 133.269531 88.96875 134.402344 88.128906 135.230469 C 87.285156 136.054688 86.148438 136.515625 84.964844 136.5 C 84.136719 136.5 83.320312 136.277344 82.601562 135.855469 Z M 103.707031 80.90625 C 106.015625 82.21875 107.425781 84.640625 107.433594 87.242188 L 107.433594 123.152344 C 107.433594 124.210938 106.855469 125.195312 105.90625 125.710938 L 97.285156 130.457031 L 97.289062 130.457031 C 97.175781 130.519531 97.058594 130.566406 96.9375 130.597656 L 96.9375 110.65625 C 96.9375 108.074219 95.558594 105.679688 93.285156 104.355469 L 58.695312 84.105469 L 58.695312 61.597656 C 58.695312 59.566406 60.386719 57.921875 62.460938 57.933594 C 63.121094 57.933594 63.769531 58.105469 64.34375 58.433594 L 103.71875 80.910156 Z M 120.953125 54.382812 C 123.261719 55.695312 124.6875 58.109375 124.6875 60.730469 L 124.6875 113.179688 C 124.675781 114.265625 124.066406 115.257812 123.105469 115.761719 L 114.929688 120.082031 L 114.929688 83.5625 C 114.929688 80.984375 113.542969 78.597656 111.292969 77.269531 L 75.929688 56.515625 L 75.929688 35.175781 C 75.929688 34.523438 76.113281 33.890625 76.433594 33.328125 C 77.503906 31.570312 79.777344 30.984375 81.5625 32 L 120.953125 54.390625 Z M 120.953125 54.382812 "/>
</g>
</svg>
