<?xml version="1.0" encoding="UTF-8"?>
<svg xmlns="http://www.w3.org/2000/svg" xmlns:xlink="http://www.w3.org/1999/xlink" width="168pt" height="168pt" viewBox="0 0 168 168" version="1.1">
<g id="surface1596">
<path style=" stroke:none;fill-rule:nonzero;fill:rgb(44.313725%,78.431373%,0%);fill-opacity:1;" d="M 168 84 C 168 130.390625 130.390625 168 84 168 C 37.609375 168 0 130.390625 0 84 C 0 37.609375 37.609375 0 84 0 C 130.390625 0 168 37.609375 168 84 "/>
<path style=" stroke:none;fill-rule:evenodd;fill:rgb(100%,100%,100%);fill-opacity:1;" d="M 135.554688 77.253906 C 131.421875 77.449219 127.277344 77.691406 123.144531 77.542969 C 119.4375 77.40625 115.746094 76.792969 112.050781 76.363281 L 112.050781 76.359375 C 111.667969 76.296875 111.3125 76.128906 111.015625 75.878906 C 104.898438 70.863281 98.886719 65.734375 93.617188 59.796875 C 91.695312 57.628906 90.140625 55.289062 89.269531 52.441406 C 88.097656 48.605469 83.179688 47.128906 79.535156 49.347656 C 75.714844 51.679688 75.058594 57.101562 78.273438 60.210938 L 78.277344 60.210938 C 78.847656 60.777344 79.550781 61.191406 80.324219 61.410156 C 83.105469 62.082031 85.257812 63.742188 87.289062 65.621094 C 90.933594 68.988281 94.199219 72.707031 97.367188 76.519531 C 98.277344 77.605469 97.8125 78.867188 96.421875 79.023438 C 94.269531 79.277344 92.101562 79.5 89.933594 79.589844 C 85.847656 79.757812 81.757812 79.921875 77.667969 79.878906 C 75.382812 79.851562 73.089844 79.5 70.828125 79.121094 L 70.832031 79.121094 C 69.765625 78.914062 68.746094 78.511719 67.824219 77.9375 C 64.785156 76.117188 61.632812 77.359375 59.882812 79.15625 L 59.882812 79.152344 C 57.703125 81.382812 57.273438 84.789062 58.828125 87.492188 C 60.289062 89.992188 63.164062 91.449219 65.746094 90.90625 C 66.492188 90.75 67.226562 90.417969 67.886719 90.035156 C 69.621094 89.046875 71.5 88.585938 73.441406 88.464844 C 76.558594 88.277344 79.699219 88.097656 82.824219 88.171875 C 86.796875 88.265625 90.773438 88.617188 94.746094 88.863281 C 95.285156 88.898438 95.832031 88.925781 96.367188 89.011719 C 97.859375 89.253906 98.289062 90.445312 97.300781 91.617188 C 96.113281 93.023438 94.96875 94.476562 93.6875 95.789062 L 93.691406 95.785156 C 90.996094 98.546875 88.257812 101.265625 85.476562 103.941406 C 84.210938 105.148438 82.648438 105.992188 80.945312 106.386719 C 77.5 107.210938 75.800781 110.535156 76.285156 113.894531 C 76.769531 117.234375 79.75 119.742188 83.125 119.75 C 86.253906 119.75 88.660156 118.082031 89.492188 115.089844 C 90.347656 112.011719 92.320312 109.691406 94.378906 107.429688 C 99.457031 101.859375 105.164062 96.960938 110.984375 92.203125 L 110.984375 92.199219 C 111.324219 91.925781 111.734375 91.742188 112.167969 91.675781 C 115.113281 91.292969 118.058594 90.816406 121.015625 90.632812 L 121.011719 90.628906 C 124.34375 90.414062 127.6875 90.367188 131.023438 90.496094 C 134.503906 90.636719 137.96875 91.09375 141.539062 91.425781 C 141.476562 92.632812 141.460938 93.664062 141.367188 94.679688 C 140.726562 101.292969 139.042969 107.632812 135.929688 113.515625 C 128.242188 128.03125 116.390625 137.121094 100.351562 140.664062 L 100.347656 140.664062 C 96.753906 141.421875 93.085938 141.785156 89.414062 141.738281 C 85.503906 141.734375 81.589844 141.769531 77.679688 141.726562 C 66.839844 141.609375 56.921875 138.523438 48.097656 132.203125 C 37.476562 124.589844 30.613281 114.367188 27.664062 101.617188 C 27 98.769531 26.605469 95.867188 26.484375 92.945312 C 26.238281 87.425781 26.1875 81.898438 26.339844 76.378906 C 26.660156 65.304688 30.535156 54.628906 37.390625 45.925781 C 44.246094 37.226562 53.722656 30.960938 64.414062 28.0625 C 68.683594 26.894531 73.09375 26.300781 77.523438 26.285156 C 82.058594 26.269531 86.589844 26.199219 91.121094 26.304688 C 101.96875 26.558594 111.820312 29.863281 120.535156 36.34375 C 130.957031 44.085938 137.585938 54.363281 140.378906 67.050781 C 141.054688 70.097656 141.292969 73.234375 141.75 76.484375 C 139.492188 76.773438 137.535156 77.15625 135.554688 77.25 Z M 135.554688 77.253906 "/>
</g>
</svg>
