<?xml version="1.0" encoding="UTF-8"?>
<svg xmlns="http://www.w3.org/2000/svg" xmlns:xlink="http://www.w3.org/1999/xlink" width="168pt" height="168pt" viewBox="0 0 168 168" version="1.1">
<g id="surface106">
<path style=" stroke:none;fill-rule:evenodd;fill:rgb(0%,74.117647%,80.392157%);fill-opacity:1;" d="M 168 84 C 168 130.390625 130.390625 168 84 168 C 37.609375 168 0 130.390625 0 84 C 0 37.609375 37.609375 0 84 0 C 130.390625 0 168 37.609375 168 84 "/>
<path style=" stroke:none;fill-rule:nonzero;fill:rgb(100%,100%,100%);fill-opacity:1;" d="M 114.625 51.15625 C 107.210938 44.859375 97.792969 41.421875 88.070312 41.460938 C 66.046875 41.460938 47.90625 58.875 46.394531 81.136719 L 42.078125 81.136719 C 43.589844 56.230469 63.671875 37.050781 88.066406 37.050781 C 98.867188 37.050781 109.222656 41.019531 117.644531 48.074219 Z M 113.113281 65.703125 L 113.109375 65.703125 C 107.359375 57.574219 98.027344 52.726562 88.070312 52.699219 C 71.011719 52.699219 57.195312 66.804688 57.195312 84 C 57.195312 101.410156 71.011719 115.519531 88.066406 115.519531 C 97.96875 115.519531 107.277344 110.691406 113.113281 102.511719 L 116.140625 105.597656 C 109.441406 114.632812 99.078125 119.929688 88.070312 119.929688 C 68.636719 119.929688 52.875 103.832031 52.875 84 C 52.875 64.386719 68.636719 48.289062 88.070312 48.289062 C 99.171875 48.335938 109.59375 53.65625 116.140625 62.621094 Z M 118.078125 54.460938 L 121.105469 51.375 C 122.183594 52.476562 123.046875 53.578125 123.910156 54.683594 L 120.886719 57.765625 C 120.011719 56.613281 119.074219 55.507812 118.078125 54.457031 Z M 87.855469 131.164062 C 63.457031 131.164062 43.378906 111.992188 41.867188 87.085938 L 46.183594 87.085938 C 47.695312 109.347656 65.835938 126.761719 87.859375 126.761719 C 97.570312 126.761719 106.863281 123.453125 114.414062 117.066406 L 117.4375 120.148438 L 117.433594 120.144531 C 109.199219 127.222656 98.710938 131.132812 87.851562 131.171875 Z M 118.078125 113.753906 C 119.160156 112.652344 120.019531 111.550781 120.886719 110.445312 L 123.910156 113.527344 C 123.042969 114.628906 122.183594 115.730469 121.105469 116.835938 Z M 35.820312 84 C 35.820312 113.316406 59.351562 137.339844 88.066406 137.339844 C 103.613281 137.339844 118.289062 130.507812 128.230469 117.945312 L 131.25 121.027344 C 120.457031 134.257812 104.910156 141.75 88.070312 141.75 C 56.761719 141.75 31.5 115.734375 31.5 84 C 31.5 52.039062 56.976562 26.25 88.070312 26.25 C 104.683594 26.25 120.460938 33.742188 131.25 46.972656 L 128.226562 50.058594 C 118.292969 37.714844 103.613281 30.660156 88.0625 30.660156 C 59.34375 30.660156 35.820312 54.683594 35.820312 84 Z M 35.820312 84 "/>
</g>
</svg>
