<?xml version="1.0" encoding="UTF-8"?>
<svg xmlns="http://www.w3.org/2000/svg" xmlns:xlink="http://www.w3.org/1999/xlink" width="168pt" height="168pt" viewBox="0 0 168 168" version="1.1">
<g id="surface501">
<path style=" stroke:none;fill-rule:nonzero;fill:rgb(25.098039%,39.215686%,62.352941%);fill-opacity:1;" d="M 168 84 C 168 130.390625 130.390625 168 84 168 C 37.609375 168 0 130.390625 0 84 C 0 37.609375 37.609375 0 84 0 C 130.390625 0 168 37.609375 168 84 "/>
<path style=" stroke:none;fill-rule:evenodd;fill:rgb(100%,100%,100%);fill-opacity:1;" d="M 68.234375 38.0625 C 77.425781 38.0625 100.15625 42.445312 121.730469 58.042969 C 143.308594 73.640625 133.617188 95.566406 128.792969 99.84375 C 123.964844 104.121094 86.226562 109.773438 83.875 113.675781 C 81.523438 117.578125 78.78125 132.558594 67.023438 132.558594 C 55.261719 132.558594 49.792969 120.640625 47.019531 113.726562 C 44.238281 106.8125 40.6875 95.097656 40.6875 78.675781 C 40.6875 62.257812 47.773438 38.0625 68.234375 38.0625 Z M 60.914062 81.527344 L 60.199219 81.554688 C 53.097656 82.085938 49.75 92.5 50.503906 103.851562 C 51.253906 115.203125 59.8125 124.871094 64.972656 124.871094 C 70.132812 124.871094 77.78125 118.015625 76.261719 103.1875 C 74.734375 88.355469 67.304688 81.015625 60.203125 81.550781 Z M 100.058594 63.074219 C 90.109375 59.203125 75.414062 55.6875 80.054688 65.855469 C 81.621094 69.273438 82.878906 75.214844 83.839844 83.679688 C 102.339844 82.316406 113.449219 80.109375 117.152344 77.066406 C 122.703125 72.507812 110 66.949219 100.058594 63.074219 Z M 100.058594 63.074219 "/>
</g>
</svg>
