<?xml version="1.0" encoding="UTF-8"?>
<svg xmlns="http://www.w3.org/2000/svg" xmlns:xlink="http://www.w3.org/1999/xlink" width="168pt" height="168pt" viewBox="0 0 168 168" version="1.1">
<g id="surface861">
<path style=" stroke:none;fill-rule:evenodd;fill:rgb(5.882353%,8.235294%,16.078431%);fill-opacity:1;" d="M 168 84 C 168 130.390625 130.390625 168 84 168 C 37.609375 168 0 130.390625 0 84 C 0 37.609375 37.609375 0 84 0 C 130.390625 0 168 37.609375 168 84 "/>
<path style=" stroke:none;fill-rule:evenodd;fill:rgb(100%,100%,100%);fill-opacity:1;" d="M 130.375 80.566406 C 129.320312 80.800781 128.59375 80.9375 127.886719 81.128906 C 123.449219 82.289062 118.984375 83.207031 114.363281 83.035156 C 108.1875 82.800781 102.886719 80.316406 98.210938 76.316406 C 96.320312 74.695312 94.566406 72.902344 92.761719 71.183594 C 91.886719 70.355469 91.675781 69.410156 92.339844 68.328125 L 94.046875 65.5625 L 96.351562 68.09375 C 99.675781 71.777344 103.230469 75.132812 107.917969 76.925781 C 112.523438 78.679688 117.210938 78.421875 121.917969 77.628906 C 128.574219 76.515625 134.722656 73.855469 140.75 70.867188 C 140.949219 70.765625 141.171875 70.703125 141.753906 70.472656 C 141.355469 71.222656 141.132812 71.667969 140.882812 72.089844 C 132.082031 86.882812 123.285156 101.679688 114.476562 116.46875 C 113.394531 118.285156 112.992188 118.421875 111.109375 117.503906 C 98.6875 111.402344 85.679688 110.242188 72.25 112.554688 C 70.148438 112.917969 69.777344 112.738281 68.773438 110.585938 C 67.675781 108.234375 67.6875 108.296875 70.171875 107.820312 L 70.167969 107.808594 C 77.085938 106.457031 84.171875 106.167969 91.175781 106.953125 C 97.734375 107.6875 104.269531 108.652344 110.285156 111.742188 C 111.144531 112.1875 111.601562 111.816406 112.035156 111.101562 C 115.851562 104.726562 119.667969 98.355469 123.507812 91.992188 C 125.5625 88.585938 127.65625 85.203125 129.71875 81.808594 C 129.898438 81.515625 130.039062 81.203125 130.375 80.570312 Z M 37.691406 81.203125 C 38.574219 82.6875 39.457031 84.175781 40.347656 85.65625 L 58.007812 114.953125 C 58.847656 116.351562 58.847656 116.390625 57.394531 117.058594 C 54.261719 118.503906 54.648438 118.875 52.734375 115.667969 C 45.960938 104.300781 39.199219 92.925781 32.4375 81.554688 L 26.957031 72.339844 C 26.695312 71.902344 26.484375 71.429688 26.253906 70.976562 L 26.457031 70.703125 C 27.230469 71.042969 28.003906 71.363281 28.765625 71.722656 C 33.402344 73.890625 38.089844 75.90625 43.054688 77.136719 C 49.429688 78.722656 55.722656 78.90625 61.796875 75.875 C 65.578125 73.992188 68.691406 71.214844 71.492188 68.046875 C 75.980469 62.964844 79.625 57.261719 82.925781 51.320312 L 83.730469 49.882812 C 84.167969 50.535156 84.445312 51.027344 84.796875 51.457031 C 86.734375 53.828125 86.277344 55.941406 84.644531 58.398438 C 81 63.878906 77.332031 69.308594 72.480469 73.761719 C 68.144531 77.742188 63.28125 80.746094 57.570312 82.113281 C 53.085938 83.191406 48.582031 82.972656 44.082031 82.140625 C 42.023438 81.757812 39.976562 81.328125 37.921875 80.917969 L 37.6875 81.210938 Z M 37.691406 81.203125 "/>
</g>
</svg>
