<?xml version="1.0" encoding="UTF-8"?>
<svg xmlns="http://www.w3.org/2000/svg" xmlns:xlink="http://www.w3.org/1999/xlink" width="168pt" height="168pt" viewBox="0 0 168 168" version="1.1">
<g id="surface2134">
<path style=" stroke:none;fill-rule:evenodd;fill:rgb(14.901961%,14.901961%,14.901961%);fill-opacity:1;" d="M 168 84 C 168 130.390625 130.390625 168 84 168 C 37.609375 168 0 130.390625 0 84 C 0 37.609375 37.609375 0 84 0 C 130.390625 0 168 37.609375 168 84 "/>
<path style=" stroke:none;fill-rule:evenodd;fill:rgb(100%,100%,100%);fill-opacity:1;" d="M 88.886719 50.53125 C 101.765625 51.480469 108.011719 59.167969 108.011719 60.558594 C 108.011719 61.539062 107.777344 63.683594 107.777344 64.996094 C 107.777344 65.871094 108.09375 67.273438 108.722656 69.195312 C 108.566406 70.507812 107.699219 71.167969 106.117188 71.167969 C 103.753906 71.167969 104.417969 68.515625 100.910156 63.265625 C 97.128906 57.613281 93.308594 56.425781 88.867188 56.179688 C 88.957031 68.234375 89.289062 101.414062 89.3125 112.828125 C 101.152344 111.105469 107.722656 102.265625 109.429688 102.265625 C 110.375 102.265625 111.5625 103 111.5625 104.734375 C 111.5625 108.382812 102.207031 116.636719 89.132812 118.269531 C 88.15625 128.917969 83.117188 141.75 70.613281 141.75 C 64.695312 141.75 59.726562 137.183594 59.726562 131.878906 C 59.726562 128.425781 62.332031 126.945312 64.699219 126.945312 C 67.0625 126.945312 69.429688 128.671875 69.429688 131.878906 C 69.429688 134.015625 68.722656 135.5 67.304688 136.320312 C 68.722656 137.308594 70.140625 137.800781 71.5625 137.800781 C 76.296875 137.800781 79.859375 129.234375 80.464844 118.21875 C 66.667969 116.003906 53.8125 102.855469 53.8125 83.753906 C 53.8125 62.265625 67.199219 52.972656 80.332031 50.898438 C 80.59375 41.238281 85.640625 26.484375 98.550781 26.25 C 106.359375 26.25 109.671875 32.664062 109.671875 36.121094 C 109.671875 39.574219 107.1875 41.054688 104.707031 41.054688 C 102.21875 41.054688 99.734375 39.082031 99.734375 36.121094 C 99.734375 34.148438 100.523438 32.75 102.097656 31.925781 C 100.996094 30.9375 99.578125 30.445312 97.84375 30.445312 C 91.277344 30.445312 89.210938 44.292969 88.890625 50.53125 Z M 80.554688 112.417969 C 80.535156 99.640625 80.371094 70.191406 80.328125 56.664062 C 68.210938 59.640625 64.226562 74.058594 64.226562 83.753906 C 64.226562 99.125 71.492188 109.683594 80.554688 112.417969 Z M 80.554688 112.417969 "/>
</g>
</svg>
