<?xml version="1.0" encoding="UTF-8"?>
<svg xmlns="http://www.w3.org/2000/svg" xmlns:xlink="http://www.w3.org/1999/xlink" width="168pt" height="168pt" viewBox="0 0 168 168" version="1.1">
<g id="surface226">
<path style=" stroke:none;fill-rule:nonzero;fill:rgb(99.215686%,87.058824%,42.352941%);fill-opacity:1;" d="M 168 84 C 168 130.390625 130.390625 168 84 168 C 37.609375 168 0 130.390625 0 84 C 0 37.609375 37.609375 0 84 0 C 130.390625 0 168 37.609375 168 84 "/>
<path style=" stroke:none;fill-rule:evenodd;fill:rgb(100%,100%,100%);fill-opacity:1;" d="M 84 141.75 C 52.105469 141.75 26.25 115.894531 26.25 84 C 26.25 52.105469 52.105469 26.25 84 26.25 C 115.894531 26.25 141.75 52.105469 141.75 84 C 141.75 115.894531 115.894531 141.75 84 141.75 Z M 84 133.632812 C 101.730469 133.632812 118.117188 124.171875 126.984375 108.816406 C 135.851562 93.460938 135.851562 74.539062 126.984375 59.183594 C 118.117188 43.828125 101.730469 34.367188 84 34.367188 C 66.269531 34.367188 49.882812 43.828125 41.015625 59.183594 C 32.148438 74.539062 32.148438 93.460938 41.015625 108.816406 C 49.882812 124.171875 66.269531 133.632812 84 133.632812 Z M 84.378906 118.339844 C 65.496094 118.339844 50.285156 103.902344 50.285156 84.1875 L 50.285156 84 C 50.285156 64.753906 65.117188 49.664062 85.132812 49.664062 C 98.636719 49.664062 107.324219 55.324219 113.183594 63.433594 L 99.390625 74.089844 C 95.609375 69.375 91.269531 66.355469 84.941406 66.355469 C 75.6875 66.355469 69.171875 74.183594 69.171875 83.804688 L 69.175781 84 C 69.175781 93.90625 75.691406 101.640625 84.945312 101.640625 C 91.839844 101.640625 95.902344 98.4375 99.867188 93.625 L 113.660156 103.4375 C 107.421875 112.019531 99.019531 118.34375 84.382812 118.34375 Z M 84.378906 118.339844 "/>
</g>
</svg>
