<?xml version="1.0" encoding="UTF-8"?>
<svg xmlns="http://www.w3.org/2000/svg" xmlns:xlink="http://www.w3.org/1999/xlink" width="168pt" height="168pt" viewBox="0 0 168 168" version="1.1">
<g id="surface2174">
<path style=" stroke:none;fill-rule:nonzero;fill:rgb(0%,0%,0%);fill-opacity:1;" d="M 168 84 C 168 130.390625 130.390625 168 84 168 C 37.609375 168 0 130.390625 0 84 C 0 37.609375 37.609375 0 84 0 C 130.390625 0 168 37.609375 168 84 "/>
<path style=" stroke:none;fill-rule:nonzero;fill:rgb(100%,100%,100%);fill-opacity:1;" d="M 83.460938 23.089844 C 82.695312 21.355469 85.464844 20.128906 86.234375 21.777344 C 104.253906 52.816406 122.269531 83.867188 140.289062 114.953125 C 139.328125 114.953125 138.40625 114.636719 137.480469 114.492188 L 89.390625 104.90625 C 87.816406 104.828125 87.46875 102.28125 89.007812 101.902344 L 107.875 96.703125 L 107.871094 96.703125 C 108.328125 96.589844 108.707031 96.277344 108.910156 95.851562 C 109.109375 95.429688 109.109375 94.9375 108.910156 94.511719 L 83.460938 23.046875 Z M 83.460938 23.089844 "/>
<path style=" stroke:none;fill-rule:nonzero;fill:rgb(100%,100%,100%);fill-opacity:1;" d="M 80.691406 23.246094 C 80.863281 23.5 81.015625 23.769531 81.148438 24.054688 C 86.851562 40.226562 92.699219 56.394531 98.359375 72.566406 C 98.863281 73.910156 96.972656 75.027344 96.050781 74.027344 C 91.199219 68.945312 86.578125 63.710938 81.808594 58.628906 C 81.035156 57.9375 79.917969 58.398438 79.417969 59.128906 L 29.832031 117.378906 C 29.253906 117.992188 28.753906 118.917969 27.789062 119.03125 C 27.097656 119.03125 26.632812 118.492188 26.25 117.953125 L 26.25 117.0625 C 44.421875 85.804688 62.570312 54.535156 80.691406 23.246094 Z M 80.691406 23.246094 "/>
<path style=" stroke:none;fill-rule:nonzero;fill:rgb(100%,100%,100%);fill-opacity:1;" d="M 65.519531 78.722656 C 66.445312 78.453125 67.671875 79.105469 67.367188 80.222656 C 65.441406 86.921875 63.402344 93.582031 61.398438 100.242188 C 61.09375 101.09375 61.859375 101.859375 62.667969 101.902344 C 88.617188 107.101562 114.570312 112.488281 140.515625 117.683594 C 141.019531 117.761719 141.367188 118.144531 141.75 118.457031 L 141.75 119.535156 L 141.015625 120.308594 L 30.871094 120.304688 C 42.421875 106.445312 53.933594 92.507812 65.519531 78.726562 Z M 65.519531 78.722656 "/>
</g>
</svg>
