<?xml version="1.0" encoding="UTF-8"?>
<svg xmlns="http://www.w3.org/2000/svg" xmlns:xlink="http://www.w3.org/1999/xlink" width="168pt" height="168pt" viewBox="0 0 168 168" version="1.1">
<g id="surface1171">
<path style=" stroke:none;fill-rule:nonzero;fill:rgb(22.745098%,69.019608%,24.313725%);fill-opacity:1;" d="M 168 84 C 168 130.390625 130.390625 168 84 168 C 37.609375 168 0 130.390625 0 84 C 0 37.609375 37.609375 0 84 0 C 130.390625 0 168 37.609375 168 84 "/>
<path style=" stroke:none;fill-rule:nonzero;fill:rgb(100%,100%,100%);fill-opacity:1;" d="M 90.09375 88.089844 C 94.355469 86.050781 97.066406 81.75 97.078125 77.027344 C 97.078125 70.234375 91.503906 64.726562 84.636719 64.726562 C 77.757812 64.726562 72.179688 70.234375 72.179688 77.027344 L 72.175781 77.027344 C 72.1875 81.75 74.90625 86.050781 79.171875 88.085938 L 79.171875 103.28125 L 90.097656 103.28125 L 90.097656 88.09375 M 84.636719 123.378906 C 62.660156 123.378906 44.789062 105.71875 44.789062 84.003906 C 44.789062 62.289062 62.660156 44.628906 84.636719 44.628906 C 102.566406 44.628906 117.765625 56.390625 122.75 72.515625 L 136.484375 72.515625 C 131.183594 49.046875 109.980469 31.5 84.628906 31.5 C 55.289062 31.5 31.5 55.003906 31.5 84 C 31.5 112.996094 55.289062 136.5 84.628906 136.5 C 109.980469 136.5 131.179688 118.953125 136.484375 95.488281 L 122.746094 95.488281 C 117.757812 111.617188 102.558594 123.375 84.632812 123.375 "/>
</g>
</svg>
