<?xml version="1.0" encoding="UTF-8"?>
<svg xmlns="http://www.w3.org/2000/svg" xmlns:xlink="http://www.w3.org/1999/xlink" width="168pt" height="168pt" viewBox="0 0 168 168" version="1.1">
<g id="surface1026">
<path style=" stroke:none;fill-rule:nonzero;fill:rgb(95.686275%,71.764706%,19.215686%);fill-opacity:1;" d="M 168 84 C 168 130.390625 130.390625 168 84 168 C 37.609375 168 0 130.390625 0 84 C 0 37.609375 37.609375 0 84 0 C 130.390625 0 168 37.609375 168 84 "/>
<path style=" stroke:none;fill-rule:evenodd;fill:rgb(100%,100%,100%);fill-opacity:1;" d="M 48.703125 42 L 83.101562 42 C 104.023438 42 119.882812 53.109375 125.785156 69.269531 L 136.5 69.269531 L 136.5 79.039062 L 128.042969 79.039062 C 128.207031 80.582031 128.289062 82.15625 128.289062 83.753906 L 128.289062 83.996094 C 128.289062 85.792969 128.183594 87.566406 127.972656 89.296875 L 136.5 89.296875 L 136.5 99.0625 L 125.578125 99.0625 C 119.527344 115 103.792969 126 83.109375 126 L 48.703125 126 L 48.703125 99.0625 L 36.75 99.0625 L 36.75 89.296875 L 48.703125 89.296875 L 48.703125 79.039062 L 36.75 79.039062 L 36.75 69.273438 L 48.703125 69.273438 Z M 58.316406 99.0625 L 58.316406 117.238281 L 83.097656 117.238281 C 98.394531 117.238281 109.757812 109.957031 115.042969 99.0625 Z M 117.988281 89.296875 L 58.316406 89.296875 L 58.316406 79.039062 L 118.007812 79.039062 C 118.222656 80.652344 118.339844 82.304688 118.339844 83.996094 L 118.339844 84.230469 C 118.339844 85.957031 118.21875 87.644531 117.988281 89.292969 Z M 83.109375 50.742188 C 98.472656 50.742188 109.867188 58.21875 115.125 69.265625 L 58.320312 69.265625 L 58.316406 50.746094 L 83.097656 50.746094 Z M 83.109375 50.742188 "/>
</g>
</svg>
