<?xml version="1.0" encoding="UTF-8"?>
<svg xmlns="http://www.w3.org/2000/svg" xmlns:xlink="http://www.w3.org/1999/xlink" width="168pt" height="168pt" viewBox="0 0 168 168" version="1.1">
<g id="surface801">
<path style=" stroke:none;fill-rule:nonzero;fill:rgb(0%,54.901961%,90.588235%);fill-opacity:1;" d="M 168 84 C 168 130.390625 130.390625 168 84 168 C 37.609375 168 0 130.390625 0 84 C 0 37.609375 37.609375 0 84 0 C 130.390625 0 168 37.609375 168 84 "/>
<path style=" stroke:none;fill-rule:nonzero;fill:rgb(100%,100%,100%);fill-opacity:1;" d="M 100.203125 42.019531 L 62.003906 42.019531 L 58.84375 59.695312 L 93.292969 59.746094 C 110.253906 59.746094 115.289062 65.90625 115.128906 76.125 C 115.054688 81.363281 112.773438 90.226562 111.804688 93.082031 C 109.195312 100.746094 103.820312 109.472656 83.671875 109.445312 L 50.1875 109.425781 L 47.027344 127.125 L 85.125 127.125 C 98.558594 127.125 104.28125 125.554688 110.324219 122.765625 C 123.734375 116.582031 131.71875 103.335938 134.925781 86.046875 C 139.683594 60.320312 133.75 42.015625 100.195312 42.015625 Z M 100.203125 42.019531 "/>
<path style=" stroke:none;fill-rule:nonzero;fill:rgb(100%,100%,100%);fill-opacity:1;" d="M 82.988281 82.941406 C 84.234375 77.769531 84.625 75.695312 84.625 75.695312 L 45.535156 75.695312 C 35.539062 75.695312 34.109375 82.207031 33.160156 86.144531 C 31.914062 91.292969 31.523438 93.394531 31.523438 93.394531 L 70.621094 93.394531 C 80.613281 93.394531 82.039062 86.882812 82.988281 82.941406 Z M 82.988281 82.941406 "/>
</g>
</svg>
