<?xml version="1.0" encoding="UTF-8"?>
<svg xmlns="http://www.w3.org/2000/svg" xmlns:xlink="http://www.w3.org/1999/xlink" width="168pt" height="168pt" viewBox="0 0 168 168" version="1.1">
<g id="surface1831">
<path style=" stroke:none;fill-rule:evenodd;fill:rgb(17.647059%,61.176471%,85.882353%);fill-opacity:1;" d="M 168 84 C 168 130.390625 130.390625 168 84 168 C 37.609375 168 0 130.390625 0 84 C 0 37.609375 37.609375 0 84 0 C 130.390625 0 168 37.609375 168 84 "/>
<path style=" stroke:none;fill-rule:nonzero;fill:rgb(100%,100%,100%);fill-opacity:1;" d="M 105.285156 29.429688 C 107.34375 29.429688 109.003906 30.058594 110.257812 31.3125 C 111.511719 32.566406 112.136719 34.222656 112.136719 36.285156 L 112.136719 97.574219 C 112.136719 104.558594 110.484375 110.925781 107.164062 116.65625 L 107.164062 116.660156 C 104 122.242188 99.410156 126.878906 93.859375 130.101562 C 88.304688 133.324219 82.078125 134.9375 75.175781 134.9375 C 68.277344 134.9375 61.960938 133.324219 56.222656 130.101562 C 50.671875 126.878906 46.082031 122.242188 42.917969 116.660156 C 39.695312 110.925781 38.082031 104.5625 38.082031 97.578125 C 38.082031 90.589844 39.558594 84.269531 42.519531 78.625 C 45.566406 72.890625 49.6875 68.410156 54.882812 65.183594 C 60.167969 61.960938 66.039062 60.34375 72.484375 60.34375 L 72.488281 60.34375 C 82.542969 60.269531 92.085938 64.769531 98.425781 72.574219 L 98.425781 36.289062 C 98.425781 34.226562 99.054688 32.570312 100.308594 31.316406 L 100.3125 31.316406 C 101.65625 30.058594 103.441406 29.378906 105.285156 29.429688 Z M 75.175781 122.835938 C 79.660156 122.835938 83.691406 121.765625 87.273438 119.613281 L 87.269531 119.617188 C 90.914062 117.410156 93.890625 114.25 95.875 110.480469 C 97.933594 106.621094 98.96875 102.320312 98.96875 97.574219 C 98.96875 92.828125 97.933594 88.566406 95.871094 84.804688 L 95.871094 84.808594 C 93.910156 81.054688 90.925781 77.933594 87.269531 75.800781 C 83.6875 73.5625 79.65625 72.441406 75.171875 72.441406 C 70.695312 72.441406 66.613281 73.566406 62.9375 75.800781 L 62.941406 75.800781 C 59.324219 77.984375 56.359375 81.09375 54.34375 84.808594 C 52.285156 88.566406 51.257812 92.824219 51.257812 97.578125 C 51.257812 102.328125 52.285156 106.625 54.34375 110.476562 C 56.378906 114.210938 59.34375 117.355469 62.949219 119.617188 C 66.625 121.769531 70.699219 122.839844 75.183594 122.839844 Z M 75.175781 122.835938 "/>
</g>
</svg>
