<?xml version="1.0" encoding="UTF-8"?>
<svg xmlns="http://www.w3.org/2000/svg" xmlns:xlink="http://www.w3.org/1999/xlink" width="168pt" height="168pt" viewBox="0 0 168 168" version="1.1">
<g id="surface321">
<path style=" stroke:none;fill-rule:nonzero;fill:rgb(91.372549%,34.117647%,5.882353%);fill-opacity:1;" d="M 168 84 C 168 130.390625 130.390625 168 84 168 C 37.609375 168 0 130.390625 0 84 C 0 37.609375 37.609375 0 84 0 C 130.390625 0 168 37.609375 168 84 "/>
<path style=" stroke:none;fill-rule:nonzero;fill:rgb(100%,100%,100%);fill-opacity:1;" d="M 126.734375 52.046875 L 135.171875 43.679688 C 137.167969 41.707031 136.753906 38.09375 134.257812 35.621094 C 131.765625 33.144531 128.117188 32.738281 126.125 34.71875 L 110.289062 50.417969 L 109.75 50.957031 L 95.953125 64.632812 C 91.367188 61.324219 85.757812 59.75 80.121094 60.179688 C 74.484375 60.613281 69.179688 63.027344 65.152344 66.996094 C 61.15625 70.953125 58.71875 76.214844 58.28125 81.820312 C 57.84375 87.429688 59.4375 93.003906 62.769531 97.535156 L 52.238281 107.984375 L 52.238281 107.980469 C 49.503906 104.339844 47.398438 100.273438 45.996094 95.945312 C 42.460938 85.246094 43.414062 73.527344 49.144531 63.867188 C 58.085938 48.800781 74.082031 42.246094 89.242188 44.167969 L 89.246094 44.167969 C 90.789062 44.382812 92.351562 43.949219 93.5625 42.96875 C 94.773438 41.988281 95.523438 40.546875 95.628906 38.992188 C 95.835938 35.324219 93.117188 32.144531 89.464844 31.777344 C 74.234375 30.21875 58.488281 35.191406 46.859375 46.71875 C 27.59375 65.816406 26.464844 96.117188 43.394531 116.742188 L 33.734375 126.324219 C 31.828125 128.214844 32.300781 131.757812 34.800781 134.230469 C 37.292969 136.703125 40.863281 137.179688 42.769531 135.289062 L 53.167969 124.976562 L 53.171875 124.976562 L 60.691406 117.523438 L 60.707031 117.503906 L 72.898438 105.417969 L 72.902344 105.421875 C 77.234375 107.1875 81.992188 107.640625 86.585938 106.730469 C 91.175781 105.820312 95.398438 103.582031 98.730469 100.296875 C 102.039062 97.023438 104.296875 92.839844 105.21875 88.277344 C 106.140625 83.714844 105.683594 78.980469 103.902344 74.679688 L 117.730469 60.972656 C 127.867188 76.238281 125.859375 97.375 111.902344 111.203125 L 111.902344 111.207031 C 103.414062 119.664062 91.675781 124.027344 79.722656 123.171875 C 76.957031 123.011719 74.5625 125.074219 74.3125 127.832031 L 74.164062 129.511719 L 74.167969 129.511719 C 74.035156 130.996094 74.515625 132.472656 75.496094 133.59375 C 76.480469 134.714844 77.878906 135.382812 79.371094 135.445312 C 94.683594 136.265625 109.628906 130.550781 120.488281 119.714844 C 139.371094 100.988281 141.554688 72.144531 126.734375 52.042969 M 89.980469 91.605469 C 85.523438 95.996094 78.371094 95.996094 73.914062 91.605469 C 71.789062 89.503906 70.597656 86.636719 70.597656 83.644531 C 70.597656 80.65625 71.789062 77.789062 73.914062 75.683594 C 78.367188 71.292969 85.527344 71.292969 89.980469 75.683594 C 92.105469 77.789062 93.296875 80.65625 93.296875 83.644531 C 93.296875 86.636719 92.105469 89.503906 89.980469 91.605469 "/>
</g>
</svg>
