<?xml version="1.0" encoding="UTF-8"?>
<svg xmlns="http://www.w3.org/2000/svg" xmlns:xlink="http://www.w3.org/1999/xlink" width="168pt" height="168pt" viewBox="0 0 168 168" version="1.1">
<g id="surface2375">
<path style=" stroke:none;fill-rule:evenodd;fill:rgb(35.686275%,75.686275%,83.137255%);fill-opacity:1;" d="M 168 84 C 168 130.390625 130.390625 168 84 168 C 37.609375 168 0 130.390625 0 84 C 0 37.609375 37.609375 0 84 0 C 130.390625 0 168 37.609375 168 84 "/>
<path style=" stroke:none;fill-rule:evenodd;fill:rgb(100%,100%,100%);fill-opacity:1;" d="M 72.371094 88.871094 L 63.707031 97.921875 C 62.148438 99.550781 60.621094 101.191406 59.054688 102.808594 C 58.792969 103.082031 58.417969 103.246094 58.097656 103.460938 C 57.414062 103.351562 56.890625 102.925781 56.800781 102.304688 L 56.804688 102.308594 C 56.660156 101.363281 56.53125 100.417969 56.417969 99.472656 C 56.261719 98.222656 55.878906 97.875 54.613281 97.71875 C 52.003906 97.402344 49.398438 97.0625 46.789062 96.722656 L 40.835938 95.949219 C 39.648438 95.792969 39.21875 94.941406 39.839844 93.929688 C 41.269531 91.628906 42.707031 89.339844 44.140625 87.050781 L 52.90625 73.042969 C 53.253906 72.476562 53.640625 72.085938 54.386719 72.109375 C 54.859375 72.121094 55.351562 72.003906 55.820312 71.882812 C 56.375 71.746094 56.8125 71.914062 57.199219 72.28125 C 57.886719 72.925781 58.585938 73.566406 59.269531 74.21875 L 67.1875 81.730469 C 68.894531 83.347656 70.617188 84.953125 72.320312 86.570312 C 73.203125 87.398438 73.203125 88 72.371094 88.871094 Z M 130.59375 101.046875 C 131.085938 101.457031 131.621094 101.84375 131.726562 102.542969 C 131.859375 103.433594 131.5 104.082031 130.746094 104.570312 C 126.285156 107.457031 121.820312 110.359375 117.359375 113.253906 L 108.734375 118.84375 C 108.460938 119.015625 108.199219 119.207031 107.957031 119.417969 C 107.515625 119.777344 107.273438 120.328125 107.300781 120.898438 C 107.34375 121.976562 107.40625 123.050781 107.421875 124.121094 C 107.4375 125.355469 106.53125 126.125 105.289062 125.984375 C 104.84375 125.925781 104.4375 125.695312 104.160156 125.339844 C 103.121094 124.140625 102.085938 122.941406 101.050781 121.742188 C 99.753906 120.242188 98.460938 118.730469 97.160156 117.234375 C 96.617188 116.691406 96.355469 115.925781 96.453125 115.164062 L 96.632812 108.890625 C 96.652344 108.15625 97.089844 107.683594 97.675781 107.304688 L 104.804688 102.746094 C 108.792969 100.199219 112.796875 97.664062 116.773438 95.089844 C 117.613281 94.550781 118.394531 94.386719 119.320312 94.859375 C 120.003906 95.207031 120.773438 95.269531 121.515625 95.039062 C 122.625 94.6875 123.472656 94.996094 124.328125 95.753906 C 126.375 97.558594 128.5 99.28125 130.597656 101.046875 Z M 92.277344 106.253906 C 92.601562 106.570312 92.832031 106.972656 92.945312 107.410156 C 93.140625 108.390625 92.75 109.058594 91.828125 109.503906 C 88.757812 110.984375 85.691406 112.480469 82.59375 113.914062 C 82.039062 114.167969 81.339844 114.199219 80.703125 114.230469 C 78.136719 114.347656 75.570312 114.414062 73 114.519531 C 71.484375 114.578125 69.972656 114.671875 68.574219 114.746094 L 67.546875 114.746094 L 67.546875 114.742188 C 67.078125 114.753906 66.621094 114.574219 66.285156 114.246094 C 65.960938 113.945312 65.625 113.65625 65.304688 113.355469 C 63.5 111.640625 61.722656 109.890625 59.882812 108.210938 C 58.855469 107.277344 58.839844 106.023438 59.820312 105.019531 C 62.03125 102.742188 64.214844 100.441406 66.410156 98.140625 C 68.777344 95.664062 71.144531 93.175781 73.507812 90.6875 L 73.503906 90.683594 C 73.867188 90.257812 74.390625 90 74.949219 89.972656 C 75.507812 89.945312 76.054688 90.148438 76.457031 90.535156 L 85.90625 99.925781 C 88.027344 102.035156 90.167969 104.125 92.28125 106.253906 Z M 105.285156 63.996094 C 104.273438 62.429688 105.417969 60.269531 107.101562 59.992188 C 111.605469 59.242188 116.09375 58.378906 120.59375 57.597656 C 121.585938 57.425781 122.375 57.882812 122.917969 58.699219 C 123.863281 60.117188 124.792969 61.539062 125.726562 62.960938 C 127.699219 65.953125 129.679688 68.945312 131.632812 71.949219 C 131.894531 72.351562 132.027344 72.839844 132.222656 73.289062 L 132.105469 73.339844 L 132.109375 73.34375 C 132.078125 74.109375 131.792969 74.84375 131.300781 75.433594 C 128.550781 79.128906 125.765625 82.808594 123.023438 86.511719 L 123.023438 86.507812 C 122.496094 87.175781 121.675781 87.539062 120.828125 87.484375 C 119.980469 87.425781 119.21875 86.953125 118.785156 86.222656 C 114.769531 79.554688 110.710938 72.910156 106.667969 66.257812 C 106.210938 65.5 105.765625 64.734375 105.289062 64 Z M 97.382812 82.539062 L 96.59375 89.546875 C 96.375 91.488281 96.136719 93.421875 95.917969 95.363281 L 95.140625 102.1875 C 95.089844 102.664062 95.082031 103.152344 94.984375 103.617188 C 94.933594 103.84375 94.765625 104.132812 94.574219 104.207031 C 94.386719 104.28125 94.050781 104.175781 93.882812 104.035156 C 93.136719 103.390625 92.429688 102.707031 91.714844 102.03125 C 89.140625 99.59375 86.585938 97.152344 84.011719 94.726562 C 81.773438 92.609375 79.535156 90.511719 77.285156 88.410156 C 76.539062 87.71875 76.535156 87.496094 77.253906 86.746094 L 87.535156 75.984375 L 94.554688 68.613281 L 98 64.992188 C 98.101562 64.886719 98.183594 64.746094 98.304688 64.703125 C 98.550781 64.613281 98.855469 64.492188 99.070312 64.5625 C 99.25 64.625 99.332031 64.945312 99.386719 65.035156 L 98.863281 69.65625 L 98.1875 75.59375 L 97.390625 82.542969 Z M 117.363281 87.894531 C 117.699219 88.433594 117.75 88.949219 117.382812 89.511719 L 117.390625 89.511719 C 116.988281 90.144531 116.820312 90.890625 116.90625 91.632812 C 116.96875 92.292969 116.695312 92.699219 116.132812 93.050781 C 111.738281 95.839844 107.367188 98.648438 102.988281 101.449219 C 101.613281 102.332031 100.238281 103.207031 98.855469 104.078125 C 98.308594 104.425781 97.746094 104.398438 97.449219 103.957031 C 97.28125 103.714844 97.261719 103.378906 97.214844 103.210938 L 97.792969 98.96875 L 99.078125 89.613281 L 100.496094 79.375 L 101.875 69.363281 L 102.398438 65.636719 C 102.410156 65.535156 102.414062 65.421875 102.464844 65.347656 C 102.601562 65.175781 102.753906 64.917969 102.925781 64.886719 C 103.113281 64.855469 103.410156 65.003906 103.53125 65.164062 C 103.851562 65.59375 104.109375 66.074219 104.390625 66.535156 L 114.65625 83.417969 C 115.558594 84.910156 116.453125 86.40625 117.367188 87.886719 Z M 96.085938 62.148438 C 96.25 62.253906 96.5625 62.363281 96.730469 62.589844 C 96.988281 62.9375 96.761719 63.261719 96.496094 63.539062 L 92.925781 67.292969 L 82.519531 78.179688 C 80.347656 80.464844 78.183594 82.757812 76.007812 85.035156 C 75.21875 85.855469 74.589844 85.855469 73.769531 85.078125 C 71.234375 82.671875 68.699219 80.257812 66.15625 77.859375 C 63.6875 75.527344 61.210938 73.203125 58.734375 70.875 C 58.402344 70.558594 58.140625 70.21875 58.179688 69.734375 C 58.230469 69.078125 58.609375 68.707031 59.359375 68.578125 C 60.730469 68.332031 62.105469 68.089844 63.480469 67.855469 L 76.683594 65.546875 L 92.277344 62.8125 L 96.082031 62.144531 Z M 60.707031 65.464844 C 63.152344 63.789062 65.601562 62.125 68.050781 60.460938 L 91.726562 44.332031 C 92.515625 43.796875 93.011719 43.90625 93.40625 44.757812 C 95.039062 48.253906 96.660156 51.757812 98.289062 55.257812 C 98.5 55.710938 98.699219 56.167969 98.914062 56.621094 C 99.085938 56.988281 98.972656 57.289062 98.75 57.617188 L 98.757812 57.625 C 98.472656 58.03125 98.226562 58.464844 98.035156 58.921875 C 97.863281 59.359375 97.597656 59.59375 97.125 59.679688 C 93.640625 60.300781 90.160156 60.941406 86.675781 61.558594 L 74.316406 63.78125 L 60.824219 66.207031 C 60.636719 66.238281 60.441406 66.207031 60.246094 66.207031 L 60.128906 65.992188 C 60.324219 65.820312 60.496094 65.621094 60.707031 65.472656 Z M 36.085938 73.476562 C 34.542969 73.445312 33.625 71.945312 34.363281 70.5625 C 34.988281 69.398438 35.679688 68.273438 36.351562 67.132812 C 38.285156 63.832031 40.226562 60.539062 42.148438 57.238281 L 42.152344 57.242188 C 42.464844 56.703125 42.917969 56.257812 43.464844 55.953125 C 48.589844 53.007812 53.703125 50.046875 58.828125 47.097656 C 59.152344 46.898438 59.507812 46.757812 59.882812 46.679688 C 60.597656 46.535156 61.328125 46.832031 61.738281 47.433594 C 62.195312 48.019531 62.265625 48.820312 61.917969 49.476562 C 61.144531 51.125 60.34375 52.757812 59.554688 54.394531 C 58.085938 57.398438 56.613281 60.394531 55.160156 63.402344 C 54.882812 64.078125 54.296875 64.578125 53.585938 64.75 C 52.257812 65.066406 51.21875 66.097656 50.898438 67.425781 C 50.738281 68.078125 50.238281 68.597656 49.589844 68.785156 C 45.378906 70.265625 41.175781 71.777344 36.96875 73.273438 C 36.683594 73.378906 36.386719 73.410156 36.09375 73.484375 Z M 57.890625 63.890625 C 57.914062 63.671875 57.972656 63.460938 58.070312 63.261719 L 63.574219 51.203125 C 64.71875 48.695312 65.878906 46.1875 67.007812 43.675781 C 67.269531 43.097656 67.652344 42.808594 68.304688 42.785156 C 70.019531 42.734375 71.738281 42.644531 73.453125 42.574219 L 83.585938 42.191406 C 84.773438 42.140625 85.964844 42.058594 87.15625 42.003906 C 88.007812 41.96875 88.589844 42.480469 88.59375 43.316406 C 88.628906 43.824219 88.304688 44.15625 87.886719 44.445312 L 84.640625 46.65625 L 65.246094 59.847656 L 59.050781 64.070312 L 59.050781 64.066406 C 58.90625 64.175781 58.753906 64.269531 58.589844 64.347656 C 58.222656 64.503906 57.871094 64.285156 57.890625 63.890625 Z M 50.734375 72.554688 C 49.878906 73.933594 49.011719 75.304688 48.152344 76.679688 C 44.933594 81.824219 41.714844 86.976562 38.492188 92.113281 L 38.492188 92.117188 C 38.359375 92.363281 38.183594 92.582031 37.96875 92.761719 C 37.414062 93.160156 36.671875 92.882812 36.410156 92.183594 C 35.988281 91.058594 35.589844 89.925781 35.1875 88.796875 L 31.675781 78.917969 C 31.589844 78.671875 31.535156 78.417969 31.503906 78.296875 C 31.507812 77.628906 31.730469 77.347656 32.355469 77.140625 C 34.222656 76.535156 36.09375 75.945312 37.960938 75.351562 L 48.539062 71.992188 L 49.929688 71.5625 C 50.261719 71.457031 50.589844 71.316406 50.863281 71.683594 C 51.109375 72.015625 50.90625 72.289062 50.738281 72.554688 Z M 135.355469 86.25 L 136.414062 92.320312 C 136.445312 92.515625 136.464844 92.714844 136.5 92.972656 C 136.449219 93.234375 136.390625 93.550781 136.304688 93.855469 L 134.914062 98.875 C 134.515625 100.320312 133.371094 100.660156 132.214844 99.683594 C 129.847656 97.6875 127.46875 95.695312 125.089844 93.710938 C 124.550781 93.257812 124.324219 92.738281 124.449219 92.027344 L 124.453125 92.023438 C 124.605469 91.3125 124.519531 90.570312 124.210938 89.910156 C 123.886719 89.265625 123.992188 88.691406 124.414062 88.125 C 126.355469 85.519531 128.285156 82.90625 130.21875 80.300781 L 131.398438 78.703125 C 131.792969 78.164062 132.3125 77.898438 132.972656 78.046875 C 133.664062 78.203125 134.023438 78.675781 134.136719 79.355469 L 135.34375 86.25 Z M 95.644531 44.542969 L 95.539062 44.324219 C 95.398438 44.007812 95.339844 43.640625 95.660156 43.464844 C 95.941406 43.339844 96.257812 43.320312 96.554688 43.414062 C 97.015625 43.554688 97.429688 43.816406 97.867188 44.035156 L 115.519531 52.851562 L 118.652344 54.425781 C 119.003906 54.597656 119.28125 54.804688 119.207031 55.246094 C 119.132812 55.683594 118.804688 55.777344 118.417969 55.84375 C 114.175781 56.601562 109.9375 57.367188 105.703125 58.128906 L 105.289062 58.214844 C 105.167969 58.136719 104.9375 58.046875 104.789062 57.878906 L 104.789062 57.871094 C 104.027344 56.910156 102.882812 56.328125 101.65625 56.28125 C 101.183594 56.261719 100.941406 55.980469 100.765625 55.589844 C 100.019531 53.972656 99.257812 52.367188 98.507812 50.753906 L 95.648438 44.546875 Z M 95.644531 44.542969 "/>
</g>
</svg>
