<?xml version="1.0" encoding="UTF-8"?>
<svg xmlns="http://www.w3.org/2000/svg" xmlns:xlink="http://www.w3.org/1999/xlink" width="168pt" height="168pt" viewBox="0 0 168 168" version="1.1">
<g id="surface1221">
<path style=" stroke:none;fill-rule:evenodd;fill:rgb(7.45098%,39.215686%,52.156863%);fill-opacity:1;" d="M 168 84 C 168 130.390625 130.390625 168 84 168 C 37.609375 168 0 130.390625 0 84 C 0 37.609375 37.609375 0 84 0 C 130.390625 0 168 37.609375 168 84 "/>
<path style=" stroke:none;fill-rule:evenodd;fill:rgb(100%,100%,100%);fill-opacity:1;" d="M 54.789062 162.78125 C 43.789062 158.695312 33.765625 152.347656 25.367188 144.15625 L 26.140625 142.808594 C 38.675781 123 49.9375 102.5 58.417969 80.597656 C 67.410156 57.367188 74.609375 33.519531 81.464844 9.582031 C 82.078125 7.445312 82.808594 5.34375 83.480469 3.230469 C 84.203125 4.058594 84.46875 4.832031 84.6875 5.613281 C 88.992188 20.976562 93.15625 36.378906 97.625 51.6875 C 105.761719 79.582031 117.207031 106.039062 132.363281 130.839844 C 134.132812 133.726562 137.140625 138.566406 141.394531 145.339844 L 141.394531 145.335938 C 132.339844 153.820312 121.519531 160.191406 109.710938 163.996094 C 101.003906 137.429688 92.25 110.882812 83.449219 84.351562 L 82.640625 84.339844 C 76.519531 101.542969 67.238281 127.6875 54.789062 162.78125 Z M 84.394531 0.257812 L 83.742188 0.257812 L 84 0 Z M 84.394531 0.257812 "/>
</g>
</svg>
