<?xml version="1.0" encoding="UTF-8"?>
<svg xmlns="http://www.w3.org/2000/svg" xmlns:xlink="http://www.w3.org/1999/xlink" width="168pt" height="168pt" viewBox="0 0 168 168" version="1.1">
<g id="surface1651">
<path style=" stroke:none;fill-rule:evenodd;fill:rgb(18.039216%,83.921569%,63.137255%);fill-opacity:1;" d="M 168 84 C 168 130.390625 130.390625 168 84 168 C 37.609375 168 0 130.390625 0 84 C 0 37.609375 37.609375 0 84 0 C 130.390625 0 168 37.609375 168 84 "/>
<path style=" stroke:none;fill-rule:nonzero;fill:rgb(100%,100%,100%);fill-opacity:1;" d="M 77.992188 92.503906 L 101.199219 92.503906 C 105.359375 92.492188 109.34375 90.828125 112.273438 87.878906 C 115.207031 84.929688 116.847656 80.933594 116.832031 76.777344 C 116.84375 72.617188 115.203125 68.625 112.273438 65.675781 C 109.339844 62.726562 105.355469 61.066406 101.199219 61.050781 L 93.816406 61.050781 L 77.992188 47.25 L 101.199219 47.25 C 108.023438 47.265625 114.632812 49.65625 119.886719 54.007812 C 125.144531 58.363281 128.722656 64.410156 130.011719 71.109375 C 131.324219 77.816406 130.277344 84.773438 127.042969 90.792969 C 123.808594 96.8125 118.589844 101.527344 112.269531 104.132812 L 130.566406 120.101562 L 109.613281 120.101562 L 77.992188 92.496094 Z M 89.316406 74.863281 L 66.113281 74.863281 C 61.957031 74.878906 57.972656 76.539062 55.042969 79.488281 C 52.109375 82.433594 50.46875 86.425781 50.480469 90.582031 C 50.46875 94.742188 52.109375 98.734375 55.039062 101.683594 C 57.972656 104.632812 61.957031 106.292969 66.113281 106.308594 L 73.5 106.308594 L 89.3125 120.117188 L 66.113281 120.117188 L 66.113281 120.113281 C 59.289062 120.097656 52.679688 117.707031 47.425781 113.355469 C 42.167969 109.003906 38.589844 102.957031 37.300781 96.253906 C 35.988281 89.546875 37.035156 82.59375 40.269531 76.570312 C 43.503906 70.550781 48.722656 65.835938 55.039062 63.230469 L 36.761719 47.25 L 57.714844 47.25 L 89.320312 74.863281 Z M 89.316406 74.863281 "/>
</g>
</svg>
