<?xml version="1.0" encoding="UTF-8"?>
<svg xmlns="http://www.w3.org/2000/svg" xmlns:xlink="http://www.w3.org/1999/xlink" width="168pt" height="168pt" viewBox="0 0 168 168" version="1.1">
<g id="surface1086">
<path style=" stroke:none;fill-rule:nonzero;fill:rgb(57.647059%,57.647059%,57.647059%);fill-opacity:1;" d="M 168 84 C 168 130.390625 130.390625 168 84 168 C 37.609375 168 0 130.390625 0 84 C 0 37.609375 37.609375 0 84 0 C 130.390625 0 168 37.609375 168 84 "/>
<path style=" stroke:none;fill-rule:evenodd;fill:rgb(100%,100%,100%);fill-opacity:1;" d="M 71.960938 104.265625 C 73.878906 103.019531 86.753906 95.128906 99.304688 87.445312 C 108.351562 81.910156 108.351562 81.910156 108.191406 81.371094 C 108.035156 80.714844 52.015625 46.675781 51.445312 46.332031 C 50.378906 45.703125 49.328125 45.058594 48.285156 44.394531 C 49.3125 43.679688 51.3125 42.316406 53.707031 40.6875 L 59.535156 36.75 L 63.535156 39.144531 C 68.46875 42.09375 122.648438 75.328125 130.242188 80.058594 C 127.144531 81.921875 116.171875 88.417969 101.417969 97.105469 L 72.105469 114.378906 L 72.109375 114.375 C 72.054688 112.847656 72.019531 111.316406 72.003906 109.789062 C 71.96875 107.949219 71.957031 106.109375 71.96875 104.269531 Z M 59.527344 71.210938 C 60.5 71.789062 62.179688 72.800781 64.246094 74.089844 L 69.648438 77.4375 L 69.765625 87.570312 C 70.105469 116.847656 70.105469 116.847656 70.53125 117.148438 L 70.816406 117.34375 L 71.132812 117.226562 C 71.289062 117.179688 71.347656 117.160156 128.207031 83.617188 L 131.253906 81.820312 L 130.25 95.90625 L 129.882812 96.117188 L 129.878906 96.117188 C 106.46875 109.566406 83.039062 122.976562 59.585938 136.351562 C 59.566406 132.683594 59.535156 120.15625 59.527344 103.824219 Z M 47.25 130.199219 L 47.382812 46.371094 L 49.417969 47.574219 C 51.054688 48.53125 62.101562 55.265625 74.582031 62.898438 C 83.515625 68.378906 92.46875 73.835938 101.429688 79.269531 L 105.183594 81.527344 L 92.773438 89.117188 L 90.296875 87.671875 L 90.292969 87.675781 C 85.324219 84.671875 80.371094 81.640625 75.4375 78.582031 C 70.625 75.597656 65.796875 72.644531 60.945312 69.71875 L 57.523438 67.722656 L 57.496094 103.261719 C 57.484375 119.296875 57.46875 132.621094 57.460938 136.503906 C 56.449219 135.890625 54.71875 134.824219 52.695312 133.5625 Z M 47.25 130.199219 "/>
</g>
</svg>
