<?xml version="1.0" encoding="UTF-8"?>
<svg xmlns="http://www.w3.org/2000/svg" xmlns:xlink="http://www.w3.org/1999/xlink" width="168pt" height="168pt" viewBox="0 0 168 168" version="1.1">
<g id="surface1816">
<path style=" stroke:none;fill-rule:evenodd;fill:rgb(40%,40%,40%);fill-opacity:1;" d="M 168 84 C 168 130.390625 130.390625 168 84 168 C 37.609375 168 0 130.390625 0 84 C 0 37.609375 37.609375 0 84 0 C 130.390625 0 168 37.609375 168 84 "/>
<path style=" stroke:none;fill-rule:evenodd;fill:rgb(100%,100%,100%);fill-opacity:1;" d="M 131.679688 111.039062 C 129.433594 114.789062 124.605469 116.058594 120.800781 113.898438 L 95.710938 99.671875 L 95.710938 90.640625 L 103.679688 86.125 L 128.765625 100.347656 C 132.578125 102.503906 133.878906 107.292969 131.679688 111.03125 Z M 91.964844 130.25 C 91.964844 134.570312 88.398438 138.074219 84 138.074219 C 79.601562 138.074219 76.035156 134.574219 76.035156 130.25 L 76.035156 101.796875 L 84 97.28125 L 91.964844 101.796875 Z M 47.199219 113.898438 C 43.394531 116.058594 38.566406 114.785156 36.320312 111.03125 C 35.265625 109.234375 34.980469 107.089844 35.53125 105.078125 C 36.078125 103.066406 37.414062 101.363281 39.234375 100.347656 L 64.320312 86.121094 L 72.289062 90.640625 L 72.289062 99.671875 Z M 39.234375 67.652344 C 37.414062 66.636719 36.078125 64.933594 35.53125 62.921875 C 34.980469 60.910156 35.265625 58.765625 36.320312 56.96875 C 38.566406 53.214844 43.394531 51.941406 47.199219 54.101562 L 72.289062 68.328125 L 72.289062 77.359375 L 64.320312 81.875 Z M 76.035156 37.753906 C 76.035156 33.433594 79.605469 29.929688 84 29.929688 C 88.398438 29.929688 91.964844 33.429688 91.964844 37.753906 L 91.964844 66.199219 L 84 70.71875 L 76.035156 66.203125 Z M 95.710938 81.613281 L 99.933594 84.003906 L 95.710938 86.394531 Z M 87.746094 72.847656 L 91.960938 70.453125 L 91.960938 75.234375 Z M 76.035156 75.238281 L 76.035156 70.460938 L 80.25 72.851562 Z M 72.285156 86.394531 L 68.066406 84 L 72.289062 81.609375 Z M 80.25 95.160156 L 76.035156 97.554688 L 76.035156 92.773438 Z M 91.960938 92.769531 L 91.960938 97.546875 L 87.746094 95.15625 Z M 84 93.03125 L 76.035156 88.515625 L 76.035156 79.484375 L 84 74.96875 L 91.964844 79.484375 L 91.964844 88.515625 Z M 120.800781 54.101562 C 124.605469 51.941406 129.433594 53.214844 131.679688 56.96875 C 133.882812 60.707031 132.570312 65.496094 128.765625 67.652344 L 103.679688 81.878906 L 95.710938 77.359375 L 95.710938 68.328125 Z M 130.640625 97.160156 L 107.429688 84 L 130.640625 70.839844 C 133.320312 69.347656 135.285156 66.839844 136.089844 63.882812 C 136.898438 60.925781 136.480469 57.769531 134.929688 55.125 C 131.695312 49.621094 124.53125 47.738281 118.925781 50.914062 L 95.710938 64.074219 L 95.710938 37.746094 C 95.710938 31.398438 90.46875 26.25 84 26.25 C 77.53125 26.25 72.289062 31.398438 72.289062 37.753906 L 72.289062 64.078125 L 49.070312 50.914062 C 43.46875 47.738281 36.304688 49.621094 33.074219 55.125 C 31.527344 57.769531 31.105469 60.925781 31.914062 63.882812 C 32.722656 66.839844 34.6875 69.347656 37.363281 70.839844 L 60.570312 84 L 37.367188 97.160156 L 37.363281 97.160156 C 34.683594 98.652344 32.71875 101.15625 31.910156 104.113281 C 31.101562 107.070312 31.519531 110.230469 33.070312 112.875 C 36.304688 118.378906 43.46875 120.261719 49.074219 117.085938 L 72.289062 103.925781 L 72.289062 130.25 C 72.289062 136.601562 77.535156 141.753906 84 141.753906 C 90.46875 141.753906 95.710938 136.605469 95.710938 130.25 L 95.710938 103.925781 L 118.925781 117.085938 C 124.527344 120.261719 131.695312 118.378906 134.929688 112.875 C 136.480469 110.230469 136.898438 107.074219 136.089844 104.117188 C 135.285156 101.160156 133.320312 98.652344 130.640625 97.160156 Z M 130.640625 97.160156 "/>
</g>
</svg>
