<?xml version="1.0" encoding="UTF-8"?>
<svg xmlns="http://www.w3.org/2000/svg" xmlns:xlink="http://www.w3.org/1999/xlink" width="168pt" height="168pt" viewBox="0 0 168 168" version="1.1">
<g id="surface61">
<path style=" stroke:none;fill-rule:evenodd;fill:rgb(99.607843%,78.823529%,2.745098%);fill-opacity:1;" d="M 168 84 C 168 130.390625 130.390625 168 84 168 C 37.609375 168 0 130.390625 0 84 C 0 37.609375 37.609375 0 84 0 C 130.390625 0 168 37.609375 168 84 "/>
<path style=" stroke:none;fill-rule:nonzero;fill:rgb(100%,100%,100%);fill-opacity:1;" d="M 63.84375 119.785156 C 67.089844 119.785156 69.722656 122.359375 69.722656 125.519531 C 69.722656 128.683594 67.085938 131.253906 63.84375 131.253906 L 56.214844 131.253906 C 54.535156 131.253906 52.917969 130.601562 51.730469 129.441406 L 51.734375 129.4375 C 50.550781 128.292969 49.878906 126.714844 49.875 125.066406 L 49.875 42.78125 C 49.875 41.179688 50.527344 39.648438 51.6875 38.511719 C 52.84375 37.382812 54.417969 36.746094 56.0625 36.746094 L 64.238281 36.746094 C 67.484375 36.746094 70.117188 39.3125 70.117188 42.480469 C 70.117188 44.003906 69.492188 45.457031 68.390625 46.535156 C 67.289062 47.605469 65.792969 48.214844 64.238281 48.214844 L 62.425781 48.214844 L 62.425781 119.78125 Z M 127.734375 59.664062 C 131.824219 66.6875 133.871094 74.546875 133.871094 83.242188 C 133.871094 91.9375 131.796875 99.796875 127.664062 106.824219 C 123.53125 113.855469 118.9375 119.242188 111.394531 124.117188 C 104.464844 128.601562 97.230469 131.246094 88.257812 131.246094 L 85.28125 131.246094 C 82.035156 131.246094 79.402344 128.679688 79.402344 125.511719 C 79.402344 122.347656 82.039062 119.785156 85.28125 119.785156 L 88.902344 119.785156 C 95.253906 119.785156 99.871094 117.15625 105.050781 114.167969 C 110.226562 111.1875 113.546875 106.296875 116.546875 101.027344 C 119.554688 95.761719 121.0625 89.875 121.0625 83.375 C 121.058594 76.785156 119.535156 70.859375 116.484375 65.589844 L 116.492188 65.589844 C 113.523438 60.398438 109.214844 56.097656 104.019531 53.136719 C 98.75 50.109375 92.890625 48.589844 86.449219 48.589844 L 84.890625 48.589844 C 81.644531 48.589844 79.011719 46.027344 79.011719 42.863281 C 79.011719 41.339844 79.636719 39.882812 80.738281 38.808594 C 81.839844 37.730469 83.332031 37.128906 84.890625 37.128906 L 86.722656 37.128906 C 95.605469 37.128906 103.636719 39.125 110.820312 43.125 L 110.816406 43.125 C 117.863281 46.984375 123.714844 52.703125 127.738281 59.660156 Z M 127.734375 59.664062 "/>
</g>
</svg>
