<?xml version="1.0" encoding="UTF-8"?>
<svg xmlns="http://www.w3.org/2000/svg" xmlns:xlink="http://www.w3.org/1999/xlink" width="168pt" height="168pt" viewBox="0 0 168 168" version="1.1">
<g id="surface666">
<path style=" stroke:none;fill-rule:evenodd;fill:rgb(0%,41.568627%,82.352941%);fill-opacity:1;" d="M 168 84 C 168 130.390625 130.390625 168 84 168 C 37.609375 168 0 130.390625 0 84 C 0 37.609375 37.609375 0 84 0 C 130.390625 0 168 37.609375 168 84 "/>
<path style=" stroke:none;fill-rule:evenodd;fill:rgb(100%,100%,100%);fill-opacity:1;" d="M 64.933594 131.25 L 67.449219 124.519531 L 62.988281 124.960938 L 61.382812 129.214844 C 61.257812 129.535156 61.152344 129.871094 60.988281 130.175781 C 60.636719 130.832031 60.097656 131.242188 59.34375 131.246094 C 56.035156 131.25 52.738281 131.246094 49.433594 131.242188 C 49.355469 131.242188 49.277344 131.195312 49.101562 131.140625 L 51.210938 125.445312 C 47.363281 125.339844 43.621094 125.277344 39.890625 124.851562 C 39.953125 124.152344 61.214844 70.539062 62.0625 68.929688 C 62.273438 68.914062 62.519531 68.878906 62.769531 68.878906 L 79.9375 68.878906 C 80.109375 68.878906 80.285156 68.878906 80.453125 68.890625 C 82.191406 69.023438 83.15625 70.492188 82.554688 72.160156 C 81.75 74.363281 80.902344 76.558594 80.078125 78.753906 L 69.273438 107.492188 C 69.164062 107.785156 69.070312 108.089844 68.933594 108.488281 C 69.238281 108.503906 69.472656 108.535156 69.710938 108.523438 C 85.964844 107.816406 97.894531 100.054688 105.601562 85.476562 L 105.59375 85.476562 C 107.277344 82.289062 108.464844 78.863281 109.109375 75.316406 C 109.492188 73.242188 109.613281 71.164062 109.09375 69.089844 C 108.570312 66.902344 107.269531 64.980469 105.429688 63.683594 C 102.972656 61.914062 100.210938 61.160156 97.230469 61.144531 L 39.375 61.140625 C 39.5 60.824219 39.558594 60.617188 39.660156 60.425781 L 46.945312 47.296875 C 47.640625 45.898438 49.09375 45.039062 50.652344 45.101562 L 81.449219 45.101562 L 84.605469 36.753906 L 93.960938 36.753906 C 94.191406 36.753906 94.421875 36.738281 94.644531 36.769531 C 95.3125 36.875 95.695312 37.398438 95.59375 38.082031 C 95.550781 38.367188 95.445312 38.636719 95.339844 38.910156 C 94.695312 40.648438 94.03125 42.378906 93.386719 44.117188 C 93.277344 44.410156 93.1875 44.710938 93.070312 45.0625 L 97.296875 45.0625 C 97.402344 44.835938 97.507812 44.605469 97.601562 44.371094 L 100.207031 37.457031 C 100.46875 36.757812 100.480469 36.753906 101.179688 36.753906 C 104.140625 36.753906 107.105469 36.742188 110.066406 36.753906 C 111.316406 36.757812 111.761719 37.421875 111.316406 38.628906 C 110.609375 40.566406 109.878906 42.488281 109.152344 44.414062 C 109.050781 44.683594 108.964844 44.953125 108.835938 45.324219 C 109.125 45.375 109.359375 45.429688 109.597656 45.460938 C 113.71875 45.964844 117.730469 46.898438 121.535156 48.617188 C 124.429688 49.925781 127.058594 51.628906 129.222656 54.023438 C 132.152344 57.253906 133.605469 61.109375 133.835938 65.46875 C 134.054688 69.695312 133.285156 73.769531 131.882812 77.703125 C 128.566406 87.023438 123.851562 95.488281 117.023438 102.625 C 112.320312 107.539062 106.890625 111.445312 100.9375 114.605469 C 94.511719 118.019531 87.71875 120.40625 80.683594 122.097656 C 80.054688 122.253906 79.722656 122.527344 79.507812 123.148438 C 78.734375 125.300781 77.917969 127.441406 77.109375 129.585938 C 76.609375 130.898438 76.113281 131.253906 74.738281 131.253906 L 64.929688 131.253906 Z M 64.933594 131.25 "/>
</g>
</svg>
