<?xml version="1.0" encoding="UTF-8"?>
<svg xmlns="http://www.w3.org/2000/svg" xmlns:xlink="http://www.w3.org/1999/xlink" width="168pt" height="168pt" viewBox="0 0 168 168" version="1.1">
<g id="surface1959">
<path style=" stroke:none;fill-rule:evenodd;fill:rgb(95.686275%,81.568627%,16.078431%);fill-opacity:1;" d="M 168 84 C 168 130.390625 130.390625 168 84 168 C 37.609375 168 0 130.390625 0 84 C 0 37.609375 37.609375 0 84 0 C 130.390625 0 168 37.609375 168 84 "/>
<path style=" stroke:none;fill-rule:evenodd;fill:rgb(100%,100%,100%);fill-opacity:1;" d="M 65.625 57.75 L 65.625 73.5 L 28.875 73.5 L 28.875 57.75 Z M 70.875 57.75 L 81.375 57.75 L 81.375 110.25 L 28.875 110.25 L 28.875 78.75 L 70.875 78.75 Z M 39.375 89.25 L 39.375 99.75 L 70.875 99.75 L 70.875 89.25 Z M 139.125 68.25 L 97.125 68.25 L 97.125 99.75 L 128.625 99.75 L 128.625 89.25 L 107.625 89.25 L 107.625 78.75 L 139.125 78.75 L 139.125 110.25 L 86.625 110.25 L 86.625 57.75 L 139.125 57.75 Z M 139.125 68.25 "/>
</g>
</svg>
