<?xml version="1.0" encoding="UTF-8"?>
<svg xmlns="http://www.w3.org/2000/svg" xmlns:xlink="http://www.w3.org/1999/xlink" width="168pt" height="168pt" viewBox="0 0 168 168" version="1.1">
<g id="surface96">
<path style=" stroke:none;fill-rule:nonzero;fill:rgb(95.686275%,68.235294%,58.431373%);fill-opacity:1;" d="M 168 84 C 168 130.390625 130.390625 168 84 168 C 37.609375 168 0 130.390625 0 84 C 0 37.609375 37.609375 0 84 0 C 130.390625 0 168 37.609375 168 84 "/>
<path style=" stroke:none;fill-rule:nonzero;fill:rgb(100%,100%,100%);fill-opacity:1;" d="M 82.988281 47.03125 L 50.992188 115.316406 L 104.109375 115.316406 C 105.648438 115.316406 107.039062 116.261719 107.644531 117.707031 L 107.703125 117.839844 L 107.699219 117.835938 C 108.097656 118.789062 108.039062 119.875 107.535156 120.777344 C 106.652344 122.371094 104.976562 123.367188 103.152344 123.375 L 46.703125 123.375 C 45.832031 123.375 44.976562 123.109375 44.257812 122.613281 L 43.964844 122.414062 C 42.128906 121.132812 41.484375 118.714844 42.441406 116.691406 L 80.1875 37.160156 C 80.582031 36.332031 81.144531 35.59375 81.832031 35.007812 C 83.171875 33.851562 85.148438 33.828125 86.515625 34.953125 C 86.816406 35.199219 87.058594 35.507812 87.222656 35.859375 L 125.511719 115.933594 C 126.035156 117.019531 126.140625 118.265625 125.816406 119.429688 L 125.816406 119.425781 C 125.46875 120.730469 124.289062 121.640625 122.9375 121.648438 L 122.496094 121.648438 L 122.5 121.648438 C 120.699219 121.636719 119.070312 120.578125 118.328125 118.9375 L 85.308594 47.039062 C 85.105469 46.582031 84.652344 46.285156 84.152344 46.277344 C 83.648438 46.277344 83.195312 46.574219 82.988281 47.03125 Z M 82.988281 47.03125 "/>
</g>
</svg>
