<?xml version="1.0" encoding="UTF-8"?>
<svg xmlns="http://www.w3.org/2000/svg" xmlns:xlink="http://www.w3.org/1999/xlink" width="168pt" height="168pt" viewBox="0 0 168 168" version="1.1">
<g id="surface256">
<path style=" stroke:none;fill-rule:nonzero;fill:rgb(17.254902%,22.352941%,56.078431%);fill-opacity:1;" d="M 168 84 C 168 130.390625 130.390625 168 84 168 C 37.609375 168 0 130.390625 0 84 C 0 37.609375 37.609375 0 84 0 C 130.390625 0 168 37.609375 168 84 "/>
<path style=" stroke:none;fill-rule:nonzero;fill:rgb(100%,100%,100%);fill-opacity:1;" d="M 131.644531 100.273438 C 134.40625 100.136719 137.042969 99.070312 139.125 97.246094 C 136.230469 112.03125 128.148438 126.578125 114.273438 134.574219 C 103.65625 140.757812 90.386719 142.816406 77.480469 141.242188 C 75.546875 135.667969 70.480469 129.730469 61.679688 125.246094 C 47.804688 118.09375 41.289062 105.730469 35.378906 111.789062 C 34.832031 112.3125 34.382812 112.929688 34.050781 113.605469 L 34.046875 113.605469 C 33.78125 113.050781 33.539062 112.484375 33.320312 111.910156 C 21.980469 83.792969 33.320312 55.546875 56 35.308594 C 69.511719 23.308594 85.316406 24.640625 99.433594 31.1875 L 99.433594 31.183594 C 97.71875 32.570312 96.738281 34.675781 96.777344 36.882812 L 96.777344 65.242188 C 90.910156 61.824219 84.015625 60.613281 77.332031 61.824219 C 70.652344 63.03125 64.617188 66.585938 60.324219 71.847656 C 56.007812 77.117188 53.699219 83.742188 53.796875 90.550781 C 53.898438 97.363281 56.402344 103.917969 60.867188 109.058594 C 65.320312 114.1875 71.453125 117.558594 78.167969 118.570312 C 84.882812 119.582031 91.738281 118.164062 97.503906 114.574219 C 98.957031 117.710938 102.402344 119.40625 105.773438 118.644531 C 109.140625 117.886719 111.527344 114.882812 111.5 111.425781 L 111.5 38.335938 C 122.355469 45.96875 131.039062 55.667969 135.019531 62.332031 C 136.960938 65.679688 138.347656 69.324219 139.125 73.121094 C 137.417969 71.859375 135.429688 71.019531 133.335938 70.695312 C 128.875 70.453125 125.492188 76.515625 127.785156 85.238281 C 129.71875 93.125 127.300781 100.03125 131.644531 100.273438 Z M 77.238281 100.757812 C 62.035156 92.03125 74.824219 69.609375 90.027344 78.335938 C 94.609375 80.882812 95.09375 89.003906 94.25 94.210938 C 92.679688 103.183594 84.238281 104.757812 77.238281 100.757812 Z M 84.355469 42.820312 C 80.972656 42.941406 78.566406 47.0625 78.683594 48.882812 C 78.800781 50.699219 81.335938 51.792969 84.832031 50.578125 C 87.972656 49.484375 90.871094 50.210938 90.742188 48.394531 C 90.621094 46.578125 87.609375 42.699219 84.351562 42.820312 Z M 84.355469 42.820312 "/>
</g>
</svg>
