<?xml version="1.0" encoding="UTF-8"?>
<svg xmlns="http://www.w3.org/2000/svg" xmlns:xlink="http://www.w3.org/1999/xlink" width="168pt" height="168pt" viewBox="0 0 168 168" version="1.1">
<g id="surface1276">
<path style=" stroke:none;fill-rule:nonzero;fill:rgb(47.058824%,42.745098%,73.72549%);fill-opacity:1;" d="M 168 84 C 168 130.390625 130.390625 168 84 168 C 37.609375 168 0 130.390625 0 84 C 0 37.609375 37.609375 0 84 0 C 130.390625 0 168 37.609375 168 84 "/>
<path style=" stroke:none;fill-rule:nonzero;fill:rgb(100%,100%,100%);fill-opacity:1;" d="M 83.636719 56.546875 L 75.085938 47.972656 C 72.6875 45.679688 72.601562 41.878906 74.898438 39.480469 C 77.191406 37.082031 80.992188 36.996094 83.390625 39.289062 L 102.679688 58.578125 C 105.027344 60.925781 105.027344 64.71875 102.679688 67.066406 L 83.570312 86.15625 C 81.210938 88.40625 77.488281 88.363281 75.183594 86.058594 C 72.878906 83.753906 72.835938 80.03125 75.085938 77.671875 L 84.046875 68.710938 C 75.949219 67.28125 67.617188 69.253906 61.015625 74.160156 C 54.414062 79.066406 50.125 86.476562 49.160156 94.644531 C 48.191406 102.8125 50.632812 111.015625 55.90625 117.328125 C 61.183594 123.640625 68.824219 127.5 77.035156 128 C 85.242188 128.5 93.296875 125.59375 99.296875 119.96875 C 105.296875 114.34375 108.71875 106.496094 108.75 98.269531 L 108.75 32.246094 C 108.75 28.929688 111.433594 26.246094 114.75 26.246094 C 118.0625 26.246094 120.75 28.929688 120.75 32.246094 L 120.75 99.074219 C 120.523438 110.445312 115.699219 121.238281 107.375 128.988281 C 99.046875 136.734375 87.9375 140.777344 76.578125 140.1875 C 65.21875 139.597656 54.585938 134.425781 47.109375 125.855469 C 39.632812 117.285156 35.949219 106.046875 36.90625 94.714844 C 37.863281 83.378906 43.375 72.917969 52.179688 65.722656 C 60.988281 58.523438 72.335938 55.207031 83.632812 56.527344 Z M 83.636719 56.546875 "/>
</g>
</svg>
