<?xml version="1.0" encoding="UTF-8"?>
<svg xmlns="http://www.w3.org/2000/svg" xmlns:xlink="http://www.w3.org/1999/xlink" width="168pt" height="168pt" viewBox="0 0 168 168" version="1.1">
<g id="surface216">
<path style=" stroke:none;fill-rule:evenodd;fill:rgb(76.470588%,65.098039%,20.392157%);fill-opacity:1;" d="M 168 84 C 168 130.390625 130.390625 168 84 168 C 37.609375 168 0 130.390625 0 84 C 0 37.609375 37.609375 0 84 0 C 130.390625 0 168 37.609375 168 84 "/>
<path style=" stroke:none;fill-rule:evenodd;fill:rgb(100%,100%,100%);fill-opacity:1;" d="M 69.550781 76.703125 L 92.199219 76.703125 L 92.199219 88.703125 L 69.550781 88.703125 L 69.550781 113.996094 L 83.835938 113.996094 C 89.488281 113.996094 94.117188 113.234375 97.71875 111.703125 C 101.320312 110.175781 104.144531 108.058594 106.199219 105.351562 L 106.195312 105.351562 C 108.296875 102.535156 109.726562 99.277344 110.375 95.824219 C 111.132812 91.929688 111.503906 87.96875 111.476562 84 C 111.503906 80.03125 111.132812 76.070312 110.375 72.175781 C 109.726562 68.722656 108.296875 65.464844 106.195312 62.648438 C 104.140625 59.9375 101.3125 57.824219 97.714844 56.296875 C 94.113281 54.765625 89.488281 54.003906 83.832031 54.003906 L 69.546875 54.003906 L 69.546875 76.710938 Z M 55.027344 88.703125 L 47.25 88.703125 L 47.25 76.707031 L 55.03125 76.707031 L 55.03125 42 L 89.414062 42 C 95.765625 42 101.261719 43.101562 105.910156 45.292969 C 110.554688 47.492188 114.347656 50.492188 117.292969 54.296875 C 120.234375 58.097656 122.421875 62.550781 123.855469 67.648438 C 125.289062 72.746094 126.003906 78.199219 126.003906 84.003906 L 126 84 C 126.035156 89.523438 125.3125 95.027344 123.847656 100.355469 C 122.417969 105.449219 120.230469 109.90625 117.285156 113.707031 C 114.34375 117.511719 110.554688 120.511719 105.910156 122.710938 C 101.265625 124.90625 95.761719 126.003906 89.414062 126.003906 L 55.03125 126.003906 L 55.03125 88.707031 Z M 55.027344 88.703125 "/>
</g>
</svg>
