<?xml version="1.0" encoding="UTF-8"?>
<svg xmlns="http://www.w3.org/2000/svg" xmlns:xlink="http://www.w3.org/1999/xlink" width="168pt" height="168pt" viewBox="0 0 168 168" version="1.1">
<g id="surface1656">
<path style=" stroke:none;fill-rule:nonzero;fill:rgb(90.196078%,0%,47.843137%);fill-opacity:1;" d="M 168 84 C 168 130.390625 130.390625 168 84 168 C 37.609375 168 0 130.390625 0 84 C 0 37.609375 37.609375 0 84 0 C 130.390625 0 168 37.609375 168 84 "/>
<path style=" stroke:none;fill-rule:nonzero;fill:rgb(100%,100%,100%);fill-opacity:1;" d="M 85.429688 34.78125 C 65.96875 34.78125 50.066406 50.59375 50.066406 70.144531 C 50.066406 74.078125 50.71875 77.914062 51.933594 81.652344 C 52.828125 84.21875 55.617188 85.597656 58.203125 84.746094 C 60.765625 83.847656 62.140625 81.058594 61.289062 78.476562 C 60.261719 75.5625 59.785156 72.484375 59.886719 69.394531 C 60.257812 56.207031 70.925781 45.347656 84.121094 44.699219 C 91.105469 44.332031 97.933594 46.847656 103.007812 51.65625 C 108.085938 56.46875 110.964844 63.152344 110.972656 70.144531 C 110.964844 76.652344 108.472656 82.914062 104.003906 87.644531 C 99.535156 92.375 93.425781 95.21875 86.929688 95.597656 C 86.929688 95.597656 81.96875 95.875 79.539062 96.253906 C 78.320312 96.4375 77.386719 96.625 76.730469 96.722656 C 76.445312 96.816406 76.167969 96.535156 76.257812 96.25 L 77.101562 92.140625 L 81.683594 70.992188 C 82.242188 68.359375 80.574219 65.769531 77.945312 65.1875 C 75.3125 64.632812 72.722656 66.304688 72.144531 68.933594 C 72.144531 68.933594 61.105469 120.394531 61.007812 120.957031 L 61.011719 120.953125 C 60.453125 123.589844 62.125 126.175781 64.753906 126.757812 C 67.386719 127.3125 69.976562 125.640625 70.554688 123.011719 C 70.644531 122.449219 72.144531 115.621094 72.144531 115.621094 C 73.234375 110.488281 77.425781 106.59375 82.625 105.886719 C 84.460938 105.6875 86.300781 105.53125 88.140625 105.421875 C 97.023438 104.726562 105.320312 100.710938 111.375 94.171875 C 117.425781 87.636719 120.792969 79.054688 120.796875 70.144531 C 120.796875 50.59375 104.890625 34.78125 85.425781 34.78125 Z M 87.953125 116.183594 C 86.414062 115.851562 84.808594 116.148438 83.488281 117.007812 C 82.171875 117.871094 81.253906 119.222656 80.9375 120.765625 C 80.28125 123.945312 82.25 127.128906 85.519531 127.785156 L 85.523438 127.785156 C 87.0625 128.117188 88.671875 127.820312 89.992188 126.957031 C 91.308594 126.097656 92.230469 124.742188 92.542969 123.195312 C 93.195312 119.925781 91.230469 116.832031 87.953125 116.179688 Z M 87.953125 116.183594 "/>
</g>
</svg>
