<?xml version="1.0" encoding="UTF-8"?>
<svg xmlns="http://www.w3.org/2000/svg" xmlns:xlink="http://www.w3.org/1999/xlink" width="168pt" height="168pt" viewBox="0 0 168 168" version="1.1">
<g id="surface596">
<path style=" stroke:none;fill-rule:nonzero;fill:rgb(14.117647%,17.647059%,23.921569%);fill-opacity:1;" d="M 168 84 C 168 130.390625 130.390625 168 84 168 C 37.609375 168 0 130.390625 0 84 C 0 37.609375 37.609375 0 84 0 C 130.390625 0 168 37.609375 168 84 "/>
<path style=" stroke:none;fill-rule:nonzero;fill:rgb(100%,100%,100%);fill-opacity:1;" d="M 121.453125 91.703125 C 118.558594 78.960938 109.566406 64.914062 109.566406 64.914062 C 119.929688 93.195312 115.941406 114.527344 113.195312 126.628906 C 113.195312 126.628906 109.574219 140.164062 117.367188 128.886719 C 127.089844 114.773438 121.453125 91.707031 121.453125 91.707031 Z M 121.453125 91.703125 "/>
<path style=" stroke:none;fill-rule:nonzero;fill:rgb(100%,100%,100%);fill-opacity:1;" d="M 95.855469 41.53125 C 101.246094 60.734375 103.6875 77.035156 104.449219 90.628906 C 105.789062 113.792969 102.253906 129.03125 100.058594 137.082031 C 99.355469 139.703125 102.285156 141.648438 103.992188 139.671875 L 104.023438 139.640625 C 108.285156 134.761719 110.300781 123.339844 111.246094 113.3125 L 111.519531 110.019531 C 112.402344 97.945312 111.886719 85.757812 109.050781 74.082031 C 103.835938 52.535156 95.851562 41.53125 95.851562 41.53125 Z M 86.195312 75.363281 C 84.882812 43.820312 82.503906 15.8125 82.503906 15.8125 C 82.503906 15.8125 80.097656 42.417969 78.785156 73.257812 C 78.574219 78.261719 78.386719 83.347656 78.234375 88.46875 C 78.023438 95.90625 77.929688 103.378906 77.929688 110.597656 C 77.960938 123.429688 78.453125 135.46875 79.609375 145.070312 C 80.066406 148.875 85 148.875 85.457031 145.070312 C 86.25 138.519531 86.707031 130.46875 86.890625 121.628906 L 86.894531 121.625 C 87.0625 112.070312 87.023438 102.507812 86.773438 92.953125 C 86.617188 87.097656 86.4375 81.1875 86.195312 75.367188 Z M 49.351562 113.367188 C 48.628906 107.425781 48.464844 101.425781 48.855469 95.449219 C 49.160156 90.753906 49.832031 85.726562 50.992188 80.359375 C 52.058594 75.449219 53.515625 70.300781 55.5 64.878906 C 55.5 64.878906 49.15625 74.785156 45.441406 85.480469 C 44.707031 87.527344 44.101562 89.628906 43.640625 91.671875 C 43.640625 91.671875 42.453125 97.039062 42.277344 104.199219 C 42.152344 109.164062 42.546875 115.046875 44.128906 120.59375 L 44.132812 120.59375 C 44.933594 123.496094 46.132812 126.277344 47.703125 128.851562 C 47.703125 128.851562 55.503906 140.464844 51.875 126.59375 C 50.746094 122.246094 49.902344 117.828125 49.34375 113.367188 Z M 49.351562 113.367188 "/>
<path style=" stroke:none;fill-rule:nonzero;fill:rgb(100%,100%,100%);fill-opacity:1;" d="M 60.46875 107.152344 C 60.214844 100.871094 60.316406 94.582031 60.773438 88.316406 C 61.089844 83.6875 61.578125 79.074219 62.238281 74.480469 C 63.601562 64.605469 65.835938 53.664062 69.222656 41.53125 C 69.222656 41.53125 61.199219 52.535156 55.992188 74.082031 C 55.714844 75.238281 55.46875 76.398438 55.226562 77.527344 C 54.28125 82.222656 53.671875 86.976562 53.367188 91.792969 C 53 97.832031 53.09375 103.921875 53.523438 109.988281 L 53.796875 113.3125 C 54.742188 123.339844 56.722656 134.765625 61.015625 139.640625 L 61.046875 139.671875 C 62.753906 141.625 65.707031 139.671875 64.984375 137.082031 C 63.394531 131.140625 61.046875 121.265625 60.46875 107.152344 Z M 60.46875 107.152344 "/>
<path style=" stroke:none;fill-rule:nonzero;fill:rgb(100%,100%,100%);fill-opacity:1;" d="M 73.789062 108.339844 C 73.617188 101.351562 73.585938 94.359375 73.695312 87.371094 C 73.757812 82.773438 73.878906 77.921875 74.09375 72.832031 C 74.613281 59.695312 77.082031 40.707031 78.789062 24.617188 C 78.789062 24.617188 70.378906 42.019531 66.535156 73.414062 C 66.019531 77.707031 65.53125 82.339844 65.164062 87.34375 L 64.890625 91.0625 C 64.890625 91.0625 64.433594 97.703125 64.613281 106.664062 C 64.859375 118.183594 66.136719 133.542969 70.890625 143.601562 C 71.046875 143.90625 71.226562 144.179688 71.46875 144.390625 L 71.5 144.425781 C 73.300781 146.132812 76.074219 144.515625 75.832031 141.863281 L 75.832031 141.867188 C 74.710938 130.722656 74.03125 119.535156 73.785156 108.339844 Z M 91.21875 108.339844 C 91.375 102.0625 91.433594 95.058594 91.3125 87.371094 C 91.25 82.773438 91.128906 77.921875 90.914062 72.832031 C 90.398438 59.695312 87.933594 40.707031 86.21875 24.617188 C 86.21875 24.617188 94.632812 42.019531 98.472656 73.414062 C 98.992188 77.707031 99.480469 82.339844 99.84375 87.34375 L 100.121094 91.0625 C 100.121094 91.0625 100.578125 97.703125 100.394531 106.664062 C 100.148438 118.183594 98.871094 133.542969 94.117188 143.601562 C 93.976562 143.902344 93.78125 144.167969 93.539062 144.390625 L 93.507812 144.425781 C 91.707031 146.132812 88.941406 144.515625 89.183594 141.863281 C 89.792969 136.105469 90.828125 124.675781 91.21875 108.335938 Z M 91.21875 108.339844 "/>
</g>
</svg>
