<?xml version="1.0" encoding="UTF-8"?>
<svg xmlns="http://www.w3.org/2000/svg" xmlns:xlink="http://www.w3.org/1999/xlink" width="168pt" height="168pt" viewBox="0 0 168 168" version="1.1">
<g id="surface1621">
<path style=" stroke:none;fill-rule:evenodd;fill:rgb(45.490196%,82.352941%,41.176471%);fill-opacity:1;" d="M 168 84 C 168 130.390625 130.390625 168 84 168 C 37.609375 168 0 130.390625 0 84 C 0 37.609375 37.609375 0 84 0 C 130.390625 0 168 37.609375 168 84 "/>
<path style=" stroke:none;fill-rule:nonzero;fill:rgb(100%,100%,100%);fill-opacity:1;" d="M 131.054688 76.1875 L 131.160156 76.1875 L 131.25 102.257812 L 72.570312 136.5 L 56.863281 127.667969 L 56.863281 127.679688 L 56.761719 127.617188 L 42 118.152344 L 42 49.789062 L 58.132812 40.269531 L 58.164062 40.285156 L 72.40625 31.5 L 130.945312 65.957031 Z M 113.859375 92.527344 L 101.578125 85.496094 L 60.589844 109.613281 L 72.621094 116.769531 Z M 98.8125 83.917969 L 73.527344 69.4375 L 73.417969 99.261719 Z M 73.539062 66.246094 L 114.183594 90.035156 L 114.183594 75.832031 L 73.589844 52.128906 Z M 56.804688 123.742188 L 56.960938 109.5 L 56.867188 109.558594 L 56.867188 59.304688 L 44.546875 51.953125 L 44.546875 116.421875 Z M 58.988281 107.988281 L 71.300781 100.542969 L 71.300781 51.953125 L 58.988281 59.308594 Z M 74.113281 118.652344 L 73.867188 133.542969 L 128.65625 101.324219 L 128.8125 86.519531 Z M 115.027344 73.585938 L 127.78125 66.308594 L 72.890625 34.257812 L 60.257812 41.566406 Z M 115.027344 73.585938 "/>
</g>
</svg>
