<?xml version="1.0" encoding="UTF-8"?>
<svg xmlns="http://www.w3.org/2000/svg" xmlns:xlink="http://www.w3.org/1999/xlink" width="168pt" height="168pt" viewBox="0 0 168 168" version="1.1">
<g id="surface2139">
<path style=" stroke:none;fill-rule:nonzero;fill:rgb(23.529412%,50.196078%,94.509804%);fill-opacity:1;" d="M 168 84 C 168 130.390625 130.390625 168 84 168 C 37.609375 168 0 130.390625 0 84 C 0 37.609375 37.609375 0 84 0 C 130.390625 0 168 37.609375 168 84 "/>
<path style=" stroke:none;fill-rule:nonzero;fill:rgb(100%,100%,100%);fill-opacity:1;" d="M 84.441406 21 C 55.722656 21.019531 32.445312 44.289062 32.414062 73 C 32.441406 75.804688 32.753906 78.597656 33.347656 81.335938 L 33.347656 81.339844 C 33.410156 81.601562 33.597656 81.816406 33.851562 81.910156 C 34.105469 82.007812 34.386719 81.96875 34.609375 81.8125 C 36.59375 80.386719 38.976562 79.621094 41.421875 79.617188 C 41.660156 79.625 41.890625 79.523438 42.050781 79.34375 C 42.207031 79.164062 42.277344 78.921875 42.234375 78.6875 C 41.890625 76.832031 41.710938 74.945312 41.699219 73.058594 C 41.699219 57.792969 49.847656 43.683594 63.066406 36.050781 C 76.289062 28.414062 92.582031 28.414062 105.804688 36.050781 C 119.027344 43.683594 127.171875 57.792969 127.171875 73.058594 C 127.171875 96.632812 97.015625 126.738281 86.222656 137.371094 C 85.234375 138.339844 83.648438 138.339844 82.660156 137.371094 C 78.089844 132.910156 73.65625 128.316406 69.363281 123.589844 L 69.152344 123.589844 C 65.023438 123.183594 60.96875 122.210938 57.105469 120.703125 L 56.390625 120.414062 C 56.050781 120.257812 55.644531 120.359375 55.417969 120.65625 C 55.191406 120.957031 55.207031 121.375 55.449219 121.660156 C 62.132812 129.644531 69.226562 137.28125 76.695312 144.53125 C 80.996094 148.726562 87.859375 148.726562 92.160156 144.53125 C 111.164062 125.757812 136.46875 97.984375 136.46875 73 C 136.4375 44.28125 113.160156 21.019531 84.441406 21 "/>
<path style=" stroke:none;fill-rule:nonzero;fill:rgb(100%,100%,100%);fill-opacity:1;" d="M 106.070312 78.261719 C 106.070312 78.996094 106.011719 79.714844 105.945312 80.429688 C 105.757812 83.164062 105.125 85.847656 104.070312 88.378906 C 102.9375 90.898438 101.425781 93.226562 99.59375 95.289062 L 99.644531 95.335938 C 96.015625 99.390625 91.535156 102.59375 86.519531 104.710938 C 81.554688 106.847656 76.136719 107.714844 70.753906 107.242188 C 65.625 106.730469 60.71875 104.871094 56.542969 101.851562 C 57.890625 101.808594 59.230469 101.605469 60.53125 101.242188 C 61.707031 100.914062 62.835938 100.433594 63.882812 99.808594 C 66.144531 98.457031 67.902344 96.398438 68.878906 93.949219 C 69.335938 92.832031 69.644531 91.664062 69.8125 90.46875 C 69.917969 89.472656 69.945312 88.457031 69.90625 87.449219 L 69.90625 53.375 L 69.910156 53.375 C 69.90625 53.34375 69.90625 53.308594 69.910156 53.277344 L 69.910156 53.097656 C 70.066406 52.257812 70.746094 51.609375 71.59375 51.496094 L 82.84375 51.496094 C 85.511719 51.707031 88.121094 52.40625 90.535156 53.558594 C 95.570312 55.941406 99.777344 59.765625 102.628906 64.546875 C 103.320312 65.722656 103.929688 66.953125 104.441406 68.222656 C 104.929688 69.484375 105.316406 70.796875 105.597656 72.117188 C 105.875 73.441406 106.035156 74.785156 106.070312 76.132812 L 106.070312 78.265625 Z M 115.332031 75.816406 C 115.273438 73.925781 115.046875 72.042969 114.65625 70.191406 C 113.875 66.53125 112.496094 63.027344 110.582031 59.8125 C 106.78125 53.421875 101.15625 48.316406 94.425781 45.148438 C 90.988281 43.519531 87.28125 42.53125 83.484375 42.242188 C 83.007812 42.242188 82.542969 42.242188 82.019531 42.191406 L 71.53125 42.191406 C 71.195312 42.191406 70.847656 42.191406 70.507812 42.265625 C 69.136719 42.421875 67.804688 42.84375 66.582031 43.492188 C 63.160156 45.316406 60.925781 48.773438 60.660156 52.640625 L 60.660156 87.449219 C 60.660156 88.058594 60.617188 88.667969 60.535156 89.269531 C 60.484375 89.679688 60.382812 90.078125 60.234375 90.464844 L 60.234375 90.46875 C 60.117188 90.757812 59.957031 91.027344 59.761719 91.265625 C 59.277344 91.785156 58.648438 92.148438 57.953125 92.304688 C 56.917969 92.566406 55.851562 92.652344 54.789062 92.550781 C 50.988281 92.179688 47.410156 90.582031 44.597656 87.996094 C 42.929688 86.453125 40.390625 86.34375 38.597656 87.738281 C 36.804688 89.132812 36.285156 91.621094 37.371094 93.617188 C 40.644531 99.601562 45.140625 104.828125 50.566406 108.964844 C 53.367188 111.050781 56.429688 112.753906 59.683594 114.03125 C 62.945312 115.304688 66.367188 116.121094 69.851562 116.464844 C 76.769531 117.105469 83.738281 116.015625 90.132812 113.296875 C 96.5 110.660156 102.144531 106.542969 106.601562 101.289062 L 106.660156 101.335938 C 109.117188 98.554688 111.136719 95.417969 112.644531 92.027344 C 114.074219 88.574219 114.933594 84.914062 115.191406 81.1875 C 115.265625 80.253906 115.3125 79.40625 115.34375 78.515625 L 115.34375 77.199219 C 115.378906 76.8125 115.347656 76.28125 115.34375 75.820312 L 115.332031 75.820312 Z M 115.332031 75.816406 "/>
</g>
</svg>
