<?xml version="1.0" encoding="UTF-8"?>
<svg xmlns="http://www.w3.org/2000/svg" xmlns:xlink="http://www.w3.org/1999/xlink" width="168pt" height="168pt" viewBox="0 0 168 168" version="1.1">
<g id="surface2129">
<path style=" stroke:none;fill-rule:evenodd;fill:rgb(7.058824%,9.019608%,27.843137%);fill-opacity:1;" d="M 168 84 C 168 130.390625 130.390625 168 84 168 C 37.609375 168 0 130.390625 0 84 C 0 37.609375 37.609375 0 84 0 C 130.390625 0 168 37.609375 168 84 "/>
<path style=" stroke:none;fill-rule:nonzero;fill:rgb(100%,100%,100%);fill-opacity:1;" d="M 94.667969 120.066406 C 94.667969 126.078125 89.839844 130.953125 83.875 130.953125 C 77.910156 130.953125 73.085938 126.074219 73.085938 120.058594 L 73.085938 47.671875 C 73.085938 41.660156 77.914062 36.785156 83.875 36.785156 C 89.832031 36.785156 94.667969 41.664062 94.667969 47.679688 Z M 58.339844 120.09375 C 58.410156 124.003906 56.375 127.652344 53.007812 129.648438 C 49.660156 131.628906 45.5 131.628906 42.152344 129.648438 C 38.789062 127.652344 36.757812 124.003906 36.828125 120.09375 L 36.828125 103.820312 C 36.757812 99.910156 38.789062 96.261719 42.152344 94.265625 C 45.5 92.285156 49.660156 92.285156 53.007812 94.265625 C 56.371094 96.261719 58.40625 99.910156 58.332031 103.820312 Z M 58.339844 120.09375 "/>
<path style=" stroke:none;fill-rule:nonzero;fill:rgb(100%,100%,100%);fill-opacity:0.5;" d="M 131.019531 91.351562 C 131.019531 97.363281 126.191406 102.238281 120.226562 102.238281 C 114.261719 102.238281 109.433594 97.355469 109.433594 91.34375 L 109.433594 63.871094 C 109.433594 57.855469 114.261719 52.976562 120.226562 52.976562 C 126.191406 52.976562 131.019531 57.855469 131.019531 63.871094 Z M 131.019531 91.351562 "/>
</g>
</svg>
