<?xml version="1.0" encoding="UTF-8"?>
<svg xmlns="http://www.w3.org/2000/svg" xmlns:xlink="http://www.w3.org/1999/xlink" width="168pt" height="168pt" viewBox="0 0 168 168" version="1.1">
<g id="surface296">
<path style=" stroke:none;fill-rule:nonzero;fill:rgb(8.627451%,57.647059%,83.137255%);fill-opacity:1;" d="M 168 84 C 168 130.390625 130.390625 168 84 168 C 37.609375 168 0 130.390625 0 84 C 0 37.609375 37.609375 0 84 0 C 130.390625 0 168 37.609375 168 84 "/>
<path style=" stroke:none;fill-rule:evenodd;fill:rgb(100%,100%,100%);fill-opacity:1;" d="M 52.121094 87.011719 C 51.988281 85.125 51.976562 83.230469 52.097656 81.34375 L 37.398438 81.34375 L 21 68.230469 L 55.09375 68.230469 C 58.277344 60.460938 63.703125 53.816406 70.679688 49.144531 C 77.65625 44.476562 85.863281 41.988281 94.257812 42 C 117.589844 42 136.5 60.804688 136.5 84 C 136.5 107.195312 117.589844 126 94.257812 126 C 85.929688 126.011719 77.78125 123.5625 70.839844 118.960938 C 63.898438 114.355469 58.472656 107.804688 55.242188 100.128906 L 21 100.128906 L 37.394531 87.015625 Z M 118.316406 84.78125 C 118.316406 80.421875 117.726562 76.621094 116.546875 73.378906 C 115.367188 70.132812 113.726562 67.414062 111.636719 65.242188 C 109.542969 63.0625 107.0625 61.421875 104.191406 60.316406 C 101.320312 59.214844 98.207031 58.65625 94.832031 58.65625 C 91.1875 58.65625 87.796875 59.277344 84.65625 60.515625 C 81.515625 61.753906 78.800781 63.496094 76.507812 65.738281 C 74.214844 67.984375 72.414062 70.695312 71.09375 73.875 C 69.777344 77.054688 69.121094 80.59375 69.121094 84.480469 C 69.121094 88.429688 69.777344 91.960938 71.09375 95.074219 C 72.40625 98.1875 74.226562 100.816406 76.554688 102.960938 C 78.886719 105.109375 81.636719 106.761719 84.808594 107.9375 L 84.8125 107.941406 C 88.15625 109.140625 91.6875 109.738281 95.242188 109.699219 C 104.351562 109.699219 111.308594 106.480469 116.09375 100.050781 L 107.992188 93.625 C 106.644531 95.566406 104.925781 97.089844 102.832031 98.191406 C 100.742188 99.292969 98.175781 99.851562 95.140625 99.851562 C 93.386719 99.851562 91.695312 99.550781 90.078125 98.949219 C 88.460938 98.34375 87.007812 97.527344 85.71875 96.488281 L 85.722656 96.484375 C 83.109375 94.40625 81.496094 91.324219 81.269531 87.996094 L 118.21875 87.996094 C 118.285156 87.460938 118.320312 86.925781 118.320312 86.390625 Z M 106.167969 79.351562 L 81.269531 79.355469 C 81.542969 75.941406 82.9375 73.144531 85.46875 70.964844 C 88.003906 68.792969 91.085938 67.699219 94.734375 67.699219 C 96.6875 67.699219 98.394531 68.015625 99.84375 68.65625 C 101.292969 69.296875 102.496094 70.148438 103.441406 71.21875 C 104.386719 72.289062 105.074219 73.527344 105.515625 74.9375 L 105.515625 74.933594 C 105.957031 76.363281 106.179688 77.855469 106.171875 79.355469 Z M 106.167969 79.351562 "/>
</g>
</svg>
