<?xml version="1.0" encoding="UTF-8"?>
<svg xmlns="http://www.w3.org/2000/svg" xmlns:xlink="http://www.w3.org/1999/xlink" width="168pt" height="168pt" viewBox="0 0 168 168" version="1.1">
<g id="surface856">
<path style=" stroke:none;fill-rule:nonzero;fill:rgb(66.666667%,8.235294%,86.666667%);fill-opacity:1;" d="M 168 84 C 168 130.390625 130.390625 168 84 168 C 37.609375 168 0 130.390625 0 84 C 0 37.609375 37.609375 0 84 0 C 130.390625 0 168 37.609375 168 84 "/>
<path style=" stroke:none;fill-rule:nonzero;fill:rgb(100%,100%,100%);fill-opacity:1;" d="M 83.996094 134.464844 C 85.257812 134.46875 86.28125 135.515625 86.285156 136.796875 L 86.285156 136.792969 C 86.296875 138.066406 85.273438 139.109375 84 139.125 C 83.386719 139.121094 82.800781 138.871094 82.371094 138.433594 C 81.945312 137.996094 81.707031 137.40625 81.710938 136.792969 C 81.707031 136.179688 81.945312 135.589844 82.371094 135.15625 C 82.800781 134.71875 83.386719 134.46875 84 134.464844 Z M 37.902344 59.632812 L 37.898438 59.628906 C 36.796875 58.96875 36.421875 57.550781 37.058594 56.433594 C 37.519531 55.613281 38.429688 55.160156 39.359375 55.285156 C 40.289062 55.410156 41.046875 56.089844 41.277344 57 C 41.515625 57.910156 41.191406 58.878906 40.453125 59.460938 C 39.714844 60.039062 38.703125 60.105469 37.898438 59.628906 Z M 37.902344 108.425781 L 37.898438 108.421875 C 38.425781 108.117188 39.054688 108.035156 39.644531 108.195312 C 40.230469 108.359375 40.730469 108.746094 41.027344 109.277344 C 41.660156 110.390625 41.289062 111.804688 40.1875 112.460938 C 39.660156 112.769531 39.03125 112.851562 38.445312 112.691406 C 37.855469 112.53125 37.355469 112.136719 37.058594 111.605469 C 36.429688 110.492188 36.800781 109.078125 37.898438 108.421875 Z M 130.09375 59.632812 L 130.089844 59.628906 C 129.5625 59.933594 128.933594 60.015625 128.347656 59.855469 C 127.757812 59.695312 127.257812 59.304688 126.960938 58.773438 C 126.492188 57.953125 126.554688 56.933594 127.117188 56.175781 C 127.675781 55.421875 128.640625 55.089844 129.542969 55.335938 C 130.453125 55.589844 131.117188 56.367188 131.238281 57.300781 C 131.355469 58.238281 130.90625 59.152344 130.089844 59.628906 Z M 84 33.535156 C 82.738281 33.503906 81.734375 32.46875 81.746094 31.207031 C 81.746094 30.261719 82.3125 29.40625 83.167969 29.050781 L 83.171875 29.046875 C 84.035156 28.6875 85.027344 28.898438 85.675781 29.574219 C 86.328125 30.253906 86.511719 31.257812 86.148438 32.125 C 85.789062 32.992188 84.9375 33.550781 84 33.535156 Z M 124.949219 108.054688 C 123.800781 110.085938 124.292969 112.648438 126.117188 114.101562 L 88.574219 136.152344 C 88.273438 133.855469 86.324219 132.132812 84.003906 132.117188 C 81.6875 132.132812 79.738281 133.855469 79.4375 136.152344 L 41.882812 114.101562 C 43.699219 112.644531 44.1875 110.085938 43.039062 108.0625 C 41.914062 106.042969 39.460938 105.179688 37.320312 106.050781 L 37.320312 61.949219 C 39.460938 62.816406 41.910156 61.957031 43.035156 59.945312 C 44.183594 57.925781 43.703125 55.367188 41.894531 53.90625 L 79.4375 31.855469 C 79.738281 34.15625 81.6875 35.878906 84.003906 35.894531 C 86.324219 35.878906 88.277344 34.152344 88.574219 31.851562 L 126.128906 53.902344 L 126.125 53.902344 C 124.3125 55.359375 123.824219 57.914062 124.972656 59.9375 C 126.09375 61.957031 128.546875 62.820312 130.6875 61.949219 L 130.6875 106.023438 C 128.539062 105.152344 126.078125 106.023438 124.957031 108.054688 Z M 92.859375 101.296875 L 92.863281 101.296875 C 88.78125 103.695312 83.957031 104.492188 79.324219 103.527344 C 74.695312 102.5625 70.585938 99.90625 67.804688 96.082031 L 92.574219 81.570312 L 101.015625 76.613281 L 105.015625 74.25 L 105.246094 74.140625 L 122.257812 64.132812 C 123.308594 63.519531 123.675781 62.152344 123.078125 61.082031 L 123.074219 61.082031 C 122.796875 60.5625 122.320312 60.183594 121.75 60.027344 C 121.179688 59.875 120.574219 59.960938 120.074219 60.269531 L 107.570312 67.644531 L 107.566406 67.644531 C 102.753906 60.449219 95.023438 55.726562 86.421875 54.730469 L 86.421875 40.402344 C 86.425781 39.796875 86.191406 39.210938 85.765625 38.777344 C 85.339844 38.347656 84.757812 38.097656 84.152344 38.09375 C 83.542969 38.097656 82.960938 38.34375 82.535156 38.777344 C 82.109375 39.210938 81.875 39.796875 81.878906 40.402344 L 81.878906 54.601562 C 77.214844 54.828125 72.671875 56.1875 68.648438 58.558594 C 65.015625 60.6875 61.878906 63.5625 59.441406 66.996094 L 47.972656 60.269531 C 47.46875 59.972656 46.867188 59.894531 46.304688 60.050781 C 45.738281 60.203125 45.261719 60.578125 44.976562 61.089844 C 44.375 62.152344 44.730469 63.503906 45.78125 64.132812 L 57.15625 70.820312 L 57.15625 70.824219 C 54.722656 75.699219 53.652344 81.144531 54.058594 86.582031 L 55.113281 92.589844 C 55.585938 94.21875 56.179688 95.804688 56.902344 97.332031 L 45.78125 103.867188 C 44.722656 104.5 44.371094 105.859375 44.980469 106.925781 C 45.269531 107.4375 45.75 107.8125 46.316406 107.964844 C 46.882812 108.117188 47.484375 108.035156 47.992188 107.742188 L 59.160156 101.199219 L 59.15625 101.199219 C 64.335938 108.761719 72.714844 113.507812 81.863281 114.0625 L 81.863281 127.597656 C 81.863281 128.875 82.882812 129.90625 84.136719 129.90625 C 84.742188 129.902344 85.324219 129.652344 85.75 129.222656 C 86.175781 128.789062 86.410156 128.203125 86.40625 127.597656 L 86.40625 113.945312 C 90.488281 113.527344 94.433594 112.21875 97.960938 110.113281 C 101.9375 107.75 105.292969 104.46875 107.75 100.546875 L 120.019531 107.730469 C 121.070312 108.328125 122.390625 107.957031 122.996094 106.894531 C 123.601562 105.835938 123.257812 104.488281 122.21875 103.851562 L 109.871094 96.605469 C 109.902344 96.539062 109.976562 96.457031 109.976562 96.375 C 113.726562 87.742188 103.691406 84.039062 101.460938 90.683594 C 99.972656 95.144531 96.914062 98.917969 92.855469 101.296875 Z M 130.09375 108.421875 C 131.191406 109.082031 131.5625 110.496094 130.933594 111.609375 C 130.636719 112.140625 130.136719 112.53125 129.550781 112.691406 C 128.960938 112.851562 128.332031 112.769531 127.804688 112.460938 C 126.707031 111.804688 126.335938 110.390625 126.964844 109.277344 C 127.261719 108.746094 127.761719 108.351562 128.351562 108.191406 C 128.9375 108.03125 129.566406 108.113281 130.09375 108.421875 Z M 64.488281 87.082031 C 64.261719 78.332031 65.300781 72.222656 73.589844 67.351562 L 73.59375 67.351562 C 76.941406 65.382812 80.8125 64.484375 84.6875 64.78125 C 88.558594 65.078125 92.246094 66.554688 95.257812 69.011719 L 64.492188 87.082031 Z M 64.488281 87.082031 "/>
</g>
</svg>
