<?xml version="1.0" encoding="UTF-8"?>
<svg xmlns="http://www.w3.org/2000/svg" xmlns:xlink="http://www.w3.org/1999/xlink" width="168pt" height="168pt" viewBox="0 0 168 168" version="1.1">
<g id="surface1886">
<path style=" stroke:none;fill-rule:evenodd;fill:rgb(16.862745%,8.235294%,26.666667%);fill-opacity:1;" d="M 168 84 C 168 130.390625 130.390625 168 84 168 C 37.609375 168 0 130.390625 0 84 C 0 37.609375 37.609375 0 84 0 C 130.390625 0 168 37.609375 168 84 "/>
<path style=" stroke:none;fill-rule:nonzero;fill:rgb(100%,100%,100%);fill-opacity:1;" d="M 131.199219 65.636719 L 131.199219 100.582031 C 131.199219 102.136719 131.277344 103.722656 130.925781 105.25 L 130.925781 105.246094 C 130.128906 108.78125 128.296875 112 125.664062 114.488281 C 124.425781 115.679688 122.882812 116.453125 121.40625 117.324219 C 111.394531 123.152344 101.414062 128.996094 91.40625 134.832031 C 88.351562 136.464844 84.738281 136.742188 81.347656 136.324219 L 81.347656 136.320312 C 79.578125 136.105469 77.867188 135.546875 76.308594 134.671875 C 65.773438 128.53125 55.234375 122.371094 44.703125 116.234375 C 42.128906 114.800781 40.210938 112.4375 38.796875 109.898438 C 37.640625 107.695312 36.796875 105.269531 36.796875 102.742188 L 36.796875 65.015625 C 36.992188 61.339844 38.617188 57.859375 40.933594 55.082031 C 41.871094 53.910156 43.007812 52.90625 44.289062 52.121094 C 54.082031 46.417969 63.871094 40.695312 73.65625 34.972656 C 75.269531 34.082031 76.796875 32.988281 78.539062 32.390625 C 81.488281 31.472656 84.617188 31.296875 87.648438 31.878906 C 88.996094 32.257812 90.375 32.65625 91.585938 33.371094 C 102.242188 39.625 112.917969 45.828125 123.570312 52.085938 C 126.410156 53.765625 128.496094 56.574219 129.847656 59.574219 C 130.703125 61.464844 131.195312 63.546875 131.195312 65.636719 Z M 83.6875 52.636719 L 83.683594 52.636719 C 81.421875 55.988281 78.804688 59.085938 75.878906 61.875 C 74.347656 63.328125 72.871094 64.898438 71.992188 66.847656 C 71.289062 68.222656 70.816406 69.789062 71.015625 71.363281 C 71.25 73.484375 72.765625 75.351562 74.726562 76.109375 C 76.722656 76.90625 78.980469 76.730469 80.964844 75.953125 C 81.324219 75.792969 81.71875 75.738281 82.105469 75.792969 C 81.71875 78.28125 80.203125 80.382812 79.007812 82.527344 L 79.058594 82.882812 C 80.140625 84.039062 81.28125 85.128906 82.355469 86.265625 C 82.628906 86.523438 82.878906 86.878906 83.257812 87 C 84.511719 86.027344 85.496094 84.753906 86.648438 83.683594 C 86.90625 83.390625 87.4375 83.070312 87.15625 82.613281 C 86.039062 80.511719 84.800781 78.386719 84.445312 75.960938 C 84.65625 75.46875 85.25 75.882812 85.601562 76.003906 C 87.464844 76.917969 89.71875 77.054688 91.664062 76.304688 C 94.316406 75.292969 95.964844 72.1875 95.371094 69.386719 C 94.917969 66.867188 93.585938 64.558594 91.78125 62.792969 C 89 59.933594 86.328125 56.875 84.425781 53.335938 L 84.429688 53.335938 C 84.292969 53.003906 84.023438 52.75 83.683594 52.636719 Z M 64.613281 86.8125 C 61.464844 88.523438 59.359375 91.878906 58.839844 95.445312 C 58.121094 100.449219 61.042969 105.675781 65.574219 107.726562 C 68.441406 108.960938 71.769531 108.933594 74.65625 107.804688 C 76.148438 107.207031 77.421875 106.230469 78.519531 105.078125 C 78.933594 104.636719 79.539062 104.242188 79.539062 103.566406 C 79.488281 102.890625 78.878906 102.515625 78.484375 102.054688 C 77.96875 101.597656 77.558594 101.003906 76.972656 100.640625 C 76.027344 100.226562 75.460938 101.261719 74.851562 101.773438 C 72.460938 104.199219 68.164062 104.21875 65.714844 101.851562 L 65.714844 101.855469 C 64.113281 100.347656 63.367188 98.144531 63.730469 95.976562 C 64.023438 93.964844 65.222656 92.058594 67.007812 91.105469 C 68.164062 90.527344 69.460938 90.214844 70.734375 90.269531 C 72.535156 90.386719 74.183594 91.339844 75.402344 92.652344 C 79.558594 96.789062 83.5625 101.078125 87.703125 105.230469 C 89.898438 107.398438 92.9375 108.789062 96.035156 108.667969 C 98.398438 108.71875 100.671875 107.777344 102.59375 106.441406 C 105.421875 104.472656 107.144531 101.054688 107.320312 97.601562 C 107.699219 92.132812 103.734375 86.613281 98.394531 85.558594 C 94.988281 84.867188 91.140625 85.578125 88.515625 88.003906 C 86.648438 89.703125 84.945312 91.617188 83.097656 93.363281 C 81.191406 91.792969 79.683594 89.808594 77.820312 88.203125 L 77.816406 88.207031 C 77.019531 87.449219 76.09375 86.84375 75.085938 86.414062 C 74.898438 86.292969 74.832031 86.234375 74.582031 86.136719 C 71.339844 84.757812 67.636719 85.011719 64.613281 86.8125 Z M 91.058594 92.335938 C 92.417969 90.980469 94.339844 90.1875 96.257812 90.347656 C 98.335938 90.40625 100.351562 91.519531 101.457031 93.308594 C 103.179688 95.933594 102.675781 99.707031 100.460938 101.871094 C 98.183594 104.082031 94.277344 104.359375 91.824219 102.269531 C 90.003906 100.722656 88.476562 98.871094 86.730469 97.246094 C 86.710938 97.128906 86.6875 96.910156 86.667969 96.808594 C 88.121094 95.296875 89.609375 93.847656 91.0625 92.335938 Z M 91.058594 92.335938 "/>
</g>
</svg>
