<?xml version="1.0" encoding="UTF-8"?>
<svg xmlns="http://www.w3.org/2000/svg" xmlns:xlink="http://www.w3.org/1999/xlink" width="168pt" height="168pt" viewBox="0 0 168 168" version="1.1">
<g id="surface1356">
<path style=" stroke:none;fill-rule:evenodd;fill:rgb(14.117647%,14.117647%,14.117647%);fill-opacity:1;" d="M 168 84 C 168 130.390625 130.390625 168 84 168 C 37.609375 168 0 130.390625 0 84 C 0 37.609375 37.609375 0 84 0 C 130.390625 0 168 37.609375 168 84 "/>
<path style=" stroke:none;fill-rule:nonzero;fill:rgb(100%,100%,100%);fill-opacity:1;" d="M 68.566406 125.339844 L 82.652344 111.179688 L 96.796875 125.339844 L 87.773438 134.378906 L 87.769531 134.378906 C 86.414062 135.738281 84.570312 136.503906 82.652344 136.503906 C 80.730469 136.503906 78.886719 135.738281 77.53125 134.378906 Z M 105.054688 76.820312 L 90.921875 62.660156 L 105.058594 48.5 L 119.191406 62.660156 Z M 101.542969 120.726562 L 87.40625 106.566406 L 125.363281 68.546875 L 134.382812 77.582031 C 137.210938 80.417969 137.210938 85 134.382812 87.835938 Z M 62.675781 119.265625 L 48.542969 105.105469 L 86.4375 67.148438 L 100.570312 81.308594 Z M 42.609375 99.316406 L 33.585938 90.277344 L 33.585938 90.273438 C 30.777344 87.421875 30.808594 82.839844 33.652344 80.027344 L 42.671875 70.988281 L 56.808594 85.152344 Z M 99.136719 42.675781 L 61.179688 80.675781 L 47.039062 66.515625 L 79.878906 33.617188 L 79.878906 33.621094 C 81.234375 32.261719 83.078125 31.496094 84.996094 31.496094 C 86.917969 31.496094 88.761719 32.261719 90.117188 33.621094 Z M 99.136719 42.675781 "/>
</g>
</svg>
