<?xml version="1.0" encoding="UTF-8"?>
<svg xmlns="http://www.w3.org/2000/svg" xmlns:xlink="http://www.w3.org/1999/xlink" width="168pt" height="168pt" viewBox="0 0 168 168" version="1.1">
<g id="surface2360">
<path style=" stroke:none;fill-rule:nonzero;fill:rgb(5.882353%,67.45098%,95.294118%);fill-opacity:1;" d="M 168 84 C 168 130.390625 130.390625 168 84 168 C 37.609375 168 0 130.390625 0 84 C 0 37.609375 37.609375 0 84 0 C 130.390625 0 168 37.609375 168 84 "/>
<path style=" stroke:none;fill-rule:nonzero;fill:rgb(100%,100%,100%);fill-opacity:1;" d="M 49.722656 47.335938 L 78.242188 47.335938 C 89.550781 47.335938 95.167969 46.980469 103.601562 47.75 C 112.039062 48.640625 120.476562 52.085938 125.933594 58.6875 C 132.363281 66.351562 134.246094 76.695312 133.820312 86.316406 C 133.398438 95.886719 130.117188 105.925781 122.597656 112.460938 C 115.925781 118.46875 106.585938 120.667969 97.722656 120.722656 C 80.492188 120.78125 63.320312 120.722656 46.089844 120.722656 C 44.210938 120.601562 42.085938 120.78125 40.628906 119.472656 C 38.082031 116.921875 39.601562 111.449219 43.664062 111.6875 C 53.25 111.394531 62.894531 111.6875 72.488281 111.507812 C 72.304688 103.429688 72.425781 95.347656 72.425781 87.328125 C 65.023438 87.265625 57.679688 87.328125 50.28125 87.328125 C 48.636719 87.265625 46.816406 87.265625 45.546875 86.195312 C 44.03125 84.832031 44.03125 82.515625 44.695312 80.734375 C 45.546875 78.769531 47.851562 78.414062 49.792969 78.414062 C 57.316406 78.351562 64.902344 78.414062 72.421875 78.414062 C 72.546875 71.042969 72.304688 63.671875 72.546875 56.363281 C 64.109375 56.304688 55.679688 56.363281 47.242188 56.363281 C 45.363281 56.304688 43.242188 56.304688 41.78125 55 C 40.269531 53.035156 40.574219 50.242188 41.84375 48.28125 C 44.269531 47.09375 47.0625 47.335938 49.730469 47.335938 Z M 82.976562 78.414062 C 86.429688 78.472656 89.890625 78.171875 93.351562 78.648438 C 97.476562 79.242188 97.476562 86.492188 93.289062 87.085938 C 89.890625 87.621094 86.375 87.265625 82.914062 87.328125 C 82.976562 94.335938 82.914062 101.292969 82.914062 108.300781 C 82.976562 109.492188 83.035156 111.273438 84.550781 111.394531 C 88.675781 111.75 92.269531 111.628906 96.929688 111.628906 C 103.84375 111.929688 111.125 109.792969 115.976562 104.734375 C 120.953125 99.449219 122.773438 92.082031 122.894531 85.0625 C 123.078125 77.28125 121.617188 68.722656 115.910156 62.898438 C 110.761719 57.667969 102.996094 55.890625 95.769531 56.304688 C 91.652344 56.304688 88.125 56.183594 84.304688 56.539062 C 83.09375 56.894531 83.027344 58.382812 82.972656 59.453125 L 82.972656 78.40625 Z M 82.976562 78.414062 "/>
</g>
</svg>
