<?xml version="1.0" encoding="UTF-8"?>
<svg xmlns="http://www.w3.org/2000/svg" xmlns:xlink="http://www.w3.org/1999/xlink" width="168pt" height="168pt" viewBox="0 0 168 168" version="1.1">
<g id="surface876">
<path style=" stroke:none;fill-rule:evenodd;fill:rgb(24.705882%,72.941176%,87.45098%);fill-opacity:1;" d="M 168 84 C 168 130.390625 130.390625 168 84 168 C 37.609375 168 0 130.390625 0 84 C 0 37.609375 37.609375 0 84 0 C 130.390625 0 168 37.609375 168 84 "/>
<path style=" stroke:none;fill-rule:nonzero;fill:rgb(100%,100%,100%);fill-opacity:0.4;" d="M 57.75 116.125 L 84 101.320312 L 84 130.902344 Z M 57.75 68.875 L 84 54.070312 L 84 83.652344 Z M 57.75 68.875 "/>
<path style=" stroke:none;fill-rule:nonzero;fill:rgb(100%,100%,100%);fill-opacity:0.7;" d="M 136.5 100.957031 L 110.25 116.109375 L 110.25 86.257812 Z M 136.5 53.707031 L 110.25 68.859375 L 110.25 39.007812 Z M 136.5 53.707031 "/>
<path style=" stroke:none;fill-rule:nonzero;fill:rgb(100%,100%,100%);fill-opacity:0.8;" d="M 57.75 116.109375 L 57.75 86.273438 L 84 101.339844 Z M 57.75 68.859375 L 57.75 39.023438 L 84 54.089844 Z M 57.75 68.859375 "/>
<path style=" stroke:none;fill-rule:nonzero;fill:rgb(100%,100%,100%);fill-opacity:1;" d="M 110.25 116.109375 L 84 101.347656 L 110.25 86.257812 Z M 110.25 68.859375 L 84 54.097656 L 110.25 39.007812 Z M 110.25 68.859375 "/>
<path style=" stroke:none;fill-rule:nonzero;fill:rgb(100%,100%,100%);fill-opacity:0.6;" d="M 110.25 116.109375 L 84 130.902344 L 84 101.34375 L 110.25 116.105469 Z M 110.25 68.859375 L 84 83.652344 L 84 54.09375 L 110.25 68.855469 Z M 110.25 68.859375 "/>
<path style=" stroke:none;fill-rule:nonzero;fill:rgb(100%,100%,100%);fill-opacity:0.5;" d="M 57.75 86.273438 L 57.75 116.109375 L 31.5 100.964844 Z M 57.75 39.023438 L 57.75 68.859375 L 31.5 53.714844 Z M 57.75 39.023438 "/>
</g>
</svg>
