<?xml version="1.0" encoding="UTF-8"?>
<svg xmlns="http://www.w3.org/2000/svg" xmlns:xlink="http://www.w3.org/1999/xlink" width="168pt" height="168pt" viewBox="0 0 168 168" version="1.1">
<g id="surface1256">
<path style=" stroke:none;fill-rule:evenodd;fill:rgb(16.862745%,36.862745%,73.333333%);fill-opacity:1;" d="M 168 84 C 168 130.390625 130.390625 168 84 168 C 37.609375 168 0 130.390625 0 84 C 0 37.609375 37.609375 0 84 0 C 130.390625 0 168 37.609375 168 84 "/>
<path style=" stroke:none;fill-rule:evenodd;fill:rgb(100%,100%,100%);fill-opacity:1;" d="M 136.5 83.800781 C 136.496094 96.066406 126.996094 105.628906 114.859375 105.59375 C 102.972656 105.558594 93.324219 95.730469 93.386719 83.722656 C 93.449219 71.722656 103.203125 61.933594 115.027344 62.015625 C 127.097656 62.09375 136.503906 71.644531 136.5 83.804688 Z M 47.722656 125.578125 C 43.484375 125.582031 39.421875 123.890625 36.441406 120.875 C 33.460938 117.863281 31.8125 113.785156 31.863281 109.546875 C 31.890625 100.589844 38.894531 93.351562 47.699219 93.554688 C 50.230469 93.613281 52.769531 94.558594 55.238281 95.328125 C 58.746094 96.425781 62.167969 97.785156 65.664062 98.929688 C 67.832031 99.644531 69.90625 99.140625 71.824219 97.953125 C 74.605469 96.21875 76.96875 94.132812 78.476562 91.066406 C 80 87.949219 83.464844 86.789062 86.546875 88.109375 C 89.402344 89.335938 90.886719 92.449219 90.0625 95.476562 C 89.132812 98.875 86.335938 100.699219 82.847656 100.089844 C 79.753906 99.550781 76.6875 98.550781 73.550781 99.691406 C 67.933594 101.734375 65.464844 106.386719 63.617188 111.691406 C 62.609375 114.59375 61.539062 117.644531 59.730469 120.039062 C 56.832031 123.902344 52.570312 125.597656 47.722656 125.578125 Z M 47.386719 42.429688 C 54.5625 42.429688 60.15625 46.628906 62.589844 53.542969 C 63.554688 56.273438 65.003906 58.828125 66.242188 61.460938 C 69.304688 67.972656 76.984375 68.613281 81.855469 66.832031 C 86.171875 65.257812 90.328125 68.027344 90.429688 72.503906 C 90.496094 75.601562 88.90625 77.859375 86 78.773438 C 83.425781 79.570312 80.53125 78.484375 78.953125 76.136719 C 78.390625 75.296875 77.867188 74.425781 77.242188 73.632812 C 72.957031 68.226562 68.203125 66.808594 61.753906 69.234375 C 59.507812 70.074219 57.402344 71.335938 55.292969 72.503906 C 51.4375 74.699219 46.835938 75.175781 42.613281 73.820312 C 38.386719 72.46875 34.921875 69.402344 33.066406 65.371094 C 28.046875 54.714844 35.710938 42.429688 47.386719 42.429688 Z M 97.417969 125.945312 C 97.355469 131.820312 92.5625 136.601562 86.839844 136.496094 C 81.3125 136.390625 76.691406 131.628906 76.550781 126.273438 C 76.398438 120.214844 80.851562 115.285156 87.039062 115.226562 C 92.960938 115.167969 97.488281 120.050781 97.421875 125.9375 Z M 76.617188 42.105469 C 76.617188 36.164062 81.269531 31.449219 87.089844 31.5 C 92.75 31.550781 97.484375 36.398438 97.4375 42.09375 C 97.394531 48.085938 92.910156 52.886719 87.011719 52.777344 C 80.296875 52.652344 76.34375 47.238281 76.617188 42.105469 Z M 76.617188 42.105469 "/>
</g>
</svg>
