<?xml version="1.0" encoding="UTF-8"?>
<svg xmlns="http://www.w3.org/2000/svg" xmlns:xlink="http://www.w3.org/1999/xlink" width="168pt" height="168pt" viewBox="0 0 168 168" version="1.1">
<g id="surface156">
<path style=" stroke:none;fill-rule:nonzero;fill:rgb(0%,67.843137%,92.941176%);fill-opacity:1;" d="M 168 84 C 168 130.390625 130.390625 168 84 168 C 37.609375 168 0 130.390625 0 84 C 0 37.609375 37.609375 0 84 0 C 130.390625 0 168 37.609375 168 84 "/>
<path style=" stroke:none;fill-rule:nonzero;fill:rgb(100%,100%,100%);fill-opacity:1;" d="M 53.007812 123.914062 L 53.019531 123.894531 L 69.757812 83.910156 L 53.011719 43.929688 L 83.90625 83.910156 L 53.03125 123.890625 Z M 114.832031 123.914062 L 114.8125 123.886719 L 83.9375 83.90625 L 114.832031 43.925781 L 98.085938 83.90625 L 114.824219 123.890625 Z M 114.832031 123.914062 "/>
<path style=" stroke:none;fill-rule:nonzero;fill:rgb(100%,100%,100%);fill-opacity:0.8;" d="M 83.921875 83.914062 L 83.921875 111.769531 L 53 123.898438 L 83.921875 83.894531 L 83.921875 56.039062 L 114.84375 43.910156 Z M 83.921875 83.914062 "/>
<path style=" stroke:none;fill-rule:nonzero;fill:rgb(100%,100%,100%);fill-opacity:0.5;" d="M 83.921875 111.773438 L 83.921875 136.191406 L 53 123.886719 L 83.921875 111.734375 L 83.921875 83.917969 L 53 43.914062 L 83.921875 56.042969 L 83.921875 31.621094 L 114.84375 43.921875 L 83.921875 56.074219 L 83.921875 83.894531 L 114.84375 123.898438 Z M 83.921875 111.773438 "/>
<path style=" stroke:none;fill-rule:nonzero;fill:rgb(100%,100%,100%);fill-opacity:0.145;" d="M 53 43.921875 L 83.921875 31.621094 L 83.921875 56.074219 Z M 114.84375 123.882812 L 83.921875 136.1875 L 83.921875 111.726562 Z M 114.84375 123.882812 "/>
</g>
</svg>
