<?xml version="1.0" encoding="UTF-8"?>
<svg xmlns="http://www.w3.org/2000/svg" xmlns:xlink="http://www.w3.org/1999/xlink" width="168pt" height="168pt" viewBox="0 0 168 168" version="1.1">
<g id="surface1896">
<path style=" stroke:none;fill-rule:evenodd;fill:rgb(22.352941%,41.568627%,15.686275%);fill-opacity:1;" d="M 168 84 C 168 130.390625 130.390625 168 84 168 C 37.609375 168 0 130.390625 0 84 C 0 37.609375 37.609375 0 84 0 C 130.390625 0 168 37.609375 168 84 "/>
<path style=" stroke:none;fill-rule:evenodd;fill:rgb(100%,100%,100%);fill-opacity:1;" d="M 94.882812 69.363281 L 84 58.484375 L 73.042969 69.4375 L 61.683594 58.078125 L 84 26.25 L 106.46875 57.777344 Z M 69.246094 73.238281 L 58.484375 84 L 69.363281 94.882812 L 58.042969 106.203125 L 26.25 84 L 57.699219 61.6875 Z M 98.5625 94.957031 L 109.515625 84 L 98.679688 73.164062 L 110.367188 61.476562 L 141.75 84 L 110.019531 106.414062 Z M 73.164062 98.683594 L 84 109.515625 L 94.761719 98.753906 L 106.21875 110.214844 L 84 141.75 L 61.929688 109.914062 Z M 84 65.765625 L 102.226562 84 L 84 102.226562 L 65.773438 84 Z M 84 65.765625 "/>
</g>
</svg>
