<?xml version="1.0" encoding="UTF-8"?>
<svg xmlns="http://www.w3.org/2000/svg" xmlns:xlink="http://www.w3.org/1999/xlink" width="168pt" height="168pt" viewBox="0 0 168 168" version="1.1">
<g id="surface1126">
<path style=" stroke:none;fill-rule:nonzero;fill:rgb(96.470588%,75.294118%,32.941176%);fill-opacity:1;" d="M 168 84 C 168 130.390625 130.390625 168 84 168 C 37.609375 168 0 130.390625 0 84 C 0 37.609375 37.609375 0 84 0 C 130.390625 0 168 37.609375 168 84 "/>
<path style=" stroke:none;fill-rule:nonzero;fill:rgb(100%,100%,100%);fill-opacity:1;" d="M 140.816406 81.730469 L 86.269531 27.183594 C 85.671875 26.585938 84.859375 26.246094 84.011719 26.246094 C 83.164062 26.246094 82.351562 26.585938 81.753906 27.183594 L 27.195312 81.738281 C 26.59375 82.335938 26.257812 83.148438 26.257812 83.996094 C 26.257812 84.84375 26.59375 85.652344 27.195312 86.253906 L 81.742188 140.816406 C 82.339844 141.414062 83.152344 141.75 83.996094 141.75 C 84.84375 141.75 85.65625 141.414062 86.253906 140.816406 L 140.800781 86.273438 C 141.40625 85.675781 141.753906 84.863281 141.757812 84.007812 C 141.761719 83.15625 141.421875 82.339844 140.820312 81.738281 Z M 128.824219 84.460938 L 88.839844 124.445312 L 88.839844 84 L 79.136719 84 L 79.136719 124.445312 L 39.152344 84.460938 L 39.15625 84.460938 C 39.03125 84.34375 38.964844 84.179688 38.964844 84.011719 C 38.964844 83.839844 39.03125 83.675781 39.15625 83.558594 L 83.539062 39.179688 C 83.65625 39.058594 83.820312 38.988281 83.988281 38.988281 C 84.160156 38.988281 84.324219 39.058594 84.441406 39.179688 L 128.824219 83.558594 C 128.945312 83.675781 129.015625 83.839844 129.015625 84.011719 C 129.015625 84.179688 128.945312 84.34375 128.824219 84.460938 C 128.824219 84.441406 128.824219 84.441406 128.824219 84.460938 Z M 128.824219 84.460938 "/>
</g>
</svg>
