<?xml version="1.0" encoding="UTF-8"?>
<svg xmlns="http://www.w3.org/2000/svg" xmlns:xlink="http://www.w3.org/1999/xlink" width="168pt" height="168pt" viewBox="0 0 168 168" version="1.1">
<g id="surface2019">
<path style=" stroke:none;fill-rule:nonzero;fill:rgb(0%,80%,100%);fill-opacity:1;" d="M 168 84 C 168 130.390625 130.390625 168 84 168 C 37.609375 168 0 130.390625 0 84 C 0 37.609375 37.609375 0 84 0 C 130.390625 0 168 37.609375 168 84 "/>
<path style=" stroke:none;fill-rule:nonzero;fill:rgb(100%,100%,100%);fill-opacity:0.4;" d="M 41.445312 100.59375 L 64.53125 100.59375 L 54.589844 120.75 L 31.5 120.75 Z M 54.597656 73.921875 L 77.6875 73.921875 L 67.777344 94.027344 L 44.675781 94.027344 L 54.597656 73.917969 Z M 67.753906 47.25 L 90.84375 47.25 L 80.925781 67.359375 L 57.839844 67.359375 L 67.75 47.25 Z M 67.753906 47.25 "/>
<path style=" stroke:none;fill-rule:nonzero;fill:rgb(100%,100%,100%);fill-opacity:0.6;" d="M 64.453125 100.589844 L 87.542969 100.589844 L 77.597656 120.738281 L 54.507812 120.738281 L 64.453125 100.582031 Z M 77.609375 73.917969 L 100.695312 73.917969 L 90.785156 94.015625 L 67.695312 94.015625 L 77.613281 73.917969 Z M 90.761719 47.25 L 113.851562 47.25 L 103.933594 67.351562 L 80.851562 67.351562 Z M 90.761719 47.25 "/>
<path style=" stroke:none;fill-rule:nonzero;fill:rgb(100%,100%,100%);fill-opacity:1;" d="M 87.097656 100.589844 L 110.1875 100.589844 L 100.25 120.738281 L 77.160156 120.738281 L 87.105469 100.582031 Z M 100.253906 73.917969 L 123.34375 73.917969 L 113.433594 94.015625 L 90.34375 94.015625 Z M 113.410156 47.25 L 136.5 47.25 L 126.582031 67.351562 L 103.496094 67.351562 Z M 113.410156 47.25 "/>
</g>
</svg>
