<?xml version="1.0" encoding="UTF-8"?>
<svg xmlns="http://www.w3.org/2000/svg" xmlns:xlink="http://www.w3.org/1999/xlink" width="168pt" height="168pt" viewBox="0 0 168 168" version="1.1">
<g id="surface416">
<path style=" stroke:none;fill-rule:evenodd;fill:rgb(18.431373%,18.431373%,18.431373%);fill-opacity:1;" d="M 168 84 C 168 130.390625 130.390625 168 84 168 C 37.609375 168 0 130.390625 0 84 C 0 37.609375 37.609375 0 84 0 C 130.390625 0 168 37.609375 168 84 "/>
<path style=" stroke:none;fill-rule:evenodd;fill:rgb(100%,100%,100%);fill-opacity:1;" d="M 132.03125 54.046875 C 132.628906 54.363281 134 55.105469 133.867188 56.730469 L 133.78125 111.417969 L 133.785156 111.421875 C 133.863281 112.476562 133.269531 113.46875 132.300781 113.898438 L 120.226562 120.949219 L 110.671875 126.523438 L 85.242188 141.371094 L 85.238281 141.371094 C 84.917969 141.617188 84.519531 141.75 84.117188 141.75 C 83.605469 141.734375 83.105469 141.574219 82.683594 141.289062 L 65.136719 131.167969 C 55.394531 125.546875 45.3125 119.726562 35.378906 114.015625 C 34.542969 113.613281 34.054688 112.671875 34.128906 111.601562 L 34.164062 97.152344 C 34.195312 84.152344 34.214844 70.949219 34.226562 58.179688 L 34.226562 58.128906 L 34.230469 58.128906 C 34.238281 58.039062 34.238281 57.953125 34.234375 57.867188 L 34.234375 57.703125 C 34.214844 56.996094 34.183594 55.539062 35.546875 54.882812 C 41.113281 51.558594 46.804688 48.183594 52.308594 44.917969 L 61.429688 39.511719 C 68.371094 35.402344 75.4375 31.207031 82.273438 27.148438 L 82.324219 27.117188 C 82.773438 26.859375 83.238281 26.640625 83.722656 26.460938 L 84.261719 26.25 L 84.765625 26.550781 C 89.730469 29.429688 94.78125 32.367188 99.660156 35.214844 L 108.773438 40.515625 L 117.671875 45.691406 L 131.671875 53.839844 L 131.683594 53.839844 L 131.695312 53.851562 L 132.03125 54.050781 Z M 85.992188 136.3125 L 101.542969 127.230469 L 101.546875 127.234375 C 110.976562 121.738281 120.402344 116.238281 129.828125 110.734375 L 129.878906 80.027344 L 129.90625 59.734375 L 109.695312 71.558594 L 109.695312 80.882812 C 109.671875 86.699219 109.679688 92.519531 109.726562 98.335938 L 109.726562 98.734375 L 109.492188 99.058594 L 109.488281 99.0625 C 109.230469 99.410156 108.902344 99.695312 108.523438 99.902344 L 108.386719 99.988281 L 108.382812 99.988281 L 101.851562 103.792969 C 99.488281 105.15625 97.046875 106.574219 94.660156 107.976562 L 86.027344 112.992188 Z M 63.964844 70.402344 C 68.378906 72.941406 72.796875 75.472656 77.21875 78 L 84.066406 81.933594 L 103.894531 70.339844 L 84.035156 58.621094 Z M 61.917969 73.816406 L 62.289062 96.859375 L 82.070312 108.382812 L 82.101562 85.394531 Z M 38.1875 60.199219 L 38.085938 110.992188 L 82.050781 136.351562 L 82.066406 112.984375 L 73.457031 107.96875 L 68.058594 104.824219 C 65.292969 103.21875 62.429688 101.554688 59.621094 99.910156 C 58.808594 99.527344 58.296875 98.59375 58.355469 97.570312 L 57.929688 71.535156 Z M 127.929688 56.28125 L 120.21875 51.789062 L 111.703125 46.828125 C 103.597656 42.125 93.984375 36.539062 84.066406 30.730469 L 84.066406 30.726562 C 74.023438 36.664062 63.984375 42.609375 53.953125 48.5625 L 40.167969 56.738281 L 60.003906 68.105469 L 82.757812 54.746094 L 82.753906 54.742188 C 83.558594 54.222656 84.597656 54.246094 85.378906 54.792969 L 107.828125 68.027344 Z M 86.023438 108.398438 L 86.027344 108.398438 C 92.65625 104.53125 99.292969 100.675781 105.933594 96.824219 L 105.933594 73.761719 L 86.042969 85.386719 Z M 112.941406 104.234375 C 112.746094 104.292969 112.539062 104.324219 112.335938 104.324219 C 111.769531 104.332031 111.230469 104.109375 110.832031 103.707031 C 110.1875 103.128906 109.898438 102.25 110.070312 101.398438 C 110.253906 100.269531 111.21875 99.4375 112.359375 99.417969 C 113.003906 99.417969 113.636719 99.710938 114.09375 100.222656 L 114.097656 100.234375 C 114.742188 100.957031 114.902344 101.992188 114.507812 102.878906 C 114.238281 103.558594 113.65625 104.0625 112.941406 104.234375 Z M 123.777344 111.625 C 123.15625 111.140625 122.816406 110.375 122.875 109.589844 C 122.917969 108.753906 123.347656 108.015625 124.039062 107.59375 L 124.042969 107.59375 C 124.386719 107.371094 124.785156 107.25 125.195312 107.246094 C 125.648438 107.246094 126.085938 107.386719 126.476562 107.648438 L 126.476562 107.652344 C 127.273438 108.171875 127.6875 109.113281 127.539062 110.050781 C 127.394531 111.246094 126.386719 112.148438 125.179688 112.15625 C 124.664062 112.152344 124.167969 111.964844 123.777344 111.625 Z M 54.535156 99.445312 C 55.191406 99.445312 55.816406 99.746094 56.25 100.265625 L 56.253906 100.265625 C 56.890625 100.976562 57.050781 101.996094 56.65625 102.867188 C 56.296875 103.75 55.429688 104.324219 54.472656 104.308594 C 53.761719 104.28125 53.101562 103.9375 52.664062 103.375 C 52.230469 102.8125 52.070312 102.082031 52.226562 101.386719 C 52.445312 100.277344 53.40625 99.46875 54.535156 99.445312 Z M 117.304688 107.71875 C 116.628906 107.152344 116.304688 106.265625 116.460938 105.394531 C 116.636719 104.246094 117.601562 103.386719 118.761719 103.347656 C 119.339844 103.347656 119.894531 103.578125 120.335938 103.988281 C 121.003906 104.609375 121.28125 105.503906 121.058594 106.34375 C 120.910156 107.148438 120.347656 107.808594 119.578125 108.085938 C 118.8125 108.386719 117.941406 108.246094 117.304688 107.71875 Z M 49.554688 103.921875 C 50.253906 104.5 50.578125 105.417969 50.398438 106.269531 C 50.285156 107.042969 49.78125 107.707031 49.066406 108.023438 L 49.0625 108.023438 C 48.75 108.171875 48.410156 108.25 48.0625 108.253906 C 47.652344 108.25 47.246094 108.128906 46.898438 107.910156 C 46.101562 107.410156 45.660156 106.5 45.757812 105.566406 C 45.816406 104.644531 46.410156 103.839844 47.277344 103.515625 C 47.535156 103.402344 47.808594 103.347656 48.089844 103.347656 C 48.613281 103.347656 49.125 103.546875 49.554688 103.925781 Z M 83.730469 32.375 C 84.414062 32.375 85.058594 32.667969 85.515625 33.183594 C 86.078125 33.777344 86.289062 34.601562 86.078125 35.386719 L 86.078125 35.390625 C 85.871094 36.324219 85.105469 37.03125 84.15625 37.164062 L 84.128906 37.164062 L 84.132812 37.164062 C 83.160156 37.355469 82.167969 36.9375 81.632812 36.105469 C 81.179688 35.410156 81.128906 34.527344 81.492188 33.785156 L 81.496094 33.773438 C 81.839844 33.035156 82.535156 32.523438 83.34375 32.414062 C 83.472656 32.390625 83.605469 32.378906 83.738281 32.375 Z M 42.789062 107.574219 C 43.550781 108.003906 44.011719 108.78125 44.007812 109.621094 L 44.003906 109.621094 C 44.050781 110.480469 43.628906 111.300781 42.898438 111.761719 C 42.515625 112.011719 42.070312 112.144531 41.617188 112.152344 C 41.242188 112.152344 40.871094 112.054688 40.546875 111.867188 C 39.769531 111.4375 39.292969 110.613281 39.308594 109.726562 C 39.308594 108.816406 39.777344 107.992188 40.519531 107.574219 C 41.21875 107.152344 42.089844 107.152344 42.789062 107.574219 Z M 85 48.328125 L 84.996094 48.328125 C 85.753906 48.796875 86.1875 49.644531 86.125 50.53125 C 86.066406 51.410156 85.511719 52.183594 84.699219 52.519531 C 84.367188 52.671875 84.011719 52.75 83.648438 52.753906 C 83.109375 52.757812 82.585938 52.578125 82.164062 52.246094 C 81.503906 51.761719 81.152344 50.96875 81.226562 50.152344 C 81.273438 49.347656 81.738281 48.621094 82.453125 48.242188 C 82.8125 48.035156 83.222656 47.925781 83.636719 47.925781 C 84.121094 47.925781 84.59375 48.066406 85.003906 48.328125 Z M 82.007812 44.347656 L 82.003906 44.347656 C 81.445312 43.855469 81.15625 43.125 81.226562 42.382812 L 81.226562 42.367188 C 81.296875 41.605469 81.722656 40.917969 82.378906 40.519531 C 82.757812 40.265625 83.203125 40.132812 83.660156 40.136719 C 84.082031 40.136719 84.5 40.246094 84.882812 40.453125 L 84.886719 40.457031 C 85.671875 40.878906 86.152344 41.710938 86.125 42.605469 C 86.117188 43.546875 85.550781 44.390625 84.683594 44.757812 C 84.351562 44.90625 83.996094 44.984375 83.632812 44.988281 C 83.027344 44.996094 82.441406 44.765625 82.003906 44.347656 Z M 82.007812 44.347656 "/>
</g>
</svg>
