<?xml version="1.0" encoding="UTF-8"?>
<svg xmlns="http://www.w3.org/2000/svg" xmlns:xlink="http://www.w3.org/1999/xlink" width="168pt" height="168pt" viewBox="0 0 168 168" version="1.1">
<g id="surface2024">
<path style=" stroke:none;fill-rule:nonzero;fill:rgb(38.431373%,30.196078%,74.901961%);fill-opacity:1;" d="M 168 84 C 168 130.390625 130.390625 168 84 168 C 37.609375 168 0 130.390625 0 84 C 0 37.609375 37.609375 0 84 0 C 130.390625 0 168 37.609375 168 84 "/>
<path style=" stroke:none;fill-rule:nonzero;fill:rgb(100%,100%,100%);fill-opacity:1;" d="M 117.144531 47.25 C 119.738281 47.550781 122.363281 47.710938 124.925781 48.175781 C 130.003906 49.136719 131.660156 51.550781 130.800781 56.449219 C 130.453125 58.433594 129.171875 59.65625 127.136719 59.988281 L 127.132812 59.988281 C 125.917969 60.15625 124.695312 60.246094 123.46875 60.25 C 106.808594 60.285156 90.117188 60.316406 73.457031 60.386719 C 70.9375 60.386719 68.441406 60.617188 65.992188 61.015625 C 57.730469 62.308594 54.621094 65.582031 53.925781 73.550781 C 53.609375 77.292969 53.609375 77.292969 57.523438 77.292969 L 125.921875 77.292969 C 127 77.324219 128.03125 77.523438 128.929688 78.082031 C 131.976562 79.941406 131.214844 82.847656 131.039062 85.53125 C 130.902344 87.683594 129.554688 88.871094 127.238281 89.300781 C 126.265625 89.453125 125.28125 89.519531 124.300781 89.503906 L 56.101562 89.503906 C 53.582031 89.503906 53.617188 89.503906 53.824219 91.886719 C 53.996094 94.070312 54.140625 96.222656 54.691406 98.339844 C 55.726562 102.277344 58.25 104.722656 62.332031 105.816406 C 66.859375 107.039062 71.523438 107.308594 76.191406 107.339844 C 92.464844 107.441406 108.714844 107.40625 124.996094 107.40625 C 127.070312 107.40625 129 107.667969 130.214844 109.492188 C 132.566406 113 130.734375 117.890625 126.617188 119.152344 C 123.09375 120.246094 119.394531 120.507812 115.730469 120.542969 C 100.453125 120.804688 85.175781 120.84375 69.898438 120.542969 L 69.894531 120.539062 C 65.183594 120.417969 60.488281 119.898438 55.867188 118.984375 C 44.980469 116.832031 39.550781 111.539062 37.71875 101.082031 C 37.304688 98.667969 37.0625 96.21875 36.753906 93.800781 L 36.753906 74.710938 C 36.964844 72.820312 37.132812 70.941406 37.378906 69.089844 C 38.828125 57.242188 44.363281 51.417969 56.527344 48.839844 C 60.847656 47.910156 65.269531 47.710938 69.625 47.28125 C 85.417969 47.25 101.273438 47.25 117.144531 47.25 Z M 117.144531 47.25 "/>
</g>
</svg>
