<?xml version="1.0" encoding="UTF-8"?>
<svg xmlns="http://www.w3.org/2000/svg" xmlns:xlink="http://www.w3.org/1999/xlink" width="168pt" height="168pt" viewBox="0 0 168 168" version="1.1">
<g id="surface1566">
<path style=" stroke:none;fill-rule:nonzero;fill:rgb(98.039216%,34.509804%,21.176471%);fill-opacity:1;" d="M 168 84 C 168 130.390625 130.390625 168 84 168 C 37.609375 168 0 130.390625 0 84 C 0 37.609375 37.609375 0 84 0 C 130.390625 0 168 37.609375 168 84 "/>
<path style=" stroke:none;fill-rule:nonzero;fill:rgb(99.607843%,100%,100%);fill-opacity:1;" d="M 77.371094 23.636719 C 76.804688 23.714844 74.613281 24.125 72.507812 24.445312 C 60.757812 26.429688 49.90625 32.183594 40.914062 41.214844 C 31.882812 50.207031 26.371094 60.617188 24.0625 73.015625 C 23.011719 78.648438 23.011719 89.664062 24.0625 95.296875 C 26.371094 107.6875 31.886719 118.097656 40.914062 127.089844 C 49.90625 136.121094 60.3125 141.632812 72.707031 143.941406 C 78.339844 144.992188 89.355469 144.992188 94.988281 143.941406 C 107.378906 141.632812 117.792969 136.117188 126.789062 127.089844 C 135.820312 118.097656 141.332031 107.691406 143.640625 95.296875 C 144.691406 89.664062 144.691406 78.648438 143.640625 73.015625 C 141.332031 60.625 135.816406 50.210938 126.789062 41.214844 C 117.996094 32.382812 108.074219 26.996094 96.046875 24.574219 C 92.320312 23.800781 79.925781 23.195312 77.371094 23.640625 Z M 99 45.109375 C 99.484375 45.308594 99.644531 45.914062 99.644531 47.535156 L 99.644531 49.722656 L 97.09375 49.722656 C 93.855469 49.722656 91.304688 50.933594 90.246094 52.960938 C 89.558594 54.257812 89.515625 55.839844 89.515625 75.039062 C 89.515625 86.378906 89.359375 95.898438 89.195312 96.179688 C 88.34375 97.476562 82.109375 97.84375 79.308594 96.746094 L 78.175781 96.300781 L 78.175781 75.363281 C 78.175781 55.832031 78.132812 54.257812 77.445312 52.960938 C 76.394531 50.933594 73.839844 49.722656 70.597656 49.722656 L 68.046875 49.722656 L 68.046875 47.535156 C 68.046875 46.160156 68.25 45.265625 68.570312 45.144531 C 69.304688 44.820312 98.222656 44.820312 98.992188 45.101562 Z M 75.746094 61.992188 L 75.746094 66.980469 L 74.570312 67.664062 C 72.832031 68.683594 69.914062 71.71875 68.742188 73.703125 L 68.742188 73.699219 C 68.03125 75 67.460938 76.375 67.039062 77.792969 L 66.394531 80.101562 L 61.738281 80.101562 C 56.429688 80.101562 56.59375 80.300781 57.726562 75.847656 C 59.144531 70.457031 62.589844 64.984375 66.757812 61.667969 C 69.066406 59.804688 74.171875 57.007812 75.183594 57.007812 C 75.628906 57.007812 75.75 58.0625 75.75 61.996094 Z M 95.835938 58.433594 L 95.839844 58.433594 C 102.839844 61.929688 107.992188 68.277344 109.976562 75.847656 C 111.109375 80.304688 111.273438 80.101562 105.964844 80.101562 L 101.308594 80.101562 L 100.65625 77.792969 L 100.660156 77.789062 C 100.238281 76.371094 99.667969 75 98.957031 73.699219 C 97.78125 71.714844 94.863281 68.679688 93.125 67.660156 L 91.949219 66.976562 L 91.949219 61.988281 C 91.949219 58.0625 92.070312 57.007812 92.515625 57.007812 C 92.800781 57.007812 94.300781 57.660156 95.839844 58.425781 Z M 66.429688 83.910156 C 66.429688 85.8125 67.683594 89.699219 68.980469 91.726562 C 75.90625 102.699219 91.78125 102.699219 98.710938 91.726562 C 100.007812 89.699219 101.261719 85.808594 101.261719 83.902344 L 101.261719 82.527344 L 110.941406 82.527344 L 110.738281 84.632812 C 109.726562 94.476562 104.296875 102.417969 95.792969 106.628906 C 91.867188 108.570312 88.421875 109.386719 83.84375 109.386719 C 69.667969 109.386719 58.449219 99.054688 56.949219 84.632812 L 56.75 82.53125 L 66.429688 82.53125 Z M 89.71875 113.195312 C 90.242188 116.03125 93.164062 117.773438 97.535156 117.773438 L 99.640625 117.773438 L 99.640625 122.226562 L 68.046875 122.226562 L 68.046875 117.890625 L 71.003906 117.691406 C 72.910156 117.570312 74.449219 117.207031 75.296875 116.71875 C 76.558594 115.988281 78.175781 113.558594 78.175781 112.425781 C 78.175781 112.023438 79.472656 111.902344 83.804688 111.902344 L 89.476562 111.902344 L 89.722656 113.199219 Z M 89.71875 113.195312 "/>
</g>
</svg>
