<?xml version="1.0" encoding="UTF-8"?>
<svg xmlns="http://www.w3.org/2000/svg" xmlns:xlink="http://www.w3.org/1999/xlink" width="168pt" height="168pt" viewBox="0 0 168 168" version="1.1">
<g id="surface1994">
<path style=" stroke:none;fill-rule:nonzero;fill:rgb(26.666667%,24.705882%,32.941176%);fill-opacity:1;" d="M 168 84 C 168 130.390625 130.390625 168 84 168 C 37.609375 168 0 130.390625 0 84 C 0 37.609375 37.609375 0 84 0 C 130.390625 0 168 37.609375 168 84 "/>
<path style=" stroke:none;fill-rule:nonzero;fill:rgb(99.607843%,100%,99.607843%);fill-opacity:0.7;" d="M 81.417969 140.21875 C 73.984375 135.691406 64.9375 130.203125 57.507812 125.675781 C 54.273438 123.738281 50.726562 121.800781 47.492188 119.539062 C 46.199219 118.574219 46.199219 117.601562 46.199219 116.957031 C 49.429688 101.773438 52.980469 85.300781 56.542969 70.429688 L 54.273438 63.328125 C 54.273438 63.328125 46.523438 100.476562 42.644531 116.957031 C 42 119.214844 42.644531 120.511719 44.902344 121.804688 C 57.503906 129.234375 83.027344 145.386719 83.027344 145.386719 L 81.414062 140.222656 Z M 87.554688 140.21875 C 94.984375 135.691406 104.027344 130.203125 111.464844 125.675781 C 114.695312 123.738281 118.246094 121.800781 121.476562 119.539062 C 122.773438 118.574219 122.773438 117.601562 122.773438 116.957031 C 119.539062 101.773438 115.984375 85.300781 112.429688 70.429688 L 115.019531 63.648438 C 115.019531 63.648438 122.773438 100.476562 126.328125 116.957031 C 126.972656 119.214844 126.328125 120.511719 124.066406 121.804688 C 111.464844 129.234375 85.941406 145.386719 85.941406 145.386719 L 87.558594 140.222656 Z M 112.109375 63.972656 L 110.816406 62.03125 L 58.472656 62.03125 L 57.179688 63.972656 C 57.179688 63.972656 58.152344 66.554688 57.824219 65.585938 L 111.777344 65.585938 C 111.132812 66.230469 112.101562 63.972656 112.101562 63.972656 Z M 112.109375 63.972656 "/>
<path style=" stroke:none;fill-rule:nonzero;fill:rgb(99.607843%,100%,99.607843%);fill-opacity:1;" d="M 113.726562 61.058594 C 113.726562 61.058594 95.953125 35.222656 88.199219 23.914062 C 86.582031 21.972656 85.617188 21.003906 84.644531 21.003906 C 83.671875 21.003906 82.386719 21.976562 81.089844 23.914062 C 73.335938 34.898438 55.570312 61.066406 55.570312 61.066406 C 53.953125 63.324219 53.953125 63.976562 55.246094 66.878906 C 55.246094 66.878906 67.847656 101.777344 73.015625 117.277344 C 75.597656 124.386719 82.382812 144.738281 82.382812 144.738281 C 82.707031 145.382812 84 145.710938 84.644531 145.710938 L 84.644531 145.714844 C 85.492188 145.675781 86.292969 145.328125 86.902344 144.742188 C 86.902344 144.742188 94.015625 124.386719 96.273438 117.285156 C 101.445312 102.097656 114.042969 66.886719 114.042969 66.886719 C 115.335938 63.976562 115.335938 63.332031 113.722656 61.070312 Z M 84.648438 134.074219 L 84.644531 134.074219 C 76.417969 110.613281 68.230469 87.136719 60.089844 63.644531 C 60.089844 63.644531 77.535156 38.125 84.324219 28.101562 C 91.105469 38.125 108.554688 63.644531 108.554688 63.644531 C 108.554688 63.644531 92.074219 112.101562 84.644531 134.074219 Z M 84.648438 134.074219 "/>
</g>
</svg>
