<?xml version="1.0" encoding="UTF-8"?>
<svg xmlns="http://www.w3.org/2000/svg" xmlns:xlink="http://www.w3.org/1999/xlink" width="168pt" height="168pt" viewBox="0 0 168 168" version="1.1">
<g id="surface2232">
<path style=" stroke:none;fill-rule:nonzero;fill:rgb(0%,0%,0%);fill-opacity:1;" d="M 168 84 C 168 130.390625 130.390625 168 84 168 C 37.609375 168 0 130.390625 0 84 C 0 37.609375 37.609375 0 84 0 C 130.390625 0 168 37.609375 168 84 "/>
<path style="fill:none;stroke-width:0.64;stroke-linecap:round;stroke-linejoin:round;stroke:rgb(100%,100%,100%);stroke-opacity:1;stroke-miterlimit:4;" d="M 10.886161 11.610119 L 16 27.666667 L 8.412202 22.912946 L 10.886161 11.610119 L 16 4.624256 L 16 9.524554 L 8.412202 22.912946 L 23.595238 22.912946 L 16.006696 9.52381 L 16.006696 4.623512 L 21.119792 11.609375 L 23.594494 22.912202 L 16.006696 27.665923 L 21.119792 11.610119 " transform="matrix(5.25,0,0,5.25,0,0)"/>
</g>
</svg>
