<?xml version="1.0" encoding="UTF-8"?>
<svg xmlns="http://www.w3.org/2000/svg" xmlns:xlink="http://www.w3.org/1999/xlink" width="168pt" height="168pt" viewBox="0 0 168 168" version="1.1">
<g id="surface1376">
<path style=" stroke:none;fill-rule:nonzero;fill:rgb(78.823529%,63.921569%,36.862745%);fill-opacity:1;" d="M 168 84 C 168 130.390625 130.390625 168 84 168 C 37.609375 168 0 130.390625 0 84 C 0 37.609375 37.609375 0 84 0 C 130.390625 0 168 37.609375 168 84 "/>
<path style=" stroke:none;fill-rule:nonzero;fill:rgb(100%,100%,100%);fill-opacity:1;" d="M 52.640625 101.746094 C 52.316406 102.417969 51.636719 102.847656 50.886719 102.847656 L 29.503906 102.847656 C 28.824219 102.84375 28.195312 102.480469 27.851562 101.890625 C 27.484375 101.296875 27.464844 100.550781 27.796875 99.9375 L 66.667969 29.871094 C 67.367188 28.617188 69.371094 28.617188 70.070312 29.871094 L 100.375 84.355469 C 100.683594 84.976562 100.664062 85.707031 100.320312 86.308594 C 99.996094 86.914062 99.355469 87.28125 98.667969 87.261719 L 89.804688 87.261719 C 89.105469 87.25 88.457031 86.871094 88.105469 86.261719 L 68.417969 50.457031 L 46.390625 91.171875 L 54.800781 91.171875 C 55.464844 91.175781 56.085938 91.511719 56.453125 92.070312 C 56.808594 92.644531 56.847656 93.363281 56.554688 93.976562 L 52.648438 101.734375 Z M 140.179688 99.941406 L 140.179688 99.9375 C 140.539062 100.546875 140.519531 101.304688 140.128906 101.890625 C 139.800781 102.496094 139.164062 102.863281 138.480469 102.84375 L 80.136719 102.84375 C 79.058594 102.84375 78.183594 101.96875 78.183594 100.890625 L 78.183594 93.136719 C 78.183594 92.035156 79.082031 91.183594 80.136719 91.183594 L 121.652344 91.183594 L 99.664062 50.609375 L 95.507812 58.921875 C 94.808594 60.222656 92.65625 60.222656 92.007812 58.921875 L 88.101562 51.164062 L 88.101562 51.160156 C 87.847656 50.605469 87.847656 49.964844 88.101562 49.40625 L 97.8125 29.929688 C 98.15625 29.304688 98.800781 28.90625 99.515625 28.875 C 100.234375 28.875 100.898438 29.253906 101.265625 29.871094 L 140.179688 99.9375 Z M 114.890625 107.699219 L 124.550781 125.230469 L 124.550781 125.226562 C 124.902344 125.832031 124.902344 126.578125 124.550781 127.179688 C 124.226562 127.785156 123.585938 128.152344 122.902344 128.132812 L 45.082031 128.132812 C 44.378906 128.121094 43.730469 127.742188 43.375 127.132812 C 43.039062 126.519531 43.058594 125.769531 43.429688 125.175781 L 59 99.886719 L 74.523438 72.691406 C 74.875 72.046875 75.574219 71.640625 76.277344 71.695312 C 77.003906 71.675781 77.671875 72.085938 77.984375 72.742188 L 81.890625 80.507812 C 82.199219 81.09375 82.179688 81.796875 81.835938 82.363281 L 62.105469 116.414062 L 105.875 116.414062 L 101.816406 109.652344 L 101.820312 109.652344 C 101.425781 109.066406 101.40625 108.304688 101.765625 107.699219 C 102.121094 107.089844 102.765625 106.710938 103.472656 106.699219 L 113.183594 106.699219 C 113.886719 106.699219 114.539062 107.097656 114.890625 107.695312 Z M 114.890625 107.699219 "/>
</g>
</svg>
