<?xml version="1.0" encoding="UTF-8"?>
<svg xmlns="http://www.w3.org/2000/svg" xmlns:xlink="http://www.w3.org/1999/xlink" width="168pt" height="168pt" viewBox="0 0 168 168" version="1.1">
<g id="surface2330">
<path style=" stroke:none;fill-rule:nonzero;fill:rgb(96.470588%,53.72549%,13.333333%);fill-opacity:1;" d="M 168 84 C 168 130.390625 130.390625 168 84 168 C 37.609375 168 0 130.390625 0 84 C 0 37.609375 37.609375 0 84 0 C 130.390625 0 168 37.609375 168 84 "/>
<path style=" stroke:none;fill-rule:nonzero;fill:rgb(100%,100%,100%);fill-opacity:1;" d="M 87.78125 52.910156 C 87.78125 52.910156 66.113281 56.089844 62.960938 80.171875 C 62.960938 80.171875 59.613281 107.125 87.152344 114.402344 L 87.148438 114.402344 C 89.058594 114.902344 91.019531 115.15625 92.992188 115.152344 L 94.347656 115.152344 C 97.152344 115.152344 99.839844 116.277344 101.824219 118.269531 C 103.808594 120.265625 104.921875 122.972656 104.921875 125.796875 L 104.921875 125.800781 C 104.960938 131.347656 100.707031 135.980469 95.175781 136.414062 C 81.636719 137.328125 63.464844 130.679688 51.675781 114.699219 C 51.675781 114.699219 28.582031 81.492188 53.75 50.980469 L 53.75 50.984375 C 59.6875 43.730469 67.433594 38.167969 76.203125 34.855469 C 86.546875 30.984375 101.695312 28.496094 114.847656 38.824219 C 114.847656 38.824219 132.449219 52.457031 123.425781 74.71875 C 123.425781 74.71875 117.105469 92.4375 95.441406 93.800781 L 92.433594 93.632812 L 92.4375 93.632812 C 89.554688 93.558594 86.84375 92.234375 85.011719 90.007812 C 83.171875 87.769531 82.382812 84.847656 82.84375 81.988281 C 83.59375 77.253906 87.597656 73.71875 92.390625 73.5625 L 95.445312 73.351562 C 95.445312 73.351562 105.824219 72.898438 104.921875 60.628906 C 104.921875 60.628906 104.019531 49.726562 87.773438 52.910156 "/>
</g>
</svg>
