<?xml version="1.0" encoding="UTF-8"?>
<svg xmlns="http://www.w3.org/2000/svg" xmlns:xlink="http://www.w3.org/1999/xlink" width="168pt" height="168pt" viewBox="0 0 168 168" version="1.1">
<g id="surface566">
<path style=" stroke:none;fill-rule:evenodd;fill:rgb(19.607843%,51.372549%,19.607843%);fill-opacity:1;" d="M 168 84 C 168 130.390625 130.390625 168 84 168 C 37.609375 168 0 130.390625 0 84 C 0 37.609375 37.609375 0 84 0 C 130.390625 0 168 37.609375 168 84 "/>
<path style=" stroke:none;fill-rule:nonzero;fill:rgb(100%,100%,100%);fill-opacity:1;" d="M 83.941406 86.902344 L 48.65625 83.875 L 83.9375 63.914062 L 83.9375 86.902344 Z M 83.941406 110.316406 L 83.941406 146.75 C 71.671875 127.652344 58.148438 106.632812 47.25 89.617188 C 60.113281 96.863281 73.542969 104.4375 83.941406 110.324219 Z M 83.941406 57.460938 L 47.25 77.9375 L 83.941406 21 Z M 83.941406 57.460938 "/>
<path style=" stroke:none;fill-rule:nonzero;fill:rgb(100%,100%,100%);fill-opacity:0.601;" d="M 119.226562 83.875 L 83.941406 86.902344 L 83.941406 63.914062 L 119.222656 83.875 Z M 83.941406 110.324219 C 94.335938 104.445312 107.761719 96.863281 120.628906 89.617188 C 109.730469 106.636719 96.207031 127.660156 83.941406 146.746094 L 83.941406 110.320312 Z M 83.941406 57.460938 L 83.941406 21 L 120.628906 77.9375 Z M 83.941406 57.460938 "/>
<path style=" stroke:none;fill-rule:evenodd;fill:rgb(100%,100%,100%);fill-opacity:0.2;" d="M 83.941406 86.902344 L 119.222656 83.875 L 83.941406 103.695312 Z M 83.941406 86.902344 "/>
<path style=" stroke:none;fill-rule:evenodd;fill:rgb(100%,100%,100%);fill-opacity:0.603;" d="M 83.9375 86.902344 L 48.652344 83.875 L 83.9375 103.695312 Z M 83.9375 86.902344 "/>
</g>
</svg>
