<?xml version="1.0" encoding="UTF-8"?>
<svg xmlns="http://www.w3.org/2000/svg" xmlns:xlink="http://www.w3.org/1999/xlink" width="168pt" height="168pt" viewBox="0 0 168 168" version="1.1">
<g id="surface506">
<path style=" stroke:none;fill-rule:nonzero;fill:rgb(0%,100%,72.941176%);fill-opacity:1;" d="M 168 84 C 168 130.390625 130.390625 168 84 168 C 37.609375 168 0 130.390625 0 84 C 0 37.609375 37.609375 0 84 0 C 130.390625 0 168 37.609375 168 84 "/>
<path style=" stroke:none;fill-rule:nonzero;fill:rgb(100%,100%,100%);fill-opacity:1;" d="M 57.074219 57.246094 C 54.101562 60.289062 53.675781 65 56.054688 68.523438 C 57.710938 71.015625 60.515625 72.507812 63.507812 72.492188 C 69.855469 72.492188 74.996094 77.640625 74.996094 83.984375 C 74.996094 90.328125 69.847656 95.472656 63.503906 95.472656 C 55.003906 95.472656 46.851562 92.089844 40.855469 86.070312 C 34.855469 80.046875 31.503906 71.882812 31.539062 63.382812 C 31.578125 54.882812 35 46.746094 41.050781 40.777344 C 46.703125 35.1875 54.234375 31.90625 62.175781 31.574219 C 70.121094 31.242188 77.902344 33.882812 84 38.980469 C 76.734375 45.054688 72.539062 54.042969 72.542969 63.515625 C 72.542969 69.835938 77.644531 74.96875 83.964844 75.007812 C 80.914062 75.007812 77.992188 73.796875 75.839844 71.640625 C 73.683594 69.484375 72.476562 66.5625 72.476562 63.515625 C 72.484375 61.726562 71.953125 59.980469 70.953125 58.5 C 69.976562 57.054688 68.601562 55.917969 66.996094 55.234375 C 64.761719 54.300781 62.246094 54.300781 60.011719 55.234375 C 58.910156 55.703125 57.910156 56.386719 57.074219 57.246094 Z M 133.933594 92.042969 C 136.375 97.832031 137.058594 104.210938 135.898438 110.382812 C 134.738281 116.558594 131.789062 122.253906 127.414062 126.761719 C 121.472656 132.882812 113.328125 136.375 104.800781 136.457031 C 96.269531 136.539062 88.0625 133.207031 82.003906 127.199219 C 75.945312 121.195312 72.542969 113.015625 72.550781 104.484375 C 72.484375 101.398438 73.664062 98.414062 75.824219 96.203125 C 77.984375 93.996094 80.945312 92.753906 84.035156 92.753906 C 87.125 92.753906 90.082031 93.996094 92.242188 96.203125 C 94.402344 98.414062 95.585938 101.398438 95.519531 104.484375 C 95.5 108.101562 97.667969 111.371094 101.003906 112.765625 C 103.261719 113.710938 105.796875 113.699219 108.042969 112.738281 L 108.046875 112.738281 C 110.191406 111.808594 111.898438 110.082031 112.796875 107.917969 C 114.664062 103.359375 112.519531 98.144531 107.988281 96.210938 C 106.882812 95.742188 105.695312 95.503906 104.496094 95.507812 C 98.152344 95.507812 93.007812 90.363281 93.007812 84.019531 C 93.007812 77.671875 98.152344 72.527344 104.496094 72.527344 C 110.777344 72.523438 116.921875 74.375 122.15625 77.847656 C 127.390625 81.316406 131.484375 86.253906 133.925781 92.042969 Z M 133.933594 92.042969 "/>
<path style=" stroke:none;fill-rule:nonzero;fill:rgb(100%,100%,100%);fill-opacity:0.7;" d="M 83.96875 93 C 90.3125 93 95.457031 98.144531 95.457031 104.488281 L 95.457031 104.484375 C 95.460938 113.027344 92.042969 121.21875 85.96875 127.226562 C 79.890625 133.230469 71.664062 136.554688 63.121094 136.449219 C 54.578125 136.347656 46.433594 132.824219 40.503906 126.671875 C 34.664062 120.621094 31.449219 112.511719 31.550781 104.101562 C 31.648438 95.695312 35.0625 87.664062 41.042969 81.753906 C 47.023438 75.84375 55.09375 72.527344 63.503906 72.527344 C 69.847656 72.527344 74.992188 77.671875 74.992188 84.019531 C 74.992188 90.363281 69.847656 95.507812 63.503906 95.507812 C 61.71875 95.503906 59.976562 96.03125 58.496094 97.03125 C 57.046875 98.007812 55.914062 99.386719 55.230469 100.996094 C 53.835938 104.308594 54.550781 108.132812 57.046875 110.71875 L 57.046875 110.730469 L 57.046875 110.726562 C 60.066406 113.863281 64.90625 114.375 68.511719 111.933594 C 71 110.273438 72.488281 107.472656 72.476562 104.480469 C 72.476562 98.144531 77.621094 93 83.96875 93 Z M 132.929688 48.921875 L 132.929688 48.917969 C 138.007812 58.828125 137.566406 70.667969 131.761719 80.171875 C 125.957031 89.671875 115.625 95.472656 104.492188 95.476562 C 98.144531 95.476562 93 90.332031 93 83.984375 C 93 77.636719 98.144531 72.492188 104.492188 72.492188 C 108.101562 72.496094 111.367188 70.332031 112.769531 67.003906 C 113.792969 64.558594 113.6875 61.789062 112.488281 59.425781 C 111.324219 57.132812 109.230469 55.449219 106.742188 54.808594 C 104.253906 54.164062 101.609375 54.621094 99.480469 56.066406 C 96.992188 57.726562 95.5 60.527344 95.511719 63.519531 C 95.578125 66.609375 94.398438 69.59375 92.234375 71.800781 C 90.074219 74.007812 87.117188 75.25 84.027344 75.25 C 80.9375 75.25 77.976562 74.003906 75.816406 71.796875 C 73.65625 69.589844 72.476562 66.601562 72.542969 63.515625 C 72.539062 55.578125 75.492188 47.921875 80.820312 42.039062 C 86.152344 36.15625 93.484375 32.472656 101.382812 31.699219 C 109.285156 30.925781 117.191406 33.125 123.558594 37.863281 L 123.578125 37.878906 C 127.496094 40.796875 130.691406 44.574219 132.925781 48.917969 Z M 132.929688 48.921875 "/>
</g>
</svg>
