<?xml version="1.0" encoding="UTF-8"?>
<svg xmlns="http://www.w3.org/2000/svg" xmlns:xlink="http://www.w3.org/1999/xlink" width="168pt" height="168pt" viewBox="0 0 168 168" version="1.1">
<g id="surface1391">
<path style=" stroke:none;fill-rule:nonzero;fill:rgb(13.72549%,74.509804%,88.627451%);fill-opacity:1;" d="M 168 84 C 168 130.390625 130.390625 168 84 168 C 37.609375 168 0 130.390625 0 84 C 0 37.609375 37.609375 0 84 0 C 130.390625 0 168 37.609375 168 84 "/>
<path style=" stroke:none;fill-rule:nonzero;fill:rgb(100%,100%,100%);fill-opacity:1;" d="M 104.363281 70.710938 L 121.367188 52.796875 L 121.371094 52.800781 C 128.6875 61.535156 132.691406 72.574219 132.671875 83.972656 C 132.671875 110.835938 110.882812 132.621094 84 132.621094 C 75.796875 132.628906 67.726562 130.558594 60.542969 126.597656 L 103.792969 104.304688 L 110.839844 100.671875 L 104.3125 96.164062 L 99.652344 92.941406 L 113.25 86 L 120.011719 82.546875 L 113.953125 77.96875 L 104.367188 70.714844 Z M 63.632812 99.765625 L 47.777344 116.460938 L 47.78125 116.460938 C 39.75 107.546875 35.3125 95.972656 35.328125 83.972656 C 35.328125 57.101562 57.117188 35.320312 84 35.320312 C 93.109375 35.308594 102.035156 37.863281 109.757812 42.691406 L 64.207031 66.167969 L 57.160156 69.804688 L 63.6875 74.308594 L 68.347656 77.53125 L 54.75 84.476562 L 47.988281 87.925781 L 54.046875 92.507812 L 63.632812 99.757812 Z M 44.8125 119.59375 L 41.53125 123.046875 L 41.53125 123.050781 C 31.699219 112.414062 26.238281 98.460938 26.25 83.972656 C 26.25 52.144531 52.160156 26.25 84 26.25 C 97.089844 26.25 109.179688 30.628906 118.875 37.996094 L 114.140625 40.4375 L 114.140625 40.433594 C 105.292969 34.285156 94.773438 30.996094 84 31.007812 C 54.785156 31.007812 31.011719 54.769531 31.011719 83.976562 C 31.011719 97.679688 36.242188 110.179688 44.820312 119.59375 Z M 124.339844 49.664062 L 127.636719 46.199219 C 136.75 56.671875 141.765625 70.089844 141.75 83.972656 C 141.75 115.796875 115.839844 141.691406 84 141.691406 C 72.265625 141.707031 60.808594 138.125 51.171875 131.433594 L 56.023438 128.929688 C 64.410156 134.171875 74.109375 136.945312 84 136.9375 C 113.214844 136.9375 136.988281 113.175781 136.988281 83.976562 C 136.988281 70.902344 132.226562 58.921875 124.339844 49.671875 Z M 56.921875 88.726562 L 77.613281 78.160156 L 66.394531 70.410156 L 128.503906 38.394531 L 97.25 71.300781 L 111.082031 81.765625 L 90.390625 92.332031 L 101.609375 100.082031 L 39.5 132.097656 L 70.753906 99.191406 Z M 56.921875 88.726562 "/>
</g>
</svg>
