<?xml version="1.0" encoding="UTF-8"?>
<svg xmlns="http://www.w3.org/2000/svg" xmlns:xlink="http://www.w3.org/1999/xlink" width="168pt" height="168pt" viewBox="0 0 168 168" version="1.1">
<g id="surface1">
<path style=" stroke:none;fill-rule:evenodd;fill:rgb(0%,64.705882%,100%);fill-opacity:1;" d="M 168 84 C 168 130.390625 130.390625 168 84 168 C 37.609375 168 0 130.390625 0 84 C 0 37.609375 37.609375 0 84 0 C 130.390625 0 168 37.609375 168 84 "/>
<path style=" stroke:none;fill-rule:evenodd;fill:rgb(100%,100%,100%);fill-opacity:1;" d="M 94.921875 66.011719 C 94.90625 70.699219 94.875 75.382812 94.871094 80.066406 C 94.867188 87.855469 94.855469 95.652344 94.890625 103.445312 C 94.890625 104.390625 94.628906 104.953125 93.804688 105.449219 C 90.601562 107.375 87.453125 109.386719 84.070312 111.503906 L 84.070312 109.796875 C 84.070312 97.738281 84.054688 85.671875 84.089844 73.613281 C 84.09375 72.609375 83.828125 72.042969 82.925781 71.554688 C 80.117188 70.03125 77.371094 68.394531 74.597656 66.808594 C 74.292969 66.636719 73.96875 66.492188 73.5 66.261719 L 73.5 67.914062 C 73.5 78.722656 73.480469 89.535156 73.53125 100.339844 C 73.53125 101.425781 73.183594 101.992188 72.269531 102.503906 C 69.511719 104.027344 66.820312 105.652344 64.09375 107.238281 C 63.710938 107.457031 63.304688 107.652344 62.695312 107.972656 L 62.695312 106.292969 C 62.695312 95.4375 62.667969 84.578125 62.730469 73.726562 C 62.734375 72.464844 62.308594 71.835938 61.261719 71.257812 C 58.195312 69.546875 55.1875 67.730469 52 65.867188 C 55.527344 63.835938 58.917969 61.863281 62.347656 59.964844 C 62.664062 59.792969 63.320312 60.015625 63.710938 60.242188 C 66.699219 61.921875 69.675781 63.617188 72.621094 65.367188 C 73.335938 65.789062 73.855469 65.839844 74.601562 65.382812 C 77.320312 63.71875 80.136719 62.191406 82.84375 60.5 C 83.820312 59.890625 84.523438 59.992188 85.453125 60.546875 C 88.585938 62.421875 91.773438 64.222656 94.945312 66.042969 L 94.914062 66.007812 Z M 94.953125 66.046875 C 95.183594 65.804688 95.382812 65.496094 95.660156 65.332031 C 98.617188 63.609375 101.570312 61.878906 104.578125 60.25 L 104.578125 60.253906 C 105.167969 59.996094 105.839844 60.003906 106.421875 60.269531 C 109.476562 61.914062 112.492188 63.636719 115.46875 65.410156 C 115.878906 65.652344 116.289062 66.292969 116.289062 66.75 C 116.335938 78.105469 116.332031 89.464844 116.308594 100.824219 C 116.308594 101.191406 116.214844 101.769531 115.96875 101.917969 C 112.566406 103.945312 109.128906 105.914062 105.480469 108.023438 L 105.480469 106.296875 C 105.480469 95.355469 105.46875 84.414062 105.5 73.480469 C 105.5 72.550781 105.28125 71.988281 104.40625 71.511719 C 101.214844 69.738281 98.074219 67.859375 94.917969 66.019531 L 94.949219 66.054688 Z M 36.429688 98.636719 C 34.441406 98.660156 32.527344 97.890625 31.109375 96.5 C 29.691406 95.105469 28.886719 93.207031 28.875 91.21875 C 28.855469 89.230469 29.632812 87.316406 31.03125 85.902344 C 32.433594 84.488281 34.339844 83.695312 36.328125 83.695312 C 38.320312 83.664062 40.238281 84.433594 41.65625 85.828125 C 43.074219 87.222656 43.875 89.128906 43.878906 91.117188 C 43.902344 93.109375 43.125 95.023438 41.726562 96.4375 C 40.328125 97.847656 38.417969 98.640625 36.429688 98.636719 Z M 46.484375 121.144531 C 42.589844 121.175781 39.398438 118.054688 39.34375 114.160156 C 39.335938 110.269531 42.445312 107.082031 46.335938 107 C 50.140625 106.914062 53.433594 110.148438 53.476562 114.019531 C 53.503906 117.914062 50.378906 121.101562 46.484375 121.144531 Z M 40.777344 59.84375 C 44.558594 59.855469 47.59375 62.890625 47.59375 66.640625 C 47.59375 70.457031 44.484375 73.527344 40.664062 73.488281 L 40.660156 73.488281 C 38.855469 73.476562 37.128906 72.742188 35.871094 71.445312 C 34.613281 70.152344 33.929688 68.40625 33.96875 66.601562 C 33.949219 64.796875 34.664062 63.058594 35.945312 61.785156 C 37.226562 60.511719 38.96875 59.8125 40.777344 59.84375 Z M 132.769531 85.601562 L 132.765625 85.601562 C 129.246094 85.601562 126.386719 82.746094 126.386719 79.222656 C 126.386719 75.699219 129.246094 72.84375 132.765625 72.84375 C 136.289062 72.84375 139.144531 75.699219 139.144531 79.222656 C 139.144531 82.746094 136.289062 85.601562 132.765625 85.601562 Z M 50.09375 45.238281 C 50.074219 43.691406 50.675781 42.203125 51.769531 41.109375 C 52.863281 40.015625 54.351562 39.410156 55.898438 39.433594 C 57.445312 39.429688 58.925781 40.050781 60.011719 41.148438 C 61.101562 42.25 61.703125 43.738281 61.683594 45.285156 C 61.6875 46.832031 61.074219 48.316406 59.980469 49.40625 C 58.886719 50.496094 57.398438 51.105469 55.855469 51.09375 C 54.308594 51.101562 52.824219 50.484375 51.742188 49.378906 C 50.65625 48.277344 50.0625 46.785156 50.09375 45.238281 Z M 129.339844 109.777344 C 127.792969 109.808594 126.300781 109.214844 125.203125 108.128906 C 124.105469 107.039062 123.492188 105.554688 123.511719 104.007812 C 123.488281 102.460938 124.082031 100.972656 125.160156 99.867188 C 126.242188 98.761719 127.714844 98.128906 129.261719 98.113281 C 130.804688 98.109375 132.289062 98.71875 133.382812 99.808594 C 134.476562 100.898438 135.089844 102.378906 135.09375 103.921875 C 135.132812 105.46875 134.539062 106.964844 133.457031 108.070312 C 132.371094 109.171875 130.886719 109.789062 129.339844 109.777344 Z M 83.925781 35.988281 C 83.921875 37.15625 83.445312 38.273438 82.601562 39.078125 C 81.757812 39.886719 80.621094 40.316406 79.453125 40.265625 C 78.285156 40.246094 77.175781 39.753906 76.378906 38.902344 C 75.582031 38.046875 75.160156 36.910156 75.214844 35.742188 C 75.292969 33.363281 77.253906 31.484375 79.632812 31.503906 C 80.800781 31.515625 81.914062 31.996094 82.722656 32.84375 C 83.53125 33.6875 83.964844 34.820312 83.925781 35.988281 Z M 114.222656 127.875 C 113.078125 127.878906 111.972656 127.421875 111.167969 126.609375 C 110.359375 125.792969 109.914062 124.6875 109.929688 123.539062 C 109.921875 122.363281 110.394531 121.238281 111.234375 120.417969 C 112.078125 119.601562 113.214844 119.160156 114.386719 119.195312 C 116.800781 119.226562 118.691406 121.136719 118.679688 123.554688 C 118.679688 126.03125 116.746094 127.894531 114.222656 127.875 Z M 91.753906 136.5 C 90.652344 136.523438 89.589844 136.09375 88.8125 135.3125 C 88.035156 134.53125 87.613281 133.464844 87.644531 132.363281 C 87.640625 131.257812 88.078125 130.199219 88.863281 129.425781 C 89.648438 128.648438 90.714844 128.222656 91.816406 128.242188 C 94.109375 128.265625 95.957031 130.128906 95.96875 132.421875 C 95.96875 133.527344 95.519531 134.582031 94.722656 135.351562 C 93.929688 136.121094 92.859375 136.535156 91.753906 136.5 Z M 105.550781 43.453125 C 103.492188 43.441406 101.832031 41.765625 101.84375 39.707031 C 101.855469 37.648438 103.535156 35.988281 105.59375 36 C 107.609375 36.011719 109.320312 37.738281 109.316406 39.75 L 109.316406 39.746094 C 109.261719 41.792969 107.597656 43.433594 105.550781 43.453125 Z M 71.226562 128.933594 C 71.222656 129.800781 70.871094 130.628906 70.25 131.234375 C 69.625 131.835938 68.785156 132.164062 67.917969 132.136719 C 67.050781 132.136719 66.222656 131.78125 65.621094 131.152344 C 65.023438 130.527344 64.703125 129.679688 64.742188 128.8125 C 64.753906 127.949219 65.109375 127.125 65.726562 126.523438 C 66.347656 125.921875 67.179688 125.589844 68.046875 125.601562 C 68.910156 125.621094 69.730469 125.984375 70.328125 126.609375 C 70.925781 127.234375 71.246094 128.070312 71.226562 128.933594 Z M 127.207031 55.546875 C 127.238281 56.292969 126.96875 57.023438 126.457031 57.570312 C 125.945312 58.117188 125.238281 58.433594 124.488281 58.453125 C 122.933594 58.480469 121.652344 57.25 121.609375 55.695312 C 121.582031 54.949219 121.855469 54.222656 122.367188 53.679688 C 122.882812 53.136719 123.59375 52.820312 124.339844 52.808594 C 125.910156 52.757812 127.175781 53.96875 127.207031 55.550781 Z M 127.207031 55.546875 "/>
</g>
</svg>
