<?xml version="1.0" encoding="UTF-8"?>
<svg xmlns="http://www.w3.org/2000/svg" xmlns:xlink="http://www.w3.org/1999/xlink" width="168pt" height="168pt" viewBox="0 0 168 168" version="1.1">
<g id="surface2084">
<path style=" stroke:none;fill-rule:evenodd;fill:rgb(5.882353%,56.078431%,97.254902%);fill-opacity:1;" d="M 168 84 C 168 130.390625 130.390625 168 84 168 C 37.609375 168 0 130.390625 0 84 C 0 37.609375 37.609375 0 84 0 C 130.390625 0 168 37.609375 168 84 "/>
<path style=" stroke:none;fill-rule:evenodd;fill:rgb(100%,100%,100%);fill-opacity:1;" d="M 42 99.769531 L 46.253906 89.25 L 50.753906 89.25 L 50.75 89.25 C 50.636719 87.449219 50.574219 85.644531 50.574219 83.84375 C 50.574219 81.492188 50.675781 79.308594 50.867188 77.28125 L 42 77.28125 L 46.253906 66.765625 L 52.941406 66.765625 C 59.167969 46.757812 73.207031 36.75 95.039062 36.75 C 102.214844 36.75 109.035156 37.679688 115.5 39.542969 L 115.5 52.792969 C 109.417969 50.074219 102.824219 48.6875 96.164062 48.71875 C 83.074219 48.71875 74.660156 54.734375 70.910156 66.769531 L 109.882812 66.769531 L 105.628906 77.285156 L 68.371094 77.285156 C 68.148438 79.015625 68.050781 80.761719 68.078125 82.507812 C 68.078125 85.023438 68.15625 87.269531 68.3125 89.253906 L 100.773438 89.253906 L 96.574219 99.769531 L 70.558594 99.769531 C 73.355469 107.0625 76.769531 112.132812 80.789062 114.996094 C 84.804688 117.851562 90.542969 119.28125 97.992188 119.28125 C 103.316406 119.28125 109.148438 117.984375 115.496094 115.390625 L 115.496094 127.847656 C 109.464844 130.117188 102.292969 131.25 93.972656 131.25 C 72.097656 131.25 58.257812 120.753906 52.464844 99.769531 Z M 42 99.769531 "/>
</g>
</svg>
