<?xml version="1.0" encoding="UTF-8"?>
<svg xmlns="http://www.w3.org/2000/svg" xmlns:xlink="http://www.w3.org/1999/xlink" width="168pt" height="168pt" viewBox="0 0 168 168" version="1.1">
<g id="surface486">
<path style=" stroke:none;fill-rule:evenodd;fill:rgb(1.568627%,29.019608%,67.45098%);fill-opacity:1;" d="M 168 84 C 168 130.390625 130.390625 168 84 168 C 37.609375 168 0 130.390625 0 84 C 0 37.609375 37.609375 0 84 0 C 130.390625 0 168 37.609375 168 84 "/>
<path style=" stroke:none;fill-rule:evenodd;fill:rgb(100%,100%,100%);fill-opacity:1;" d="M 52.929688 90.351562 L 39.183594 104.105469 L 32.726562 110.5625 L 32.726562 110.566406 C 28.460938 102.359375 26.238281 93.246094 26.25 84 C 26.25 52.160156 52.160156 26.25 84 26.25 C 115.839844 26.25 141.75 52.160156 141.75 84 C 141.75 115.839844 115.839844 141.75 84 141.75 C 71.683594 141.75 60.257812 137.871094 50.871094 131.277344 C 48.503906 129.613281 46.261719 127.777344 44.167969 125.78125 L 50.269531 119.675781 L 94.457031 75.488281 L 94.457031 75.484375 C 94.816406 71.070312 98.5 67.667969 102.929688 67.660156 C 107.289062 67.667969 110.941406 70.964844 111.382812 75.300781 L 131.722656 95.640625 C 132.652344 91.828125 133.121094 87.921875 133.117188 84 C 133.117188 56.910156 111.082031 34.882812 84 34.882812 C 56.914062 34.882812 34.882812 56.910156 34.882812 84 C 34.882812 87.769531 35.308594 91.4375 36.117188 94.96875 L 49.175781 81.898438 C 49.835938 77.773438 53.394531 74.738281 57.570312 74.734375 C 61.6875 74.738281 65.207031 77.6875 65.933594 81.738281 L 74.246094 90.042969 L 68.140625 96.144531 L 62.292969 90.296875 L 62.292969 90.292969 C 59.464844 92.195312 55.777344 92.21875 52.929688 90.347656 Z M 98.652344 83.496094 L 57.082031 125.066406 C 65.074219 130.328125 74.433594 133.128906 84 133.117188 C 103.703125 133.117188 120.734375 121.457031 128.550781 104.671875 L 107.316406 83.429688 L 107.316406 83.433594 C 104.660156 85.046875 101.332031 85.070312 98.652344 83.496094 Z M 103.082031 72.386719 C 102.046875 72.351562 101.039062 72.738281 100.292969 73.457031 C 99.546875 74.179688 99.125 75.171875 99.125 76.210938 C 99.125 77.25 99.550781 78.242188 100.300781 78.960938 C 101.046875 79.683594 102.058594 80.066406 103.09375 80.027344 C 105.148438 79.945312 106.773438 78.257812 106.769531 76.203125 C 106.765625 74.144531 105.136719 72.460938 103.082031 72.386719 Z M 57.617188 79.351562 L 57.617188 79.355469 C 55.507812 79.355469 53.796875 81.066406 53.796875 83.175781 C 53.796875 85.285156 55.507812 86.996094 57.617188 86.996094 C 59.730469 86.996094 61.441406 85.285156 61.441406 83.175781 C 61.441406 81.066406 59.730469 79.355469 57.617188 79.355469 Z M 57.617188 79.351562 "/>
</g>
</svg>
