<?xml version="1.0" encoding="UTF-8"?>
<svg xmlns="http://www.w3.org/2000/svg" xmlns:xlink="http://www.w3.org/1999/xlink" width="168pt" height="168pt" viewBox="0 0 168 168" version="1.1">
<g id="surface1746">
<path style=" stroke:none;fill-rule:nonzero;fill:rgb(20.392157%,49.803922%,98.431373%);fill-opacity:1;" d="M 168 84 C 168 130.390625 130.390625 168 84 168 C 37.609375 168 0 130.390625 0 84 C 0 37.609375 37.609375 0 84 0 C 130.390625 0 168 37.609375 168 84 "/>
<path style=" stroke:none;fill-rule:evenodd;fill:rgb(100%,100%,100%);fill-opacity:1;" d="M 103.425781 68.539062 L 88.363281 109.226562 L 88.269531 109.472656 L 85.507812 103.933594 L 79.734375 106.558594 L 94.878906 65.625 L 100.652344 63 L 103.417969 68.539062 Z M 141.121094 69.5 L 126.0625 110.25 L 123.296875 104.695312 L 117.523438 107.320312 L 117.875 106.363281 L 132.925781 65.625 L 138.699219 63 L 141.457031 68.539062 Z M 108.886719 104.738281 L 117.753906 80.78125 L 111.964844 83.40625 L 109.214844 77.855469 L 100.320312 101.804688 L 103.078125 107.359375 L 108.890625 104.734375 Z M 60.917969 81.113281 L 34.429688 81.113281 L 38.945312 85.3125 L 34.429688 89.582031 L 60.890625 89.582031 L 65.382812 85.3125 L 60.914062 81.113281 Z M 30.765625 98.875 L 73.578125 98.875 L 69.078125 103.113281 L 73.578125 107.339844 L 30.765625 107.335938 L 26.25 103.109375 L 30.765625 98.867188 Z M 43.894531 63.34375 L 86.683594 63.34375 L 82.199219 67.585938 L 86.6875 71.8125 L 43.898438 71.8125 L 39.382812 67.582031 L 43.898438 63.34375 Z M 43.894531 63.34375 "/>
</g>
</svg>
