<?xml version="1.0" encoding="UTF-8"?>
<svg xmlns="http://www.w3.org/2000/svg" xmlns:xlink="http://www.w3.org/1999/xlink" width="168pt" height="168pt" viewBox="0 0 168 168" version="1.1">
<g id="surface2094">
<path style=" stroke:none;fill-rule:evenodd;fill:rgb(100%,66.666667%,36.078431%);fill-opacity:1;" d="M 168 84 C 168 130.390625 130.390625 168 84 168 C 37.609375 168 0 130.390625 0 84 C 0 37.609375 37.609375 0 84 0 C 130.390625 0 168 37.609375 168 84 "/>
<path style=" stroke:none;fill-rule:evenodd;fill:rgb(100%,100%,100%);fill-opacity:1;" d="M 136.5 77.265625 C 136.480469 77.46875 136.449219 77.667969 136.449219 77.875 C 136.421875 84.28125 136.398438 90.691406 136.386719 97.101562 L 136.367188 110.261719 C 136.367188 110.683594 136.332031 111.101562 136.304688 111.625 C 136.074219 111.519531 135.90625 111.453125 135.75 111.363281 L 111.316406 97.738281 C 110.878906 97.496094 110.84375 97.28125 111.054688 96.851562 C 115.21875 88.304688 115.234375 79.738281 111.132812 71.167969 C 110.9375 70.757812 110.976562 70.554688 111.394531 70.324219 L 135.839844 56.605469 C 136.042969 56.488281 136.28125 56.433594 136.507812 56.347656 L 136.507812 77.261719 Z M 85.574219 26.25 C 85.984375 26.496094 86.386719 26.757812 86.808594 26.996094 L 134.316406 53.691406 C 134.496094 53.792969 134.664062 53.902344 134.910156 54.046875 C 134.691406 54.1875 134.542969 54.292969 134.378906 54.382812 L 110.132812 67.921875 C 109.496094 68.273438 109.503906 68.269531 109.082031 67.667969 C 103.707031 60.132812 96.335938 55.828125 86.96875 54.738281 L 86.972656 54.742188 C 86.691406 54.707031 86.414062 54.6875 86.132812 54.6875 C 85.640625 54.6875 85.449219 54.5 85.449219 53.980469 C 85.445312 48.664062 85.414062 43.339844 85.398438 38.019531 L 85.382812 27 C 85.382812 26.746094 85.441406 26.5 85.472656 26.25 L 85.578125 26.25 Z M 82.320312 141.75 C 82.140625 141.617188 81.980469 141.472656 81.796875 141.367188 L 33.933594 114.460938 C 33.707031 114.335938 33.492188 114.199219 33.183594 114.019531 C 33.394531 113.878906 33.53125 113.765625 33.6875 113.679688 C 41.71875 109.191406 49.753906 104.707031 57.785156 100.207031 C 58.269531 99.933594 58.492188 100.039062 58.792969 100.453125 C 63.8125 107.414062 70.667969 111.53125 79.273438 112.933594 C 80.148438 113.074219 81.046875 113.144531 81.933594 113.1875 C 82.4375 113.207031 82.636719 113.34375 82.636719 113.871094 C 82.632812 118.582031 82.652344 123.289062 82.667969 127.992188 L 82.695312 141.359375 C 82.695312 141.492188 82.660156 141.621094 82.636719 141.753906 L 82.320312 141.753906 Z M 31.5 107.363281 C 31.527344 107.207031 31.578125 107.042969 31.585938 106.878906 L 31.605469 100.25 L 31.640625 85.410156 L 31.707031 62 L 31.734375 56.953125 C 31.734375 56.804688 31.753906 56.660156 31.769531 56.421875 C 32 56.53125 32.167969 56.601562 32.324219 56.691406 C 40.316406 61.152344 48.300781 65.617188 56.300781 70.070312 C 56.769531 70.328125 56.832031 70.527344 56.601562 71.015625 C 52.402344 79.632812 52.421875 88.257812 56.601562 96.882812 C 56.941406 97.574219 56.953125 97.570312 56.269531 97.953125 C 48.246094 102.46875 40.226562 106.972656 32.199219 111.472656 C 31.996094 111.589844 31.726562 111.597656 31.496094 111.65625 L 31.496094 107.371094 Z M 102.234375 102.480469 C 103.089844 99.472656 103.367188 96.441406 103.179688 93.367188 C 102.960938 89.597656 102.023438 86.015625 100.0625 82.730469 C 97.804688 78.941406 94.539062 76.195312 90.558594 74.199219 C 89.507812 73.667969 89.394531 73.9375 90.019531 72.625 C 91.433594 69.667969 93.90625 67.832031 96.949219 66.65625 L 96.945312 66.652344 C 99.066406 65.878906 101.296875 65.445312 103.550781 65.363281 C 103.871094 65.375 104.171875 65.511719 104.390625 65.742188 C 108.175781 69.683594 110.628906 74.710938 111.414062 80.121094 C 113.425781 93.808594 104.503906 106.65625 90.65625 110.054688 C 75.289062 113.835938 59.703125 104.375 56.511719 89.347656 C 53.53125 75.28125 62.539062 61.679688 75.980469 58.089844 C 86.078125 55.398438 95.03125 57.542969 102.871094 64.230469 L 103.757812 64.988281 L 103.648438 65.15625 C 102.875 65.0625 102.109375 64.945312 101.339844 64.871094 C 96.546875 64.417969 91.832031 64.734375 87.257812 66.304688 L 87.253906 66.308594 C 81.644531 68.164062 76.941406 72.074219 74.089844 77.253906 C 73.667969 78 73.636719 78.003906 72.828125 77.726562 C 71.792969 77.363281 70.855469 76.757812 70.101562 75.957031 C 68.609375 74.40625 67.480469 72.542969 66.800781 70.503906 C 66.1875 68.71875 65.734375 66.882812 65.210938 65.070312 C 65.167969 64.929688 65.136719 64.78125 65.011719 64.628906 C 64.9375 65.050781 64.855469 65.457031 64.792969 65.878906 C 64.730469 66.300781 64.675781 66.71875 64.636719 67.140625 C 64.136719 71.835938 64.40625 76.453125 66.027344 80.933594 C 68.042969 86.519531 71.839844 90.542969 77.382812 92.988281 C 78.105469 93.308594 78.105469 93.3125 77.71875 93.976562 C 75.664062 97.460938 72.449219 99.214844 68.472656 99.816406 C 66.625 100.09375 64.777344 99.984375 62.890625 99.847656 C 63.0625 99.914062 63.230469 99.996094 63.40625 100.058594 C 72.488281 103.183594 82.464844 101.78125 89.976562 93.832031 L 89.972656 93.824219 C 91.863281 91.800781 93.515625 89.566406 94.898438 87.171875 C 95.253906 86.550781 95.28125 86.546875 95.859375 86.96875 C 98.320312 88.765625 99.785156 91.222656 100.792969 93.976562 C 101.734375 96.511719 102.105469 99.148438 102.195312 101.832031 C 102.199219 102.046875 102.214844 102.261719 102.230469 102.476562 Z M 135.140625 114.09375 L 85.460938 141.652344 C 85.433594 141.363281 85.398438 141.183594 85.398438 141.011719 C 85.398438 131.929688 85.398438 122.847656 85.386719 113.765625 C 85.386719 113.363281 85.507812 113.214844 85.941406 113.175781 C 95.601562 112.378906 103.261719 108.144531 108.882812 100.453125 C 109.371094 99.777344 109.367188 99.769531 110.089844 100.175781 L 134.464844 113.695312 C 134.652344 113.800781 134.84375 113.921875 135.136719 114.09375 Z M 82.628906 26.4375 C 82.644531 26.730469 82.660156 26.910156 82.660156 27.089844 C 82.660156 36.050781 82.660156 45.011719 82.671875 53.96875 C 82.671875 54.390625 82.609375 54.597656 82.09375 54.636719 C 72.234375 55.351562 64.4375 59.617188 58.726562 67.460938 C 58.273438 68.082031 58.285156 68.085938 57.625 67.71875 L 33.890625 54.542969 C 33.613281 54.386719 33.355469 54.195312 33.085938 54.019531 C 33.359375 53.832031 33.609375 53.617188 33.90625 53.453125 L 81.734375 26.910156 C 82.003906 26.761719 82.273438 26.632812 82.625 26.441406 Z M 82.628906 26.4375 "/>
</g>
</svg>
