<?xml version="1.0" encoding="UTF-8"?>
<svg xmlns="http://www.w3.org/2000/svg" xmlns:xlink="http://www.w3.org/1999/xlink" width="168pt" height="168pt" viewBox="0 0 168 168" version="1.1">
<g id="surface916">
<path style=" stroke:none;fill-rule:evenodd;fill:rgb(78.823529%,59.215686%,1.960784%);fill-opacity:1;" d="M 168 84 C 168 130.390625 130.390625 168 84 168 C 37.609375 168 0 130.390625 0 84 C 0 37.609375 37.609375 0 84 0 C 130.390625 0 168 37.609375 168 84 "/>
<path style=" stroke:none;fill-rule:evenodd;fill:rgb(100%,100%,100%);fill-opacity:1;" d="M 42 127.332031 L 42.226562 126.414062 C 43.039062 123.28125 45.171875 121.347656 48.351562 120.472656 C 51.582031 119.582031 54.660156 119.921875 57.460938 121.820312 C 58.378906 122.441406 59.074219 123.234375 59.519531 124.226562 C 59.644531 124.496094 59.890625 124.714844 60.085938 124.960938 C 60.296875 124.71875 60.59375 124.507812 60.699219 124.238281 C 61.386719 122.40625 62.160156 120.59375 62.679688 118.726562 C 65.492188 108.542969 68.246094 98.351562 71.007812 88.160156 C 71.117188 87.761719 71.1875 87.347656 71.285156 86.863281 C 70.550781 86.863281 69.867188 86.867188 69.191406 86.863281 C 66.871094 86.820312 64.539062 86.890625 62.230469 86.710938 C 59.085938 86.46875 56.949219 84.53125 56.890625 81.554688 C 56.839844 78.949219 58.375 76.949219 61.320312 76.441406 C 63.378906 76.085938 65.542969 76.222656 67.65625 76.183594 C 69.6875 76.152344 71.714844 76.183594 73.746094 76.164062 C 73.929688 76.164062 74.238281 75.953125 74.285156 75.792969 C 74.800781 73.988281 75.277344 72.171875 75.753906 70.347656 C 75.785156 70.242188 75.757812 70.121094 75.757812 69.945312 C 73.457031 69.945312 71.183594 70.011719 68.917969 69.925781 C 67.132812 69.851562 65.410156 69.449219 63.921875 68.417969 C 62.070312 67.140625 61.558594 65.320312 61.859375 63.304688 C 62.164062 61.269531 63.472656 59.902344 65.5625 59.332031 C 66.296875 59.132812 67.09375 59.046875 67.863281 59.042969 L 67.863281 59.035156 C 71.140625 59.003906 74.417969 59.011719 77.695312 59.058594 C 78.488281 59.074219 78.839844 58.816406 79.15625 58.15625 C 80.25 55.882812 81.320312 53.589844 82.585938 51.410156 C 84.894531 47.4375 87.605469 43.703125 90.964844 40.457031 C 95.390625 36.195312 100.605469 33.171875 106.851562 32.0625 C 111 31.328125 115.179688 31.148438 119.253906 32.546875 C 121.699219 33.386719 123.515625 34.945312 124.660156 37.1875 C 125.378906 38.605469 126.078125 40.007812 126 41.671875 C 125.773438 46.398438 121.757812 49.398438 118.121094 49.519531 C 115.328125 49.613281 112.921875 48.859375 111.066406 46.835938 C 109.316406 44.933594 109.101562 42.726562 109.804688 40.367188 C 109.855469 40.195312 109.925781 40.019531 109.988281 39.84375 L 109.847656 39.664062 C 109.492188 39.894531 109.085938 40.085938 108.789062 40.367188 L 108.78125 40.367188 C 107.210938 41.882812 105.882812 43.632812 104.84375 45.550781 C 102.640625 49.5 101.046875 53.679688 99.734375 57.960938 C 99.691406 58.09375 99.703125 58.238281 99.683594 58.464844 C 100.816406 58.464844 101.9375 58.480469 103.042969 58.464844 C 104.660156 58.4375 106.265625 58.445312 107.804688 59.019531 C 109.679688 59.722656 111.113281 60.871094 111.488281 62.839844 C 111.871094 64.839844 111.476562 66.410156 109.609375 67.9375 C 108.085938 69.1875 106.300781 69.445312 104.4375 69.507812 C 101.949219 69.59375 99.449219 69.613281 96.960938 69.65625 C 96.628906 69.660156 96.367188 69.65625 96.273438 70.078125 C 95.871094 71.792969 95.429688 73.507812 95.003906 75.21875 C 94.984375 75.304688 95.007812 75.398438 95.019531 75.542969 C 96.769531 75.542969 98.503906 75.492188 100.238281 75.554688 C 102.101562 75.621094 103.824219 76.109375 105.183594 77.457031 C 106.84375 79.105469 107.074219 81.46875 105.6875 83.320312 C 105.234375 83.925781 104.695312 84.476562 104.207031 85.054688 C 103.1875 86.25 101.765625 86.667969 100.253906 86.722656 C 97.664062 86.828125 95.070312 86.855469 92.484375 86.839844 C 91.78125 86.839844 91.503906 87.050781 91.34375 87.667969 C 90.425781 91.3125 89.542969 94.964844 88.523438 98.589844 C 86.476562 105.871094 84.199219 113.078125 80.460938 119.777344 L 80.460938 119.773438 C 78.664062 123.03125 76.398438 126.007812 73.734375 128.609375 C 69.832031 132.398438 65.214844 135 59.691406 135.960938 C 55.921875 136.613281 52.121094 136.835938 48.402344 135.707031 C 45.253906 134.75 43.074219 132.792969 42.234375 129.648438 L 42 128.730469 Z M 42 127.332031 "/>
</g>
</svg>
