<?xml version="1.0" encoding="UTF-8"?>
<svg xmlns="http://www.w3.org/2000/svg" xmlns:xlink="http://www.w3.org/1999/xlink" width="168pt" height="168pt" viewBox="0 0 168 168" version="1.1">
<g id="surface331">
<path style=" stroke:none;fill-rule:evenodd;fill:rgb(25.490196%,48.235294%,64.313725%);fill-opacity:1;" d="M 168 84 C 168 130.390625 130.390625 168 84 168 C 37.609375 168 0 130.390625 0 84 C 0 37.609375 37.609375 0 84 0 C 130.390625 0 168 37.609375 168 84 "/>
<path style=" stroke:none;fill-rule:nonzero;fill:rgb(100%,100%,100%);fill-opacity:1;" d="M 40.351562 55.824219 C 40.179688 56.988281 40.226562 57.796875 40.84375 58.414062 C 40.046875 59.804688 39.425781 60.839844 38.832031 61.996094 C 39.429688 60.839844 40.042969 59.828125 40.84375 58.636719 C 42.625 60.863281 48.183594 60.863281 55.75 58.417969 C 56.640625 58.199219 56.640625 60.199219 56.640625 60.199219 C 56.640625 61.3125 56.414062 62.867188 46.847656 64.203125 C 44.175781 64.644531 40.390625 64.421875 38.617188 62.417969 C 38.171875 61.757812 37.949219 60.863281 37.949219 59.75 C 37.949219 59.53125 37.949219 59.308594 38.167969 58.859375 L 38.171875 58.851562 C 38.179688 58.839844 38.191406 58.828125 38.199219 58.816406 C 38.289062 58.441406 38.429688 58.082031 38.617188 57.746094 C 38.835938 57.078125 39.285156 56.632812 39.730469 55.964844 C 39.503906 56.410156 39.0625 57.296875 38.617188 57.746094 C 38.855469 57.078125 39.234375 56.46875 39.730469 55.964844 Z M 41.683594 52.964844 C 42.007812 52.480469 42.367188 52.003906 42.84375 51.519531 L 42.175781 52.410156 L 42.179688 52.410156 C 42.140625 52.449219 42.101562 52.488281 42.0625 52.527344 C 42.296875 52.195312 42.554688 51.867188 42.84375 51.519531 L 42.175781 52.410156 L 42.179688 52.410156 C 42.003906 52.585938 41.839844 52.769531 41.683594 52.960938 Z M 41.683594 52.964844 C 41.40625 53.375 41.148438 53.777344 40.84375 54.1875 L 40.84375 54.183594 C 40.816406 54.214844 40.789062 54.242188 40.761719 54.273438 C 40.578125 54.5625 40.398438 54.855469 40.21875 55.152344 Z M 46.414062 47.636719 C 47.082031 47.082031 47.742188 46.457031 48.410156 45.957031 L 48.410156 45.953125 C 47.789062 46.746094 47.332031 47.65625 47.070312 48.628906 C 46.851562 49.289062 46.851562 49.957031 47.289062 50.402344 L 47.292969 50.40625 C 47.25 50.445312 47.210938 50.484375 47.171875 50.527344 C 48.640625 52.164062 53.449219 51.683594 59.53125 49.074219 C 61.53125 48.183594 63.535156 47.289062 65.316406 46.1875 C 65.984375 45.960938 66.871094 47.074219 67.097656 47.289062 C 67.316406 47.515625 67.539062 48.179688 67.097656 48.628906 C 64.871094 49.960938 62.425781 51.296875 59.753906 52.1875 C 52.109375 55.464844 45.960938 55.953125 44.273438 53.863281 L 44.183594 53.96875 C 43.964844 53.300781 43.742188 52.855469 43.964844 51.96875 C 43.964844 51.742188 43.964844 51.523438 44.183594 51.296875 L 44.179688 51.292969 C 44.378906 51.03125 44.601562 50.785156 44.835938 50.550781 C 44.523438 50.855469 44.230469 51.179688 43.957031 51.519531 C 43.957031 51.292969 44.175781 50.851562 44.175781 50.628906 C 44.621094 49.738281 45.066406 49.074219 45.734375 48.183594 C 45.890625 48.066406 46.039062 47.949219 46.195312 47.820312 C 46.867188 46.875 47.859375 46.0625 48.847656 45.070312 C 50.632812 43.515625 50.632812 43.515625 51.519531 42.847656 L 51.523438 42.84375 C 51.710938 42.652344 51.917969 42.476562 52.136719 42.320312 C 52.0625 42.382812 51.988281 42.445312 51.910156 42.507812 C 52.539062 42.035156 53.191406 41.566406 53.875 41.109375 L 53.96875 41.058594 L 54.308594 40.816406 L 54.3125 40.820312 C 57.5 38.726562 60.886719 36.945312 64.421875 35.503906 C 65 35.179688 65.578125 34.894531 66.15625 34.644531 C 65.816406 34.78125 65.542969 34.902344 65.222656 35.039062 C 64.667969 35.28125 64.105469 35.507812 63.539062 35.722656 C 62.648438 35.949219 62.648438 35.949219 60.863281 36.839844 C 59.972656 37.28125 59.972656 37.28125 58.417969 38.171875 C 57.75 38.617188 57.75 38.617188 56.191406 39.503906 L 56.191406 39.507812 C 55.554688 39.929688 54.925781 40.367188 54.3125 40.820312 C 68.875 33.652344 67.859375 33.964844 66.832031 34.367188 C 65.5625 34.757812 64.3125 35.210938 63.089844 35.726562 C 57.933594 37.929688 53.082031 41.0625 50.050781 43.964844 C 49.59375 44.332031 49.378906 44.542969 48.855469 45.066406 C 49.140625 44.796875 49.4375 44.53125 49.746094 44.261719 L 49.742188 44.261719 C 49.269531 44.726562 48.824219 45.21875 48.40625 45.734375 C 47.707031 46.433594 47.007812 46.996094 46.417969 47.636719 Z M 33.777344 99.246094 C 33.828125 99.433594 33.886719 99.613281 33.945312 99.785156 L 33.945312 99.78125 C 34.109375 100.367188 34.414062 100.902344 34.839844 101.335938 C 34.425781 100.128906 34.035156 98.910156 33.667969 97.6875 C 33.648438 99.132812 34.082031 100.398438 34.839844 101.335938 C 34.335938 99.964844 33.964844 98.554688 33.726562 97.113281 C 37.726562 102.671875 52.859375 101.335938 72.210938 93.109375 C 96.90625 82.65625 119.371094 64.863281 122.488281 53.296875 C 123.15625 50.402344 122.707031 48.402344 121.148438 46.84375 C 122.261719 47.957031 123.375 49.289062 124.488281 50.402344 C 125.820312 51.960938 126.042969 53.960938 125.378906 56.628906 C 122.261719 68.414062 99.347656 86.433594 73.988281 97.105469 C 51.96875 106.691406 35.363281 107.117188 33.773438 99.242188 C 33.390625 97.945312 33 96.269531 32.613281 95.105469 C 32.832031 95.773438 33.058594 96.4375 33.503906 97.109375 L 33.636719 97.578125 L 33.636719 97.582031 C 33.625 97.859375 33.632812 98.140625 33.667969 98.417969 C 33.652344 98.160156 33.648438 97.90625 33.65625 97.648438 C 33.652344 97.628906 33.644531 97.605469 33.636719 97.582031 Z M 69.898438 33.410156 L 70.207031 33.285156 C 76.878906 31.503906 81.105469 32.394531 80.21875 36.171875 C 79.992188 37.511719 79.105469 38.84375 77.773438 40.175781 C 76.660156 40.621094 74.214844 40.175781 73.769531 39.730469 C 74.882812 38.398438 75.550781 37.285156 75.769531 36.398438 C 76.460938 33.457031 73.261719 32.671875 68.042969 34.03125 L 67.8125 34.117188 Z M 69.496094 33.566406 L 70.429688 33.28125 C 70.25 33.316406 70.074219 33.359375 69.898438 33.402344 Z M 32.613281 91.390625 L 32.613281 91.546875 C 31.984375 90.917969 31.746094 90.09375 31.722656 89.070312 L 31.71875 89.070312 C 31.664062 88.628906 31.652344 88.179688 31.683594 87.734375 C 31.710938 88.15625 31.722656 88.578125 31.726562 89.003906 C 31.664062 88.566406 31.652344 88.125 31.683594 87.683594 C 31.621094 86.519531 31.5 85.1875 31.5 84.210938 C 31.5 85.550781 31.945312 86.4375 32.390625 87.324219 C 32.390625 87.996094 32.441406 88.714844 32.496094 89.441406 C 32.390625 88.71875 32.390625 87.996094 32.390625 87.324219 C 47.289062 103.117188 114.253906 62.191406 114.921875 44.847656 C 115.140625 41.734375 113.363281 40.621094 112.476562 39.953125 L 114.257812 41.066406 L 116.480469 42.621094 C 118.265625 44.179688 118.933594 46.402344 118.265625 49.292969 C 115.371094 60.414062 93.570312 77.539062 69.765625 87.550781 C 50.917969 95.683594 36.359375 96.75 32.617188 91.394531 Z M 32.503906 74.421875 L 32.835938 73.089844 C 32.390625 74.875 32.617188 76.429688 33.503906 77.316406 L 33.5 77.316406 C 33.496094 77.335938 33.488281 77.351562 33.484375 77.371094 C 33.921875 77.894531 34.519531 78.273438 35.28125 78.652344 C 35.949219 79.542969 35.507812 81.765625 35.507812 81.765625 C 35.28125 82.433594 35.0625 83.324219 34.617188 83.105469 C 32.390625 81.992188 31.503906 80.210938 31.730469 77.539062 L 31.726562 77.539062 C 31.511719 78.863281 31.828125 80.222656 32.613281 81.316406 L 32.632812 81.191406 C 32.011719 80.164062 31.769531 78.949219 31.945312 77.761719 L 32.035156 77.183594 C 31.984375 77.375 31.953125 77.566406 31.945312 77.761719 L 32.386719 74.648438 L 32.832031 72.863281 L 32.832031 72.421875 L 32.5 74.421875 Z M 35.769531 68.960938 L 35.769531 68.964844 C 35.347656 69.855469 35.035156 70.792969 34.839844 71.757812 C 34.167969 70.867188 33.949219 69.757812 34.167969 68.417969 C 34.167969 67.976562 34.167969 67.75 34.394531 67.308594 C 34.816406 66.015625 35.335938 64.75 35.945312 63.53125 C 35.511719 64.867188 35.675781 66.324219 36.394531 67.53125 L 36.253906 67.863281 C 39.042969 71.515625 49.207031 70.59375 62.199219 65.085938 C 78.882812 57.746094 94.234375 45.734375 96.238281 38.175781 C 96.90625 35.289062 96.011719 33.503906 93.566406 32.609375 C 94.011719 32.390625 94.011719 32.390625 95.347656 32.835938 C 96.238281 33.0625 96.90625 33.28125 97.347656 33.28125 C 100.242188 34.394531 101.351562 36.394531 100.464844 39.507812 C 98.238281 47.960938 81.554688 61.085938 63.3125 68.867188 C 48.855469 74.875 37.730469 75.984375 34.839844 71.761719 L 35.769531 68.96875 Z M 70.09375 133.0625 C 67.421875 133.152344 65.207031 132.875 63.53125 132.25 C 62.199219 131.582031 60.417969 130.917969 59.308594 130.25 C 62.023438 131.375 65.582031 131.652344 69.675781 131.246094 C 93.117188 128.9375 134.222656 104.304688 136.496094 88.210938 L 136.277344 88.878906 L 136.28125 88.882812 C 136.03125 90.203125 135.882812 91.542969 135.832031 92.886719 C 135.832031 93.105469 135.832031 93.328125 135.613281 93.554688 C 132.941406 103.113281 114.035156 118.019531 93.34375 126.914062 C 84.023438 130.886719 75.964844 132.863281 70.101562 133.066406 C 70.101562 133.066406 70.097656 133.066406 70.09375 133.066406 Z M 72.699219 123.917969 L 73.101562 123.355469 C 72.964844 123.539062 72.839844 123.722656 72.707031 123.910156 C 76.082031 122.964844 79.714844 121.742188 83.554688 120.234375 C 86 119.566406 86.894531 121.125 86.894531 121.125 C 87.113281 121.34375 87.113281 122.238281 85.78125 122.90625 C 80.195312 125.089844 75.050781 126.660156 70.53125 127.605469 L 70.527344 127.613281 C 70.496094 127.675781 70.460938 127.742188 70.429688 127.804688 L 70.496094 127.617188 C 62.609375 129.269531 56.628906 129.035156 53.523438 126.914062 C 52.410156 126.023438 50.851562 124.917969 49.742188 124.027344 C 53.324219 127.09375 61.605469 127.023438 72.695312 123.921875 Z M 44.847656 119.128906 C 43.957031 118.015625 42.847656 116.902344 42.179688 115.789062 C 43.070312 116.902344 44.40625 118.457031 45.292969 119.570312 L 45.292969 119.574219 C 45.273438 119.335938 45.082031 119.148438 44.84375 119.132812 Z M 80.222656 31.714844 C 81.554688 31.714844 83.335938 31.496094 84.667969 31.496094 C 89.339844 31.496094 91.566406 33.277344 90.675781 36.835938 C 89.5625 41.0625 83.558594 47.066406 75.769531 52.402344 C 74.214844 53.070312 72.65625 51.070312 73.101562 50.179688 C 73.101562 49.953125 73.320312 49.953125 73.320312 49.953125 C 80.21875 45.28125 85.332031 40.167969 86.445312 36.386719 C 87.335938 32.828125 84.445312 31.273438 79.328125 31.714844 Z M 106.914062 36.832031 C 109.585938 38.164062 110.695312 40.390625 109.808594 43.726562 C 107.140625 53.734375 87.5625 69.085938 66.207031 78.203125 C 62.203125 79.976562 58.199219 81.316406 54.640625 82.425781 C 52.636719 82.652344 52.414062 79.980469 53.308594 78.644531 C 53.527344 78.203125 53.75 78.203125 53.976562 77.976562 C 57.308594 77.085938 60.871094 75.753906 64.65625 74.195312 C 84.894531 65.523438 103.359375 50.84375 105.8125 41.5 C 106.699219 38.167969 105.367188 35.941406 102.472656 34.832031 C 103.804688 35.5 105.585938 36.164062 106.917969 36.828125 Z M 130.050781 58.851562 L 130.71875 59.964844 C 131.386719 61.746094 131.386719 61.746094 131.386719 62.632812 L 131.386719 62.851562 C 130.71875 62.632812 129.390625 59.964844 129.164062 58.851562 C 129.164062 57.519531 128.9375 56.625 128.273438 55.738281 L 130.058594 58.851562 Z M 134.722656 70.636719 C 134.941406 71.75 134.941406 73.082031 134.503906 74.640625 C 131.832031 84.425781 115.148438 98.878906 94.902344 109.335938 C 92.679688 110.222656 91.34375 108.664062 91.789062 107.109375 L 91.785156 107.121094 C 91.964844 106.546875 92.367188 106.066406 92.898438 105.789062 C 113.363281 95.109375 130.488281 80.429688 133.164062 70.425781 C 133.605469 68.640625 133.605469 67.085938 133.164062 65.753906 C 133.832031 67.535156 134.496094 69.3125 134.71875 70.648438 Z M 136.28125 79.980469 L 136.28125 81.753906 C 136.28125 82.644531 136.28125 83.3125 136.054688 84.425781 C 134.5 90.433594 127.15625 98.210938 117.148438 105.777344 C 115.589844 106.890625 114.695312 105.332031 114.921875 104.21875 L 114.921875 104.226562 C 115.128906 103.546875 115.515625 102.933594 116.035156 102.449219 C 126.488281 94.667969 134.054688 86.65625 135.613281 80.429688 C 135.832031 79.316406 136.054688 78.207031 135.832031 77.097656 L 136.277344 79.984375 Z M 44.179688 53.960938 C 43.960938 53.292969 43.738281 52.847656 43.960938 51.960938 C 43.742188 52.847656 43.960938 53.292969 44.179688 53.957031 Z M 38.613281 62.414062 C 38.171875 61.746094 37.953125 60.855469 37.953125 59.742188 C 37.953125 60.855469 37.953125 61.527344 38.621094 62.414062 Z M 34.832031 71.753906 C 34.164062 70.863281 33.945312 69.753906 34.164062 68.414062 C 33.945312 69.753906 34.164062 70.867188 34.835938 71.753906 Z M 118.703125 79.539062 C 119.054688 80.511719 118.886719 81.601562 118.257812 82.425781 C 108.472656 91.324219 94.011719 100.222656 78.882812 106.671875 C 56.414062 116.015625 39.507812 116.683594 37.953125 108.671875 C 37.726562 108.003906 37.953125 108.453125 38.171875 108.230469 C 38.171875 108.449219 38.171875 109.5625 39.0625 110.898438 C 38.835938 110.453125 38.617188 110.230469 38.394531 109.785156 C 38.167969 109.566406 38.167969 109.34375 37.949219 109.117188 C 37.503906 108.449219 37.28125 107.5625 36.835938 106.894531 C 41.0625 112.453125 56.632812 111.339844 76.65625 102.667969 C 91.78125 96.214844 106.238281 87.097656 116.03125 78.421875 C 117.8125 77.53125 118.476562 78.867188 118.699219 79.535156 Z M 62.421875 120.238281 C 62.640625 120.683594 62.867188 121.578125 61.976562 121.796875 C 53.96875 123.128906 48.183594 122.464844 45.511719 119.570312 C 44.625 118.457031 43.289062 116.902344 42.398438 115.789062 C 44.84375 118.902344 50.851562 119.792969 59.527344 118.457031 C 61.085938 118.457031 62.195312 119.796875 62.414062 120.242188 Z M 132.492188 104.003906 C 133.160156 102.671875 133.832031 100.664062 134.277344 99.332031 C 131.601562 108.003906 114.472656 121.351562 95.789062 129.363281 C 84.21875 134.25 74.652344 136.03125 69.539062 134.476562 C 70.871094 134.917969 72.871094 135.367188 74.433594 135.589844 C 88.671875 137.8125 124.707031 120.019531 132.5 104.003906 Z M 120.925781 120.015625 C 120.925781 120.234375 120.480469 120.90625 119.59375 121.574219 C 114.695312 125.574219 108.023438 129.582031 101.128906 132.46875 C 95.34375 134.914062 90.226562 136.25 86.445312 136.472656 L 80.878906 136.472656 C 85.332031 136.691406 91.78125 135.140625 99.570312 132.027344 C 107.355469 128.6875 114.921875 124.242188 120.480469 119.570312 C 120.707031 119.570312 120.707031 119.351562 120.925781 119.351562 C 120.925781 119.351562 120.925781 119.570312 121.144531 119.570312 C 121.144531 119.570312 121.144531 119.796875 120.925781 120.015625 Z M 34.167969 67.53125 C 34.167969 67.3125 34.394531 66.863281 34.394531 66.640625 C 34.839844 65.308594 35.726562 63.308594 36.175781 61.96875 C 36.175781 62.640625 35.949219 63.085938 35.730469 63.753906 C 35.0625 64.867188 34.617188 66.199219 34.171875 67.535156 Z M 34.167969 67.53125 "/>
</g>
</svg>
