<?xml version="1.0" encoding="UTF-8"?>
<svg xmlns="http://www.w3.org/2000/svg" xmlns:xlink="http://www.w3.org/1999/xlink" width="168pt" height="168pt" viewBox="0 0 168 168" version="1.1">
<g id="surface1166">
<path style=" stroke:none;fill-rule:nonzero;fill:rgb(48.627451%,48.627451%,100%);fill-opacity:1;" d="M 168 84 C 168 130.390625 130.390625 168 84 168 C 37.609375 168 0 130.390625 0 84 C 0 37.609375 37.609375 0 84 0 C 130.390625 0 168 37.609375 168 84 "/>
<path style=" stroke:none;fill-rule:nonzero;fill:rgb(100%,100%,100%);fill-opacity:1;" d="M 85.917969 28.167969 L 86.085938 54.265625 L 82.601562 54.292969 L 82.433594 28.195312 Z M 110.835938 97.308594 L 132.945312 110.367188 L 131.175781 113.371094 L 109.074219 100.3125 Z M 57.285156 97.308594 L 59.054688 100.3125 L 36.953125 113.371094 L 35.183594 110.367188 Z M 57.285156 97.308594 "/>
<path style=" stroke:none;fill-rule:nonzero;fill:rgb(100%,100%,100%);fill-opacity:1;" d="M 113.226562 69.0625 L 83.949219 52 L 54.628906 68.996094 L 83.945312 85.996094 L 113.230469 69.066406 Z M 83.9375 56.03125 L 106.28125 69.050781 L 83.941406 81.964844 L 61.578125 68.996094 L 83.941406 56.027344 Z M 83.9375 56.03125 "/>
<path style=" stroke:none;fill-rule:nonzero;fill:rgb(100%,100%,100%);fill-opacity:1;" d="M 85.683594 82.976562 L 56.351562 65.964844 L 56.394531 99.917969 L 85.691406 116.792969 L 85.691406 82.976562 Z M 59.851562 72.019531 L 82.207031 84.976562 L 82.207031 110.757812 L 59.878906 97.894531 L 59.851562 72.015625 Z M 59.851562 72.019531 "/>
<path style=" stroke:none;fill-rule:nonzero;fill:rgb(100%,100%,100%);fill-opacity:1;" d="M 111.5 99.984375 L 111.5 66.039062 L 82.203125 82.96875 L 82.203125 116.777344 Z M 108.007812 72.074219 L 108.007812 97.957031 L 85.683594 110.765625 L 85.683594 84.976562 L 108.007812 72.070312 Z M 108.007812 72.074219 "/>
<path style=" stroke:none;fill-rule:nonzero;fill:rgb(100%,100%,100%);fill-opacity:1;" d="M 133.796875 55.125 L 83.957031 26.25 L 34.125 55.125 L 34.125 112.875 L 83.957031 141.75 L 133.796875 112.875 Z M 83.957031 30.277344 L 130.308594 57.136719 L 130.308594 110.863281 L 83.957031 137.71875 L 37.597656 110.859375 L 37.601562 57.140625 L 83.960938 30.277344 Z M 83.957031 30.277344 "/>
<path style=" stroke:none;fill-rule:nonzero;fill:rgb(100%,100%,100%);fill-opacity:1;" d="M 131.261719 54.671875 C 132.027344 54.230469 133.003906 54.429688 133.53125 55.140625 C 134.0625 55.851562 133.972656 56.84375 133.328125 57.449219 L 133.003906 57.691406 L 83.957031 86.0625 L 35.070312 57.6875 C 34.304688 57.242188 33.992188 56.296875 34.34375 55.484375 C 34.695312 54.671875 35.601562 54.253906 36.449219 54.511719 L 36.816406 54.675781 L 83.960938 82.027344 L 131.261719 54.675781 Z M 131.261719 54.671875 "/>
<path style=" stroke:none;fill-rule:nonzero;fill:rgb(100%,100%,100%);fill-opacity:1;" d="M 83.96875 82.304688 C 84.808594 82.304688 85.515625 82.902344 85.675781 83.695312 L 85.710938 84.046875 L 85.710938 139.734375 C 85.710938 140.625 85.035156 141.375 84.144531 141.464844 C 83.257812 141.554688 82.445312 140.960938 82.261719 140.085938 L 82.226562 139.734375 L 82.226562 84.050781 C 82.226562 83.089844 83.007812 82.308594 83.96875 82.308594 Z M 83.96875 82.304688 "/>
</g>
</svg>
