<?xml version="1.0" encoding="UTF-8"?>
<svg xmlns="http://www.w3.org/2000/svg" xmlns:xlink="http://www.w3.org/1999/xlink" width="168pt" height="168pt" viewBox="0 0 168 168" version="1.1">
<g id="surface756">
<path style=" stroke:none;fill-rule:nonzero;fill:rgb(25.882353%,75.686275%,79.215686%);fill-opacity:1;" d="M 168 84 C 168 130.390625 130.390625 168 84 168 C 37.609375 168 0 130.390625 0 84 C 0 37.609375 37.609375 0 84 0 C 130.390625 0 168 37.609375 168 84 "/>
<path style=" stroke:none;fill-rule:nonzero;fill:rgb(100%,100%,100%);fill-opacity:1;" d="M 83.644531 67.765625 C 85.597656 59.558594 87.949219 52.183594 90.449219 47.371094 C 91.367188 45.070312 95.09375 39.5625 99.183594 35.925781 C 105.992188 29.863281 113.632812 28.324219 121.585938 33.316406 L 120.886719 34.425781 L 121.585938 33.316406 C 125.644531 35.863281 127.273438 38.480469 126.558594 40.949219 C 126.035156 42.785156 124.023438 44.257812 122.945312 44.105469 C 121.371094 44.261719 119.785156 43.949219 118.273438 42.835938 C 117 41.855469 116.015625 40.546875 115.433594 39.050781 C 114.320312 36.425781 112.859375 35.535156 111.070312 35.742188 C 109.773438 35.890625 108.265625 36.71875 107.789062 37.273438 L 106.554688 38.636719 L 106.554688 38.640625 C 105.59375 39.660156 104.742188 40.777344 104.011719 41.972656 C 101.511719 46.136719 99.207031 53.765625 96.011719 69.570312 L 117.199219 72.671875 L 116.035156 81.160156 L 94.53125 78.011719 L 93.613281 83.597656 L 93.378906 84.996094 C 93.253906 85.71875 93.117188 86.507812 92.957031 87.347656 L 114.671875 90.527344 L 113.425781 99.007812 L 91.203125 95.753906 C 88.636719 106.664062 85.253906 118.355469 82.867188 122.96875 C 81.941406 125.273438 78.222656 130.769531 74.132812 134.414062 C 67.324219 140.472656 59.683594 142.015625 51.730469 137.023438 C 47.671875 134.476562 46.042969 131.851562 46.757812 129.382812 C 47.28125 127.546875 49.292969 126.082031 50.371094 126.234375 C 51.945312 126.078125 53.53125 126.390625 55.042969 127.5 C 56.207031 128.359375 57.175781 129.609375 57.882812 131.289062 C 58.996094 133.910156 60.457031 134.804688 62.246094 134.597656 C 63.542969 134.445312 65.050781 133.617188 65.527344 133.058594 C 70.289062 127.757812 74.0625 117.539062 78.835938 93.945312 L 57.648438 90.835938 L 58.8125 82.347656 L 80.316406 85.496094 L 81.242188 79.914062 L 81.238281 79.921875 C 81.441406 78.667969 81.660156 77.414062 81.894531 76.167969 L 60.265625 73.003906 L 61.503906 64.523438 L 83.644531 67.769531 Z M 83.644531 67.765625 "/>
</g>
</svg>
