<?xml version="1.0" encoding="UTF-8"?>
<svg xmlns="http://www.w3.org/2000/svg" xmlns:xlink="http://www.w3.org/1999/xlink" width="168pt" height="168pt" viewBox="0 0 168 168" version="1.1">
<g id="surface536">
<path style=" stroke:none;fill-rule:nonzero;fill:rgb(0%,68.627451%,92.54902%);fill-opacity:1;" d="M 168 84 C 168 130.390625 130.390625 168 84 168 C 37.609375 168 0 130.390625 0 84 C 0 37.609375 37.609375 0 84 0 C 130.390625 0 168 37.609375 168 84 "/>
<path style=" stroke:none;fill-rule:nonzero;fill:rgb(100%,100%,100%);fill-opacity:1;" d="M 106.605469 62.097656 C 106.863281 61.683594 107.09375 61.132812 107.328125 60.660156 L 107.332031 60.660156 C 112.675781 51.191406 115.492188 40.503906 115.5 29.632812 C 107.964844 25.285156 100.011719 22.546875 91.359375 21.59375 C 94.5625 35.570312 99.097656 49.105469 105.65625 61.855469 Z M 63.410156 59.707031 L 63.175781 59.65625 L 61.339844 59.234375 L 61.339844 59.203125 L 61.3125 59.203125 L 62.964844 51.996094 C 64.1875 52.257812 65.410156 52.546875 66.628906 52.847656 L 66.65625 52.847656 L 66.652344 52.847656 C 71.113281 42.789062 74.589844 32.320312 77.035156 21.59375 C 65.757812 22.839844 55.03125 27.109375 45.984375 33.957031 L 45.984375 33.976562 C 30.609375 45.621094 21.40625 63.65625 21 82.941406 L 21 84.203125 L 21 84.199219 C 27.726562 88.0625 35.097656 90.671875 42.757812 91.894531 L 42.792969 91.859375 C 50.832031 81.933594 57.75 71.152344 63.425781 59.714844 L 63.410156 59.714844 Z M 102.847656 70.339844 C 104.226562 71.074219 104.742188 72.125 105.398438 74.183594 C 106.308594 77.292969 105.691406 80.5625 105.046875 83.632812 L 112.664062 85.402344 L 114.554688 77.195312 C 122.246094 89.035156 130.777344 101.261719 141.136719 110.859375 C 139.257812 115.128906 138.089844 116.617188 135.324219 120.367188 C 118.367188 115.148438 100.308594 112.382812 82.5625 112.554688 L 84.078125 106.492188 L 79.015625 105.3125 C 78.226562 105.113281 77.425781 104.761719 76.953125 104.066406 C 76.359375 103.277344 76.359375 102.238281 76.558594 101.308594 L 79.722656 87.542969 C 81.359375 87.9375 83.070312 88.195312 84.605469 88.921875 L 84.609375 88.925781 C 86.0625 89.507812 87.152344 90.75 87.542969 92.269531 C 87.957031 94.359375 87.070312 96.363281 86.714844 98.375 L 93.53125 99.949219 L 99.210938 75.335938 L 98.632812 75.140625 L 98.1875 75.054688 C 99.761719 73.402344 101.136719 71.929688 102.5625 70.136719 L 102.855469 70.335938 Z M 42.957031 93.476562 L 43.121094 93.25 C 44.445312 93.542969 45.460938 93.433594 46.816406 93.574219 C 51.664062 94.003906 56.367188 94.097656 61.191406 93.417969 C 61.558594 93.367188 61.9375 93.328125 62.308594 93.3125 L 61.191406 97.605469 C 60.992188 98.457031 60.621094 99.339844 59.890625 99.875 L 59.886719 99.875 C 59.15625 100.359375 58.257812 100.515625 57.410156 100.304688 C 55.675781 99.953125 53.945312 99.480469 52.191406 99.144531 C 51.660156 101.542969 51.089844 103.949219 50.539062 106.332031 L 62.171875 109.023438 C 61.699219 111.191406 61.582031 111.78125 61.089844 113.925781 L 61.089844 113.929688 C 51.40625 115.257812 41.839844 117.34375 32.480469 120.171875 C 29.722656 116.429688 28.542969 115.527344 26.695312 111.253906 C 32.585938 105.792969 37.886719 99.71875 42.953125 93.476562 Z M 69.96875 110.824219 L 74.636719 111.90625 L 74.480469 112.832031 L 69.5 113.1875 L 69.972656 110.824219 Z M 61.363281 92.035156 L 61.363281 92.03125 C 61.722656 91.984375 62.089844 91.949219 62.453125 91.9375 L 62.453125 91.917969 L 68.460938 65.929688 C 68.695312 64.75 69.167969 63.566406 68.796875 62.386719 C 68.503906 61.527344 67.828125 60.855469 66.96875 60.5625 L 66.773438 60.5 C 65.777344 60.230469 66.542969 60.421875 65.527344 60.183594 C 65.417969 60.15625 64.914062 60.324219 64.796875 60.304688 L 64.800781 60.308594 C 59.1875 71.613281 52.335938 82.261719 44.367188 92.054688 C 45.683594 92.332031 45.46875 92.253906 46.789062 92.390625 C 51.644531 92.835938 56.53125 92.714844 61.359375 92.039062 Z M 61.363281 92.035156 "/>
<path style=" stroke:none;fill-rule:nonzero;fill:rgb(100%,100%,100%);fill-opacity:1;" d="M 74.707031 54.6875 L 74.707031 54.707031 C 75.632812 50.804688 76.496094 46.890625 77.441406 42.996094 L 85.199219 44.78125 L 82.5 56.5 L 87.144531 57.582031 C 87.605469 55.632812 88.0625 53.679688 88.507812 51.726562 L 89.859375 45.867188 L 97.613281 47.636719 C 97.507812 48.160156 97.394531 48.6875 97.277344 49.210938 C 96.527344 52.609375 95.691406 55.972656 94.941406 59.378906 L 103.871094 61.457031 C 97.3125 48.699219 92.972656 35.363281 89.773438 21.390625 C 87.769531 21.15625 86.921875 21.234375 84.890625 21.195312 L 83.652344 21.195312 C 81.425781 21.195312 80.601562 21.136719 78.417969 21.390625 C 75.960938 32.117188 73.0625 43.367188 68.601562 53.425781 L 74.695312 54.6875 Z M 85.003906 64.710938 L 85.238281 64.761719 L 85.265625 64.710938 Z M 85.003906 64.710938 "/>
<path style=" stroke:none;fill-rule:nonzero;fill:rgb(100%,100%,100%);fill-opacity:1;" d="M 85.023438 64.707031 L 81.421875 80.320312 C 83.660156 80.8125 85.988281 81.632812 88.289062 80.988281 C 89.789062 80.515625 90.957031 79.324219 91.402344 77.816406 C 91.832031 76.4375 92.046875 75.019531 92.425781 73.644531 L 96.226562 74.609375 C 96.394531 74.636719 96.199219 74.734375 96.3125 74.625 L 96.40625 74.550781 C 97.980469 72.859375 99.765625 71.007812 101.183594 69.214844 C 98.859375 68.054688 96.378906 67.222656 93.824219 66.753906 Z M 141.566406 58.570312 C 136.132812 46.421875 128.390625 37.273438 116.875 30.609375 C 116.863281 41.488281 114.25 51.195312 108.90625 60.671875 L 108.90625 60.667969 C 108.582031 61.261719 108.285156 61.871094 108.019531 62.492188 C 111.621094 63.28125 113.867188 63.761719 117.46875 64.570312 L 117.46875 64.605469 L 115.148438 75.039062 C 122.824219 86.871094 131.386719 99.902344 141.722656 109.511719 C 145.019531 101.992188 146.816406 93.902344 147 85.691406 L 147 82.734375 C 146.800781 74.398438 144.953125 66.183594 141.566406 58.5625 Z M 21 85.574219 L 21 86.484375 C 21.121094 94.878906 22.917969 101.78125 26.277344 109.480469 L 26.277344 109.476562 C 31.851562 104.335938 37.027344 98.78125 41.769531 92.863281 C 34.128906 91.644531 27.695312 89.460938 21 85.574219 Z M 82.347656 113.925781 L 79.707031 125.421875 L 79.691406 125.421875 L 71.894531 123.636719 L 74.0625 114.203125 L 69.101562 114.554688 L 67.265625 122.550781 L 67.253906 122.550781 L 59.453125 120.761719 C 59.851562 118.988281 60.242188 117.253906 60.675781 115.507812 C 51.386719 116.769531 42.222656 118.789062 33.269531 121.550781 L 33.269531 121.546875 C 44.921875 137.363281 63.277344 146.847656 82.917969 147.199219 L 85.496094 147.199219 C 104.984375 146.695312 123.15625 137.230469 134.734375 121.546875 C 117.769531 116.324219 100.097656 113.75 82.347656 113.925781 Z M 82.347656 113.925781 "/>
</g>
</svg>
