<?xml version="1.0" encoding="UTF-8"?>
<svg xmlns="http://www.w3.org/2000/svg" xmlns:xlink="http://www.w3.org/1999/xlink" width="168pt" height="168pt" viewBox="0 0 168 168" version="1.1">
<g id="surface491">
<path style=" stroke:none;fill-rule:evenodd;fill:rgb(76.862745%,5.490196%,3.529412%);fill-opacity:1;" d="M 168 84 C 168 130.390625 130.390625 168 84 168 C 37.609375 168 0 130.390625 0 84 C 0 37.609375 37.609375 0 84 0 C 130.390625 0 168 37.609375 168 84 "/>
<path style=" stroke:none;fill-rule:evenodd;fill:rgb(100%,100%,100%);fill-opacity:1;" d="M 116.550781 37.484375 C 117.023438 37.851562 117.449219 38.167969 117.84375 38.507812 C 118.882812 39.425781 119.929688 40.34375 120.941406 41.296875 C 121.746094 42.0625 122.507812 42.882812 123.277344 43.6875 C 123.339844 43.75 123.394531 43.898438 123.371094 43.980469 C 122.898438 45.808594 122.183594 47.53125 121.230469 49.136719 C 120.390625 50.542969 119.425781 51.835938 118.300781 52.996094 C 116.777344 54.570312 115.070312 55.882812 113.203125 56.960938 C 112.390625 57.433594 111.554688 57.851562 110.71875 58.273438 C 108.058594 59.621094 105.222656 60.378906 102.335938 60.914062 C 100.367188 61.28125 98.378906 61.542969 96.398438 61.816406 C 93.792969 62.171875 91.183594 62.460938 88.585938 62.839844 C 84.753906 63.394531 81 64.269531 77.441406 65.921875 C 73.523438 67.742188 70.265625 70.40625 68.050781 74.335938 C 66.574219 76.960938 65.976562 79.820312 66.003906 82.855469 C 66.050781 88.667969 68.039062 93.691406 71.472656 98.160156 C 73.574219 100.890625 75.964844 103.316406 78.488281 105.605469 C 80.230469 107.195312 82.011719 108.738281 83.75 110.332031 C 85.972656 112.378906 88.195312 114.421875 90.101562 116.808594 C 91.097656 118.070312 92.085938 119.359375 92.941406 120.730469 C 94.402344 123.070312 95.5625 125.585938 96.324219 128.28125 C 96.746094 129.75 96.996094 131.246094 97.113281 132.78125 L 97.105469 132.777344 C 97.269531 135.054688 97.070312 137.347656 96.503906 139.5625 C 96.277344 140.472656 96.269531 140.488281 95.371094 140.648438 C 94.105469 140.882812 92.839844 141.125 91.570312 141.332031 C 90.640625 141.472656 89.707031 141.5625 88.773438 141.667969 C 88.449219 141.710938 88.117188 141.726562 87.785156 141.753906 L 87.589844 141.75 C 87.59375 141.675781 87.589844 141.601562 87.609375 141.539062 C 87.894531 140.789062 88.207031 140.046875 88.476562 139.292969 L 88.476562 139.289062 C 89.066406 137.664062 89.464844 135.976562 89.664062 134.257812 C 90.011719 131.238281 89.460938 128.183594 88.074219 125.480469 C 87.109375 123.65625 85.882812 121.980469 84.429688 120.515625 C 82.457031 118.441406 80.28125 116.625 78.101562 114.8125 C 74.464844 111.785156 70.945312 108.617188 67.734375 105.089844 C 65.78125 102.960938 64.003906 100.671875 62.421875 98.253906 C 60.691406 95.644531 59.335938 92.808594 58.390625 89.820312 C 56.945312 85.183594 56.902344 80.21875 58.257812 75.554688 C 59.023438 72.855469 60.058594 70.320312 61.65625 68.046875 C 63.765625 65.039062 66.492188 62.796875 69.617188 61.0625 C 72.765625 59.304688 76.128906 58.148438 79.585938 57.28125 C 82.367188 56.578125 85.1875 56.054688 88.027344 55.707031 C 91.230469 55.320312 94.433594 54.992188 97.636719 54.628906 C 100.25 54.335938 102.851562 53.972656 105.375 53.175781 L 105.371094 53.175781 C 107.671875 52.484375 109.785156 51.277344 111.550781 49.648438 C 113.078125 48.21875 114.210938 46.507812 115.027344 44.546875 C 115.777344 42.734375 116.144531 40.824219 116.414062 38.886719 C 116.472656 38.457031 116.503906 38.015625 116.554688 37.484375 Z M 79.484375 104.820312 C 80.632812 104.59375 81.726562 104.398438 82.8125 104.164062 C 85.605469 103.542969 88.363281 102.800781 90.949219 101.476562 C 93.496094 100.1875 95.761719 98.402344 97.613281 96.226562 C 99.503906 93.988281 101.050781 91.527344 101.859375 88.609375 C 102.367188 86.761719 102.546875 84.839844 102.386719 82.929688 C 102.054688 79.042969 100.730469 75.304688 98.53125 72.082031 C 96.875 69.644531 94.972656 67.378906 92.863281 65.320312 C 92.496094 64.949219 92.105469 64.585938 91.734375 64.21875 C 91.683594 64.167969 91.640625 64.101562 91.5625 64.007812 L 93.558594 63.699219 L 97.878906 63.042969 C 98.636719 62.925781 99.390625 62.800781 100.148438 62.703125 C 100.238281 62.691406 100.363281 62.792969 100.4375 62.871094 C 101.78125 64.4375 103.15625 65.96875 104.449219 67.582031 C 106.128906 69.671875 107.546875 71.960938 108.703125 74.429688 C 109.726562 76.628906 110.476562 78.917969 110.84375 81.34375 C 111.101562 83.039062 111.210938 84.75 111.039062 86.460938 C 110.535156 91.253906 109.113281 95.691406 106.304688 99.566406 C 104.5625 101.976562 102.414062 103.925781 99.996094 105.550781 L 99.984375 105.546875 C 97.167969 107.40625 94.101562 108.859375 90.878906 109.867188 C 89.5 110.308594 88.101562 110.6875 86.710938 111.074219 C 86.578125 111.105469 86.441406 111.074219 86.335938 110.996094 C 84.09375 109 81.863281 106.992188 79.632812 104.984375 C 79.589844 104.953125 79.558594 104.90625 79.492188 104.828125 Z M 90.59375 53.90625 L 87.210938 54.429688 L 83.378906 55.023438 C 82.933594 55.097656 82.480469 55.179688 82.023438 55.226562 L 82.027344 55.230469 C 81.859375 55.242188 81.691406 55.191406 81.5625 55.082031 C 80.089844 53.726562 78.71875 52.261719 77.464844 50.699219 C 76.78125 49.832031 76.089844 48.964844 75.484375 48.039062 C 73.4375 44.867188 71.835938 41.480469 71.160156 37.675781 C 70.554688 34.425781 70.730469 31.078125 71.671875 27.910156 C 71.730469 27.699219 71.792969 27.59375 72.039062 27.546875 C 73.445312 27.304688 74.835938 26.992188 76.238281 26.757812 C 77.394531 26.574219 78.570312 26.480469 79.734375 26.34375 L 80.691406 26.25 C 80.605469 26.4375 80.558594 26.566406 80.503906 26.675781 C 79.5 28.730469 78.808594 30.925781 78.449219 33.183594 C 77.976562 36.273438 78.472656 39.433594 79.875 42.226562 C 81.035156 44.5625 82.621094 46.542969 84.417969 48.367188 C 86.285156 50.257812 88.3125 51.957031 90.34375 53.652344 C 90.417969 53.714844 90.480469 53.785156 90.601562 53.90625 Z M 73.929688 113.167969 L 71.691406 113.402344 C 70.746094 113.507812 69.800781 113.582031 68.855469 113.726562 C 67.402344 113.953125 65.941406 114.171875 64.503906 114.492188 C 59.238281 115.65625 55.136719 118.449219 52.902344 123.820312 L 52.902344 123.828125 C 52.085938 125.785156 51.472656 127.824219 51.082031 129.910156 C 51.066406 130.003906 51.035156 130.097656 50.992188 130.265625 C 50.691406 130.035156 50.414062 129.84375 50.164062 129.625 C 49.113281 128.691406 48.070312 127.765625 47.046875 126.8125 C 46.304688 126.121094 45.609375 125.378906 44.875 124.675781 C 44.628906 124.441406 44.582031 124.203125 44.671875 123.867188 L 44.667969 123.867188 C 45.660156 120.277344 47.621094 117.027344 50.332031 114.472656 C 52.082031 112.84375 54.042969 111.460938 56.160156 110.351562 C 59.132812 108.722656 62.308594 107.789062 65.5625 107.085938 C 65.941406 107.007812 66.328125 106.964844 66.695312 106.867188 C 66.925781 106.804688 67.078125 106.867188 67.242188 107.019531 L 70.277344 109.796875 L 73.644531 112.890625 L 73.640625 112.886719 C 73.742188 112.976562 73.839844 113.070312 73.929688 113.167969 Z M 96.644531 90.183594 C 96.382812 90.121094 96.121094 90.0625 95.867188 89.984375 L 77.75 84.320312 C 75.425781 83.597656 73.105469 82.875 70.785156 82.148438 C 69.894531 81.871094 69.4375 81.140625 69.503906 80.394531 C 69.597656 79.292969 69.964844 78.527344 71 78.320312 C 71.285156 78.277344 71.578125 78.300781 71.851562 78.394531 C 73.816406 79 75.773438 79.628906 77.730469 80.238281 L 91.597656 84.5625 L 97.125 86.277344 C 97.980469 86.515625 98.53125 87.339844 98.421875 88.222656 C 98.269531 89.394531 97.570312 90.15625 96.648438 90.1875 Z M 58.371094 124.289062 C 58.539062 124.332031 58.738281 124.367188 58.933594 124.425781 L 84.160156 132.300781 C 85.027344 132.574219 85.539062 133.296875 85.460938 134.148438 C 85.359375 135.292969 84.761719 136.054688 83.863281 136.132812 L 83.867188 136.132812 C 83.589844 136.144531 83.3125 136.105469 83.050781 136.015625 C 76.09375 133.851562 69.144531 131.679688 62.191406 129.503906 C 60.742188 129.050781 59.292969 128.613281 57.851562 128.15625 C 57.042969 127.898438 56.507812 127.210938 56.566406 126.421875 C 56.652344 125.382812 57.035156 124.589844 57.964844 124.351562 C 58.085938 124.316406 58.21875 124.308594 58.386719 124.285156 Z M 111.558594 41.527344 C 111.480469 41.757812 111.375 42.242188 111.148438 42.644531 C 110.78125 43.304688 110.03125 43.554688 109.289062 43.320312 L 97.125 39.523438 C 92.773438 38.164062 88.421875 36.804688 84.0625 35.453125 C 83.320312 35.222656 82.769531 34.785156 82.6875 33.945312 C 82.59375 33 83.027344 31.734375 84.269531 31.59375 C 84.503906 31.578125 84.738281 31.609375 84.960938 31.6875 L 110.246094 39.578125 C 111.085938 39.839844 111.558594 40.460938 111.558594 41.527344 Z M 75.253906 75.457031 C 75.304688 74.371094 75.777344 73.550781 76.628906 73.382812 C 76.964844 73.324219 77.308594 73.347656 77.632812 73.449219 C 80.183594 74.226562 82.726562 75.03125 85.277344 75.828125 L 94.894531 78.820312 L 94.894531 78.816406 C 95.777344 79.0625 96.332031 79.941406 96.175781 80.84375 C 95.980469 82.050781 95.261719 82.785156 94.285156 82.679688 C 93.785156 82.617188 93.296875 82.417969 92.804688 82.265625 L 80.300781 78.359375 L 76.53125 77.183594 L 76.527344 77.183594 C 75.75 76.980469 75.21875 76.261719 75.253906 75.457031 Z M 73.511719 85.378906 C 73.847656 85.46875 74.101562 85.515625 74.347656 85.589844 L 90.203125 90.546875 C 90.640625 90.683594 91.078125 90.808594 91.515625 90.949219 C 92.488281 91.265625 92.960938 92.167969 92.707031 93.195312 C 92.511719 94.007812 92.125 94.632812 91.285156 94.777344 L 91.28125 94.777344 C 91.007812 94.816406 90.726562 94.792969 90.460938 94.710938 C 88.445312 94.097656 86.433594 93.460938 84.421875 92.832031 C 80.679688 91.667969 76.941406 90.496094 73.203125 89.339844 C 72.511719 89.125 71.984375 88.710938 71.871094 87.949219 C 71.738281 87.105469 71.960938 86.320312 72.636719 85.78125 C 72.898438 85.578125 73.246094 85.503906 73.507812 85.386719 Z M 58.902344 133.609375 C 58.976562 132.476562 59.46875 131.589844 60.492188 131.476562 L 60.492188 131.480469 C 60.714844 131.457031 60.941406 131.480469 61.15625 131.550781 C 66.972656 133.363281 72.789062 135.171875 78.605469 136.996094 C 79.539062 137.289062 79.996094 138.214844 79.761719 139.199219 C 79.5625 140.039062 79.132812 140.628906 78.308594 140.816406 C 78.15625 140.859375 77.992188 140.863281 77.835938 140.824219 L 61.523438 135.730469 C 61.046875 135.578125 60.5625 135.4375 60.078125 135.277344 L 60.082031 135.28125 C 59.363281 135.042969 58.886719 134.367188 58.898438 133.613281 Z M 64.136719 119.328125 C 64.292969 119.371094 64.503906 119.40625 64.707031 119.46875 L 81.933594 124.84375 C 82.773438 125.105469 83.296875 125.839844 83.234375 126.660156 C 83.144531 127.785156 82.566406 128.554688 81.6875 128.664062 L 81.683594 128.671875 C 81.386719 128.695312 81.085938 128.660156 80.804688 128.5625 C 76.160156 127.117188 71.511719 125.660156 66.871094 124.203125 C 65.761719 123.863281 64.648438 123.519531 63.546875 123.167969 C 62.738281 122.90625 62.25 122.238281 62.320312 121.410156 C 62.40625 120.328125 62.824219 119.625 63.726562 119.390625 C 63.84375 119.359375 63.960938 119.359375 64.136719 119.339844 Z M 104.152344 48.128906 C 103.585938 47.960938 103.035156 47.808594 102.484375 47.636719 C 97.09375 45.957031 91.699219 44.261719 86.304688 42.574219 C 85.226562 42.234375 84.792969 41.367188 85.085938 40.222656 C 85.269531 39.492188 85.648438 38.96875 86.355469 38.804688 L 86.351562 38.808594 C 86.664062 38.738281 86.988281 38.75 87.296875 38.839844 C 92.074219 40.316406 96.855469 41.8125 101.640625 43.300781 C 102.664062 43.617188 103.683594 43.941406 104.707031 44.261719 C 105.507812 44.519531 106.007812 45.316406 105.890625 46.152344 C 105.800781 46.84375 105.605469 47.515625 104.945312 47.859375 C 104.699219 47.984375 104.421875 48.039062 104.148438 48.132812 Z M 109.3125 33.953125 C 109.210938 34.652344 109.023438 35.414062 108.226562 35.800781 L 108.222656 35.804688 C 107.816406 35.988281 107.355469 36 106.9375 35.839844 L 94.519531 31.953125 L 89.671875 30.429688 C 88.652344 30.113281 88.210938 29.234375 88.492188 28.144531 C 88.679688 27.402344 89.039062 26.832031 89.777344 26.675781 L 89.78125 26.679688 C 90.105469 26.617188 90.441406 26.636719 90.757812 26.734375 C 94.023438 27.742188 97.285156 28.769531 100.542969 29.789062 L 108.023438 32.121094 C 108.835938 32.378906 109.316406 33.011719 109.308594 33.957031 Z M 109.3125 33.953125 "/>
</g>
</svg>
