<?xml version="1.0" encoding="UTF-8"?>
<svg xmlns="http://www.w3.org/2000/svg" xmlns:xlink="http://www.w3.org/1999/xlink" width="168pt" height="168pt" viewBox="0 0 168 168" version="1.1">
<g id="surface1501">
<path style=" stroke:none;fill-rule:evenodd;fill:rgb(12.54902%,50.196078%,63.529412%);fill-opacity:1;" d="M 168 84 C 168 130.390625 130.390625 168 84 168 C 37.609375 168 0 130.390625 0 84 C 0 37.609375 37.609375 0 84 0 C 130.390625 0 168 37.609375 168 84 "/>
<path style=" stroke:none;fill-rule:evenodd;fill:rgb(100%,100%,100%);fill-opacity:1;" d="M 83.894531 106.558594 C 77.882812 113.421875 77.734375 122.832031 83.960938 129.101562 C 89.847656 123.429688 89.851562 112.863281 83.894531 106.558594 M 83.898438 42.550781 C 69.695312 58.972656 70.234375 78.386719 83.886719 94.519531 C 97.789062 78.054688 97.824219 58.734375 83.898438 42.542969 M 93.9375 89.929688 C 105.75 77.855469 120.160156 75.09375 136.5 77.707031 C 131.234375 89.78125 123.804688 99.425781 110.679688 104.472656 C 113.578125 102.199219 116.21875 100.339844 118.605469 98.210938 C 122.59375 94.65625 125.421875 90.351562 126.832031 85.179688 C 127.277344 83.546875 126.699219 83.085938 125.199219 82.84375 C 119.703125 81.960938 114.542969 83.117188 109.613281 85.363281 C 101.316406 89.144531 94.5625 94.964844 88.226562 101.292969 C 88.117188 101.410156 88.070312 101.578125 87.871094 101.9375 C 100.289062 102.410156 109.742188 107.367188 115.34375 118.816406 C 108.066406 120.433594 101.410156 120.09375 95.234375 116.125 C 99.886719 117.554688 104.527344 118.59375 109.621094 116.175781 C 108.992188 115.125 108.625 113.898438 107.785156 113.210938 C 105.492188 111.335938 103.140625 109.441406 100.539062 108.011719 C 96.523438 105.816406 92.035156 104.789062 87.066406 103.769531 C 93.769531 115.515625 92.089844 126.175781 83.894531 136.496094 C 80.082031 131.691406 77.417969 126.667969 76.6875 120.734375 C 75.953125 114.78125 77.628906 109.375 80.5 104.195312 C 74.148438 103.175781 60.441406 110.53125 58.320312 116.203125 C 63.238281 118.691406 68.039062 117.558594 72.976562 115.71875 C 69.425781 119.371094 59.195312 120.867188 52.523438 118.667969 C 58.0625 107.378906 67.46875 102.410156 80.164062 101.9375 C 79.230469 100.992188 78.535156 100.261719 77.8125 99.566406 C 72.53125 94.472656 66.917969 89.800781 60.324219 86.398438 C 54.933594 83.617188 49.277344 81.871094 43.066406 82.800781 C 42.332031 82.910156 41.601562 83.089844 40.574219 83.300781 C 42.464844 93.011719 48.972656 99.035156 57.027344 104.113281 C 48.5625 103.09375 34.28125 88.304688 31.5 77.691406 C 47.828125 75.046875 62.316406 77.945312 74.078125 90.285156 C 64.351562 68.617188 69.527344 49.441406 83.894531 31.5 C 98.148438 49.296875 103.378906 68.339844 93.9375 89.933594 "/>
</g>
</svg>
