<?xml version="1.0" encoding="UTF-8"?>
<svg xmlns="http://www.w3.org/2000/svg" xmlns:xlink="http://www.w3.org/1999/xlink" width="168pt" height="168pt" viewBox="0 0 168 168" version="1.1">
<g id="surface1146">
<path style=" stroke:none;fill-rule:nonzero;fill:rgb(16.862745%,38.039216%,81.960784%);fill-opacity:1;" d="M 168 84 C 168 130.390625 130.390625 168 84 168 C 37.609375 168 0 130.390625 0 84 C 0 37.609375 37.609375 0 84 0 C 130.390625 0 168 37.609375 168 84 "/>
<path style=" stroke:none;fill-rule:nonzero;fill:rgb(100%,100%,100%);fill-opacity:1;" d="M 94.304688 135.777344 L 84 141.75 L 61.855469 128.929688 L 71.910156 123.109375 L 72.164062 122.960938 L 72.546875 123.179688 Z M 133.875 55.125 L 133.875 67.140625 L 112.078125 54.523438 L 106.167969 51.101562 L 100.257812 54.523438 L 72.546875 70.5625 L 66.636719 73.984375 L 66.636719 81.0625 L 55.980469 74.886719 L 50.0625 71.464844 L 44.152344 74.886719 L 34.125 80.699219 L 34.125 55.125 L 84 26.25 Z M 133.875 55.125 "/>
<path style=" stroke:none;fill-rule:nonzero;fill:rgb(100%,100%,100%);fill-opacity:1;" d="M 133.875 80.835938 L 133.875 112.917969 L 106.164062 128.960938 L 106.128906 128.941406 L 78.460938 112.917969 L 78.460938 80.839844 L 106.164062 64.785156 Z M 65.996094 94.390625 L 65.996094 112.839844 L 50.0625 122.0625 L 34.125 112.839844 L 34.125 94.390625 L 50.0625 85.160156 Z M 65.996094 94.390625 "/>
</g>
</svg>
