<?xml version="1.0" encoding="UTF-8"?>
<svg xmlns="http://www.w3.org/2000/svg" xmlns:xlink="http://www.w3.org/1999/xlink" width="168pt" height="168pt" viewBox="0 0 168 168" version="1.1">
<g id="surface2169">
<path style=" stroke:none;fill-rule:evenodd;fill:rgb(11.372549%,60.392157%,84.313725%);fill-opacity:1;" d="M 168 84 C 168 130.390625 130.390625 168 84 168 C 37.609375 168 0 130.390625 0 84 C 0 37.609375 37.609375 0 84 0 C 130.390625 0 168 37.609375 168 84 "/>
<path style=" stroke:none;fill-rule:evenodd;fill:rgb(100%,100%,100%);fill-opacity:1;" d="M 136.5 64.113281 C 131.203125 58.578125 120.320312 53.949219 100.023438 51.109375 C 93.625 50.210938 87.199219 49.515625 80.753906 49.015625 C 75.75 48.714844 70.894531 48.417969 66.191406 48.417969 C 58.394531 60.074219 51.039062 74.128906 44.566406 91.015625 C 37.507812 109.546875 31.183594 127.785156 26.773438 144.375 L 25.449219 144.375 C 25.890625 126.589844 28.832031 106.414062 34.863281 85.484375 C 38.835938 71.886719 43.542969 59.921875 48.839844 49.464844 C 25.003906 52.003906 7.941406 59.328125 0.00390625 69.789062 C 6.769531 53.199219 26.921875 39.148438 57.664062 34.21875 C 73.992188 9.851562 93.257812 -1.0625 109.292969 3.726562 C 114.878906 5.371094 119.589844 8.957031 123.414062 14.039062 C 122.96875 13.738281 122.527344 13.441406 121.945312 13.292969 C 110.175781 8.511719 94.289062 15.382812 78.84375 32.425781 L 79.578125 32.425781 C 114.144531 32.277344 131.648438 46.925781 136.503906 64.113281 Z M 93.253906 86.53125 C 102.667969 86.53125 110.316406 94.453125 110.316406 104.171875 C 110.316406 113.882812 102.667969 121.804688 93.253906 121.804688 C 83.839844 121.804688 76.191406 113.882812 76.191406 104.164062 C 76.191406 94.304688 83.839844 86.53125 93.253906 86.53125 Z M 93.253906 86.53125 "/>
</g>
</svg>
