<?xml version="1.0" encoding="UTF-8"?>
<svg xmlns="http://www.w3.org/2000/svg" xmlns:xlink="http://www.w3.org/1999/xlink" width="168pt" height="168pt" viewBox="0 0 168 168" version="1.1">
<g id="surface571">
<path style=" stroke:none;fill-rule:nonzero;fill:rgb(15.294118%,19.607843%,22.745098%);fill-opacity:1;" d="M 168 84 C 168 130.390625 130.390625 168 84 168 C 37.609375 168 0 130.390625 0 84 C 0 37.609375 37.609375 0 84 0 C 130.390625 0 168 37.609375 168 84 "/>
<path style=" stroke:none;fill-rule:nonzero;fill:rgb(100%,100%,100%);fill-opacity:1;" d="M 129.164062 31.5 C 129.164062 31.5 137.8125 39.1875 131.671875 54.824219 L 131.675781 54.824219 C 130.507812 57.699219 128.886719 60.371094 126.875 62.730469 L 105.535156 87.773438 L 88.410156 110.128906 C 88.410156 110.128906 68.742188 106.894531 61.101562 114.828125 L 93.515625 116.265625 C 93.515625 116.265625 86.597656 123.839844 59.285156 118.417969 C 59.285156 118.417969 59.652344 126.019531 72.039062 128.183594 C 72.039062 128.183594 61.101562 131.800781 54.546875 121.320312 C 54.546875 121.320312 54.546875 128.921875 62.191406 132.15625 C 62.191406 132.15625 55.996094 133.59375 50.894531 127.101562 L 42.15625 136.46875 C 42.15625 136.46875 40.34375 136.832031 41.433594 135.035156 L 48.714844 126.382812 C 48.714844 126.382812 49.4375 120.246094 45.0625 122.402344 C 45.0625 122.402344 42.160156 123.480469 43.246094 126.738281 C 43.246094 126.738281 38.867188 123.148438 43.976562 118.449219 L 34.125 108.695312 L 46.871094 115.546875 L 41.40625 102.195312 L 50.5 113.75 C 50.5 113.75 49.742188 100.761719 53.765625 97.164062 C 53.765625 97.164062 54.851562 109.796875 59.960938 110.878906 L 59.59375 84.535156 L 65.0625 79.839844 L 65.785156 96.417969 C 65.785156 96.417969 67.234375 98.214844 68.683594 96.0625 C 68.683594 96.0625 71.976562 90.644531 71.976562 74.777344 L 80.707031 66.480469 L 81.800781 72.980469 C 81.800781 72.980469 83.277344 75.496094 85.09375 73.335938 L 86.90625 60.710938 C 86.90625 60.710938 98.5625 47.359375 129.167969 31.496094 Z M 70.890625 104.738281 C 101.097656 76.964844 117.144531 49.90625 117.113281 49.90625 C 102.191406 60.355469 70.890625 104.742188 70.890625 104.742188 Z M 70.890625 104.738281 "/>
</g>
</svg>
