<?xml version="1.0" encoding="UTF-8"?>
<svg xmlns="http://www.w3.org/2000/svg" xmlns:xlink="http://www.w3.org/1999/xlink" width="168pt" height="168pt" viewBox="0 0 168 168" version="1.1">
<g id="surface1934">
<path style=" stroke:none;fill-rule:nonzero;fill:rgb(25.098039%,58.823529%,81.568627%);fill-opacity:1;" d="M 168 84 C 168 130.390625 130.390625 168 84 168 C 37.609375 168 0 130.390625 0 84 C 0 37.609375 37.609375 0 84 0 C 130.390625 0 168 37.609375 168 84 "/>
<path style=" stroke:none;fill-rule:nonzero;fill:rgb(100%,100%,100%);fill-opacity:1;" d="M 134.042969 52.5 L 99.945312 52.5 L 89.832031 77.859375 L 57.945312 77.859375 L 57.945312 64.800781 L 89.832031 64.800781 L 94.5 52.5 L 46.210938 52.5 C 44.964844 52.496094 43.949219 53.496094 43.941406 54.742188 L 43.941406 77.851562 L 36.171875 77.851562 L 31.5 90.148438 L 43.941406 90.148438 L 43.941406 113.234375 C 43.941406 114.484375 44.96875 115.503906 46.242188 115.503906 L 69.609375 115.503906 L 74.277344 103.214844 L 57.945312 103.214844 L 57.945312 90.140625 L 84.390625 90.140625 L 74.277344 115.5 L 89.832031 115.5 L 100.71875 90.140625 L 134.214844 90.140625 C 135.476562 90.140625 136.5 89.132812 136.5 87.886719 L 136.5 54.917969 L 136.5 54.921875 C 136.488281 53.574219 135.390625 52.492188 134.042969 52.5 Z M 123.28125 75.914062 C 123.28125 76.984375 122.40625 77.855469 121.316406 77.855469 L 105.386719 77.855469 L 110.832031 64.804688 L 121.304688 64.804688 C 122.386719 64.792969 123.269531 65.660156 123.285156 66.738281 Z M 123.28125 75.914062 "/>
</g>
</svg>
