<?xml version="1.0" encoding="UTF-8"?>
<svg xmlns="http://www.w3.org/2000/svg" xmlns:xlink="http://www.w3.org/1999/xlink" width="168pt" height="168pt" viewBox="0 0 168 168" version="1.1">
<g id="surface2034">
<path style=" stroke:none;fill-rule:evenodd;fill:rgb(92.941176%,9.803922%,40.784314%);fill-opacity:1;" d="M 168 84 C 168 130.390625 130.390625 168 84 168 C 37.609375 168 0 130.390625 0 84 C 0 37.609375 37.609375 0 84 0 C 130.390625 0 168 37.609375 168 84 "/>
<path style=" stroke:none;fill-rule:nonzero;fill:rgb(100%,100%,100%);fill-opacity:1;" d="M 66.675781 141.226562 C 59.96875 139.367188 53.714844 136.148438 48.300781 131.773438 C 42.964844 127.667969 38.351562 122.699219 34.648438 117.074219 C 30.703125 111.160156 27.855469 104.578125 26.25 97.648438 C 24.410156 89.351562 24.410156 80.75 26.25 72.449219 C 27.816406 65.429688 30.472656 58.699219 34.125 52.5 C 39.46875 43.921875 47.109375 37.011719 56.175781 32.550781 C 59.359375 30.835938 62.699219 29.429688 66.148438 28.351562 C 71.398438 34.652344 76.648438 41.476562 81.898438 48.300781 C 82.421875 49.351562 83.472656 49.875 84 50.925781 C 78.734375 51.144531 73.5625 52.394531 68.773438 54.601562 C 64.542969 56.8125 60.796875 59.847656 57.75 63.523438 C 54.753906 67.484375 52.445312 71.921875 50.925781 76.648438 C 49.523438 82.367188 49.703125 88.355469 51.449219 93.976562 L 74.023438 76.125 C 79.273438 82.949219 84.523438 89.25 89.773438 96.074219 C 82.421875 101.847656 74.546875 107.625 67.199219 113.925781 C 74.550781 123.375 82.425781 133.351562 89.773438 143.324219 C 82.011719 144.242188 74.144531 143.527344 66.675781 141.226562 Z M 116.707031 77.628906 L 116.707031 77.625 C 116.515625 76.765625 116.285156 75.914062 116.023438 75.074219 C 115.316406 75.628906 99.695312 87.570312 93.449219 92.925781 C 88.199219 86.101562 82.949219 79.800781 77.699219 72.976562 C 85.050781 67.203125 92.925781 61.425781 100.273438 55.125 C 92.921875 45.675781 85.574219 36.226562 77.699219 26.25 C 77.699219 25.726562 77.175781 25.726562 77.175781 25.199219 L 84.527344 25.199219 L 84.523438 25.199219 C 97.992188 25.324219 110.992188 30.152344 121.273438 38.851562 C 126.285156 42.992188 130.550781 47.964844 133.875 53.550781 C 137.792969 59.5625 140.304688 66.382812 141.226562 73.5 C 142.632812 81.683594 142.453125 90.058594 140.699219 98.175781 C 139.195312 104.976562 136.339844 111.402344 132.300781 117.074219 C 128.773438 122.519531 124.332031 127.316406 119.175781 131.25 C 114.152344 135.613281 108.238281 138.839844 101.851562 140.699219 C 97.125 134.925781 92.925781 129.675781 88.726562 123.898438 C 87.15625 122.105469 85.75 120.171875 84.523438 118.125 C 94.59375 118.160156 104.105469 113.5 110.25 105.523438 C 113.273438 101.65625 115.421875 97.179688 116.550781 92.398438 C 117.527344 88.414062 117.578125 83.488281 116.707031 77.625 Z M 91.910156 121.585938 C 95.539062 126.535156 99.300781 131.386719 103.199219 136.128906 C 108.1875 134.324219 112.792969 131.609375 116.785156 128.121094 C 121.628906 124.421875 125.792969 119.910156 129.09375 114.785156 C 132.824219 109.550781 135.460938 103.621094 136.851562 97.34375 C 138.5 89.722656 138.664062 81.851562 137.324219 74.003906 C 136.464844 67.421875 134.128906 61.117188 130.492188 55.566406 C 127.390625 50.355469 123.410156 45.71875 118.734375 41.859375 C 109.285156 33.863281 97.367188 29.375 84.992188 29.144531 C 89.859375 35.339844 94.789062 41.65625 103.382812 52.710938 L 105.691406 55.671875 L 102.835938 58.113281 C 99.101562 61.289062 95.289062 64.371094 91.402344 67.359375 C 91.035156 67.648438 86.574219 71.078125 83.222656 73.667969 C 84.601562 75.425781 86.203125 77.433594 88.652344 80.492188 C 91.066406 83.511719 92.667969 85.523438 94.050781 87.28125 C 96.488281 85.269531 99.144531 83.160156 102.324219 80.691406 C 102.839844 80.292969 111.226562 73.835938 113.597656 71.976562 L 118.089844 68.441406 L 119.785156 73.902344 C 121.742188 80.195312 121.949219 86.902344 120.382812 93.304688 C 119.128906 98.628906 116.734375 103.617188 113.367188 107.929688 C 108.015625 114.878906 100.324219 119.648438 91.722656 121.363281 L 91.910156 121.582031 Z M 91.910156 121.585938 "/>
</g>
</svg>
