<?xml version="1.0" encoding="UTF-8"?>
<svg xmlns="http://www.w3.org/2000/svg" xmlns:xlink="http://www.w3.org/1999/xlink" width="168pt" height="168pt" viewBox="0 0 168 168" version="1.1">
<g id="surface1326">
<path style=" stroke:none;fill-rule:evenodd;fill:rgb(17.647059%,27.843137%,35.686275%);fill-opacity:1;" d="M 168 84 C 168 130.390625 130.390625 168 84 168 C 37.609375 168 0 130.390625 0 84 C 0 37.609375 37.609375 0 84 0 C 130.390625 0 168 37.609375 168 84 "/>
<path style=" stroke:none;fill-rule:nonzero;fill:rgb(100%,100%,100%);fill-opacity:1;" d="M 67.5625 66.597656 L 125.757812 66.597656 L 125.757812 79.660156 L 67.5625 79.660156 Z M 125.757812 88.355469 L 126 88.351562 L 126 122.703125 C 126 122.703125 80.601562 155.59375 45.34375 119.804688 C 45.34375 119.804688 26.023438 100.210938 33.027344 71.671875 C 33.027344 71.671875 38.582031 36.125 80.84375 31.773438 C 80.84375 31.773438 106.921875 28.140625 123.824219 47.492188 L 113.679688 57.402344 C 113.679688 57.402344 92.1875 35.152344 63.453125 52.574219 C 63.453125 52.574219 40.027344 65.632812 49.6875 98.523438 C 49.6875 98.523438 60.3125 127.0625 93.636719 121.257812 C 93.636719 121.257812 104.988281 118.675781 110.785156 113.675781 L 110.785156 101.417969 L 67.566406 101.414062 L 67.566406 88.351562 Z M 125.757812 88.355469 "/>
</g>
</svg>
