<?xml version="1.0" encoding="UTF-8"?>
<svg xmlns="http://www.w3.org/2000/svg" xmlns:xlink="http://www.w3.org/1999/xlink" width="168pt" height="168pt" viewBox="0 0 168 168" version="1.1">
<g id="surface481">
<path style=" stroke:none;fill-rule:evenodd;fill:rgb(34.509804%,74.901961%,0%);fill-opacity:1;" d="M 168 84 C 168 130.390625 130.390625 168 84 168 C 37.609375 168 0 130.390625 0 84 C 0 37.609375 37.609375 0 84 0 C 130.390625 0 168 37.609375 168 84 "/>
<path style=" stroke:none;fill-rule:nonzero;fill:rgb(100%,100%,100%);fill-opacity:1;" d="M 131.25 118.546875 L 94.550781 101.441406 L 94.550781 63.535156 L 131.25 50.519531 Z M 77.820312 136.5 L 42 119.808594 L 42 52.28125 L 77.820312 68.976562 Z M 130.371094 48.074219 L 129.777344 48.285156 L 94.550781 60.785156 L 93.667969 61.101562 L 78.742188 66.394531 L 43.410156 49.929688 L 93.667969 32.101562 L 94.109375 31.945312 L 95.039062 31.613281 L 95.363281 31.503906 L 130.695312 47.96875 L 130.363281 48.078125 Z M 130.371094 48.074219 "/>
</g>
</svg>
