<?xml version="1.0" encoding="UTF-8"?>
<svg xmlns="http://www.w3.org/2000/svg" xmlns:xlink="http://www.w3.org/1999/xlink" width="168pt" height="168pt" viewBox="0 0 168 168" version="1.1">
<g id="surface1151">
<path style=" stroke:none;fill-rule:evenodd;fill:rgb(73.72549%,24.705882%,87.843137%);fill-opacity:1;" d="M 168 84 C 168 130.390625 130.390625 168 84 168 C 37.609375 168 0 130.390625 0 84 C 0 37.609375 37.609375 0 84 0 C 130.390625 0 168 37.609375 168 84 "/>
<path style=" stroke:none;fill-rule:evenodd;fill:rgb(100%,100%,100%);fill-opacity:1;" d="M 58.207031 77.777344 L 58.207031 65.535156 C 58.207031 46.234375 69.855469 34.125 90.101562 34.125 C 105.496094 34.125 114.09375 40.644531 120.75 49.035156 L 107.714844 59.011719 C 102.722656 52.894531 98.003906 49.300781 90.242188 49.300781 C 80.949219 49.300781 75.402344 55.691406 75.402344 65.941406 L 75.402344 77.78125 L 109.9375 77.78125 L 109.9375 91.625 L 75.402344 91.625 L 75.402344 114.382812 L 120.472656 114.382812 L 120.472656 128.625 L 47.25 128.625 L 47.25 118.246094 L 58.207031 115.050781 L 58.207031 91.625 L 47.25 91.621094 L 47.25 77.777344 Z M 58.207031 77.777344 "/>
</g>
</svg>
