<?xml version="1.0" encoding="UTF-8"?>
<svg xmlns="http://www.w3.org/2000/svg" xmlns:xlink="http://www.w3.org/1999/xlink" width="168pt" height="168pt" viewBox="0 0 168 168" version="1.1">
<g id="surface546">
<path style=" stroke:none;fill-rule:evenodd;fill:rgb(8.627451%,40%,68.627451%);fill-opacity:1;" d="M 168 84 C 168 130.390625 130.390625 168 84 168 C 37.609375 168 0 130.390625 0 84 C 0 37.609375 37.609375 0 84 0 C 130.390625 0 168 37.609375 168 84 "/>
<path style=" stroke:none;fill-rule:nonzero;fill:rgb(100%,100%,100%);fill-opacity:1;" d="M 82.417969 57.78125 L 82.417969 68.597656 L 57.742188 68.597656 C 54.539062 68.597656 50.597656 69.722656 47.664062 71.800781 C 44.027344 74.382812 41.992188 78.253906 41.992188 84.015625 C 41.992188 89.78125 44.023438 93.648438 47.664062 96.230469 C 50.597656 98.308594 54.542969 99.433594 57.742188 99.433594 L 68.242188 99.433594 L 68.246094 110.25 L 57.746094 110.25 C 52.007812 110.195312 46.421875 108.414062 41.710938 105.140625 C 35.265625 100.5625 31.5 93.390625 31.5 84.015625 C 31.5 74.640625 35.265625 67.46875 41.710938 62.890625 C 46.421875 59.617188 52.003906 57.839844 57.738281 57.78125 Z M 56.167969 90.238281 L 56.167969 79.421875 L 82.417969 79.421875 L 82.417969 110.25 L 71.925781 110.25 L 71.925781 90.238281 Z M 99.75 68.566406 L 99.75 57.75 L 136.5 57.75 L 136.5 110.25 L 89.238281 110.25 L 89.238281 68.601562 L 99.738281 68.601562 L 99.738281 99.429688 L 126 99.429688 L 126 68.570312 Z M 99.75 68.566406 "/>
</g>
</svg>
