<?xml version="1.0" encoding="UTF-8"?>
<svg xmlns="http://www.w3.org/2000/svg" xmlns:xlink="http://www.w3.org/1999/xlink" width="168pt" height="168pt" viewBox="0 0 168 168" version="1.1">
<g id="surface41">
<path style=" stroke:none;fill-rule:nonzero;fill:rgb(93.72549%,72.54902%,7.843137%);fill-opacity:1;" d="M 168 84 C 168 130.390625 130.390625 168 84 168 C 37.609375 168 0 130.390625 0 84 C 0 37.609375 37.609375 0 84 0 C 130.390625 0 168 37.609375 168 84 "/>
<path style=" stroke:none;fill-rule:evenodd;fill:rgb(100%,100%,100%);fill-opacity:1;" d="M 110.261719 51.738281 C 119.144531 58.707031 124.820312 68.980469 126 80.210938 L 111.054688 76.492188 C 108.191406 66.933594 100.480469 59.609375 90.789062 57.242188 C 75.742188 53.5 60.550781 62.445312 56.847656 77.222656 C 53.144531 92 62.359375 107.015625 77.410156 110.757812 C 87.089844 113.203125 97.34375 110.347656 104.363281 103.25 L 119.308594 106.960938 L 119.3125 106.964844 C 112.984375 116.328125 103.136719 122.738281 92.011719 124.734375 L 87.757812 141.75 L 74.128906 138.363281 L 77.511719 124.84375 C 75.199219 124.464844 72.917969 123.898438 70.695312 123.148438 L 67.320312 136.667969 L 53.691406 133.277344 L 57.945312 116.261719 C 45.460938 106.417969 39.175781 90.03125 43.222656 73.835938 C 47.269531 57.640625 60.53125 46.109375 76.191406 43.265625 L 80.445312 26.25 L 94.074219 29.636719 L 90.691406 43.15625 L 90.695312 43.15625 C 93.007812 43.535156 95.285156 44.101562 97.507812 44.851562 L 100.882812 31.332031 L 114.511719 34.722656 Z M 110.261719 51.738281 "/>
</g>
</svg>
