<?xml version="1.0" encoding="UTF-8"?>
<svg xmlns="http://www.w3.org/2000/svg" xmlns:xlink="http://www.w3.org/1999/xlink" width="168pt" height="168pt" viewBox="0 0 168 168" version="1.1">
<g id="surface936">
<path style=" stroke:none;fill-rule:nonzero;fill:rgb(0%,55.294118%,87.058824%);fill-opacity:1;" d="M 168 84 C 168 130.390625 130.390625 168 84 168 C 37.609375 168 0 130.390625 0 84 C 0 37.609375 37.609375 0 84 0 C 130.390625 0 168 37.609375 168 84 "/>
<path style=" stroke:none;fill-rule:nonzero;fill:rgb(100%,100%,100%);fill-opacity:1;" d="M 126.152344 90.960938 C 127.1875 91 128.195312 90.613281 128.941406 89.894531 C 129.6875 89.175781 130.109375 88.183594 130.109375 87.148438 C 130.109375 86.109375 129.6875 85.117188 128.941406 84.398438 C 128.195312 83.679688 127.1875 83.292969 126.152344 83.332031 L 117.4375 83.332031 L 117.4375 74.710938 L 135.660156 74.710938 C 136.695312 74.75 137.703125 74.367188 138.449219 73.648438 C 139.195312 72.925781 139.617188 71.933594 139.617188 70.898438 C 139.617188 69.863281 139.195312 68.871094 138.449219 68.148438 C 137.703125 67.429688 136.695312 67.046875 135.660156 67.085938 L 117.363281 67.085938 C 116.992188 63 115.28125 59.152344 112.496094 56.144531 C 109.707031 53.136719 106.003906 51.132812 101.960938 50.453125 L 101.960938 41.269531 C 102 40.234375 101.613281 39.226562 100.894531 38.480469 C 100.175781 37.734375 99.183594 37.3125 98.144531 37.3125 C 97.109375 37.3125 96.117188 37.734375 95.398438 38.480469 C 94.679688 39.226562 94.292969 40.234375 94.332031 41.269531 L 94.332031 50.195312 L 85.710938 50.195312 L 85.710938 30.136719 C 85.75 29.097656 85.363281 28.089844 84.644531 27.34375 C 83.925781 26.597656 82.933594 26.175781 81.898438 26.175781 C 80.859375 26.175781 79.867188 26.597656 79.148438 27.34375 C 78.429688 28.089844 78.042969 29.097656 78.082031 30.136719 L 78.082031 50.191406 L 69.457031 50.191406 L 69.457031 41.265625 C 69.382812 39.214844 67.695312 37.589844 65.644531 37.589844 C 63.589844 37.589844 61.90625 39.214844 61.828125 41.265625 L 61.828125 50.453125 C 57.785156 51.132812 54.082031 53.136719 51.292969 56.144531 C 48.507812 59.152344 46.796875 63 46.425781 67.085938 L 24.886719 67.085938 C 23.847656 67.046875 22.839844 67.429688 22.09375 68.148438 C 21.347656 68.871094 20.925781 69.863281 20.925781 70.898438 C 20.925781 71.933594 21.347656 72.925781 22.09375 73.648438 C 22.839844 74.367188 23.847656 74.75 24.886719 74.710938 L 46.359375 74.710938 L 46.359375 83.332031 L 37.640625 83.332031 C 36.605469 83.292969 35.597656 83.679688 34.851562 84.398438 C 34.105469 85.117188 33.683594 86.109375 33.683594 87.148438 C 33.683594 88.183594 34.105469 89.175781 34.851562 89.894531 C 35.597656 90.613281 36.605469 91 37.640625 90.960938 L 46.355469 90.960938 L 46.355469 99.582031 L 29.75 99.582031 C 28.714844 99.542969 27.707031 99.929688 26.960938 100.648438 C 26.214844 101.367188 25.792969 102.359375 25.792969 103.394531 C 25.792969 104.433594 26.214844 105.425781 26.960938 106.144531 C 27.707031 106.863281 28.714844 107.25 29.75 107.210938 L 46.425781 107.210938 C 46.796875 111.292969 48.507812 115.140625 51.292969 118.152344 C 54.082031 121.160156 57.785156 123.160156 61.828125 123.84375 L 61.828125 129.777344 L 61.828125 129.773438 C 61.789062 130.8125 62.175781 131.816406 62.894531 132.566406 C 63.613281 133.3125 64.605469 133.734375 65.644531 133.734375 C 66.679688 133.734375 67.671875 133.3125 68.390625 132.566406 C 69.109375 131.816406 69.496094 130.8125 69.457031 129.773438 L 69.457031 124.097656 L 78.078125 124.097656 L 78.078125 141.378906 C 78.152344 143.429688 79.839844 145.050781 81.890625 145.050781 C 83.945312 145.050781 85.628906 143.429688 85.707031 141.378906 L 85.707031 124.101562 L 94.328125 124.101562 L 94.328125 133.027344 L 94.328125 133.023438 C 94.289062 134.0625 94.671875 135.066406 95.390625 135.8125 C 96.113281 136.5625 97.105469 136.984375 98.140625 136.984375 C 99.175781 136.984375 100.167969 136.5625 100.890625 135.8125 C 101.609375 135.066406 101.992188 134.0625 101.953125 133.023438 L 101.953125 123.847656 C 106 123.164062 109.703125 121.164062 112.488281 118.15625 C 115.277344 115.148438 116.988281 111.300781 117.359375 107.214844 L 142.617188 107.214844 C 143.652344 107.253906 144.660156 106.871094 145.40625 106.148438 C 146.152344 105.429688 146.574219 104.4375 146.574219 103.402344 C 146.574219 102.363281 146.152344 101.371094 145.40625 100.652344 C 144.660156 99.933594 143.652344 99.546875 142.617188 99.585938 L 117.441406 99.585938 L 117.441406 90.964844 L 126.152344 90.964844 Z M 111.347656 105.566406 C 111.339844 112.4375 105.773438 118.003906 98.90625 118.007812 L 64.882812 118.007812 C 58.015625 118.003906 52.449219 112.4375 52.441406 105.566406 L 52.441406 68.722656 C 52.449219 61.851562 58.015625 56.285156 64.882812 56.28125 L 98.90625 56.28125 C 105.773438 56.285156 111.339844 61.851562 111.347656 68.722656 Z M 111.347656 105.566406 "/>
<path style=" stroke:none;fill-rule:nonzero;fill:rgb(100%,100%,100%);fill-opacity:1;" d="M 72.980469 65.285156 C 71.507812 65.261719 70.035156 65.3125 68.566406 65.4375 C 66.246094 65.699219 64.539062 67.800781 64.464844 70.078125 C 64.347656 75.242188 64.445312 80.421875 64.414062 85.585938 C 64.488281 88.222656 64.234375 90.886719 64.625 93.496094 C 64.996094 95.828125 67.277344 97.328125 69.539062 97.324219 C 76.574219 97.371094 83.609375 97.339844 90.644531 97.34375 L 90.644531 100.257812 L 67.988281 100.257812 L 65.074219 109 L 87.617188 109 C 90.253906 108.925781 92.914062 109.179688 95.527344 108.796875 C 97.859375 108.425781 99.355469 106.144531 99.347656 103.882812 C 99.398438 94.679688 99.359375 85.476562 99.375 76.269531 C 99.289062 73.800781 99.589844 71.289062 99.089844 68.851562 C 98.558594 66.367188 95.898438 65.144531 93.546875 65.296875 L 77.398438 65.296875 C 75.929688 65.324219 74.449219 65.292969 72.972656 65.28125 Z M 73.152344 74.035156 L 90.636719 74.035156 L 90.636719 88.605469 L 73.152344 88.605469 Z M 73.152344 74.035156 "/>
</g>
</svg>
