<?xml version="1.0" encoding="UTF-8"?>
<svg xmlns="http://www.w3.org/2000/svg" xmlns:xlink="http://www.w3.org/1999/xlink" width="168pt" height="168pt" viewBox="0 0 168 168" version="1.1">
<g id="surface2054">
<path style=" stroke:none;fill-rule:nonzero;fill:rgb(0%,32.54902%,58.823529%);fill-opacity:1;" d="M 168 84 C 168 130.390625 130.390625 168 84 168 C 37.609375 168 0 130.390625 0 84 C 0 37.609375 37.609375 0 84 0 C 130.390625 0 168 37.609375 168 84 "/>
<path style=" stroke:none;fill-rule:nonzero;fill:rgb(100%,100%,100%);fill-opacity:1;" d="M 64.722656 24.140625 C 70.175781 22.382812 75.847656 21.382812 81.574219 21.164062 C 89.433594 20.808594 97.335938 22.082031 104.761719 24.617188 L 104.765625 24.617188 C 116.875 28.890625 127.398438 36.757812 134.925781 47.164062 C 136.660156 49.472656 138.117188 51.957031 139.523438 54.476562 C 141.15625 57.667969 142.632812 60.953125 143.746094 64.363281 C 145.214844 69.042969 146.320312 73.886719 146.660156 78.796875 C 146.839844 79.855469 146.722656 80.9375 146.871094 82 C 146.921875 83.328125 146.902344 84.65625 146.871094 85.996094 C 146.722656 87.0625 146.839844 88.144531 146.660156 89.203125 C 146.34375 93.625 145.433594 97.992188 144.171875 102.242188 C 143.109375 105.757812 141.738281 109.167969 140.074219 112.4375 C 133.882812 124.601562 123.917969 134.429688 111.671875 140.453125 C 108.257812 142.15625 104.683594 143.515625 101 144.511719 C 94.832031 146.28125 88.398438 147.03125 82.003906 146.851562 C 80.9375 146.703125 79.839844 146.820312 78.796875 146.640625 C 74.003906 146.308594 69.289062 145.265625 64.707031 143.835938 L 64.707031 143.839844 C 46.078125 137.792969 31.304688 123.445312 24.71875 105 C 22.671875 99.042969 21.359375 92.808594 21.203125 86.492188 C 20.988281 83.464844 21.21875 80.417969 21.464844 77.394531 C 21.921875 72.925781 22.933594 68.507812 24.308594 64.238281 C 28.488281 51.71875 36.480469 40.820312 47.164062 33.074219 C 49.472656 31.339844 51.957031 29.871094 54.476562 28.476562 L 54.480469 28.476562 C 57.761719 26.738281 61.1875 25.285156 64.722656 24.140625 Z M 76.851562 46.875 L 76.851562 61.585938 C 76.820312 61.847656 77.0625 61.996094 77.191406 62.175781 C 79.449219 64.546875 81.726562 66.902344 83.984375 69.277344 L 83.984375 69.273438 C 83.96875 61.804688 83.96875 54.339844 83.984375 46.871094 C 81.613281 46.871094 79.222656 46.855469 76.84375 46.871094 Z M 45.824219 54.488281 C 46.363281 54.84375 46.757812 55.363281 47.214844 55.8125 C 52.078125 60.722656 56.953125 65.613281 61.792969 70.554688 C 66.230469 75.039062 70.679688 79.507812 75.097656 83.988281 C 69.746094 89.46875 64.296875 94.855469 58.964844 100.335938 C 54.695312 104.640625 50.421875 108.945312 46.171875 113.246094 L 46.167969 113.242188 C 46.054688 113.332031 45.941406 113.421875 45.820312 113.503906 C 52.105469 113.503906 58.40625 113.519531 64.703125 113.472656 C 71.132812 106.742188 77.597656 100.03125 84.011719 93.292969 C 90.441406 100.019531 96.890625 106.742188 103.320312 113.472656 C 109.605469 113.519531 115.890625 113.488281 122.167969 113.503906 C 121.207031 112.730469 120.453125 111.769531 119.554688 110.929688 C 115.054688 106.382812 110.523438 101.832031 106.035156 97.269531 C 101.683594 92.832031 97.25 88.464844 92.929688 83.996094 C 93.980469 82.945312 94.957031 81.855469 96.039062 80.820312 C 104.269531 72.523438 112.472656 64.199219 120.699219 55.898438 C 121.191406 55.425781 121.601562 54.871094 122.167969 54.480469 C 115.867188 54.480469 109.589844 54.460938 103.304688 54.492188 C 96.875 61.21875 90.425781 67.933594 83.996094 74.652344 C 77.582031 67.910156 71.117188 61.203125 64.6875 54.492188 C 58.402344 54.476562 52.101562 54.476562 45.820312 54.476562 Z M 84.035156 98.667969 C 84.035156 106.160156 84.050781 113.640625 84.019531 121.136719 C 86.410156 121.117188 88.796875 121.136719 91.171875 121.136719 L 91.171875 106.40625 L 91.167969 106.402344 C 91.1875 106.242188 91.125 106.082031 91.003906 105.976562 C 89.796875 104.664062 88.515625 103.441406 87.324219 102.132812 C 86.242188 100.953125 85.082031 99.875 84.03125 98.664062 Z M 84.035156 98.667969 "/>
</g>
</svg>
