<?xml version="1.0" encoding="UTF-8"?>
<svg xmlns="http://www.w3.org/2000/svg" xmlns:xlink="http://www.w3.org/1999/xlink" width="168pt" height="168pt" viewBox="0 0 168 168" version="1.1">
<g id="surface1776">
<path style=" stroke:none;fill-rule:nonzero;fill:rgb(21.568627%,17.647059%,17.254902%);fill-opacity:1;" d="M 168 84 C 168 130.390625 130.390625 168 84 168 C 37.609375 168 0 130.390625 0 84 C 0 37.609375 37.609375 0 84 0 C 130.390625 0 168 37.609375 168 84 "/>
<path style=" stroke:none;fill-rule:nonzero;fill:rgb(0%,0%,0%);fill-opacity:1;" d="M 52.316406 97.058594 L 52.847656 96.664062 L 52.667969 96.664062 L 50.222656 98.921875 C 50.796875 98.171875 51.511719 97.539062 52.320312 97.058594 Z M 52.316406 97.058594 "/>
<path style=" stroke:none;fill-rule:nonzero;fill:rgb(100%,100%,100%);fill-opacity:1;" d="M 141.488281 70.558594 C 141.226562 70.15625 140.824219 69.867188 140.359375 69.75 C 138.542969 69.304688 136.722656 68.886719 134.898438 68.492188 L 135.390625 66.054688 L 135.707031 64.523438 L 135.855469 63.746094 L 135.996094 62.90625 C 136.195312 61.660156 136.054688 60.382812 135.589844 59.210938 C 134.59375 56.664062 132.335938 54.828125 129.644531 54.367188 C 129.207031 51.722656 128.605469 49.105469 127.835938 46.535156 L 127.746094 46.21875 L 114.695312 30.363281 L 114.207031 30.222656 C 113.675781 30.082031 101.917969 26.605469 85.910156 26.601562 L 86.089844 23.441406 C 89.128906 22.441406 90.988281 19.371094 90.460938 16.214844 C 89.9375 13.058594 87.191406 10.753906 83.988281 10.789062 C 80.796875 10.761719 78.054688 13.0625 77.53125 16.214844 C 77.007812 19.367188 78.859375 22.429688 81.890625 23.4375 L 82.074219 26.613281 C 66 26.628906 54.175781 30.082031 53.671875 30.25 L 53.183594 30.390625 L 40.132812 46.246094 L 40.046875 46.5625 C 39.28125 49.136719 38.675781 51.746094 38.242188 54.386719 L 38.199219 54.386719 L 37.273438 54.617188 C 33.710938 55.703125 31.460938 59.214844 31.960938 62.90625 L 32.101562 63.742188 L 32.25 64.519531 L 32.566406 66.050781 L 33.058594 68.496094 C 31.246094 68.894531 29.4375 69.304688 27.628906 69.746094 C 27.164062 69.859375 26.761719 70.152344 26.503906 70.554688 C 26.132812 71.175781 26.171875 71.957031 26.597656 72.535156 C 27.027344 73.117188 27.765625 73.382812 28.464844 73.210938 C 30.230469 72.78125 31.992188 72.371094 33.761719 71.988281 L 33.894531 72.660156 C 29.769531 85.738281 30.71875 99.886719 36.550781 112.296875 C 44.46875 129.191406 62.683594 147.410156 84 147.410156 C 105.308594 147.410156 123.53125 129.191406 131.46875 112.273438 L 131.46875 112.269531 C 137.28125 99.851562 138.210938 85.695312 134.070312 72.625 L 134.195312 72.003906 C 135.96875 72.390625 137.746094 72.800781 139.511719 73.230469 C 140.214844 73.402344 140.949219 73.136719 141.378906 72.558594 C 141.808594 71.976562 141.847656 71.195312 141.476562 70.574219 Z M 79.339844 17.316406 C 79.347656 14.5 81.609375 12.214844 84.421875 12.175781 C 87.257812 12.175781 87.257812 22.429688 84.421875 22.457031 L 84.421875 22.453125 C 81.609375 22.414062 79.347656 20.128906 79.339844 17.316406 Z M 82.742188 23.667969 C 83.15625 23.746094 83.570312 23.789062 83.992188 23.789062 L 84.191406 23.789062 L 84.589844 34.824219 C 85.121094 35.535156 85.050781 36.527344 84.421875 37.152344 C 84.082031 37.492188 83.625 37.679688 83.148438 37.679688 C 80.492188 37.679688 78.355469 36.871094 78.355469 35.894531 C 78.355469 34.992188 80.152344 34.242188 82.503906 34.113281 L 83.148438 34.097656 L 83.328125 34.097656 L 82.738281 23.664062 Z M 42.820312 49.0625 L 44.347656 48.515625 L 46.945312 47.648438 L 50.359375 46.640625 C 51.597656 46.261719 52.984375 45.917969 54.429688 45.539062 L 59.019531 44.503906 C 60.609375 44.1875 62.253906 43.835938 63.953125 43.546875 C 65.660156 43.257812 67.367188 43.027344 69.097656 42.738281 C 70.832031 42.449219 72.5625 42.308594 74.261719 42.109375 C 75.96875 41.898438 77.644531 41.816406 79.285156 41.671875 C 80.152344 41.59375 81.039062 41.554688 81.882812 41.523438 L 81.972656 41.523438 L 83.992188 59.515625 L 86.039062 41.371094 L 88.234375 41.371094 C 89.535156 41.371094 90.75 41.3125 91.816406 41.371094 L 94.589844 41.488281 L 97.015625 41.574219 L 94.621094 41.34375 L 91.847656 41.082031 C 90.777344 40.972656 89.589844 40.941406 88.265625 40.855469 L 88.269531 40.855469 C 86.855469 40.75 85.4375 40.691406 84.019531 40.683594 L 84 40.683594 C 82.507812 40.683594 80.902344 40.59375 79.265625 40.652344 C 77.632812 40.710938 75.917969 40.683594 74.183594 40.800781 L 68.929688 41.148438 C 67.164062 41.289062 65.40625 41.4375 63.675781 41.667969 C 61.941406 41.898438 60.238281 42.15625 58.621094 42.359375 C 57.0625 42.554688 55.523438 42.851562 54.074219 43.109375 L 51.492188 42.90625 L 56.632812 35.890625 L 82.300781 30.292969 L 82.457031 33.074219 C 78.992188 33.347656 76.394531 34.496094 76.394531 35.878906 C 76.394531 37.453125 79.808594 38.734375 84.015625 38.734375 C 88.226562 38.734375 91.636719 37.457031 91.636719 35.878906 C 91.636719 34.5 89.039062 33.347656 85.574219 33.074219 L 85.730469 30.300781 L 111.289062 35.882812 L 116.433594 42.898438 L 109.28125 43.476562 L 109.148438 43.460938 L 109.226562 43.480469 L 109.121094 43.480469 L 122.808594 50.261719 C 122.808594 50.261719 128.710938 69.214844 120.578125 85.320312 L 120.578125 85.324219 C 119.648438 87.144531 118.570312 88.882812 117.347656 90.519531 C 117.347656 90.519531 104.714844 96.351562 85.296875 97.382812 L 84 92.042969 C 85.585938 92.097656 87.167969 91.820312 88.644531 91.234375 L 92.6875 89.90625 C 100.898438 87.375 109.121094 84.882812 117.347656 82.429688 L 118.15625 82.199219 L 118.679688 80.699219 L 118.878906 79.976562 L 119.25 78.558594 C 119.910156 75.777344 120.382812 72.953125 120.667969 70.101562 L 120.898438 67.214844 L 120.949219 65.769531 L 120.949219 64.300781 L 120.980469 62.800781 L 120.839844 61.300781 L 120.609375 59.800781 L 120.613281 59.792969 C 120.515625 59.304688 120.386719 58.824219 120.234375 58.347656 L 120.003906 57.597656 L 119.742188 56.699219 L 119.558594 56.671875 L 119.484375 56.441406 L 119.222656 55.542969 L 118.1875 55.402344 C 109.664062 54.410156 101.097656 53.820312 92.515625 53.640625 L 91.625 53.613281 L 91.246094 54.363281 L 86.542969 63.582031 L 84.003906 63.625 L 81.222656 63.675781 L 76.183594 54.644531 L 75.921875 54.15625 L 75.398438 54.1875 C 71.128906 54.421875 66.867188 54.769531 62.609375 55.226562 L 62.601562 55.230469 C 58.359375 55.679688 54.132812 56.265625 49.925781 56.988281 L 50.011719 56.988281 L 49.960938 56.988281 L 49.78125 57.566406 C 49.734375 57.714844 49.691406 57.867188 49.65625 58.019531 C 49.742188 57.679688 49.839844 57.34375 49.945312 56.992188 L 49.941406 56.988281 C 49.777344 57.453125 49.585938 57.90625 49.367188 58.347656 C 49.273438 58.714844 49.167969 59.078125 49.097656 59.445312 L 49.046875 59.585938 L 48.730469 61.003906 L 48.5 62.417969 L 48.351562 63.863281 C 48.300781 64.820312 48.265625 65.800781 48.300781 66.75 L 48.410156 69.636719 C 48.605469 72.523438 48.988281 75.402344 49.566406 78.242188 L 49.882812 79.660156 L 50.292969 81.105469 L 50.410156 81.453125 L 50.8125 81.59375 L 67.15625 86.964844 C 71.964844 88.53125 76.769531 90.140625 81.5625 91.789062 C 81.972656 91.875 82.386719 91.929688 82.808594 91.960938 L 83.097656 91.988281 L 83.183594 91.988281 L 83.332031 92.019531 L 83.9375 92.046875 L 84.027344 92.046875 L 82.695312 97.480469 L 82.683594 97.476562 C 77.917969 97.617188 73.144531 97.445312 68.402344 96.960938 C 56.738281 95.394531 49.0625 92.601562 47.066406 91.8125 C 40.59375 78.527344 39.085938 63.359375 42.824219 49.0625 Z M 104.769531 57.09375 L 89.328125 86.203125 L 88.292969 88.144531 L 87.542969 88.402344 L 87.542969 88.40625 C 86.644531 88.730469 85.699219 88.914062 84.746094 88.949219 C 83.28125 89.097656 81.800781 88.921875 80.414062 88.429688 L 79.890625 88.230469 L 80.550781 86.996094 L 96.722656 56.546875 L 97.453125 55.167969 C 100.078125 55.285156 102.765625 55.488281 105.507812 55.71875 L 104.773438 57.09375 Z M 109.515625 57.566406 L 110.273438 56.136719 L 112.496094 56.339844 L 114.605469 56.570312 L 114.867188 56.597656 L 115.035156 56.597656 L 114.257812 58.066406 L 101.449219 82.207031 L 100.398438 84.1875 L 94.390625 86.09375 L 95.425781 84.136719 Z M 34.179688 64.234375 L 34.09375 63.457031 L 34.035156 62.707031 C 33.871094 60.261719 35.449219 58.035156 37.808594 57.382812 C 36.800781 65.972656 37.550781 74.675781 40.015625 82.964844 L 39.78125 82.890625 L 39.777344 82.890625 C 38.050781 82.28125 36.695312 80.921875 36.082031 79.195312 C 35.855469 78.472656 35.710938 77.726562 35.652344 76.96875 L 34.351562 65.808594 Z M 48.636719 124.363281 L 48.558594 124.300781 L 48.59375 124.351562 C 48.300781 124.273438 48.03125 124.125 47.804688 123.921875 C 44.566406 119.902344 41.816406 115.515625 39.605469 110.855469 C 35.070312 101.179688 33.675781 90.328125 35.617188 79.820312 L 35.636719 79.871094 L 35.636719 79.875 C 36.546875 81.609375 38.183594 82.847656 40.097656 83.253906 C 41.214844 86.9375 42.664062 90.515625 44.429688 93.9375 L 44.691406 94.398438 L 45.179688 94.628906 C 47.027344 95.386719 48.914062 96.046875 50.828125 96.617188 L 50.875 96.617188 L 50.738281 96.660156 L 50.742188 96.664062 C 50.316406 96.804688 49.898438 96.964844 49.488281 97.140625 C 49.140625 97.285156 48.796875 97.4375 48.457031 97.597656 L 46.230469 98.664062 L 45.511719 99.011719 L 45.421875 99.734375 C 44.796875 105.226562 45.34375 110.789062 47.03125 116.050781 C 47.84375 118.671875 48.988281 121.175781 50.4375 123.503906 L 50.464844 123.554688 L 50.554688 123.785156 C 50.679688 124.367188 49.558594 124.605469 48.636719 124.363281 Z M 68.480469 135.976562 C 64.417969 134.488281 60.699219 132.179688 57.566406 129.195312 C 55.777344 127.449219 54.253906 125.453125 53.035156 123.269531 C 51.828125 121.085938 50.894531 118.757812 50.261719 116.339844 C 49.644531 113.917969 49.265625 111.441406 49.132812 108.949219 C 48.976562 106.757812 49.046875 104.558594 49.339844 102.386719 L 50.695312 101.847656 C 52.085938 101.390625 53.492188 100.988281 54.910156 100.640625 L 57.078125 100.203125 C 58.953125 99.886719 60.835938 99.664062 62.738281 99.535156 L 62.964844 99.535156 L 63.050781 99.546875 L 63.046875 99.546875 C 61.425781 103.96875 60.605469 108.644531 60.632812 113.351562 C 60.632812 122.75 63.730469 130.746094 68.648438 136.074219 L 68.480469 135.972656 Z M 91.054688 129.976562 L 91.054688 129.972656 C 88.882812 131.203125 86.425781 131.839844 83.925781 131.820312 C 81.324219 131.835938 78.769531 131.136719 76.535156 129.800781 C 75.472656 128.652344 74.570312 127.371094 73.847656 125.984375 C 76.320312 128.855469 79.90625 130.535156 83.695312 130.605469 C 87.488281 130.671875 91.125 129.117188 93.703125 126.335938 C 92.984375 127.660156 92.09375 128.886719 91.054688 129.980469 Z M 83.925781 127.78125 C 81.195312 127.792969 78.574219 126.71875 76.632812 124.796875 C 74.695312 122.875 73.601562 120.261719 73.589844 117.53125 L 73.589844 117.496094 C 73.585938 113.335938 76.082031 109.585938 79.921875 107.984375 C 83.761719 106.386719 88.183594 107.253906 91.132812 110.1875 C 94.082031 113.117188 94.976562 117.535156 93.402344 121.382812 C 91.828125 125.230469 88.089844 127.753906 83.933594 127.773438 L 83.933594 127.777344 Z M 96.988281 115.5 C 95.894531 109.046875 90.25 104.355469 83.707031 104.464844 C 77.160156 104.578125 71.675781 109.453125 70.800781 115.941406 C 70.644531 114.75 70.546875 113.554688 70.511719 112.355469 C 72.675781 106.839844 78.011719 103.222656 83.9375 103.257812 L 83.988281 103.257812 C 89.792969 103.242188 95.03125 106.730469 97.257812 112.09375 C 97.21875 113.234375 97.132812 114.371094 96.988281 115.503906 Z M 99.257812 136.136719 L 99.308594 136.136719 L 99.203125 136.171875 C 104.191406 130.835938 107.339844 122.789062 107.339844 113.320312 C 107.371094 108.609375 106.550781 103.933594 104.921875 99.515625 L 104.996094 99.515625 C 112.425781 100.585938 116.292969 104.398438 116.292969 104.398438 C 116.292969 104.398438 117.082031 126.164062 99.265625 136.140625 L 99.253906 136.140625 Z M 133.1875 89.203125 L 133.1875 90.328125 C 133.1875 90.585938 133.167969 90.835938 133.160156 91.089844 L 133.160156 91.085938 C 133.144531 91.664062 133.113281 92.238281 133.066406 92.808594 C 133.066406 92.988281 133.035156 93.171875 133.019531 93.347656 C 132.988281 93.71875 132.957031 94.097656 132.914062 94.464844 C 132.914062 94.550781 132.898438 94.632812 132.886719 94.71875 C 132.847656 95.082031 132.804688 95.441406 132.757812 95.800781 L 132.757812 95.851562 L 132.609375 96.890625 L 132.609375 96.929688 C 131.777344 102.347656 130.078125 107.59375 127.582031 112.472656 L 127.402344 112.820312 C 127.21875 113.171875 127.035156 113.527344 126.839844 113.878906 C 124.9375 117.429688 122.703125 120.796875 120.171875 123.929688 C 119.960938 124.132812 119.699219 124.28125 119.417969 124.363281 L 119.449219 124.3125 L 119.371094 124.375 C 118.460938 124.636719 117.300781 124.410156 117.429688 123.796875 L 117.519531 123.566406 L 117.570312 123.515625 C 119.003906 121.175781 120.144531 118.675781 120.957031 116.0625 L 120.953125 116.054688 C 122.613281 110.796875 123.152344 105.25 122.539062 99.769531 L 122.453125 99.050781 L 121.730469 98.703125 C 120.980469 98.324219 120.261719 97.953125 119.507812 97.632812 L 117.222656 96.707031 L 117.019531 96.632812 L 117.070312 96.617188 C 118.976562 96.054688 120.851562 95.382812 122.683594 94.617188 L 123.171875 94.386719 L 123.433594 93.925781 C 125.191406 90.503906 126.636719 86.933594 127.75 83.257812 C 129.71875 82.855469 131.398438 81.59375 132.332031 79.820312 C 132.882812 82.769531 133.171875 85.769531 133.199219 88.773438 L 133.203125 88.773438 C 133.195312 88.914062 133.1875 89.058594 133.1875 89.203125 Z M 133.1875 89.203125 "/>
<path style=" stroke:none;fill-rule:nonzero;fill:rgb(0%,0%,0%);fill-opacity:1;" d="M 50.640625 58.457031 L 51.851562 56.988281 L 52.253906 56.988281 L 51.648438 56.988281 C 51.039062 57.878906 50.292969 58.738281 49.628906 59.613281 C 50.011719 59.226562 50.3125 58.863281 50.636719 58.457031 Z M 50.640625 58.457031 "/>
<path style=" stroke:none;fill-rule:nonzero;fill:rgb(100%,100%,100%);fill-opacity:1;" d="M 88.988281 32.601562 C 91.527344 33.269531 93.203125 34.480469 93.203125 35.894531 C 93.203125 37.3125 91.503906 38.519531 88.988281 39.1875 C 92.453125 38.871094 95.050781 37.511719 95.050781 35.894531 C 95.050781 34.277344 92.453125 32.90625 88.988281 32.601562 Z M 80.636719 45.578125 L 80.632812 45.582031 C 81.363281 45.582031 81.957031 44.996094 81.96875 44.269531 C 81.96875 43.914062 81.828125 43.574219 81.574219 43.324219 C 81.324219 43.074219 80.980469 42.941406 80.628906 42.957031 C 79.914062 42.964844 79.335938 43.550781 79.34375 44.269531 C 79.34375 44.992188 79.921875 45.582031 80.636719 45.582031 Z M 45.75 50 C 45.214844 50.007812 44.738281 50.328125 44.535156 50.824219 C 44.335938 51.316406 44.449219 51.882812 44.824219 52.257812 C 45.070312 52.503906 45.402344 52.636719 45.75 52.625 C 46.28125 52.621094 46.757812 52.296875 46.960938 51.804688 C 47.164062 51.3125 47.046875 50.746094 46.671875 50.367188 C 46.429688 50.121094 46.09375 49.988281 45.75 50 Z M 49.386719 92.382812 C 49.917969 92.378906 50.398438 92.054688 50.597656 91.5625 C 50.800781 91.070312 50.6875 90.503906 50.3125 90.125 C 50.066406 89.882812 49.734375 89.746094 49.386719 89.757812 C 48.664062 89.765625 48.078125 90.347656 48.074219 91.070312 C 48.101562 91.804688 48.679688 92.382812 49.386719 92.382812 Z M 81.265625 97.40625 L 81.265625 97.410156 C 81.796875 97.402344 82.273438 97.078125 82.476562 96.585938 C 82.679688 96.09375 82.566406 95.527344 82.1875 95.152344 C 81.945312 94.90625 81.609375 94.773438 81.265625 94.785156 C 80.535156 94.796875 79.953125 95.394531 79.953125 96.121094 C 80 96.820312 80.5625 97.375 81.265625 97.410156 Z M 88.433594 45.605469 L 88.429688 45.605469 C 89.160156 45.605469 89.753906 45.023438 89.765625 44.292969 C 89.765625 43.9375 89.621094 43.597656 89.371094 43.347656 C 89.121094 43.101562 88.777344 42.96875 88.425781 42.980469 C 87.707031 42.992188 87.132812 43.578125 87.140625 44.292969 C 87.140625 45.023438 87.71875 45.605469 88.433594 45.605469 Z M 87.792969 94.8125 L 87.789062 94.816406 C 87.070312 94.828125 86.488281 95.40625 86.476562 96.128906 C 86.527344 96.847656 87.089844 97.414062 87.789062 97.441406 C 88.324219 97.433594 88.800781 97.109375 89.003906 96.617188 C 89.203125 96.125 89.089844 95.558594 88.714844 95.183594 C 88.472656 94.9375 88.136719 94.804688 87.789062 94.816406 Z M 52.214844 103.648438 L 52.210938 103.652344 C 51.746094 103.617188 51.300781 103.855469 51.066406 104.257812 C 50.820312 104.675781 50.808594 105.1875 51.035156 105.613281 C 51.265625 106.035156 51.695312 106.289062 52.160156 106.269531 L 52.210938 106.269531 C 52.925781 106.257812 53.496094 105.671875 53.496094 104.957031 C 53.5 104.625 53.378906 104.300781 53.152344 104.054688 C 52.90625 103.792969 52.5625 103.644531 52.207031 103.652344 Z M 60.136719 101.28125 L 60.132812 101.28125 C 59.789062 101.285156 59.457031 101.425781 59.214844 101.671875 C 58.972656 101.917969 58.839844 102.25 58.84375 102.59375 C 58.84375 103.316406 59.421875 103.90625 60.136719 103.90625 L 60.132812 103.90625 C 60.863281 103.90625 61.457031 103.324219 61.46875 102.59375 C 61.46875 102.242188 61.324219 101.898438 61.074219 101.652344 C 60.820312 101.402344 60.480469 101.269531 60.128906 101.28125 Z M 108.941406 101.28125 L 108.9375 101.28125 C 108.210938 101.308594 107.648438 101.921875 107.675781 102.644531 C 107.703125 103.371094 108.3125 103.933594 109.039062 103.90625 C 109.761719 103.878906 110.328125 103.269531 110.296875 102.542969 C 110.269531 101.816406 109.65625 101.253906 108.933594 101.28125 Z M 108.941406 101.28125 "/>
</g>
</svg>
