<?xml version="1.0" encoding="UTF-8"?>
<svg xmlns="http://www.w3.org/2000/svg" xmlns:xlink="http://www.w3.org/1999/xlink" width="168pt" height="168pt" viewBox="0 0 168 168" version="1.1">
<g id="surface2272">
<path style=" stroke:none;fill-rule:nonzero;fill:rgb(85.882353%,70.196078%,34.509804%);fill-opacity:1;" d="M 168 84 C 168 130.390625 130.390625 168 84 168 C 37.609375 168 0 130.390625 0 84 C 0 37.609375 37.609375 0 84 0 C 130.390625 0 168 37.609375 168 84 "/>
<path style=" stroke:none;fill-rule:nonzero;fill:rgb(100%,100%,100%);fill-opacity:1;" d="M 111.542969 61.214844 C 113.152344 61.191406 114.472656 62.480469 114.496094 64.089844 C 114.515625 65.699219 113.230469 67.019531 111.621094 67.042969 L 59.378906 67.042969 L 59.378906 100.957031 L 108.632812 100.957031 L 108.632812 86.414062 L 75.546875 86.414062 C 73.96875 86.414062 72.675781 85.160156 72.632812 83.578125 L 72.632812 83.5 C 72.632812 81.917969 73.894531 80.628906 75.46875 80.585938 L 111.546875 80.585938 C 113.132812 80.585938 114.417969 81.847656 114.460938 83.421875 L 114.460938 103.875 C 114.460938 105.460938 113.199219 106.746094 111.625 106.789062 L 56.457031 106.789062 C 54.878906 106.789062 53.585938 105.535156 53.542969 103.957031 L 53.542969 64.136719 C 53.542969 62.554688 54.804688 61.265625 56.378906 61.226562 L 111.539062 61.226562 Z M 111.542969 61.214844 "/>
<path style=" stroke:none;fill-rule:nonzero;fill:rgb(100%,100%,100%);fill-opacity:1;" d="M 84 26.25 C 52.105469 26.25 26.25 52.105469 26.25 84 C 26.25 115.894531 52.105469 141.75 84 141.75 C 115.894531 141.75 141.75 115.894531 141.75 84 C 141.75 52.105469 115.894531 26.25 84 26.25 Z M 84 32.078125 C 112.675781 32.078125 135.921875 55.324219 135.921875 84 C 135.921875 112.675781 112.675781 135.921875 84 135.921875 C 55.324219 135.921875 32.078125 112.675781 32.078125 84 C 32.078125 55.324219 55.324219 32.078125 84 32.078125 Z M 84 32.078125 "/>
<path style=" stroke:none;fill-rule:nonzero;fill:rgb(100%,100%,100%);fill-opacity:1;" d="M 92.453125 44.109375 C 94.039062 44.109375 95.324219 45.371094 95.367188 46.945312 L 95.367188 64.128906 C 95.367188 65.714844 94.105469 67 92.53125 67.042969 L 75.535156 67.042969 C 73.960938 67.039062 72.671875 65.785156 72.628906 64.207031 L 72.628906 47.023438 C 72.605469 45.414062 73.894531 44.09375 75.503906 44.070312 C 77.113281 44.050781 78.433594 45.335938 78.457031 46.945312 L 78.457031 61.214844 L 89.539062 61.214844 L 89.539062 47.023438 C 89.539062 45.4375 90.800781 44.152344 92.375 44.109375 Z M 92.453125 100.957031 C 94.039062 100.957031 95.324219 102.21875 95.367188 103.792969 L 95.367188 120.976562 C 95.386719 122.585938 94.101562 123.90625 92.492188 123.929688 C 90.882812 123.949219 89.558594 122.664062 89.539062 121.054688 L 89.539062 106.785156 L 78.460938 106.785156 L 78.460938 120.976562 C 78.460938 122.558594 77.203125 123.851562 75.621094 123.890625 L 75.542969 123.890625 C 73.964844 123.890625 72.671875 122.632812 72.628906 121.054688 L 72.628906 103.871094 C 72.628906 102.285156 73.890625 101 75.464844 100.957031 Z M 92.453125 100.957031 "/>
</g>
</svg>
