<?xml version="1.0" encoding="UTF-8"?>
<svg xmlns="http://www.w3.org/2000/svg" xmlns:xlink="http://www.w3.org/1999/xlink" width="168pt" height="168pt" viewBox="0 0 168 168" version="1.1">
<g id="surface2415">
<path style=" stroke:none;fill-rule:evenodd;fill:rgb(0%,65.098039%,76.862745%);fill-opacity:1;" d="M 168 84 C 168 130.390625 130.390625 168 84 168 C 37.609375 168 0 130.390625 0 84 C 0 37.609375 37.609375 0 84 0 C 130.390625 0 168 37.609375 168 84 "/>
<path style=" stroke:none;fill-rule:nonzero;fill:rgb(100%,100%,100%);fill-opacity:1;" d="M 130.078125 55.125 L 131.128906 56.863281 C 136.363281 65.65625 139.128906 75.699219 139.125 85.933594 C 139.03125 116.738281 114.371094 141.75 84 141.75 L 83.90625 141.75 C 53.535156 141.75 28.78125 116.542969 28.875 85.738281 C 28.875 75.40625 31.730469 65.363281 36.964844 56.667969 L 37.921875 55.03125 L 42.96875 60.148438 L 42.964844 60.148438 C 41.964844 61.609375 41.167969 63.199219 40.585938 64.875 C 38.664062 70.203125 38.925781 76.078125 41.316406 81.21875 C 43.707031 86.355469 48.03125 90.34375 53.34375 92.304688 C 59.683594 94.5625 66.71875 93.664062 72.289062 89.890625 L 84 101.867188 L 97.425781 88.25 C 98.664062 89.121094 100.09375 89.796875 101.617188 90.375 C 112.378906 94.238281 124.183594 88.539062 127.988281 77.722656 C 130.273438 71.347656 129.226562 64.6875 125.894531 59.375 L 130.085938 55.128906 Z M 49.15625 66.421875 L 64.957031 82.355469 C 63.050781 83.902344 60.671875 84.769531 58.101562 84.769531 C 51.917969 84.769531 46.867188 79.652344 46.867188 73.378906 C 46.867188 70.769531 47.726562 68.355469 49.15625 66.421875 Z M 104.28125 81.390625 L 119.894531 65.554688 C 121.132812 67.390625 121.796875 69.609375 121.796875 71.929688 C 121.796875 78.203125 116.757812 83.320312 110.5625 83.320312 C 108.183594 83.320312 106.089844 82.644531 104.285156 81.386719 Z M 84.191406 93.367188 L 38.683594 47.007812 L 40.488281 45.082031 C 51.722656 33.007812 67.054688 26.25 83.527344 26.25 L 83.621094 26.25 C 100.285156 26.25 116.277344 33.496094 127.417969 46.042969 L 129.132812 47.980469 Z M 46.109375 47.007812 L 84.191406 85.738281 L 121.800781 47.785156 C 111.710938 37.546875 98.003906 31.65625 83.722656 31.65625 L 83.621094 31.65625 C 69.4375 31.65625 56.207031 37.0625 46.109375 47.011719 Z M 46.109375 47.007812 "/>
</g>
</svg>
