<?xml version="1.0" encoding="UTF-8"?>
<svg xmlns="http://www.w3.org/2000/svg" xmlns:xlink="http://www.w3.org/1999/xlink" width="168pt" height="168pt" viewBox="0 0 168 168" version="1.1">
<g id="surface646">
<path style=" stroke:none;fill-rule:evenodd;fill:rgb(0%,11.372549%,34.117647%);fill-opacity:1;" d="M 168 84 C 168 130.390625 130.390625 168 84 168 C 37.609375 168 0 130.390625 0 84 C 0 37.609375 37.609375 0 84 0 C 130.390625 0 168 37.609375 168 84 "/>
<path style=" stroke:none;fill-rule:nonzero;fill:rgb(100%,100%,100%);fill-opacity:1;" d="M 107.621094 27.761719 L 113.9375 34.082031 L 101.984375 46.367188 C 104.503906 50.199219 105.859375 54.71875 105.859375 59.382812 L 105.855469 59.382812 C 105.898438 65.515625 103.527344 71.421875 99.25 75.820312 C 96.128906 79.117188 92.0625 81.367188 87.613281 82.257812 L 87.613281 92.960938 C 92.042969 93.875 96.09375 96.109375 99.230469 99.367188 C 103.519531 103.769531 105.898438 109.683594 105.855469 115.832031 C 105.898438 121.976562 103.515625 127.886719 99.230469 132.289062 C 95.007812 136.664062 89.191406 139.128906 83.113281 139.125 C 77.03125 139.144531 71.207031 136.671875 66.996094 132.289062 C 62.722656 127.878906 60.34375 121.972656 60.375 115.832031 C 60.375 109.636719 62.726562 103.761719 66.980469 99.390625 L 66.980469 99.386719 C 70.101562 96.09375 74.167969 93.847656 78.617188 92.957031 L 78.617188 82.246094 C 74.1875 81.332031 70.140625 79.097656 67 75.839844 C 62.722656 71.429688 60.34375 65.519531 60.375 59.378906 C 60.375 53.183594 62.726562 47.308594 67 42.921875 L 67 42.917969 C 71.222656 38.542969 77.039062 36.074219 83.117188 36.078125 C 87.632812 36.078125 91.972656 37.453125 95.691406 40.011719 L 107.625 27.761719 Z M 83.121094 101.5625 L 83.117188 101.5625 C 79.433594 101.53125 75.902344 103.035156 73.367188 105.707031 C 70.742188 108.421875 69.28125 112.054688 69.300781 115.832031 C 69.300781 119.636719 70.746094 123.191406 73.371094 125.949219 L 73.367188 125.949219 C 75.921875 128.597656 79.441406 130.09375 83.117188 130.09375 C 86.800781 130.125 90.328125 128.621094 92.863281 125.949219 C 95.488281 123.238281 96.949219 119.605469 96.929688 115.832031 C 96.929688 112.027344 95.484375 108.472656 92.84375 105.695312 L 92.847656 105.691406 C 90.316406 103.027344 86.792969 101.53125 83.117188 101.5625 Z M 92.847656 69.589844 C 95.480469 66.875 96.949219 63.234375 96.929688 59.449219 C 96.980469 55.667969 95.515625 52.023438 92.863281 49.328125 C 90.3125 46.679688 86.792969 45.183594 83.117188 45.179688 C 79.433594 45.152344 75.902344 46.652344 73.367188 49.328125 C 70.742188 52.042969 69.28125 55.675781 69.300781 59.449219 C 69.300781 63.253906 70.746094 66.808594 73.371094 69.566406 L 73.367188 69.566406 C 75.921875 72.214844 79.441406 73.714844 83.117188 73.714844 C 86.851562 73.714844 90.292969 72.265625 92.84375 69.589844 Z M 92.847656 69.589844 "/>
</g>
</svg>
