<?xml version="1.0" encoding="UTF-8"?>
<svg xmlns="http://www.w3.org/2000/svg" xmlns:xlink="http://www.w3.org/1999/xlink" width="168pt" height="168pt" viewBox="0 0 168 168" version="1.1">
<g id="surface966">
<path style=" stroke:none;fill-rule:nonzero;fill:rgb(94.509804%,70.196078%,16.862745%);fill-opacity:1;" d="M 168 84 C 168 130.390625 130.390625 168 84 168 C 37.609375 168 0 130.390625 0 84 C 0 37.609375 37.609375 0 84 0 C 130.390625 0 168 37.609375 168 84 "/>
<path style=" stroke:none;fill-rule:nonzero;fill:rgb(100%,100%,100%);fill-opacity:1;" d="M 82.6875 21 C 48.613281 21 21 48.613281 21 82.6875 C 21 116.761719 48.613281 144.375 82.6875 144.375 C 116.761719 144.375 144.375 116.761719 144.375 82.6875 C 144.375 66.328125 137.875 50.636719 126.308594 39.066406 C 114.738281 27.5 99.046875 21 82.6875 21 Z M 82.6875 128.992188 C 66.144531 128.992188 50.859375 120.167969 42.585938 105.839844 C 34.316406 91.511719 34.316406 73.863281 42.585938 59.535156 C 50.859375 45.207031 66.144531 36.382812 82.6875 36.382812 C 99.230469 36.382812 114.515625 45.207031 122.789062 59.535156 C 131.058594 73.863281 131.058594 91.511719 122.789062 105.839844 C 114.515625 120.167969 99.230469 128.992188 82.6875 128.992188 Z M 67.304688 82.738281 L 82.738281 105.839844 L 98.066406 82.738281 L 82.738281 59.585938 Z M 67.304688 82.738281 "/>
</g>
</svg>
