<?xml version="1.0" encoding="UTF-8"?>
<svg xmlns="http://www.w3.org/2000/svg" xmlns:xlink="http://www.w3.org/1999/xlink" width="168pt" height="168pt" viewBox="0 0 168 168" version="1.1">
<g id="surface1106">
<path style=" stroke:none;fill-rule:evenodd;fill:rgb(32.941176%,6.666667%,70.196078%);fill-opacity:1;" d="M 168 84 C 168 130.390625 130.390625 168 84 168 C 37.609375 168 0 130.390625 0 84 C 0 37.609375 37.609375 0 84 0 C 130.390625 0 168 37.609375 168 84 "/>
<path style=" stroke:none;fill-rule:evenodd;fill:rgb(100%,100%,100%);fill-opacity:1;" d="M 84.277344 26.25 C 87.058594 27.925781 89.820312 29.636719 92.625 31.269531 C 105.933594 38.988281 119.242188 46.695312 132.566406 54.378906 C 133.441406 54.882812 133.832031 55.445312 133.832031 56.519531 C 133.804688 74.851562 133.8125 93.183594 133.875 111.519531 C 133.875 112.714844 133.328125 113.214844 132.457031 113.71875 C 116.617188 122.886719 100.789062 132.066406 84.960938 141.25 C 84.71875 141.390625 84.503906 141.582031 84.277344 141.75 L 83.699219 141.75 C 78.921875 138.9375 74.144531 136.097656 69.351562 133.308594 C 58.042969 126.742188 46.722656 120.183594 35.394531 113.65625 C 34.433594 113.105469 34.117188 112.476562 34.125 111.371094 C 34.175781 93.183594 34.1875 75 34.152344 56.808594 C 34.152344 55.507812 34.597656 54.851562 35.667969 54.234375 C 51.359375 45.183594 67.027344 36.101562 82.699219 27.019531 C 83.0625 26.808594 83.371094 26.503906 83.703125 26.246094 L 84.28125 26.246094 Z M 99.007812 118.019531 C 101.175781 119.503906 103.296875 121.066406 105.480469 122.640625 C 105.601562 122.589844 105.78125 122.515625 105.941406 122.425781 C 113.027344 118.324219 120.132812 114.234375 127.199219 110.089844 C 127.621094 109.84375 127.988281 109.117188 127.988281 108.621094 C 128.023438 92.210938 128.019531 75.804688 127.972656 59.398438 L 127.972656 59.394531 C 127.925781 58.816406 127.625 58.289062 127.15625 57.949219 C 120.171875 53.84375 113.15625 49.8125 106.167969 45.722656 C 105.445312 45.300781 105.039062 45.429688 104.425781 45.90625 C 102.730469 47.234375 86.054688 57.417969 79.523438 61.339844 C 74.421875 64.394531 69.433594 67.617188 65.484375 72.207031 C 60.039062 78.535156 59.53125 87.300781 64.292969 94.179688 C 66.648438 97.59375 69.796875 100.1875 73.164062 102.492188 C 75.851562 104.324219 78.625 106.027344 81.355469 107.785156 C 81.28125 107.890625 81.238281 107.996094 81.167969 108.039062 C 77.566406 110.128906 73.976562 112.238281 70.332031 114.269531 C 69.980469 114.464844 69.25 114.269531 68.851562 114.015625 L 68.847656 114.015625 C 64.976562 111.515625 61.425781 108.554688 58.273438 105.195312 C 49.191406 95.671875 47.34375 80.0625 53.96875 68.675781 C 57.023438 63.421875 61.265625 58.960938 66.359375 55.648438 C 72.972656 51.324219 91.402344 40.386719 93.84375 38.890625 C 93.632812 38.617188 93.574219 38.46875 93.464844 38.402344 C 90.566406 36.710938 87.691406 34.988281 84.75 33.378906 C 84.320312 33.144531 83.539062 33.230469 83.070312 33.472656 C 81.453125 34.308594 79.90625 35.269531 78.335938 36.1875 C 76.949219 36.996094 75.570312 37.816406 73.976562 38.753906 L 81.527344 43.5 C 77.667969 45.777344 74.019531 47.960938 70.328125 50.078125 C 70.035156 50.246094 69.402344 50.113281 69.082031 49.894531 L 69.085938 49.894531 C 67.257812 48.664062 65.472656 47.371094 63.742188 46.011719 C 62.980469 45.40625 62.476562 45.351562 61.625 45.847656 C 54.757812 49.863281 47.875 53.847656 40.972656 57.796875 C 40.210938 58.234375 39.964844 58.742188 39.964844 59.625 C 39.992188 75.890625 39.984375 92.152344 39.960938 108.414062 C 39.960938 109.285156 40.1875 109.800781 40.96875 110.25 C 47.824219 114.175781 54.660156 118.144531 61.480469 122.140625 C 62.238281 122.585938 62.742188 122.566406 63.5 122.054688 C 68.394531 118.785156 90.777344 104.75 97 100.882812 C 98.054688 100.226562 98.941406 99.285156 99.898438 98.476562 L 99.742188 98.109375 L 76.503906 98.109375 C 78.867188 94.003906 81.070312 90.128906 83.355469 86.300781 C 83.566406 85.953125 84.335938 85.808594 84.851562 85.808594 C 95.386719 85.78125 105.929688 85.792969 116.46875 85.792969 C 116.890625 85.792969 117.308594 85.839844 117.816406 85.867188 C 117.84375 86.367188 117.957031 86.8125 117.863281 87.199219 C 117.171875 90.082031 116.707031 93.058594 115.660156 95.808594 C 113.171875 102.351562 108.558594 107.378906 102.933594 111.253906 C 96.792969 115.480469 77.234375 127.003906 73.917969 128.984375 C 74.074219 129.261719 74.097656 129.378906 74.164062 129.421875 C 76.183594 130.613281 78.355469 131.609375 80.195312 133.039062 C 82.847656 135.085938 85.15625 135.074219 87.808594 133.039062 C 89.71875 131.574219 91.957031 130.539062 94.269531 129.179688 L 86.582031 124.375 C 86.792969 124.191406 86.914062 124.042969 87.066406 123.953125 C 90.582031 121.910156 94.101562 119.859375 97.652344 117.863281 C 97.988281 117.679688 98.671875 117.777344 99.011719 118.015625 Z M 114.203125 69 C 116.015625 72.214844 117.363281 76.34375 117.5625 79.53125 C 114.003906 79.53125 110.570312 79.550781 107.128906 79.503906 C 106.8125 79.5 106.320312 79.136719 106.21875 78.832031 C 104.539062 73.644531 100.953125 69.960938 96.714844 66.863281 C 93.707031 64.664062 90.503906 62.726562 87.390625 60.667969 C 87.128906 60.5 86.871094 60.316406 86.445312 60.023438 C 87.152344 59.597656 87.707031 59.257812 88.273438 58.925781 C 91.171875 57.246094 94.046875 55.527344 96.988281 53.910156 C 97.511719 53.617188 98.457031 53.4375 98.882812 53.714844 C 105.023438 57.753906 110.511719 62.464844 114.195312 68.996094 Z M 114.203125 69 "/>
</g>
</svg>
