<?xml version="1.0" encoding="UTF-8"?>
<svg xmlns="http://www.w3.org/2000/svg" xmlns:xlink="http://www.w3.org/1999/xlink" width="168pt" height="168pt" viewBox="0 0 168 168" version="1.1">
<g id="surface1241">
<path style=" stroke:none;fill-rule:nonzero;fill:rgb(100%,95.294118%,0%);fill-opacity:1;" d="M 168 84 C 168 130.390625 130.390625 168 84 168 C 37.609375 168 0 130.390625 0 84 C 0 37.609375 37.609375 0 84 0 C 130.390625 0 168 37.609375 168 84 "/>
<path style=" stroke:none;fill-rule:nonzero;fill:rgb(100%,100%,100%);fill-opacity:1;" d="M 118.859375 50.230469 C 117.074219 46.234375 115.421875 38.339844 110.851562 36.582031 C 104.972656 34.324219 101.34375 49.117188 100.476562 52.855469 L 99.601562 52.855469 C 98.121094 46.449219 96.136719 37.367188 89.101562 35.351562 C 85.847656 49.027344 92.503906 63.773438 98.730469 75.613281 C 105.378906 72.433594 108.617188 62.488281 109.230469 55.480469 L 110.105469 55.480469 L 117.109375 76.484375 C 122.742188 74.867188 124.699219 69.292969 126.734375 64.230469 C 131.101562 53.375 134.765625 40.015625 131.984375 28.347656 C 123.585938 30.730469 121.023438 42.75 118.859375 50.230469 Z M 34.839844 78.242188 C 42.359375 74.652344 45.9375 63.28125 47.09375 55.484375 L 47.964844 55.484375 C 48.855469 59.242188 51.234375 68.933594 55.929688 69.554688 C 61.914062 70.347656 65.050781 57.074219 65.46875 52.859375 L 66.34375 52.859375 C 68.25 59.449219 70.261719 68.019531 76.84375 71.238281 C 79.28125 61.03125 76.371094 50.148438 72.636719 40.605469 C 71.675781 38.152344 69.707031 31.535156 66.320312 31.535156 C 60.777344 31.535156 57.65625 46.152344 56.710938 50.234375 L 55.839844 50.234375 L 48.839844 29.226562 C 36.523438 35.105469 29.835938 66.378906 34.839844 78.242188 Z M 21.710938 88.742188 C 30.847656 128.609375 73.007812 151.21875 110.988281 134.375 L 110.984375 134.375 C 124.753906 128.253906 135.8125 117.320312 142.085938 103.621094 C 143.71875 100.082031 146.925781 93.671875 145.058594 89.027344 C 143.195312 84.398438 125.136719 91.957031 120.621094 93.9375 L 120.617188 93.933594 C 119.984375 94.214844 119.539062 94.796875 119.433594 95.480469 C 119.285156 96.453125 119.546875 97.441406 120.160156 98.210938 C 120.769531 98.980469 121.675781 99.460938 122.65625 99.535156 L 130.238281 100.125 C 116.507812 126.699219 79.386719 138.449219 53.222656 117.21875 C 47.363281 112.46875 42.140625 106.824219 38.621094 100.125 C 36.921875 96.886719 35.339844 92.742188 32.453125 90.515625 C 29.671875 88.382812 25.460938 87.648438 21.710938 88.742188 Z M 21.710938 88.742188 "/>
</g>
</svg>
