<?xml version="1.0" encoding="UTF-8"?>
<svg xmlns="http://www.w3.org/2000/svg" xmlns:xlink="http://www.w3.org/1999/xlink" width="168pt" height="168pt" viewBox="0 0 168 168" version="1.1">
<g id="surface2154">
<path style=" stroke:none;fill-rule:evenodd;fill:rgb(21.568627%,49.411765%,58.823529%);fill-opacity:1;" d="M 168 84 C 168 130.390625 130.390625 168 84 168 C 37.609375 168 0 130.390625 0 84 C 0 37.609375 37.609375 0 84 0 C 130.390625 0 168 37.609375 168 84 "/>
<path style=" stroke:none;fill-rule:evenodd;fill:rgb(100%,100%,100%);fill-opacity:1;" d="M 124.03125 157.867188 L 124.472656 157.542969 C 123.253906 155.3125 121.28125 154.140625 119.058594 153.609375 C 115.886719 152.851562 112.664062 152.15625 109.429688 151.929688 C 102.242188 151.410156 95.035156 151.289062 87.839844 150.851562 C 79.828125 150.363281 71.828125 149.6875 63.8125 149.160156 C 63.113281 149.109375 62.113281 149.371094 61.710938 149.867188 C 59.609375 152.441406 57.578125 155.085938 55.6875 157.816406 C 54.761719 159.15625 54.191406 160.730469 53.472656 162.175781 L 54.023438 162.492188 L 54.027344 162.492188 C 50.867188 161.285156 47.785156 159.890625 44.792969 158.308594 C 45.339844 158.414062 46.054688 158.328125 46.320312 158.0625 C 49.605469 154.769531 52.789062 151.375 55.984375 148.015625 C 53.59375 146.105469 51.257812 144.410156 49.132812 142.488281 C 47.148438 140.691406 46.320312 138.316406 46.492188 135.589844 C 46.753906 131.40625 48.585938 127.839844 51.28125 124.847656 C 54.46875 121.3125 58.042969 118.128906 61.457031 114.800781 C 61.878906 114.398438 62.3125 114.023438 62.703125 113.667969 C 62.570312 113.4375 62.554688 113.367188 62.519531 113.34375 L 61.523438 112.765625 C 50.5625 106.445312 45.097656 96.84375 44.953125 84.3125 C 44.828125 73.582031 49.394531 64.894531 57.472656 58.03125 C 65.347656 51.347656 74.625 49 84.804688 49.230469 C 92.339844 49.402344 99.378906 51.066406 105.9375 54.8125 C 106.304688 55.023438 107.230469 54.777344 107.566406 54.425781 C 110.667969 51.175781 113.8125 47.957031 116.722656 44.53125 C 120.335938 40.277344 123.390625 35.660156 124.65625 30.082031 C 125.644531 25.734375 125.222656 21.652344 122.074219 18.257812 C 117.449219 13.277344 109.488281 13.949219 105.433594 19.621094 C 104.636719 20.734375 104.171875 22.089844 103.390625 23.226562 C 103.101562 23.648438 102.367188 23.765625 101.832031 24.03125 C 101.707031 23.558594 101.410156 23.070312 101.480469 22.632812 C 101.660156 21.4375 101.890625 20.21875 102.285156 19.082031 C 104.28125 13.359375 107.988281 9.453125 114.203125 8.582031 C 116.222656 8.296875 118.324219 8.535156 120.433594 8.535156 C 120.328125 8.394531 120.285156 8.273438 120.203125 8.234375 L 120.195312 8.230469 C 119.800781 8.023438 119.40625 7.824219 119 7.640625 C 115.039062 5.828125 110.945312 4.320312 106.757812 3.125 C 114.625 5.332031 122.125 8.683594 129.019531 13.066406 C 129.0625 13.523438 129.035156 13.644531 129.085938 13.707031 C 133.722656 19.425781 133.128906 25.488281 130.210938 31.660156 C 127.734375 36.882812 124.121094 41.304688 120.21875 45.515625 C 116.648438 49.367188 113.058594 53.207031 109.460938 57.066406 C 109.609375 57.160156 109.691406 57.265625 109.777344 57.265625 C 115.273438 57.269531 120.769531 57.351562 126.261719 57.234375 C 129.128906 57.183594 131.675781 56.230469 133.445312 53.695312 C 133.78125 53.207031 134.695312 53.117188 135.347656 52.84375 L 135.714844 53.351562 C 134.191406 57.742188 132.691406 62.136719 131.085938 66.488281 C 130.949219 66.855469 130.140625 67.15625 129.625 67.175781 C 127.683594 67.261719 125.738281 67.210938 123.796875 67.210938 L 116.8125 67.210938 L 117.605469 68.785156 C 121.386719 76.1875 122.386719 84.035156 120.476562 92.042969 C 117.65625 103.855469 109.929688 111.488281 98.6875 115.457031 C 89.511719 118.703125 80.09375 118.585938 70.667969 116.332031 C 69.832031 116.132812 68.542969 115.964844 68.09375 116.410156 C 66.066406 118.4375 63.925781 120.480469 62.464844 122.90625 C 59.457031 127.902344 61.203125 131.378906 66.9375 132.585938 L 67.101562 132.605469 C 72.730469 133.042969 78.351562 133.578125 83.984375 133.886719 C 91.953125 134.324219 99.933594 134.496094 107.898438 134.972656 C 112.722656 135.261719 117.484375 136.113281 121.832031 138.417969 C 127.429688 141.375 131.390625 145.730469 133.128906 152.097656 C 133.539062 151.808594 133.949219 151.519531 134.355469 151.222656 C 131.085938 153.675781 127.636719 155.894531 124.011719 157.859375 Z M 98.570312 166.738281 C 93.472656 167.632812 88.304688 168.054688 83.132812 168 C 88.300781 167.949219 93.460938 167.527344 98.570312 166.738281 Z M 168 84.261719 L 168 84 C 168 76.753906 167.082031 69.726562 165.359375 63.019531 C 167.074219 69.972656 167.960938 77.105469 168 84.269531 Z M 148.46875 30.160156 C 143.601562 24.335938 137.96875 19.195312 131.726562 14.875 C 138.117188 19.496094 143.710938 24.585938 148.472656 30.164062 Z M 43.605469 157.65625 C 39.460938 155.378906 35.519531 152.757812 31.816406 149.820312 C 35.558594 152.660156 39.644531 155.097656 43.609375 157.660156 Z M 0 84.164062 C 0.0117188 79.6875 0.355469 75.21875 1.035156 70.796875 C 0.335938 75.214844 -0.0078125 79.683594 0 84.15625 Z M 15.308594 35.636719 C 18.605469 31.054688 22.3125 26.78125 26.386719 22.875 C 22.277344 26.746094 18.566406 31.019531 15.308594 35.632812 Z M 58.449219 3.957031 C 66.726562 1.40625 75.335938 0.0703125 84 0 C 75.328125 -0.0078125 66.710938 1.328125 58.449219 3.957031 Z M 102.722656 87.441406 L 102.40625 87.363281 C 102.222656 84.824219 102.121094 82.269531 101.851562 79.742188 C 101.230469 73.882812 99.566406 68.351562 96.339844 63.363281 C 91.5625 55.972656 83.582031 52.988281 75.929688 55.949219 C 69.644531 58.375 66.3125 63.363281 64.808594 69.71875 C 63.378906 75.734375 63.496094 81.832031 64.21875 87.898438 C 64.917969 93.671875 66.566406 99.171875 69.890625 104.058594 C 74.164062 110.332031 80.121094 113.074219 87.53125 111.832031 C 94.566406 110.667969 98.988281 106.113281 100.789062 99.347656 C 101.824219 95.484375 102.105469 91.421875 102.730469 87.441406 Z M 102.722656 87.441406 "/>
</g>
</svg>
