<?xml version="1.0" encoding="UTF-8"?>
<svg xmlns="http://www.w3.org/2000/svg" xmlns:xlink="http://www.w3.org/1999/xlink" width="168pt" height="168pt" viewBox="0 0 168 168" version="1.1">
<defs>
<clipPath id="clip1">
  <rect x="0" y="0" width="168" height="168"/>
</clipPath>
<g id="surface2193" clip-path="url(#clip1)">
<path style=" stroke:none;fill-rule:nonzero;fill:rgb(0%,0%,0%);fill-opacity:1;" d="M 108.710938 102.601562 C 110.761719 104.652344 110.761719 107.972656 108.710938 110.023438 L 87.710938 131.023438 C 86.734375 132.039062 85.390625 132.613281 83.980469 132.625 C 82.574219 132.640625 81.21875 132.085938 80.222656 131.089844 C 79.226562 130.09375 78.671875 128.738281 78.6875 127.332031 C 78.699219 125.921875 79.273438 124.578125 80.289062 123.601562 L 101.289062 102.601562 C 103.339844 100.550781 106.660156 100.550781 108.710938 102.601562 Z M 78.75 38.0625 C 90.003906 38.0625 100.402344 44.066406 106.03125 53.8125 C 111.65625 63.558594 111.65625 75.566406 106.03125 85.3125 C 100.402344 95.058594 90.003906 101.0625 78.75 101.0625 C 67.496094 101.0625 57.097656 95.058594 51.46875 85.3125 C 45.84375 75.566406 45.84375 63.558594 51.46875 53.8125 C 57.097656 44.066406 67.496094 38.0625 78.75 38.0625 Z M 78.75 48.5625 C 71.246094 48.5625 64.316406 52.566406 60.5625 59.0625 C 56.8125 65.558594 56.8125 73.566406 60.5625 80.0625 C 64.316406 86.558594 71.246094 90.5625 78.75 90.5625 C 86.253906 90.5625 93.183594 86.558594 96.9375 80.0625 C 100.6875 73.566406 100.6875 65.558594 96.9375 59.0625 C 93.183594 52.566406 86.253906 48.5625 78.75 48.5625 Z M 115.5 38.0625 C 118.398438 38.0625 120.75 40.414062 120.75 43.3125 C 120.75 46.210938 118.398438 48.5625 115.5 48.5625 C 112.601562 48.5625 110.25 46.210938 110.25 43.3125 C 110.25 40.414062 112.601562 38.0625 115.5 38.0625 Z M 115.5 38.0625 "/>
</g>
</defs>
<g id="surface2189">
<path style=" stroke:none;fill-rule:nonzero;fill:rgb(34.901961%,25.882353%,80%);fill-opacity:1;" d="M 168 84 C 168 130.390625 130.390625 168 84 168 C 37.609375 168 0 130.390625 0 84 C 0 37.609375 37.609375 0 84 0 C 130.390625 0 168 37.609375 168 84 "/>
<use xlink:href="#surface2193"/>
</g>
</svg>
