<?xml version="1.0" encoding="UTF-8"?>
<svg xmlns="http://www.w3.org/2000/svg" xmlns:xlink="http://www.w3.org/1999/xlink" width="168pt" height="168pt" viewBox="0 0 168 168" version="1.1">
<g id="surface1186">
<path style=" stroke:none;fill-rule:nonzero;fill:rgb(100%,0%,37.647059%);fill-opacity:1;" d="M 168 84 C 168 130.390625 130.390625 168 84 168 C 37.609375 168 0 130.390625 0 84 C 0 37.609375 37.609375 0 84 0 C 130.390625 0 168 37.609375 168 84 "/>
<path style=" stroke:none;fill-rule:nonzero;fill:rgb(100%,100%,100%);fill-opacity:1;" d="M 131.617188 63.246094 L 83.589844 63.246094 C 78.609375 63.238281 73.796875 65.058594 70.066406 68.363281 C 66.335938 71.667969 63.949219 76.222656 63.355469 81.171875 C 62.761719 86.117188 64.003906 91.109375 66.84375 95.203125 C 69.6875 99.296875 73.933594 102.203125 78.773438 103.375 C 83.617188 104.546875 88.722656 103.898438 93.121094 101.558594 C 97.519531 99.21875 100.90625 95.34375 102.636719 90.671875 L 83.589844 90.671875 C 82.164062 90.675781 80.796875 90.109375 79.792969 89.101562 C 78.785156 88.09375 78.21875 86.726562 78.21875 85.300781 L 78.21875 84.648438 L 78.21875 84.652344 C 78.21875 83.226562 78.785156 81.859375 79.792969 80.851562 C 80.796875 79.84375 82.164062 79.277344 83.589844 79.28125 L 115.335938 79.28125 C 115.566406 80.761719 115.675781 82.257812 115.660156 83.753906 L 115.664062 83.753906 C 115.621094 92.25 112.210938 100.382812 106.175781 106.367188 C 100.144531 112.351562 91.984375 115.695312 83.484375 115.667969 C 74.988281 115.640625 66.851562 112.242188 60.855469 106.21875 C 54.863281 100.195312 51.503906 92.039062 51.519531 83.542969 C 51.53125 75.046875 54.917969 66.902344 60.929688 60.898438 C 66.945312 54.894531 75.09375 51.523438 83.589844 51.523438 L 84.570312 51.359375 C 84.773438 51.453125 84.992188 51.507812 85.222656 51.523438 L 113.710938 51.523438 C 129.257812 51.523438 135.601562 43.222656 135.601562 31.5 L 83.589844 31.5 C 54.863281 31.5 31.550781 54.773438 31.5 83.511719 C 31.457031 112.25 54.695312 135.589844 83.433594 135.6875 C 112.171875 135.777344 135.550781 112.578125 135.6875 83.839844 L 135.6875 67.394531 C 135.707031 66.300781 135.289062 65.246094 134.523438 64.464844 C 133.757812 63.6875 132.710938 63.246094 131.617188 63.246094 Z M 131.617188 63.246094 "/>
</g>
</svg>
