<?xml version="1.0" encoding="UTF-8"?>
<svg xmlns="http://www.w3.org/2000/svg" xmlns:xlink="http://www.w3.org/1999/xlink" width="168pt" height="168pt" viewBox="0 0 168 168" version="1.1">
<g id="surface31">
<path style=" stroke:none;fill-rule:nonzero;fill:rgb(49.803922%,15.294118%,100%);fill-opacity:1;" d="M 168 84 C 168 130.390625 130.390625 168 84 168 C 37.609375 168 0 130.390625 0 84 C 0 37.609375 37.609375 0 84 0 C 130.390625 0 168 37.609375 168 84 "/>
<path style=" stroke:none;fill-rule:nonzero;fill:rgb(100%,100%,100%);fill-opacity:1;" d="M 80.722656 73.5 L 42.105469 73.5 L 42.105469 111.414062 C 42.0625 115.292969 43.617188 119.027344 46.410156 121.765625 C 49.203125 124.507812 53.007812 126.035156 56.960938 125.996094 L 80.726562 125.996094 Z M 81.613281 53.660156 L 85.769531 53.660156 C 89.886719 46.574219 93.65625 41.753906 97.199219 39.148438 C 101.566406 35.929688 106.039062 35.902344 109.546875 39.347656 C 112.824219 42.5625 113.4375 46.59375 111.28125 50.476562 C 110.671875 51.558594 109.863281 52.617188 108.851562 53.65625 L 124.117188 53.65625 C 127.683594 53.65625 131.246094 56.585938 131.246094 60.65625 C 131.246094 64.15625 128.257812 67.660156 124.117188 67.660156 L 86.664062 67.660156 L 86.667969 58.328125 L 80.726562 58.328125 L 80.726562 67.664062 L 43.878906 67.660156 C 40.320312 67.660156 36.75 64.734375 36.75 60.660156 C 36.75 57.164062 39.738281 53.660156 43.878906 53.660156 L 59.316406 53.660156 C 58.347656 52.761719 57.488281 51.753906 56.753906 50.65625 C 54.195312 46.75 54.507812 42.625 57.839844 39.347656 C 61.347656 35.902344 65.820312 35.933594 70.191406 39.148438 C 73.730469 41.753906 77.5 46.578125 81.621094 53.660156 Z M 74.710938 53.660156 C 71.664062 48.8125 68.945312 45.523438 66.625 43.816406 C 64.476562 42.242188 63.300781 42.230469 62.035156 43.46875 C 60.738281 44.746094 60.660156 45.835938 61.746094 47.496094 C 62.984375 49.390625 65.59375 51.527344 69.351562 53.660156 Z M 92.675781 53.660156 L 99.082031 53.660156 C 102.667969 51.601562 105.035156 49.523438 106.066406 47.675781 C 106.957031 46.078125 106.769531 44.867188 105.351562 43.476562 C 104.085938 42.230469 102.910156 42.238281 100.769531 43.816406 C 98.445312 45.523438 95.71875 48.8125 92.683594 53.660156 Z M 86.664062 73.496094 L 125.289062 73.496094 L 125.289062 111.417969 L 125.292969 111.414062 C 125.324219 115.308594 123.769531 119.046875 120.984375 121.769531 C 118.167969 124.523438 114.375 126.042969 110.433594 126 L 86.667969 126 Z M 86.664062 73.496094 "/>
</g>
</svg>
