<?xml version="1.0" encoding="UTF-8"?>
<svg xmlns="http://www.w3.org/2000/svg" xmlns:xlink="http://www.w3.org/1999/xlink" width="168pt" height="168pt" viewBox="0 0 168 168" version="1.1">
<g id="surface1676">
<path style=" stroke:none;fill-rule:nonzero;fill:rgb(21.568627%,86.27451%,84.705882%);fill-opacity:1;" d="M 168 84 C 168 130.390625 130.390625 168 84 168 C 37.609375 168 0 130.390625 0 84 C 0 37.609375 37.609375 0 84 0 C 130.390625 0 168 37.609375 168 84 "/>
<path style=" stroke:none;fill-rule:nonzero;fill:rgb(100%,100%,100%);fill-opacity:1;" d="M 83.949219 66.566406 L 69.332031 51.84375 C 73.714844 44.710938 78.621094 37.914062 84 31.5 C 89.371094 37.886719 94.265625 44.65625 98.648438 51.757812 L 83.949219 66.5625 Z M 113.96875 81.320312 C 118.09375 92.878906 124.148438 104.441406 118.378906 115.539062 L 118.378906 115.535156 C 114.707031 122.539062 109.011719 128.273438 102.039062 131.996094 C 83.039062 142.074219 59.519531 134.671875 49.511719 115.539062 C 43.683594 104.441406 50.472656 91.964844 54.605469 80.410156 C 58.390625 71.890625 62.21875 64.035156 66.566406 56.484375 L 83.945312 73.988281 L 101.421875 56.390625 C 106.015625 64.339844 109.984375 72.519531 113.96875 81.324219 Z M 113.96875 81.320312 "/>
</g>
</svg>
