<?xml version="1.0" encoding="UTF-8"?>
<svg xmlns="http://www.w3.org/2000/svg" xmlns:xlink="http://www.w3.org/1999/xlink" width="168pt" height="168pt" viewBox="0 0 168 168" version="1.1">
<g id="surface2425">
<path style=" stroke:none;fill-rule:nonzero;fill:rgb(0%,86.27451%,98.039216%);fill-opacity:1;" d="M 168 84 C 168 130.390625 130.390625 168 84 168 C 37.609375 168 0 130.390625 0 84 C 0 37.609375 37.609375 0 84 0 C 130.390625 0 168 37.609375 168 84 "/>
<path style=" stroke:none;fill-rule:nonzero;fill:rgb(100%,100%,100%);fill-opacity:1;" d="M 101.734375 26.25 C 81.417969 26.25 64.160156 41.875 61.992188 61.988281 C 41.867188 64.160156 26.25 81.417969 26.25 101.730469 C 26.253906 112.339844 30.472656 122.515625 37.976562 130.019531 C 45.480469 137.523438 55.652344 141.742188 66.265625 141.75 C 86.582031 141.75 103.90625 126.125 106.007812 106.011719 C 126.125 103.839844 141.75 86.582031 141.75 66.269531 C 141.746094 55.660156 137.527344 45.484375 130.023438 37.980469 C 122.519531 30.476562 112.347656 26.257812 101.734375 26.25 Z M 132.375 70.75 C 131.375 77.3125 128.304688 83.382812 123.609375 88.078125 C 118.914062 92.773438 112.84375 95.84375 106.28125 96.839844 L 106.28125 70.746094 L 132.375 70.746094 Z M 35.625 97.25 C 36.613281 90.675781 39.675781 84.589844 44.371094 79.882812 C 49.066406 75.175781 55.144531 72.09375 61.71875 71.089844 L 61.71875 97.183594 L 35.625 97.183594 Z M 96.910156 106.28125 C 95.824219 113.632812 92.132812 120.347656 86.507812 125.199219 C 80.878906 130.054688 73.695312 132.722656 66.265625 132.714844 C 58.835938 132.722656 51.652344 130.054688 46.027344 125.203125 C 40.402344 120.351562 36.710938 113.636719 35.625 106.285156 L 96.910156 106.285156 Z M 97.25 70.75 L 97.25 97.183594 L 70.746094 97.183594 L 70.746094 70.75 Z M 132.371094 61.71875 L 71.089844 61.71875 C 72.175781 54.367188 75.867188 47.652344 81.492188 42.800781 C 87.121094 37.945312 94.304688 35.277344 101.734375 35.285156 C 109.164062 35.277344 116.347656 37.945312 121.972656 42.796875 C 127.597656 47.648438 131.289062 54.363281 132.375 61.714844 Z M 132.371094 61.71875 "/>
</g>
</svg>
