<?xml version="1.0" encoding="UTF-8"?>
<svg xmlns="http://www.w3.org/2000/svg" xmlns:xlink="http://www.w3.org/1999/xlink" width="168pt" height="168pt" viewBox="0 0 168 168" version="1.1">
<g id="surface1101">
<path style=" stroke:none;fill-rule:evenodd;fill:rgb(8.627451%,72.54902%,67.843137%);fill-opacity:1;" d="M 168 84 C 168 130.390625 130.390625 168 84 168 C 37.609375 168 0 130.390625 0 84 C 0 37.609375 37.609375 0 84 0 C 130.390625 0 168 37.609375 168 84 "/>
<path style=" stroke:none;fill-rule:nonzero;fill:rgb(100%,100%,100%);fill-opacity:1;" d="M 136.5 69.261719 C 136.5 97.65625 112.941406 120.75 84 120.75 C 55.058594 120.75 31.5 97.648438 31.5 69.273438 C 31.5 67.183594 31.625 65.089844 31.886719 63.011719 L 41.316406 63.011719 C 41 65.085938 40.84375 67.179688 40.84375 69.273438 C 40.84375 92.609375 60.207031 111.597656 84.003906 111.597656 C 106.714844 111.597656 125.382812 94.316406 127.054688 72.457031 L 60.269531 72.460938 C 61.6875 82.667969 69.734375 90.773438 80.097656 92.449219 C 90.464844 94.117188 100.730469 88.964844 105.414062 79.746094 L 115.519531 79.746094 C 110.925781 92.988281 98.246094 101.890625 83.988281 101.902344 C 65.632812 101.902344 50.699219 87.261719 50.699219 69.269531 C 50.699219 67.167969 50.910156 65.070312 51.3125 63.007812 L 136.109375 63.007812 C 136.371094 65.085938 136.496094 67.175781 136.496094 69.269531 Z M 136.5 69.261719 "/>
</g>
</svg>
