<?xml version="1.0" encoding="UTF-8"?>
<svg xmlns="http://www.w3.org/2000/svg" xmlns:xlink="http://www.w3.org/1999/xlink" width="168pt" height="168pt" viewBox="0 0 168 168" version="1.1">
<g id="surface851">
<path style=" stroke:none;fill-rule:nonzero;fill:rgb(20.784314%,64.705882%,95.294118%);fill-opacity:1;" d="M 168 84 C 168 130.390625 130.390625 168 84 168 C 37.609375 168 0 130.390625 0 84 C 0 37.609375 37.609375 0 84 0 C 130.390625 0 168 37.609375 168 84 "/>
<path style=" stroke:none;fill-rule:nonzero;fill:rgb(100%,100%,100%);fill-opacity:1;" d="M 36.855469 36.890625 C 43.523438 29.925781 55.703125 29.644531 62.585938 36.417969 C 69.777344 43.453125 76.898438 50.550781 83.941406 57.71875 C 91.4375 50.59375 98.453125 42.992188 105.980469 35.898438 C 113.140625 29.429688 125.320312 30.210938 131.679688 37.457031 C 138.199219 44.292969 138.09375 56.214844 131.328125 62.851562 C 124.363281 69.945312 117.304688 76.933594 110.277344 83.96875 C 117.460938 91.367188 124.941406 98.472656 132.066406 105.964844 C 138.449219 112.964844 137.839844 124.890625 130.917969 131.324219 C 124.109375 138.203125 111.898438 138.222656 105.097656 131.3125 C 98.027344 124.371094 91.105469 117.261719 84.082031 110.292969 C 76.585938 117.507812 69.433594 125.078125 61.859375 132.21875 C 54.601562 138.652344 42.367188 137.691406 36.121094 130.304688 C 29.820312 123.484375 29.980469 111.867188 36.542969 105.261719 L 36.539062 105.261719 C 42.707031 98.949219 48.949219 92.707031 55.261719 86.535156 L 63.171875 94.4375 C 56.996094 100.8125 50.503906 106.910156 44.425781 113.378906 C 40.324219 117.578125 43.9375 125.410156 49.695312 125.316406 C 53.1875 125.625 55.597656 122.734375 57.863281 120.550781 C 63.886719 114.417969 69.996094 108.398438 76.019531 102.265625 C 62.894531 89.023438 49.558594 75.96875 36.496094 62.671875 C 29.679688 55.804688 29.898438 43.5625 36.863281 36.894531 Z M 44.484375 54.6875 C 51.429688 61.933594 58.644531 68.921875 65.714844 76.042969 C 69.128906 72.589844 72.5625 69.15625 76.015625 65.738281 C 69.175781 58.84375 62.359375 51.90625 55.425781 45.105469 C 53.214844 42.714844 49.433594 41.828125 46.554688 43.539062 C 42.542969 45.480469 41.277344 51.445312 44.480469 54.683594 Z M 112.417969 45.289062 C 99.367188 58.097656 86.578125 71.183594 73.59375 84.054688 C 77.09375 87.453125 80.585938 90.859375 84.003906 94.34375 C 86.625 91.761719 89.226562 89.144531 91.835938 86.53125 C 94.472656 89.160156 97.089844 91.808594 99.746094 94.421875 C 97.167969 97.046875 94.574219 99.652344 91.957031 102.246094 C 98.996094 109.328125 105.902344 116.542969 113.171875 123.394531 C 116.863281 127.28125 124.023438 124.921875 125.089844 119.804688 C 126.234375 116.183594 123.628906 113.046875 121.171875 110.769531 L 121.175781 110.769531 C 109.605469 99.257812 98.0625 87.71875 86.546875 76.15625 C 89.183594 73.527344 91.808594 70.886719 94.425781 68.234375 C 97.050781 70.847656 99.671875 73.464844 102.351562 76.035156 C 109.253906 68.878906 116.574219 62.121094 123.371094 54.855469 C 126.800781 51.527344 125.429688 45.148438 121.050781 43.347656 C 118.109375 41.832031 114.523438 42.902344 112.410156 45.289062 Z M 112.417969 45.289062 "/>
</g>
</svg>
