<?xml version="1.0" encoding="UTF-8"?>
<svg xmlns="http://www.w3.org/2000/svg" xmlns:xlink="http://www.w3.org/1999/xlink" width="168pt" height="168pt" viewBox="0 0 168 168" version="1.1">
<g id="surface2320">
<path style=" stroke:none;fill-rule:nonzero;fill:rgb(33.72549%,78.823529%,91.372549%);fill-opacity:1;" d="M 168 84 C 168 130.390625 130.390625 168 84 168 C 37.609375 168 0 130.390625 0 84 C 0 37.609375 37.609375 0 84 0 C 130.390625 0 168 37.609375 168 84 "/>
<path style=" stroke:none;fill-rule:nonzero;fill:rgb(100%,100%,100%);fill-opacity:1;" d="M 125.371094 49.574219 C 121.414062 48.113281 112.667969 50.296875 112.246094 50.921875 C 113.914062 51.238281 114.433594 51.445312 116.933594 51.863281 C 119.609375 52.351562 122.183594 53.300781 124.535156 54.675781 C 127.035156 56.128906 128.074219 54.152344 128.074219 54.152344 C 128.496094 53.21875 127.351562 50.300781 125.371094 49.574219 Z M 54.25 32.289062 C 53.609375 31.277344 52.914062 30.304688 52.164062 29.375 C 50.183594 27.289062 46.335938 26.25 44.246094 27.289062 C 43.101562 27.8125 42.582031 28.539062 43.523438 29.789062 C 44.664062 30.917969 46.113281 31.679688 47.6875 31.976562 C 48.621094 32.1875 52.789062 33.121094 53.828125 33.324219 C 54.878906 33.324219 54.25 32.285156 54.25 32.285156 Z M 58.414062 42.804688 L 58.410156 42.804688 C 58.328125 42.617188 58.179688 42.46875 57.992188 42.386719 C 55.421875 42.710938 52.820312 42.164062 50.597656 40.828125 C 49.570312 40.101562 48.195312 40.101562 47.164062 40.828125 C 45.808594 41.972656 47.789062 43.328125 47.894531 43.328125 C 48.722656 43.847656 49.664062 43.644531 50.5 43.847656 C 52.539062 44.4375 54.632812 44.820312 56.746094 44.992188 C 58.515625 44.992188 58.929688 44.363281 58.410156 42.804688 Z M 127.351562 38.957031 C 127.5625 38.328125 127.351562 36.246094 123.597656 36.769531 C 120.472656 37.292969 118.289062 38.125 118.394531 38.539062 C 118.5 38.960938 121.933594 39.582031 122.664062 39.683594 C 125.578125 40.207031 127.246094 39.367188 127.351562 38.960938 Z M 89.445312 21.5625 C 88.691406 20.863281 87.539062 20.820312 86.734375 21.457031 C 83.609375 23.4375 85.898438 30.203125 86.210938 30.203125 C 86.527344 30.203125 86.839844 27.808594 89.964844 24.269531 C 90.261719 23.84375 90.375 23.316406 90.277344 22.804688 C 90.179688 22.292969 89.875 21.84375 89.4375 21.5625 Z M 79.515625 41.675781 C 79.515625 41.414062 79.253906 41.414062 79.515625 41.675781 Z M 79.515625 41.675781 "/>
<path style=" stroke:none;fill-rule:nonzero;fill:rgb(100%,100%,100%);fill-opacity:1;" d="M 76.527344 38.324219 C 74.546875 37.285156 76.210938 32.183594 75.488281 30.308594 C 75.351562 29.722656 74.925781 29.242188 74.363281 29.035156 C 73.796875 28.824219 73.164062 28.914062 72.675781 29.269531 C 72.128906 29.492188 71.707031 29.945312 71.527344 30.507812 C 71.347656 31.070312 71.425781 31.683594 71.742188 32.183594 C 72.164062 33.019531 74.65625 37.804688 72.675781 38.640625 C 71.945312 38.957031 70.386719 38.324219 69.347656 37.699219 C 65.597656 36.035156 64.972656 30.308594 63.824219 29.578125 C 62.730469 28.769531 61.226562 28.816406 60.179688 29.683594 C 59.121094 30.28125 58.671875 31.578125 59.140625 32.703125 C 59.660156 33.644531 61.640625 34.164062 62.054688 37.390625 L 63.304688 38.324219 C 63.933594 38.847656 64.554688 39.367188 65.285156 39.890625 C 67.160156 41.765625 66.746094 42.078125 70.597656 41.457031 C 71.847656 41.035156 71.636719 39.371094 72.886719 38.957031 L 72.886719 38.953125 C 73.664062 38.851562 74.453125 38.960938 75.175781 39.265625 C 76.324219 39.875 77.292969 40.773438 77.988281 41.871094 C 79.652344 43.851562 80.382812 46.347656 81.839844 48.539062 C 82.34375 49.453125 82.972656 50.292969 83.714844 51.03125 L 85.273438 52.28125 C 87.460938 53.742188 89.441406 53.636719 91 51.964844 L 91.003906 51.964844 C 91.859375 51.351562 92.425781 50.410156 92.566406 49.367188 C 93.398438 46.855469 94.453125 44.425781 95.71875 42.105469 C 95.738281 42.085938 95.769531 42.078125 95.796875 42.078125 C 95.804688 41.96875 95.894531 41.878906 96.007812 41.867188 C 96.597656 41.453125 97.386719 41.453125 97.980469 41.867188 C 98.296875 42.289062 97.664062 46.136719 97.980469 46.550781 C 98.191406 47.390625 99.75 46.867188 101.105469 46.761719 C 101.234375 46.601562 101.339844 46.425781 101.417969 46.238281 C 103.707031 45.515625 105.894531 44.371094 108.183594 43.746094 L 109.433594 43.746094 C 110.710938 43.535156 112.007812 43.535156 113.285156 43.746094 C 114.535156 43.746094 114.949219 44.476562 114.84375 45.621094 C 116.929688 45.515625 119.011719 45.515625 121.089844 45.304688 C 122.03125 45.199219 123.488281 45.199219 123.382812 43.429688 C 123.171875 42.390625 121.507812 39.476562 113.90625 41.246094 C 113.175781 41.457031 109.011719 42.707031 107.554688 41.976562 C 109.777344 40.539062 112.070312 39.21875 114.425781 38.019531 C 115.464844 37.183594 116.300781 36.039062 115.675781 34.789062 C 115.050781 33.539062 113.800781 33.644531 112.65625 34.058594 L 112.664062 34.058594 C 110.507812 34.726562 108.542969 35.90625 106.9375 37.496094 C 105.882812 38.566406 104.734375 39.542969 103.5 40.410156 C 100.480469 41.871094 100.480469 41.871094 99.75 41.660156 C 98.816406 41.238281 97.769531 40.515625 98.5 39.476562 C 98.925781 38.800781 99.242188 38.058594 99.441406 37.289062 C 99.757812 35.933594 99.335938 35.519531 98.398438 35.519531 C 96.523438 35.625 95.898438 38.328125 95.589844 38.75 C 95.390625 39.160156 95.144531 39.539062 94.859375 39.894531 L 94.855469 39.890625 C 94.363281 40.375 93.636719 40.539062 92.984375 40.308594 C 92.359375 40.203125 91.839844 39.886719 92.359375 39.054688 C 93.300781 37.601562 96.210938 35.304688 97.046875 32.289062 C 97.046875 32.289062 98.5 28.332031 94.441406 28.230469 C 92.253906 28.125 90.484375 29.683594 89.859375 32.078125 C 89.234375 34.578125 90.589844 38.015625 89.859375 39.679688 C 89.597656 40.382812 89.246094 41.042969 88.820312 41.660156 C 87.367188 42.960938 85.167969 42.960938 83.714844 41.660156 C 82.90625 40.710938 82.558594 39.453125 82.777344 38.226562 C 83.132812 36.851562 83.414062 35.460938 83.613281 34.058594 C 83.71875 33.019531 81.84375 31.144531 80.28125 32.394531 C 79.550781 32.917969 79.859375 33.75 80.175781 34.480469 C 80.699219 36.039062 81.636719 40.519531 76.53125 38.328125 Z M 79.445312 41.554688 C 79.339844 41.449219 79.445312 41.449219 79.445312 41.554688 Z M 79.445312 41.554688 "/>
<path style=" stroke:none;fill-rule:nonzero;fill:rgb(100%,100%,100%);fill-opacity:1;" d="M 82.882812 46.253906 L 89.761719 46.253906 C 90.382812 46.117188 90.996094 46.601562 91.425781 47.554688 C 91.457031 48.078125 91.332031 48.59375 91.109375 48.855469 C 88.800781 47.773438 86.128906 47.773438 83.820312 48.855469 L 83.503906 48.855469 L 82.878906 46.25 Z M 82.882812 46.253906 "/>
<path style=" stroke:none;fill-rule:nonzero;fill:rgb(100%,100%,100%);fill-opacity:1;" d="M 108.082031 43.429688 C 105.429688 44.175781 102.820312 45.082031 100.273438 46.136719 C 99.808594 46.28125 99.304688 46.113281 99.019531 45.71875 C 98.8125 45.253906 98.8125 44.726562 99.019531 44.261719 C 99.125 43.925781 99.125 43.5625 99.019531 43.222656 C 98.808594 42.652344 98.449219 42.152344 97.980469 41.765625 C 97.570312 41.421875 97.027344 41.285156 96.503906 41.386719 C 95.976562 41.488281 95.527344 41.820312 95.273438 42.289062 C 93.875 44.472656 92.820312 46.859375 92.148438 49.367188 C 91.898438 50.371094 91.355469 51.277344 90.589844 51.96875 C 89.023438 53.324219 87.570312 53.429688 85.488281 52.285156 L 85.484375 52.285156 C 84.90625 51.863281 84.351562 51.410156 83.820312 50.925781 C 83.105469 50.128906 82.476562 49.257812 81.945312 48.328125 C 81.105469 46.761719 80.277344 45.097656 79.445312 43.640625 C 78.296875 41.765625 77.152344 39.996094 75.070312 39.058594 L 75.074219 39.054688 C 74.40625 38.8125 73.679688 38.777344 72.992188 38.949219 C 72.375 39.070312 71.84375 39.449219 71.53125 39.996094 C 71.214844 40.515625 67.054688 40.621094 65.597656 39.785156 C 64.863281 39.363281 62.785156 37.285156 62.054688 37.496094 C 61.429688 37.496094 61.121094 37.074219 60.699219 36.765625 C 58.808594 35.464844 56.40625 35.15625 54.242188 35.929688 C 53.332031 36.144531 52.636719 36.882812 52.472656 37.804688 C 52.484375 38.789062 53.109375 39.664062 54.039062 39.996094 C 55.074219 40.382812 56.082031 40.835938 57.058594 41.351562 C 57.582031 41.5625 58.414062 41.667969 58.308594 42.601562 L 58.304688 42.597656 C 58.296875 42.847656 58.332031 43.09375 58.410156 43.328125 C 58.515625 44.675781 57.574219 44.78125 56.640625 44.78125 C 55.308594 44.675781 53.984375 44.46875 52.683594 44.15625 C 51.242188 43.671875 49.71875 43.496094 48.207031 43.636719 C 47.785156 44.160156 47.273438 43.847656 46.746094 43.953125 C 44.871094 44.269531 43.417969 45.617188 43.523438 47.175781 C 43.628906 48.949219 45.082031 49.363281 46.542969 49.675781 C 50.082031 50.515625 53.625 50.199219 57.164062 50.304688 C 61.433594 50.304688 63.832031 52.382812 64.449219 56.65625 C 64.871094 59.773438 74.242188 141.832031 74.34375 143.601562 C 74.363281 144.347656 74.875 144.984375 75.59375 145.167969 C 79.132812 146.246094 82.828125 146.742188 86.523438 146.628906 C 90.675781 146.734375 94.820312 146.207031 98.808594 145.0625 C 99.4375 144.851562 99.957031 144.640625 99.957031 143.8125 C 100.0625 141.628906 105.996094 63.214844 105.996094 61.964844 C 105.933594 58.320312 107.109375 54.757812 109.332031 51.863281 C 111.101562 49.777344 113.082031 47.90625 114.851562 45.824219 C 115.375 42.90625 111.621094 42.90625 108.085938 43.425781 Z M 108.082031 43.429688 "/>
</g>
</svg>
