<?xml version="1.0" encoding="UTF-8"?>
<svg xmlns="http://www.w3.org/2000/svg" xmlns:xlink="http://www.w3.org/1999/xlink" width="168pt" height="168pt" viewBox="0 0 168 168" version="1.1">
<g id="surface711">
<path style=" stroke:none;fill-rule:nonzero;fill:rgb(6.666667%,49.803922%,75.294118%);fill-opacity:1;" d="M 168 84 C 168 130.390625 130.390625 168 84 168 C 37.609375 168 0 130.390625 0 84 C 0 37.609375 37.609375 0 84 0 C 130.390625 0 168 37.609375 168 84 "/>
<path style=" stroke:none;fill-rule:nonzero;fill:rgb(100%,100%,100%);fill-opacity:1;" d="M 139.105469 54.242188 L 94.714844 127.425781 L 68.246094 127.425781 L 88.589844 93.839844 L 68.371094 93.839844 L 44.796875 132.710938 L 44.796875 132.714844 C 59.898438 144.988281 79.855469 149.53125 98.777344 145 C 117.703125 140.464844 133.4375 127.378906 141.339844 109.59375 C 149.242188 91.8125 148.410156 71.363281 139.089844 54.28125 L 139.105469 54.246094 Z M 100.347656 41.109375 L 81.082031 72.820312 L 101.324219 72.816406 L 123.761719 35.808594 C 108.664062 23.535156 88.707031 18.992188 69.78125 23.527344 C 50.859375 28.058594 35.125 41.148438 27.222656 58.929688 C 19.320312 76.714844 20.152344 97.164062 29.472656 114.246094 L 73.84375 41.113281 L 100.339844 41.113281 Z M 100.347656 41.109375 "/>
</g>
</svg>
