<?xml version="1.0" encoding="UTF-8"?>
<svg xmlns="http://www.w3.org/2000/svg" xmlns:xlink="http://www.w3.org/1999/xlink" width="168pt" height="168pt" viewBox="0 0 168 168" version="1.1">
<g id="surface1571">
<path style=" stroke:none;fill-rule:nonzero;fill:rgb(0%,0%,0%);fill-opacity:1;" d="M 168 84 C 168 130.390625 130.390625 168 84 168 C 37.609375 168 0 130.390625 0 84 C 0 37.609375 37.609375 0 84 0 C 130.390625 0 168 37.609375 168 84 "/>
<path style=" stroke:none;fill-rule:nonzero;fill:rgb(100%,100%,100%);fill-opacity:1;" d="M 122.140625 64.835938 L 115.324219 52.667969 L 128.527344 52.671875 L 128.53125 52.671875 C 128.921875 52.695312 129.277344 52.902344 129.484375 53.230469 L 132.058594 57.484375 L 136.5 64.835938 Z M 97.71875 138.546875 C 97.402344 139.125 96.984375 139.125 96.847656 139.125 L 91.453125 139.125 L 83.347656 139.121094 L 104.320312 101.257812 L 104.324219 101.257812 C 104.667969 100.628906 104.660156 99.871094 104.300781 99.25 C 103.941406 98.632812 103.285156 98.25 102.570312 98.238281 L 66.816406 98.285156 L 59.707031 85.90625 L 111.8125 85.90625 L 111.898438 85.894531 C 112.101562 85.886719 112.304688 85.84375 112.496094 85.769531 L 112.628906 85.71875 L 112.628906 85.714844 C 113.035156 85.539062 113.371094 85.234375 113.582031 84.84375 L 122.164062 68.890625 L 136.339844 68.890625 Z M 79.859375 137.109375 L 78.164062 134.304688 C 75.996094 130.707031 73.21875 126.097656 72.902344 125.589844 C 72.796875 125.421875 72.746094 125.007812 72.96875 124.601562 L 85.273438 102.308594 L 99.140625 102.292969 L 79.855469 137.105469 Z M 56.21875 113.417969 L 49.324219 101.113281 L 56.269531 88.023438 L 63.234375 100.144531 L 56.214844 113.417969 Z M 46.96875 115.335938 L 39.460938 115.335938 L 39.460938 115.332031 C 39.074219 115.304688 38.722656 115.101562 38.515625 114.777344 L 36.273438 111.066406 L 31.5 103.164062 L 45.851562 103.164062 L 52.667969 115.332031 L 46.964844 115.332031 Z M 70.277344 29.460938 C 70.59375 28.878906 71.011719 28.878906 71.144531 28.878906 L 84.699219 28.878906 L 63.667969 66.742188 L 63.625 66.847656 L 63.625 66.84375 C 63.566406 66.96875 63.519531 67.097656 63.484375 67.230469 L 63.441406 67.414062 C 63.429688 67.488281 63.421875 67.566406 63.421875 67.640625 L 63.410156 67.746094 C 63.410156 67.765625 63.410156 67.792969 63.421875 67.8125 C 63.417969 67.886719 63.425781 67.960938 63.441406 68.035156 C 63.445312 68.097656 63.457031 68.160156 63.472656 68.222656 L 63.523438 68.410156 L 63.523438 68.414062 C 63.570312 68.535156 63.621094 68.652344 63.683594 68.765625 C 63.746094 68.878906 63.824219 68.984375 63.917969 69.078125 C 64 69.175781 64.09375 69.265625 64.195312 69.34375 C 64.246094 69.390625 64.3125 69.433594 64.367188 69.46875 L 64.429688 69.515625 C 64.449219 69.53125 64.476562 69.53125 64.503906 69.546875 C 64.609375 69.597656 64.714844 69.648438 64.828125 69.679688 L 64.949219 69.714844 L 64.953125 69.714844 C 65.101562 69.753906 65.253906 69.773438 65.410156 69.773438 L 66.324219 69.773438 L 101.171875 69.726562 C 102.097656 71.339844 103.816406 74.371094 105.28125 76.949219 L 108.074219 81.859375 L 56.203125 81.859375 L 56.140625 81.871094 L 56.144531 81.867188 C 55.414062 81.878906 54.746094 82.285156 54.402344 82.929688 L 45.8125 99.121094 L 31.65625 99.121094 C 37.839844 87.949219 69.859375 30.1875 70.273438 29.453125 Z M 88.164062 30.941406 L 89.425781 33.027344 C 91.636719 36.695312 94.761719 41.875 95.097656 42.414062 C 95.203125 42.582031 95.246094 42.996094 95.023438 43.402344 L 82.722656 65.683594 L 68.863281 65.699219 L 88.167969 30.945312 Z M 111.773438 54.578125 L 118.667969 66.890625 L 111.636719 79.953125 L 108.78125 74.929688 C 106.847656 71.53125 105.441406 69.054688 104.648438 67.675781 C 106.15625 64.917969 110.113281 57.621094 111.773438 54.582031 Z M 111.773438 54.578125 "/>
</g>
</svg>
