<?xml version="1.0" encoding="UTF-8"?>
<svg xmlns="http://www.w3.org/2000/svg" xmlns:xlink="http://www.w3.org/1999/xlink" width="168pt" height="168pt" viewBox="0 0 168 168" version="1.1">
<g id="surface1949">
<path style=" stroke:none;fill-rule:nonzero;fill:rgb(83.529412%,56.862745%,26.27451%);fill-opacity:1;" d="M 168 84 C 168 130.390625 130.390625 168 84 168 C 37.609375 168 0 130.390625 0 84 C 0 37.609375 37.609375 0 84 0 C 130.390625 0 168 37.609375 168 84 "/>
<path style=" stroke:none;fill-rule:nonzero;fill:rgb(100%,100%,100%);fill-opacity:1;" d="M 41.859375 86.378906 C 39.140625 88.542969 36.714844 92.386719 36.835938 98.257812 C 36.925781 102.320312 39.109375 105.105469 41.859375 106.992188 L 41.859375 114.246094 C 41.859375 118.78125 44.0625 123.03125 47.78125 125.628906 L 73.257812 143.054688 L 73.257812 54.023438 L 41.859375 63.210938 Z M 48.699219 84.238281 C 53.984375 88.109375 53.984375 111.097656 53.984375 111.097656 C 53.984375 111.097656 48.003906 110.519531 43.0625 107.757812 C 47.136719 109.128906 50.40625 108.824219 51.828125 108.980469 L 51.921875 108.984375 L 51.941406 108.984375 L 52.015625 108.996094 L 52.214844 109.011719 L 52.28125 109.023438 L 52.347656 109.023438 C 52.347656 109.023438 53.1875 88.957031 47.113281 85.441406 C 46.125 85.101562 44.382812 85.300781 42.460938 85.914062 C 44.90625 84.265625 47.464844 83.710938 48.6875 84.238281 Z M 75.457031 120.484375 L 92.585938 120.484375 L 92.585938 143.089844 L 75.460938 143.089844 L 75.464844 120.488281 Z M 71.570312 52.339844 L 41.855469 60.855469 L 41.859375 28.980469 C 41.855469 27.898438 42.507812 26.921875 43.507812 26.503906 C 44.507812 26.089844 45.660156 26.316406 46.425781 27.078125 L 73.097656 53.851562 L 71.574219 52.328125 Z M 75.457031 84.210938 L 92.585938 84.210938 L 92.585938 118.304688 L 75.460938 118.304688 L 75.464844 84.210938 Z M 96.421875 52.34375 L 95.320312 53.445312 L 121.570312 27.089844 C 122.335938 26.324219 123.484375 26.09375 124.488281 26.507812 C 125.488281 26.921875 126.140625 27.898438 126.140625 28.980469 L 126.140625 60.847656 L 96.425781 52.34375 Z M 75.464844 54.027344 L 92.589844 54.027344 L 92.589844 82.011719 L 75.464844 82.011719 Z M 126.144531 86.378906 L 126.140625 63.210938 L 94.792969 54.042969 L 94.792969 143.089844 L 120.21875 125.632812 C 123.929688 123.03125 126.140625 118.785156 126.140625 114.253906 L 126.140625 106.996094 C 128.890625 105.105469 131.074219 102.324219 131.164062 98.261719 C 131.289062 92.386719 128.859375 88.542969 126.140625 86.382812 Z M 115.855469 109.34375 L 115.921875 109.34375 L 115.984375 109.339844 L 116.074219 109.328125 L 116.09375 109.328125 L 116.277344 109.3125 L 116.289062 109.3125 L 116.375 109.300781 L 117.15625 109.210938 L 117.191406 109.210938 C 118.902344 108.992188 121.003906 109.011719 124.226562 108.003906 L 124.941406 107.769531 C 119.996094 110.53125 114.019531 111.109375 114.019531 111.109375 C 114.019531 111.109375 114.019531 88.125 119.304688 84.253906 C 120.527344 83.71875 123.085938 84.273438 125.527344 85.933594 C 123.605469 85.320312 121.867188 85.121094 120.875 85.460938 C 114.800781 88.972656 115.84375 109.347656 115.84375 109.347656 Z M 115.855469 109.34375 "/>
</g>
</svg>
