<?xml version="1.0" encoding="UTF-8"?>
<svg xmlns="http://www.w3.org/2000/svg" xmlns:xlink="http://www.w3.org/1999/xlink" width="168pt" height="168pt" viewBox="0 0 168 168" version="1.1">
<g id="surface1486">
<path style=" stroke:none;fill-rule:nonzero;fill:rgb(53.333333%,20.392157%,100%);fill-opacity:1;" d="M 168 84 C 168 130.390625 130.390625 168 84 168 C 37.609375 168 0 130.390625 0 84 C 0 37.609375 37.609375 0 84 0 C 130.390625 0 168 37.609375 168 84 "/>
<path style=" stroke:none;fill-rule:nonzero;fill:rgb(100%,100%,100%);fill-opacity:1;" d="M 36.75 111.457031 C 37.753906 111.457031 38.808594 111.507812 39.8125 111.457031 C 41.71875 111.316406 43.628906 110.933594 45.492188 110.460938 C 49.167969 109.457031 52.605469 107.734375 55.613281 105.394531 C 56.472656 104.726562 57.328125 104.015625 58.144531 103.246094 C 59.859375 101.53125 61.347656 99.570312 62.539062 97.472656 C 63.589844 95.609375 64.351562 93.601562 64.929688 91.550781 C 64.976562 91.410156 64.976562 91.214844 65.023438 91.074219 L 57.527344 91.074219 L 57.523438 91.070312 C 55.964844 91.066406 54.414062 90.890625 52.894531 90.546875 C 52.757812 90.492188 52.609375 90.460938 52.464844 90.453125 C 52.390625 90.414062 52.324219 90.367188 52.269531 90.304688 C 52.699219 89.355469 53.082031 88.445312 53.464844 87.492188 L 56.378906 80.757812 L 56.378906 80.753906 C 56.472656 80.433594 56.617188 80.128906 56.804688 79.851562 C 57.011719 79.660156 57.289062 79.554688 57.570312 79.5625 C 59.910156 79.515625 62.199219 79.5625 64.542969 79.5625 L 65.164062 79.5625 C 65.070312 79.179688 65.070312 78.894531 64.976562 78.566406 L 64.972656 78.566406 C 64.128906 75.335938 62.632812 72.3125 60.578125 69.679688 C 59.570312 68.390625 58.46875 67.179688 57.28125 66.054688 C 55.800781 64.660156 54.148438 63.457031 52.367188 62.46875 C 50.511719 61.425781 48.5625 60.5625 46.542969 59.890625 C 44.859375 59.363281 43.132812 58.980469 41.386719 58.746094 C 40 58.597656 38.660156 58.550781 37.28125 58.457031 C 36.945312 58.457031 36.609375 58.410156 36.277344 58.363281 C 36.140625 58.324219 36.03125 58.214844 35.988281 58.074219 C 35.511719 56.976562 35.03125 55.925781 34.554688 54.828125 C 33.976562 53.535156 33.453125 52.25 32.886719 51.007812 C 32.457031 49.957031 31.976562 48.960938 31.5 47.859375 L 32.503906 47.570312 C 34.605469 47.285156 36.757812 47.191406 38.902344 47.285156 C 42.320312 47.402344 45.714844 47.898438 49.023438 48.765625 C 51.125 49.335938 53.222656 50.050781 55.230469 50.914062 C 58.050781 52.105469 60.722656 53.589844 63.210938 55.355469 C 64.304688 56.164062 65.398438 57.023438 66.457031 57.886719 C 66.929688 58.269531 67.40625 58.699219 67.886719 59.125 C 70.277344 61.417969 72.375 64.042969 74.144531 66.863281 C 75.910156 69.675781 77.199219 72.734375 78.0625 75.933594 C 78.347656 76.984375 78.535156 78.085938 78.777344 79.136719 L 78.769531 79.136719 C 78.828125 79.304688 78.980469 79.417969 79.152344 79.421875 L 88.84375 79.421875 C 89.039062 78.65625 89.179688 77.894531 89.320312 77.128906 C 89.898438 74.886719 90.660156 72.734375 91.613281 70.683594 C 92.375 68.96875 93.328125 67.296875 94.425781 65.769531 C 95.429688 64.382812 96.480469 62.996094 97.628906 61.710938 L 97.632812 61.707031 C 98.480469 60.710938 99.386719 59.769531 100.355469 58.890625 C 102.363281 57.066406 104.535156 55.433594 106.847656 54.015625 C 109.238281 52.535156 111.71875 51.339844 114.34375 50.386719 C 116.160156 49.765625 117.972656 49.195312 119.789062 48.71875 C 121.167969 48.382812 122.507812 48.140625 123.941406 47.953125 C 125.085938 47.765625 126.28125 47.667969 127.476562 47.570312 C 128.242188 47.523438 128.957031 47.476562 129.722656 47.476562 C 130.867188 47.476562 131.964844 47.429688 133.0625 47.476562 C 134.164062 47.527344 135.261719 47.765625 136.359375 47.953125 C 136.40625 47.953125 136.40625 48.003906 136.5 48.09375 L 135.6875 50.003906 C 134.832031 52.007812 133.972656 54.015625 133.0625 56.066406 L 133.0625 56.070312 C 132.714844 56.789062 132.394531 57.523438 132.105469 58.269531 C 131.917969 58.742188 131.4375 58.554688 131.109375 58.648438 C 130.820312 58.699219 130.585938 58.699219 130.296875 58.648438 L 130.292969 58.648438 C 125.414062 58.695312 120.605469 59.820312 116.207031 61.945312 C 114.152344 62.949219 112.226562 64.199219 110.476562 65.671875 C 109.761719 66.292969 108.953125 66.910156 108.28125 67.625 C 106.558594 69.347656 105.078125 71.300781 103.886719 73.453125 C 102.929688 75.230469 102.160156 77.101562 101.597656 79.039062 C 101.546875 79.179688 101.546875 79.375 101.496094 79.515625 L 102.019531 79.515625 C 104.503906 79.515625 107.035156 79.464844 109.515625 79.515625 C 110.996094 79.515625 112.476562 79.75 113.910156 80.230469 C 113.960938 80.28125 114.003906 80.28125 114.050781 80.332031 L 112.671875 83.480469 C 111.714844 85.722656 110.714844 87.96875 109.757812 90.257812 C 109.46875 90.929688 109.28125 91.070312 108.511719 91.070312 L 101.539062 91.070312 C 101.734375 91.738281 101.875 92.308594 102.0625 92.886719 C 102.734375 94.890625 103.691406 96.796875 104.882812 98.566406 C 105.601562 99.617188 106.363281 100.570312 107.175781 101.527344 C 107.648438 102.097656 108.171875 102.671875 108.699219 103.148438 C 110.46875 104.863281 112.480469 106.351562 114.621094 107.542969 C 116.4375 108.59375 118.394531 109.453125 120.402344 110.117188 C 122.3125 110.789062 124.320312 111.21875 126.371094 111.410156 L 130.140625 111.699219 C 130.617188 111.75 131.097656 111.75 131.574219 111.792969 C 131.667969 111.84375 131.769531 111.886719 131.816406 111.988281 C 132.625 113.894531 133.4375 115.804688 134.300781 117.714844 L 136.347656 122.394531 C 135.679688 122.542969 135.0625 122.683594 134.394531 122.730469 C 132.765625 122.824219 131.097656 122.917969 129.476562 122.917969 C 127.996094 122.917969 126.515625 122.777344 125.082031 122.585938 L 125.085938 122.585938 C 123.101562 122.308594 121.125 121.957031 119.164062 121.539062 C 116.8125 120.960938 114.511719 120.191406 112.285156 119.242188 C 109.636719 118.109375 107.109375 116.699219 104.746094 115.042969 C 103.515625 114.132812 102.308594 113.191406 101.121094 112.222656 C 100.339844 111.589844 99.605469 110.902344 98.921875 110.171875 C 95.90625 107.105469 93.421875 103.554688 91.570312 99.671875 C 90.488281 97.371094 89.6875 94.949219 89.183594 92.457031 C 89.089844 92.214844 89.042969 91.933594 88.988281 91.691406 C 88.988281 91.21875 88.753906 91.121094 88.320312 91.121094 L 78.675781 91.121094 L 78.675781 91.117188 C 78.195312 93.710938 77.425781 96.242188 76.382812 98.664062 C 75.535156 100.71875 74.464844 102.671875 73.183594 104.492188 C 72.1875 105.894531 71.117188 107.25 69.984375 108.550781 C 69.164062 109.539062 68.273438 110.464844 67.308594 111.316406 C 65.828125 112.609375 64.253906 113.800781 62.679688 114.992188 C 60.785156 116.335938 58.773438 117.503906 56.664062 118.480469 C 52.738281 120.347656 48.550781 121.601562 44.246094 122.203125 C 42.765625 122.4375 41.285156 122.585938 39.808594 122.726562 L 39.8125 122.730469 C 38.96875 122.777344 38.125 122.777344 37.28125 122.730469 C 36.035156 122.730469 34.796875 122.679688 33.605469 122.636719 C 33.167969 122.585938 32.738281 122.542969 32.3125 122.441406 C 32.070312 122.394531 31.976562 122.300781 32.117188 122.015625 C 33.074219 119.816406 34.074219 117.621094 35.03125 115.421875 C 35.609375 114.089844 36.132812 112.847656 36.746094 111.464844 Z M 36.75 111.457031 "/>
</g>
</svg>
