<?xml version="1.0" encoding="UTF-8"?>
<svg xmlns="http://www.w3.org/2000/svg" xmlns:xlink="http://www.w3.org/1999/xlink" width="168pt" height="168pt" viewBox="0 0 168 168" version="1.1">
<g id="surface336">
<path style=" stroke:none;fill-rule:evenodd;fill:rgb(8.235294%,56.862745%,79.215686%);fill-opacity:1;" d="M 168 84 C 168 130.390625 130.390625 168 84 168 C 37.609375 168 0 130.390625 0 84 C 0 37.609375 37.609375 0 84 0 C 130.390625 0 168 37.609375 168 84 "/>
<path style=" stroke:none;fill-rule:nonzero;fill:rgb(100%,100%,100%);fill-opacity:1;" d="M 87.003906 80.179688 C 87.003906 80.179688 93.96875 64.691406 80.308594 49.730469 C 80.308594 49.730469 72.539062 39.753906 56.472656 40.542969 L 59.679688 39.28125 C 60.214844 39.070312 60.777344 38.925781 61.34375 38.851562 L 64.503906 38.441406 L 86.730469 35.027344 C 86.730469 35.027344 94.589844 33.484375 100.546875 35.183594 C 102.242188 35.671875 103.785156 36.589844 105.007812 37.839844 C 108.292969 41.167969 114.894531 49.972656 110.574219 63.902344 C 110.574219 63.902344 106.285156 79.390625 90.214844 83.066406 C 90.214844 83.066406 86.191406 84.117188 86.996094 80.179688 Z M 86.011719 88.8125 C 86.011719 88.8125 96.054688 102.582031 116.15625 98.703125 C 116.15625 98.703125 128.871094 97.238281 136.375 83.285156 L 135.839844 86.640625 C 135.75 87.195312 135.59375 87.742188 135.367188 88.261719 L 134.117188 91.132812 L 125.78125 111.609375 C 125.78125 111.609375 123.128906 119.015625 118.597656 123.175781 L 118.597656 123.171875 C 117.296875 124.355469 115.714844 125.183594 114 125.578125 C 109.40625 126.644531 98.3125 127.71875 88.285156 116.980469 C 88.285156 116.980469 76.875 105.472656 81.84375 90.046875 C 81.84375 90.035156 82.96875 86.125 86.011719 88.808594 Z M 78.742188 83.839844 C 78.742188 83.839844 61.574219 85.644531 55.144531 104.707031 C 55.144531 104.707031 50.1875 116.277344 58.894531 129.539062 L 56.179688 127.4375 L 56.175781 127.4375 C 55.722656 127.089844 55.316406 126.6875 54.96875 126.234375 L 53.027344 123.757812 L 38.933594 106.574219 C 38.933594 106.574219 33.648438 100.65625 32.191406 94.761719 C 31.769531 93.070312 31.8125 91.296875 32.308594 89.628906 C 33.617188 85.183594 38.113281 75.191406 52.589844 71.925781 C 52.589844 71.925781 68.429688 67.847656 79.691406 79.675781 C 79.703125 79.675781 82.632812 82.5625 78.746094 83.839844 Z M 78.742188 83.839844 "/>
<path style=" stroke:none;fill-rule:nonzero;fill:rgb(100%,100%,100%);fill-opacity:0.5;" d="M 89.804688 84.835938 C 89.804688 84.835938 106.917969 82.609375 112.851562 63.390625 C 112.851562 63.390625 117.507812 51.699219 108.457031 38.65625 L 111.230469 40.6875 C 111.6875 41.027344 112.105469 41.421875 112.46875 41.859375 L 114.46875 44.285156 L 129.011719 61.117188 C 129.011719 61.117188 134.441406 66.890625 136.058594 72.761719 C 136.515625 74.441406 136.515625 76.207031 136.058594 77.886719 C 134.867188 82.363281 130.628906 92.472656 116.238281 96.09375 C 116.238281 96.09375 100.507812 100.554688 88.949219 89.027344 C 88.960938 89.027344 85.957031 86.214844 89.804688 84.835938 Z M 81.207031 88.007812 C 81.207031 88.007812 73.851562 103.316406 87.125 118.609375 C 87.125 118.609375 94.628906 128.769531 110.722656 128.375 L 107.476562 129.554688 C 106.9375 129.75 106.375 129.878906 105.804688 129.9375 L 102.640625 130.273438 L 80.328125 133.140625 C 80.328125 133.140625 72.4375 134.488281 66.519531 132.640625 L 66.515625 132.640625 C 64.839844 132.113281 63.328125 131.160156 62.125 129.875 C 58.921875 126.460938 52.554688 117.507812 57.230469 103.691406 C 57.230469 103.691406 61.902344 88.308594 78.066406 85.03125 C 78.066406 85.046875 82.125 84.085938 81.207031 88.003906 Z M 81.777344 79.9375 C 81.777344 79.9375 71.53125 66.308594 51.488281 70.488281 C 51.488281 70.488281 38.792969 72.125 31.496094 86.1875 L 31.980469 82.820312 L 31.984375 82.820312 C 32.066406 82.257812 32.21875 81.714844 32.433594 81.191406 L 33.640625 78.304688 L 41.671875 57.703125 C 41.671875 57.703125 44.21875 50.257812 48.6875 46.039062 C 49.976562 44.835938 51.554688 43.988281 53.265625 43.574219 C 57.84375 42.433594 68.921875 41.210938 79.09375 51.8125 C 79.09375 51.8125 90.671875 63.15625 85.929688 78.652344 C 85.929688 78.640625 84.859375 82.578125 81.777344 79.9375 Z M 81.777344 79.9375 "/>
</g>
</svg>
