<?xml version="1.0" encoding="UTF-8"?>
<svg xmlns="http://www.w3.org/2000/svg" xmlns:xlink="http://www.w3.org/1999/xlink" width="168pt" height="168pt" viewBox="0 0 168 168" version="1.1">
<g id="surface56">
<path style=" stroke:none;fill-rule:nonzero;fill:rgb(33.72549%,25.882353%,55.686275%);fill-opacity:1;" d="M 168 84 C 168 130.390625 130.390625 168 84 168 C 37.609375 168 0 130.390625 0 84 C 0 37.609375 37.609375 0 84 0 C 130.390625 0 168 37.609375 168 84 "/>
<path style=" stroke:none;fill-rule:nonzero;fill:rgb(100%,100%,100%);fill-opacity:1;" d="M 56.4375 39.375 L 79.296875 39.375 C 76.546875 43.734375 74.859375 48.546875 74.964844 53.761719 C 81.761719 53.828125 88.582031 53.828125 95.386719 53.761719 C 95.476562 48.578125 94.085938 43.628906 91.109375 39.375 L 114.125 39.375 C 112.539062 42.699219 109.847656 45.78125 110.101562 49.679688 C 109.996094 67.128906 110.136719 84.59375 110.085938 102.042969 C 112.34375 102.042969 114.628906 102.042969 116.910156 102.058594 C 118.574219 98.75 120.054688 95.375 121.234375 91.875 C 128.070312 92.046875 134.941406 91.679688 141.746094 92.59375 C 135.015625 98.398438 131.5 106.664062 127.113281 114.1875 C 109.714844 114.222656 92.320312 114.136719 74.90625 114.238281 C 74.085938 120.589844 78.003906 124.964844 82.539062 128.625 L 53.15625 128.625 C 55.714844 125.25 60.863281 123.074219 60.324219 118.125 C 60.496094 101.257812 60.324219 84.367188 60.375 67.476562 L 75.285156 67.476562 L 75.285156 77.871094 L 95.066406 77.871094 L 95.066406 65.953125 L 53.765625 65.953125 L 43.507812 84 C 46.921875 90.023438 50.34375 96.03125 53.789062 102.042969 L 58.871094 102.042969 L 58.871094 114.1875 L 43.332031 114.1875 C 37.664062 104.109375 31.785156 94.148438 26.25 84 L 26.25 83.984375 C 31.800781 73.851562 37.695312 63.894531 43.332031 53.8125 C 49.128906 53.8125 54.917969 53.8125 60.710938 53.761719 C 60.789062 48.640625 59.296875 43.621094 56.433594 39.375 Z M 75.296875 90.125 L 75.296875 102.042969 L 95.074219 102.042969 L 95.074219 90.125 Z M 111.601562 53.8125 L 127.089844 53.8125 C 131.332031 60.636719 134.25 68.511719 140.371094 73.972656 C 140.496094 74.375 140.722656 75.199219 140.84375 75.601562 C 134.300781 76.460938 127.675781 75.796875 121.082031 76.125 C 120.242188 72.488281 118.59375 69.140625 116.765625 65.941406 L 111.601562 65.957031 L 111.597656 53.8125 Z M 95.617188 115.710938 C 100.191406 115.726562 104.785156 115.710938 109.363281 115.695312 C 109.257812 121.539062 113.347656 125.160156 117.363281 128.625 L 87.769531 128.625 C 91.566406 125.023438 96 121.605469 95.617188 115.710938 Z M 95.617188 115.710938 "/>
</g>
</svg>
