<?xml version="1.0" encoding="UTF-8"?>
<svg xmlns="http://www.w3.org/2000/svg" xmlns:xlink="http://www.w3.org/1999/xlink" width="168pt" height="168pt" viewBox="0 0 168 168" version="1.1">
<g id="surface396">
<path style=" stroke:none;fill-rule:nonzero;fill:rgb(16.470588%,18.823529%,41.176471%);fill-opacity:1;" d="M 168 84 C 168 130.390625 130.390625 168 84 168 C 37.609375 168 0 130.390625 0 84 C 0 37.609375 37.609375 0 84 0 C 130.390625 0 168 37.609375 168 84 "/>
<path style=" stroke:none;fill-rule:nonzero;fill:rgb(100%,100%,100%);fill-opacity:1;" d="M 96.320312 55.296875 C 96.320312 36.816406 87.359375 21.140625 80.636719 16.101562 C 80.636719 16.101562 80.074219 15.539062 80.074219 16.65625 C 79.519531 51.9375 61.59375 61.460938 52.074219 74.898438 C 29.117188 104.578125 50.394531 137.613281 72.234375 143.777344 C 84.554688 147.136719 69.4375 137.613281 67.757812 118.015625 C 64.953125 93.378906 96.316406 75.453125 96.316406 55.292969 "/>
<path style=" stroke:none;fill-rule:nonzero;fill:rgb(100%,100%,100%);fill-opacity:1;" d="M 108.082031 67.621094 C 106.957031 72.097656 102.480469 81.621094 96.320312 90.578125 C 75.597656 120.261719 87.359375 134.820312 94.078125 142.65625 C 98 147.140625 94.078125 142.65625 103.597656 138.179688 C 104.160156 137.617188 122.640625 128.101562 124.320312 106.257812 C 126.5625 84.980469 113.121094 71.539062 108.082031 67.617188 "/>
</g>
</svg>
