<?xml version="1.0" encoding="UTF-8"?>
<svg xmlns="http://www.w3.org/2000/svg" xmlns:xlink="http://www.w3.org/1999/xlink" width="168pt" height="168pt" viewBox="0 0 168 168" version="1.1">
<g id="surface2149">
<path style=" stroke:none;fill-rule:evenodd;fill:rgb(81.176471%,66.27451%,40.392157%);fill-opacity:1;" d="M 168 84 C 168 130.390625 130.390625 168 84 168 C 37.609375 168 0 130.390625 0 84 C 0 37.609375 37.609375 0 84 0 C 130.390625 0 168 37.609375 168 84 "/>
<path style=" stroke:none;fill-rule:nonzero;fill:rgb(100%,100%,100%);fill-opacity:1;" d="M 84.105469 88.960938 L 84.105469 130.925781 L 115.328125 122.515625 L 122.664062 41.71875 L 84.105469 41.714844 L 84.105469 76.007812 L 85.703125 71.035156 L 89.882812 71.035156 Z M 45.339844 128.460938 L 36.75 34.125 L 131.25 34.125 L 122.660156 128.460938 L 83.894531 139.125 Z M 72.445312 92.796875 L 72.445312 88.90625 L 59.484375 83.742188 L 72.453125 78.542969 L 72.453125 74.648438 L 53.9375 82.171875 L 53.9375 85.28125 Z M 114.09375 85.277344 L 95.578125 92.796875 L 95.578125 88.90625 L 108.546875 83.722656 L 95.578125 78.539062 L 95.578125 74.644531 L 114.09375 82.167969 Z M 84.105469 88.953125 L 84.105469 76.007812 L 77.191406 97.570312 L 81.328125 97.570312 Z M 84.105469 88.953125 "/>
</g>
</svg>
