<?xml version="1.0" encoding="UTF-8"?>
<svg xmlns="http://www.w3.org/2000/svg" xmlns:xlink="http://www.w3.org/1999/xlink" width="168pt" height="168pt" viewBox="0 0 168 168" version="1.1">
<g id="surface866">
<path style=" stroke:none;fill-rule:nonzero;fill:rgb(0%,37.254902%,98.039216%);fill-opacity:1;" d="M 168 84 C 168 130.390625 130.390625 168 84 168 C 37.609375 168 0 130.390625 0 84 C 0 37.609375 37.609375 0 84 0 C 130.390625 0 168 37.609375 168 84 "/>
<path style=" stroke:none;fill-rule:evenodd;fill:rgb(100%,100%,100%);fill-opacity:1;" d="M 108.644531 76.640625 C 106.320312 75.582031 103.792969 75.039062 101.242188 75.039062 L 75.425781 75.039062 C 70.46875 75.039062 66.449219 71.019531 66.449219 66.0625 L 66.449219 35.140625 L 48.503906 35.136719 L 48.503906 75.039062 C 48.503906 79.800781 50.394531 84.367188 53.761719 87.734375 C 57.132812 91.101562 61.699219 92.992188 66.460938 92.992188 L 92.269531 92.992188 C 97.226562 92.992188 101.246094 97.011719 101.246094 101.972656 L 101.246094 132.894531 L 119.195312 132.894531 L 119.195312 92.992188 C 119.195312 89.542969 118.199219 86.164062 116.328125 83.261719 C 114.457031 80.363281 111.789062 78.0625 108.644531 76.640625 Z M 49.117188 103.964844 L 49.117188 134.121094 L 67.070312 134.121094 L 67.070312 121.914062 L 67.074219 121.914062 C 67.074219 117.15625 65.179688 112.589844 61.8125 109.222656 C 58.445312 105.855469 53.878906 103.964844 49.117188 103.964844 Z M 104.371094 36.378906 L 100.621094 36.378906 L 100.621094 48.585938 L 100.621094 48.582031 C 100.621094 53.34375 102.511719 57.914062 105.878906 61.28125 C 109.246094 64.648438 113.816406 66.539062 118.578125 66.539062 L 118.578125 36.371094 L 104.371094 36.371094 Z M 104.371094 36.378906 "/>
</g>
</svg>
