<?xml version="1.0" encoding="UTF-8"?>
<svg xmlns="http://www.w3.org/2000/svg" xmlns:xlink="http://www.w3.org/1999/xlink" width="168pt" height="168pt" viewBox="0 0 168 168" version="1.1">
<g id="surface261">
<path style=" stroke:none;fill-rule:evenodd;fill:rgb(16.078431%,16.078431%,16.078431%);fill-opacity:1;" d="M 168 84 C 168 130.390625 130.390625 168 84 168 C 37.609375 168 0 130.390625 0 84 C 0 37.609375 37.609375 0 84 0 C 130.390625 0 168 37.609375 168 84 "/>
<path style=" stroke:none;fill-rule:evenodd;fill:rgb(100%,100%,100%);fill-opacity:1;" d="M 78.785156 97.949219 C 78.785156 95.535156 78.796875 93.125 78.78125 90.714844 C 78.777344 90.042969 78.96875 89.527344 79.59375 89.253906 C 80.171875 89 80.773438 89.179688 81.277344 89.769531 C 82.777344 91.523438 84.269531 93.285156 85.765625 95.050781 C 86.289062 95.664062 86.820312 96.273438 87.332031 96.910156 C 87.453125 97.058594 87.523438 97.242188 87.535156 97.433594 C 87.546875 99.980469 87.550781 102.527344 87.539062 105.066406 C 87.566406 107.390625 85.804688 109.347656 83.492188 109.558594 C 81.179688 109.703125 79.144531 108.042969 78.828125 105.746094 C 78.78125 105.457031 78.785156 105.15625 78.785156 104.863281 Z M 78.800781 50.648438 C 78.796875 50.542969 78.785156 50.445312 78.785156 50.339844 L 78.785156 35.992188 C 78.789062 33.789062 80.300781 31.929688 82.351562 31.566406 C 83.628906 31.332031 84.949219 31.675781 85.945312 32.507812 C 86.945312 33.34375 87.519531 34.578125 87.511719 35.878906 C 87.5625 40.765625 87.53125 45.660156 87.542969 50.546875 L 87.515625 50.800781 C 86.496094 49.058594 85.089844 48.1875 83.167969 48.191406 C 81.265625 48.191406 79.851562 49.03125 78.800781 50.648438 Z M 78.785156 116.867188 C 79.855469 118.496094 81.285156 119.324219 83.199219 119.320312 C 85.109375 119.316406 86.5 118.445312 87.539062 116.828125 L 87.539062 128.976562 C 87.535156 130.167969 87.570312 131.371094 87.464844 132.546875 L 87.46875 132.542969 C 87.257812 134.875 85.242188 136.621094 82.902344 136.496094 C 80.601562 136.339844 78.808594 134.433594 78.796875 132.125 C 78.769531 127.4375 78.785156 122.75 78.785156 118.054688 L 78.785156 116.863281 Z M 87.542969 70.53125 L 87.542969 79.25 C 87.542969 80.078125 87.28125 80.53125 86.652344 80.78125 C 85.980469 81.058594 85.210938 80.855469 84.761719 80.289062 L 80.960938 75.835938 C 80.304688 75.070312 79.648438 74.308594 79.003906 73.527344 C 78.878906 73.378906 78.804688 73.195312 78.792969 73 C 78.78125 69.25 78.777344 65.496094 78.792969 61.75 C 78.777344 59.453125 80.527344 57.53125 82.8125 57.328125 C 84.886719 57.097656 86.945312 58.640625 87.425781 60.8125 C 87.503906 61.175781 87.53125 61.554688 87.53125 61.925781 C 87.542969 64.792969 87.542969 67.660156 87.542969 70.523438 Z M 96.628906 52.800781 L 96.628906 41.144531 C 96.640625 39.035156 97.839844 37.3125 99.710938 36.722656 C 102.546875 35.824219 105.382812 37.96875 105.398438 41.054688 C 105.414062 43.964844 105.398438 46.871094 105.398438 49.773438 L 105.398438 64.445312 C 105.398438 66.613281 104.097656 68.367188 102.105469 68.90625 C 99.515625 69.605469 96.875 67.699219 96.660156 64.972656 L 96.664062 64.980469 C 96.644531 64.710938 96.636719 64.445312 96.636719 64.175781 L 96.636719 52.800781 Z M 70.152344 108.988281 L 70.152344 122.457031 C 70.191406 124.628906 68.652344 126.511719 66.511719 126.902344 C 63.992188 127.386719 61.476562 125.335938 61.402344 122.71875 C 61.382812 121.96875 61.398438 121.21875 61.398438 120.464844 L 61.398438 95.511719 C 61.398438 93.417969 62.742188 91.648438 64.695312 91.144531 C 66.007812 90.8125 67.398438 91.109375 68.464844 91.941406 C 69.53125 92.777344 70.152344 94.054688 70.144531 95.410156 C 70.160156 99.9375 70.144531 104.464844 70.144531 108.992188 Z M 70.152344 59.398438 L 70.152344 77.769531 C 70.191406 79.867188 68.753906 81.707031 66.707031 82.179688 C 65.417969 82.453125 64.074219 82.132812 63.046875 81.308594 C 62.019531 80.484375 61.417969 79.242188 61.402344 77.925781 C 61.375 75.269531 61.398438 72.617188 61.390625 69.960938 L 61.394531 41.054688 C 61.394531 38.890625 62.800781 37.085938 64.824219 36.628906 L 64.820312 36.628906 C 66.125 36.34375 67.484375 36.664062 68.519531 37.503906 C 69.554688 38.34375 70.152344 39.605469 70.144531 40.941406 C 70.160156 45.660156 70.144531 50.375 70.144531 55.09375 Z M 96.632812 102.375 L 96.632812 82.425781 C 96.632812 80.4375 97.484375 78.960938 99.257812 78.132812 C 102.101562 76.816406 105.296875 78.921875 105.398438 82.136719 L 105.398438 122.289062 C 105.398438 124.484375 104.144531 126.226562 102.164062 126.792969 C 99.570312 127.539062 96.882812 125.636719 96.660156 122.902344 L 96.664062 122.902344 C 96.644531 122.621094 96.632812 122.34375 96.636719 122.0625 L 96.636719 102.363281 Z M 123.375 82.078125 L 123.375 113.261719 C 123.429688 115.40625 121.949219 117.285156 119.851562 117.738281 C 117.269531 118.300781 114.695312 116.238281 114.621094 113.542969 L 114.625 50.960938 C 114.625 48.941406 115.636719 47.328125 117.351562 46.613281 C 120.238281 45.40625 123.375 47.578125 123.375 50.804688 Z M 53.375 82.03125 L 53.375 113.261719 C 53.375 115.464844 52.011719 117.234375 49.953125 117.722656 C 47.328125 118.351562 44.699219 116.285156 44.625 113.527344 L 44.625 50.863281 C 44.625 48.714844 45.910156 46.972656 47.878906 46.425781 C 49.1875 46.082031 50.582031 46.363281 51.65625 47.1875 C 52.730469 48.007812 53.363281 49.28125 53.371094 50.636719 C 53.398438 54.074219 53.375 57.519531 53.375 60.964844 Z M 53.375 82.03125 "/>
</g>
</svg>
