<?xml version="1.0" encoding="UTF-8"?>
<svg xmlns="http://www.w3.org/2000/svg" xmlns:xlink="http://www.w3.org/1999/xlink" width="168pt" height="168pt" viewBox="0 0 168 168" version="1.1">
<g id="surface476">
<path style=" stroke:none;fill-rule:evenodd;fill:rgb(29.803922%,43.529412%,54.901961%);fill-opacity:1;" d="M 168 84 C 168 130.390625 130.390625 168 84 168 C 37.609375 168 0 130.390625 0 84 C 0 37.609375 37.609375 0 84 0 C 130.390625 0 168 37.609375 168 84 "/>
<path style=" stroke:none;fill-rule:nonzero;fill:rgb(100%,100%,100%);fill-opacity:1;" d="M 109.375 36.75 L 123.375 36.75 L 123.375 131.25 L 109.375 131.25 Z M 86.042969 84 L 100.042969 84 L 100.042969 131.25 L 86.042969 131.25 Z M 62.707031 60.375 L 76.707031 60.375 L 76.707031 131.25 L 62.707031 131.25 Z M 39.375 107.625 L 53.375 107.625 L 53.375 131.25 L 39.375 131.25 Z M 39.375 107.625 "/>
</g>
</svg>
