<?xml version="1.0" encoding="UTF-8"?>
<svg xmlns="http://www.w3.org/2000/svg" xmlns:xlink="http://www.w3.org/1999/xlink" width="168pt" height="168pt" viewBox="0 0 168 168" version="1.1">
<g id="surface1176">
<path style=" stroke:none;fill-rule:nonzero;fill:rgb(16.078431%,16.470588%,18.039216%);fill-opacity:1;" d="M 168 84 C 168 130.390625 130.390625 168 84 168 C 37.609375 168 0 130.390625 0 84 C 0 37.609375 37.609375 0 84 0 C 130.390625 0 168 37.609375 168 84 "/>
<path style=" stroke:none;fill-rule:nonzero;fill:rgb(100%,100%,100%);fill-opacity:1;" d="M 116.390625 55.125 C 109.355469 55.125 101.675781 58.625 93.5625 65.53125 L 93.566406 65.53125 C 90.125 68.5 86.894531 71.699219 83.890625 75.105469 L 83.902344 75.117188 L 83.914062 75.105469 C 83.914062 75.105469 87.863281 79.273438 92.199219 83.730469 L 92.195312 83.730469 C 95.148438 80.277344 98.355469 77.042969 101.785156 74.0625 C 109 67.925781 113.714844 66.640625 116.394531 66.640625 C 126.511719 66.640625 134.742188 74.429688 134.742188 84.003906 C 134.742188 93.527344 126.503906 101.308594 116.378906 101.371094 C 115.917969 101.371094 115.328125 101.320312 114.59375 101.160156 C 117.542969 102.394531 120.714844 103.285156 123.738281 103.285156 C 142.285156 103.285156 145.910156 91.539062 146.15625 90.707031 C 146.707031 88.554688 146.996094 86.3125 146.996094 84.007812 C 146.996094 68.078125 133.265625 55.128906 116.386719 55.128906 Z M 51.605469 112.875 C 58.640625 112.875 66.320312 109.375 74.433594 102.46875 C 77.875 99.5 81.105469 96.300781 84.109375 92.894531 L 84.097656 92.882812 L 84.101562 92.882812 C 84.097656 92.886719 84.09375 92.890625 84.089844 92.894531 C 84.089844 92.894531 80.140625 88.726562 75.804688 84.269531 C 72.851562 87.722656 69.644531 90.957031 66.214844 93.9375 C 59 100.074219 54.285156 101.359375 51.605469 101.359375 C 41.488281 101.359375 33.257812 93.570312 33.257812 83.996094 C 33.257812 74.472656 41.496094 66.691406 51.621094 66.628906 C 52.082031 66.628906 52.671875 66.679688 53.40625 66.839844 C 50.457031 65.605469 47.285156 64.714844 44.261719 64.714844 C 25.714844 64.714844 22.089844 76.460938 21.84375 77.292969 C 21.292969 79.445312 21.003906 81.6875 21.003906 83.992188 C 21 99.921875 34.730469 112.875 51.609375 112.875 Z M 51.605469 112.875 "/>
<path style=" stroke:none;fill-rule:nonzero;fill:rgb(100%,100%,100%);fill-opacity:1;" d="M 123.707031 102.988281 C 114.210938 102.761719 104.339844 95.496094 102.328125 93.691406 C 97.125 89.019531 85.117188 76.382812 84.179688 75.390625 C 75.378906 65.824219 63.453125 55.125 51.601562 55.125 L 51.574219 55.125 C 37.167969 55.191406 25.0625 64.664062 21.84375 77.300781 C 22.089844 76.464844 26.820312 64.496094 44.246094 64.910156 C 53.742188 65.140625 63.660156 72.507812 65.671875 74.308594 C 70.875 78.980469 82.886719 91.625 83.820312 92.617188 C 92.621094 102.175781 104.546875 112.875 116.398438 112.875 L 116.425781 112.875 C 130.832031 112.808594 142.9375 103.335938 146.15625 90.699219 C 145.914062 91.535156 141.132812 103.402344 123.707031 102.988281 Z M 123.707031 102.988281 "/>
</g>
</svg>
