<?xml version="1.0" encoding="UTF-8"?>
<svg xmlns="http://www.w3.org/2000/svg" xmlns:xlink="http://www.w3.org/1999/xlink" width="168pt" height="168pt" viewBox="0 0 168 168" version="1.1">
<g id="surface1841">
<path style=" stroke:none;fill-rule:evenodd;fill:rgb(12.156863%,77.254902%,78.823529%);fill-opacity:1;" d="M 168 84 C 168 130.390625 130.390625 168 84 168 C 37.609375 168 0 130.390625 0 84 C 0 37.609375 37.609375 0 84 0 C 130.390625 0 168 37.609375 168 84 "/>
<path style=" stroke:none;fill-rule:evenodd;fill:rgb(100%,100%,100%);fill-opacity:1;" d="M 59.304688 117.976562 L 70.664062 106.617188 C 77.398438 110.59375 85.554688 111.363281 92.910156 108.710938 C 100.269531 106.0625 106.0625 100.269531 108.710938 92.910156 C 111.363281 85.554688 110.59375 77.398438 106.617188 70.664062 L 117.976562 59.304688 C 125.894531 70.179688 128.125 84.191406 123.96875 96.988281 C 119.816406 109.785156 109.785156 119.816406 96.988281 123.96875 C 84.191406 128.125 70.179688 125.894531 59.304688 117.976562 Z M 50.023438 108.695312 C 42.105469 97.820312 39.875 83.808594 44.03125 71.011719 C 48.183594 58.214844 58.214844 48.183594 71.011719 44.03125 C 83.808594 39.875 97.820312 42.105469 108.695312 50.023438 L 97.335938 61.382812 C 90.601562 57.40625 82.445312 56.636719 75.089844 59.289062 C 67.730469 61.9375 61.9375 67.730469 59.289062 75.089844 C 56.636719 82.445312 57.40625 90.601562 61.382812 97.335938 Z M 126 52.5 C 120.199219 52.5 115.5 47.800781 115.5 42 C 115.5 36.199219 120.199219 31.5 126 31.5 C 131.800781 31.5 136.5 36.199219 136.5 42 C 136.5 47.800781 131.800781 52.5 126 52.5 Z M 42 136.5 C 36.199219 136.5 31.5 131.800781 31.5 126 C 31.5 120.199219 36.199219 115.5 42 115.5 C 47.800781 115.5 52.5 120.199219 52.5 126 C 52.5 131.800781 47.800781 136.5 42 136.5 Z M 42 136.5 "/>
</g>
</svg>
