<?xml version="1.0" encoding="UTF-8"?>
<svg xmlns="http://www.w3.org/2000/svg" xmlns:xlink="http://www.w3.org/1999/xlink" width="168pt" height="168pt" viewBox="0 0 168 168" version="1.1">
<g id="surface686">
<path style=" stroke:none;fill-rule:evenodd;fill:rgb(97.647059%,75.294118%,6.666667%);fill-opacity:1;" d="M 168 84 C 168 130.390625 130.390625 168 84 168 C 37.609375 168 0 130.390625 0 84 C 0 37.609375 37.609375 0 84 0 C 130.390625 0 168 37.609375 168 84 "/>
<path style=" stroke:none;fill-rule:nonzero;fill:rgb(100%,100%,100%);fill-opacity:1;" d="M 77.761719 31.5 C 85.730469 36.15625 93.226562 41.546875 101.125 46.332031 L 72.019531 97.105469 C 68.15625 90.328125 64.53125 83.414062 60.714844 76.597656 C 66.210938 61.503906 72.492188 46.671875 77.761719 31.5 Z M 52.5 136.5 C 68.980469 106.527344 86.101562 76.886719 102.394531 46.835938 C 106.753906 54.484375 111.113281 62.128906 115.5 69.777344 C 102.867188 91.996094 90.140625 114.160156 77.609375 136.425781 C 69.234375 136.425781 60.871094 136.320312 52.5 136.5 Z M 79.179688 136.378906 C 86.164062 124.433594 92.742188 112.28125 99.8125 100.390625 C 104.027344 105.78125 108.308594 111.144531 112.492188 116.5625 L 112.492188 116.558594 C 101.429688 123.234375 90.324219 129.839844 79.179688 136.378906 Z M 79.179688 136.378906 "/>
</g>
</svg>
