<?xml version="1.0" encoding="UTF-8"?>
<svg xmlns="http://www.w3.org/2000/svg" xmlns:xlink="http://www.w3.org/1999/xlink" width="168pt" height="168pt" viewBox="0 0 168 168" version="1.1">
<g id="surface381">
<path style=" stroke:none;fill-rule:nonzero;fill:rgb(59.607843%,76.078431%,22.745098%);fill-opacity:1;" d="M 168 84 C 168 130.390625 130.390625 168 84 168 C 37.609375 168 0 130.390625 0 84 C 0 37.609375 37.609375 0 84 0 C 130.390625 0 168 37.609375 168 84 "/>
<path style=" stroke:none;fill-rule:nonzero;fill:rgb(100%,100%,100%);fill-opacity:1;" d="M 82.898438 21 C 48.714844 21 21 48.714844 21 82.898438 C 21 117.082031 48.714844 144.796875 82.898438 144.796875 C 117.082031 144.796875 144.796875 117.082031 144.796875 82.898438 C 144.738281 48.734375 117.058594 21.058594 82.898438 21 Z M 82.898438 136.5 C 53.332031 136.5 29.359375 112.535156 29.347656 82.964844 C 29.335938 53.398438 53.292969 29.414062 82.859375 29.398438 C 112.425781 29.378906 136.414062 53.328125 136.445312 82.894531 C 136.414062 112.457031 112.457031 136.414062 82.894531 136.445312 Z M 55.546875 77.386719 L 45.570312 77.386719 L 45.570312 55.546875 C 45.570312 51.453125 47.511719 49.40625 51.398438 49.40625 L 73.027344 49.40625 L 73.027344 49.402344 C 74.71875 49.117188 76.445312 49.675781 77.648438 50.898438 C 78.851562 52.121094 79.382812 53.859375 79.066406 55.546875 L 79.066406 77.386719 L 69.195312 77.386719 L 69.195312 57.960938 L 55.546875 57.960938 Z M 69.195312 83.792969 L 79.171875 83.792969 L 79.171875 110.042969 L 79.171875 110.039062 C 79.464844 111.71875 78.929688 113.4375 77.726562 114.648438 C 76.527344 115.859375 74.8125 116.410156 73.132812 116.128906 L 51.398438 116.128906 C 49.734375 116.328125 48.082031 115.71875 46.941406 114.496094 C 45.800781 113.273438 45.308594 111.578125 45.621094 109.933594 L 45.621094 83.683594 L 69.246094 83.683594 L 69.195312 83.789062 Z M 110.144531 84.160156 L 120.222656 84.160156 L 120.222656 110.410156 L 120.226562 110.40625 C 120.527344 112.097656 119.984375 113.828125 118.769531 115.042969 C 117.554688 116.253906 115.824219 116.796875 114.136719 116.496094 L 92.242188 116.496094 C 90.570312 116.761719 88.871094 116.199219 87.683594 114.992188 C 86.496094 113.78125 85.964844 112.074219 86.257812 110.40625 L 86.257812 56.015625 C 85.929688 54.308594 86.472656 52.550781 87.703125 51.320312 C 88.933594 50.089844 90.691406 49.546875 92.398438 49.875 L 113.925781 49.875 C 115.65625 49.484375 117.46875 50 118.738281 51.238281 C 120.011719 52.476562 120.570312 54.277344 120.226562 56.015625 L 120.226562 71.765625 L 109.726562 71.765625 L 109.726562 58.429688 L 96.601562 58.429688 L 96.601562 84.15625 L 110.148438 84.15625 Z M 110.144531 84.160156 "/>
</g>
</svg>
