<?xml version="1.0" encoding="UTF-8"?>
<svg xmlns="http://www.w3.org/2000/svg" xmlns:xlink="http://www.w3.org/1999/xlink" width="168pt" height="168pt" viewBox="0 0 168 168" version="1.1">
<g id="surface661">
<path style=" stroke:none;fill-rule:evenodd;fill:rgb(87.45098%,10.196078%,7.843137%);fill-opacity:1;" d="M 168 84 C 168 130.390625 130.390625 168 84 168 C 37.609375 168 0 130.390625 0 84 C 0 37.609375 37.609375 0 84 0 C 130.390625 0 168 37.609375 168 84 "/>
<path style=" stroke:none;fill-rule:nonzero;fill:rgb(100%,100%,100%);fill-opacity:1;" d="M 78.015625 60.515625 C 79.628906 60.007812 81.460938 60.914062 82.125 62.5 C 83.738281 66.183594 85.179688 69.980469 86.851562 73.660156 C 87.847656 75.871094 91.246094 76.152344 92.574219 74.117188 C 94.800781 70.433594 96.578125 66.519531 98.75 62.777344 C 100.53125 60.457031 103.753906 61.589844 106.199219 61.363281 C 108.757812 61.195312 110.644531 64.425781 109.195312 66.632812 C 102.191406 79.722656 95.136719 92.757812 88.132812 105.851562 C 86.960938 108.230469 83.128906 108.230469 82.074219 105.734375 C 80.515625 101.9375 79.292969 97.96875 77.789062 94.175781 C 76.898438 91.683594 73.0625 91.289062 71.789062 93.667969 C 69.621094 97.578125 67.730469 101.660156 65.5625 105.511719 C 64.507812 107.265625 62.28125 106.980469 60.558594 106.980469 C 58.890625 106.871094 56.890625 107.378906 55.613281 105.960938 L 55.613281 105.964844 C 54.464844 104.777344 54.257812 102.964844 55.109375 101.546875 C 61.671875 89.136719 68.339844 76.671875 74.902344 64.144531 C 75.679688 62.726562 76.347656 60.96875 78.015625 60.523438 Z M 55.109375 61.480469 L 55.109375 61.484375 C 57.054688 61.371094 59.003906 61.371094 60.945312 61.484375 C 63.113281 61.710938 64.503906 64.488281 63.449219 66.472656 C 56.9375 78.769531 50.382812 91.007812 43.882812 103.25 C 43.101562 104.613281 42.492188 106.425781 40.820312 106.871094 C 38.878906 107.160156 36.878906 106.992188 34.929688 106.992188 C 32.539062 107.101562 30.539062 103.984375 31.984375 101.890625 C 38.765625 89.195312 45.546875 76.445312 52.328125 63.695312 C 52.882812 62.617188 53.828125 61.542969 55.109375 61.484375 Z M 124.09375 61.589844 C 126.203125 60.964844 128.429688 61.421875 130.597656 61.25 C 132.261719 61.308594 134.378906 60.964844 135.601562 62.441406 C 137.101562 63.972656 136.652344 66.863281 134.761719 67.828125 C 130.929688 70.265625 127.148438 72.867188 123.265625 75.25 C 120.8125 76.945312 117.203125 74.058594 118.257812 71.222656 C 119.203125 68.953125 120.535156 66.863281 121.597656 64.648438 C 122.207031 63.515625 122.761719 62.042969 124.097656 61.585938 Z M 105.691406 95.480469 C 106.804688 94.796875 108.195312 95.027344 109.25 95.597656 C 112.195312 97.066406 115.140625 98.660156 118.144531 100.074219 C 119.425781 100.640625 120.757812 101.71875 120.8125 103.246094 C 121.039062 105.289062 119.3125 107.269531 117.3125 107.097656 C 113.035156 107.097656 108.753906 107.148438 104.527344 107.097656 C 102.417969 107.097656 100.746094 104.605469 101.523438 102.566406 C 102.078125 101.089844 102.914062 99.785156 103.582031 98.367188 C 104.082031 97.296875 104.578125 95.988281 105.691406 95.480469 Z M 105.691406 95.480469 "/>
</g>
</svg>
