<?xml version="1.0" encoding="UTF-8"?>
<svg xmlns="http://www.w3.org/2000/svg" xmlns:xlink="http://www.w3.org/1999/xlink" width="168pt" height="168pt" viewBox="0 0 168 168" version="1.1">
<g id="surface1331">
<path style=" stroke:none;fill-rule:evenodd;fill:rgb(69.803922%,63.921569%,96.470588%);fill-opacity:1;" d="M 168 84 C 168 130.390625 130.390625 168 84 168 C 37.609375 168 0 130.390625 0 84 C 0 37.609375 37.609375 0 84 0 C 130.390625 0 168 37.609375 168 84 "/>
<path style=" stroke:none;fill-rule:nonzero;fill:rgb(100%,100%,100%);fill-opacity:1;" d="M 70.589844 64.507812 C 66.601562 64.507812 63.371094 61.351562 63.371094 57.460938 C 63.371094 53.570312 66.601562 50.410156 70.589844 50.410156 C 74.574219 50.410156 77.808594 53.566406 77.808594 57.460938 C 77.808594 61.355469 74.574219 64.507812 70.589844 64.507812 Z M 91.207031 56.453125 C 87.222656 56.453125 83.988281 53.296875 83.988281 49.40625 C 83.988281 45.511719 87.222656 42.355469 91.207031 42.355469 C 95.195312 42.355469 98.425781 45.511719 98.425781 49.40625 C 98.425781 53.296875 95.195312 56.453125 91.207031 56.453125 Z M 99.464844 104.78125 C 95.476562 104.78125 92.246094 101.632812 92.246094 97.734375 C 92.246094 93.839844 95.476562 90.683594 99.464844 90.683594 C 103.449219 90.683594 106.683594 93.839844 106.683594 97.734375 C 106.683594 101.628906 103.449219 104.78125 99.464844 104.78125 Z M 30.375 94.710938 C 29.296875 94.722656 28.253906 94.308594 27.476562 93.550781 C 26.703125 92.796875 26.261719 91.765625 26.25 90.683594 C 26.25 88.460938 28.097656 86.65625 30.371094 86.65625 C 32.644531 86.65625 34.496094 88.460938 34.496094 90.683594 C 34.484375 91.765625 34.042969 92.796875 33.269531 93.550781 C 32.496094 94.308594 31.453125 94.722656 30.371094 94.710938 Z M 41.714844 120.898438 C 40.90625 120.90625 40.121094 120.59375 39.542969 120.027344 C 38.960938 119.460938 38.628906 118.683594 38.617188 117.871094 C 38.617188 116.203125 40.003906 114.851562 41.714844 114.851562 C 43.425781 114.851562 44.8125 116.199219 44.8125 117.871094 C 44.804688 118.683594 44.472656 119.460938 43.890625 120.027344 C 43.3125 120.59375 42.527344 120.90625 41.714844 120.898438 Z M 74.710938 141.03125 C 73 141.03125 71.613281 139.675781 71.613281 138.007812 C 71.613281 136.339844 73 134.988281 74.710938 134.988281 C 76.421875 134.988281 77.808594 136.335938 77.808594 138.007812 C 77.808594 139.675781 76.421875 141.03125 74.710938 141.03125 Z M 128.339844 122.910156 C 126.628906 122.910156 125.242188 121.554688 125.242188 119.886719 C 125.242188 118.21875 126.628906 116.863281 128.339844 116.863281 C 130.046875 116.863281 131.4375 118.21875 131.4375 119.886719 C 131.4375 121.554688 130.046875 122.910156 128.339844 122.910156 Z M 95.339844 116.871094 C 94.527344 116.878906 93.746094 116.566406 93.164062 116 C 92.585938 115.433594 92.253906 114.65625 92.242188 113.847656 C 92.242188 112.179688 93.632812 110.828125 95.339844 110.828125 C 97.046875 110.828125 98.4375 112.175781 98.4375 113.847656 C 98.429688 114.65625 98.097656 115.433594 97.515625 116 C 96.933594 116.566406 96.152344 116.878906 95.339844 116.871094 Z M 113.902344 102.773438 C 112.191406 102.773438 110.804688 101.417969 110.804688 99.75 C 110.804688 98.082031 112.191406 96.730469 113.902344 96.730469 C 115.609375 96.730469 117 98.078125 117 99.75 C 117 101.417969 115.609375 102.773438 113.902344 102.773438 Z M 92.246094 141.03125 C 89.96875 141.03125 88.121094 139.226562 88.121094 137.003906 C 88.121094 134.78125 89.96875 132.976562 92.246094 132.976562 C 94.519531 132.976562 96.367188 134.777344 96.367188 137.003906 C 96.367188 139.230469 94.519531 141.03125 92.246094 141.03125 Z M 110.804688 90.683594 C 109.726562 90.695312 108.683594 90.277344 107.910156 89.523438 C 107.140625 88.769531 106.699219 87.738281 106.683594 86.65625 C 106.683594 84.433594 108.527344 82.628906 110.804688 82.628906 C 113.082031 82.628906 114.925781 84.433594 114.925781 86.65625 L 114.929688 86.65625 C 114.914062 87.738281 114.472656 88.769531 113.699219 89.523438 C 112.929688 90.277344 111.886719 90.695312 110.804688 90.683594 Z M 117 130.960938 C 115.921875 130.976562 114.878906 130.558594 114.101562 129.804688 C 113.328125 129.046875 112.886719 128.015625 112.875 126.933594 C 112.875 124.707031 114.722656 122.90625 116.996094 122.90625 C 119.273438 122.90625 121.121094 124.707031 121.121094 126.933594 C 121.109375 128.015625 120.667969 129.046875 119.894531 129.804688 C 119.121094 130.558594 118.078125 130.976562 116.996094 130.960938 Z M 35.515625 110.828125 C 32.671875 110.828125 30.359375 108.570312 30.359375 105.792969 C 30.359375 103.015625 32.667969 100.761719 35.515625 100.761719 C 38.359375 100.761719 40.671875 103.019531 40.671875 105.792969 C 40.671875 108.566406 38.363281 110.828125 35.515625 110.828125 Z M 85.023438 130.960938 C 81.035156 130.960938 77.804688 127.804688 77.804688 123.910156 C 77.804688 120.015625 81.035156 116.859375 85.023438 116.859375 C 89.007812 116.859375 92.242188 120.019531 92.242188 123.910156 C 92.242188 127.800781 89.007812 130.960938 85.023438 130.960938 Z M 45.832031 96.730469 C 41.84375 96.730469 38.613281 93.570312 38.613281 89.679688 C 38.613281 85.789062 41.84375 82.628906 45.832031 82.628906 C 49.820312 82.628906 53.050781 85.785156 53.050781 89.679688 C 53.050781 93.574219 49.816406 96.730469 45.832031 96.730469 Z M 85.023438 112.832031 C 82.171875 112.832031 79.863281 110.578125 79.863281 107.800781 C 79.863281 105.023438 82.171875 102.769531 85.023438 102.769531 C 87.867188 102.769531 90.179688 105.023438 90.179688 107.800781 C 90.179688 110.578125 87.871094 112.832031 85.023438 112.832031 Z M 60.269531 68.542969 C 58.558594 68.542969 57.171875 67.1875 57.171875 65.519531 C 57.171875 63.851562 58.558594 62.496094 60.269531 62.496094 C 61.980469 62.496094 63.367188 63.851562 63.367188 65.519531 C 63.367188 67.1875 61.980469 68.542969 60.269531 68.542969 Z M 79.863281 80.617188 C 76.449219 80.617188 73.679688 77.914062 73.679688 74.578125 C 73.679688 71.238281 76.453125 68.53125 79.863281 68.53125 C 83.277344 68.53125 86.046875 71.242188 86.046875 74.574219 C 86.046875 77.914062 83.28125 80.621094 79.863281 80.621094 Z M 94.300781 86.65625 C 93.21875 86.667969 92.179688 86.25 91.40625 85.496094 C 90.632812 84.742188 90.191406 83.710938 90.179688 82.628906 C 90.179688 80.40625 92.023438 78.601562 94.300781 78.601562 C 96.578125 78.601562 98.421875 80.40625 98.421875 82.628906 C 98.410156 83.710938 97.96875 84.742188 97.195312 85.496094 C 96.421875 86.25 95.382812 86.667969 94.300781 86.65625 Z M 101.519531 36.320312 C 99.808594 36.320312 98.421875 34.972656 98.421875 33.300781 C 98.421875 31.632812 99.808594 30.277344 101.519531 30.277344 C 103.230469 30.277344 104.617188 31.632812 104.617188 33.300781 C 104.617188 34.96875 103.230469 36.320312 101.519531 36.320312 Z M 87.082031 36.316406 L 87.082031 36.3125 C 85.730469 36.332031 84.425781 35.808594 83.460938 34.867188 C 82.492188 33.921875 81.941406 32.632812 81.925781 31.28125 C 81.941406 29.929688 82.496094 28.640625 83.460938 27.695312 C 84.429688 26.753906 85.730469 26.234375 87.082031 26.25 C 88.433594 26.230469 89.738281 26.75 90.703125 27.695312 C 91.671875 28.636719 92.226562 29.929688 92.242188 31.28125 C 92.226562 32.632812 91.675781 33.921875 90.707031 34.867188 C 89.738281 35.8125 88.433594 36.332031 87.082031 36.3125 Z M 90.179688 68.535156 C 87.902344 68.535156 86.058594 66.734375 86.058594 64.507812 C 86.058594 62.28125 87.902344 60.480469 90.179688 60.480469 C 92.457031 60.480469 94.300781 62.285156 94.300781 64.507812 C 94.300781 66.730469 92.457031 68.535156 90.179688 68.535156 Z M 50.988281 112.84375 C 47.574219 112.84375 44.804688 110.140625 44.804688 106.800781 C 44.804688 103.460938 47.578125 100.757812 50.988281 100.757812 C 54.402344 100.757812 57.171875 103.460938 57.171875 106.796875 C 57.171875 110.140625 54.40625 112.84375 50.988281 112.84375 Z M 110.800781 118.882812 C 107.386719 118.882812 104.617188 116.171875 104.617188 112.835938 C 104.617188 109.503906 107.382812 106.796875 110.800781 106.796875 C 114.21875 106.796875 116.984375 109.5 116.984375 112.835938 C 116.984375 116.175781 114.210938 118.882812 110.800781 118.882812 Z M 102.558594 132.980469 C 99.140625 132.980469 96.367188 130.269531 96.367188 126.9375 C 96.367188 123.597656 99.140625 120.890625 102.550781 120.890625 C 105.964844 120.890625 108.734375 123.601562 108.734375 126.9375 C 108.734375 130.269531 105.96875 132.976562 102.550781 132.976562 Z M 54.085938 132.980469 C 50.097656 132.980469 46.867188 129.824219 46.867188 125.929688 C 46.867188 122.035156 50.101562 118.882812 54.085938 118.882812 C 58.070312 118.882812 61.304688 122.03125 61.304688 125.929688 C 61.304688 129.824219 58.070312 132.980469 54.085938 132.980469 Z M 32.429688 80.628906 C 29.015625 80.628906 26.246094 77.917969 26.246094 74.582031 C 26.246094 71.25 29.011719 68.542969 32.429688 68.542969 C 35.847656 68.542969 38.613281 71.246094 38.613281 74.582031 C 38.613281 77.921875 35.839844 80.628906 32.429688 80.628906 Z M 32.429688 80.628906 "/>
<path style=" stroke:none;fill-rule:nonzero;fill:rgb(100%,100%,100%);fill-opacity:0.5;" d="M 63.367188 90.683594 C 58.808594 90.683594 55.113281 87.082031 55.113281 82.628906 C 55.113281 78.183594 58.808594 74.574219 63.371094 74.574219 C 67.933594 74.574219 71.625 78.179688 71.625 82.628906 C 71.625 87.082031 67.929688 90.683594 63.371094 90.683594 Z M 106.679688 78.609375 C 102.121094 78.609375 98.425781 75.003906 98.425781 70.550781 C 98.425781 66.105469 102.121094 62.496094 106.683594 62.496094 C 111.242188 62.496094 114.9375 66.101562 114.9375 70.550781 C 114.9375 75.003906 111.242188 78.605469 106.683594 78.605469 Z M 129.363281 112.84375 C 125.949219 112.84375 123.179688 110.140625 123.179688 106.800781 C 123.179688 103.460938 125.953125 100.757812 129.363281 100.757812 C 132.777344 100.757812 135.546875 103.460938 135.546875 106.796875 C 135.546875 110.140625 132.78125 112.84375 129.363281 112.84375 Z M 135.558594 88.679688 C 133.9375 88.695312 132.375 88.070312 131.214844 86.933594 C 130.054688 85.800781 129.394531 84.25 129.375 82.628906 C 129.375 79.296875 132.140625 76.589844 135.558594 76.589844 C 138.972656 76.589844 141.738281 79.292969 141.738281 82.628906 C 141.738281 85.96875 138.972656 88.675781 135.558594 88.675781 Z M 111.839844 60.488281 L 111.839844 60.484375 C 110.488281 60.503906 109.183594 59.980469 108.21875 59.035156 C 107.25 58.089844 106.699219 56.796875 106.683594 55.445312 C 106.703125 54.09375 107.253906 52.804688 108.222656 51.863281 C 109.1875 50.917969 110.488281 50.398438 111.839844 50.414062 C 113.191406 50.398438 114.496094 50.921875 115.460938 51.863281 C 116.429688 52.808594 116.980469 54.097656 116.996094 55.449219 C 116.980469 56.800781 116.425781 58.089844 115.460938 59.03125 C 114.492188 59.976562 113.191406 60.496094 111.839844 60.480469 Z M 112.863281 44.375 C 110.589844 44.375 108.742188 42.574219 108.742188 40.347656 C 108.742188 38.121094 110.589844 36.320312 112.863281 36.320312 C 115.140625 36.320312 116.988281 38.125 116.988281 40.347656 C 116.988281 42.570312 115.140625 44.375 112.863281 44.375 Z M 122.144531 48.402344 C 120.433594 48.402344 119.046875 47.046875 119.046875 45.382812 C 119.046875 43.71875 120.433594 42.359375 122.144531 42.359375 C 123.855469 42.359375 125.242188 43.714844 125.242188 45.382812 C 125.242188 47.050781 123.855469 48.402344 122.144531 48.402344 Z M 138.652344 72.574219 C 136.945312 72.574219 135.554688 71.21875 135.554688 69.550781 C 135.554688 67.882812 136.945312 66.527344 138.652344 66.527344 C 140.359375 66.527344 141.75 67.882812 141.75 69.550781 C 141.75 71.21875 140.363281 72.574219 138.652344 72.574219 Z M 49.960938 46.390625 C 48.25 46.390625 46.863281 45.042969 46.863281 43.371094 C 46.863281 41.703125 48.25 40.347656 49.960938 40.347656 C 51.671875 40.347656 53.058594 41.703125 53.058594 43.371094 C 53.058594 45.039062 51.671875 46.390625 49.960938 46.390625 Z M 45.839844 72.574219 C 44.128906 72.574219 42.742188 71.21875 42.742188 69.550781 C 42.742188 67.882812 44.128906 66.527344 45.839844 66.527344 C 47.550781 66.527344 48.9375 67.882812 48.9375 69.550781 C 48.9375 71.21875 47.550781 72.574219 45.839844 72.574219 Z M 54.09375 76.601562 C 52.382812 76.601562 50.996094 75.246094 50.996094 73.578125 C 50.996094 71.910156 52.382812 70.554688 54.09375 70.554688 C 55.804688 70.554688 57.191406 71.910156 57.191406 73.578125 C 57.191406 75.246094 55.804688 76.601562 54.09375 76.601562 Z M 64.398438 38.328125 C 62.6875 38.328125 61.300781 36.972656 61.300781 35.304688 C 61.300781 33.636719 62.6875 32.285156 64.398438 32.285156 C 66.109375 32.285156 67.496094 33.632812 67.496094 35.304688 C 67.496094 36.972656 66.109375 38.328125 64.398438 38.328125 Z M 138.652344 98.746094 C 136.945312 98.746094 135.554688 97.390625 135.554688 95.722656 C 135.554688 94.054688 136.945312 92.703125 138.652344 92.703125 C 140.359375 92.703125 141.75 94.050781 141.75 95.722656 C 141.75 97.390625 140.363281 98.746094 138.652344 98.746094 Z M 128.339844 66.523438 C 124.351562 66.523438 121.121094 63.375 121.121094 59.476562 C 121.121094 55.582031 124.351562 52.425781 128.339844 52.425781 C 132.324219 52.425781 135.558594 55.582031 135.558594 59.476562 C 135.558594 63.367188 132.324219 66.523438 128.339844 66.523438 Z M 122.144531 82.628906 L 122.148438 82.628906 C 120.796875 82.648438 119.492188 82.125 118.527344 81.183594 C 117.558594 80.238281 117.007812 78.949219 116.992188 77.601562 C 116.992188 74.820312 119.300781 72.570312 122.148438 72.570312 C 123.496094 72.554688 124.800781 73.074219 125.765625 74.019531 C 126.734375 74.960938 127.285156 76.25 127.300781 77.601562 C 127.285156 78.949219 126.734375 80.238281 125.765625 81.183594 C 124.800781 82.125 123.496094 82.648438 122.148438 82.628906 Z M 52.027344 60.480469 C 50.675781 60.496094 49.375 59.976562 48.40625 59.03125 C 47.441406 58.089844 46.886719 56.800781 46.871094 55.449219 C 46.871094 52.667969 49.179688 50.414062 52.027344 50.414062 C 54.871094 50.414062 57.1875 52.671875 57.1875 55.449219 C 57.171875 56.800781 56.617188 58.089844 55.652344 59.035156 C 54.683594 59.976562 53.378906 60.5 52.027344 60.480469 Z M 74.707031 46.382812 C 73.355469 46.402344 72.054688 45.878906 71.089844 44.9375 C 70.121094 43.992188 69.570312 42.703125 69.550781 41.355469 C 69.550781 38.574219 71.859375 36.320312 74.710938 36.320312 C 77.5625 36.320312 79.867188 38.578125 79.867188 41.355469 C 79.851562 42.703125 79.300781 43.992188 78.332031 44.9375 C 77.367188 45.878906 76.0625 46.402344 74.710938 46.382812 Z M 61.308594 48.398438 C 59.03125 48.398438 57.1875 46.597656 57.1875 44.371094 C 57.1875 42.144531 59.03125 40.34375 61.308594 40.34375 C 63.585938 40.34375 65.429688 42.148438 65.429688 44.371094 C 65.429688 46.59375 63.585938 48.398438 61.308594 48.398438 Z M 38.617188 64.503906 L 38.617188 64.507812 C 37.539062 64.519531 36.496094 64.101562 35.722656 63.347656 C 34.953125 62.59375 34.511719 61.558594 34.496094 60.480469 C 34.496094 58.257812 36.339844 56.453125 38.617188 56.453125 C 40.894531 56.453125 42.738281 58.257812 42.738281 60.480469 L 42.742188 60.480469 C 42.726562 61.558594 42.285156 62.59375 41.511719 63.347656 C 40.742188 64.101562 39.699219 64.519531 38.617188 64.507812 Z M 125.242188 96.726562 L 125.242188 96.730469 C 124.164062 96.742188 123.121094 96.328125 122.347656 95.570312 C 121.578125 94.816406 121.136719 93.785156 121.121094 92.703125 C 121.121094 90.476562 122.964844 88.675781 125.242188 88.675781 C 127.519531 88.675781 129.363281 90.476562 129.363281 92.703125 L 129.367188 92.703125 C 129.351562 93.785156 128.910156 94.816406 128.136719 95.570312 C 127.367188 96.328125 126.324219 96.742188 125.242188 96.730469 Z M 80.902344 98.742188 C 76.914062 98.742188 73.683594 95.585938 73.683594 91.691406 C 73.683594 87.796875 76.917969 84.644531 80.902344 84.644531 C 84.890625 84.644531 88.121094 87.792969 88.121094 91.691406 C 88.121094 95.585938 84.890625 98.742188 80.902344 98.742188 Z M 67.492188 102.769531 L 67.492188 102.773438 C 66.414062 102.785156 65.371094 102.371094 64.597656 101.613281 C 63.828125 100.859375 63.386719 99.828125 63.371094 98.746094 C 63.371094 96.519531 65.214844 94.71875 67.492188 94.71875 C 69.769531 94.71875 71.613281 96.519531 71.613281 98.746094 L 71.617188 98.746094 C 71.601562 99.828125 71.160156 100.859375 70.386719 101.613281 C 69.617188 102.371094 68.574219 102.785156 67.492188 102.773438 Z M 69.550781 118.875 C 66.136719 118.875 63.371094 116.164062 63.371094 112.828125 C 63.371094 109.496094 66.136719 106.789062 69.550781 106.789062 C 72.964844 106.789062 75.734375 109.492188 75.734375 112.828125 C 75.734375 116.167969 72.96875 118.875 69.550781 118.875 Z M 69.550781 130.949219 L 69.550781 130.957031 C 67.304688 130.980469 65.460938 129.183594 65.429688 126.933594 C 65.429688 124.707031 67.277344 122.90625 69.550781 122.90625 C 71.824219 122.90625 73.675781 124.707031 73.675781 126.933594 L 73.679688 126.933594 C 73.667969 128.015625 73.222656 129.046875 72.449219 129.804688 C 71.675781 130.558594 70.632812 130.976562 69.550781 130.960938 Z M 69.550781 130.949219 "/>
</g>
</svg>
