<?xml version="1.0" encoding="UTF-8"?>
<svg xmlns="http://www.w3.org/2000/svg" xmlns:xlink="http://www.w3.org/1999/xlink" width="168pt" height="168pt" viewBox="0 0 168 168" version="1.1">
<g id="surface841">
<path style=" stroke:none;fill-rule:evenodd;fill:rgb(34.117647%,74.509804%,91.764706%);fill-opacity:1;" d="M 168 84 C 168 130.390625 130.390625 168 84 168 C 37.609375 168 0 130.390625 0 84 C 0 37.609375 37.609375 0 84 0 C 130.390625 0 168 37.609375 168 84 "/>
<path style=" stroke:none;fill-rule:nonzero;fill:rgb(100%,100%,100%);fill-opacity:1;" d="M 36.886719 99.796875 C 32.84375 100.269531 28.792969 98.988281 25.757812 96.277344 C 22.722656 93.570312 20.992188 89.691406 21 85.621094 C 20.980469 77.808594 27.265625 71.4375 35.082031 71.351562 C 40.121094 48.199219 60.648438 30.867188 85.199219 30.867188 C 89.78125 30.867188 94.230469 31.472656 98.457031 32.601562 L 98.453125 32.601562 C 101.078125 28.636719 105.519531 26.25 110.277344 26.25 C 118.136719 26.269531 124.496094 32.65625 124.476562 40.519531 C 124.476562 42.980469 123.855469 45.296875 122.765625 47.3125 C 131.617188 56.859375 136.523438 69.398438 136.5 82.414062 C 136.523438 96.183594 131.035156 109.390625 121.253906 119.085938 C 122.964844 121.4375 123.972656 124.339844 123.972656 127.480469 C 123.980469 131.257812 122.488281 134.882812 119.824219 137.558594 C 117.160156 140.234375 113.542969 141.742188 109.765625 141.75 C 103.914062 141.742188 98.667969 138.152344 96.542969 132.699219 C 92.820312 133.539062 89.015625 133.960938 85.203125 133.960938 C 62.9375 133.960938 43.984375 119.710938 36.886719 99.800781 Z M 39.460938 99.246094 C 46.285156 117.976562 64.1875 131.351562 85.199219 131.351562 C 88.847656 131.351562 92.402344 130.949219 95.820312 130.1875 L 95.816406 130.183594 C 95 126.011719 96.089844 121.691406 98.789062 118.410156 C 101.488281 115.125 105.515625 113.21875 109.765625 113.210938 C 113.546875 113.210938 116.988281 114.695312 119.53125 117.117188 C 128.75 107.921875 133.921875 95.433594 133.902344 82.414062 C 133.902344 69.761719 129.125 58.234375 121.277344 49.550781 C 118.671875 52.753906 114.714844 54.796875 110.277344 54.796875 L 110.277344 54.792969 C 106.5 54.785156 102.878906 53.277344 100.214844 50.601562 C 97.550781 47.921875 96.058594 44.296875 96.070312 40.519531 C 96.070312 38.554688 96.46875 36.683594 97.183594 34.976562 C 93.265625 33.980469 89.238281 33.480469 85.195312 33.484375 C 62.011719 33.484375 42.605469 49.765625 37.699219 71.574219 C 44.488281 72.804688 49.417969 78.722656 49.40625 85.621094 C 49.417969 91.847656 45.390625 97.363281 39.453125 99.246094 Z M 85.199219 96.707031 L 85.195312 96.703125 C 81.417969 96.695312 77.796875 95.183594 75.128906 92.503906 C 72.460938 89.824219 70.96875 86.195312 70.980469 82.414062 C 70.980469 74.523438 77.34375 68.128906 85.199219 68.128906 C 93.054688 68.128906 99.421875 74.523438 99.421875 82.414062 L 99.417969 82.414062 C 99.429688 86.195312 97.9375 89.824219 95.269531 92.507812 C 92.601562 95.1875 88.976562 96.695312 85.195312 96.703125 Z M 85.199219 96.707031 "/>
</g>
</svg>
