<?xml version="1.0" encoding="UTF-8"?>
<svg xmlns="http://www.w3.org/2000/svg" xmlns:xlink="http://www.w3.org/1999/xlink" width="168pt" height="168pt" viewBox="0 0 168 168" version="1.1">
<g id="surface671">
<path style=" stroke:none;fill-rule:nonzero;fill:rgb(4.705882%,68.627451%,64.705882%);fill-opacity:1;" d="M 168 84 C 168 130.390625 130.390625 168 84 168 C 37.609375 168 0 130.390625 0 84 C 0 37.609375 37.609375 0 84 0 C 130.390625 0 168 37.609375 168 84 "/>
<path style=" stroke:none;fill-rule:nonzero;fill:rgb(100%,100%,100%);fill-opacity:1;" d="M 44.167969 62.574219 C 43.996094 62.46875 43.851562 62.554688 43.851562 62.757812 L 43.851562 74.84375 C 43.863281 75.066406 43.980469 75.273438 44.167969 75.394531 L 59.445312 84.226562 C 59.632812 84.347656 59.75 84.554688 59.761719 84.777344 L 59.761719 128.511719 L 59.761719 128.507812 C 59.773438 128.734375 59.894531 128.9375 60.085938 129.0625 L 70.550781 135.101562 C 70.722656 135.207031 70.867188 135.121094 70.867188 134.917969 L 70.867188 78.375 L 70.863281 78.371094 C 70.855469 78.148438 70.738281 77.941406 70.550781 77.816406 Z M 123.832031 62.574219 C 124.003906 62.46875 124.148438 62.554688 124.148438 62.757812 L 124.148438 74.84375 C 124.136719 75.066406 124.019531 75.273438 123.832031 75.394531 L 108.554688 84.214844 C 108.367188 84.339844 108.25 84.546875 108.238281 84.773438 L 108.238281 128.507812 L 108.238281 128.503906 C 108.226562 128.730469 108.109375 128.9375 107.917969 129.0625 L 97.453125 135.101562 C 97.273438 135.207031 97.132812 135.121094 97.132812 134.917969 L 97.132812 78.375 L 97.136719 78.371094 C 97.144531 78.148438 97.261719 77.941406 97.449219 77.816406 Z M 123.832031 62.574219 "/>
<path style=" stroke:none;fill-rule:nonzero;fill:rgb(100%,100%,100%);fill-opacity:1;" d="M 125.894531 39.390625 C 125.894531 39.191406 125.753906 39.105469 125.578125 39.207031 L 84.3125 63.074219 L 84.316406 63.074219 C 84.117188 63.171875 83.882812 63.171875 83.683594 63.074219 L 42.421875 39.207031 C 42.242188 39.101562 42.101562 39.191406 42.101562 39.390625 L 42.101562 51.476562 C 42.109375 51.699219 42.226562 51.902344 42.414062 52.027344 L 78.136719 72.679688 C 78.320312 72.804688 78.4375 73.007812 78.449219 73.230469 L 78.449219 148.226562 C 78.460938 148.453125 78.582031 148.660156 78.769531 148.785156 L 83.679688 151.621094 C 83.882812 151.71875 84.117188 151.71875 84.320312 151.621094 L 89.230469 148.785156 C 89.417969 148.660156 89.535156 148.453125 89.542969 148.226562 L 89.542969 73.238281 C 89.558594 73.011719 89.675781 72.808594 89.863281 72.6875 L 125.578125 52.027344 C 125.769531 51.902344 125.886719 51.695312 125.894531 51.472656 Z M 84.1875 69.925781 C 84.144531 69.925781 84.128906 69.894531 84.152344 69.859375 C 84.171875 69.824219 84.203125 69.824219 84.226562 69.859375 C 84.246094 69.894531 84.226562 69.925781 84.191406 69.925781 Z M 84.1875 69.925781 "/>
<path style=" stroke:none;fill-rule:nonzero;fill:rgb(100%,100%,100%);fill-opacity:1;" d="M 78.8125 37.808594 C 78.605469 37.855469 78.457031 38.039062 78.449219 38.25 L 78.449219 53.335938 C 78.464844 53.558594 78.582031 53.761719 78.769531 53.886719 L 83.679688 56.722656 C 83.878906 56.828125 84.117188 56.828125 84.320312 56.722656 L 89.230469 53.886719 C 89.414062 53.761719 89.53125 53.558594 89.542969 53.335938 L 89.542969 38.246094 C 89.542969 38.035156 89.394531 37.851562 89.1875 37.804688 L 84.359375 36.917969 L 84.355469 36.917969 C 84.117188 36.882812 83.875 36.882812 83.636719 36.917969 Z M 78.8125 37.808594 "/>
</g>
</svg>
