<?xml version="1.0" encoding="UTF-8"?>
<svg xmlns="http://www.w3.org/2000/svg" xmlns:xlink="http://www.w3.org/1999/xlink" width="168pt" height="168pt" viewBox="0 0 168 168" version="1.1">
<g id="surface1871">
<path style=" stroke:none;fill-rule:evenodd;fill:rgb(10.980392%,10.980392%,10.980392%);fill-opacity:1;" d="M 168 84 C 168 130.390625 130.390625 168 84 168 C 37.609375 168 0 130.390625 0 84 C 0 37.609375 37.609375 0 84 0 C 130.390625 0 168 37.609375 168 84 "/>
<path style=" stroke:none;fill-rule:nonzero;fill:rgb(100%,100%,100%);fill-opacity:1;" d="M 128.625 57.75 L 128.625 110.25 L 84 136.5 L 39.375 110.25 L 39.375 57.75 L 84 31.5 Z M 82.59375 86.136719 L 78.445312 88.589844 L 86.195312 93.117188 L 90.316406 90.6875 L 101.335938 97.171875 L 84.898438 106.832031 L 50.800781 86.957031 L 50.660156 96.632812 L 84.921875 116.53125 L 117.839844 97.175781 L 98.550781 85.824219 L 102.4375 83.53125 L 94.6875 79.003906 L 90.828125 81.28125 L 85.421875 78.101562 L 90.152344 75.304688 L 82.402344 70.773438 L 77.691406 73.554688 L 68.484375 68.136719 L 84.917969 58.472656 L 107.640625 71.75 L 115.96875 66.824219 L 84.90625 48.773438 L 51.988281 68.136719 L 69.464844 78.421875 L 66.167969 80.363281 L 73.917969 84.894531 L 77.1875 82.960938 Z M 82.59375 86.136719 "/>
</g>
</svg>
