<?xml version="1.0" encoding="UTF-8"?>
<svg xmlns="http://www.w3.org/2000/svg" xmlns:xlink="http://www.w3.org/1999/xlink" width="168pt" height="168pt" viewBox="0 0 168 168" version="1.1">
<g id="surface1341">
<path style=" stroke:none;fill-rule:nonzero;fill:rgb(0%,83.137255%,83.529412%);fill-opacity:1;" d="M 168 84 C 168 130.390625 130.390625 168 84 168 C 37.609375 168 0 130.390625 0 84 C 0 37.609375 37.609375 0 84 0 C 130.390625 0 168 37.609375 168 84 "/>
<path style=" stroke:none;fill-rule:nonzero;fill:rgb(100%,100%,100%);fill-opacity:1;" d="M 86.726562 26.25 L 86.726562 54.898438 L 111.601562 40.59375 Z M 86.726562 26.25 "/>
<path style=" stroke:none;fill-rule:nonzero;fill:rgb(100%,100%,100%);fill-opacity:0.9;" d="M 111.597656 40.59375 L 111.597656 69.242188 L 136.46875 54.898438 Z M 111.597656 40.59375 "/>
<path style=" stroke:none;fill-rule:nonzero;fill:rgb(100%,100%,100%);fill-opacity:0.8;" d="M 86.726562 54.898438 L 86.726562 83.546875 L 111.601562 69.242188 Z M 111.601562 69.246094 L 111.601562 97.890625 L 136.472656 83.546875 Z M 111.601562 69.246094 "/>
<path style=" stroke:none;fill-rule:nonzero;fill:rgb(100%,100%,100%);fill-opacity:0.8;" d="M 86.726562 83.546875 L 86.726562 112.195312 L 111.601562 97.890625 Z M 86.726562 83.546875 "/>
<path style=" stroke:none;fill-rule:nonzero;fill:rgb(100%,100%,100%);fill-opacity:1;" d="M 111.597656 97.890625 L 111.597656 126.539062 L 136.46875 112.195312 Z M 111.597656 97.890625 "/>
<path style=" stroke:none;fill-rule:nonzero;fill:rgb(100%,100%,100%);fill-opacity:0.4;" d="M 22.433594 53.933594 L 22.433594 82.582031 L 47.308594 68.238281 Z M 22.433594 53.933594 "/>
<path style=" stroke:none;fill-rule:nonzero;fill:rgb(100%,100%,100%);fill-opacity:0.2;" d="M 53.8125 64.585938 L 53.8125 93.234375 L 78.644531 78.929688 Z M 53.8125 64.585938 "/>
<path style=" stroke:none;fill-rule:nonzero;fill:rgb(100%,100%,100%);fill-opacity:0.3;" d="M 35.375 82.703125 L 35.375 111.351562 L 60.246094 97.007812 Z M 35.375 82.703125 "/>
<path style=" stroke:none;fill-rule:nonzero;fill:rgb(100%,100%,100%);fill-opacity:0.9;" d="M 51.765625 104.324219 L 51.765625 132.972656 L 76.597656 118.628906 Z M 51.765625 104.324219 "/>
<path style=" stroke:none;fill-rule:nonzero;fill:rgb(100%,100%,100%);fill-opacity:0.7;" d="M 86.519531 116.65625 L 86.519531 145.3125 L 111.351562 130.964844 Z M 86.519531 116.65625 "/>
<path style=" stroke:none;fill-rule:nonzero;fill:rgb(100%,100%,100%);fill-opacity:0.9;" d="M 57.953125 50.4375 L 57.953125 79.09375 L 82.785156 64.789062 Z M 57.953125 50.4375 "/>
<path style=" stroke:none;fill-rule:nonzero;fill:rgb(100%,100%,100%);fill-opacity:0.8;" d="M 86.726562 26.25 L 86.726562 54.898438 L 61.851562 40.59375 Z M 86.726562 26.25 "/>
<path style=" stroke:none;fill-rule:nonzero;fill:rgb(100%,100%,100%);fill-opacity:0.6;" d="M 57.953125 38.429688 L 57.953125 67.074219 L 33.074219 52.730469 Z M 57.953125 38.429688 "/>
<path style=" stroke:none;fill-rule:nonzero;fill:rgb(100%,100%,100%);fill-opacity:0.6;" d="M 82.828125 52.605469 L 82.828125 81.261719 L 57.953125 66.914062 Z M 82.828125 52.605469 "/>
<path style=" stroke:none;fill-rule:nonzero;fill:rgb(100%,100%,100%);fill-opacity:0.95;" d="M 53.695312 64.585938 L 53.695312 93.234375 L 28.824219 78.929688 Z M 53.695312 64.585938 "/>
<path style=" stroke:none;fill-rule:nonzero;fill:rgb(100%,100%,100%);fill-opacity:0.6;" d="M 86.726562 83.546875 L 86.726562 112.195312 L 61.894531 97.890625 Z M 86.726562 83.546875 "/>
<path style=" stroke:none;fill-rule:nonzero;fill:rgb(100%,100%,100%);fill-opacity:0.55;" d="M 35.375 90.222656 L 35.375 118.871094 L 10.5 104.523438 Z M 35.375 90.222656 "/>
<path style=" stroke:none;fill-rule:nonzero;fill:rgb(100%,100%,100%);fill-opacity:1;" d="M 136.46875 54.898438 L 136.46875 83.546875 L 111.597656 69.242188 Z M 136.46875 54.898438 "/>
<path style=" stroke:none;fill-rule:nonzero;fill:rgb(100%,100%,100%);fill-opacity:0.95;" d="M 111.597656 69.246094 L 111.597656 97.890625 L 86.722656 83.546875 Z M 111.597656 69.246094 "/>
<path style=" stroke:none;fill-rule:nonzero;fill:rgb(100%,100%,100%);fill-opacity:0.9;" d="M 136.46875 83.546875 L 136.46875 112.195312 L 111.597656 97.890625 Z M 136.46875 83.546875 "/>
<path style=" stroke:none;fill-rule:nonzero;fill:rgb(100%,100%,100%);fill-opacity:0.7;" d="M 111.597656 97.890625 L 111.597656 126.539062 L 86.722656 112.195312 Z M 111.597656 97.890625 "/>
<path style=" stroke:none;fill-rule:nonzero;fill:rgb(100%,100%,100%);fill-opacity:0.4;" d="M 81.21875 109.828125 L 81.21875 138.476562 L 56.347656 124.171875 Z M 81.21875 109.828125 "/>
<path style=" stroke:none;fill-rule:nonzero;fill:rgb(100%,100%,100%);fill-opacity:1;" d="M 111.597656 40.59375 L 111.597656 69.242188 L 86.722656 54.898438 Z M 111.597656 40.59375 "/>
</g>
</svg>
