<?xml version="1.0" encoding="UTF-8"?>
<svg xmlns="http://www.w3.org/2000/svg" xmlns:xlink="http://www.w3.org/1999/xlink" width="168pt" height="168pt" viewBox="0 0 168 168" version="1.1">
<g id="surface181">
<path style=" stroke:none;fill-rule:nonzero;fill:rgb(33.333333%,86.666667%,100%);fill-opacity:1;" d="M 168 84 C 168 130.390625 130.390625 168 84 168 C 37.609375 168 0 130.390625 0 84 C 0 37.609375 37.609375 0 84 0 C 130.390625 0 168 37.609375 168 84 "/>
<path style=" stroke:none;fill-rule:nonzero;fill:rgb(100%,100%,100%);fill-opacity:1;" d="M 62.109375 53.128906 C 62.140625 43.175781 65.886719 33.589844 72.609375 26.25 C 74.445312 24.414062 74.65625 24.046875 74.65625 22.574219 C 74.65625 21.105469 74.65625 21 73.554688 21 L 73.550781 21 C 72.191406 21.152344 70.839844 21.398438 69.511719 21.734375 C 53.839844 25.4375 40.160156 34.949219 31.238281 48.351562 C 26.929688 54.707031 23.898438 61.839844 22.3125 69.351562 C 20.996094 76.273438 20.679688 83.34375 21.367188 90.351562 C 23.296875 105.90625 31.113281 120.128906 43.207031 130.09375 C 49.664062 135.34375 56.910156 139.542969 56.910156 137.652344 L 56.910156 137.65625 C 56.484375 136.839844 55.917969 136.109375 55.230469 135.503906 C 48.65625 128.253906 45.601562 118.480469 46.882812 108.78125 C 47.828125 96.703125 54.453125 85.792969 64.734375 79.378906 C 66.011719 78.46875 67.363281 77.660156 68.773438 76.964844 C 69.5625 76.964844 69.089844 75.390625 67.144531 71.714844 L 67.148438 71.714844 C 63.824219 66.085938 62.082031 59.664062 62.109375 53.128906 Z M 143.535156 69.507812 L 143.535156 69.511719 C 139.777344 51.203125 128.082031 35.507812 111.613281 26.671875 C 108.671875 25.042969 107.203125 24.675781 107.203125 25.675781 L 107.203125 25.671875 C 107.484375 26.511719 107.910156 27.292969 108.464844 27.984375 C 111.71875 32.605469 113.542969 38.082031 113.714844 43.734375 C 114.382812 49.691406 112.472656 55.652344 108.464844 60.113281 C 106.347656 62.355469 102.824219 62.496094 100.539062 60.425781 C 98.4375 58.902344 98.4375 57.851562 99.75 55.910156 L 99.75 55.914062 C 102.53125 51.820312 103.914062 46.941406 103.6875 42 C 104.101562 37.976562 102.671875 33.980469 99.800781 31.132812 C 97.175781 28.40625 93.246094 27.375 89.617188 28.453125 C 84.449219 30.539062 80.664062 35.070312 79.539062 40.53125 C 78.332031 44.414062 77.628906 48.4375 77.4375 52.5 C 77.476562 58.722656 79.007812 64.84375 81.898438 70.351562 C 83.917969 73.515625 86.414062 76.347656 89.300781 78.75 C 89.878906 79.128906 90.386719 79.589844 90.824219 80.113281 C 90.316406 80.53125 89.726562 80.835938 89.09375 81.007812 C 80.894531 84.886719 74.609375 91.910156 71.664062 100.484375 C 69.742188 105.414062 68.882812 110.691406 69.140625 115.972656 C 68.929688 121.007812 70.832031 125.898438 74.390625 129.464844 C 78.429688 132.960938 83.847656 134.410156 89.09375 133.402344 C 96.027344 132.882812 102.511719 129.773438 107.257812 124.6875 C 109.410156 122.378906 109.832031 122.113281 110.25 122.640625 C 110.671875 123.164062 110.566406 123.480469 109.777344 124.792969 C 104.792969 133.308594 96.792969 139.640625 87.359375 142.539062 C 85.523438 143.011719 84.734375 143.378906 84.734375 143.800781 C 84.734375 145.164062 96.230469 143.277344 103.214844 140.808594 L 103.214844 140.804688 C 121.253906 134.214844 135.34375 119.816406 141.539062 101.640625 C 143.804688 95.390625 144.785156 88.746094 144.425781 82.109375 C 144.667969 77.890625 144.367188 73.65625 143.535156 69.511719 Z M 143.535156 69.507812 "/>
</g>
</svg>
