<?xml version="1.0" encoding="UTF-8"?>
<svg xmlns="http://www.w3.org/2000/svg" xmlns:xlink="http://www.w3.org/1999/xlink" width="168pt" height="168pt" viewBox="0 0 168 168" version="1.1">
<g id="surface786">
<path style=" stroke:none;fill-rule:evenodd;fill:rgb(6.27451%,12.54902%,26.666667%);fill-opacity:1;" d="M 168 84 C 168 130.390625 130.390625 168 84 168 C 37.609375 168 0 130.390625 0 84 C 0 37.609375 37.609375 0 84 0 C 130.390625 0 168 37.609375 168 84 "/>
<path style=" stroke:none;fill-rule:nonzero;fill:rgb(100%,100%,100%);fill-opacity:1;" d="M 127.300781 101.585938 C 129.664062 102.496094 131.226562 104.742188 131.25 107.257812 C 131.253906 109.402344 130.117188 111.386719 128.269531 112.472656 C 126.414062 113.5625 124.121094 113.601562 122.230469 112.574219 L 90.574219 129.847656 C 90.730469 131.535156 90.179688 133.214844 89.046875 134.476562 C 87.914062 135.738281 86.308594 136.472656 84.613281 136.5 C 81.253906 136.582031 78.460938 133.925781 78.378906 130.5625 L 62.945312 121.726562 L 62.59375 121.726562 L 62.59375 121.542969 L 46.324219 112.246094 C 45.308594 112.945312 44.105469 113.320312 42.871094 113.316406 C 39.835938 113.332031 37.25 111.109375 36.8125 108.101562 C 36.394531 105.097656 38.261719 102.246094 41.179688 101.429688 L 41.179688 66.695312 C 38.746094 66.011719 36.992188 63.894531 36.769531 61.378906 C 36.558594 58.871094 37.929688 56.492188 40.222656 55.40625 L 40.226562 55.402344 C 42.515625 54.316406 45.238281 54.746094 47.082031 56.488281 L 78.425781 38.535156 C 78.148438 36.773438 78.65625 34.976562 79.820312 33.625 C 80.980469 32.269531 82.679688 31.492188 84.460938 31.5 C 86.300781 31.496094 88.039062 32.324219 89.199219 33.75 C 90.355469 35.175781 90.808594 37.046875 90.429688 38.84375 L 121.027344 56.367188 C 122.144531 55.359375 123.601562 54.800781 125.117188 54.808594 C 126.792969 54.183594 128.660156 54.332031 130.214844 55.210938 C 131.773438 56.089844 132.859375 57.613281 133.1875 59.371094 C 133.515625 61.128906 133.046875 62.941406 131.914062 64.324219 C 130.777344 65.707031 129.089844 66.515625 127.300781 66.535156 L 127.300781 101.59375 Z M 105.679688 87.910156 L 105.679688 117.746094 L 119.707031 110.097656 L 119.710938 110.097656 C 118.824219 108.402344 118.785156 106.386719 119.609375 104.660156 C 120.433594 102.929688 122.019531 101.691406 123.894531 101.308594 L 123.894531 66.816406 C 121.050781 66.253906 119 63.765625 118.984375 60.867188 C 118.984375 60.3125 119.0625 59.753906 119.214844 59.214844 L 105.917969 51.59375 L 105.917969 79.335938 L 105.898438 79.335938 L 105.847656 81.152344 L 105.097656 81.503906 L 100.304688 84.371094 L 104.886719 87.101562 L 105.617188 87.449219 L 105.636719 87.773438 L 105.664062 87.914062 L 105.683594 87.914062 Z M 84.46875 43.621094 C 82.726562 43.621094 81.066406 42.886719 79.90625 41.589844 L 65.992188 49.566406 L 65.992188 79.03125 L 71.703125 82.433594 L 78.917969 78.191406 L 78.921875 78.1875 C 78.621094 76.609375 79.042969 74.976562 80.070312 73.738281 C 81.101562 72.503906 82.628906 71.789062 84.234375 71.800781 C 85.804688 71.796875 87.296875 72.476562 88.320312 73.664062 C 89.347656 74.851562 89.804688 76.425781 89.570312 77.976562 L 97.019531 82.40625 L 102.542969 79.097656 L 102.542969 49.65625 L 88.820312 41.796875 C 87.675781 42.960938 86.109375 43.621094 84.472656 43.617188 Z M 88.039062 87.835938 L 93.726562 84.414062 L 88.015625 81.007812 C 85.957031 83.007812 82.695312 83.0625 80.570312 81.128906 L 74.953125 84.390625 L 80.542969 87.722656 L 80.546875 87.722656 C 82.675781 85.753906 85.972656 85.804688 88.042969 87.835938 Z M 48.515625 109.609375 L 62.585938 117.671875 L 62.585938 88.839844 L 62.613281 87.910156 L 62.847656 87.675781 L 64.023438 86.976562 L 68.390625 84.414062 L 64.441406 82.082031 L 62.609375 81.148438 L 62.609375 80.03125 L 62.589844 80.03125 L 62.597656 51.496094 L 48.800781 59.402344 C 49.613281 62.550781 47.75 65.777344 44.601562 66.671875 L 44.601562 101.449219 C 46.265625 101.933594 47.648438 103.101562 48.398438 104.65625 C 49.148438 106.214844 49.195312 108.015625 48.523438 109.605469 Z M 84.46875 124.273438 C 86.386719 124.273438 88.1875 125.164062 89.332031 126.699219 L 102.300781 119.613281 L 102.300781 89.5 L 97.019531 86.351562 L 89.566406 90.828125 C 89.617188 91.089844 89.640625 91.351562 89.640625 91.617188 C 89.640625 94.582031 87.226562 96.984375 84.234375 96.984375 L 84.230469 96.976562 C 82.640625 96.980469 81.128906 96.277344 80.105469 95.058594 C 79.082031 93.839844 78.652344 92.230469 78.929688 90.664062 L 71.617188 86.328125 L 65.980469 89.613281 L 65.980469 119.613281 L 79.238281 127.210938 C 80.339844 125.382812 82.332031 124.269531 84.476562 124.277344 Z M 84.46875 124.273438 "/>
</g>
</svg>
