<?xml version="1.0" encoding="UTF-8"?>
<svg xmlns="http://www.w3.org/2000/svg" xmlns:xlink="http://www.w3.org/1999/xlink" width="168pt" height="168pt" viewBox="0 0 168 168" version="1.1">
<g id="surface776">
<path style=" stroke:none;fill-rule:evenodd;fill:rgb(0%,31.372549%,85.882353%);fill-opacity:1;" d="M 168 84 C 168 130.390625 130.390625 168 84 168 C 37.609375 168 0 130.390625 0 84 C 0 37.609375 37.609375 0 84 0 C 130.390625 0 168 37.609375 168 84 "/>
<path style=" stroke:none;fill-rule:nonzero;fill:rgb(100%,100%,100%);fill-opacity:1;" d="M 84 136.5 C 80.59375 136.5 77.25 135.582031 74.320312 133.847656 L 46.464844 117.46875 L 46.460938 117.46875 C 40.425781 113.878906 36.734375 107.371094 36.75 100.347656 L 36.75 67.640625 C 36.75 60.625 40.441406 54.128906 46.460938 50.53125 L 74.316406 34.152344 L 74.320312 34.152344 C 77.265625 32.417969 80.621094 31.503906 84.042969 31.5 C 87.429688 31.5 90.761719 32.414062 93.683594 34.152344 L 121.539062 50.539062 L 121.539062 50.535156 C 127.570312 54.125 131.261719 60.628906 131.25 67.644531 L 131.25 100.355469 C 131.25 107.371094 127.5625 113.871094 121.539062 117.46875 L 93.683594 133.847656 C 90.742188 135.582031 87.40625 136.5 84.003906 136.5 Z M 67.976562 102.746094 L 62.816406 107.996094 C 65.503906 110.785156 69.21875 112.34375 73.089844 112.3125 C 81.121094 112.300781 87.644531 105.675781 87.652344 97.492188 L 87.652344 93.019531 C 89.855469 94.316406 92.363281 95 94.90625 94.992188 L 94.910156 94.992188 C 98.789062 95.066406 102.527344 93.523438 105.226562 90.730469 L 100.070312 85.480469 C 98.707031 86.878906 96.847656 87.664062 94.910156 87.664062 C 90.871094 87.621094 87.625 84.316406 87.652344 80.277344 L 87.652344 55.625 L 80.398438 55.625 L 80.398438 97.539062 C 80.398438 101.628906 77.144531 104.941406 73.128906 104.941406 C 71.183594 104.9375 69.328125 104.144531 67.976562 102.746094 Z M 67.976562 102.746094 "/>
</g>
</svg>
