<?xml version="1.0" encoding="UTF-8"?>
<svg xmlns="http://www.w3.org/2000/svg" xmlns:xlink="http://www.w3.org/1999/xlink" width="168pt" height="168pt" viewBox="0 0 168 168" version="1.1">
<g id="surface451">
<path style=" stroke:none;fill-rule:evenodd;fill:rgb(91.764706%,78.039216%,28.627451%);fill-opacity:1;" d="M 168 84 C 168 130.390625 130.390625 168 84 168 C 37.609375 168 0 130.390625 0 84 C 0 37.609375 37.609375 0 84 0 C 130.390625 0 168 37.609375 168 84 "/>
<path style=" stroke:none;fill-rule:evenodd;fill:rgb(100%,100%,100%);fill-opacity:1;" d="M 92.128906 98.234375 L 92.128906 108.09375 L 118.710938 108.09375 L 118.710938 120.105469 L 92.128906 120.105469 L 92.128906 133.875 L 75.875 133.875 L 75.875 120.105469 L 49.292969 120.105469 L 49.292969 108.09375 L 75.875 108.09375 L 75.875 98.234375 L 49.292969 98.234375 L 49.292969 86.222656 L 71.191406 86.222656 L 39.375 39.375 L 59.074219 39.375 L 84.273438 78.929688 L 109.476562 39.375 L 128.625 39.375 L 96.671875 86.222656 L 118.707031 86.222656 L 118.707031 98.234375 Z M 92.128906 98.234375 "/>
</g>
</svg>
