<?xml version="1.0" encoding="UTF-8"?>
<svg xmlns="http://www.w3.org/2000/svg" xmlns:xlink="http://www.w3.org/1999/xlink" width="168pt" height="168pt" viewBox="0 0 168 168" version="1.1">
<g id="surface1216">
<path style=" stroke:none;fill-rule:evenodd;fill:rgb(0%,57.647059%,86.666667%);fill-opacity:1;" d="M 168 84 C 168 130.390625 130.390625 168 84 168 C 37.609375 168 0 130.390625 0 84 C 0 37.609375 37.609375 0 84 0 C 130.390625 0 168 37.609375 168 84 "/>
<path style=" stroke:none;fill-rule:evenodd;fill:rgb(100%,100%,100%);fill-opacity:1;" d="M 71.085938 84 L 98.25 111.984375 L 115.390625 94.328125 C 116.820312 92.832031 118.800781 91.988281 120.871094 91.988281 C 122.941406 91.988281 124.917969 92.832031 126.351562 94.328125 C 129.382812 97.484375 129.382812 102.46875 126.351562 105.625 L 103.730469 128.933594 C 102.289062 130.414062 100.3125 131.25 98.25 131.25 C 96.183594 131.25 94.207031 130.414062 92.765625 128.933594 L 60.132812 95.300781 L 60.132812 115.292969 C 60.132812 119.683594 56.636719 123.285156 52.378906 123.285156 C 48.09375 123.285156 44.625 119.703125 44.625 115.292969 L 44.625 52.710938 C 44.625 48.300781 48.09375 44.71875 52.378906 44.71875 C 56.65625 44.71875 60.132812 48.300781 60.132812 52.710938 L 60.132812 72.703125 L 92.765625 39.070312 C 94.207031 37.589844 96.183594 36.753906 98.25 36.753906 C 100.3125 36.753906 102.289062 37.589844 103.730469 39.070312 L 126.359375 62.378906 L 126.355469 62.378906 C 129.386719 65.539062 129.386719 70.523438 126.355469 73.679688 C 124.925781 75.175781 122.941406 76.023438 120.871094 76.023438 C 118.796875 76.023438 116.816406 75.175781 115.382812 73.679688 L 98.246094 56.019531 Z M 98.261719 76.003906 C 102.546875 76.003906 106.019531 79.585938 106.019531 84 C 106.019531 88.414062 102.542969 91.996094 98.261719 91.996094 C 93.976562 91.996094 90.503906 88.414062 90.503906 84 C 90.503906 79.585938 93.980469 76.003906 98.261719 76.003906 Z M 98.261719 76.003906 "/>
</g>
</svg>
