<?xml version="1.0" encoding="UTF-8"?>
<svg xmlns="http://www.w3.org/2000/svg" xmlns:xlink="http://www.w3.org/1999/xlink" width="168pt" height="168pt" viewBox="0 0 168 168" version="1.1">
<g id="surface1361">
<path style=" stroke:none;fill-rule:evenodd;fill:rgb(0%,37.254902%,100%);fill-opacity:1;" d="M 168 84 C 168 130.390625 130.390625 168 84 168 C 37.609375 168 0 130.390625 0 84 C 0 37.609375 37.609375 0 84 0 C 130.390625 0 168 37.609375 168 84 "/>
<path style=" stroke:none;fill-rule:evenodd;fill:rgb(100%,100%,100%);fill-opacity:1;" d="M 71.929688 94.535156 L 71.929688 69.246094 L 77.835938 69.246094 C 79.113281 69.246094 80.144531 70.265625 80.144531 71.519531 L 80.144531 73.703125 C 80.144531 76.074219 82.203125 78.113281 84.601562 78.113281 C 87 78.113281 88.824219 76.078125 88.824219 73.703125 L 88.824219 71.601562 C 88.824219 70.300781 89.890625 69.238281 91.214844 69.238281 L 97.792969 69.238281 L 97.792969 75.632812 C 97.792969 76.933594 96.722656 77.996094 95.402344 77.996094 L 93.171875 77.996094 L 93.171875 78 C 90.789062 77.988281 88.84375 79.90625 88.824219 82.289062 C 88.824219 84.65625 91.050781 86.578125 93.449219 86.578125 L 95.417969 86.578125 C 96.730469 86.578125 97.789062 87.628906 97.789062 88.917969 L 97.789062 94.535156 L 103.085938 94.535156 C 104.921875 94.535156 106.410156 95.996094 106.410156 97.789062 L 106.410156 99.714844 C 106.410156 101.511719 104.917969 102.96875 103.085938 102.96875 L 101.113281 102.96875 L 101.113281 102.972656 C 100.242188 102.984375 99.402344 102.644531 98.777344 102.035156 C 98.15625 101.425781 97.800781 100.589844 97.792969 99.71875 L 97.792969 95.382812 L 91.191406 95.382812 C 89.878906 95.382812 88.824219 94.332031 88.824219 93.042969 L 88.824219 90.878906 C 88.78125 88.460938 86.820312 86.519531 84.402344 86.5 C 82.003906 86.5 80.140625 88.601562 80.140625 91.09375 L 80.140625 93.058594 C 80.140625 94.34375 79.089844 95.382812 77.789062 95.382812 L 71.929688 95.382812 L 71.929688 99.71875 C 71.929688 101.515625 70.445312 102.972656 68.605469 102.972656 L 66.636719 102.972656 C 65.765625 102.984375 64.925781 102.644531 64.300781 102.035156 C 63.679688 101.425781 63.324219 100.589844 63.316406 99.71875 L 63.316406 97.792969 C 63.316406 95.996094 64.800781 94.539062 66.640625 94.539062 Z M 103.089844 68.402344 L 97.789062 68.402344 L 97.789062 63.226562 C 97.789062 61.429688 99.28125 59.972656 101.117188 59.972656 L 103.089844 59.972656 C 104.925781 59.972656 106.414062 61.433594 106.414062 63.226562 L 106.414062 65.152344 C 106.414062 66.949219 104.921875 68.40625 103.089844 68.40625 Z M 71.929688 68.402344 L 66.636719 68.402344 C 65.765625 68.410156 64.925781 68.074219 64.304688 67.464844 C 63.679688 66.855469 63.324219 66.023438 63.316406 65.152344 L 63.316406 63.226562 C 63.316406 61.429688 64.800781 59.972656 66.640625 59.972656 L 68.609375 59.972656 C 70.445312 59.972656 71.933594 61.433594 71.933594 63.226562 Z M 83.875 60.816406 C 83 60.824219 82.160156 60.488281 81.539062 59.878906 C 80.914062 59.265625 80.558594 58.433594 80.550781 57.5625 L 80.550781 55.636719 C 80.550781 53.839844 82.042969 52.386719 83.875 52.386719 L 85.847656 52.386719 C 87.683594 52.386719 89.171875 53.839844 89.171875 55.640625 L 89.171875 57.566406 C 89.160156 58.4375 88.804688 59.269531 88.183594 59.878906 C 87.558594 60.488281 86.71875 60.824219 85.847656 60.816406 Z M 83.875 112.246094 C 83 112.253906 82.160156 111.917969 81.539062 111.304688 C 80.914062 110.695312 80.558594 109.863281 80.550781 108.988281 L 80.550781 107.0625 C 80.550781 105.265625 82.042969 103.808594 83.875 103.808594 L 85.847656 103.808594 C 87.683594 103.808594 89.171875 105.269531 89.171875 107.0625 L 89.171875 108.996094 C 89.160156 109.867188 88.804688 110.699219 88.183594 111.308594 C 87.558594 111.917969 86.71875 112.253906 85.847656 112.246094 Z M 109.738281 86.105469 L 109.734375 86.105469 C 108.863281 86.113281 108.023438 85.777344 107.402344 85.167969 C 106.777344 84.558594 106.421875 83.726562 106.414062 82.855469 L 106.414062 80.929688 C 106.414062 79.132812 107.898438 77.675781 109.738281 77.675781 L 111.707031 77.675781 C 113.542969 77.675781 115.03125 79.136719 115.03125 80.929688 L 115.03125 82.855469 C 115.03125 84.652344 113.546875 86.109375 111.707031 86.109375 Z M 57.160156 86.105469 L 57.15625 86.105469 C 56.285156 86.113281 55.445312 85.777344 54.820312 85.167969 C 54.199219 84.558594 53.84375 83.726562 53.832031 82.855469 L 53.832031 80.929688 C 53.832031 79.132812 55.316406 77.675781 57.15625 77.675781 L 59.125 77.675781 C 60.960938 77.675781 62.453125 79.136719 62.453125 80.929688 L 62.453125 82.855469 C 62.453125 84.652344 60.960938 86.109375 59.125 86.109375 Z M 97.933594 112.464844 L 97.929688 112.464844 C 99.457031 111.84375 101.203125 112.554688 101.867188 114.066406 C 102.171875 114.792969 102.167969 115.609375 101.863281 116.335938 C 101.558594 117.0625 100.972656 117.632812 100.238281 117.921875 C 98.710938 118.542969 96.964844 117.835938 96.300781 116.324219 C 95.996094 115.597656 95.996094 114.777344 96.304688 114.050781 C 96.609375 113.328125 97.195312 112.753906 97.929688 112.464844 Z M 70.351562 46.710938 C 71.878906 46.085938 73.625 46.792969 74.289062 48.304688 C 74.589844 49.03125 74.589844 49.847656 74.28125 50.574219 C 73.976562 51.296875 73.390625 51.871094 72.660156 52.160156 C 71.128906 52.785156 69.378906 52.078125 68.71875 50.5625 C 68.414062 49.835938 68.414062 49.019531 68.722656 48.292969 C 69.027344 47.570312 69.613281 47 70.34375 46.710938 Z M 115.261719 69.957031 L 115.257812 69.957031 C 114.953125 69.230469 114.957031 68.410156 115.261719 67.683594 C 115.570312 66.957031 116.15625 66.386719 116.890625 66.097656 C 118.417969 65.476562 120.164062 66.183594 120.828125 67.695312 C 121.132812 68.421875 121.132812 69.238281 120.828125 69.964844 C 120.519531 70.691406 119.933594 71.261719 119.203125 71.550781 C 117.671875 72.175781 115.925781 71.46875 115.265625 69.957031 Z M 48.886719 96.929688 C 48.585938 96.203125 48.585938 95.386719 48.894531 94.660156 C 49.203125 93.9375 49.789062 93.363281 50.519531 93.078125 C 52.050781 92.449219 53.800781 93.15625 54.464844 94.671875 C 54.765625 95.398438 54.765625 96.21875 54.457031 96.941406 C 54.152344 97.667969 53.566406 98.238281 52.835938 98.527344 C 51.304688 99.15625 49.550781 98.449219 48.886719 96.929688 Z M 48.886719 67.691406 L 48.886719 67.695312 C 49.550781 66.179688 51.300781 65.472656 52.832031 66.097656 C 53.566406 66.386719 54.152344 66.957031 54.460938 67.683594 C 54.765625 68.410156 54.769531 69.230469 54.464844 69.957031 C 53.800781 71.46875 52.054688 72.175781 50.527344 71.550781 C 49.789062 71.265625 49.203125 70.695312 48.894531 69.96875 C 48.585938 69.242188 48.582031 68.421875 48.886719 67.695312 Z M 97.066406 52.15625 L 97.066406 52.160156 C 96.335938 51.871094 95.75 51.296875 95.445312 50.574219 C 95.136719 49.847656 95.136719 49.03125 95.441406 48.304688 C 96.101562 46.792969 97.847656 46.085938 99.378906 46.710938 C 100.109375 47 100.695312 47.570312 101 48.292969 C 101.304688 49.019531 101.308594 49.835938 101.003906 50.5625 C 100.339844 52.074219 98.59375 52.78125 97.066406 52.160156 Z M 115.257812 94.671875 C 115.917969 93.160156 117.667969 92.453125 119.195312 93.078125 C 119.929688 93.363281 120.515625 93.933594 120.824219 94.660156 C 121.132812 95.382812 121.136719 96.203125 120.835938 96.929688 C 120.171875 98.441406 118.425781 99.148438 116.898438 98.527344 C 116.164062 98.238281 115.574219 97.667969 115.265625 96.945312 C 114.960938 96.21875 114.957031 95.402344 115.257812 94.671875 Z M 68.621094 118.757812 L 68.621094 118.761719 C 67.890625 118.472656 67.304688 117.902344 66.996094 117.175781 C 66.691406 116.449219 66.691406 115.632812 66.996094 114.90625 C 67.660156 113.394531 69.40625 112.6875 70.933594 113.3125 C 71.664062 113.601562 72.25 114.171875 72.554688 114.894531 C 72.863281 115.621094 72.863281 116.4375 72.558594 117.164062 C 71.898438 118.675781 70.152344 119.382812 68.621094 118.761719 Z M 112.945312 110.199219 L 112.949219 110.203125 C 113.628906 109.546875 114.703125 109.546875 115.382812 110.203125 C 116.058594 110.863281 116.058594 111.9375 115.382812 112.59375 C 114.707031 113.25 113.625 113.25 112.945312 112.59375 L 112.949219 112.589844 C 112.625 112.277344 112.445312 111.847656 112.445312 111.398438 C 112.445312 110.949219 112.625 110.519531 112.949219 110.207031 Z M 54.335938 52.039062 C 55.007812 51.382812 56.101562 51.382812 56.773438 52.039062 C 57.445312 52.695312 57.445312 53.773438 56.773438 54.429688 L 56.773438 54.425781 C 56.09375 55.082031 55.015625 55.082031 54.335938 54.425781 C 54.015625 54.113281 53.832031 53.683594 53.832031 53.234375 C 53.832031 52.785156 54.015625 52.355469 54.335938 52.042969 Z M 112.945312 54.429688 L 112.949219 54.425781 C 112.625 54.113281 112.445312 53.683594 112.445312 53.234375 C 112.445312 52.785156 112.625 52.355469 112.949219 52.042969 C 113.625 51.382812 114.714844 51.382812 115.386719 52.042969 C 116.058594 52.703125 116.0625 53.765625 115.386719 54.425781 L 115.382812 54.425781 C 114.703125 55.082031 113.628906 55.082031 112.949219 54.425781 Z M 54.335938 112.589844 C 54.015625 112.277344 53.832031 111.847656 53.832031 111.398438 C 53.832031 110.949219 54.015625 110.519531 54.335938 110.207031 C 55.015625 109.550781 56.09375 109.550781 56.773438 110.207031 C 57.445312 110.863281 57.445312 111.933594 56.773438 112.589844 C 56.101562 113.246094 55.007812 113.246094 54.335938 112.589844 Z M 125.367188 81.894531 C 125.367188 80.960938 126.144531 80.203125 127.09375 80.203125 C 128.042969 80.203125 128.816406 80.960938 128.816406 81.894531 L 128.820312 81.894531 C 128.804688 82.832031 128.035156 83.582031 127.097656 83.574219 C 126.160156 83.582031 125.390625 82.832031 125.375 81.894531 Z M 41.761719 81.894531 C 41.761719 80.960938 42.535156 80.203125 43.488281 80.203125 C 44.433594 80.203125 45.210938 80.960938 45.210938 81.894531 L 45.214844 81.894531 C 45.199219 82.832031 44.429688 83.582031 43.492188 83.574219 C 42.550781 83.585938 41.777344 82.835938 41.765625 81.894531 Z M 84.863281 43.113281 L 84.867188 43.113281 C 84.414062 43.121094 83.976562 42.945312 83.648438 42.628906 C 83.324219 42.3125 83.140625 41.882812 83.132812 41.429688 C 83.132812 40.496094 83.910156 39.738281 84.867188 39.738281 C 85.8125 39.738281 86.589844 40.496094 86.589844 41.429688 C 86.574219 42.367188 85.800781 43.121094 84.859375 43.109375 Z M 84.863281 124.886719 L 84.867188 124.886719 C 84.414062 124.894531 83.976562 124.722656 83.652344 124.40625 C 83.328125 124.089844 83.140625 123.660156 83.132812 123.207031 C 83.132812 122.273438 83.910156 121.515625 84.867188 121.515625 C 85.8125 121.515625 86.589844 122.273438 86.589844 123.199219 L 86.589844 123.203125 C 86.582031 123.652344 86.398438 124.085938 86.074219 124.402344 C 85.75 124.71875 85.3125 124.894531 84.859375 124.886719 Z M 138.296875 81.890625 C 138.296875 80.960938 139.074219 80.210938 140.023438 80.210938 C 140.96875 80.210938 141.746094 80.960938 141.746094 81.890625 L 141.75 81.890625 C 141.746094 82.34375 141.5625 82.773438 141.238281 83.089844 C 140.917969 83.410156 140.480469 83.585938 140.027344 83.578125 C 139.574219 83.585938 139.140625 83.410156 138.816406 83.09375 C 138.492188 82.777344 138.304688 82.347656 138.300781 81.894531 Z M 27.539062 81.050781 C 28.253906 81.050781 28.835938 81.617188 28.835938 82.3125 C 28.835938 83.003906 28.257812 83.582031 27.539062 83.582031 C 26.824219 83.582031 26.246094 83.015625 26.246094 82.316406 C 26.246094 81.617188 26.824219 81.050781 27.539062 81.050781 Z M 82.277344 27.933594 C 82.277344 27.003906 83.050781 26.25 84 26.25 C 84.949219 26.25 85.722656 27.007812 85.722656 27.933594 C 85.722656 28.863281 84.949219 29.617188 84 29.617188 C 83.050781 29.617188 82.277344 28.859375 82.277344 27.9375 Z M 133.332031 101.984375 L 133.335938 101.988281 C 133.910156 100.691406 135.414062 100.09375 136.71875 100.636719 C 137.347656 100.890625 137.847656 101.382812 138.105469 102.007812 C 138.367188 102.628906 138.363281 103.332031 138.101562 103.957031 C 137.53125 105.257812 136.015625 105.855469 134.710938 105.300781 C 134.085938 105.046875 133.585938 104.554688 133.328125 103.929688 C 133.070312 103.308594 133.070312 102.609375 133.335938 101.988281 Z M 105.347656 129.230469 L 105.351562 129.234375 C 105.773438 129.40625 106.109375 129.738281 106.28125 130.15625 C 106.453125 130.570312 106.453125 131.035156 106.277344 131.445312 C 105.996094 132.074219 105.367188 132.476562 104.679688 132.472656 C 103.988281 132.46875 103.367188 132.054688 103.09375 131.421875 C 102.917969 131.011719 102.917969 130.546875 103.09375 130.136719 C 103.273438 129.71875 103.617188 129.394531 104.039062 129.230469 C 104.460938 129.0625 104.933594 129.066406 105.351562 129.238281 Z M 33.820312 59.265625 C 34.242188 59.445312 34.570312 59.769531 34.746094 60.183594 L 34.746094 60.1875 C 34.917969 60.597656 34.917969 61.066406 34.738281 61.476562 C 34.457031 62.105469 33.832031 62.511719 33.140625 62.503906 C 32.453125 62.5 31.832031 62.089844 31.558594 61.457031 C 31.382812 61.042969 31.386719 60.578125 31.5625 60.164062 C 31.742188 59.75 32.082031 59.425781 32.503906 59.261719 C 32.925781 59.09375 33.398438 59.09375 33.820312 59.265625 Z M 29.011719 102.578125 C 29.492188 101.5 30.746094 101 31.835938 101.457031 C 32.359375 101.664062 32.773438 102.078125 32.988281 102.597656 C 33.203125 103.117188 33.203125 103.699219 32.980469 104.21875 C 32.5 105.296875 31.246094 105.792969 30.15625 105.335938 C 29.632812 105.125 29.21875 104.714844 29.003906 104.195312 C 28.785156 103.675781 28.789062 103.089844 29.011719 102.574219 Z M 104.28125 32.824219 C 103.757812 32.613281 103.339844 32.203125 103.125 31.683594 C 102.90625 31.164062 102.910156 30.578125 103.132812 30.0625 C 103.609375 28.980469 104.863281 28.480469 105.957031 28.9375 C 106.476562 29.148438 106.894531 29.558594 107.109375 30.078125 C 107.324219 30.597656 107.320312 31.183594 107.101562 31.699219 C 106.621094 32.777344 105.371094 33.273438 104.28125 32.824219 Z M 136.523438 58.375 L 136.519531 58.375 C 136.839844 58.246094 137.195312 58.25 137.511719 58.378906 C 137.988281 58.574219 138.296875 59.039062 138.292969 59.554688 C 138.289062 60.066406 137.976562 60.527344 137.496094 60.714844 C 136.839844 60.980469 136.09375 60.671875 135.8125 60.023438 C 135.679688 59.710938 135.683594 59.359375 135.816406 59.050781 C 135.953125 58.742188 136.207031 58.496094 136.519531 58.375 Z M 60.832031 31.238281 C 61.117188 30.589844 61.871094 30.289062 62.523438 30.566406 C 63 30.757812 63.316406 31.222656 63.3125 31.738281 C 63.308594 32.253906 62.988281 32.714844 62.507812 32.902344 C 62.1875 33.027344 61.835938 33.027344 61.519531 32.898438 C 61.207031 32.769531 60.957031 32.523438 60.828125 32.210938 C 60.699219 31.898438 60.699219 31.546875 60.832031 31.238281 Z M 61.164062 130.789062 C 61.332031 130.789062 61.5 130.824219 61.664062 130.894531 L 61.660156 130.894531 C 61.972656 131.019531 62.222656 131.265625 62.351562 131.574219 C 62.480469 131.886719 62.480469 132.238281 62.347656 132.546875 C 62.0625 133.191406 61.3125 133.492188 60.660156 133.21875 C 60.347656 133.09375 60.097656 132.847656 59.964844 132.535156 C 59.835938 132.226562 59.835938 131.875 59.964844 131.566406 C 60.171875 131.089844 60.644531 130.785156 61.164062 130.789062 Z M 122.285156 121.863281 L 122.28125 121.863281 C 121.601562 122.523438 120.523438 122.523438 119.839844 121.863281 C 119.519531 121.550781 119.335938 121.121094 119.335938 120.671875 C 119.335938 120.222656 119.519531 119.792969 119.839844 119.480469 C 120.167969 119.160156 120.609375 118.984375 121.066406 118.984375 C 121.519531 118.984375 121.957031 119.160156 122.28125 119.480469 C 122.605469 119.792969 122.789062 120.222656 122.789062 120.675781 C 122.789062 121.125 122.605469 121.554688 122.28125 121.867188 Z M 41.660156 42.171875 C 42.679688 41.1875 44.296875 41.1875 45.316406 42.171875 C 45.800781 42.644531 46.074219 43.289062 46.074219 43.960938 C 46.074219 44.632812 45.800781 45.277344 45.316406 45.75 C 44.300781 46.746094 42.675781 46.746094 41.660156 45.75 C 41.175781 45.277344 40.902344 44.632812 40.902344 43.960938 C 40.902344 43.289062 41.175781 42.644531 41.660156 42.171875 Z M 123.167969 42.644531 L 123.164062 42.644531 C 123.671875 42.148438 124.484375 42.148438 124.992188 42.644531 C 125.230469 42.878906 125.367188 43.203125 125.367188 43.539062 C 125.367188 43.875 125.230469 44.195312 124.992188 44.429688 C 124.484375 44.925781 123.675781 44.925781 123.164062 44.429688 C 122.921875 44.195312 122.785156 43.875 122.785156 43.539062 C 122.785156 43.203125 122.921875 42.878906 123.164062 42.644531 Z M 42.140625 119.359375 C 42.648438 118.859375 43.460938 118.859375 43.96875 119.359375 C 44.210938 119.59375 44.347656 119.914062 44.347656 120.25 C 44.347656 120.585938 44.210938 120.910156 43.96875 121.144531 C 43.460938 121.636719 42.652344 121.636719 42.140625 121.144531 C 41.902344 120.910156 41.765625 120.585938 41.765625 120.25 C 41.765625 119.914062 41.902344 119.59375 42.140625 119.359375 Z M 84.429688 141.75 C 83.253906 141.761719 82.292969 140.820312 82.277344 139.644531 C 82.277344 138.480469 83.238281 137.535156 84.429688 137.535156 C 85.621094 137.535156 86.582031 138.480469 86.582031 139.644531 C 86.570312 140.820312 85.605469 141.761719 84.429688 141.75 Z M 84.429688 141.75 "/>
</g>
</svg>
