<?xml version="1.0" encoding="UTF-8"?>
<svg xmlns="http://www.w3.org/2000/svg" xmlns:xlink="http://www.w3.org/1999/xlink" width="168pt" height="168pt" viewBox="0 0 168 168" version="1.1">
<g id="surface2355">
<path style=" stroke:none;fill-rule:nonzero;fill:rgb(91.764706%,0%,9.019608%);fill-opacity:1;" d="M 168 84 C 168 130.390625 130.390625 168 84 168 C 37.609375 168 0 130.390625 0 84 C 0 37.609375 37.609375 0 84 0 C 130.390625 0 168 37.609375 168 84 "/>
<path style=" stroke:none;fill-rule:nonzero;fill:rgb(100%,100%,100%);fill-opacity:1;" d="M 108.765625 80.914062 C 108.929688 80.914062 109.320312 81.082031 109.65625 81.28125 C 110.582031 81.84375 111.058594 82.972656 110.96875 84.328125 C 110.917969 85.253906 110.691406 85.882812 109.761719 87.773438 C 109.132812 89.054688 107.945312 91.203125 107.136719 92.550781 C 105.738281 94.851562 105.074219 96.058594 105.074219 96.242188 C 105.074219 96.292969 106.019531 95.445312 107.175781 94.351562 C 109.339844 92.316406 110.855469 91.347656 111.542969 91.570312 C 112.472656 91.871094 112.75 93.628906 112.136719 95.390625 C 111.785156 96.441406 110.839844 98.351562 109.894531 99.964844 C 109.347656 100.855469 109.300781 101.035156 110.21875 100.511719 L 110.984375 100.058594 C 112.894531 98.910156 114.117188 98.78125 114.785156 99.691406 C 115.519531 100.6875 115.394531 103.730469 114.484375 106.359375 C 114.28125 106.953125 114.167969 107.488281 114.222656 107.546875 C 114.28125 107.597656 114.851562 107.414062 115.484375 107.136719 C 116.136719 106.84375 117.101562 106.507812 117.65625 106.378906 C 119.523438 105.933594 120.324219 106.730469 120.675781 109.375 C 120.992188 111.675781 120.121094 113.585938 118.523438 114.15625 C 118.25 114.25 118.207031 114.207031 118.304688 113.863281 C 118.378906 113.621094 118.472656 113.195312 118.546875 112.898438 C 118.640625 112.414062 118.621094 112.398438 118.285156 112.582031 C 117.75 112.859375 117.140625 113.972656 116.921875 115.085938 C 116.253906 118.382812 115.421875 120.011719 113.230469 122.238281 C 110.820312 124.683594 108.320312 126.332031 104.429688 128.078125 C 102.613281 128.890625 100.054688 130.503906 97.332031 132.5625 L 96.535156 133.171875 L 94.960938 131.726562 L 94.171875 131.035156 C 92.589844 129.703125 91.007812 128.664062 89.734375 128.148438 L 89.734375 128.140625 C 89.355469 127.996094 88.976562 127.84375 88.605469 127.683594 C 88.570312 127.648438 88.882812 127.238281 89.308594 126.753906 L 89.308594 126.757812 C 89.722656 126.277344 90.042969 125.726562 90.253906 125.128906 C 90.515625 124.105469 90.65625 123.867188 91.234375 123.53125 C 91.902344 123.164062 92.976562 123.457031 95.535156 124.738281 C 96.664062 125.289062 97.625 125.757812 97.71875 125.757812 C 97.921875 125.757812 97.886719 125.21875 97.625 124.535156 C 97.425781 123.980469 97.5 123.644531 98.347656 121.085938 C 99.476562 117.714844 99.777344 116.492188 99.554688 116.265625 C 99.277344 115.988281 99.050781 116.433594 97.753906 119.730469 C 97.070312 121.457031 96.476562 122.921875 96.441406 122.960938 C 96.382812 123.011719 95.972656 122.867188 95.511719 122.644531 C 94.75 122.273438 94.675781 122.160156 94.769531 121.753906 C 95.304688 119.601562 95.621094 114.75 95.289062 113.5625 C 95.046875 112.726562 94.785156 113.078125 94.566406 114.542969 C 94.082031 117.65625 93.546875 120.125 93.328125 120.34375 C 93.117188 120.546875 92.992188 120.492188 92.582031 120.007812 L 92.105469 119.414062 L 92.105469 102.007812 L 96.214844 96.707031 L 97.058594 95.613281 C 103.636719 87.125 105.523438 84.675781 106.980469 82.808594 C 107.792969 81.769531 108.59375 80.917969 108.761719 80.917969 Z M 72.6875 107.269531 C 74.445312 105.59375 74.839844 105.449219 75.449219 106.304688 C 75.910156 106.933594 76.167969 108.414062 76.167969 110.4375 L 76.167969 112.101562 L 77.023438 113.011719 L 77.371094 113.410156 C 77.710938 113.832031 78.023438 114.300781 78.132812 114.566406 C 78.410156 115.253906 78.527344 117.882812 78.300781 118.777344 C 78.226562 119.070312 78.410156 119.628906 78.914062 120.59375 C 82.34375 127.15625 83.046875 128.578125 82.957031 128.6875 L 82.839844 128.707031 L 82.628906 128.691406 L 82.628906 128.6875 C 82.429688 128.652344 82.234375 128.601562 82.042969 128.53125 C 81.246094 128.277344 80.300781 128.238281 76.949219 128.332031 C 74.929688 128.382812 73.71875 128.054688 73.609375 127.40625 C 73.558594 127.144531 74.3125 125.9375 75.910156 123.730469 C 76.394531 123.070312 76.445312 122.679688 76.171875 122.234375 C 76.039062 122.015625 75.390625 121.933594 73.023438 121.867188 C 69.054688 121.734375 68.929688 121.511719 71.722656 119.398438 C 72.894531 118.507812 74.261719 117.097656 74.425781 116.617188 C 74.484375 116.433594 74.390625 116.082031 74.226562 115.824219 L 73.910156 115.339844 L 71.652344 115.472656 L 71.039062 115.503906 C 68.550781 115.609375 68.097656 115.25 68.9375 114.082031 C 69.148438 113.804688 69.253906 113.527344 69.183594 113.453125 C 69.132812 113.402344 68.027344 113.34375 66.789062 113.34375 C 64.65625 113.34375 62.730469 113.101562 62.398438 112.804688 C 62.324219 112.730469 63.234375 112.363281 64.433594 111.992188 C 66.492188 111.363281 69.253906 110.101562 70.511719 109.210938 L 70.519531 109.207031 C 71.265625 108.585938 71.988281 107.9375 72.6875 107.261719 Z M 79.550781 91.308594 C 79.636719 91.359375 79.839844 93.015625 80.058594 95 C 80.269531 96.980469 80.429688 98.796875 80.429688 99.015625 C 80.429688 99.257812 80.503906 99.445312 80.597656 99.445312 C 80.6875 99.445312 81.242188 98.699219 81.835938 97.777344 C 82.449219 96.867188 82.992188 96.109375 83.042969 96.109375 C 83.191406 96.109375 83.285156 96.8125 83.777344 102.078125 C 84.023438 104.503906 84.265625 106.488281 84.316406 106.488281 C 84.367188 106.488281 84.667969 105.449219 84.945312 104.171875 C 85.246094 102.890625 85.539062 101.851562 85.613281 101.851562 C 85.722656 101.851562 90.820312 116.605469 90.804688 116.898438 C 90.804688 117.308594 90.359375 116.824219 88.578125 114.53125 C 87.5 113.117188 86.484375 111.820312 86.320312 111.601562 L 85.984375 111.214844 L 85.484375 111.769531 L 85.273438 112.003906 L 85.28125 112.003906 C 84.804688 112.539062 84.324219 113.070312 83.835938 113.597656 L 82.671875 114.878906 L 82.578125 114.25 L 82.5625 114.09375 C 82.476562 113.410156 82.242188 110.945312 82.007812 108.28125 C 81.765625 105.335938 81.507812 102.851562 81.429688 102.757812 C 81.378906 102.667969 80.671875 103.1875 79.855469 103.929688 C 79.042969 104.671875 78.300781 105.316406 78.191406 105.335938 C 78.082031 105.371094 78.058594 105.117188 78.117188 104.683594 C 78.25 103.738281 79.507812 91.847656 79.507812 91.492188 C 79.507812 91.34375 79.542969 91.273438 79.597656 91.308594 Z M 55.769531 81.082031 C 57.101562 80.914062 59.863281 81.0625 61.144531 81.414062 C 62.550781 81.765625 64.125 82.4375 65.386719 83.15625 C 66.632812 83.898438 69.6875 86.847656 70.148438 87.777344 C 70.515625 88.511719 70.703125 88.605469 68.464844 86.902344 L 68.460938 86.898438 C 66.691406 85.585938 64.726562 84.554688 62.644531 83.84375 C 61.605469 83.519531 61.015625 83.433594 59.414062 83.421875 L 58.65625 83.417969 C 56.320312 83.417969 55.914062 83.46875 54.578125 83.917969 C 46.109375 86.789062 41.832031 97.558594 46.261719 104.839844 C 47.574219 107.023438 49.691406 108.972656 52.539062 110.613281 C 54.152344 111.558594 54.023438 111.714844 52.039062 111.210938 L 52.042969 111.210938 C 48.46875 110.320312 45.480469 107.875 43.90625 104.542969 C 42.886719 102.464844 42.445312 100.539062 42.316406 97.777344 C 42.132812 93.316406 43.296875 89.769531 46.074219 86.402344 C 48.277344 83.714844 52.191406 81.582031 55.765625 81.085938 Z M 48.949219 95.519531 C 49.226562 94.664062 49.265625 94.722656 49.972656 96.683594 L 49.96875 96.683594 C 51.382812 100.40625 53.523438 103.808594 56.269531 106.691406 C 56.914062 107.375 57.449219 107.988281 57.449219 108.054688 C 57.449219 108.355469 55.988281 107.988281 54.597656 107.355469 C 51.226562 105.78125 49.242188 102.5 48.816406 97.695312 C 48.742188 96.699219 48.765625 96.03125 48.941406 95.511719 Z M 64.5 67.851562 C 66.832031 67.5 66.945312 67.535156 65.425781 68.238281 C 64.664062 68.589844 63.925781 68.921875 63.796875 69.015625 L 63.648438 69.105469 C 63.226562 69.410156 64 69.527344 66.667969 69.609375 C 70.058594 69.703125 70.082031 69.71875 69.796875 70.832031 C 69.6875 71.277344 69.648438 71.277344 67.59375 71.277344 L 67.589844 71.277344 C 66.402344 71.292969 65.222656 71.386719 64.050781 71.558594 C 62.605469 71.820312 60.511719 72.6875 60.511719 73.039062 C 60.511719 73.132812 61.382812 73.316406 62.453125 73.449219 C 65.753906 73.835938 68.964844 74.710938 71.183594 75.820312 C 72.054688 76.28125 72.515625 76.871094 74.261719 79.894531 C 78.949219 87.988281 79.652344 89.140625 81.339844 91.382812 C 83.492188 94.238281 85.800781 96.832031 88.324219 99.222656 L 90.625 101.390625 L 90.625 104.398438 C 90.605469 105.492188 90.535156 106.332031 90.441406 106.394531 C 90.257812 106.503906 90.367188 106.695312 87.847656 102.410156 L 87.84375 102.40625 C 86.007812 99.285156 84.019531 96.253906 81.894531 93.324219 C 81.351562 92.589844 80.84375 91.832031 80.371094 91.050781 C 80.320312 90.882812 80.152344 90.734375 80.019531 90.714844 C 79.894531 90.714844 79.285156 90.121094 78.671875 89.402344 C 76.929688 87.359375 73 83.820312 70.328125 81.914062 C 68.796875 80.800781 66.773438 79.429688 66.664062 79.429688 C 66.628906 79.429688 65.976562 79.09375 65.214844 78.667969 L 65.214844 78.671875 C 63.535156 77.78125 61.773438 77.046875 59.953125 76.488281 C 58.671875 76.136719 56.121094 76.042969 54.488281 76.261719 C 52.136719 76.679688 49.871094 77.507812 47.800781 78.707031 C 47.285156 79.039062 46.753906 79.34375 46.207031 79.617188 C 46.074219 79.617188 44.449219 80.78125 43.1875 81.804688 C 42.609375 82.265625 42.148438 82.523438 42.109375 82.414062 C 42.015625 82.152344 43.574219 79.988281 44.929688 78.449219 C 46.761719 76.519531 48.792969 74.789062 50.988281 73.28125 C 54.820312 70.722656 60.4375 68.460938 64.496094 67.851562 Z M 51.84375 90.957031 C 51.160156 89.089844 51.175781 88.9375 52.046875 89.433594 L 52.042969 89.433594 C 52.65625 89.816406 53.253906 90.21875 53.839844 90.640625 C 57.425781 93.308594 60.316406 96.796875 62.269531 100.816406 C 63.066406 102.5 63.625 104.078125 63.492188 104.207031 L 63.390625 104.226562 L 63.21875 104.175781 C 62.328125 103.808594 59.542969 101.550781 57.449219 99.445312 C 54.804688 96.757812 52.949219 93.996094 51.835938 90.957031 Z M 58.011719 85.953125 C 58.011719 85.734375 59.996094 86.253906 61.160156 86.789062 C 63.589844 87.882812 65.371094 89.992188 66.148438 92.628906 C 66.667969 94.410156 66.816406 95.757812 66.632812 97.148438 C 66.480469 98.386719 66.5 98.429688 65.335938 95.816406 L 65.332031 95.8125 C 63.933594 92.914062 62.089844 90.257812 59.859375 87.9375 C 59.222656 87.296875 58.605469 86.632812 58.007812 85.953125 Z M 88.402344 55.007812 C 89.3125 54.746094 89.292969 54.746094 89.589844 55.191406 C 90.089844 55.96875 90.996094 58.992188 91.386719 61.199219 C 91.628906 62.644531 91.796875 64.628906 91.871094 66.996094 L 91.976562 70.59375 L 91.074219 70.46875 L 90.871094 70.4375 C 89.589844 70.226562 88.546875 69.832031 81.605469 66.925781 C 77.863281 65.351562 74.769531 64.113281 74.710938 64.164062 C 74.621094 64.257812 76.476562 67.90625 77.714844 70.074219 C 79.972656 74.007812 84.160156 76.136719 89.003906 75.824219 C 90.390625 75.730469 90.894531 75.765625 91.3125 75.972656 C 92.316406 76.507812 92.964844 77.4375 93.574219 79.25 C 94.335938 81.476562 95.726562 84.183594 96.914062 85.738281 C 97.414062 86.40625 97.804688 86.960938 97.804688 86.960938 C 97.785156 86.976562 97.191406 86.867188 96.464844 86.734375 C 93.21875 86.066406 87.609375 83.714844 86.089844 82.382812 C 84.347656 80.84375 85.9375 83.308594 87.789062 84.996094 C 90.046875 87.070312 93.3125 88.867188 97.035156 90.109375 C 98.148438 90.476562 99.09375 90.8125 99.113281 90.828125 C 99.316406 91.015625 93.847656 97.40625 93.515625 97.40625 C 93.179688 97.40625 91.289062 96.277344 89.457031 95 C 87.4375 93.585938 82.859375 89.089844 81.230469 86.9375 L 81.226562 86.933594 C 76.546875 80.652344 73.121094 73.523438 71.148438 65.941406 L 70.570312 63.832031 L 71.292969 63.089844 L 71.761719 62.648438 C 74.519531 60.234375 81.488281 57.03125 88.398438 55.007812 Z M 116.804688 48.746094 L 116.800781 48.746094 C 117.207031 48.785156 117.601562 48.910156 117.957031 49.113281 C 118.25 49.320312 118.507812 49.578125 118.714844 49.875 C 118.882812 50.117188 120.847656 57.488281 123.074219 66.21875 C 127.519531 83.617188 127.484375 83.382812 126.480469 84.4375 L 126.476562 84.4375 C 126.164062 84.746094 125.792969 84.996094 125.386719 85.171875 C 124.53125 85.457031 111.316406 88.320312 111.25 88.253906 L 111.246094 88.253906 C 111.320312 87.863281 111.449219 87.488281 111.636719 87.140625 C 112.582031 84.988281 112.632812 82.992188 111.742188 81.566406 C 111.132812 80.570312 109.558594 79.625 108.539062 79.625 C 107.945312 79.625 107.761719 79.804688 104.613281 83.878906 C 102.796875 86.242188 101.242188 88.089844 101.167969 88.015625 C 101.089844 87.941406 99.402344 80.71875 97.386719 71.988281 C 94.789062 60.722656 93.769531 55.9375 93.863281 55.554688 L 93.863281 55.550781 C 94.058594 54.839844 94.507812 54.222656 95.125 53.824219 C 95.921875 53.398438 116.082031 48.675781 116.808594 48.746094 Z M 119.867188 69.777344 C 119.832031 69.703125 119.164062 70.238281 118.382812 70.984375 C 117.605469 71.703125 116.015625 73.1875 114.867188 74.28125 L 112.75 76.261719 L 108.214844 74.796875 L 108.207031 74.796875 C 106.664062 74.265625 105.097656 73.789062 103.519531 73.375 C 103.445312 73.390625 105.183594 75.039062 107.410156 77.023438 C 109.652344 79.007812 112.082031 81.191406 112.839844 81.894531 C 113.601562 82.578125 114.285156 83.082031 114.363281 83.007812 C 114.5625 82.804688 119.917969 69.925781 119.867188 69.777344 Z M 108.769531 75.558594 C 110.046875 75.984375 111.472656 76.371094 111.933594 76.449219 L 112.769531 76.554688 L 113.382812 79.320312 C 113.714844 80.835938 113.953125 82.117188 113.898438 82.15625 C 113.863281 82.191406 113.421875 81.820312 112.9375 81.335938 L 112.933594 81.339844 C 111.660156 80.132812 110.371094 78.949219 109.058594 77.785156 C 108.027344 76.871094 107.019531 75.933594 106.039062 74.964844 C 105.929688 74.6875 106.371094 74.78125 108.765625 75.558594 Z M 63.472656 52.453125 C 66.585938 51.675781 67.824219 51.488281 67.824219 51.800781 C 67.824219 51.894531 67.378906 52.078125 66.859375 52.1875 C 65.34375 52.558594 61.429688 53.929688 59.488281 54.785156 C 57.371094 55.710938 54.667969 57.285156 53.648438 58.171875 L 52.90625 58.800781 L 53.550781 58.953125 L 54.347656 59.140625 C 56.992188 59.84375 61.855469 61.675781 64.164062 62.878906 C 65.855469 63.75 68 65.214844 68 65.507812 C 68 65.582031 67.445312 65.710938 66.761719 65.785156 C 63.925781 66.0625 59.273438 67.214844 55.957031 68.4375 C 51.898438 69.960938 46.75 72.714844 43.597656 75.089844 C 41.539062 76.644531 41.539062 76.644531 42.265625 75.609375 C 43.136719 74.347656 45.78125 71.605469 47.394531 70.308594 C 50.878906 67.546875 55.457031 65.546875 60.308594 64.675781 L 61.054688 64.550781 L 59.742188 63.9375 L 59.085938 63.660156 C 56.214844 62.515625 50.191406 61.035156 46.601562 60.621094 L 46.609375 60.621094 C 46.144531 60.578125 45.683594 60.484375 45.238281 60.34375 C 44.753906 60.085938 51.035156 56.714844 54.761719 55.25 C 57.605469 54.140625 60.515625 53.207031 63.472656 52.453125 Z M 107.941406 55.933594 C 106.554688 60.027344 103.214844 70.371094 103.214844 70.589844 C 103.214844 70.757812 103.140625 70.941406 103.03125 71 C 102.4375 71.367188 103.125 71.683594 107.460938 73.109375 C 109.996094 73.929688 112.203125 74.609375 112.371094 74.609375 C 112.738281 74.609375 119.617188 68.179688 119.617188 67.847656 C 119.617188 67.714844 117.246094 65.144531 114.371094 62.140625 L 114.371094 62.144531 C 112.46875 60.175781 110.589844 58.1875 108.738281 56.175781 C 108.351562 55.675781 108.070312 55.582031 107.941406 55.933594 Z M 83.222656 71.410156 C 83.039062 70.886719 83.039062 70.886719 83.632812 71 C 83.949219 71.074219 84.683594 71.351562 85.246094 71.628906 C 86.59375 72.273438 86.652344 72.574219 85.429688 72.574219 C 84.28125 72.574219 83.464844 72.148438 83.226562 71.410156 Z M 108.203125 56.9375 C 108.292969 57.03125 108.796875 59.011719 109.316406 61.347656 L 110.277344 65.609375 L 109.757812 66.109375 C 109.039062 66.8125 103.53125 70.929688 103.457031 70.835938 C 103.40625 70.800781 103.53125 70.449219 103.734375 70.039062 C 104.101562 69.320312 107.757812 58.292969 107.941406 57.3125 C 108.015625 57.011719 108.128906 56.84375 108.203125 56.941406 Z M 67.378906 54.050781 L 67.230469 55.378906 L 67.171875 55.910156 C 67.0625 57.023438 67.128906 57.289062 67.449219 57.289062 C 67.660156 57.289062 67.785156 57.675781 67.933594 58.769531 C 68.25 60.886719 68.320312 62.980469 68.101562 63.074219 C 67.992188 63.089844 67.210938 62.703125 66.34375 62.199219 L 66.34375 62.195312 C 64.320312 60.996094 62.203125 59.96875 60.007812 59.121094 C 59.210938 58.828125 58.558594 58.53125 58.558594 58.476562 C 58.558594 58.089844 60.835938 56.34375 62.210938 55.679688 C 63.96875 54.828125 66.175781 54.066406 66.914062 54.050781 Z M 95.71875 45.148438 C 102.203125 43.925781 103.558594 43.816406 104.707031 44.40625 C 105.09375 44.609375 105.597656 45.019531 105.800781 45.316406 C 106.261719 45.945312 107.484375 48.488281 107.484375 48.78125 C 107.484375 48.914062 106.445312 49.148438 104.855469 49.410156 C 93.199219 51.246094 83.640625 54.003906 76.359375 57.652344 L 76.355469 57.65625 C 74.585938 58.492188 72.898438 59.492188 71.316406 60.644531 C 70.070312 61.589844 70.203125 61.851562 69.757812 57.640625 C 69.441406 54.789062 69.441406 54.621094 69.757812 53.789062 C 70.058594 53.011719 70.21875 52.859375 71.316406 52.308594 L 71.316406 52.304688 C 73.894531 51.121094 76.535156 50.074219 79.226562 49.171875 C 84.171875 47.597656 89.117188 46.390625 95.710938 45.148438 Z M 77.742188 32.636719 L 77.929688 32.636719 C 78.035156 32.636719 78.371094 33.160156 78.707031 33.769531 C 80.28125 36.640625 83.46875 45.519531 83.082031 45.90625 L 83.082031 45.910156 C 82.824219 46.0625 82.539062 46.15625 82.242188 46.191406 L 81.597656 46.300781 L 80.96875 44.945312 L 80.652344 44.269531 C 78.761719 40.332031 75.371094 34.964844 74.964844 35.351562 C 74.914062 35.402344 75.039062 35.945312 75.242188 36.558594 C 76.1875 39.261719 77.464844 45.320312 77.464844 47.042969 C 77.464844 47.5625 77.375 47.726562 77.003906 47.898438 L 77 47.894531 C 76.773438 48.011719 76.53125 48.085938 76.277344 48.117188 C 76.171875 48.117188 75.558594 47.449219 74.964844 46.636719 C 74.371094 45.816406 73.816406 45.207031 73.742188 45.28125 C 73.691406 45.375 73.5 46.300781 73.332031 47.355469 C 73.054688 49.265625 72.777344 49.929688 72.480469 49.457031 C 72.40625 49.320312 72.238281 47.453125 72.113281 45.285156 L 72.113281 45.28125 C 72.050781 43.796875 71.945312 42.3125 71.800781 40.835938 C 71.742188 40.558594 71.78125 40.335938 71.867188 40.335938 C 71.960938 40.335938 72.6875 40.945312 73.464844 41.699219 C 74.242188 42.445312 74.910156 43.015625 74.945312 42.945312 C 75.097656 42.667969 73.09375 36.683594 71.832031 33.640625 C 71.726562 33.382812 71.90625 33.289062 72.964844 33.125 C 74.242188 32.898438 77.59375 32.585938 77.929688 32.640625 Z M 62.660156 36.605469 C 64.144531 35.660156 65.40625 35.34375 66.234375 35.679688 C 66.488281 35.769531 66.550781 35.941406 66.554688 37.21875 L 66.554688 38.402344 C 66.539062 39.707031 66.496094 41.011719 66.421875 42.316406 L 66.289062 43.628906 L 62.84375 43.539062 L 61.4375 43.519531 L 61.441406 43.515625 C 58.574219 43.476562 55.714844 43.835938 52.953125 44.59375 C 51.78125 44.894531 50.710938 45.171875 50.582031 45.1875 C 50.449219 45.222656 50.320312 45.113281 50.289062 44.96875 C 50.171875 44.300781 54.4375 41.261719 59.214844 38.59375 C 60.648438 37.773438 62.203125 36.886719 62.664062 36.609375 Z M 81.296875 32.546875 L 82.414062 34.4375 L 82.78125 35.066406 C 84.664062 38.382812 87.285156 43.9375 87.285156 44.664062 C 87.285156 44.980469 86.039062 45.292969 85.820312 45.035156 L 85.820312 45.039062 C 85.632812 44.722656 85.46875 44.386719 85.339844 44.042969 C 83.96875 40.96875 82.460938 37.953125 80.824219 35.011719 C 80.359375 34.238281 79.921875 33.445312 79.507812 32.644531 C 79.507812 32.59375 79.910156 32.550781 80.394531 32.550781 L 81.304688 32.550781 Z M 84.710938 32.730469 L 85.011719 32.730469 C 85.695312 32.730469 87.792969 32.863281 89.664062 33.007812 C 91.515625 33.160156 93.234375 33.324219 93.496094 33.378906 L 94.425781 33.5625 C 95.003906 33.695312 95.445312 34.402344 96.742188 37.179688 C 97.59375 39.046875 98.851562 42.367188 98.726562 42.457031 L 98.722656 42.460938 C 96.484375 42.808594 94.253906 43.207031 92.03125 43.648438 C 89.617188 44.152344 89.136719 44.152344 89.136719 43.613281 C 89.136719 43.226562 86.207031 37.207031 84.988281 35.09375 C 83.503906 32.554688 83.503906 32.738281 85.003906 32.738281 Z M 84.710938 32.730469 "/>
<path style=" stroke:none;fill-rule:nonzero;fill:rgb(100%,100%,100%);fill-opacity:1;" d="M 88.121094 56.027344 C 88.582031 57.15625 88.824219 58.363281 89.066406 60.898438 C 89.308594 63.609375 89.75 67.351562 90.011719 68.90625 C 90.121094 69.703125 90.4375 69.871094 90.4375 69.148438 C 90.4375 68.886719 90.304688 67.867188 90.160156 66.871094 C 89.949219 65.191406 89.761719 63.511719 89.601562 61.828125 C 89.488281 60.476562 89.324219 59.128906 89.117188 57.785156 C 88.882812 56.65625 88.449219 55.710938 88.191406 55.710938 C 88.058594 55.710938 88.042969 55.84375 88.117188 56.027344 Z M 92.105469 77.710938 C 92.105469 78.523438 94.699219 84.488281 95.550781 85.621094 C 96.128906 86.414062 95.976562 85.695312 95.308594 84.488281 C 94.34375 82.746094 93.519531 80.933594 92.839844 79.058594 C 92.417969 77.871094 92.105469 77.300781 92.105469 77.710938 Z M 92.105469 77.710938 "/>
<path style=" stroke:none;fill-rule:nonzero;fill:rgb(100%,100%,100%);fill-opacity:1;" d="M 70.183594 27.878906 C 84.824219 24.304688 100.28125 26.664062 113.191406 34.441406 C 121.382812 39.3125 128.890625 46.984375 133.539062 55.246094 C 138.578125 64.160156 141.046875 73.386719 141.046875 83.28125 C 141.0625 90.007812 140.191406 95.417969 138.132812 101.589844 L 138.132812 101.585938 C 136.179688 107.34375 133.347656 112.761719 129.738281 117.652344 C 126.761719 121.460938 123.402344 124.949219 119.710938 128.070312 C 110.574219 135.460938 99.996094 139.6875 87.9375 140.707031 C 75.097656 141.820312 60.898438 137.835938 50.335938 130.164062 C 37.902344 121.15625 29.675781 108.09375 27.078125 93.289062 C 24.285156 77.355469 28.621094 60.582031 38.828125 47.890625 C 40.402344 45.925781 44 42.199219 46.203125 40.257812 C 52.816406 34.417969 61.398438 29.988281 70.179688 27.878906 Z M 87.105469 30.84375 L 87.101562 30.84375 C 81.476562 30.492188 75.832031 31.023438 70.371094 32.417969 C 63.828125 34.117188 56.300781 37.789062 51.523438 41.605469 L 49.582031 43.144531 C 47.210938 44.980469 42.039062 50.652344 40.089844 53.558594 C 33.789062 62.957031 30.769531 72.738281 30.769531 83.667969 C 30.769531 92.453125 32.550781 99.804688 36.644531 107.816406 L 36.644531 107.820312 C 41.613281 117.542969 49.507812 125.460938 59.214844 130.457031 C 65.515625 133.703125 72.554688 135.738281 79.324219 136.273438 C 90.957031 137.203125 101.851562 134.5 112.136719 128.140625 C 116.882812 125.210938 122.957031 119.597656 125.996094 115.355469 C 131.667969 107.402344 134.800781 99.863281 136.128906 90.890625 C 136.613281 87.6875 136.632812 78.941406 136.148438 76.105469 C 134.484375 66.007812 130.292969 56.671875 124.347656 49.777344 C 123.769531 49.109375 123.050781 48.253906 122.75 47.902344 L 122.75 47.90625 C 120.921875 45.894531 118.933594 44.035156 116.800781 42.347656 C 111.339844 38.164062 107.167969 35.863281 100.902344 33.601562 C 96.660156 32.085938 92.507812 31.25 87.09375 30.84375 Z M 87.105469 30.84375 "/>
</g>
</svg>
