<?xml version="1.0" encoding="UTF-8"?>
<svg xmlns="http://www.w3.org/2000/svg" xmlns:xlink="http://www.w3.org/1999/xlink" width="168pt" height="168pt" viewBox="0 0 168 168" version="1.1">
<g id="surface1696">
<path style=" stroke:none;fill-rule:nonzero;fill:rgb(16.862745%,40%,50.196078%);fill-opacity:1;" d="M 84 168 C 130.390625 168 168 130.390625 168 84 C 168 37.609375 130.390625 0 84 0 C 37.609375 0 0 37.609375 0 84 C 0 130.390625 37.609375 168 84 168 Z M 84 168 "/>
<path style=" stroke:none;fill-rule:nonzero;fill:rgb(100%,100%,100%);fill-opacity:1;" d="M 26.25 84 C 26.210938 104.632812 37.179688 123.71875 55.027344 134.070312 C 72.875 144.417969 94.890625 144.460938 112.777344 134.179688 C 130.667969 123.898438 141.710938 104.855469 141.75 84.222656 L 141.75 83.78125 C 141.730469 79.335938 141.199219 74.90625 140.167969 70.582031 C 139.816406 68.957031 138.824219 67.539062 137.414062 66.652344 C 136.007812 65.769531 134.300781 65.484375 132.679688 65.871094 C 131.0625 66.257812 129.664062 67.277344 128.808594 68.703125 C 127.949219 70.128906 127.703125 71.839844 128.121094 73.453125 C 131.210938 86.359375 128.496094 99.972656 120.691406 110.707031 C 112.886719 121.441406 100.773438 128.222656 87.542969 129.265625 C 74.3125 130.304688 61.289062 125.503906 51.898438 116.121094 C 42.511719 106.738281 37.703125 93.71875 38.734375 80.484375 C 39.769531 67.253906 46.542969 55.136719 57.273438 47.328125 C 68.003906 39.515625 81.617188 36.792969 94.523438 39.878906 C 97.820312 40.59375 101.085938 38.539062 101.867188 35.257812 C 102.648438 31.976562 100.660156 28.671875 97.394531 27.828125 C 80.203125 23.726562 62.082031 27.722656 48.210938 38.671875 C 34.339844 49.625 26.246094 66.328125 26.25 84 "/>
<path style=" stroke:none;fill-rule:nonzero;fill:rgb(100%,100%,100%);fill-opacity:1;" d="M 113.191406 41.757812 C 113.105469 41.835938 113.054688 41.929688 112.972656 42.011719 L 112.972656 42.015625 C 111.566406 43.507812 110.699219 45.429688 110.519531 47.472656 L 110.519531 48.453125 C 110.519531 48.679688 110.46875 48.898438 110.445312 49.125 L 110.445312 49.128906 C 109.957031 54.078125 107.257812 58.542969 103.101562 61.28125 C 98.945312 64.015625 93.777344 64.726562 89.035156 63.21875 C 82.089844 61.527344 74.757812 63.441406 69.527344 68.3125 C 69.316406 68.507812 69.085938 68.675781 68.878906 68.882812 C 63.480469 74.28125 61.371094 82.148438 63.347656 89.523438 C 65.324219 96.894531 71.082031 102.65625 78.457031 104.632812 C 85.832031 106.609375 93.699219 104.5 99.097656 99.101562 C 99.980469 98.207031 100.78125 97.230469 101.492188 96.1875 C 104.980469 91.191406 106.171875 84.945312 104.761719 79.015625 C 104.640625 78.632812 104.535156 78.242188 104.445312 77.851562 C 104.445312 77.792969 104.410156 77.738281 104.394531 77.679688 C 103.320312 73.015625 104.320312 68.117188 107.140625 64.25 C 109.960938 60.382812 114.320312 57.929688 119.089844 57.53125 C 119.210938 57.53125 119.332031 57.496094 119.453125 57.492188 C 119.800781 57.492188 120.148438 57.453125 120.496094 57.453125 L 120.582031 57.453125 L 120.582031 57.449219 C 122.71875 57.253906 124.714844 56.316406 126.226562 54.796875 C 126.585938 54.425781 126.914062 54.023438 127.207031 53.601562 L 127.207031 53.597656 C 129.957031 49.699219 129.269531 44.339844 125.625 41.261719 C 121.976562 38.179688 116.578125 38.398438 113.195312 41.765625 "/>
</g>
</svg>
