<?xml version="1.0" encoding="UTF-8"?>
<svg xmlns="http://www.w3.org/2000/svg" xmlns:xlink="http://www.w3.org/1999/xlink" width="168pt" height="168pt" viewBox="0 0 168 168" version="1.1">
<g id="surface1521">
<path style=" stroke:none;fill-rule:nonzero;fill:rgb(19.215686%,79.607843%,61.960784%);fill-opacity:1;" d="M 168 84 C 168 130.390625 130.390625 168 84 168 C 37.609375 168 0 130.390625 0 84 C 0 37.609375 37.609375 0 84 0 C 130.390625 0 168 37.609375 168 84 "/>
<path style=" stroke:none;fill-rule:nonzero;fill:rgb(100%,100%,100%);fill-opacity:1;" d="M 78.367188 84.851562 L 118.898438 108.074219 L 118.898438 108.070312 C 119.5625 108.46875 120.390625 108.480469 121.0625 108.09375 C 121.734375 107.710938 122.148438 106.992188 122.140625 106.21875 L 122.140625 63.453125 C 122.152344 62.675781 121.738281 61.953125 121.0625 61.570312 C 120.386719 61.191406 119.558594 61.207031 118.898438 61.613281 Z M 118.042969 51.339844 L 90.332031 30.960938 C 89.75 30.511719 88.980469 30.382812 88.285156 30.617188 C 87.589844 30.851562 87.054688 31.417969 86.859375 32.125 L 76.742188 77.523438 L 117.796875 54.828125 L 117.800781 54.824219 C 118.433594 54.496094 118.847656 53.863281 118.898438 53.152344 C 118.945312 52.4375 118.621094 51.753906 118.039062 51.339844 M 90.300781 138.726562 L 118.042969 118.347656 L 118.039062 118.34375 C 118.632812 117.929688 118.964844 117.234375 118.917969 116.515625 C 118.871094 115.792969 118.449219 115.148438 117.808594 114.8125 L 76.742188 92.117188 L 86.859375 137.515625 L 86.859375 137.511719 C 87.03125 138.230469 87.550781 138.8125 88.242188 139.066406 C 88.9375 139.316406 89.710938 139.203125 90.300781 138.761719 "/>
<path style=" stroke:none;fill-rule:nonzero;fill:rgb(100%,100%,100%);fill-opacity:1;" d="M 67.828125 84.011719 L 78.363281 34.71875 L 78.367188 34.71875 C 78.53125 33.882812 78.175781 33.027344 77.460938 32.5625 C 76.746094 32.097656 75.820312 32.109375 75.121094 32.597656 L 48.125 53.296875 C 46.738281 54.363281 45.929688 56.011719 45.9375 57.761719 L 45.9375 110.292969 C 45.910156 112.0625 46.726562 113.738281 48.125 114.8125 L 74.988281 135.457031 L 74.992188 135.457031 C 75.691406 135.945312 76.617188 135.957031 77.332031 135.488281 C 78.046875 135.023438 78.40625 134.167969 78.234375 133.328125 L 67.824219 84.007812 Z M 67.828125 84.011719 "/>
</g>
</svg>
