<?xml version="1.0" encoding="UTF-8"?>
<svg xmlns="http://www.w3.org/2000/svg" xmlns:xlink="http://www.w3.org/1999/xlink" width="168pt" height="168pt" viewBox="0 0 168 168" version="1.1">
<g id="surface941">
<path style=" stroke:none;fill-rule:nonzero;fill:rgb(0%,68.235294%,93.72549%);fill-opacity:1;" d="M 168 84 C 168 130.390625 130.390625 168 84 168 C 37.609375 168 0 130.390625 0 84 C 0 37.609375 37.609375 0 84 0 C 130.390625 0 168 37.609375 168 84 "/>
<path style=" stroke:none;fill-rule:nonzero;fill:rgb(100%,100%,100%);fill-opacity:1;" d="M 82.738281 77.207031 C 83.988281 76.992188 85.089844 76.523438 86.054688 75.816406 C 87.019531 75.109375 87.933594 73.910156 88.789062 72.273438 L 107.820312 35.589844 C 108.566406 34.363281 109.480469 33.386719 110.53125 32.617188 L 110.535156 32.617188 C 111.613281 31.871094 112.898438 31.480469 114.207031 31.5 L 126.277344 31.5 L 102.578125 74.644531 C 101.527344 76.417969 100.335938 77.863281 99.007812 78.980469 C 97.683594 80.085938 96.167969 80.941406 94.542969 81.515625 C 97.082031 82.171875 99.210938 83.238281 100.949219 84.734375 C 102.660156 86.203125 104.292969 88.285156 105.8125 90.957031 L 128.625 136.5 L 115.34375 136.5 C 112.660156 136.5 110.503906 135.054688 108.875 132.195312 L 90.175781 93.601562 C 89.210938 91.878906 88.160156 90.65625 87.027344 89.917969 C 85.898438 89.183594 84.460938 88.746094 82.75 88.636719 L 82.75 108.21875 L 72.308594 108.21875 L 72.308594 88.550781 L 64.628906 88.550781 L 64.628906 136.5 L 49.875 136.5 L 49.875 31.5 L 64.628906 31.5 L 64.628906 77.375 L 72.304688 77.375 L 72.304688 54.683594 L 82.746094 54.683594 L 82.746094 77.207031 Z M 82.738281 77.207031 "/>
</g>
</svg>
