<?xml version="1.0" encoding="UTF-8"?>
<svg xmlns="http://www.w3.org/2000/svg" xmlns:xlink="http://www.w3.org/1999/xlink" width="168pt" height="168pt" viewBox="0 0 168 168" version="1.1">
<g id="surface601">
<path style=" stroke:none;fill-rule:nonzero;fill:rgb(0%,0%,0%);fill-opacity:1;" d="M 168 84 C 168 130.390625 130.390625 168 84 168 C 37.609375 168 0 130.390625 0 84 C 0 37.609375 37.609375 0 84 0 C 130.390625 0 168 37.609375 168 84 "/>
<path style=" stroke:none;fill-rule:nonzero;fill:rgb(100%,100%,100%);fill-opacity:1;" d="M 135.695312 49.601562 C 133.804688 48.171875 131.542969 46.226562 127.421875 45.738281 C 123.558594 45.25 119.621094 47.722656 116.957031 49.359375 C 114.296875 50.992188 109.265625 55.800781 107.1875 57.261719 C 105.109375 58.726562 99.785156 60.085938 91.21875 64.996094 C 82.652344 69.902344 49.035156 90.511719 49.035156 90.511719 L 57.785156 90.617188 L 18.777344 109.804688 L 22.671875 109.804688 L 17.058594 113.878906 C 17.058594 113.878906 22.015625 115.132812 26.171875 112.625 L 26.171875 113.773438 C 26.171875 113.773438 72.617188 96.289062 81.589844 100.820312 L 76.121094 102.347656 C 76.59375 102.347656 85.414062 102.910156 85.414062 102.910156 C 85.414062 102.910156 85.707031 108.164062 91.03125 111.542969 C 96.355469 114.886719 96.464844 116.734375 96.464844 116.734375 C 96.464844 116.734375 93.691406 117.8125 93.691406 119.171875 C 93.691406 119.171875 97.777344 117.984375 101.566406 118.089844 C 105.355469 118.195312 108.675781 119.171875 108.675781 119.171875 C 108.675781 119.171875 108.386719 117.707031 104.703125 116.734375 C 100.984375 115.722656 97.378906 111.925781 95.589844 109.835938 L 95.59375 109.835938 C 93.378906 107.171875 92.804688 103.507812 94.101562 100.296875 C 95.378906 97.132812 99.824219 95.386719 109.011719 90.863281 C 119.835938 85.496094 122.320312 81.527344 123.847656 78.429688 C 125.378906 75.332031 127.636719 69.167969 128.917969 66.277344 C 130.519531 62.550781 132.488281 60.566406 134.132812 59.382812 C 135.734375 58.195312 143.0625 55.585938 143.0625 55.585938 C 143.0625 55.585938 137.480469 50.957031 135.695312 49.601562 Z M 135.695312 49.601562 "/>
</g>
</svg>
