<?xml version="1.0" encoding="UTF-8"?>
<svg xmlns="http://www.w3.org/2000/svg" xmlns:xlink="http://www.w3.org/1999/xlink" width="168pt" height="168pt" viewBox="0 0 168 168" version="1.1">
<g id="surface6">
<path style=" stroke:none;fill-rule:evenodd;fill:rgb(0%,38.039216%,28.627451%);fill-opacity:1;" d="M 168 84 C 168 130.390625 130.390625 168 84 168 C 37.609375 168 0 130.390625 0 84 C 0 37.609375 37.609375 0 84 0 C 130.390625 0 168 37.609375 168 84 "/>
<path style=" stroke:none;fill-rule:nonzero;fill:rgb(100%,100%,100%);fill-opacity:1;" d="M 126.925781 90.214844 L 122.742188 89.171875 L 124.011719 84.078125 L 137.058594 87.339844 L 133.804688 100.386719 L 128.707031 99.117188 L 129.835938 94.589844 L 83.257812 123.429688 L 31.601562 97.621094 L 31.601562 77.921875 L 85.277344 44.351562 L 134.496094 68.359375 L 134.496094 76.464844 L 83.261719 108.296875 L 45.214844 89.433594 L 47.546875 84.730469 L 82.980469 102.296875 L 129.25 73.546875 L 129.25 71.640625 L 85.589844 50.347656 L 36.855469 80.828125 L 36.855469 94.375 L 82.988281 117.421875 Z M 126.925781 90.214844 "/>
</g>
</svg>
