<?xml version="1.0" encoding="UTF-8"?>
<svg xmlns="http://www.w3.org/2000/svg" xmlns:xlink="http://www.w3.org/1999/xlink" width="168pt" height="168pt" viewBox="0 0 168 168" version="1.1">
<g id="surface36">
<path style=" stroke:none;fill-rule:nonzero;fill:rgb(5.882353%,66.27451%,78.823529%);fill-opacity:1;" d="M 168 84 C 168 130.390625 130.390625 168 84 168 C 37.609375 168 0 130.390625 0 84 C 0 37.609375 37.609375 0 84 0 C 130.390625 0 168 37.609375 168 84 "/>
<path style=" stroke:none;fill-rule:nonzero;fill:rgb(100%,100%,100%);fill-opacity:1;" d="M 90.023438 107.339844 L 61.410156 136.5 L 53.25 127.546875 L 73.078125 107.335938 L 52.5 86.371094 L 61.285156 77.414062 Z M 106.71875 90.585938 L 115.5 81.632812 L 94.921875 60.660156 L 114.75 40.453125 L 106.589844 31.5 L 77.851562 60.660156 Z M 64.929688 73.960938 L 93.792969 103.886719 L 102.578125 94.933594 L 73.714844 65.519531 Z M 64.929688 73.960938 "/>
</g>
</svg>
