<?xml version="1.0" encoding="UTF-8"?>
<svg xmlns="http://www.w3.org/2000/svg" xmlns:xlink="http://www.w3.org/1999/xlink" width="168pt" height="168pt" viewBox="0 0 168 168" version="1.1">
<g id="surface131">
<path style=" stroke:none;fill-rule:nonzero;fill:rgb(6.666667%,0.784314%,11.764706%);fill-opacity:1;" d="M 168 84 C 168 130.390625 130.390625 168 84 168 C 37.609375 168 0 130.390625 0 84 C 0 37.609375 37.609375 0 84 0 C 130.390625 0 168 37.609375 168 84 "/>
<path style=" stroke:none;fill-rule:nonzero;fill:rgb(100%,100%,100%);fill-opacity:1;" d="M 57.378906 75.421875 L 57.429688 75.421875 L 58.234375 75.726562 L 59.089844 76.027344 L 59.894531 76.332031 L 60.75 76.683594 L 61.554688 76.988281 L 62.410156 77.234375 L 63.21875 77.539062 L 64.023438 77.890625 L 65.636719 78.496094 L 66.492188 78.75 L 67.296875 79.101562 L 68.152344 79.40625 L 68.960938 79.707031 L 69.816406 80.011719 L 70.621094 80.3125 L 71.476562 80.617188 L 72.28125 80.917969 L 73.136719 81.222656 L 73.945312 81.574219 L 74.800781 81.828125 L 74.792969 70.085938 L 56.21875 70.085938 L 55.414062 70.488281 L 53.503906 71.496094 L 51.539062 72.5 L 49.628906 73.507812 L 47.710938 74.515625 L 45.746094 75.523438 L 43.789062 76.527344 L 41.871094 77.535156 L 39.960938 78.542969 L 37.996094 79.546875 L 36.085938 80.554688 L 34.320312 81.511719 L 34.125 110.355469 L 36.089844 111.714844 L 38 113.074219 L 39.964844 114.382812 L 43.792969 117.101562 L 45.75 118.457031 L 46.605469 119.113281 L 47.714844 117.753906 L 49.632812 115.234375 L 49.78125 114.988281 L 49.632812 114.835938 L 47.714844 113.476562 L 45.75 112.070312 L 43.792969 110.710938 L 41.875 109.351562 L 39.964844 107.996094 L 39.414062 107.640625 L 39.5625 84.339844 L 39.964844 84.140625 L 41.875 83.183594 L 43.792969 82.175781 L 45.75 81.265625 L 47.714844 80.261719 L 49.632812 79.300781 L 51.542969 78.34375 L 53.507812 77.386719 L 55.417969 76.429688 Z M 57.378906 75.421875 "/>
<path style=" stroke:none;fill-rule:nonzero;fill:rgb(100%,100%,100%);fill-opacity:1;" d="M 90.695312 130.476562 L 89.03125 131.132812 L 87.21875 131.835938 L 85.40625 132.59375 L 83.59375 133.296875 L 82.789062 133.648438 L 81.832031 133.148438 L 80.015625 132.238281 L 78.257812 131.328125 L 76.445312 130.425781 L 74.632812 129.515625 L 72.820312 128.613281 L 71.007812 127.703125 L 69.191406 126.746094 L 67.378906 125.890625 L 65.621094 124.933594 L 63.808594 124.023438 L 62.042969 123.171875 L 60.230469 122.210938 L 60.03125 122.109375 L 60.03125 98.609375 L 54.796875 98.609375 L 54.796875 125.332031 L 62.042969 128.953125 L 63.808594 129.855469 L 65.621094 130.816406 L 67.378906 131.671875 L 69.191406 132.628906 L 71.007812 133.53125 L 72.820312 134.386719 L 74.632812 135.34375 L 78.253906 137.15625 L 80.011719 138.066406 L 82.53125 139.328125 L 83.585938 138.871094 L 87.210938 137.464844 L 90.835938 135.949219 L 92.652344 135.296875 L 90.835938 130.765625 Z M 122.851562 97.714844 L 122.957031 108.835938 L 122.453125 109.191406 L 119.382812 111.355469 L 116.363281 113.570312 L 113.292969 115.734375 L 110.222656 117.949219 L 107.105469 120.058594 L 104.085938 122.273438 L 101.015625 124.488281 L 99.203125 125.796875 L 97.941406 124.789062 L 94.921875 122.480469 L 91.851562 120.113281 L 88.78125 117.796875 L 85.761719 115.433594 L 85.210938 115.078125 L 85.210938 103.109375 L 85.761719 102.605469 L 88.78125 99.382812 L 91.851562 96.210938 L 94.921875 92.992188 L 97.941406 89.820312 L 100.914062 86.703125 L 64.328125 86.703125 L 67.394531 89.921875 L 70.417969 93.09375 L 73.535156 96.265625 L 76.605469 99.484375 L 79.625 102.65625 L 80.023438 103.113281 L 80.023438 117.601562 L 82.695312 119.664062 L 85.761719 121.980469 L 88.78125 124.347656 L 91.851562 126.65625 L 94.921875 129.023438 L 97.941406 131.339844 L 99.097656 132.25 L 101.015625 130.84375 L 104.085938 128.675781 L 107.105469 126.464844 L 110.222656 124.296875 L 116.363281 119.96875 L 119.382812 117.753906 L 122.453125 115.589844 L 125.519531 113.425781 L 128.039062 111.5625 L 128.539062 97.921875 L 125.519531 97.820312 Z M 39.105469 72 L 39.457031 72 L 39.507812 57.207031 L 41.519531 55.945312 L 43.933594 54.492188 L 46.402344 53.03125 L 48.765625 51.464844 L 51.234375 50.003906 L 53.648438 48.496094 L 58.476562 45.574219 L 60.890625 44.0625 L 63.359375 42.601562 L 63.410156 42.550781 L 65.726562 43.914062 L 68.195312 45.269531 L 73.023438 48.089844 L 75.4375 49.449219 L 77.90625 50.808594 L 80.269531 52.214844 L 82.636719 53.527344 L 82.742188 53.324219 L 85.15625 49 L 82.742188 47.585938 L 80.273438 46.226562 L 77.90625 44.871094 L 75.4375 43.507812 L 73.023438 42.054688 L 68.195312 39.335938 L 65.726562 37.976562 L 63.363281 36.617188 L 63.257812 36.566406 L 60.894531 37.984375 L 58.480469 39.492188 L 56.066406 40.953125 L 53.652344 42.460938 L 51.238281 43.921875 L 48.769531 45.382812 L 46.402344 46.894531 L 43.933594 48.355469 L 41.519531 49.867188 L 39.105469 51.375 L 36.691406 52.835938 L 34.328125 54.296875 L 34.222656 71.964844 L 36.691406 71.964844 Z M 39.105469 72 "/>
<path style=" stroke:none;fill-rule:nonzero;fill:rgb(100%,100%,100%);fill-opacity:1;" d="M 133.71875 58.410156 L 132.511719 57.453125 L 131.210938 56.398438 L 128.6875 54.382812 L 127.425781 53.332031 L 126.164062 52.371094 L 124.863281 51.363281 L 123.601562 50.308594 L 122.289062 49.300781 L 121.386719 48.542969 L 121.035156 48.945312 L 119.773438 50.503906 L 118.464844 52.117188 L 118.164062 52.570312 L 118.464844 52.921875 L 119.777344 53.980469 L 121.039062 54.984375 L 122.292969 56.09375 L 123.601562 57.152344 L 124.863281 58.203125 L 126.171875 59.316406 L 127.433594 60.371094 L 128.039062 60.875 L 128.089844 84.679688 L 127.433594 85.082031 L 126.171875 85.9375 L 124.859375 86.695312 L 123.605469 87.550781 L 122.292969 88.300781 L 121.039062 89.15625 L 119.777344 89.914062 L 118.46875 90.769531 L 117.207031 91.527344 L 115.945312 92.382812 L 114.691406 93.140625 L 113.429688 93.996094 L 112.121094 94.746094 L 110.859375 95.601562 L 109.605469 96.359375 L 108.34375 97.214844 L 107.035156 97.972656 L 108.347656 99.984375 L 109.609375 102.046875 L 109.855469 102.398438 L 110.863281 101.746094 L 112.125 100.9375 L 113.433594 100.1875 L 114.695312 99.378906 L 115.949219 98.574219 L 117.210938 97.769531 L 118.472656 97.011719 L 119.773438 96.203125 L 121.035156 95.453125 L 122.296875 94.644531 L 123.605469 93.839844 L 124.867188 93.03125 L 126.175781 92.28125 L 127.4375 91.472656 L 128.699219 90.722656 L 129.953125 89.914062 L 131.214844 89.109375 L 132.523438 88.300781 L 133.785156 87.550781 Z M 92.253906 72.605469 L 92.253906 82.921875 L 92.65625 82.765625 L 94.316406 82.066406 L 96.027344 81.410156 L 97.6875 80.707031 L 99.398438 80.050781 L 101.109375 79.347656 L 102.769531 78.644531 L 104.480469 77.988281 L 106.191406 77.285156 L 107.855469 76.628906 L 109.5625 75.925781 L 111.226562 75.273438 L 111.226562 44.070312 L 109.316406 42.914062 L 107.351562 41.804688 L 105.433594 40.648438 L 103.476562 39.488281 L 101.511719 38.378906 L 99.546875 37.222656 L 97.636719 36.0625 L 95.71875 34.960938 L 93.753906 33.800781 L 91.796875 32.644531 L 89.832031 31.53125 L 87.914062 30.375 L 86.003906 29.21875 L 84.039062 28.105469 L 83.035156 27.554688 L 82.078125 28.007812 L 80.113281 29.117188 L 78.195312 30.125 L 76.285156 31.179688 L 74.320312 32.289062 L 72.355469 33.296875 L 70.398438 34.351562 L 72.355469 35.507812 L 74.320312 36.617188 L 75.527344 37.324219 L 76.285156 36.972656 L 78.195312 35.914062 L 80.113281 34.910156 L 82.078125 33.902344 L 82.882812 33.5 L 84.039062 34.15625 L 86.003906 35.3125 L 89.832031 37.527344 L 93.753906 39.84375 L 95.71875 40.945312 L 99.546875 43.265625 L 101.511719 44.367188 L 105.433594 46.6875 L 106.039062 46.988281 L 106.039062 69.988281 L 92.300781 69.988281 "/>
<path style=" stroke:none;fill-rule:nonzero;fill:rgb(100%,100%,100%);fill-opacity:1;" d="M 92.253906 82.921875 L 111.226562 75.273438 L 92.199219 69.988281 M 74.789062 82.925781 L 74.789062 70.1875 L 57.421875 75.375 L 74.789062 82.871094 "/>
</g>
</svg>
