<?xml version="1.0" encoding="UTF-8"?>
<svg xmlns="http://www.w3.org/2000/svg" xmlns:xlink="http://www.w3.org/1999/xlink" width="168pt" height="168pt" viewBox="0 0 168 168" version="1.1">
<g id="surface1756">
<path style=" stroke:none;fill-rule:nonzero;fill:rgb(16.470588%,35.294118%,85.490196%);fill-opacity:1;" d="M 168 84 C 168 130.390625 130.390625 168 84 168 C 37.609375 168 0 130.390625 0 84 C 0 37.609375 37.609375 0 84 0 C 130.390625 0 168 37.609375 168 84 "/>
<path style=" stroke:none;fill-rule:nonzero;fill:rgb(100%,100%,100%);fill-opacity:1;" d="M 84 31.5 L 74.554688 37.039062 L 48.824219 52.210938 L 39.375 57.75 L 39.375 110.25 L 48.820312 115.789062 L 74.792969 130.960938 L 84.234375 136.5 L 93.679688 130.960938 L 119.179688 115.789062 L 128.625 110.25 L 128.625 57.75 L 119.179688 52.210938 L 93.445312 37.039062 Z M 58.265625 99.171875 L 58.265625 68.828125 L 84 53.65625 L 109.734375 68.828125 L 109.734375 99.171875 L 84 114.34375 Z M 58.265625 99.171875 "/>
</g>
</svg>
