<?xml version="1.0" encoding="UTF-8"?>
<svg xmlns="http://www.w3.org/2000/svg" xmlns:xlink="http://www.w3.org/1999/xlink" width="168pt" height="168pt" viewBox="0 0 168 168" version="1.1">
<g id="surface171">
<path style=" stroke:none;fill-rule:evenodd;fill:rgb(61.568627%,0.392157%,92.156863%);fill-opacity:1;" d="M 168 84 C 168 130.390625 130.390625 168 84 168 C 37.609375 168 0 130.390625 0 84 C 0 37.609375 37.609375 0 84 0 C 130.390625 0 168 37.609375 168 84 "/>
<path style=" stroke:none;fill-rule:nonzero;fill:rgb(100%,100%,100%);fill-opacity:1;" d="M 52.527344 136.5 L 52.527344 117.304688 L 84 85.261719 L 115.375 117.3125 L 115.375 136.5 L 84 104.445312 Z M 26.25 71.574219 L 70.710938 71.574219 L 84 85.261719 L 39.539062 85.261719 Z M 141.75 71.574219 L 128.460938 85.253906 L 84 85.253906 L 84 26.25 L 97.289062 39.828125 L 97.289062 71.574219 Z M 141.75 71.574219 "/>
</g>
</svg>
