<?xml version="1.0" encoding="UTF-8"?>
<svg xmlns="http://www.w3.org/2000/svg" xmlns:xlink="http://www.w3.org/1999/xlink" width="168pt" height="168pt" viewBox="0 0 168 168" version="1.1">
<g id="surface931">
<path style=" stroke:none;fill-rule:nonzero;fill:rgb(28.235294%,74.509804%,100%);fill-opacity:1;" d="M 168 84 C 168 130.390625 130.390625 168 84 168 C 37.609375 168 0 130.390625 0 84 C 0 37.609375 37.609375 0 84 0 C 130.390625 0 168 37.609375 168 84 "/>
<path style=" stroke:none;fill-rule:nonzero;fill:rgb(100%,100%,100%);fill-opacity:1;" d="M 116.519531 137.753906 L 30.503906 77.40625 C 24.554688 73.230469 21.011719 66.421875 21.011719 59.15625 C 21.011719 51.886719 24.554688 45.078125 30.503906 40.902344 L 51.34375 26.25 L 137.371094 86.59375 C 143.320312 90.765625 146.859375 97.578125 146.859375 104.84375 C 146.859375 112.113281 143.320312 118.921875 137.371094 123.097656 Z M 51.324219 36.03125 L 35.085938 47.390625 C 31.253906 50.074219 28.96875 54.457031 28.96875 59.132812 C 28.96875 63.8125 31.253906 68.195312 35.085938 70.875 L 116.535156 127.980469 L 132.777344 116.621094 L 132.777344 116.617188 C 136.613281 113.9375 138.894531 109.554688 138.894531 104.875 C 138.894531 100.199219 136.613281 95.816406 132.777344 93.136719 Z M 51.324219 36.03125 "/>
<path style=" stroke:none;fill-rule:nonzero;fill:rgb(100%,100%,100%);fill-opacity:1;" d="M 51.253906 127.980469 L 35.03125 116.605469 L 35.035156 116.601562 C 31.199219 113.921875 28.914062 109.539062 28.914062 104.859375 C 28.914062 100.183594 31.199219 95.800781 35.035156 93.121094 L 77.035156 63.808594 L 70.105469 58.9375 L 30.5 86.59375 L 30.496094 86.59375 C 24.550781 90.765625 21.007812 97.578125 21.007812 104.84375 C 21.007812 112.113281 24.550781 118.921875 30.496094 123.097656 L 51.269531 137.6875 L 76.980469 119.683594 L 70.082031 114.820312 L 51.253906 127.976562 Z M 137.390625 40.933594 L 116.601562 26.355469 L 90.875 44.359375 L 97.773438 49.214844 L 116.570312 36.0625 L 132.792969 47.4375 C 136.628906 50.121094 138.910156 54.503906 138.910156 59.179688 C 138.910156 63.859375 136.628906 68.242188 132.792969 70.921875 L 90.792969 100.226562 L 97.695312 105.089844 L 137.355469 77.386719 C 143.304688 73.210938 146.84375 66.398438 146.84375 59.132812 C 146.84375 51.867188 143.304688 45.054688 137.355469 40.882812 L 137.398438 40.933594 Z M 137.390625 40.933594 "/>
<path style=" stroke:none;fill-rule:nonzero;fill:rgb(100%,100%,100%);fill-opacity:1;" d="M 35.417969 83.101562 L 68.125 60.199219 L 72.683594 66.710938 L 39.972656 89.613281 Z M 128.605469 73.871094 L 112.671875 85.027344 L 117.230469 91.542969 L 133.726562 79.972656 C 131.972656 77.96875 130.277344 75.917969 128.578125 73.867188 L 128.609375 73.871094 Z M 128.605469 73.871094 "/>
</g>
</svg>
