<?xml version="1.0" encoding="UTF-8"?>
<svg xmlns="http://www.w3.org/2000/svg" xmlns:xlink="http://www.w3.org/1999/xlink" width="168pt" height="168pt" viewBox="0 0 168 168" version="1.1">
<g id="surface1076">
<path style=" stroke:none;fill-rule:nonzero;fill:rgb(0%,0%,0%);fill-opacity:1;" d="M 168 84 C 168 130.390625 130.390625 168 84 168 C 37.609375 168 0 130.390625 0 84 C 0 37.609375 37.609375 0 84 0 C 130.390625 0 168 37.609375 168 84 "/>
<path style=" stroke:none;fill-rule:evenodd;fill:rgb(100%,100%,100%);fill-opacity:1;" d="M 74.679688 123.285156 L 93.097656 123.285156 L 93.097656 141.703125 L 74.679688 141.703125 Z M 74.679688 42 L 93.097656 42 L 93.097656 60.417969 L 74.679688 60.417969 Z M 118.082031 42 L 136.5 42 L 136.5 60.417969 L 118.082031 60.417969 Z M 31.5 42 L 49.917969 42 L 49.917969 60.417969 L 31.5 60.417969 Z M 96.378906 82.644531 L 114.796875 82.644531 L 114.796875 101.0625 L 96.378906 101.0625 Z M 52.933594 82.644531 L 71.351562 82.644531 L 71.351562 101.0625 L 52.933594 101.0625 Z M 52.933594 82.644531 "/>
</g>
</svg>
