<?xml version="1.0" encoding="UTF-8"?>
<svg xmlns="http://www.w3.org/2000/svg" xmlns:xlink="http://www.w3.org/1999/xlink" width="168pt" height="168pt" viewBox="0 0 168 168" version="1.1">
<g id="surface1646">
<path style=" stroke:none;fill-rule:nonzero;fill:rgb(5.098039%,30.588235%,62.745098%);fill-opacity:1;" d="M 168 84 C 168 130.390625 130.390625 168 84 168 C 37.609375 168 0 130.390625 0 84 C 0 37.609375 37.609375 0 84 0 C 130.390625 0 168 37.609375 168 84 "/>
<path style=" stroke:none;fill-rule:nonzero;fill:rgb(100%,100%,100%);fill-opacity:1;" d="M 74.808594 131.03125 C 74.734375 131.105469 74.589844 131.179688 74.515625 131.25 L 66.367188 131.25 C 66.21875 131.25 66.148438 131.175781 66.074219 131.101562 L 42.050781 103.972656 C 41.980469 103.835938 41.980469 103.671875 42.050781 103.535156 L 71.964844 51.902344 C 72.113281 51.6875 72.472656 51.6875 72.621094 51.902344 L 80.988281 66.382812 C 81.0625 66.457031 81.0625 66.601562 80.988281 66.75 L 60.753906 101.636719 C 60.679688 101.777344 60.753906 101.925781 60.828125 102.074219 L 72.910156 115.675781 L 72.910156 115.671875 C 72.992188 115.75 73.09375 115.800781 73.207031 115.820312 L 87.472656 115.820312 C 87.839844 115.820312 87.980469 116.1875 87.761719 116.402344 Z M 83.679688 31.722656 C 83.832031 31.429688 84.195312 31.429688 84.269531 31.722656 L 125.96875 103.386719 C 126.042969 103.539062 125.96875 103.6875 125.894531 103.828125 L 101.882812 130.960938 L 101.882812 130.957031 C 101.800781 131.035156 101.699219 131.085938 101.585938 131.101562 L 82.082031 131.101562 C 81.714844 131.101562 81.574219 130.734375 81.792969 130.519531 L 94.816406 115.746094 L 107.042969 101.996094 C 107.191406 101.847656 107.191406 101.703125 107.117188 101.558594 L 83.96875 61.628906 L 75.238281 46.5625 C 75.164062 46.496094 75.164062 46.347656 75.238281 46.195312 Z M 83.679688 31.722656 "/>
</g>
</svg>
