<?xml version="1.0" encoding="UTF-8"?>
<svg xmlns="http://www.w3.org/2000/svg" xmlns:xlink="http://www.w3.org/1999/xlink" width="168pt" height="168pt" viewBox="0 0 168 168" version="1.1">
<g id="surface1066">
<path style=" stroke:none;fill-rule:nonzero;fill:rgb(96.078431%,34.117647%,28.627451%);fill-opacity:1;" d="M 168 84 C 168 130.390625 130.390625 168 84 168 C 37.609375 168 0 130.390625 0 84 C 0 37.609375 37.609375 0 84 0 C 130.390625 0 168 37.609375 168 84 "/>
<path style=" stroke:none;fill-rule:nonzero;fill:rgb(100%,100%,100%);fill-opacity:1;" d="M 83.019531 31.753906 C 83.625 31.414062 84.363281 31.414062 84.972656 31.753906 L 128.152344 56 L 128.152344 55.996094 C 128.753906 56.328125 129.125 56.960938 129.128906 57.644531 C 129.128906 58.328125 128.761719 58.957031 128.15625 59.292969 L 90.59375 80.472656 C 89.269531 78.964844 87.464844 77.964844 85.484375 77.636719 L 85.484375 66.125 C 89.554688 65.449219 92.65625 62.003906 92.65625 57.839844 C 92.65625 53.195312 88.792969 49.425781 84.019531 49.425781 C 79.246094 49.425781 75.382812 53.195312 75.382812 57.839844 C 75.382812 61.976562 78.453125 65.410156 82.492188 66.113281 L 82.492188 77.652344 C 80.542969 77.988281 78.761719 78.980469 77.453125 80.464844 L 39.894531 59.378906 C 39.292969 59.046875 38.917969 58.417969 38.914062 57.730469 C 38.914062 57.042969 39.289062 56.410156 39.890625 56.082031 L 83.023438 31.769531 M 128.277344 62.308594 C 128.882812 61.964844 129.625 61.960938 130.230469 62.300781 C 130.832031 62.632812 131.207031 63.265625 131.214844 63.949219 L 131.25 111.023438 C 131.25 111.707031 130.882812 112.332031 130.273438 112.671875 L 88.457031 136.246094 C 87.160156 136.980469 85.53125 136.0625 85.53125 134.597656 L 85.496094 94.210938 C 87.523438 93.875 89.359375 92.839844 90.679688 91.296875 L 101.128906 97.152344 L 101.125 97.144531 C 100.835938 98.21875 100.769531 99.34375 100.929688 100.441406 C 101.589844 105.046875 105.964844 108.25 110.683594 107.601562 C 115.410156 106.949219 118.695312 102.691406 118.035156 98.089844 C 117.375 93.484375 112.996094 90.28125 108.277344 90.933594 C 105.90625 91.253906 103.773438 92.539062 102.386719 94.488281 L 92.148438 88.75 C 92.882812 86.800781 92.832031 84.65625 92.015625 82.738281 L 128.28125 62.292969 M 36.789062 63.941406 C 36.789062 62.828125 37.722656 62.035156 38.742188 62.035156 C 39.082031 62.035156 39.425781 62.125 39.71875 62.296875 L 76.023438 82.761719 C 75.21875 84.671875 75.179688 86.804688 75.902344 88.746094 L 65.671875 94.484375 L 65.671875 94.488281 C 64.285156 92.539062 62.152344 91.253906 59.78125 90.933594 C 55.054688 90.28125 50.695312 93.492188 50.027344 98.089844 C 49.359375 102.6875 52.652344 106.945312 57.378906 107.597656 C 62.105469 108.25 66.460938 105.039062 67.132812 100.441406 C 67.292969 99.339844 67.226562 98.21875 66.9375 97.140625 L 77.378906 91.285156 C 78.6875 92.816406 80.503906 93.847656 82.507812 94.195312 L 82.476562 134.59375 C 82.476562 136.058594 80.847656 136.972656 79.546875 136.238281 L 37.726562 112.664062 C 37.125 112.332031 36.753906 111.703125 36.75 111.015625 L 36.792969 63.945312 "/>
</g>
</svg>
