<?xml version="1.0" encoding="UTF-8"?>
<svg xmlns="http://www.w3.org/2000/svg" xmlns:xlink="http://www.w3.org/1999/xlink" width="168pt" height="168pt" viewBox="0 0 168 168" version="1.1">
<g id="surface1516">
<path style=" stroke:none;fill-rule:evenodd;fill:rgb(33.333333%,57.254902%,84.313725%);fill-opacity:1;" d="M 168 84 C 168 130.390625 130.390625 168 84 168 C 37.609375 168 0 130.390625 0 84 C 0 37.609375 37.609375 0 84 0 C 130.390625 0 168 37.609375 168 84 "/>
<path style=" stroke:none;fill-rule:nonzero;fill:rgb(100%,100%,100%);fill-opacity:1;" d="M 106.292969 66.5 L 106.292969 134.609375 L 48.773438 101.5 C 31.761719 91.539062 32.84375 85.347656 32.84375 71.890625 L 91.972656 106.078125 L 91.972656 74.847656 L 106.285156 66.5 Z M 106.292969 66.5 "/>
<path style=" stroke:none;fill-rule:nonzero;fill:rgb(100%,100%,100%);fill-opacity:0.6;" d="M 91.980469 106.078125 L 32.847656 71.882812 L 90.355469 38.769531 C 107.367188 29.074219 112.226562 33.117188 124.109375 39.847656 L 64.980469 74.039062 L 91.980469 89.652344 Z M 91.980469 106.078125 "/>
<path style=" stroke:none;fill-rule:nonzero;fill:rgb(100%,100%,100%);fill-opacity:0.2;" d="M 64.980469 74.039062 L 124.109375 39.847656 L 124.109375 106.078125 C 124.109375 125.734375 118.171875 127.886719 106.289062 134.617188 L 106.292969 66.5 L 79.011719 82.109375 L 64.972656 74.035156 Z M 64.980469 74.039062 "/>
</g>
</svg>
