<?xml version="1.0" encoding="UTF-8"?>
<svg xmlns="http://www.w3.org/2000/svg" xmlns:xlink="http://www.w3.org/1999/xlink" width="168pt" height="168pt" viewBox="0 0 168 168" version="1.1">
<defs>
<clipPath id="clip1">
  <rect x="0" y="0" width="168" height="168"/>
</clipPath>
<g id="surface1905" clip-path="url(#clip1)">
<path style=" stroke:none;fill-rule:nonzero;fill:rgb(8.627451%,7.843137%,10.196078%);fill-opacity:1;" d="M 67.164062 60.554688 L 30.179688 104.9375 L 30.175781 104.9375 C 27.570312 98.265625 26.238281 91.164062 26.25 84 C 26.25 52.097656 52.097656 26.25 84 26.25 C 115.910156 26.25 141.75 52.097656 141.75 84 C 141.75 101.640625 133.839844 117.4375 121.363281 128.03125 L 46.636719 128.03125 C 43.363281 125.226562 40.402344 122.082031 37.800781 118.648438 L 103.75 118.648438 L 103.75 93.644531 L 124.566406 118.648438 L 130.199219 118.648438 L 103.722656 86.886719 L 96.414062 95.664062 L 67.167969 60.550781 Z M 103.730469 49.351562 C 98.664062 49.488281 94.039062 52.269531 91.546875 56.679688 C 89.050781 61.089844 89.050781 66.484375 91.546875 70.894531 C 94.039062 75.308594 98.664062 78.089844 103.730469 78.226562 C 108.792969 78.089844 113.417969 75.308594 115.914062 70.894531 C 118.40625 66.484375 118.40625 61.089844 115.914062 56.679688 C 113.417969 52.269531 108.792969 49.488281 103.730469 49.351562 Z M 67.175781 38.898438 L 67.171875 38.898438 C 65.226562 38.84375 63.335938 39.582031 61.941406 40.941406 C 60.542969 42.300781 59.753906 44.167969 59.753906 46.117188 C 59.753906 48.066406 60.542969 49.933594 61.941406 51.296875 C 63.335938 52.65625 65.226562 53.390625 67.171875 53.339844 C 71.085938 53.234375 74.203125 50.03125 74.203125 46.117188 C 74.203125 42.203125 71.085938 39.003906 67.171875 38.898438 Z M 52.441406 132.363281 L 115.5625 132.363281 C 106.179688 138.496094 95.210938 141.757812 84 141.75 C 72.792969 141.757812 61.824219 138.496094 52.441406 132.363281 Z M 93.617188 99.046875 L 80.878906 114.320312 L 34.855469 114.320312 C 33.015625 111.339844 31.449219 108.199219 30.175781 104.9375 L 67.167969 104.9375 L 67.167969 67.304688 L 93.617188 99.039062 Z M 93.617188 99.046875 "/>
</g>
</defs>
<g id="surface1901">
<path style=" stroke:none;fill-rule:nonzero;fill:rgb(100%,17.647059%,33.333333%);fill-opacity:1;" d="M 168 84 C 168 130.390625 130.390625 168 84 168 C 37.609375 168 0 130.390625 0 84 C 0 37.609375 37.609375 0 84 0 C 130.390625 0 168 37.609375 168 84 "/>
<use xlink:href="#surface1905"/>
</g>
</svg>
