<?xml version="1.0" encoding="UTF-8"?>
<svg xmlns="http://www.w3.org/2000/svg" xmlns:xlink="http://www.w3.org/1999/xlink" width="168pt" height="168pt" viewBox="0 0 168 168" version="1.1">
<g id="surface1939">
<path style=" stroke:none;fill-rule:nonzero;fill:rgb(43.529412%,25.490196%,84.705882%);fill-opacity:1;" d="M 168 84 C 168 130.390625 130.390625 168 84 168 C 37.609375 168 0 130.390625 0 84 C 0 37.609375 37.609375 0 84 0 C 130.390625 0 168 37.609375 168 84 "/>
<path style=" stroke:none;fill-rule:nonzero;fill:rgb(100%,100%,100%);fill-opacity:1;" d="M 110.734375 66.636719 C 108.796875 65.507812 106.28125 65.507812 104.152344 66.636719 L 89.039062 75.320312 L 78.773438 80.980469 L 63.660156 89.660156 C 61.722656 90.792969 59.207031 90.792969 57.078125 89.660156 L 45.066406 82.867188 C 43.128906 81.738281 41.773438 79.664062 41.773438 77.398438 L 41.769531 63.996094 C 41.769531 61.734375 42.929688 59.660156 45.0625 58.527344 L 56.875 51.921875 C 58.816406 50.789062 61.335938 50.789062 63.46875 51.921875 L 75.28125 58.527344 C 77.222656 59.660156 78.578125 61.734375 78.578125 63.996094 L 78.578125 72.679688 L 88.84375 66.824219 L 88.84375 58.144531 L 88.839844 58.148438 C 88.863281 55.851562 87.589844 53.734375 85.546875 52.679688 L 63.65625 40.226562 C 61.71875 39.09375 59.203125 39.09375 57.074219 40.226562 L 34.792969 52.679688 C 32.75 53.734375 31.476562 55.851562 31.5 58.148438 L 31.5 83.242188 C 31.5 85.511719 32.660156 87.582031 34.792969 88.71875 L 57.074219 101.171875 C 59.011719 102.300781 61.53125 102.300781 63.65625 101.171875 L 78.769531 92.675781 L 89.035156 86.828125 L 104.148438 78.339844 C 106.085938 77.207031 108.601562 77.207031 110.730469 78.339844 L 122.546875 84.945312 C 124.488281 86.074219 125.839844 88.148438 125.839844 90.414062 L 125.839844 103.8125 C 125.839844 106.074219 124.683594 108.148438 122.546875 109.28125 L 110.734375 116.074219 C 108.792969 117.207031 106.273438 117.207031 104.144531 116.074219 L 92.328125 109.46875 C 90.386719 108.335938 89.03125 106.261719 89.03125 104 L 89.03125 95.316406 L 78.765625 101.171875 L 78.765625 109.851562 C 78.765625 112.113281 79.925781 114.191406 82.058594 115.320312 L 104.339844 127.773438 C 106.277344 128.90625 108.792969 128.90625 110.921875 127.773438 L 133.203125 115.320312 C 135.140625 114.191406 136.496094 112.117188 136.496094 109.851562 L 136.496094 84.757812 L 136.5 84.757812 C 136.523438 82.457031 135.25 80.339844 133.207031 79.285156 L 110.738281 66.636719 Z M 110.734375 66.636719 "/>
</g>
</svg>
