<?xml version="1.0" encoding="UTF-8"?>
<svg xmlns="http://www.w3.org/2000/svg" xmlns:xlink="http://www.w3.org/1999/xlink" width="168pt" height="168pt" viewBox="0 0 168 168" version="1.1">
<g id="surface1771">
<path style=" stroke:none;fill-rule:nonzero;fill:rgb(17.647059%,27.45098%,57.254902%);fill-opacity:1;" d="M 168 84 C 168 130.390625 130.390625 168 84 168 C 37.609375 168 0 130.390625 0 84 C 0 37.609375 37.609375 0 84 0 C 130.390625 0 168 37.609375 168 84 "/>
<path style=" stroke:none;fill-rule:nonzero;fill:rgb(100%,100%,100%);fill-opacity:1;" d="M 125.9375 76.738281 C 125.9375 72.546875 124.835938 69.257812 122.515625 66.785156 C 120.132812 64.246094 117.550781 62.941406 114.773438 62.941406 L 93.285156 62.941406 L 93.28125 51.542969 L 123.25 51.542969 C 123.25 51.542969 125.703125 50.652344 125.703125 46.664062 C 125.703125 42.683594 123.25 41.996094 123.25 41.996094 L 44.453125 42 C 44.453125 42 42 42.6875 42 46.671875 C 42 50.652344 44.453125 51.542969 44.453125 51.542969 L 74.824219 51.542969 L 74.824219 62.933594 L 53.332031 62.933594 C 50.558594 62.933594 47.976562 64.246094 45.589844 66.78125 C 43.332031 69.253906 42.167969 72.550781 42.167969 76.734375 L 42.105469 111.269531 C 42.105469 111.269531 42.042969 118.273438 46.363281 122.046875 C 50.039062 125.277344 55.59375 124.722656 55.59375 124.722656 L 64.433594 124.722656 C 65.46875 124.722656 67.53125 123.074219 67.53125 120.261719 C 67.53125 115.519531 63.917969 115.042969 63.917969 115.042969 L 56.304688 115.042969 C 50.875 115.042969 51.074219 109.757812 51.074219 109.757812 L 51.074219 78.730469 C 51.074219 74.609375 53.136719 72.546875 57.136719 72.546875 L 74.824219 72.546875 L 74.824219 128.023438 C 74.824219 128.023438 75.082031 131.246094 78.242188 131.246094 L 81.660156 131.246094 L 81.660156 72.554688 L 86.4375 72.554688 L 86.4375 131.25 L 89.859375 131.25 C 93.019531 131.25 93.277344 128.027344 93.277344 128.027344 L 93.277344 72.550781 L 110.964844 72.550781 C 115.027344 72.550781 117.035156 74.613281 117.035156 78.730469 L 117.035156 109.761719 C 117.035156 109.761719 117.222656 115.046875 111.804688 115.046875 L 104.1875 115.046875 C 104.1875 115.046875 100.574219 115.523438 100.574219 120.265625 C 100.574219 123.078125 102.636719 124.726562 103.671875 124.726562 L 112.511719 124.726562 C 112.511719 124.726562 117.996094 125.277344 121.742188 122.050781 C 126.0625 118.269531 126 111.273438 126 111.273438 Z M 86.503906 63.140625 L 81.664062 63.140625 L 81.664062 51.539062 L 86.503906 51.539062 Z M 86.503906 63.140625 "/>
</g>
</svg>
