<?xml version="1.0" encoding="UTF-8"?>
<svg xmlns="http://www.w3.org/2000/svg" xmlns:xlink="http://www.w3.org/1999/xlink" width="168pt" height="168pt" viewBox="0 0 168 168" version="1.1">
<g id="surface271">
<path style=" stroke:none;fill-rule:evenodd;fill:rgb(1.176471%,23.137255%,29.019608%);fill-opacity:1;" d="M 168 84 C 168 130.390625 130.390625 168 84 168 C 37.609375 168 0 130.390625 0 84 C 0 37.609375 37.609375 0 84 0 C 130.390625 0 168 37.609375 168 84 "/>
<path style=" stroke:none;fill-rule:nonzero;fill:rgb(100%,100%,100%);fill-opacity:1;" d="M 81.542969 37.085938 C 84.46875 36.230469 87.570312 37.101562 90.09375 38.628906 C 101.355469 45.078125 112.667969 51.441406 124.03125 57.714844 C 128.40625 60.03125 131.3125 64.78125 131.25 69.683594 C 131.238281 85.925781 131.199219 102.179688 131.222656 118.425781 C 131.402344 119.554688 130.632812 120.839844 129.355469 120.726562 C 124.308594 120.757812 119.265625 120.738281 114.21875 120.730469 C 113.117188 120.894531 112.054688 119.96875 112.171875 118.851562 C 111.6875 105.019531 111.871094 91.167969 112.015625 77.324219 C 112.015625 75.589844 111.679688 73.765625 110.5625 72.363281 C 109.429688 70.878906 107.636719 70.117188 106.035156 69.234375 C 103.410156 67.859375 100.9375 66.195312 98.21875 64.992188 C 97.191406 64.582031 95.851562 64.140625 94.878906 64.925781 C 93.800781 65.9375 93.8125 67.539062 93.703125 68.90625 L 93.703125 68.902344 C 93.503906 75.6875 93.484375 82.480469 93.644531 89.269531 C 93.640625 90.875 93.691406 92.746094 92.464844 93.996094 C 91.210938 95.222656 89.316406 95.246094 87.667969 95.273438 C 84.6875 95.242188 81.703125 95.351562 78.734375 95.207031 C 77.472656 95.070312 75.960938 94.996094 75.144531 93.894531 C 74.410156 92.808594 74.441406 91.4375 74.378906 90.1875 C 74.363281 83.054688 74.453125 75.914062 74.378906 68.785156 C 74.304688 67.523438 74.328125 66.109375 73.433594 65.109375 C 72.578125 64.226562 71.210938 64.515625 70.183594 64.890625 C 67.953125 65.761719 65.953125 67.09375 63.835938 68.199219 C 61.71875 69.417969 59.445312 70.457031 57.628906 72.117188 C 56.449219 73.195312 56.132812 74.832031 56.097656 76.34375 C 56.070312 90.359375 56.113281 104.367188 55.992188 118.386719 C 56.113281 119.445312 55.484375 120.738281 54.242188 120.71875 C 49.042969 120.78125 43.847656 120.746094 38.648438 120.734375 C 37.609375 120.835938 36.652344 119.921875 36.757812 118.886719 C 36.96875 101.851562 36.835938 84.808594 36.851562 67.765625 L 36.851562 67.757812 C 36.75 64.125 38.6875 60.738281 41.875 58.988281 C 53.714844 52.351562 65.574219 45.757812 77.363281 39.042969 C 78.695312 38.285156 80.039062 37.496094 81.542969 37.085938 Z M 81.542969 37.085938 "/>
</g>
</svg>
