<?xml version="1.0" encoding="UTF-8"?>
<svg xmlns="http://www.w3.org/2000/svg" xmlns:xlink="http://www.w3.org/1999/xlink" width="168pt" height="168pt" viewBox="0 0 168 168" version="1.1">
<g id="surface516">
<path style=" stroke:none;fill-rule:evenodd;fill:rgb(6.27451%,24.705882%,40.784314%);fill-opacity:1;" d="M 168 84 C 168 130.390625 130.390625 168 84 168 C 37.609375 168 0 130.390625 0 84 C 0 37.609375 37.609375 0 84 0 C 130.390625 0 168 37.609375 168 84 "/>
<path style=" stroke:none;fill-rule:nonzero;fill:rgb(100%,100%,100%);fill-opacity:1;" d="M 83.894531 26.34375 L 133.875 55.128906 L 133.875 112.878906 L 83.953125 141.75 L 83.550781 141.648438 L 34.128906 112.878906 L 34.128906 55.128906 L 83.550781 26.34375 L 83.898438 26.34375 Z M 83.730469 32.316406 L 39.375 58.148438 L 39.375 109.859375 L 83.726562 135.683594 L 89.144531 132.550781 L 128.625 109.84375 L 128.625 58.15625 L 89.144531 35.320312 Z M 46.246094 88.019531 L 59.375 78.203125 L 70.984375 85.617188 L 70.984375 98.953125 L 79.769531 107.417969 L 79.765625 111.386719 L 71.300781 119.3125 L 64.15625 119.3125 L 46.253906 88.023438 Z M 87.738281 111.390625 L 87.722656 107.402344 L 96.472656 98.949219 L 96.472656 85.613281 L 107.953125 78.105469 L 121.058594 88.023438 L 103.246094 119.21875 L 96.191406 119.21875 Z M 75.296875 85.613281 L 71.023438 74.425781 L 96.421875 74.425781 L 92.230469 85.613281 L 93.46875 98.117188 L 83.667969 98.136719 L 73.980469 98.152344 L 75.292969 85.609375 Z M 83.671875 71.359375 L 59.53125 71.347656 L 64.019531 51.292969 L 103.207031 51.292969 L 107.933594 71.375 Z M 83.671875 71.359375 "/>
</g>
</svg>
