<?xml version="1.0" encoding="UTF-8"?>
<svg xmlns="http://www.w3.org/2000/svg" xmlns:xlink="http://www.w3.org/1999/xlink" width="168pt" height="168pt" viewBox="0 0 168 168" version="1.1">
<g id="surface1456">
<path style=" stroke:none;fill-rule:nonzero;fill:rgb(0.392157%,65.098039%,30.980392%);fill-opacity:1;" d="M 168 84 C 168 130.390625 130.390625 168 84 168 C 37.609375 168 0 130.390625 0 84 C 0 37.609375 37.609375 0 84 0 C 130.390625 0 168 37.609375 168 84 "/>
<path style=" stroke:none;fill-rule:nonzero;fill:rgb(100%,100%,100%);fill-opacity:1;" d="M 108.480469 41.957031 C 114.863281 48.78125 118.125 57.351562 118.125 67.367188 C 118.125 77.535156 114.863281 86.109375 108.476562 92.933594 C 103.367188 98.304688 97.269531 101.496094 90.175781 102.660156 L 90.175781 108.613281 L 104.644531 108.613281 L 104.644531 115.148438 L 90.027344 115.148438 L 90.027344 118.632812 L 104.644531 118.632812 L 104.644531 124.726562 L 90.175781 124.726562 L 90.175781 136.5 L 77.828125 136.5 L 77.828125 124.738281 L 63.496094 124.738281 L 63.496094 118.636719 L 77.96875 118.636719 L 77.96875 115.152344 L 63.5 115.152344 L 63.5 108.617188 L 77.832031 108.617188 L 77.832031 102.515625 C 70.875 101.355469 64.773438 98.15625 59.667969 92.789062 C 53.140625 85.964844 49.875 77.390625 49.875 67.226562 C 49.875 56.914062 53 48.347656 59.523438 41.664062 C 66.046875 34.839844 74.140625 31.5 84.074219 31.5 C 93.867188 31.5 101.949219 34.839844 108.480469 41.957031 Z M 95.140625 80.734375 C 97.832031 77.25 99.257812 72.742188 99.257812 67.226562 C 99.257812 61.855469 97.839844 57.355469 94.859375 53.867188 C 92.023438 50.238281 88.332031 48.496094 84.074219 48.496094 C 79.675781 48.496094 75.988281 50.238281 73.148438 53.726562 C 70.304688 57.210938 68.886719 61.566406 68.886719 67.085938 C 68.886719 72.746094 70.308594 77.25 73.148438 80.734375 C 75.988281 84.21875 79.675781 85.964844 84.070312 85.964844 C 88.617188 85.964844 92.445312 84.222656 95.140625 80.734375 Z M 95.140625 80.734375 "/>
</g>
</svg>
