<?xml version="1.0" encoding="UTF-8"?>
<svg xmlns="http://www.w3.org/2000/svg" xmlns:xlink="http://www.w3.org/1999/xlink" width="168pt" height="168pt" viewBox="0 0 168 168" version="1.1">
<g id="surface1351">
<path style=" stroke:none;fill-rule:evenodd;fill:rgb(11.764706%,14.509804%,17.254902%);fill-opacity:1;" d="M 168 84 C 168 130.390625 130.390625 168 84 168 C 37.609375 168 0 130.390625 0 84 C 0 37.609375 37.609375 0 84 0 C 130.390625 0 168 37.609375 168 84 "/>
<path style=" stroke:none;fill-rule:nonzero;fill:rgb(100%,100%,100%);fill-opacity:1;" d="M 74.65625 81.84375 C 70.285156 81.84375 66.742188 78.300781 66.742188 73.929688 C 66.742188 69.5625 70.285156 66.019531 74.65625 66.019531 C 79.023438 66.019531 82.566406 69.5625 82.566406 73.929688 C 82.566406 78.300781 79.023438 81.84375 74.65625 81.84375 Z M 94.070312 81.84375 C 89.699219 81.84375 86.15625 78.300781 86.15625 73.929688 C 86.15625 69.5625 89.699219 66.019531 94.070312 66.019531 C 98.4375 66.019531 101.980469 69.5625 101.980469 73.929688 C 101.980469 78.300781 98.4375 81.84375 94.070312 81.84375 Z M 74.652344 101.261719 L 74.648438 101.261719 C 70.28125 101.261719 66.738281 97.71875 66.738281 93.351562 C 66.738281 88.980469 70.28125 85.4375 74.648438 85.4375 C 79.019531 85.4375 82.5625 88.980469 82.5625 93.351562 C 82.5625 97.71875 79.019531 101.261719 74.648438 101.261719 Z M 94.070312 101.261719 C 89.699219 101.261719 86.15625 97.71875 86.15625 93.351562 C 86.15625 88.980469 89.699219 85.4375 94.070312 85.4375 C 98.4375 85.4375 101.980469 88.980469 101.980469 93.351562 C 101.980469 97.71875 98.4375 101.261719 94.070312 101.261719 Z M 113.484375 79.683594 C 110.304688 79.683594 107.730469 77.109375 107.730469 73.929688 C 107.730469 70.753906 110.304688 68.175781 113.484375 68.175781 C 116.660156 68.175781 119.238281 70.753906 119.238281 73.929688 C 119.238281 77.109375 116.660156 79.683594 113.484375 79.683594 Z M 113.484375 99.101562 L 113.484375 99.105469 C 110.304688 99.105469 107.730469 96.527344 107.730469 93.351562 C 107.730469 90.171875 110.304688 87.597656 113.484375 87.597656 C 116.660156 87.597656 119.238281 90.171875 119.238281 93.351562 C 119.238281 96.527344 116.660156 99.105469 113.484375 99.105469 Z M 54.515625 79.683594 C 51.339844 79.683594 48.761719 77.109375 48.761719 73.929688 C 48.761719 70.753906 51.339844 68.175781 54.515625 68.175781 C 57.695312 68.175781 60.269531 70.753906 60.269531 73.929688 C 60.269531 77.109375 57.695312 79.683594 54.515625 79.683594 Z M 54.515625 99.101562 L 54.515625 99.105469 C 51.339844 99.105469 48.761719 96.527344 48.761719 93.351562 C 48.761719 90.171875 51.339844 87.597656 54.515625 87.597656 C 57.695312 87.597656 60.269531 90.171875 60.269531 93.351562 C 60.269531 96.527344 57.695312 99.105469 54.515625 99.105469 Z M 74.648438 118.515625 L 74.648438 118.519531 C 73.09375 118.566406 71.585938 117.980469 70.46875 116.898438 C 69.351562 115.8125 68.722656 114.324219 68.722656 112.765625 C 68.722656 111.210938 69.351562 109.722656 70.46875 108.636719 C 71.585938 107.554688 73.09375 106.96875 74.648438 107.015625 C 77.757812 107.109375 80.230469 109.65625 80.230469 112.765625 C 80.230469 115.878906 77.757812 118.425781 74.648438 118.519531 Z M 94.066406 118.515625 L 94.070312 118.519531 C 92.515625 118.566406 91.003906 117.980469 89.890625 116.898438 C 88.773438 115.8125 88.140625 114.324219 88.140625 112.765625 C 88.140625 111.210938 88.773438 109.722656 89.890625 108.636719 C 91.003906 107.554688 92.515625 106.96875 94.070312 107.015625 C 97.179688 107.109375 99.648438 109.65625 99.648438 112.765625 C 99.648438 115.878906 97.179688 118.425781 94.070312 118.519531 Z M 74.648438 60.269531 C 73.09375 60.316406 71.585938 59.730469 70.46875 58.648438 C 69.351562 57.566406 68.722656 56.074219 68.722656 54.519531 C 68.722656 52.960938 69.351562 51.472656 70.46875 50.390625 C 71.585938 49.304688 73.09375 48.71875 74.648438 48.765625 C 77.757812 48.859375 80.230469 51.410156 80.230469 54.519531 C 80.230469 57.628906 77.757812 60.175781 74.648438 60.269531 Z M 94.066406 60.269531 L 94.070312 60.269531 C 92.515625 60.316406 91.003906 59.730469 89.890625 58.648438 C 88.773438 57.566406 88.140625 56.074219 88.140625 54.519531 C 88.140625 52.960938 88.773438 51.472656 89.890625 50.390625 C 91.003906 49.304688 92.515625 48.71875 94.070312 48.765625 C 97.179688 48.859375 99.648438 51.410156 99.648438 54.519531 C 99.648438 57.628906 97.179688 60.175781 94.070312 60.269531 Z M 74.648438 38.691406 C 73.671875 38.730469 72.722656 38.367188 72.019531 37.691406 C 71.3125 37.011719 70.917969 36.078125 70.917969 35.097656 C 70.917969 34.121094 71.3125 33.1875 72.019531 32.507812 C 72.722656 31.828125 73.671875 31.46875 74.648438 31.503906 C 76.636719 31.503906 78.246094 33.117188 78.246094 35.101562 C 78.246094 37.085938 76.636719 38.699219 74.648438 38.699219 Z M 94.066406 38.691406 L 94.070312 38.691406 C 93.09375 38.730469 92.144531 38.367188 91.4375 37.691406 C 90.734375 37.011719 90.335938 36.078125 90.335938 35.097656 C 90.335938 34.121094 90.734375 33.1875 91.4375 32.507812 C 92.144531 31.828125 93.09375 31.46875 94.070312 31.503906 C 96.054688 31.503906 97.664062 33.117188 97.664062 35.101562 C 97.664062 37.085938 96.054688 38.699219 94.070312 38.699219 Z M 132.902344 77.53125 C 130.917969 77.53125 129.308594 75.921875 129.308594 73.9375 C 129.308594 71.949219 130.917969 70.339844 132.902344 70.339844 C 134.890625 70.339844 136.5 71.949219 136.5 73.9375 C 136.5 75.921875 134.890625 77.53125 132.902344 77.53125 Z M 132.902344 96.949219 L 132.902344 96.953125 C 130.917969 96.953125 129.308594 95.339844 129.308594 93.355469 C 129.308594 91.371094 130.917969 89.757812 132.902344 89.757812 C 134.890625 89.757812 136.5 91.371094 136.5 93.355469 C 136.5 95.339844 134.890625 96.953125 132.902344 96.953125 Z M 35.09375 77.53125 L 35.097656 77.53125 C 33.109375 77.53125 31.5 75.921875 31.5 73.9375 C 31.5 71.949219 33.109375 70.339844 35.097656 70.339844 C 37.082031 70.339844 38.691406 71.949219 38.691406 73.9375 C 38.691406 75.921875 37.082031 77.53125 35.097656 77.53125 Z M 35.09375 96.949219 L 35.097656 96.953125 C 33.109375 96.953125 31.5 95.339844 31.5 93.355469 C 31.5 91.371094 33.109375 89.757812 35.097656 89.757812 C 37.082031 89.757812 38.691406 91.371094 38.691406 93.355469 C 38.691406 95.339844 37.082031 96.953125 35.097656 96.953125 Z M 74.648438 136.5 C 72.664062 136.5 71.054688 134.890625 71.054688 132.902344 C 71.054688 130.917969 72.664062 129.308594 74.648438 129.308594 C 76.636719 129.308594 78.246094 130.917969 78.246094 132.902344 C 78.246094 134.890625 76.636719 136.5 74.648438 136.5 Z M 94.066406 136.5 L 94.070312 136.5 C 92.082031 136.5 90.472656 134.890625 90.472656 132.902344 C 90.472656 130.917969 92.082031 129.308594 94.070312 129.308594 C 96.054688 129.308594 97.664062 130.917969 97.664062 132.902344 C 97.664062 134.890625 96.054688 136.5 94.070312 136.5 Z M 94.066406 136.5 "/>
</g>
</svg>
