<?xml version="1.0" encoding="UTF-8"?>
<svg xmlns="http://www.w3.org/2000/svg" xmlns:xlink="http://www.w3.org/1999/xlink" width="168pt" height="168pt" viewBox="0 0 168 168" version="1.1">
<g id="surface1466">
<path style=" stroke:none;fill-rule:evenodd;fill:rgb(0%,69.019608%,100%);fill-opacity:1;" d="M 168 84 C 168 130.390625 130.390625 168 84 168 C 37.609375 168 0 130.390625 0 84 C 0 37.609375 37.609375 0 84 0 C 130.390625 0 168 37.609375 168 84 "/>
<path style=" stroke:none;fill-rule:nonzero;fill:rgb(100%,100%,100%);fill-opacity:1;" d="M 126 63.320312 L 126 110.125 L 112.6875 117.894531 L 112.6875 86.65625 L 84 103.824219 L 55.3125 86.640625 L 55.3125 117.894531 L 42 110.125 L 42 63.316406 L 84 88.542969 L 126 63.316406 Z M 84.15625 121.683594 L 96.441406 114.339844 L 108.570312 121.683594 L 84.15625 136.5 L 59.753906 121.683594 L 71.882812 114.339844 L 84.164062 121.683594 Z M 108.410156 46.316406 L 96.277344 53.660156 L 84 46.316406 L 71.71875 53.660156 L 59.589844 46.316406 L 84 31.5 L 108.414062 46.316406 Z M 108.410156 46.316406 "/>
</g>
</svg>
