<?xml version="1.0" encoding="UTF-8"?>
<svg xmlns="http://www.w3.org/2000/svg" xmlns:xlink="http://www.w3.org/1999/xlink" width="168pt" height="168pt" viewBox="0 0 168 168" version="1.1">
<g id="surface1551">
<path style=" stroke:none;fill-rule:nonzero;fill:rgb(0%,0%,0%);fill-opacity:1;" d="M 168 84 C 168 130.390625 130.390625 168 84 168 C 37.609375 168 0 130.390625 0 84 C 0 37.609375 37.609375 0 84 0 C 130.390625 0 168 37.609375 168 84 "/>
<path style=" stroke:none;fill-rule:nonzero;fill:rgb(100%,100%,100%);fill-opacity:0.703;" d="M 45.535156 115.535156 L 82.054688 138.507812 L 86.476562 138.507812 L 122.40625 115.535156 L 116.808594 111.121094 L 84.117188 132.03125 L 50.25 111.121094 Z M 63.207031 62.230469 L 83.824219 31.007812 L 105.027344 62.523438 L 110.035156 58.101562 L 86.472656 22.765625 C 86.472656 22.765625 84.410156 20.113281 81.171875 22.765625 L 57.023438 58.992188 Z M 63.207031 62.230469 "/>
<path style=" stroke:none;fill-rule:nonzero;fill:rgb(100%,100%,100%);fill-opacity:1;" d="M 84.410156 125.257812 C 85.585938 121.132812 87.0625 117.304688 88.242188 113.183594 C 93.542969 96.6875 98.84375 79.898438 104.144531 63.410156 C 104.4375 62.527344 104.734375 61.347656 105.027344 60.46875 C 105.617188 58.695312 106.496094 57.8125 108.265625 57.8125 C 109.851562 57.769531 111.230469 58.898438 111.503906 60.464844 C 112.972656 66.355469 114.15625 72.539062 115.625 78.429688 C 118.277344 89.621094 120.632812 101.109375 123.285156 112.296875 C 123.875 114.949219 122.992188 116.71875 120.929688 117.304688 C 118.867188 117.894531 117.394531 116.421875 116.808594 113.769531 C 113.863281 101.105469 110.917969 88.4375 108.265625 75.480469 C 108.265625 74.890625 107.972656 74.597656 107.675781 73.710938 L 107.675781 73.714844 C 107.433594 74.519531 107.136719 75.308594 106.789062 76.078125 C 101.199219 93.15625 95.894531 110.238281 90.296875 127.316406 C 89.414062 130.554688 88.234375 133.5 87.351562 136.738281 C 86.761719 138.800781 85.582031 139.683594 83.816406 139.683594 C 82.046875 139.683594 80.871094 138.800781 80.28125 136.742188 C 73.804688 116.417969 67.320312 96.097656 61.132812 75.773438 C 60.839844 75.183594 60.839844 74.890625 60.542969 73.710938 L 60.554688 73.714844 C 60.027344 76.378906 59.441406 79.03125 58.789062 81.667969 C 56.425781 92.273438 54.074219 103.167969 51.71875 113.773438 C 51.128906 116.714844 48.777344 118.1875 46.417969 116.714844 C 44.949219 115.832031 44.652344 114.363281 44.949219 112.59375 C 48.1875 97.867188 51.722656 83.140625 54.960938 68.421875 C 55.550781 66.058594 56.140625 63.707031 56.429688 61.351562 C 57.023438 59 58.199219 57.816406 59.96875 57.816406 C 61.738281 57.816406 62.910156 58.996094 63.503906 61.351562 C 70.277344 82.5625 77.050781 104.058594 83.53125 125.265625 L 84.414062 125.265625 Z M 84.410156 125.257812 "/>
</g>
</svg>
