<?xml version="1.0" encoding="UTF-8"?>
<svg xmlns="http://www.w3.org/2000/svg" xmlns:xlink="http://www.w3.org/1999/xlink" width="168pt" height="168pt" viewBox="0 0 168 168" version="1.1">
<g id="surface2202">
<path style=" stroke:none;fill-rule:nonzero;fill:rgb(85.490196%,6.666667%,34.117647%);fill-opacity:1;" d="M 168 84 C 168 130.390625 130.390625 168 84 168 C 37.609375 168 0 130.390625 0 84 C 0 37.609375 37.609375 0 84 0 C 130.390625 0 168 37.609375 168 84 "/>
<path style=" stroke:none;fill-rule:nonzero;fill:rgb(100%,100%,100%);fill-opacity:1;" d="M 110.171875 100.632812 C 115.847656 100.632812 121.089844 97.605469 123.929688 92.6875 C 126.765625 87.773438 126.765625 81.71875 123.929688 76.800781 C 121.089844 71.886719 115.847656 68.859375 110.171875 68.859375 C 104.496094 68.859375 99.25 71.886719 96.414062 76.800781 C 93.574219 81.71875 93.574219 87.773438 96.414062 92.6875 C 99.25 97.605469 104.496094 100.632812 110.171875 100.632812 Z M 110.171875 48.105469 C 122.460938 48.097656 133.933594 54.25 140.726562 64.488281 C 147.523438 74.730469 148.730469 87.691406 143.949219 99.011719 C 139.167969 110.332031 129.03125 118.5 116.953125 120.765625 C 104.875 123.035156 92.464844 119.097656 83.90625 110.28125 C 90.570312 103.453125 94.292969 94.285156 94.285156 84.746094 C 94.292969 75.203125 90.570312 66.039062 83.90625 59.210938 C 90.792969 52.101562 100.273438 48.09375 110.171875 48.105469 Z M 57.644531 100.632812 C 63.320312 100.632812 68.566406 97.605469 71.402344 92.6875 C 74.242188 87.773438 74.242188 81.71875 71.402344 76.800781 C 68.566406 71.886719 63.320312 68.859375 57.644531 68.859375 C 51.96875 68.859375 46.726562 71.886719 43.886719 76.800781 C 41.050781 81.71875 41.050781 87.773438 43.886719 92.6875 C 46.726562 97.605469 51.96875 100.632812 57.644531 100.632812 Z M 83.910156 59.210938 C 77.25 66.039062 73.527344 75.207031 73.535156 84.746094 C 73.535156 94.679688 77.492188 103.683594 83.910156 110.28125 C 77.09375 117.296875 67.757812 121.292969 57.980469 121.390625 C 48.199219 121.484375 38.789062 117.664062 31.839844 110.78125 C 24.890625 103.898438 20.984375 94.523438 20.984375 84.746094 C 20.984375 74.964844 24.890625 65.589844 31.839844 58.710938 C 38.789062 51.828125 48.199219 48.007812 57.980469 48.101562 C 67.757812 48.195312 77.09375 52.195312 83.910156 59.210938 Z M 73.53125 84.753906 C 73.53125 94.6875 77.488281 103.691406 83.910156 110.289062 L 83.910156 110.285156 C 90.574219 103.457031 94.296875 94.292969 94.285156 84.75 C 94.296875 75.210938 90.574219 66.042969 83.910156 59.214844 C 77.246094 66.042969 73.523438 75.210938 73.53125 84.75 Z M 73.53125 84.753906 "/>
</g>
</svg>
