<?xml version="1.0" encoding="UTF-8"?>
<svg xmlns="http://www.w3.org/2000/svg" xmlns:xlink="http://www.w3.org/1999/xlink" width="168pt" height="168pt" viewBox="0 0 168 168" version="1.1">
<g id="surface921">
<path style=" stroke:none;fill-rule:evenodd;fill:rgb(14.117647%,14.117647%,14.117647%);fill-opacity:1;" d="M 168 84 C 168 130.390625 130.390625 168 84 168 C 37.609375 168 0 130.390625 0 84 C 0 37.609375 37.609375 0 84 0 C 130.390625 0 168 37.609375 168 84 "/>
<path style=" stroke:none;fill-rule:nonzero;fill:rgb(100%,100%,100%);fill-opacity:1;" d="M 116.847656 35.542969 C 116.847656 39.222656 113.855469 42.210938 110.160156 42.210938 C 108.390625 42.210938 106.691406 41.511719 105.4375 40.261719 C 104.179688 39.011719 103.476562 37.3125 103.472656 35.542969 C 103.472656 31.859375 106.464844 28.875 110.160156 28.875 C 113.855469 28.875 116.847656 31.855469 116.847656 35.542969 Z M 112.027344 58.769531 C 108.898438 58.769531 106.355469 56.238281 106.355469 53.121094 C 106.355469 50.003906 108.894531 47.476562 112.027344 47.476562 C 115.15625 47.476562 117.691406 50 117.691406 53.121094 C 117.691406 56.238281 115.15625 58.769531 112.019531 58.769531 Z M 110.269531 72.699219 L 110.269531 72.695312 C 109.003906 72.699219 107.785156 72.199219 106.886719 71.300781 C 105.988281 70.40625 105.484375 69.1875 105.484375 67.917969 C 105.484375 66.652344 105.988281 65.4375 106.886719 64.539062 C 107.785156 63.644531 109.003906 63.144531 110.269531 63.148438 C 111.539062 63.144531 112.757812 63.644531 113.65625 64.542969 C 114.554688 65.4375 115.058594 66.65625 115.058594 67.925781 C 115.058594 69.191406 114.550781 70.40625 113.652344 71.304688 C 112.757812 72.199219 111.539062 72.699219 110.269531 72.695312 Z M 109.984375 79.902344 L 109.988281 79.898438 C 109.988281 82.160156 108.152344 83.996094 105.890625 83.996094 C 103.632812 83.996094 101.796875 82.160156 101.796875 79.898438 C 101.796875 77.636719 103.632812 75.804688 105.890625 75.804688 C 108.152344 75.804688 109.988281 77.636719 109.988281 79.898438 Z M 103.507812 88.953125 C 103.507812 90.894531 101.933594 92.453125 99.996094 92.453125 C 98.578125 92.449219 97.304688 91.589844 96.765625 90.277344 C 96.222656 88.96875 96.527344 87.460938 97.53125 86.460938 C 98.539062 85.460938 100.046875 85.164062 101.355469 85.707031 C 102.664062 86.253906 103.515625 87.53125 103.515625 88.949219 Z M 96.421875 95.375 L 96.421875 95.371094 C 96.421875 97.035156 95.074219 98.386719 93.40625 98.386719 C 91.742188 98.386719 90.394531 97.035156 90.394531 95.371094 C 90.394531 93.707031 91.742188 92.359375 93.40625 92.359375 C 95.074219 92.359375 96.421875 93.707031 96.421875 95.371094 Z M 132.511719 56.476562 L 132.511719 56.472656 C 131.703125 59.421875 128.710938 61.207031 125.730469 60.515625 C 122.753906 59.820312 120.855469 56.898438 121.433594 53.898438 C 122.144531 50.835938 125.199219 48.933594 128.261719 49.648438 C 131.320312 50.359375 133.222656 53.414062 132.511719 56.472656 Z M 129.792969 71.191406 L 129.789062 71.191406 C 129.1875 73.777344 126.597656 75.386719 124.007812 74.785156 C 121.417969 74.179688 119.808594 71.589844 120.414062 69 C 121.019531 66.410156 123.609375 64.800781 126.195312 65.40625 C 128.785156 66.011719 130.394531 68.601562 129.789062 71.191406 Z M 124.730469 82.9375 L 124.730469 82.933594 C 124.21875 85.125 122.03125 86.484375 119.839844 85.972656 C 117.652344 85.464844 116.292969 83.273438 116.800781 81.085938 C 117.390625 78.988281 119.527344 77.722656 121.648438 78.21875 C 123.773438 78.710938 125.128906 80.792969 124.730469 82.933594 Z M 118.210938 91.875 C 117.699219 93.660156 115.882812 94.734375 114.074219 94.3125 C 112.265625 93.890625 111.105469 92.125 111.4375 90.300781 C 111.644531 89.402344 112.203125 88.625 112.988281 88.140625 C 113.769531 87.65625 114.714844 87.5 115.609375 87.710938 C 116.507812 87.917969 117.285156 88.472656 117.773438 89.253906 C 118.261719 90.035156 118.417969 90.976562 118.210938 91.875 Z M 111.085938 98.117188 C 110.707031 99.722656 109.101562 100.71875 107.492188 100.34375 C 105.886719 99.964844 104.890625 98.359375 105.269531 96.753906 C 105.449219 95.980469 105.929688 95.3125 106.601562 94.894531 C 107.277344 94.476562 108.085938 94.34375 108.859375 94.527344 C 110.464844 94.902344 111.460938 96.511719 111.085938 98.117188 Z M 103.972656 102.058594 C 103.570312 103.351562 102.242188 104.113281 100.929688 103.804688 C 99.613281 103.5 98.761719 102.226562 98.972656 100.894531 C 99.371094 99.605469 100.699219 98.84375 102.015625 99.148438 C 103.328125 99.457031 104.183594 100.726562 103.972656 102.058594 Z M 141.269531 76.566406 L 141.265625 76.566406 C 140.097656 78.96875 137.203125 79.972656 134.800781 78.808594 C 133.640625 78.253906 132.753906 77.261719 132.332031 76.050781 C 131.910156 74.839844 131.988281 73.507812 132.550781 72.355469 C 133.722656 69.957031 136.609375 68.953125 139.015625 70.113281 C 140.167969 70.671875 141.054688 71.664062 141.476562 72.875 C 141.902344 74.082031 141.824219 75.410156 141.265625 76.566406 Z M 136.222656 88.195312 C 135.179688 90.140625 132.789062 90.917969 130.800781 89.960938 C 128.8125 89 127.933594 86.648438 128.804688 84.621094 C 129.800781 82.582031 132.257812 81.726562 134.304688 82.707031 C 135.289062 83.179688 136.046875 84.023438 136.40625 85.054688 C 136.765625 86.082031 136.699219 87.214844 136.222656 88.195312 Z M 129.878906 97.015625 C 129.015625 98.777344 126.890625 99.515625 125.125 98.664062 C 124.273438 98.253906 123.625 97.527344 123.316406 96.636719 C 123.007812 95.75 123.0625 94.773438 123.476562 93.929688 C 124.375 92.25 126.441406 91.578125 128.15625 92.40625 C 129.875 93.234375 130.632812 95.269531 129.878906 97.019531 Z M 122.8125 103.253906 L 122.8125 103.25 C 122.0625 104.777344 120.226562 105.414062 118.691406 104.679688 C 117.933594 104.335938 117.347656 103.703125 117.0625 102.921875 C 116.78125 102.140625 116.824219 101.277344 117.1875 100.527344 C 117.550781 99.777344 118.203125 99.207031 118.992188 98.945312 C 119.78125 98.683594 120.640625 98.753906 121.378906 99.136719 C 122.117188 99.492188 122.679688 100.125 122.949219 100.898438 C 123.21875 101.667969 123.167969 102.515625 122.8125 103.25 Z M 115.699219 107.097656 L 115.699219 107.09375 C 115.027344 108.335938 113.5 108.832031 112.226562 108.21875 C 110.957031 107.605469 110.390625 106.097656 110.949219 104.800781 C 111.644531 103.605469 113.140625 103.148438 114.386719 103.75 C 115.628906 104.351562 116.203125 105.808594 115.699219 107.09375 Z M 109.015625 109.035156 L 109.015625 109.03125 C 108.472656 110.140625 107.136719 110.605469 106.023438 110.070312 C 104.914062 109.53125 104.449219 108.195312 104.988281 107.085938 C 105.527344 105.972656 106.867188 105.511719 107.976562 106.050781 C 108.511719 106.308594 108.917969 106.765625 109.113281 107.324219 C 109.308594 107.886719 109.273438 108.5 109.015625 109.03125 Z M 114.453125 134.527344 L 114.457031 134.527344 C 112.917969 133.648438 111.796875 132.191406 111.335938 130.484375 C 110.875 128.777344 111.113281 126.953125 112 125.421875 C 113.851562 122.234375 117.933594 121.140625 121.132812 122.976562 C 124.335938 124.8125 125.4375 128.894531 123.59375 132.078125 C 121.746094 135.273438 117.660156 136.367188 114.460938 134.527344 Z M 98.753906 126.484375 L 98.757812 126.484375 C 97.457031 125.738281 96.503906 124.507812 96.117188 123.0625 C 95.726562 121.613281 95.929688 120.074219 96.679688 118.777344 C 98.246094 116.074219 101.703125 115.148438 104.410156 116.703125 C 107.121094 118.257812 108.046875 121.710938 106.488281 124.410156 L 106.492188 124.410156 C 104.925781 127.113281 101.464844 128.039062 98.757812 126.484375 Z M 87.195312 116.824219 C 86.097656 116.191406 85.292969 115.152344 84.960938 113.925781 C 84.632812 112.699219 84.804688 111.394531 85.4375 110.296875 C 86.765625 108.011719 89.691406 107.230469 91.980469 108.550781 C 93.078125 109.179688 93.878906 110.21875 94.210938 111.4375 C 94.539062 112.660156 94.371094 113.964844 93.738281 115.058594 C 92.417969 117.351562 89.492188 118.140625 87.195312 116.824219 Z M 79.316406 106.460938 C 77.367188 105.332031 76.699219 102.832031 77.828125 100.882812 C 78.957031 98.929688 81.457031 98.261719 83.40625 99.394531 C 85.359375 100.519531 86.03125 103.011719 84.902344 104.960938 L 84.902344 104.957031 C 83.773438 106.914062 81.273438 107.585938 79.316406 106.460938 Z M 74.679688 96.347656 C 73.875 95.886719 73.285156 95.121094 73.042969 94.226562 C 72.800781 93.328125 72.925781 92.371094 73.390625 91.566406 C 74.363281 89.886719 76.511719 89.3125 78.195312 90.277344 C 79.875 91.242188 80.453125 93.386719 79.488281 95.054688 L 79.484375 95.054688 C 78.515625 96.738281 76.363281 97.316406 74.679688 96.347656 Z M 72.636719 87.019531 L 72.640625 87.019531 C 71.945312 86.621094 71.441406 85.964844 71.234375 85.191406 C 71.027344 84.421875 71.136719 83.597656 71.535156 82.90625 C 72.371094 81.472656 74.210938 80.980469 75.652344 81.804688 C 77.09375 82.636719 77.585938 84.480469 76.753906 85.917969 C 75.921875 87.359375 74.078125 87.851562 72.640625 87.019531 Z M 92.324219 139.132812 L 92.328125 139.128906 C 90.820312 139.132812 89.375 138.535156 88.308594 137.472656 C 87.242188 136.410156 86.640625 134.964844 86.640625 133.460938 C 86.640625 131.953125 87.242188 130.511719 88.308594 129.449219 C 89.375 128.386719 90.820312 127.792969 92.328125 127.796875 C 95.46875 127.796875 98.015625 130.332031 98.015625 133.46875 C 98.015625 136.597656 95.46875 139.132812 92.328125 139.132812 Z M 77.003906 127.910156 L 77.007812 127.90625 C 76.074219 127.039062 75.527344 125.835938 75.484375 124.5625 C 75.441406 123.289062 75.910156 122.050781 76.78125 121.121094 C 78.605469 119.1875 81.648438 119.089844 83.589844 120.902344 C 85.53125 122.714844 85.625 125.75 83.808594 127.683594 L 83.8125 127.683594 C 81.988281 129.617188 78.949219 129.714844 77.007812 127.90625 Z M 69.3125 117.683594 L 69.316406 117.679688 C 68.527344 116.941406 68.066406 115.925781 68.03125 114.847656 C 68 113.769531 68.394531 112.726562 69.132812 111.941406 C 70.671875 110.304688 73.242188 110.21875 74.886719 111.75 C 75.675781 112.484375 76.140625 113.503906 76.175781 114.582031 C 76.210938 115.660156 75.816406 116.707031 75.074219 117.488281 C 73.535156 119.125 70.960938 119.210938 69.316406 117.679688 Z M 64.804688 107.582031 L 64.804688 107.578125 C 64.132812 106.949219 63.738281 106.082031 63.707031 105.160156 C 63.679688 104.242188 64.015625 103.347656 64.648438 102.679688 C 65.960938 101.28125 68.160156 101.210938 69.5625 102.515625 C 70.234375 103.144531 70.628906 104.015625 70.660156 104.933594 C 70.691406 105.855469 70.355469 106.75 69.726562 107.421875 C 68.410156 108.820312 66.210938 108.890625 64.804688 107.578125 Z M 62.9375 98.320312 L 62.9375 98.316406 C 62.359375 97.777344 62.023438 97.03125 61.996094 96.242188 C 61.96875 95.453125 62.261719 94.6875 62.800781 94.113281 C 63.929688 92.90625 65.820312 92.84375 67.027344 93.96875 C 68.234375 95.09375 68.289062 96.976562 67.164062 98.179688 C 66.035156 99.382812 64.140625 99.445312 62.9375 98.316406 Z M 63.0625 90.203125 L 63.0625 90.199219 C 62.566406 89.738281 62.273438 89.097656 62.25 88.417969 C 62.226562 87.742188 62.476562 87.082031 62.941406 86.589844 C 63.914062 85.558594 65.535156 85.507812 66.570312 86.472656 C 67.46875 87.464844 67.453125 88.980469 66.535156 89.953125 C 65.621094 90.929688 64.109375 91.035156 63.0625 90.199219 Z M 66.605469 135.144531 L 66.605469 135.140625 C 65.886719 134.082031 65.617188 132.78125 65.855469 131.523438 C 66.097656 130.265625 66.828125 129.152344 67.886719 128.4375 C 70.097656 126.933594 73.109375 127.503906 74.617188 129.710938 C 75.339844 130.769531 75.609375 132.070312 75.371094 133.328125 C 75.128906 134.585938 74.398438 135.695312 73.335938 136.410156 C 71.125 137.910156 68.117188 137.34375 66.605469 135.140625 Z M 59.015625 124.980469 L 59.015625 124.976562 C 58.398438 124.078125 58.167969 122.96875 58.371094 121.898438 C 58.574219 120.824219 59.199219 119.878906 60.101562 119.269531 C 61.984375 117.996094 64.539062 118.480469 65.824219 120.351562 C 66.441406 121.25 66.671875 122.359375 66.46875 123.429688 C 66.265625 124.5 65.640625 125.449219 64.738281 126.058594 C 62.859375 127.335938 60.300781 126.851562 59.015625 124.976562 Z M 54.511719 115.09375 L 54.511719 115.089844 C 53.980469 114.3125 53.78125 113.355469 53.957031 112.433594 C 54.132812 111.507812 54.671875 110.691406 55.449219 110.164062 C 57.074219 109.066406 59.285156 109.480469 60.394531 111.101562 C 60.929688 111.878906 61.128906 112.839844 60.953125 113.765625 C 60.773438 114.691406 60.234375 115.507812 59.449219 116.035156 C 57.824219 117.132812 55.617188 116.710938 54.511719 115.089844 Z M 52.621094 105.886719 L 52.621094 105.882812 C 52.160156 105.207031 51.988281 104.375 52.140625 103.574219 C 52.292969 102.769531 52.757812 102.0625 53.433594 101.601562 C 54.847656 100.644531 56.765625 101.011719 57.730469 102.417969 C 58.191406 103.09375 58.367188 103.921875 58.210938 104.726562 C 58.058594 105.53125 57.589844 106.238281 56.910156 106.695312 C 55.5 107.648438 53.582031 107.285156 52.621094 105.882812 Z M 52.832031 97.824219 L 52.832031 97.816406 C 52.4375 97.242188 52.289062 96.53125 52.417969 95.847656 C 52.546875 95.160156 52.945312 94.554688 53.523438 94.164062 C 54.730469 93.34375 56.371094 93.65625 57.195312 94.855469 C 57.910156 96.058594 57.566406 97.609375 56.410156 98.394531 C 55.25 99.183594 53.683594 98.929688 52.832031 97.816406 Z M 54.480469 91.089844 L 54.480469 91.082031 C 54.125 90.589844 53.988281 89.980469 54.09375 89.382812 C 54.199219 88.789062 54.539062 88.261719 55.039062 87.921875 C 55.539062 87.582031 56.15625 87.457031 56.746094 87.578125 C 57.339844 87.699219 57.859375 88.054688 58.1875 88.5625 C 58.84375 89.585938 58.566406 90.945312 57.5625 91.628906 C 56.554688 92.3125 55.1875 92.070312 54.480469 91.082031 Z M 29.59375 82.996094 L 29.59375 82.988281 C 32.792969 81.148438 36.878906 82.242188 38.730469 85.433594 C 39.613281 86.964844 39.851562 88.785156 39.394531 90.492188 C 38.933594 92.203125 37.8125 93.65625 36.277344 94.535156 C 33.074219 96.371094 28.992188 95.277344 27.148438 92.09375 C 26.261719 90.5625 26.019531 88.742188 26.480469 87.03125 C 26.9375 85.324219 28.058594 83.867188 29.59375 82.988281 Z M 44.453125 73.492188 L 44.453125 73.484375 C 47.160156 71.921875 50.621094 72.84375 52.191406 75.546875 C 53.75 78.25 52.820312 81.699219 50.113281 83.257812 L 50.109375 83.257812 C 47.402344 84.8125 43.949219 83.886719 42.378906 81.191406 C 41.625 79.894531 41.421875 78.351562 41.8125 76.902344 C 42.203125 75.457031 43.152344 74.222656 44.453125 73.480469 Z M 58.632812 68.363281 L 58.632812 68.355469 C 60.921875 67.039062 63.84375 67.820312 65.171875 70.101562 C 65.804688 71.199219 65.976562 72.503906 65.648438 73.730469 C 65.320312 74.953125 64.519531 75.996094 63.421875 76.628906 C 61.128906 77.941406 58.207031 77.160156 56.878906 74.875 C 56.246094 73.777344 56.074219 72.476562 56.402344 71.25 C 56.730469 70.027344 57.535156 68.984375 58.632812 68.355469 Z M 71.585938 66.757812 L 71.582031 66.75 C 73.539062 65.621094 76.039062 66.292969 77.167969 68.246094 C 77.710938 69.179688 77.855469 70.292969 77.578125 71.335938 C 77.296875 72.382812 76.609375 73.269531 75.671875 73.808594 C 74.734375 74.355469 73.613281 74.5 72.566406 74.222656 C 71.515625 73.941406 70.621094 73.253906 70.078125 72.3125 C 69.535156 71.375 69.390625 70.261719 69.675781 69.21875 C 69.957031 68.171875 70.644531 67.285156 71.582031 66.75 Z M 82.683594 67.828125 L 82.683594 67.820312 C 84.363281 66.851562 86.507812 67.425781 87.480469 69.105469 C 88.324219 70.773438 87.714844 72.8125 86.09375 73.742188 C 84.476562 74.675781 82.40625 74.175781 81.390625 72.609375 C 80.925781 71.800781 80.796875 70.84375 81.039062 69.945312 C 81.285156 69.046875 81.875 68.28125 82.683594 67.820312 Z M 91.808594 70.738281 L 91.808594 70.726562 C 93.25 69.902344 95.089844 70.394531 95.929688 71.832031 C 96.332031 72.519531 96.441406 73.34375 96.234375 74.117188 C 96.027344 74.886719 95.519531 75.542969 94.824219 75.941406 C 93.386719 76.773438 91.542969 76.285156 90.710938 74.84375 C 89.875 73.40625 90.367188 71.5625 91.808594 70.726562 Z M 39.972656 59.011719 C 42.976562 58.105469 46.148438 59.800781 47.0625 62.800781 C 47.777344 65.738281 46.066406 68.722656 43.171875 69.597656 C 40.277344 70.46875 37.203125 68.921875 36.179688 66.078125 C 35.738281 64.636719 35.894531 63.082031 36.605469 61.753906 C 37.316406 60.425781 38.53125 59.441406 39.972656 59.011719 Z M 54.117188 54.007812 C 56.613281 53.359375 59.171875 54.796875 59.917969 57.265625 C 60.667969 59.730469 59.332031 62.347656 56.898438 63.195312 C 54.363281 63.960938 51.683594 62.527344 50.914062 59.992188 C 50.144531 57.453125 51.578125 54.773438 54.117188 54.007812 Z M 66.851562 52.5 C 69 51.851562 71.265625 53.066406 71.910156 55.210938 C 72.558594 57.355469 71.347656 59.621094 69.199219 60.269531 C 67.054688 60.917969 64.789062 59.703125 64.140625 57.558594 C 63.492188 55.414062 64.707031 53.148438 66.851562 52.5 Z M 77.875 53.671875 L 77.878906 53.671875 C 79.710938 53.117188 81.648438 54.15625 82.203125 55.988281 C 82.753906 57.824219 81.71875 59.757812 79.882812 60.3125 C 78.046875 60.863281 76.109375 59.824219 75.554688 57.992188 C 75.285156 57.109375 75.382812 56.15625 75.820312 55.347656 C 76.257812 54.535156 77 53.933594 77.882812 53.671875 Z M 86.851562 56.699219 L 86.855469 56.699219 C 88.398438 56.320312 89.964844 57.214844 90.421875 58.734375 C 90.882812 60.253906 90.070312 61.863281 88.578125 62.402344 C 87.820312 62.628906 87.007812 62.546875 86.308594 62.175781 C 85.613281 61.800781 85.09375 61.167969 84.867188 60.410156 C 84.390625 58.835938 85.28125 57.175781 86.855469 56.699219 Z M 93.835938 60.871094 L 93.839844 60.875 C 95.191406 60.464844 96.617188 61.226562 97.027344 62.578125 C 97.4375 63.929688 96.675781 65.355469 95.324219 65.765625 C 93.972656 66.175781 92.546875 65.414062 92.136719 64.0625 C 91.722656 62.710938 92.488281 61.285156 93.839844 60.875 Z M 53.042969 41.410156 L 53.046875 41.410156 C 54.324219 41.3125 55.59375 41.730469 56.566406 42.566406 C 57.539062 43.402344 58.140625 44.59375 58.234375 45.875 C 58.425781 48.542969 56.421875 50.863281 53.753906 51.054688 C 51.085938 51.25 48.765625 49.246094 48.574219 46.578125 C 48.480469 45.296875 48.902344 44.035156 49.742188 43.066406 C 50.582031 42.097656 51.773438 41.503906 53.050781 41.410156 Z M 65.679688 39.949219 L 65.683594 39.953125 C 67.875 39.902344 69.71875 41.578125 69.875 43.765625 C 70.035156 45.949219 68.449219 47.875 66.277344 48.140625 C 65.160156 48.277344 64.035156 47.953125 63.164062 47.238281 C 62.296875 46.523438 61.757812 45.480469 61.675781 44.359375 C 61.59375 43.238281 61.976562 42.128906 62.734375 41.296875 C 63.492188 40.464844 64.558594 39.976562 65.683594 39.953125 Z M 76.515625 41.019531 L 76.519531 41.023438 C 78.398438 41 79.972656 42.445312 80.109375 44.320312 C 80.246094 46.195312 78.898438 47.851562 77.035156 48.101562 C 75.109375 48.191406 73.464844 46.730469 73.328125 44.8125 C 73.1875 42.894531 74.601562 41.210938 76.519531 41.023438 Z M 85.457031 44 L 85.460938 44.003906 C 87.113281 43.949219 88.515625 45.210938 88.636719 46.863281 C 88.753906 48.511719 87.550781 49.964844 85.90625 50.148438 C 85.074219 50.242188 84.238281 49.992188 83.59375 49.457031 C 82.945312 48.921875 82.546875 48.144531 82.488281 47.308594 C 82.425781 46.472656 82.710938 45.648438 83.269531 45.023438 C 83.832031 44.402344 84.621094 44.03125 85.460938 44.003906 Z M 97.378906 53.027344 "/>
</g>
</svg>
