<?xml version="1.0" encoding="UTF-8"?>
<svg xmlns="http://www.w3.org/2000/svg" xmlns:xlink="http://www.w3.org/1999/xlink" width="168pt" height="168pt" viewBox="0 0 168 168" version="1.1">
<g id="surface1251">
<path style=" stroke:none;fill-rule:evenodd;fill:rgb(0%,19.215686%,42.745098%);fill-opacity:1;" d="M 168 84 C 168 130.390625 130.390625 168 84 168 C 37.609375 168 0 130.390625 0 84 C 0 37.609375 37.609375 0 84 0 C 130.390625 0 168 37.609375 168 84 "/>
<path style=" stroke:none;fill-rule:nonzero;fill:rgb(100%,100%,100%);fill-opacity:1;" d="M 95.320312 104.40625 C 95.253906 104.28125 95.242188 104.226562 95.214844 104.210938 C 91.960938 102.671875 88.703125 101.128906 85.4375 99.613281 C 85.265625 99.527344 84.914062 99.550781 84.800781 99.671875 C 83.382812 101.195312 81.996094 102.753906 80.589844 104.3125 C 81.609375 105.0625 94.464844 105.070312 95.316406 104.40625 M 65.527344 66.800781 L 65.203125 66.117188 C 64.929688 66.3125 64.574219 66.453125 64.394531 66.714844 L 64.398438 66.71875 C 61.390625 71.191406 58.398438 75.679688 55.429688 80.179688 C 55.246094 80.464844 55.257812 80.878906 55.167969 81.230469 C 55.535156 81.15625 55.945312 81.171875 56.246094 80.988281 L 56.242188 80.988281 C 58.792969 79.453125 61.320312 77.882812 63.824219 76.273438 C 64.265625 75.960938 64.566406 75.492188 64.667969 74.964844 C 65.003906 72.339844 65.234375 69.699219 65.527344 66.800781 M 128.511719 104.863281 L 132.847656 104.863281 C 133.683594 104.863281 134.003906 104.546875 133.472656 103.746094 C 130.714844 99.535156 127.96875 95.320312 125.203125 91.125 C 125.054688 90.894531 124.71875 90.792969 124.46875 90.636719 C 124.335938 90.898438 124.113281 91.160156 124.085938 91.441406 C 123.765625 95.546875 123.476562 99.652344 123.160156 103.757812 C 123.101562 104.539062 123.375 104.890625 124.171875 104.875 C 125.617188 104.84375 127.058594 104.863281 128.507812 104.863281 M 35.40625 104.546875 C 36.066406 104.703125 36.394531 104.851562 36.714844 104.855469 C 41.402344 104.867188 46.089844 104.855469 50.773438 104.867188 C 51.683594 104.867188 51.914062 104.546875 51.53125 103.671875 L 51.535156 103.671875 C 50.0625 100.335938 48.625 96.988281 47.21875 93.625 C 46.808594 92.644531 46.429688 92.691406 45.785156 93.382812 C 43.285156 96.082031 40.765625 98.753906 38.257812 101.4375 C 37.382812 102.382812 36.523438 103.328125 35.414062 104.550781 M 104.6875 80.332031 C 104.992188 80.925781 105.089844 81.183594 105.242188 81.402344 L 111.585938 90.609375 C 114.207031 94.414062 116.820312 98.222656 119.460938 102.011719 C 119.640625 102.273438 119.984375 102.414062 120.25 102.609375 C 120.386719 102.292969 120.605469 101.996094 120.648438 101.667969 C 120.753906 100.777344 120.773438 99.882812 120.832031 98.992188 C 121.117188 94.921875 121.429688 90.859375 121.671875 86.796875 C 121.777344 85.0625 121.027344 84.171875 119.382812 83.761719 C 115 82.664062 110.617188 81.5625 106.226562 80.476562 C 105.832031 80.382812 105.417969 80.398438 104.6875 80.328125 M 103.574219 53.371094 L 103.175781 53.4375 C 103.125 54.242188 103.042969 55.050781 103.019531 55.863281 L 102.4375 75.660156 C 102.410156 76.382812 102.625 76.761719 103.378906 76.941406 C 107.925781 78.042969 112.460938 79.203125 117.007812 80.324219 C 117.402344 80.417969 117.835938 80.328125 118.253906 80.324219 C 118.148438 79.921875 118.128906 79.464844 117.933594 79.105469 C 113.402344 70.863281 108.863281 62.621094 104.308594 54.386719 C 104.109375 54.023438 103.824219 53.703125 103.578125 53.367188 M 83.183594 93.828125 C 83.308594 93.128906 83.429688 92.710938 83.445312 92.289062 C 83.511719 90.089844 83.519531 87.890625 83.617188 85.691406 L 83.613281 85.695312 C 83.707031 84.019531 83.207031 82.363281 82.203125 81.019531 C 78.035156 75.234375 73.878906 69.441406 69.734375 63.640625 C 69.546875 63.378906 69.464844 63.035156 69.335938 62.730469 L 68.84375 63.023438 C 68.722656 63.464844 68.535156 63.898438 68.488281 64.347656 C 68.121094 67.917969 67.804688 71.488281 67.410156 75.046875 C 67.289062 75.808594 67.535156 76.582031 68.078125 77.128906 C 72.777344 82.363281 77.445312 87.628906 82.132812 92.878906 C 82.386719 93.164062 82.6875 93.394531 83.175781 93.835938 M 86.203125 92.738281 L 86.519531 92.949219 C 86.808594 92.722656 87.148438 92.546875 87.378906 92.265625 L 87.382812 92.261719 C 91.371094 87.417969 95.351562 82.558594 99.3125 77.691406 C 99.558594 77.382812 99.699219 77.003906 99.722656 76.613281 C 99.910156 70.128906 100.074219 63.644531 100.222656 57.160156 C 100.234375 56.804688 100.027344 56.441406 99.917969 56.082031 C 99.628906 56.359375 99.226562 56.585938 99.0625 56.921875 C 95.386719 64.703125 91.875 72.5625 88.023438 80.242188 C 85.988281 84.304688 86.3125 88.5 86.207031 92.738281 M 67.816406 104.867188 C 70.339844 104.867188 72.871094 104.902344 75.398438 104.835938 L 75.394531 104.835938 C 75.972656 104.808594 76.519531 104.578125 76.9375 104.179688 C 78.695312 102.335938 80.34375 100.382812 82.097656 98.535156 C 82.753906 97.851562 82.605469 97.433594 82.050781 96.824219 C 79.089844 93.613281 76.152344 90.375 73.242188 87.113281 C 72.539062 86.324219 72.132812 86.332031 71.503906 87.191406 C 67.507812 92.65625 63.472656 98.085938 59.457031 103.539062 C 59.257812 103.8125 59.183594 104.175781 59.046875 104.496094 C 59.398438 104.621094 59.75 104.847656 60.105469 104.847656 C 62.679688 104.878906 65.238281 104.867188 67.8125 104.867188 M 70.425781 84.046875 C 69.027344 82.425781 67.660156 80.898438 66.363281 79.296875 C 65.816406 78.628906 65.398438 78.5625 64.664062 79.019531 C 60.273438 81.78125 55.839844 84.46875 51.460938 87.246094 C 50.667969 87.75 50.042969 88.53125 49.371094 89.21875 C 48.746094 89.859375 48.832031 90.5625 49.171875 91.351562 C 50.878906 95.253906 52.542969 99.167969 54.226562 103.078125 C 54.867188 104.546875 55.109375 104.574219 56.089844 103.261719 C 58.6875 99.796875 61.277344 96.316406 63.863281 92.847656 L 70.425781 84.046875 M 100.847656 79.910156 C 100.507812 80.460938 100.34375 80.796875 100.113281 81.070312 C 95.957031 86.140625 91.792969 91.214844 87.601562 96.265625 C 86.917969 97.089844 87.269531 97.414062 88.042969 97.765625 C 92.855469 99.96875 97.652344 102.210938 102.476562 104.40625 L 102.480469 104.40625 C 103.097656 104.683594 103.765625 104.835938 104.445312 104.847656 C 108.414062 104.882812 112.386719 104.875 116.363281 104.851562 C 116.730469 104.851562 117.105469 104.683594 117.476562 104.589844 C 117.34375 104.203125 117.289062 103.753906 117.054688 103.425781 C 113.390625 98.078125 109.71875 92.734375 106.035156 87.402344 C 104.40625 85.039062 102.769531 82.675781 100.851562 79.910156 M 83.960938 110.238281 C 65.890625 110.238281 47.820312 110.234375 29.75 110.25 C 28.34375 110.25 27.074219 110.09375 26.464844 108.582031 C 25.886719 107.148438 26.558594 106.089844 27.5 105.085938 C 32.898438 99.320312 38.367188 93.621094 43.617188 87.730469 C 45.621094 85.484375 47.171875 82.8125 48.867188 80.285156 C 54.300781 72.15625 59.691406 64 65.152344 55.894531 C 65.6875 55.101562 66.507812 54.296875 67.367188 53.984375 C 68.554688 53.542969 69.566406 54.226562 70.324219 55.308594 C 74.71875 61.585938 79.144531 67.84375 83.558594 74.113281 C 84.46875 75.394531 84.792969 75.351562 85.464844 73.894531 L 99.082031 44.230469 C 99.617188 43.066406 100.328125 42.074219 101.707031 42.007812 C 103.152344 41.941406 104.027344 42.816406 104.703125 44.054688 C 111.539062 56.457031 118.214844 68.960938 125.320312 81.203125 C 129.613281 88.605469 134.585938 95.59375 139.253906 102.769531 C 139.832031 103.652344 140.414062 104.527344 140.980469 105.421875 C 141.664062 106.5 142.066406 107.679688 141.425781 108.871094 C 140.796875 110.027344 139.628906 110.246094 138.40625 110.246094 C 120.257812 110.234375 102.109375 110.242188 83.957031 110.242188 "/>
</g>
</svg>
