<?xml version="1.0" encoding="UTF-8"?>
<svg xmlns="http://www.w3.org/2000/svg" xmlns:xlink="http://www.w3.org/1999/xlink" width="168pt" height="168pt" viewBox="0 0 168 168" version="1.1">
<g id="surface1924">
<path style=" stroke:none;fill-rule:nonzero;fill:rgb(10.196078%,67.058824%,60.784314%);fill-opacity:1;" d="M 168 84 C 168 130.390625 130.390625 168 84 168 C 37.609375 168 0 130.390625 0 84 C 0 37.609375 37.609375 0 84 0 C 130.390625 0 168 37.609375 168 84 "/>
<path style=" stroke:none;fill-rule:nonzero;fill:rgb(100%,100%,100%);fill-opacity:1;" d="M 39.679688 111.070312 L 39.679688 68.835938 L 71.710938 92.945312 L 71.710938 111.074219 L 79.890625 111.074219 L 79.890625 91.246094 C 79.886719 89.746094 79.183594 88.335938 77.984375 87.433594 L 39.140625 58.195312 C 37.695312 57.109375 35.761719 56.933594 34.144531 57.742188 C 32.527344 58.546875 31.503906 60.195312 31.5 62.003906 L 31.5 111.070312 Z M 128.269531 111.070312 L 128.269531 68.835938 L 96.238281 92.945312 L 96.238281 111.074219 L 88.058594 111.074219 L 88.058594 91.246094 C 88.058594 89.746094 88.761719 88.332031 89.960938 87.433594 L 128.8125 58.195312 L 128.808594 58.195312 C 130.253906 57.109375 132.1875 56.933594 133.804688 57.742188 C 135.421875 58.546875 136.445312 60.199219 136.449219 62.007812 L 136.449219 111.074219 L 128.269531 111.074219 Z M 128.269531 111.070312 "/>
</g>
</svg>
