<?xml version="1.0" encoding="UTF-8"?>
<svg xmlns="http://www.w3.org/2000/svg" xmlns:xlink="http://www.w3.org/1999/xlink" width="168pt" height="168pt" viewBox="0 0 168 168" version="1.1">
<g id="surface1561">
<path style=" stroke:none;fill-rule:evenodd;fill:rgb(4.313725%,8.235294%,16.078431%);fill-opacity:1;" d="M 168 84 C 168 130.390625 130.390625 168 84 168 C 37.609375 168 0 130.390625 0 84 C 0 37.609375 37.609375 0 84 0 C 130.390625 0 168 37.609375 168 84 "/>
<path style=" stroke:none;fill-rule:evenodd;fill:rgb(100%,100%,100%);fill-opacity:1;" d="M 45.292969 105.652344 L 72.972656 121.886719 L 72.972656 130.964844 L 36.75 109.644531 L 36.75 54.046875 L 84 26.25 L 131.25 54.046875 L 131.25 109.644531 L 95.03125 130.960938 L 95.03125 121.878906 L 122.703125 105.652344 L 115.5625 101.527344 L 116.496094 99.90625 L 123.546875 103.980469 L 123.546875 62.757812 L 87.742188 83.976562 L 87.742188 144.667969 L 84 147 L 80.25 144.664062 L 80.25 83.972656 L 44.449219 62.753906 L 44.449219 103.972656 L 51.496094 99.902344 L 52.429688 101.53125 L 45.289062 105.652344 Z M 82.960938 35.773438 L 48.195312 56.167969 L 84 77.394531 L 119.804688 56.167969 L 84.835938 35.652344 L 84.835938 44.074219 L 82.960938 44.074219 Z M 82.960938 49.382812 L 84.835938 49.382812 L 84.835938 58.082031 L 82.960938 58.082031 Z M 82.960938 63.390625 L 84.835938 63.390625 L 84.835938 72.089844 L 83.894531 72.515625 L 82.960938 72.09375 Z M 112.152344 97.253906 L 111.21875 98.882812 L 103.679688 94.523438 L 104.621094 92.902344 L 112.15625 97.261719 Z M 100.261719 90.25 L 99.320312 91.878906 L 91.785156 87.519531 L 91.890625 86.5 L 92.71875 85.902344 L 100.257812 90.25 Z M 55.847656 97.253906 L 63.382812 92.902344 L 64.324219 94.53125 L 56.789062 98.878906 L 55.847656 97.257812 Z M 67.746094 90.25 L 75.28125 85.902344 L 76.121094 86.5 L 76.214844 87.523438 L 68.679688 91.871094 Z M 67.746094 90.25 "/>
</g>
</svg>
