<?xml version="1.0" encoding="UTF-8"?>
<svg xmlns="http://www.w3.org/2000/svg" xmlns:xlink="http://www.w3.org/1999/xlink" width="168pt" height="168pt" viewBox="0 0 168 168" version="1.1">
<g id="surface581">
<path style=" stroke:none;fill-rule:nonzero;fill:rgb(0%,67.843137%,93.72549%);fill-opacity:1;" d="M 168 84 C 168 130.390625 130.390625 168 84 168 C 37.609375 168 0 130.390625 0 84 C 0 37.609375 37.609375 0 84 0 C 130.390625 0 168 37.609375 168 84 "/>
<path style=" stroke:none;fill-rule:evenodd;fill:rgb(100%,100%,100%);fill-opacity:1;" d="M 78.03125 141.675781 C 48.929688 138.625 26.25 113.96875 26.25 84 C 26.25 54.03125 48.929688 29.375 78.03125 26.324219 L 78.03125 44.015625 C 68.484375 45.488281 59.78125 50.328125 53.492188 57.664062 C 47.207031 64.996094 43.757812 74.339844 43.765625 84 C 43.757812 93.660156 47.207031 103.003906 53.492188 110.335938 C 59.78125 117.671875 68.484375 122.511719 78.03125 123.984375 Z M 89.449219 26.25 C 116.90625 28.765625 138.816406 50.488281 141.675781 77.894531 L 124.019531 77.894531 C 122.707031 69.253906 118.628906 61.269531 112.394531 55.140625 C 106.164062 49.015625 98.113281 45.070312 89.449219 43.90625 Z M 141.75 89.339844 C 139.21875 117.113281 117.160156 139.214844 89.449219 141.75 L 89.449219 124.09375 C 98.242188 122.910156 106.402344 118.867188 112.671875 112.585938 C 118.9375 106.304688 122.964844 98.136719 124.132812 89.339844 Z M 141.75 89.339844 "/>
</g>
</svg>
