<?xml version="1.0" encoding="UTF-8"?>
<svg xmlns="http://www.w3.org/2000/svg" xmlns:xlink="http://www.w3.org/1999/xlink" width="168pt" height="168pt" viewBox="0 0 168 168" version="1.1">
<g id="surface1231">
<path style=" stroke:none;fill-rule:nonzero;fill:rgb(49.803922%,21.176471%,54.117647%);fill-opacity:1;" d="M 168 84 C 168 130.390625 130.390625 168 84 168 C 37.609375 168 0 130.390625 0 84 C 0 37.609375 37.609375 0 84 0 C 130.390625 0 168 37.609375 168 84 "/>
<path style=" stroke:none;fill-rule:nonzero;fill:rgb(100%,100%,100%);fill-opacity:1;" d="M 134.238281 111.910156 C 134.578125 113.289062 133.203125 113.980469 132.167969 113.636719 L 114.957031 113.636719 C 113.921875 113.636719 113.234375 113.289062 112.542969 112.945312 C 111.515625 112.597656 110.828125 111.222656 110.480469 109.84375 L 110.480469 109.496094 L 94.300781 49.824219 C 93.960938 49.824219 92.925781 50.859375 92.578125 50.859375 C 92.238281 51.199219 91.542969 51.546875 91.203125 51.199219 C 90.515625 50.859375 90.167969 49.824219 90.515625 49.128906 C 91.199219 47.40625 92.925781 46.367188 94.648438 46.027344 C 96.710938 45.679688 98.433594 45.679688 100.496094 45.679688 L 113.238281 45.679688 C 114.265625 45.679688 115.300781 45.679688 116.335938 46.027344 C 117.371094 46.714844 117.710938 48.097656 118.058594 49.128906 C 118.742188 51.542969 119.085938 53.957031 119.78125 56.375 L 128.039062 87.421875 L 131.136719 99.839844 C 132.171875 103.636719 133.550781 107.777344 134.234375 111.914062 Z M 94.300781 111.910156 C 94.648438 113.289062 93.265625 113.980469 92.238281 113.636719 L 75.023438 113.636719 C 73.988281 113.636719 73.300781 113.289062 72.609375 112.945312 C 71.582031 112.597656 70.894531 111.222656 70.546875 109.84375 L 70.546875 109.496094 L 54.367188 49.824219 C 54.019531 49.824219 52.988281 50.859375 52.644531 50.859375 C 52.296875 51.199219 51.609375 51.546875 51.265625 51.199219 C 50.582031 50.859375 50.238281 49.824219 50.582031 49.128906 C 51.265625 47.40625 52.988281 46.367188 54.707031 46.027344 C 56.777344 45.679688 58.492188 45.679688 60.5625 45.679688 L 73.300781 45.679688 C 74.335938 45.679688 75.371094 45.679688 76.398438 46.027344 C 77.433594 46.714844 77.777344 48.097656 78.121094 49.128906 C 78.808594 51.542969 79.15625 53.957031 79.84375 56.375 L 88.105469 87.421875 L 91.203125 99.839844 C 92.238281 103.636719 93.613281 107.777344 94.300781 111.914062 Z M 62.628906 98.800781 L 58.496094 111.910156 C 58.105469 113.304688 56.847656 114.285156 55.398438 114.324219 L 37.152344 114.324219 C 35.253906 114.316406 33.714844 112.777344 33.710938 110.875 L 33.710938 110.183594 L 48.167969 55.683594 C 48.515625 54.992188 49.203125 54.304688 49.890625 54.304688 C 50.925781 54.304688 51.613281 54.992188 51.613281 55.683594 Z M 103.253906 97.765625 L 100.84375 105.011719 C 100.496094 105.699219 100.15625 106.046875 99.46875 106.046875 C 98.78125 106.046875 98.433594 105.699219 98.089844 105.011719 L 86.042969 62.921875 L 88.457031 54.300781 C 88.457031 53.609375 89.140625 53.265625 89.832031 53.265625 C 90.515625 53.265625 91.207031 53.605469 91.207031 54.300781 Z M 103.253906 97.765625 "/>
</g>
</svg>
