<?xml version="1.0" encoding="UTF-8"?>
<svg xmlns="http://www.w3.org/2000/svg" xmlns:xlink="http://www.w3.org/1999/xlink" width="168pt" height="168pt" viewBox="0 0 168 168" version="1.1">
<g id="surface1266">
<path style=" stroke:none;fill-rule:nonzero;fill:rgb(0%,0%,0%);fill-opacity:1;" d="M 168 84 C 168 130.390625 130.390625 168 84 168 C 37.609375 168 0 130.390625 0 84 C 0 37.609375 37.609375 0 84 0 C 130.390625 0 168 37.609375 168 84 "/>
<path style=" stroke:none;fill-rule:nonzero;fill:rgb(100%,100%,100%);fill-opacity:1;" d="M 82.90625 82.90625 L 49.472656 49.472656 L 48.75 48.378906 L 36.855469 36.75 L 36.855469 128.703125 L 48.847656 128.703125 L 48.847656 65.101562 L 74.65625 91.273438 L 83.015625 99.632812 L 91.375 91.273438 L 117.179688 65.101562 L 117.179688 128.707031 L 129.171875 128.707031 L 129.171875 36.75 L 117.179688 48.378906 Z M 82.90625 82.90625 "/>
</g>
</svg>
