<?xml version="1.0" encoding="UTF-8"?>
<svg xmlns="http://www.w3.org/2000/svg" xmlns:xlink="http://www.w3.org/1999/xlink" width="168pt" height="168pt" viewBox="0 0 168 168" version="1.1">
<g id="surface1641">
<path style=" stroke:none;fill-rule:nonzero;fill:rgb(87.058824%,78.039216%,60%);fill-opacity:1;" d="M 168 84 C 168 130.390625 130.390625 168 84 168 C 37.609375 168 0 130.390625 0 84 C 0 37.609375 37.609375 0 84 0 C 130.390625 0 168 37.609375 168 84 "/>
<path style=" stroke:none;fill-rule:nonzero;fill:rgb(100%,100%,100%);fill-opacity:1;" d="M 123.53125 70.421875 L 116.050781 36.75 L 101.367188 59.921875 C 89.953125 57.167969 78.042969 57.167969 66.628906 59.921875 L 51.984375 36.75 L 44.476562 70.421875 C 36.417969 76.871094 31.5 85.296875 31.5 94.546875 C 31.5 114.8125 55 131.238281 83.984375 131.238281 C 112.96875 131.238281 136.46875 114.804688 136.46875 94.546875 C 136.464844 85.296875 131.585938 76.871094 123.527344 70.421875 Z M 54.820312 85.835938 L 51.324219 85.835938 L 59.867188 75.988281 L 66.082031 75.988281 Z M 83.714844 109.902344 L 69.191406 84.324219 L 72.777344 82.277344 L 76.015625 87.972656 L 91.875 87.972656 L 95.257812 82.25 L 98.808594 84.359375 Z M 113.183594 85.835938 L 101.917969 75.988281 L 108.175781 75.988281 L 116.707031 85.835938 Z M 83.785156 101.664062 L 78.363281 92.109375 L 89.429688 92.109375 Z M 83.785156 101.664062 "/>
</g>
</svg>
