<?xml version="1.0" encoding="UTF-8"?>
<svg xmlns="http://www.w3.org/2000/svg" xmlns:xlink="http://www.w3.org/1999/xlink" width="168pt" height="168pt" viewBox="0 0 168 168" version="1.1">
<g id="surface561">
<path style=" stroke:none;fill-rule:nonzero;fill:rgb(27.843137%,72.54902%,36.078431%);fill-opacity:1;" d="M 168 84 C 168 130.390625 130.390625 168 84 168 C 37.609375 168 0 130.390625 0 84 C 0 37.609375 37.609375 0 84 0 C 130.390625 0 168 37.609375 168 84 "/>
<path style=" stroke:none;fill-rule:nonzero;fill:rgb(100%,100%,100%);fill-opacity:1;" d="M 84 31.5 C 55.019531 31.5 31.5 55.019531 31.5 84 C 31.5 84.699219 31.566406 85.363281 31.605469 86.0625 L 56.242188 86.0625 L 68.144531 65.585938 L 84 88.304688 L 99.816406 65.589844 L 111.71875 86.066406 L 136.355469 86.066406 C 136.390625 85.367188 136.460938 84.703125 136.460938 84.003906 C 136.5 55.019531 112.980469 31.5 84 31.5 Z M 120.1875 79.730469 C 118.058594 61.636719 102.652344 47.566406 84 47.566406 C 65.347656 47.566406 49.941406 61.671875 47.8125 79.734375 L 41.4375 79.730469 C 43.574219 58.132812 61.84375 41.226562 84 41.226562 C 106.15625 41.226562 124.386719 58.132812 126.5625 79.730469 Z M 120.1875 79.730469 "/>
<path style=" stroke:none;fill-rule:nonzero;fill:rgb(100%,100%,100%);fill-opacity:1;" d="M 99.367188 77.347656 L 84 99.398438 L 68.632812 77.347656 L 59.886719 92.398438 L 32.234375 92.398438 C 36.261719 117.390625 57.855469 136.5 84 136.5 C 110.144531 136.5 131.738281 117.390625 135.765625 92.363281 L 108.113281 92.363281 Z M 117.320312 98.699219 L 124.109375 98.699219 C 118.085938 115.042969 102.410156 126.769531 84 126.769531 C 65.589844 126.769531 49.910156 115.042969 43.890625 98.699219 L 50.679688 98.699219 C 56.351562 111.472656 69.128906 120.433594 84 120.433594 C 98.875 120.433594 111.652344 111.472656 117.320312 98.699219 Z M 117.320312 98.699219 "/>
</g>
</svg>
