<?xml version="1.0" encoding="UTF-8"?>
<svg xmlns="http://www.w3.org/2000/svg" xmlns:xlink="http://www.w3.org/1999/xlink" width="168pt" height="168pt" viewBox="0 0 168 168" version="1.1">
<g id="surface766">
<path style=" stroke:none;fill-rule:nonzero;fill:rgb(6.27451%,30.980392%,79.215686%);fill-opacity:1;" d="M 168 84 C 168 130.390625 130.390625 168 84 168 C 37.609375 168 0 130.390625 0 84 C 0 37.609375 37.609375 0 84 0 C 130.390625 0 168 37.609375 168 84 "/>
<path style=" stroke:none;fill-rule:nonzero;fill:rgb(100%,100%,100%);fill-opacity:0.5;" d="M 36.75 50.230469 L 58.976562 87.519531 L 58.976562 126 C 46.703125 126 36.75 116.359375 36.75 104.46875 Z M 36.75 50.230469 "/>
<path style=" stroke:none;fill-rule:nonzero;fill:rgb(100%,100%,100%);fill-opacity:0.6;" d="M 109.015625 87.480469 L 131.234375 50.210938 L 131.246094 50.210938 L 131.246094 104.476562 C 131.25 116.359375 121.296875 126 109.015625 126 Z M 109.015625 87.480469 "/>
<path style=" stroke:none;fill-rule:nonzero;fill:rgb(100%,100%,100%);fill-opacity:0.8;" d="M 83.984375 86.40625 L 72.871094 105.050781 C 70.566406 104.472656 68.089844 102.238281 65.4375 98.347656 L 36.75 50.230469 C 47.382812 44.28125 60.980469 47.816406 67.117188 58.105469 Z M 83.984375 86.40625 "/>
<path style=" stroke:none;fill-rule:nonzero;fill:rgb(100%,100%,100%);fill-opacity:1;" d="M 100.882812 58.066406 C 107.019531 47.765625 120.617188 44.238281 131.25 50.183594 L 102.5625 98.300781 C 98.355469 104.398438 91.40625 108.023438 84 107.980469 C 80.542969 107.988281 77.132812 107.207031 74.023438 105.699219 L 72.867188 105.054688 Z M 100.882812 58.066406 "/>
</g>
</svg>
