<?xml version="1.0" encoding="UTF-8"?>
<svg xmlns="http://www.w3.org/2000/svg" xmlns:xlink="http://www.w3.org/1999/xlink" width="168pt" height="168pt" viewBox="0 0 168 168" version="1.1">
<g id="surface726">
<path style=" stroke:none;fill-rule:nonzero;fill:rgb(11.764706%,12.156863%,14.509804%);fill-opacity:1;" d="M 168 84 C 168 130.390625 130.390625 168 84 168 C 37.609375 168 0 130.390625 0 84 C 0 37.609375 37.609375 0 84 0 C 130.390625 0 168 37.609375 168 84 "/>
<path style=" stroke:none;fill-rule:nonzero;fill:rgb(100%,100%,100%);fill-opacity:1;" d="M 42 47.25 L 47.25 47.25 L 47.25 120.75 L 42 120.75 Z M 68.25 63 L 73.5 63 L 73.5 110.25 L 68.25 110.25 Z M 94.5 73.5 L 99.75 73.5 L 99.75 99.75 L 94.5 99.75 Z M 120.75 47.25 L 126 47.25 L 126 120.75 L 120.75 120.75 Z M 120.75 47.25 "/>
</g>
</svg>
