<?xml version="1.0" encoding="UTF-8"?>
<svg xmlns="http://www.w3.org/2000/svg" xmlns:xlink="http://www.w3.org/1999/xlink" width="168pt" height="168pt" viewBox="0 0 168 168" version="1.1">
<g id="surface326">
<path style=" stroke:none;fill-rule:nonzero;fill:rgb(100%,100%,100%);fill-opacity:1;" d="M 168 84 C 168 130.390625 130.390625 168 84 168 C 37.609375 168 0 130.390625 0 84 C 0 37.609375 37.609375 0 84 0 C 130.390625 0 168 37.609375 168 84 "/>
<path style=" stroke:none;fill-rule:nonzero;fill:rgb(98.431373%,74.901961%,0.784314%);fill-opacity:1;" d="M 97.914062 1.1875 C 93.316406 0.40625 88.664062 0.0078125 84 0 C 37.589844 0 0 37.589844 0 84 C 0 101.820312 5.601562 118.28125 15.015625 131.9375 C 20.789062 123.453125 34.109375 117.601562 49.550781 117.601562 C 60.15625 117.601562 69.746094 120.398438 76.621094 124.898438 Z M 142.550781 23.839844 C 157.054688 55.917969 144.332031 73.054688 144.332031 73.054688 C 134.488281 43.445312 105.980469 39.117188 105.980469 39.117188 C 105.980469 39.117188 87.226562 140.167969 87.226562 141.441406 C 87.226562 152.386719 75.601562 161.636719 59.820312 164.4375 L 59.820312 164.433594 C 67.664062 166.796875 75.808594 167.996094 84 168 C 130.410156 168 168 130.410156 168 84 C 168 60.410156 158.242188 39.113281 142.546875 23.839844 Z M 142.550781 23.839844 "/>
</g>
</svg>
