<?xml version="1.0" encoding="UTF-8"?>
<svg xmlns="http://www.w3.org/2000/svg" xmlns:xlink="http://www.w3.org/1999/xlink" width="168pt" height="168pt" viewBox="0 0 168 168" version="1.1">
<g id="surface2390">
<path style=" stroke:none;fill-rule:evenodd;fill:rgb(100%,66.666667%,1.960784%);fill-opacity:1;" d="M 168 84 C 168 130.390625 130.390625 168 84 168 C 37.609375 168 0 130.390625 0 84 C 0 37.609375 37.609375 0 84 0 C 130.390625 0 168 37.609375 168 84 "/>
<path style=" stroke:none;fill-rule:evenodd;fill:rgb(100%,100%,100%);fill-opacity:1;" d="M 88.257812 60.726562 L 88.257812 70.507812 L 99.882812 70.507812 L 94.632812 76.535156 L 86.824219 76.535156 L 86.824219 84.109375 L 94.945312 84.109375 L 90.964844 90.136719 L 86.824219 90.136719 L 86.824219 105.59375 L 80.140625 114.707031 L 80.140625 90.136719 L 70.902344 90.136719 L 76 84.109375 L 80.140625 84.109375 L 80.140625 76.535156 L 67.082031 76.535156 L 72.332031 70.507812 L 80.140625 70.507812 L 80.140625 60.375 C 76.292969 56.210938 70.984375 54.128906 64.21875 54.128906 C 51.242188 54.128906 40.972656 67.960938 40.972656 81.71875 C 40.972656 90.886719 43.074219 98.664062 47.261719 105.054688 L 40.015625 113.476562 C 34.339844 105.0625 31.5 95.457031 31.5 84.652344 C 31.5 60.925781 51.921875 47.25 66.367188 47.25 C 75.207031 47.25 81.980469 50.957031 86.683594 58.363281 C 95.683594 52.1875 104.886719 49.101562 114.292969 49.101562 C 128.699219 49.101562 136.5 66.6875 136.5 83.488281 C 136.5 105.84375 121.453125 114.472656 115.960938 115.480469 L 115.960938 115.484375 C 115.550781 115.558594 115.132812 115.390625 114.886719 115.054688 C 114.722656 114.828125 114.660156 114.546875 114.710938 114.273438 C 114.761719 114 114.921875 113.757812 115.152344 113.605469 C 123.652344 107.894531 127.898438 99.140625 127.898438 87.355469 C 127.898438 61.625 114.683594 55.671875 104.972656 55.671875 C 99.023438 55.65625 93.203125 57.414062 88.257812 60.726562 Z M 88.257812 60.726562 "/>
</g>
</svg>
