<?xml version="1.0" encoding="UTF-8"?>
<svg xmlns="http://www.w3.org/2000/svg" xmlns:xlink="http://www.w3.org/1999/xlink" width="168pt" height="168pt" viewBox="0 0 168 168" version="1.1">
<g id="surface1021">
<path style=" stroke:none;fill-rule:nonzero;fill:rgb(29.019608%,56.470588%,88.627451%);fill-opacity:1;" d="M 168 84 C 168 130.390625 130.390625 168 84 168 C 37.609375 168 0 130.390625 0 84 C 0 37.609375 37.609375 0 84 0 C 130.390625 0 168 37.609375 168 84 "/>
<path style=" stroke:none;fill-rule:nonzero;fill:rgb(100%,100%,100%);fill-opacity:1;" d="M 130.988281 57.75 C 126.484375 57.75 122.675781 61.386719 122.675781 66.0625 C 122.675781 72.644531 121.636719 74.375 114.359375 74.375 L 113.667969 74.375 L 113.667969 74.371094 C 109.445312 74.726562 106.203125 78.269531 106.222656 82.507812 L 106.222656 82.6875 C 106.222656 89.09375 105.015625 90.652344 97.910156 90.652344 C 97.5625 90.652344 97.21875 90.652344 97.042969 90.824219 C 92.886719 91.34375 89.597656 94.804688 89.597656 98.960938 C 89.597656 103.464844 93.230469 107.273438 97.910156 107.273438 C 102.242188 107.273438 105.875 103.808594 106.046875 99.65625 L 106.046875 98.964844 C 106.046875 93.078125 107.953125 90.828125 114.183594 90.652344 L 114.355469 90.652344 C 118.6875 90.652344 122.324219 87.1875 122.492188 82.863281 L 122.492188 82.339844 C 122.492188 76.28125 124.398438 74.027344 130.808594 74.027344 C 135.308594 74.027344 139.121094 70.394531 139.121094 65.714844 C 139.121094 61.390625 135.484375 57.75 130.984375 57.75 Z M 82.152344 74.371094 C 86.328125 74.746094 89.585938 78.152344 89.773438 82.339844 C 89.773438 87.011719 86.136719 90.652344 81.457031 90.652344 C 76.785156 90.652344 73.144531 86.839844 73.144531 82.339844 C 73.144531 76.449219 71.238281 74.203125 64.832031 74.203125 C 58.425781 74.203125 56.519531 76.449219 56.519531 82.515625 L 56.519531 83.035156 C 56.347656 87.1875 52.707031 90.648438 48.382812 90.648438 C 43.710938 90.648438 40.066406 86.84375 40.066406 82.34375 C 40.066406 78.011719 43.359375 74.546875 47.515625 74.207031 L 48.207031 74.207031 C 55.476562 74.207031 56.519531 72.648438 56.519531 66.070312 L 56.527344 66.066406 C 56.6875 61.589844 60.359375 58.046875 64.835938 58.046875 C 69.316406 58.046875 72.988281 61.589844 73.148438 66.066406 C 73.148438 72.644531 74.1875 74.371094 81.460938 74.371094 Z M 31.9375 107.273438 C 27.347656 107.273438 23.625 103.550781 23.625 98.960938 C 23.625 94.371094 27.347656 90.652344 31.9375 90.652344 C 36.527344 90.652344 40.246094 94.371094 40.246094 98.960938 C 40.246094 103.550781 36.527344 107.273438 31.9375 107.273438 Z M 31.9375 107.273438 "/>
</g>
</svg>
