<?xml version="1.0" encoding="UTF-8"?>
<svg xmlns="http://www.w3.org/2000/svg" xmlns:xlink="http://www.w3.org/1999/xlink" width="168pt" height="168pt" viewBox="0 0 168 168" version="1.1">
<g id="surface1671">
<path style=" stroke:none;fill-rule:evenodd;fill:rgb(13.333333%,13.333333%,13.333333%);fill-opacity:1;" d="M 168 84 C 168 130.390625 130.390625 168 84 168 C 37.609375 168 0 130.390625 0 84 C 0 37.609375 37.609375 0 84 0 C 130.390625 0 168 37.609375 168 84 "/>
<path style=" stroke:none;fill-rule:evenodd;fill:rgb(100%,100%,100%);fill-opacity:1;" d="M 66.832031 97.9375 L 83.347656 131.441406 L 91.832031 106.382812 L 66.835938 97.9375 M 36.628906 83.398438 L 61.640625 91.886719 L 70.136719 66.84375 L 36.632812 83.398438 M 68.296875 94.023438 C 68.691406 94.234375 68.851562 94.359375 69.039062 94.421875 C 77.101562 97.164062 85.15625 99.925781 93.242188 102.597656 C 93.898438 102.808594 94.832031 102.628906 95.480469 102.3125 C 104.726562 97.804688 113.945312 93.242188 123.164062 88.6875 C 125.789062 87.390625 128.402344 86.078125 131.265625 84.648438 C 130.636719 84.40625 130.308594 84.269531 129.96875 84.15625 C 122.160156 81.503906 114.355469 78.839844 106.523438 76.261719 L 106.511719 76.265625 C 105.683594 76.023438 104.796875 76.078125 104.007812 76.425781 C 94.179688 81.203125 84.386719 86.058594 74.59375 90.894531 C 72.550781 91.902344 70.519531 92.921875 68.292969 94.027344 M 102.414062 72.6875 C 96.480469 60.644531 90.621094 48.777344 84.617188 36.59375 L 66.347656 90.496094 L 102.414062 72.6875 M 26.25 84.011719 C 31.992188 81.171875 37.410156 78.472656 42.839844 75.796875 C 52.070312 71.246094 61.300781 66.6875 70.542969 62.167969 L 70.542969 62.164062 C 71.472656 61.757812 72.171875 60.964844 72.457031 59.992188 C 76.070312 49.214844 79.734375 38.457031 83.386719 27.695312 C 83.523438 27.296875 83.6875 26.90625 83.9375 26.25 C 84.304688 26.964844 84.578125 27.46875 84.828125 27.976562 C 91.890625 42.308594 98.941406 56.640625 106.058594 70.941406 C 106.40625 71.632812 107.320312 72.210938 108.101562 72.480469 C 118.789062 76.164062 129.5 79.789062 140.207031 83.425781 C 140.609375 83.5625 141.011719 83.710938 141.75 83.972656 C 140.761719 84.472656 140.035156 84.855469 139.296875 85.21875 C 125.5 92.027344 111.707031 98.851562 97.890625 105.613281 C 96.628906 106.167969 95.679688 107.253906 95.304688 108.582031 C 91.738281 119.261719 88.085938 129.90625 84.457031 140.566406 C 84.355469 140.859375 84.238281 141.144531 84 141.753906 C 83.070312 139.890625 82.265625 138.300781 81.480469 136.703125 C 75.054688 123.671875 68.625 110.640625 62.234375 97.589844 L 62.234375 97.585938 C 61.792969 96.558594 60.921875 95.78125 59.851562 95.460938 C 49.132812 91.875 38.429688 88.214844 27.726562 84.578125 C 27.332031 84.441406 26.949219 84.277344 26.25 84.011719 "/>
</g>
</svg>
