<?xml version="1.0" encoding="UTF-8"?>
<svg xmlns="http://www.w3.org/2000/svg" xmlns:xlink="http://www.w3.org/1999/xlink" width="168pt" height="168pt" viewBox="0 0 168 168" version="1.1">
<g id="surface2365">
<path style=" stroke:none;fill-rule:nonzero;fill:rgb(21.176471%,66.27451%,81.176471%);fill-opacity:1;" d="M 168 84 C 168 130.390625 130.390625 168 84 168 C 37.609375 168 0 130.390625 0 84 C 0 37.609375 37.609375 0 84 0 C 130.390625 0 168 37.609375 168 84 "/>
<path style=" stroke:none;fill-rule:evenodd;fill:rgb(100%,100%,100%);fill-opacity:1;" d="M 138.128906 96.992188 C 139.054688 97.394531 139.394531 98.652344 138.894531 99.796875 C 138.589844 100.570312 137.902344 101.121094 137.082031 101.25 L 125.402344 122.789062 L 125.402344 122.792969 C 125.613281 123.769531 125.289062 124.789062 124.550781 125.464844 C 123.964844 126.074219 123.140625 126.394531 122.296875 126.339844 L 99.515625 139.980469 L 99.519531 139.980469 C 99.160156 140.894531 98.339844 141.546875 97.367188 141.691406 C 96.242188 141.90625 95.171875 141.496094 94.65625 140.734375 L 67.890625 138.859375 L 67.894531 138.863281 C 67.21875 139.375 66.347656 139.558594 65.523438 139.355469 C 64.199219 139.066406 63.285156 138.011719 63.339844 136.925781 L 42.660156 122.003906 C 41.785156 122.160156 40.886719 121.886719 40.246094 121.269531 C 39.34375 120.449219 39.019531 119.257812 39.363281 118.355469 L 30.859375 98.632812 C 29.929688 98.449219 29.125 97.535156 28.917969 96.328125 C 28.746094 95.242188 29.101562 94.21875 29.769531 93.671875 L 31.023438 63.816406 L 31.023438 63.8125 C 30.449219 63.03125 30.308594 62.011719 30.65625 61.105469 C 31.078125 59.882812 32.089844 59.109375 33.085938 59.164062 L 55.410156 35.773438 C 55.214844 34.671875 56.054688 33.5 57.375 33.085938 L 57.371094 33.085938 C 58.199219 32.804688 59.113281 32.925781 59.839844 33.417969 L 91.960938 27.578125 C 92.375 26.632812 93.550781 26.078125 94.820312 26.300781 C 95.976562 26.5 96.839844 27.292969 97.046875 28.207031 L 111.882812 36.671875 C 112.714844 36.40625 113.621094 36.515625 114.367188 36.976562 C 115.1875 37.453125 115.742188 38.28125 115.867188 39.222656 L 122.25 43.515625 C 123.085938 43.289062 123.980469 43.464844 124.667969 43.988281 C 125.863281 44.847656 126.296875 46.351562 125.613281 47.347656 L 125.570312 47.398438 L 134.929688 65.667969 C 135.820312 65.546875 136.734375 66.238281 137.0625 67.335938 C 137.417969 68.539062 136.925781 69.761719 135.96875 70.066406 C 135.007812 70.382812 133.941406 69.65625 133.589844 68.460938 L 133.527344 68.199219 L 114.265625 57.882812 L 114.265625 57.886719 C 113.960938 58.316406 113.542969 58.660156 113.058594 58.875 L 113.058594 110.292969 C 114.355469 110.863281 115.066406 112.273438 114.757812 113.65625 L 122.582031 121.625 C 122.984375 121.457031 123.421875 121.394531 123.851562 121.449219 L 135.664062 100.574219 C 135.25 99.890625 135.210938 99.046875 135.554688 98.328125 C 136.054688 97.183594 137.207031 96.589844 138.128906 96.996094 Z M 138.148438 99.484375 C 138.347656 99.023438 138.207031 98.523438 137.839844 98.359375 C 137.472656 98.203125 137.011719 98.4375 136.8125 98.894531 C 136.613281 99.351562 136.75 99.851562 137.121094 100.019531 C 137.488281 100.175781 137.945312 99.941406 138.148438 99.484375 Z M 124.15625 124.640625 C 124.578125 124.21875 124.648438 123.601562 124.320312 123.253906 C 123.988281 122.90625 123.378906 122.964844 122.957031 123.378906 C 122.535156 123.800781 122.464844 124.421875 122.792969 124.769531 C 123.125 125.117188 123.738281 125.058594 124.15625 124.636719 Z M 120.855469 123.328125 L 120.914062 123.203125 L 113.410156 115.570312 L 113.410156 115.574219 C 112.960938 115.855469 112.445312 116.003906 111.914062 116.003906 C 110.789062 116 109.765625 115.347656 109.292969 114.324219 L 99.226562 114.324219 C 98.964844 114.871094 98.542969 115.324219 98.015625 115.625 L 98.996094 129.835938 C 99.382812 130.003906 99.730469 130.246094 99.992188 130.542969 Z M 98.972656 137.953125 L 117.175781 127.054688 L 100.585938 132.789062 L 100.585938 132.792969 C 100.363281 133.632812 99.75 134.320312 98.941406 134.636719 L 98.4375 137.597656 C 98.632812 137.691406 98.8125 137.8125 98.972656 137.960938 Z M 97.265625 140.777344 C 97.84375 140.671875 98.238281 140.199219 98.152344 139.71875 C 98.066406 139.246094 97.523438 138.941406 96.945312 139.058594 C 96.375 139.164062 95.972656 139.636719 96.058594 140.113281 C 96.148438 140.589844 96.6875 140.890625 97.265625 140.78125 Z M 94.621094 138.6875 L 94.621094 138.695312 C 94.96875 138.121094 95.515625 137.691406 96.152344 137.488281 L 96.628906 134.679688 L 96.632812 134.679688 C 96.207031 134.519531 95.824219 134.265625 95.511719 133.933594 L 74.628906 137.304688 Z M 75.085938 115.921875 L 68.292969 135.960938 L 94.628906 131.707031 L 75.996094 115.535156 L 75.992188 115.546875 C 75.714844 115.726562 75.40625 115.855469 75.085938 115.929688 Z M 66.34375 134.585938 L 72.820312 115.480469 L 72.824219 115.488281 C 72.394531 115.195312 72.054688 114.789062 71.835938 114.320312 L 59.992188 114.320312 C 59.917969 114.464844 59.835938 114.605469 59.746094 114.738281 Z M 65.539062 138.445312 C 66.117188 138.570312 66.664062 138.289062 66.757812 137.816406 C 66.863281 137.34375 66.480469 136.855469 65.902344 136.722656 C 65.324219 136.601562 64.777344 136.878906 64.679688 137.351562 C 64.578125 137.835938 64.964844 138.316406 65.539062 138.445312 Z M 44.085938 120.539062 L 64.0625 134.957031 L 57.75 115.972656 C 56.828125 116.09375 55.902344 115.761719 55.265625 115.078125 L 44.121094 119.933594 L 44.121094 119.9375 C 44.136719 120.136719 44.125 120.339844 44.089844 120.539062 Z M 42.21875 117.398438 L 42.214844 117.402344 C 42.5 117.527344 42.765625 117.691406 43.003906 117.890625 L 54.464844 112.902344 C 54.484375 112.332031 54.667969 111.785156 54.988281 111.316406 L 37.265625 93 Z M 42.097656 120.59375 C 42.414062 120.238281 42.308594 119.617188 41.871094 119.21875 C 41.429688 118.824219 40.820312 118.792969 40.507812 119.15625 C 40.191406 119.523438 40.289062 120.144531 40.726562 120.535156 C 41.167969 120.929688 41.78125 120.957031 42.089844 120.59375 Z M 32.699219 97.84375 L 38.800781 111.980469 L 34.710938 91.832031 L 33.097656 95.265625 L 33.097656 95.273438 C 33.359375 96.148438 33.214844 97.09375 32.695312 97.847656 Z M 32.550781 75.058594 L 31.816406 92.65625 L 33.277344 89.558594 L 33.273438 89.566406 C 32.785156 88.632812 32.828125 87.511719 33.394531 86.625 Z M 31.5 61.148438 C 31.300781 61.714844 31.515625 62.304688 31.960938 62.464844 C 32.414062 62.621094 32.925781 62.296875 33.121094 61.730469 C 33.316406 61.164062 33.109375 60.574219 32.660156 60.414062 C 32.207031 60.257812 31.695312 60.582031 31.496094 61.148438 Z M 35.929688 88.203125 C 35.929688 87.605469 35.492188 87.121094 34.96875 87.121094 C 34.4375 87.121094 34.003906 87.605469 34.003906 88.203125 C 34.003906 88.808594 34.441406 89.289062 34.96875 89.289062 C 35.492188 89.289062 35.929688 88.804688 35.929688 88.203125 Z M 34.722656 62.550781 L 34.722656 62.546875 C 34.574219 62.996094 34.328125 63.402344 34.003906 63.742188 L 35.527344 84.691406 L 44.871094 55.140625 L 34.871094 61.929688 L 34.871094 61.921875 C 34.839844 62.136719 34.792969 62.34375 34.722656 62.546875 Z M 50.609375 43.726562 L 37.832031 57.113281 L 44.378906 52.671875 C 44.464844 52.074219 44.726562 51.515625 45.125 51.0625 C 45.535156 50.574219 46.089844 50.230469 46.710938 50.078125 Z M 57.191406 37.390625 L 48.863281 50.945312 C 49.0625 51.320312 49.152344 51.746094 49.113281 52.167969 L 55.28125 54.0625 L 55.28125 54.066406 C 55.9375 53.363281 56.898438 53.035156 57.84375 53.191406 C 58.792969 53.347656 59.597656 53.96875 59.992188 54.839844 L 70.320312 54.839844 C 70.707031 54.007812 71.464844 53.402344 72.367188 53.214844 L 77.980469 41.277344 L 77.976562 41.277344 C 77.675781 40.878906 77.476562 40.410156 77.402344 39.914062 L 60.246094 36.113281 L 60.242188 36.113281 C 59.855469 36.679688 59.285156 37.09375 58.625 37.289062 C 58.164062 37.4375 57.671875 37.476562 57.195312 37.394531 Z M 57.496094 33.960938 C 56.933594 34.132812 56.59375 34.652344 56.730469 35.117188 C 56.871094 35.585938 57.4375 35.816406 57.996094 35.640625 C 58.558594 35.46875 58.90625 34.949219 58.761719 34.484375 C 58.625 34.015625 58.0625 33.78125 57.496094 33.960938 Z M 90.296875 29.949219 L 64.402344 34.664062 L 77.949219 37.660156 L 77.953125 37.664062 C 78.703125 36.636719 80.035156 36.226562 81.234375 36.648438 Z M 93.472656 30.457031 L 83.816406 37.597656 L 110.300781 38.332031 L 110.359375 38.132812 L 96.320312 30.132812 L 96.328125 30.136719 C 95.679688 30.609375 94.867188 30.789062 94.078125 30.632812 C 93.875 30.597656 93.671875 30.539062 93.476562 30.460938 Z M 94.722656 27.207031 C 94.144531 27.101562 93.605469 27.40625 93.527344 27.890625 C 93.449219 28.363281 93.84375 28.835938 94.425781 28.941406 C 95.003906 29.046875 95.539062 28.742188 95.621094 28.257812 C 95.707031 27.785156 95.300781 27.3125 94.722656 27.207031 Z M 111.695312 41.511719 L 111.699219 41.515625 C 111.339844 41.296875 111.027344 41.007812 110.78125 40.667969 L 83.148438 39.898438 C 83.128906 40.0625 83.089844 40.226562 83.039062 40.382812 L 94.191406 53.238281 L 94.191406 53.242188 C 95.515625 52.953125 96.867188 53.617188 97.445312 54.847656 L 109.292969 54.847656 C 109.582031 54.230469 110.078125 53.734375 110.691406 53.441406 Z M 111.90625 54.941406 C 111.269531 54.941406 110.75 55.476562 110.75 56.132812 C 110.75 56.789062 111.269531 57.320312 111.90625 57.320312 C 112.550781 57.320312 113.078125 56.789062 113.078125 56.132812 C 113.078125 55.476562 112.554688 54.941406 111.914062 54.941406 Z M 112.425781 38.140625 C 112.136719 38.644531 112.351562 39.328125 112.910156 39.652344 C 113.460938 39.988281 114.148438 39.847656 114.433594 39.335938 C 114.726562 38.832031 114.511719 38.15625 113.957031 37.824219 C 113.402344 37.492188 112.71875 37.636719 112.429688 38.140625 Z M 132.980469 66.058594 L 113.9375 41.976562 L 112.976562 53.363281 L 112.980469 53.371094 C 114.019531 53.796875 114.730469 54.773438 114.816406 55.890625 Z M 120.941406 45.074219 L 116.667969 42.207031 L 130.460938 60.160156 L 123.75 48.152344 L 123.753906 48.164062 C 123.191406 48.121094 122.652344 47.921875 122.199219 47.589844 C 121.308594 46.953125 120.835938 45.960938 120.9375 45.082031 Z M 122.9375 44.773438 C 122.664062 45.171875 122.832031 45.769531 123.316406 46.117188 C 123.792969 46.457031 124.410156 46.417969 124.679688 46.011719 C 124.953125 45.617188 124.785156 45.015625 124.308594 44.671875 C 123.820312 44.332031 123.210938 44.371094 122.945312 44.777344 Z M 93.695312 56.128906 C 93.695312 56.769531 94.195312 57.289062 94.828125 57.289062 L 94.832031 57.296875 C 95.464844 57.289062 95.972656 56.773438 95.96875 56.136719 C 95.976562 55.503906 95.464844 54.980469 94.832031 54.972656 C 94.195312 54.980469 93.6875 55.503906 93.691406 56.136719 Z M 94.320312 81.1875 L 94.320312 81.195312 C 94.007812 81.199219 93.710938 81.324219 93.492188 81.546875 C 93.273438 81.769531 93.152344 82.070312 93.15625 82.382812 C 93.15625 83.039062 93.679688 83.574219 94.320312 83.574219 C 94.632812 83.570312 94.929688 83.441406 95.148438 83.21875 C 95.367188 82.996094 95.484375 82.695312 95.480469 82.382812 C 95.484375 82.070312 95.367188 81.769531 95.148438 81.546875 C 94.929688 81.324219 94.632812 81.199219 94.320312 81.195312 Z M 79.109375 39.0625 C 79.109375 39.71875 79.628906 40.25 80.269531 40.25 L 80.273438 40.257812 C 80.585938 40.253906 80.882812 40.128906 81.101562 39.90625 C 81.320312 39.683594 81.441406 39.382812 81.4375 39.070312 C 81.4375 38.414062 80.914062 37.878906 80.273438 37.878906 C 79.960938 37.882812 79.664062 38.011719 79.445312 38.234375 C 79.226562 38.457031 79.109375 38.757812 79.113281 39.070312 Z M 79.960938 42.40625 L 74.636719 53.71875 L 74.640625 53.726562 C 75.871094 54.632812 76.21875 56.328125 75.441406 57.644531 L 93.1875 79.640625 C 93.351562 79.574219 93.519531 79.523438 93.691406 79.484375 L 93.691406 58.871094 L 93.691406 58.875 C 92.902344 58.53125 92.304688 57.863281 92.042969 57.042969 C 91.785156 56.222656 91.894531 55.332031 92.34375 54.601562 L 81.527344 42.136719 C 81.042969 42.371094 80.5 42.46875 79.960938 42.414062 Z M 71.769531 56.128906 C 71.769531 56.785156 72.292969 57.316406 72.933594 57.316406 C 73.570312 57.316406 74.09375 56.785156 74.09375 56.128906 C 74.09375 55.472656 73.570312 54.9375 72.933594 54.9375 L 72.9375 54.945312 C 72.289062 54.957031 71.765625 55.488281 71.773438 56.136719 Z M 56.230469 56.128906 C 56.230469 56.769531 56.734375 57.289062 57.363281 57.289062 C 57.992188 57.289062 58.503906 56.769531 58.503906 56.128906 C 58.503906 55.484375 57.996094 54.964844 57.363281 54.964844 C 56.734375 54.964844 56.230469 55.488281 56.230469 56.128906 Z M 57.363281 111.832031 L 57.367188 111.839844 C 57.054688 111.84375 56.761719 111.972656 56.542969 112.195312 C 56.328125 112.417969 56.207031 112.714844 56.210938 113.027344 C 56.210938 113.683594 56.726562 114.214844 57.367188 114.214844 C 57.679688 114.210938 57.976562 114.085938 58.195312 113.863281 C 58.414062 113.640625 58.535156 113.339844 58.53125 113.027344 C 58.535156 112.714844 58.414062 112.414062 58.195312 112.191406 C 57.976562 111.96875 57.679688 111.84375 57.367188 111.839844 Z M 45.835938 51.675781 C 45.453125 52.128906 45.421875 52.753906 45.785156 53.074219 C 46.136719 53.390625 46.742188 53.292969 47.128906 52.839844 C 47.515625 52.394531 47.542969 51.769531 47.1875 51.449219 C 46.832031 51.125 46.230469 51.230469 45.839844 51.679688 Z M 37.304688 86.636719 C 37.601562 87.105469 37.753906 87.648438 37.753906 88.199219 C 37.753906 88.777344 37.597656 89.3125 37.324219 89.746094 L 56.234375 109.285156 L 56.234375 58.871094 L 56.234375 58.875 C 55.183594 58.410156 54.496094 57.386719 54.464844 56.242188 L 48.050781 54.273438 L 48.046875 54.273438 C 47.847656 54.457031 47.625 54.609375 47.386719 54.730469 Z M 96.597656 110.050781 C 97.851562 110.050781 98.917969 110.863281 99.328125 111.992188 L 109.191406 111.992188 C 109.460938 111.230469 110.035156 110.617188 110.773438 110.292969 L 110.773438 58.875 C 110.035156 58.550781 109.460938 57.933594 109.191406 57.171875 L 97.554688 57.171875 C 97.28125 57.933594 96.707031 58.546875 95.96875 58.875 L 95.96875 79.925781 C 96.765625 80.492188 97.234375 81.40625 97.230469 82.382812 C 97.246094 84.007812 95.945312 85.339844 94.320312 85.359375 C 93.539062 85.351562 92.796875 85.03125 92.25 84.472656 C 91.703125 83.917969 91.402344 83.164062 91.414062 82.382812 C 91.414062 82.015625 91.476562 81.664062 91.601562 81.332031 L 73.605469 59.03125 C 72.164062 59.363281 70.707031 58.5625 70.207031 57.171875 L 60.09375 57.171875 L 60.097656 57.171875 C 59.820312 57.933594 59.246094 58.546875 58.507812 58.875 L 58.507812 110.292969 C 59.242188 110.609375 59.816406 111.226562 60.097656 111.992188 L 71.726562 111.992188 C 72 111.234375 72.578125 110.617188 73.316406 110.292969 L 73.316406 88.925781 C 72.445312 88.378906 71.917969 87.421875 71.917969 86.394531 C 71.910156 85.613281 72.210938 84.859375 72.757812 84.300781 C 73.304688 83.742188 74.050781 83.425781 74.832031 83.417969 C 75.800781 83.421875 76.707031 83.902344 77.253906 84.703125 C 77.796875 85.503906 77.914062 86.519531 77.5625 87.421875 L 95.847656 110.15625 C 96.09375 110.089844 96.347656 110.054688 96.601562 110.050781 Z M 97.859375 131.296875 C 97.230469 131.296875 96.703125 131.769531 96.703125 132.355469 C 96.703125 132.945312 97.226562 133.410156 97.859375 133.410156 C 98.503906 133.410156 99.03125 132.9375 99.03125 132.359375 C 99.03125 131.78125 98.507812 131.292969 97.867188 131.292969 Z M 95.4375 113.027344 C 95.4375 113.683594 95.957031 114.214844 96.59375 114.214844 C 96.90625 114.210938 97.207031 114.085938 97.425781 113.863281 C 97.644531 113.640625 97.769531 113.339844 97.765625 113.027344 C 97.769531 112.714844 97.648438 112.414062 97.429688 112.191406 C 97.210938 111.96875 96.910156 111.84375 96.601562 111.839844 C 95.953125 111.847656 95.433594 112.378906 95.441406 113.027344 Z M 73.664062 86.394531 C 73.664062 87.050781 74.1875 87.582031 74.828125 87.582031 C 75.46875 87.582031 75.988281 87.050781 75.988281 86.394531 C 75.988281 85.734375 75.46875 85.207031 74.828125 85.207031 C 74.1875 85.207031 73.664062 85.730469 73.664062 86.394531 Z M 74.453125 111.839844 L 74.457031 111.839844 C 74.144531 111.84375 73.84375 111.96875 73.628906 112.191406 C 73.410156 112.414062 73.289062 112.714844 73.289062 113.027344 C 73.289062 113.683594 73.8125 114.214844 74.453125 114.214844 C 75.09375 114.214844 75.613281 113.683594 75.613281 113.027344 L 75.617188 113.027344 C 75.621094 112.714844 75.5 112.414062 75.28125 112.191406 C 75.0625 111.96875 74.765625 111.84375 74.457031 111.839844 Z M 75.585938 110.292969 L 75.589844 110.292969 C 76.882812 110.859375 77.597656 112.257812 77.300781 113.636719 L 96.164062 130 C 96.335938 129.902344 96.515625 129.816406 96.703125 129.753906 L 95.738281 115.871094 C 94.511719 115.46875 93.683594 114.320312 93.691406 113.027344 C 93.691406 112.503906 93.824219 112.015625 94.058594 111.59375 L 75.984375 89.125 C 75.855469 89.179688 75.722656 89.226562 75.589844 89.261719 Z M 113.070312 113.023438 L 113.074219 113.023438 C 113.078125 112.710938 112.957031 112.414062 112.738281 112.191406 C 112.519531 111.96875 112.226562 111.84375 111.914062 111.839844 C 111.601562 111.84375 111.304688 111.96875 111.085938 112.191406 C 110.867188 112.414062 110.746094 112.714844 110.75 113.027344 C 110.75 113.683594 111.273438 114.214844 111.914062 114.214844 C 112.554688 114.214844 113.078125 113.683594 113.078125 113.027344 Z M 30.59375 97.164062 C 31.066406 97.085938 31.367188 96.539062 31.265625 95.953125 C 31.160156 95.359375 30.703125 94.945312 30.238281 95.027344 C 29.765625 95.105469 29.472656 95.65625 29.570312 96.246094 C 29.664062 96.839844 30.125 97.253906 30.59375 97.164062 Z M 135.449219 67.164062 C 135.070312 67.285156 134.871094 67.777344 135.011719 68.257812 C 135.152344 68.734375 135.578125 69.023438 135.957031 68.902344 C 136.34375 68.78125 136.535156 68.289062 136.398438 67.808594 C 136.261719 67.324219 135.832031 67.042969 135.453125 67.164062 Z M 135.449219 67.164062 "/>
</g>
</svg>
