<?xml version="1.0" encoding="UTF-8"?>
<svg xmlns="http://www.w3.org/2000/svg" xmlns:xlink="http://www.w3.org/1999/xlink" width="168pt" height="168pt" viewBox="0 0 168 168" version="1.1">
<g id="surface1989">
<path style=" stroke:none;fill-rule:nonzero;fill:rgb(38.431373%,18.431373%,72.941176%);fill-opacity:1;" d="M 168 84 C 168 130.390625 130.390625 168 84 168 C 37.609375 168 0 130.390625 0 84 C 0 37.609375 37.609375 0 84 0 C 130.390625 0 168 37.609375 168 84 "/>
<path style=" stroke:none;fill-rule:evenodd;fill:rgb(100%,100%,100%);fill-opacity:1;" d="M 97.578125 91.222656 C 97.121094 91.363281 96.679688 91.539062 96.25 91.738281 L 76.949219 71.679688 C 78.496094 68.996094 78.71875 65.746094 77.546875 62.878906 C 76.378906 60.011719 73.949219 57.84375 70.964844 57.007812 L 70.964844 42.976562 L 65.800781 40.089844 L 77.734375 33.1875 L 77.730469 33.183594 C 81.609375 30.941406 86.390625 30.941406 90.269531 33.183594 L 113.996094 46.917969 L 104.621094 52.339844 L 104.617188 52.34375 C 101.511719 50.964844 97.925781 51.25 95.078125 53.101562 C 92.230469 54.953125 90.515625 58.117188 90.515625 61.515625 C 90.515625 65.910156 93.378906 69.789062 97.578125 71.089844 Z M 103.550781 91.222656 L 103.550781 71.085938 C 106.457031 70.183594 108.796875 68.011719 109.910156 65.179688 C 111.027344 62.351562 110.796875 59.167969 109.285156 56.527344 L 119.941406 50.363281 L 125.035156 53.304688 C 128.882812 55.53125 131.25 59.640625 131.25 64.085938 L 131.25 103.914062 C 131.25 108.355469 128.882812 112.460938 125.027344 114.691406 L 103.554688 127.125 L 103.554688 110.367188 C 107.742188 109.054688 110.589844 105.179688 110.589844 100.792969 C 110.589844 96.40625 107.738281 92.53125 103.550781 91.222656 Z M 91.859375 95.785156 C 90.339844 98.425781 90.101562 101.613281 91.214844 104.449219 C 92.328125 107.285156 94.667969 109.460938 97.578125 110.367188 L 97.578125 130.585938 L 90.269531 134.816406 C 86.390625 137.058594 81.609375 137.058594 77.730469 134.816406 L 52.183594 120.03125 L 61.78125 112.535156 C 63.59375 114.054688 65.882812 114.882812 68.246094 114.878906 C 70.90625 114.882812 73.460938 113.832031 75.347656 111.949219 C 77.230469 110.070312 78.292969 107.515625 78.292969 104.851562 C 78.289062 100.355469 75.289062 96.410156 70.960938 95.203125 L 70.960938 76.3125 C 71.511719 76.160156 72.046875 75.960938 72.558594 75.71875 Z M 64.988281 95.371094 C 59.984375 97.082031 57.167969 102.382812 58.554688 107.488281 L 46.628906 116.8125 L 42.96875 114.695312 L 42.972656 114.695312 C 39.121094 112.472656 36.75 108.359375 36.75 103.914062 L 36.75 64.085938 C 36.75 59.644531 39.117188 55.539062 42.972656 53.308594 L 59.800781 43.566406 L 65 46.46875 L 65 57.179688 L 64.996094 57.179688 C 60.945312 58.566406 58.222656 62.375 58.222656 66.660156 C 58.21875 70.941406 60.9375 74.753906 64.988281 76.144531 Z M 68.25 70.996094 C 67.074219 71.039062 65.929688 70.601562 65.082031 69.785156 C 64.234375 68.964844 63.753906 67.839844 63.753906 66.660156 C 63.75 65.484375 64.226562 64.355469 65.074219 63.539062 C 65.921875 62.71875 67.0625 62.277344 68.238281 62.316406 C 70.578125 62.394531 72.433594 64.3125 72.4375 66.652344 C 72.4375 68.992188 70.585938 70.910156 68.25 70.996094 Z M 68.25 109.191406 C 67.074219 109.230469 65.929688 108.792969 65.082031 107.976562 C 64.234375 107.160156 63.753906 106.035156 63.753906 104.855469 C 63.75 103.679688 64.226562 102.550781 65.074219 101.730469 C 65.921875 100.910156 67.0625 100.472656 68.238281 100.511719 C 70.578125 100.589844 72.433594 102.507812 72.4375 104.84375 C 72.4375 107.183594 70.585938 109.105469 68.25 109.191406 Z M 100.5625 65.851562 C 99.386719 65.894531 98.242188 65.457031 97.394531 64.636719 C 96.546875 63.820312 96.066406 62.695312 96.066406 61.515625 C 96.066406 60.339844 96.542969 59.210938 97.386719 58.390625 C 98.234375 57.574219 99.375 57.132812 100.554688 57.171875 C 102.890625 57.25 104.746094 59.167969 104.75 61.507812 C 104.753906 63.847656 102.902344 65.765625 100.5625 65.851562 Z M 100.5625 105.132812 C 98.164062 105.132812 96.21875 103.191406 96.214844 100.792969 C 96.214844 98.398438 98.15625 96.449219 100.554688 96.449219 C 102.949219 96.445312 104.898438 98.386719 104.898438 100.785156 C 104.902344 103.183594 102.960938 105.128906 100.5625 105.132812 Z M 100.5625 105.132812 "/>
</g>
</svg>
