<?xml version="1.0" encoding="UTF-8"?>
<svg xmlns="http://www.w3.org/2000/svg" xmlns:xlink="http://www.w3.org/1999/xlink" width="168pt" height="168pt" viewBox="0 0 168 168" version="1.1">
<g id="surface1311">
<path style=" stroke:none;fill-rule:evenodd;fill:rgb(31.372549%,27.843137%,61.960784%);fill-opacity:1;" d="M 168 84 C 168 130.390625 130.390625 168 84 168 C 37.609375 168 0 130.390625 0 84 C 0 37.609375 37.609375 0 84 0 C 130.390625 0 168 37.609375 168 84 "/>
<path style=" stroke:none;fill-rule:nonzero;fill:rgb(100%,100%,100%);fill-opacity:1;" d="M 106.890625 71.714844 L 106.890625 96.832031 L 84.277344 109.257812 L 84.277344 84.152344 L 106.882812 71.726562 Z M 133.875 65.277344 L 133.875 102.714844 C 133.875 105.375 133.140625 107.980469 131.757812 110.242188 C 130.394531 112.5 128.414062 114.414062 125.960938 115.765625 L 109.097656 125.03125 L 109.101562 100.328125 L 111.234375 99.15625 L 111.234375 69.339844 L 131.886719 57.984375 C 133.167969 60.1875 133.875 62.683594 133.875 65.28125 Z M 42.035156 115.769531 C 39.738281 114.511719 37.796875 112.691406 36.394531 110.480469 C 34.917969 108.160156 34.128906 105.46875 34.125 102.722656 L 34.125 78.75 L 57.351562 96.890625 L 57.351562 97.898438 L 57.386719 98.9375 L 59.191406 100.003906 L 82.375 112.75 L 84.285156 113.800781 L 84.289062 136.5 C 81.425781 136.558594 78.601562 135.867188 76.089844 134.496094 L 42.035156 115.761719 Z M 41.070312 52.816406 L 65.625 39.375 L 82.320312 55.546875 L 57.351562 69.316406 L 57.351562 71.417969 L 34.175781 84.140625 L 34.125 65.273438 C 34.125 62.613281 34.859375 59.996094 36.25 57.734375 C 37.46875 55.738281 39.117188 54.058594 41.070312 52.808594 Z M 125.960938 52.234375 L 125.964844 52.230469 C 128.421875 53.574219 130.46875 55.5625 131.886719 57.980469 L 111.234375 69.335938 L 111.234375 69.148438 L 109.101562 67.976562 L 86.347656 55.472656 L 109.101562 42.960938 L 125.964844 52.234375 Z M 34.175781 84.152344 L 57.347656 71.410156 L 57.347656 96.886719 L 34.175781 84.148438 Z M 84.285156 54.496094 L 84.289062 31.5 C 86.957031 31.539062 89.570312 32.230469 91.910156 33.511719 L 109.097656 42.960938 L 86.34375 55.464844 L 84.285156 54.492188 Z M 82.375 55.546875 L 59.234375 42.832031 L 77.09375 33.007812 L 77.097656 33.007812 C 79.351562 31.96875 81.808594 31.453125 84.289062 31.5 L 84.289062 54.496094 L 82.378906 55.546875 Z M 84.433594 113.878906 L 86.34375 112.828125 L 108.824219 125.1875 L 91.910156 134.492188 L 91.910156 134.488281 C 89.570312 135.765625 86.953125 136.457031 84.289062 136.496094 L 84.289062 113.800781 L 84.4375 113.878906 Z M 109.097656 100.324219 L 109.097656 125.035156 L 108.824219 125.1875 L 86.34375 112.828125 Z M 109.097656 100.324219 "/>
</g>
</svg>
