<?xml version="1.0" encoding="UTF-8"?>
<svg xmlns="http://www.w3.org/2000/svg" xmlns:xlink="http://www.w3.org/1999/xlink" width="168pt" height="168pt" viewBox="0 0 168 168" version="1.1">
<g id="surface1471">
<path style=" stroke:none;fill-rule:nonzero;fill:rgb(70.196078%,72.941176%,0%);fill-opacity:1;" d="M 168 84 C 168 130.390625 130.390625 168 84 168 C 37.609375 168 0 130.390625 0 84 C 0 37.609375 37.609375 0 84 0 C 130.390625 0 168 37.609375 168 84 "/>
<path style=" stroke:none;fill-rule:nonzero;fill:rgb(100%,100%,100%);fill-opacity:1;" d="M 68.933594 55.984375 L 68.25 56.398438 L 99.75 105 L 99.75 56.359375 L 84.019531 47.25 Z M 68.25 111.117188 L 84.714844 120.75 L 99.75 111.972656 L 68.25 63 Z M 52.5 64.871094 L 52.5 103.132812 L 63 110.25 L 63 57.75 Z M 105 110.25 L 115.5 102.96875 L 115.5 65.03125 L 105 57.75 Z M 105 110.25 "/>
<path style=" stroke:none;fill-rule:nonzero;fill:rgb(100%,100%,100%);fill-opacity:1;" d="M 84 21 C 49.21875 21 21 49.21875 21 84 C 21 118.78125 49.21875 147 84 147 C 118.78125 147 147 118.78125 147 84 C 147 49.21875 118.78125 21 84 21 Z M 83.738281 124.003906 L 49.738281 103.84375 L 49.738281 63.585938 L 83.742188 43.476562 L 117.742188 63.585938 L 117.742188 103.847656 L 83.742188 123.996094 Z M 83.738281 124.003906 "/>
</g>
</svg>
