<?xml version="1.0" encoding="UTF-8"?>
<svg xmlns="http://www.w3.org/2000/svg" xmlns:xlink="http://www.w3.org/1999/xlink" width="168pt" height="168pt" viewBox="0 0 168 168" version="1.1">
<g id="surface446">
<path style=" stroke:none;fill-rule:nonzero;fill:rgb(10.196078%,25.490196%,60%);fill-opacity:1;" d="M 168 84 C 168 130.390625 130.390625 168 84 168 C 37.609375 168 0 130.390625 0 84 C 0 37.609375 37.609375 0 84 0 C 130.390625 0 168 37.609375 168 84 "/>
<path style=" stroke:none;fill-rule:nonzero;fill:rgb(100%,100%,100%);fill-opacity:0.7;" d="M 56.050781 37.40625 L 112.394531 69.910156 L 112.394531 103.085938 L 26.25 53.335938 L 53.890625 37.40625 C 54.574219 37.011719 55.414062 37.011719 56.097656 37.40625 "/>
<path style=" stroke:none;fill-rule:nonzero;fill:rgb(100%,100%,100%);fill-opacity:0.9;" d="M 112.390625 36.75 L 83.6875 53.339844 L 112.390625 69.910156 Z M 112.390625 36.75 "/>
<path style=" stroke:none;fill-rule:nonzero;fill:rgb(100%,100%,100%);fill-opacity:1;" d="M 112.390625 36.75 L 140.027344 52.6875 C 140.734375 53.074219 141.179688 53.8125 141.183594 54.617188 L 141.183594 119.660156 L 112.394531 103.085938 Z M 112.390625 36.75 "/>
<path style=" stroke:none;fill-rule:nonzero;fill:rgb(100%,100%,100%);fill-opacity:0.9;" d="M 141.125 119.65625 L 113.488281 135.578125 L 113.488281 135.582031 C 112.800781 135.953125 111.972656 135.953125 111.285156 135.582031 L 54.941406 103.085938 L 54.941406 69.863281 L 141.125 119.660156 Z M 141.125 119.65625 "/>
<path style=" stroke:none;fill-rule:nonzero;fill:rgb(100%,100%,100%);fill-opacity:0.6;" d="M 26.25 53.339844 L 26.25 118.371094 C 26.253906 119.179688 26.695312 119.917969 27.40625 120.304688 L 55.046875 136.242188 L 55.046875 69.863281 Z M 26.25 53.339844 "/>
<path style=" stroke:none;fill-rule:nonzero;fill:rgb(100%,100%,100%);fill-opacity:0.7;" d="M 55 136.238281 L 83.691406 119.660156 L 55 103.085938 Z M 55 136.238281 "/>
</g>
</svg>
