<?xml version="1.0" encoding="UTF-8"?>
<svg xmlns="http://www.w3.org/2000/svg" xmlns:xlink="http://www.w3.org/1999/xlink" width="168pt" height="168pt" viewBox="0 0 168 168" version="1.1">
<g id="surface2315">
<path style=" stroke:none;fill-rule:evenodd;fill:rgb(97.254902%,0%,0%);fill-opacity:1;" d="M 168 84 C 168 130.390625 130.390625 168 84 168 C 37.609375 168 0 130.390625 0 84 C 0 37.609375 37.609375 0 84 0 C 130.390625 0 168 37.609375 168 84 "/>
<path style=" stroke:none;fill-rule:nonzero;fill:rgb(100%,100%,100%);fill-opacity:1;" d="M 107.625 88.421875 L 72.472656 136.5 L 73.769531 97.433594 L 65.625 97.433594 L 68.953125 63.140625 L 106.144531 58.015625 L 93.933594 89.121094 Z M 78.761719 122.535156 L 78.761719 113.347656 C 78.761719 112.664062 78.183594 112.109375 77.46875 112.109375 C 76.753906 112.109375 76.171875 112.660156 76.171875 113.34375 L 76.171875 122.535156 C 76.171875 123.21875 76.75 123.773438 77.46875 123.773438 C 78.1875 123.773438 78.761719 123.21875 78.761719 122.535156 Z M 69.144531 94.785156 L 76.546875 94.785156 L 76.207031 108.921875 C 76.203125 109.292969 76.347656 109.65625 76.621094 109.917969 C 76.894531 110.179688 77.265625 110.339844 77.65625 110.339844 L 77.71875 110.339844 L 77.714844 110.339844 C 78.484375 110.355469 79.125 109.753906 79.160156 108.984375 L 79.5 92.304688 L 72.097656 92.304688 L 74.582031 64.90625 C 74.609375 64.589844 74.496094 64.277344 74.273438 64.039062 C 74.046875 63.804688 73.734375 63.671875 73.398438 63.671875 L 73.183594 63.671875 C 72.582031 63.660156 72.070312 64.105469 72 64.707031 Z M 69.144531 60.136719 L 82.835938 48.824219 C 83.570312 37.511719 76.167969 35.742188 76.167969 35.742188 L 77.28125 31.5 C 89.492188 35.035156 87.644531 48.46875 87.644531 48.46875 L 105.40625 55.890625 Z M 69.144531 60.136719 "/>
</g>
</svg>
