<?xml version="1.0" encoding="UTF-8"?>
<svg xmlns="http://www.w3.org/2000/svg" xmlns:xlink="http://www.w3.org/1999/xlink" width="168pt" height="168pt" viewBox="0 0 168 168" version="1.1">
<g id="surface1576">
<path style=" stroke:none;fill-rule:nonzero;fill:rgb(13.72549%,20%,43.529412%);fill-opacity:1;" d="M 168 84 C 168 130.390625 130.390625 168 84 168 C 37.609375 168 0 130.390625 0 84 C 0 37.609375 37.609375 0 84 0 C 130.390625 0 168 37.609375 168 84 "/>
<path style=" stroke:none;fill-rule:nonzero;fill:rgb(100%,100%,100%);fill-opacity:1;" d="M 86.546875 102.164062 C 86.546875 102.164062 101.839844 105.929688 113.953125 96.410156 C 126.066406 86.898438 125.6875 72.550781 125.6875 72.550781 C 125.6875 72.550781 111.984375 68.28125 99.53125 77.359375 C 87.082031 86.429688 86.546875 102.164062 86.546875 102.164062 Z M 86.5 109.339844 C 86.5 109.339844 89 120.101562 98.789062 124.667969 C 108.582031 129.234375 117.449219 124.453125 117.449219 124.453125 C 117.449219 124.453125 115.785156 114.519531 106.144531 109.59375 C 96.503906 104.679688 86.5 109.335938 86.5 109.335938 Z M 109.542969 104.683594 C 109.542969 104.683594 114.828125 110.558594 122.542969 110.027344 C 130.261719 109.492188 134.144531 103.429688 134.144531 103.429688 C 134.144531 103.429688 129.660156 97.792969 121.9375 98.042969 C 114.21875 98.300781 109.542969 104.683594 109.542969 104.683594 Z M 101.808594 67.582031 C 101.808594 67.582031 93.660156 54.109375 78.363281 52.273438 C 63.070312 50.4375 53.195312 60.851562 53.195312 60.851562 C 53.195312 60.851562 59.867188 73.554688 75.085938 75.945312 C 90.304688 78.335938 101.808594 67.582031 101.808594 67.582031 Z M 106.917969 62.542969 C 106.917969 62.542969 112.765625 53.171875 109.070312 43.011719 C 105.367188 32.863281 95.707031 29.976562 95.707031 29.976562 C 95.707031 29.976562 89.878906 38.183594 93.214844 48.46875 C 96.542969 58.757812 106.910156 62.550781 106.910156 62.550781 Z M 87.335938 49.550781 C 87.335938 49.550781 87.75 41.65625 81.917969 36.574219 C 76.082031 31.5 69.039062 33.03125 69.039062 33.03125 C 69.039062 33.03125 68.226562 40.191406 73.867188 45.472656 C 79.515625 50.765625 87.328125 49.546875 87.328125 49.546875 Z M 73.617188 86.101562 C 73.617188 86.101562 60.136719 94.25 58.304688 109.546875 C 56.46875 124.839844 66.878906 134.714844 66.878906 134.714844 C 66.878906 134.714844 79.582031 128.050781 81.972656 112.824219 C 84.363281 97.59375 73.621094 86.101562 73.621094 86.101562 Z M 68.566406 80.988281 C 68.566406 80.988281 59.183594 75.140625 49.035156 78.835938 C 38.886719 82.539062 35.996094 92.1875 35.996094 92.1875 C 35.996094 92.1875 44.207031 98.015625 54.488281 94.6875 C 64.777344 91.359375 68.570312 80.984375 68.570312 80.984375 Z M 55.578125 100.574219 C 55.578125 100.574219 47.683594 100.152344 42.609375 105.988281 C 37.527344 111.828125 39.054688 118.867188 39.054688 118.867188 C 39.054688 118.867188 46.214844 119.679688 51.503906 114.039062 C 56.789062 108.390625 55.578125 100.578125 55.578125 100.578125 Z M 55.578125 100.574219 "/>
</g>
</svg>
