<?xml version="1.0" encoding="UTF-8"?>
<svg xmlns="http://www.w3.org/2000/svg" xmlns:xlink="http://www.w3.org/1999/xlink" width="168pt" height="168pt" viewBox="0 0 168 168" version="1.1">
<g id="surface926">
<path style=" stroke:none;fill-rule:evenodd;fill:rgb(94.901961%,56.078431%,0.392157%);fill-opacity:1;" d="M 168 84 C 168 130.390625 130.390625 168 84 168 C 37.609375 168 0 130.390625 0 84 C 0 37.609375 37.609375 0 84 0 C 130.390625 0 168 37.609375 168 84 "/>
<path style=" stroke:none;fill-rule:evenodd;fill:rgb(100%,100%,100%);fill-opacity:1;" d="M 95.292969 72.023438 L 85.101562 51.992188 C 87.222656 47.371094 88.28125 44.746094 88.28125 44.144531 C 88.28125 41.976562 86.851562 40.390625 84.003906 39.378906 L 115.230469 39.378906 C 111.382812 41.113281 107.960938 45.441406 104.964844 52.378906 Z M 79.984375 103.144531 L 75.234375 112.804688 L 103.253906 112.804688 C 115.941406 112.804688 124.425781 110.425781 128.707031 105.664062 L 113.730469 128.625 L 37.160156 128.625 C 45.429688 127.035156 53.769531 117.074219 62.183594 98.730469 C 65.019531 93.09375 67.617188 87.882812 69.992188 83.117188 Z M 26.25 106.3125 C 32.449219 102.632812 55.125 63.410156 55.125 52.375 C 55.125 49.777344 53.554688 47.320312 50.421875 45.007812 L 74.804688 45.007812 L 95.976562 86.597656 L 116.515625 45.007812 L 141.75 45.007812 C 131.054688 47.820312 109.882812 98.273438 109.882812 104.144531 C 109.882812 105.300781 110.09375 106.023438 110.523438 106.3125 L 88.277344 106.3125 L 69.242188 68.1875 L 50.421875 106.3125 Z M 26.25 106.3125 "/>
</g>
</svg>
