<?xml version="1.0" encoding="UTF-8"?>
<svg xmlns="http://www.w3.org/2000/svg" xmlns:xlink="http://www.w3.org/1999/xlink" width="168pt" height="168pt" viewBox="0 0 168 168" version="1.1">
<g id="surface111">
<path style=" stroke:none;fill-rule:evenodd;fill:rgb(16.470588%,69.019608%,99.215686%);fill-opacity:1;" d="M 168 84 C 168 130.390625 130.390625 168 84 168 C 37.609375 168 0 130.390625 0 84 C 0 37.609375 37.609375 0 84 0 C 130.390625 0 168 37.609375 168 84 "/>
<path style=" stroke:none;fill-rule:evenodd;fill:rgb(100%,100%,100%);fill-opacity:1;" d="M 133.953125 77.722656 C 134.820312 77.710938 135.371094 77.828125 135.71875 78.144531 C 136.085938 78.480469 136.234375 79.027344 136.3125 79.882812 C 138.757812 108.121094 117.402344 133.648438 89.074219 136.269531 C 59.863281 138.972656 34.503906 117.894531 31.734375 88.597656 C 29.03125 60.144531 50.394531 34.335938 78.90625 31.742188 C 95.054688 30.273438 109 35.34375 120.738281 46.527344 C 120.859375 46.644531 120.832031 47.125 120.695312 47.261719 L 120.699219 47.261719 C 118.0625 49.945312 115.402344 52.609375 112.71875 55.246094 C 112.566406 55.394531 112.019531 55.371094 111.851562 55.21875 C 99.738281 44.121094 85.707031 40.832031 70.359375 46.425781 C 54.839844 52.078125 45.964844 63.789062 44.203125 80.273438 C 41.839844 102.582031 58.675781 122.242188 81.136719 123.9375 C 101.496094 125.46875 119.945312 111.058594 123.320312 90.941406 C 123.351562 90.742188 122.898438 90.242188 122.667969 90.242188 C 110.09375 90.207031 97.519531 90.214844 84.953125 90.167969 C 84.628906 90.167969 84.023438 89.5625 84.011719 89.234375 L 84.015625 89.234375 C 83.949219 85.71875 83.949219 82.207031 84.015625 78.691406 C 84.019531 78.375 84.582031 77.808594 84.890625 77.804688 C 93.269531 77.757812 125.976562 77.832031 133.945312 77.714844 Z M 133.953125 77.722656 "/>
</g>
</svg>
