<?xml version="1.0" encoding="UTF-8"?>
<svg xmlns="http://www.w3.org/2000/svg" xmlns:xlink="http://www.w3.org/1999/xlink" width="168pt" height="168pt" viewBox="0 0 168 168" version="1.1">
<g id="surface1826">
<path style=" stroke:none;fill-rule:evenodd;fill:rgb(9.411765%,42.352941%,61.568627%);fill-opacity:1;" d="M 168 84 C 168 130.390625 130.390625 168 84 168 C 37.609375 168 0 130.390625 0 84 C 0 37.609375 37.609375 0 84 0 C 130.390625 0 168 37.609375 168 84 "/>
<path style=" stroke:none;fill-rule:nonzero;fill:rgb(100%,100%,100%);fill-opacity:1;" d="M 101.121094 123.375 L 101.125 123.363281 C 101.933594 123.378906 102.742188 123.292969 103.53125 123.101562 C 108.128906 122.023438 112.019531 118.007812 112.945312 113.671875 L 131.25 44.917969 L 116.695312 44.84375 L 104.695312 89.824219 L 72.25 44.691406 L 72.230469 44.710938 L 72.246094 44.660156 L 66.886719 44.625 L 66.886719 44.628906 C 66.074219 44.617188 65.265625 44.703125 64.476562 44.886719 C 59.882812 45.96875 55.992188 49.984375 55.0625 54.316406 L 36.75 123.085938 L 51.308594 123.148438 L 63.304688 78.167969 L 95.75 123.308594 L 95.765625 123.308594 Z M 66.507812 66.179688 L 69.042969 56.675781 L 101.492188 101.820312 L 98.957031 111.324219 L 66.511719 66.175781 Z M 66.507812 66.179688 "/>
</g>
</svg>
