<?xml version="1.0" encoding="UTF-8"?>
<svg xmlns="http://www.w3.org/2000/svg" xmlns:xlink="http://www.w3.org/1999/xlink" width="168pt" height="168pt" viewBox="0 0 168 168" version="1.1">
<g id="surface1766">
<path style=" stroke:none;fill-rule:nonzero;fill:rgb(1.960784%,2.745098%,3.137255%);fill-opacity:1;" d="M 168 84 C 168 130.390625 130.390625 168 84 168 C 37.609375 168 0 130.390625 0 84 C 0 37.609375 37.609375 0 84 0 C 130.390625 0 168 37.609375 168 84 "/>
<path style=" stroke:none;fill-rule:nonzero;fill:rgb(100%,100%,100%);fill-opacity:1;" d="M 83.238281 26.324219 C 84.402344 26.097656 85.605469 26.394531 86.53125 27.132812 L 132.214844 61.074219 C 133.265625 61.863281 133.921875 63.175781 133.867188 64.507812 L 133.867188 103.484375 L 133.871094 103.484375 C 133.910156 104.90625 133.226562 106.253906 132.054688 107.0625 L 86.53125 140.882812 C 84.984375 142.089844 82.804688 142.03125 81.324219 140.753906 C 66.203125 129.519531 51.089844 118.285156 35.96875 107.058594 C 34.808594 106.242188 34.121094 104.90625 34.128906 103.488281 L 34.128906 64.53125 C 34.117188 63.117188 34.796875 61.785156 35.953125 60.964844 L 81.320312 27.261719 L 81.316406 27.257812 C 81.878906 26.804688 82.535156 26.484375 83.238281 26.324219 Z M 82.691406 131.398438 C 82.664062 132.007812 82.65625 132.621094 82.648438 133.230469 L 82.660156 136.890625 C 83.449219 136.902344 84.234375 136.90625 85.023438 136.890625 L 85.023438 131.511719 C 84.25 131.441406 83.472656 131.402344 82.691406 131.398438 Z M 73.714844 126.578125 L 72.390625 126.582031 C 73.335938 128.234375 74.234375 129.914062 75.199219 131.554688 C 75.988281 131.554688 76.773438 131.554688 77.570312 131.503906 C 76.941406 129.761719 75.855469 128.242188 75.039062 126.589844 L 75.042969 126.589844 C 74.160156 126.574219 73.277344 126.574219 72.390625 126.589844 Z M 88.03125 129.097656 C 88.015625 129.898438 88.023438 130.699219 88.046875 131.503906 L 90.25 131.503906 C 90.351562 130.722656 90.355469 129.9375 90.339844 129.152344 L 90.34375 129.148438 C 89.574219 129.105469 88.800781 129.085938 88.03125 129.097656 Z M 85.539062 116.199219 C 82.230469 116.21875 78.917969 116.179688 75.605469 116.226562 L 75.605469 116.222656 C 75.59375 116.976562 75.59375 117.730469 75.605469 118.480469 C 78.535156 118.546875 81.46875 118.496094 84.40625 118.511719 L 84.40625 123.914062 C 83.796875 123.917969 83.199219 123.898438 82.601562 123.960938 C 82.429688 124.675781 82.515625 125.414062 82.507812 126.144531 C 83.566406 126.175781 84.628906 126.171875 85.6875 126.148438 C 86.007812 125.785156 86.339844 125.433594 86.667969 125.078125 C 86.667969 122.503906 86.664062 119.933594 86.671875 117.359375 L 86.671875 117.363281 C 86.296875 116.972656 85.917969 116.585938 85.539062 116.199219 Z M 103.09375 119.222656 C 102.34375 118.855469 101.546875 117.605469 100.667969 118.355469 C 98.058594 120.09375 95.371094 121.714844 92.792969 123.5 C 92.804688 124.246094 92.808594 124.992188 92.859375 125.730469 C 95.273438 125.75 97.683594 125.761719 100.09375 125.726562 C 100.105469 124.9375 100.105469 124.152344 100.097656 123.363281 L 100.101562 123.363281 C 99.511719 123.351562 98.917969 123.34375 98.328125 123.34375 L 97.214844 123.355469 C 99.132812 122 101.136719 120.789062 103.09375 119.503906 Z M 68.75 120.523438 L 64.050781 120.539062 C 64.035156 121.328125 64.035156 122.113281 64.050781 122.910156 C 67.179688 122.925781 70.3125 122.941406 73.449219 122.898438 L 73.449219 120.542969 C 70.316406 120.507812 67.179688 120.523438 64.050781 120.539062 Z M 60.859375 117.074219 L 59.699219 117.078125 C 59.6875 117.867188 59.683594 118.660156 59.699219 119.449219 C 60.472656 119.460938 61.246094 119.460938 62.023438 119.449219 C 62.035156 118.660156 62.035156 117.875 62.023438 117.085938 L 62.023438 117.089844 C 61.25 117.074219 60.472656 117.070312 59.699219 117.082031 Z M 105.972656 108.601562 C 105.941406 109.894531 105.953125 111.183594 105.957031 112.476562 C 107.21875 114.417969 108.449219 116.378906 109.726562 118.308594 C 110.785156 116.679688 111.828125 115.023438 112.902344 113.398438 C 113.101562 113.042969 113.421875 112.695312 113.394531 112.253906 C 113.421875 111.074219 113.40625 109.890625 113.375 108.710938 C 112.398438 110.300781 111.355469 111.84375 110.382812 113.4375 C 110.164062 113.742188 110 114.128906 109.648438 114.289062 C 108.378906 112.421875 107.207031 110.488281 105.972656 108.601562 Z M 98.4375 105.699219 C 96.960938 105.703125 95.488281 105.6875 94.007812 105.714844 C 93.144531 108.9375 92.246094 112.152344 91.308594 115.359375 L 93.585938 115.375 L 95.621094 107.914062 L 96.859375 107.976562 C 97.519531 110.4375 98.222656 112.886719 98.871094 115.351562 C 99.628906 115.367188 100.394531 115.367188 101.148438 115.367188 Z M 52.488281 111.105469 L 50.425781 111.148438 L 50.425781 113.480469 C 52.480469 113.515625 54.535156 113.570312 56.589844 113.464844 C 56.691406 112.691406 56.640625 111.910156 56.625 111.128906 C 54.554688 111.117188 52.488281 111.082031 50.425781 111.148438 Z M 69.027344 105.601562 C 66.175781 107.371094 63.375 109.21875 60.5625 111.054688 C 60.550781 111.8125 60.550781 112.566406 60.574219 113.324219 C 65 113.371094 69.425781 113.351562 73.851562 113.335938 C 73.871094 112.539062 73.871094 111.738281 73.855469 110.941406 C 70.863281 110.898438 67.882812 110.960938 64.894531 110.90625 C 66.957031 109.652344 68.953125 108.296875 70.996094 107.003906 C 70.34375 106.527344 69.683594 106.070312 69.027344 105.601562 Z M 79.003906 103.847656 L 77.828125 103.851562 C 77.796875 106.800781 77.828125 109.757812 77.8125 112.707031 L 78.519531 112.839844 C 79.074219 112.789062 79.632812 112.761719 80.1875 112.734375 C 80.171875 109.773438 80.191406 106.8125 80.171875 103.851562 L 80.171875 103.855469 C 79.390625 103.847656 78.609375 103.847656 77.824219 103.855469 Z M 86.238281 106.03125 C 85.425781 106.140625 84.601562 106.1875 83.777344 106.1875 C 84.707031 107.816406 85.625 109.457031 86.535156 111.105469 L 88.84375 111.089844 C 88.34375 109.253906 87.207031 107.644531 86.238281 106.027344 Z M 117.523438 107.148438 L 116.316406 107.167969 C 116.300781 107.945312 116.300781 108.722656 116.316406 109.5 C 117.121094 109.535156 117.929688 109.535156 118.730469 109.515625 L 118.730469 107.160156 L 118.730469 107.164062 C 117.921875 107.144531 117.117188 107.148438 116.3125 107.171875 Z M 60.886719 97.742188 C 59.601562 99.644531 58.433594 101.628906 57.136719 103.511719 C 55.925781 101.601562 54.695312 99.695312 53.46875 97.789062 L 53.464844 97.792969 C 53.4375 99.097656 53.433594 100.40625 53.449219 101.714844 C 54.726562 103.574219 55.90625 105.496094 57.125 107.386719 C 58.441406 105.503906 59.617188 103.515625 60.90625 101.605469 C 60.894531 100.320312 60.910156 99.03125 60.886719 97.746094 Z M 66.925781 100.234375 C 66.875 101.046875 66.878906 101.863281 66.910156 102.675781 C 67.6875 102.6875 68.464844 102.679688 69.234375 102.675781 L 69.230469 102.679688 C 69.25 101.886719 69.25 101.089844 69.230469 100.296875 C 68.464844 100.242188 67.691406 100.222656 66.921875 100.238281 Z M 99.035156 93.808594 L 97.859375 94.910156 C 97.859375 95.960938 97.855469 97.003906 97.875 98.050781 C 98.625 98.050781 99.382812 98.050781 100.132812 98.039062 C 100.148438 97.394531 100.152344 96.746094 100.148438 96.097656 L 105.417969 96.101562 C 105.390625 98.226562 105.40625 100.347656 105.414062 102.46875 C 106.175781 102.488281 106.9375 102.496094 107.703125 102.488281 L 107.699219 94.921875 L 106.558594 93.820312 C 104.050781 93.816406 101.539062 93.832031 99.03125 93.808594 Z M 40.25 92.300781 L 38.769531 92.300781 L 37.65625 93.410156 L 37.644531 98.558594 L 37.675781 101.132812 C 37.871094 101.601562 38.304688 102.003906 38.734375 102.257812 C 41.308594 102.332031 43.882812 102.257812 46.460938 102.289062 L 47.539062 102.289062 L 48.621094 102.285156 C 48.625 101.539062 48.625 100.792969 48.609375 100.046875 C 45.710938 100.015625 42.808594 100.042969 39.90625 100.03125 C 39.886719 98.226562 39.90625 96.425781 39.890625 94.617188 L 41.726562 94.589844 L 41.726562 94.59375 C 41.734375 93.835938 41.730469 93.078125 41.722656 92.320312 C 40.738281 92.304688 39.75 92.300781 38.765625 92.3125 Z M 90.933594 94.296875 C 88.140625 96.1875 85.261719 97.933594 82.464844 99.824219 C 82.476562 100.589844 82.476562 101.351562 82.585938 102.109375 C 86.996094 102.109375 91.410156 102.128906 95.820312 102.105469 L 95.816406 102.105469 C 95.839844 101.28125 95.839844 100.457031 95.816406 99.628906 C 92.875 99.59375 89.925781 99.648438 86.976562 99.597656 C 88.945312 98.269531 91 97.066406 92.929688 95.6875 C 92.253906 95.234375 91.597656 94.761719 90.933594 94.296875 Z M 122.375 93.929688 C 119.566406 95.730469 116.757812 97.527344 113.976562 99.367188 C 113.964844 100.132812 113.964844 100.90625 113.976562 101.675781 C 118.386719 101.691406 122.792969 101.691406 127.195312 101.675781 C 127.207031 100.878906 127.207031 100.070312 127.195312 99.269531 C 124.230469 99.25 121.261719 99.285156 118.300781 99.253906 L 124.355469 95.332031 C 123.703125 94.859375 123.042969 94.375 122.375 93.925781 Z M 70.136719 83.519531 L 68.972656 83.523438 C 68.957031 88.011719 68.957031 92.496094 68.972656 96.980469 C 69.761719 97 70.546875 97 71.328125 96.996094 C 71.421875 94.003906 71.1875 91 71.476562 88.027344 C 73.074219 90.761719 74.820312 93.414062 76.492188 96.113281 L 77.296875 96.097656 C 77.171875 94.875 77.648438 93.46875 76.84375 92.417969 C 74.992188 89.457031 73.117188 86.511719 71.292969 83.53125 L 71.289062 83.53125 C 70.515625 83.519531 69.742188 83.519531 68.96875 83.53125 Z M 113.097656 88.371094 C 112.332031 88.25 111.550781 88.304688 110.773438 88.320312 L 110.769531 88.320312 C 110.742188 91.097656 110.742188 93.871094 110.769531 96.648438 C 111.550781 96.664062 112.335938 96.667969 113.117188 96.648438 C 113.128906 93.890625 113.167969 91.128906 113.097656 88.375 Z M 61.070312 91.496094 C 58.367188 91.582031 55.640625 91.34375 52.941406 91.644531 C 52.9375 92.425781 52.9375 93.203125 52.953125 93.984375 C 56.359375 94.011719 59.757812 93.984375 63.167969 93.996094 L 63.167969 91.589844 C 62.46875 91.519531 61.769531 91.488281 61.066406 91.496094 Z M 128.941406 80.878906 L 128.941406 80.882812 C 126.386719 80.832031 123.828125 80.828125 121.273438 80.871094 L 120.238281 81.941406 C 120.238281 82.960938 120.238281 83.988281 120.25 85.007812 C 121 85.011719 121.75 85.007812 122.503906 84.996094 L 122.519531 83.132812 C 124.304688 83.148438 126.089844 83.113281 127.875 83.160156 L 127.871094 93.175781 L 130.050781 93.179688 C 130.015625 92.457031 130.207031 91.742188 130.167969 91.015625 C 130.195312 90.125 130.152344 89.234375 130.179688 88.347656 C 130.164062 86.5 130.179688 84.644531 130.179688 82.796875 C 130.316406 81.9375 129.589844 81.273438 128.945312 80.875 Z M 90.5 89.941406 L 89.359375 89.945312 L 89.359375 92.335938 C 90.121094 92.347656 90.875 92.347656 91.632812 92.335938 C 91.644531 91.539062 91.644531 90.738281 91.632812 89.953125 C 90.875 89.945312 90.117188 89.945312 89.359375 89.949219 Z M 80.472656 85.238281 L 79.292969 85.253906 C 79.273438 87.207031 79.277344 89.164062 79.289062 91.117188 C 80.078125 91.136719 80.863281 91.136719 81.65625 91.128906 C 81.660156 89.164062 81.667969 87.207031 81.65625 85.25 C 80.867188 85.234375 80.082031 85.234375 79.292969 85.25 Z M 104.6875 87.957031 L 101.085938 87.976562 C 101.058594 88.765625 101.058594 89.550781 101.074219 90.339844 C 103.105469 90.574219 105.160156 90.390625 107.199219 90.457031 C 107.609375 90.414062 108.148438 90.597656 108.378906 90.132812 L 108.382812 90.132812 C 108.433594 89.410156 108.40625 88.683594 108.292969 87.96875 C 105.886719 87.96875 103.488281 87.949219 101.085938 87.980469 Z M 94.734375 87.867188 L 93.574219 87.871094 C 93.5625 88.667969 93.5625 89.46875 93.574219 90.261719 C 94.347656 90.265625 95.117188 90.273438 95.894531 90.265625 L 95.890625 90.269531 C 95.90625 89.46875 95.90625 88.671875 95.890625 87.875 C 95.117188 87.867188 94.34375 87.867188 93.570312 87.875 Z M 50.898438 80.964844 L 48.527344 80.964844 L 48.523438 88.566406 L 50.90625 88.566406 L 50.90625 80.964844 Z M 59.480469 77.945312 L 57.28125 77.957031 C 56.355469 81.175781 55.460938 84.402344 54.550781 87.628906 L 56.828125 87.640625 C 57.433594 85.15625 58.226562 82.726562 58.78125 80.238281 L 60.042969 80.144531 C 60.816406 82.621094 61.398438 85.152344 62.152344 87.640625 L 64.355469 87.636719 C 63.515625 84.398438 62.570312 81.191406 61.679688 77.964844 C 60.210938 77.945312 58.75 77.953125 57.28125 77.964844 Z M 87.808594 77.230469 L 87.445312 77.242188 L 78.441406 77.242188 C 78.433594 78.007812 78.433594 78.777344 78.441406 79.542969 C 81.367188 79.621094 84.304688 79.402344 87.21875 79.667969 L 87.21875 84.964844 L 85.351562 84.984375 L 85.351562 87.292969 C 86.347656 87.304688 87.339844 87.304688 88.332031 87.304688 L 89.488281 86.042969 L 89.488281 79.3125 C 89.628906 78.214844 88.542969 77.066406 87.445312 77.238281 Z M 41.074219 83.085938 C 41.046875 83.859375 41.046875 84.628906 41.054688 85.402344 C 41.84375 85.417969 42.628906 85.414062 43.410156 85.402344 L 43.410156 83.144531 L 43.40625 83.144531 C 42.628906 83.09375 41.851562 83.074219 41.070312 83.085938 Z M 96.933594 73.398438 L 95.4375 73.398438 C 95.011719 73.960938 94.1875 74.378906 94.292969 75.199219 C 94.28125 77.367188 94.28125 79.535156 94.292969 81.710938 C 94.191406 82.519531 95 82.945312 95.421875 83.5 C 98.722656 83.488281 102.027344 83.511719 105.324219 83.488281 C 105.34375 82.722656 105.34375 81.949219 105.339844 81.179688 C 102.40625 81.148438 99.476562 81.179688 96.546875 81.160156 L 96.546875 75.726562 L 98.4375 75.710938 L 98.433594 75.710938 C 98.445312 74.945312 98.441406 74.179688 98.421875 73.414062 C 97.425781 73.394531 96.425781 73.402344 95.429688 73.398438 Z M 71.558594 77.242188 L 65.820312 77.242188 C 65.789062 78.050781 65.792969 78.859375 65.824219 79.667969 L 71.558594 79.667969 C 71.574219 78.859375 71.574219 78.050781 71.558594 77.242188 Z M 118.246094 74.453125 L 113.121094 74.472656 C 113.109375 75.261719 113.117188 76.058594 113.121094 76.84375 C 116.535156 76.890625 119.945312 76.859375 123.359375 76.859375 C 123.371094 76.0625 123.371094 75.257812 123.363281 74.453125 C 119.949219 74.453125 116.539062 74.421875 113.125 74.46875 Z M 106.617188 74.453125 L 105.40625 74.472656 C 105.394531 75.261719 105.394531 76.046875 105.40625 76.835938 C 106.214844 76.867188 107.023438 76.867188 107.832031 76.835938 C 107.84375 76.046875 107.847656 75.261719 107.832031 74.472656 L 107.828125 74.476562 C 107.023438 74.445312 106.210938 74.445312 105.402344 74.476562 Z M 43.53125 69.519531 L 37.652344 69.535156 C 37.636719 70.332031 37.636719 71.136719 37.652344 71.933594 C 40.109375 71.960938 42.570312 71.933594 45.035156 71.945312 C 44.089844 72.613281 43.109375 73.214844 42.136719 73.835938 C 42.789062 74.308594 43.363281 74.953125 44.125 75.238281 C 45.925781 74.152344 47.679688 72.980469 49.425781 71.808594 L 49.421875 69.539062 C 45.496094 69.503906 41.566406 69.511719 37.644531 69.535156 Z M 59.796875 67.582031 C 57.914062 68.875 55.953125 70.054688 54.117188 71.414062 C 55.9375 72.738281 57.855469 73.914062 59.703125 75.1875 C 60.984375 75.1875 62.265625 75.199219 63.546875 75.171875 C 61.644531 73.9375 59.765625 72.65625 57.855469 71.433594 C 59.714844 70.105469 61.6875 68.945312 63.535156 67.601562 C 62.285156 67.582031 61.046875 67.601562 59.796875 67.582031 Z M 76.304688 71.851562 L 71.210938 71.851562 C 71.210938 72.640625 71.210938 73.433594 71.222656 74.230469 C 74.605469 74.230469 77.980469 74.234375 81.367188 74.226562 C 81.472656 73.4375 81.484375 72.652344 81.398438 71.863281 C 78.007812 71.832031 74.609375 71.863281 71.214844 71.847656 Z M 84.835938 71.851562 L 83.613281 71.863281 L 83.613281 74.203125 C 84.425781 74.214844 85.242188 74.214844 86.058594 74.191406 L 86.058594 71.871094 C 85.242188 71.847656 84.425781 71.84375 83.613281 71.863281 Z M 90.5 64.820312 L 89.359375 64.820312 L 89.359375 72.433594 L 91.636719 72.433594 C 91.636719 69.898438 91.652344 67.363281 91.636719 64.828125 L 91.640625 64.828125 C 90.878906 64.820312 90.121094 64.820312 89.359375 64.828125 Z M 119.421875 69.195312 L 118.242188 69.210938 C 118.226562 70.003906 118.230469 70.800781 118.242188 71.59375 C 119.03125 71.613281 119.816406 71.613281 120.59375 71.59375 C 120.617188 70.796875 120.617188 70 120.597656 69.207031 C 119.808594 69.191406 119.023438 69.195312 118.242188 69.207031 Z M 111.527344 59.867188 C 110.058594 59.625 108.570312 59.855469 107.097656 59.867188 C 106.199219 63.082031 105.316406 66.292969 104.382812 69.484375 C 105.144531 69.488281 105.90625 69.496094 106.667969 69.488281 C 107.308594 67 108.054688 64.542969 108.667969 62.050781 L 109.917969 62.035156 C 110.664062 64.507812 111.28125 67.015625 112.003906 69.488281 L 114.273438 69.488281 Z M 98.507812 65.519531 L 97.359375 65.523438 L 97.355469 65.523438 C 97.347656 66.320312 97.347656 67.113281 97.355469 67.910156 L 99.648438 67.910156 C 99.660156 67.121094 99.660156 66.328125 99.652344 65.539062 L 99.65625 65.535156 C 98.890625 65.515625 98.121094 65.511719 97.355469 65.523438 Z M 126.4375 62.832031 C 125.5625 62.832031 124.683594 62.832031 123.8125 62.847656 L 126.605469 67.78125 C 127.398438 67.78125 128.203125 67.78125 128.996094 67.75 C 128.351562 66.007812 127.300781 64.464844 126.433594 62.832031 Z M 83.28125 55.613281 L 82.152344 55.628906 C 82.117188 58.589844 82.140625 61.5625 82.136719 64.523438 C 80.347656 64.480469 78.554688 64.628906 76.777344 64.421875 C 76.785156 63.828125 76.785156 63.234375 76.765625 62.636719 L 74.601562 62.636719 C 74.601562 63.675781 74.507812 64.726562 74.636719 65.761719 C 74.941406 66.117188 75.292969 66.433594 75.632812 66.769531 C 78.214844 66.753906 80.796875 66.78125 83.386719 66.753906 C 83.726562 66.40625 84.074219 66.066406 84.425781 65.730469 C 84.398438 62.359375 84.441406 58.988281 84.40625 55.625 L 84.410156 55.625 C 83.65625 55.613281 82.90625 55.613281 82.152344 55.625 Z M 65.457031 61.183594 L 64.316406 61.183594 C 64.265625 63.042969 64.289062 64.894531 64.296875 66.75 L 66.605469 66.75 C 66.605469 64.898438 66.617188 63.042969 66.59375 61.195312 C 65.832031 61.183594 65.070312 61.183594 64.316406 61.191406 Z M 119.410156 57.933594 L 118.238281 57.949219 L 118.242188 57.949219 C 118.21875 60.492188 118.21875 63.035156 118.242188 65.578125 C 119.023438 65.589844 119.808594 65.59375 120.589844 65.578125 C 120.617188 63.039062 120.617188 60.492188 120.589844 57.949219 L 120.585938 57.949219 C 119.804688 57.929688 119.023438 57.929688 118.242188 57.949219 Z M 49.050781 61.066406 L 43.941406 61.085938 C 43.929688 61.875 43.929688 62.675781 43.941406 63.476562 C 47.347656 63.496094 50.75 63.503906 54.15625 63.476562 L 54.160156 63.476562 C 54.175781 62.679688 54.175781 61.886719 54.160156 61.089844 C 50.753906 61.0625 47.347656 61.0625 43.941406 61.089844 Z M 58.082031 61.085938 L 55.761719 61.085938 L 55.761719 63.480469 C 56.539062 63.484375 57.308594 63.492188 58.085938 63.480469 L 58.085938 63.484375 C 58.101562 62.683594 58.101562 61.886719 58.085938 61.089844 Z M 74.933594 52.253906 C 73.667969 54.171875 72.449219 56.128906 71.195312 58.054688 C 69.933594 56.152344 68.726562 54.210938 67.484375 52.296875 C 67.480469 53.589844 67.382812 54.890625 67.515625 56.183594 C 67.902344 56.828125 68.304688 57.476562 68.710938 58.117188 L 71.183594 61.933594 C 72.421875 59.984375 73.757812 58.085938 74.910156 56.078125 C 75.015625 54.808594 74.929688 53.527344 74.929688 52.257812 Z M 90.3125 46.5 L 89.179688 46.511719 C 89.152344 50.996094 89.164062 55.480469 89.175781 59.960938 C 89.964844 59.976562 90.75 59.976562 91.539062 59.960938 L 91.554688 50.953125 C 93.289062 53.621094 94.902344 56.371094 96.65625 59.027344 L 97.539062 59.183594 C 97.558594 58.203125 97.554688 57.21875 97.554688 56.242188 C 95.492188 53.011719 93.496094 49.742188 91.449219 46.503906 L 91.445312 46.507812 C 90.6875 46.496094 89.933594 46.5 89.175781 46.515625 Z M 62.476562 49.019531 L 60.785156 49.085938 L 60.785156 49.09375 C 60.152344 49.085938 59.515625 49.085938 58.882812 49.09375 C 58.871094 49.882812 58.878906 50.675781 58.894531 51.464844 C 59.738281 51.476562 60.589844 51.464844 61.441406 51.511719 C 59.761719 52.507812 58.140625 53.597656 56.480469 54.621094 C 57.089844 55.128906 57.660156 55.738281 58.40625 56.027344 C 60.941406 54.566406 63.339844 52.878906 65.84375 51.347656 C 65.855469 50.601562 65.855469 49.851562 65.847656 49.105469 L 65.851562 49.109375 C 64.164062 48.996094 62.472656 48.992188 60.785156 49.09375 Z M 107.511719 52.605469 L 101.910156 52.617188 L 101.910156 54.933594 C 105.648438 54.945312 109.375 54.9375 113.109375 54.933594 L 113.109375 52.625 C 109.382812 52.605469 105.644531 52.605469 101.910156 52.625 Z M 80.050781 49.960938 L 78.886719 49.976562 C 78.871094 50.769531 78.871094 51.5625 78.886719 52.355469 C 79.664062 52.375 80.441406 52.375 81.21875 52.355469 C 81.234375 51.558594 81.234375 50.769531 81.21875 49.976562 L 81.210938 49.980469 C 80.433594 49.957031 79.65625 49.957031 78.882812 49.980469 Z M 99.75 48.316406 L 98.542969 48.332031 L 98.546875 50.652344 C 99.351562 50.667969 100.152344 50.667969 100.957031 50.648438 L 100.957031 48.339844 L 100.953125 48.34375 C 100.148438 48.320312 99.34375 48.316406 98.539062 48.335938 Z M 73.972656 38.660156 L 72.765625 38.6875 C 72.816406 42.164062 72.609375 45.652344 72.871094 49.125 C 73.644531 49.125 74.414062 49.125 75.1875 49.109375 C 75.222656 45.632812 75.207031 42.160156 75.199219 38.675781 L 75.191406 38.683594 C 74.378906 38.660156 73.566406 38.664062 72.753906 38.691406 Z M 82.90625 43.59375 C 82.035156 43.59375 81.164062 43.59375 80.292969 43.609375 C 81.195312 45.269531 82.109375 46.917969 83.058594 48.542969 C 83.855469 48.542969 84.660156 48.542969 85.457031 48.507812 C 84.785156 46.773438 83.734375 45.242188 82.90625 43.59375 Z M 96.621094 42.40625 L 93.382812 42.421875 C 93.371094 43.21875 93.371094 44.023438 93.382812 44.820312 C 95.539062 44.855469 97.699219 44.847656 99.855469 44.820312 L 99.851562 44.828125 C 99.859375 44.027344 99.859375 43.226562 99.851562 42.425781 C 97.691406 42.40625 95.535156 42.40625 93.375 42.429688 Z M 83.84375 34.527344 L 80.242188 34.53125 C 79.539062 34.4375 79.128906 35.160156 78.730469 35.617188 C 78.589844 36.613281 78.695312 37.636719 78.6875 38.644531 L 80.925781 38.644531 L 80.941406 36.753906 L 86.222656 36.753906 C 86.378906 38.628906 86.21875 40.507812 86.21875 42.386719 L 86.390625 43.089844 C 87.097656 43.140625 87.820312 43.105469 88.53125 43.09375 C 88.519531 40.578125 88.519531 38.0625 88.53125 35.550781 L 87.828125 34.851562 L 87.441406 34.550781 C 85.046875 34.488281 82.644531 34.539062 80.25 34.523438 Z M 83.84375 34.527344 "/>
</g>
</svg>
