<?xml version="1.0" encoding="UTF-8"?>
<svg xmlns="http://www.w3.org/2000/svg" xmlns:xlink="http://www.w3.org/1999/xlink" width="168pt" height="168pt" viewBox="0 0 168 168" version="1.1">
<g id="surface1856">
<path style=" stroke:none;fill-rule:nonzero;fill:rgb(96.078431%,81.960784%,0%);fill-opacity:1;" d="M 168 84 C 168 130.390625 130.390625 168 84 168 C 37.609375 168 0 130.390625 0 84 C 0 37.609375 37.609375 0 84 0 C 130.390625 0 168 37.609375 168 84 "/>
<path style=" stroke:none;fill-rule:nonzero;fill:rgb(100%,100%,100%);fill-opacity:1;" d="M 83.851562 21 C 49.203125 21 21 49.203125 21 83.851562 C 21 118.5 49.203125 146.757812 83.90625 146.757812 C 118.601562 146.757812 146.804688 118.554688 146.804688 83.851562 C 146.804688 49.15625 118.554688 21 83.859375 21 Z M 83.851562 141.90625 C 51.867188 141.90625 25.796875 115.886719 25.796875 83.851562 C 25.851562 51.871094 51.871094 25.847656 83.851562 25.847656 C 115.839844 25.847656 141.910156 51.871094 141.910156 83.90625 C 141.910156 115.890625 115.886719 141.914062 83.851562 141.914062 Z M 83.851562 141.90625 "/>
<path style=" stroke:none;fill-rule:nonzero;fill:rgb(100%,100%,100%);fill-opacity:1;" d="M 51.3125 55.945312 L 55.933594 51.320312 L 80.546875 75.925781 L 75.921875 80.546875 Z M 87.105469 91.753906 L 91.730469 87.128906 L 116.335938 111.734375 L 111.710938 116.355469 Z M 79.257812 83.867188 L 83.878906 79.246094 L 88.539062 83.898438 L 83.917969 88.527344 Z M 87.175781 76.125 L 111.78125 51.523438 L 116.402344 56.148438 L 91.800781 80.753906 Z M 51.492188 111.761719 L 76.09375 87.160156 L 80.71875 91.78125 L 56.117188 116.386719 Z M 51.492188 111.761719 "/>
</g>
</svg>
