<?xml version="1.0" encoding="UTF-8"?>
<svg xmlns="http://www.w3.org/2000/svg" xmlns:xlink="http://www.w3.org/1999/xlink" width="168pt" height="168pt" viewBox="0 0 168 168" version="1.1">
<g id="surface1974">
<path style=" stroke:none;fill-rule:nonzero;fill:rgb(93.333333%,76.470588%,8.235294%);fill-opacity:1;" d="M 168 84 C 168 130.390625 130.390625 168 84 168 C 37.609375 168 0 130.390625 0 84 C 0 37.609375 37.609375 0 84 0 C 130.390625 0 168 37.609375 168 84 "/>
<path style=" stroke:none;fill-rule:nonzero;fill:rgb(100%,100%,100%);fill-opacity:1;" d="M 99.699219 42.972656 C 99.699219 42.019531 99.320312 41.101562 98.648438 40.429688 C 97.972656 39.753906 97.058594 39.375 96.105469 39.375 L 68.941406 39.375 L 68.984375 39.425781 L 42.773438 39.425781 C 39.441406 39.425781 36.75 42.125 36.75 45.453125 L 36.75 122.542969 C 36.75 125.871094 39.441406 128.570312 42.773438 128.570312 L 52.511719 128.570312 C 55.839844 128.570312 58.535156 125.871094 58.535156 122.542969 L 58.53125 66.246094 C 58.53125 60.910156 64.945312 58.207031 68.757812 61.9375 L 89.625 82.339844 C 93.085938 85.722656 98.679688 83.808594 99.695312 79.453125 C 99.800781 79 99.851562 78.527344 99.851562 78.03125 L 99.695312 42.976562 Z M 99.699219 42.972656 "/>
<path style=" stroke:none;fill-rule:nonzero;fill:rgb(100%,100%,100%);fill-opacity:1;" d="M 125.816406 39.425781 L 114.894531 39.425781 C 111.902344 39.425781 109.464844 41.863281 109.464844 44.863281 L 109.464844 103.148438 C 109.464844 107.960938 103.675781 110.402344 100.234375 107.035156 L 77.371094 84.6875 C 73.925781 81.328125 68.140625 83.761719 68.140625 88.578125 L 68.140625 100.988281 C 68.140625 101.175781 68.152344 101.367188 68.167969 101.554688 L 68.140625 101.527344 L 68.140625 123.703125 C 68.140625 126.421875 70.339844 128.621094 73.054688 128.621094 L 103.191406 128.621094 L 103.117188 128.570312 L 125.8125 128.570312 C 128.816406 128.570312 131.246094 126.132812 131.246094 123.132812 L 131.25 44.867188 C 131.25 41.863281 128.820312 39.429688 125.816406 39.429688 Z M 125.816406 39.425781 "/>
</g>
</svg>
