<?xml version="1.0" encoding="UTF-8"?>
<svg xmlns="http://www.w3.org/2000/svg" xmlns:xlink="http://www.w3.org/1999/xlink" width="168pt" height="168pt" viewBox="0 0 168 168" version="1.1">
<g id="surface1371">
<path style=" stroke:none;fill-rule:evenodd;fill:rgb(50.980392%,74.117647%,22.352941%);fill-opacity:1;" d="M 168 84 C 168 130.390625 130.390625 168 84 168 C 37.609375 168 0 130.390625 0 84 C 0 37.609375 37.609375 0 84 0 C 130.390625 0 168 37.609375 168 84 "/>
<path style=" stroke:none;fill-rule:nonzero;fill:rgb(100%,100%,100%);fill-opacity:1;" d="M 75.617188 101.640625 L 84 112.6875 L 84 136.5 L 52.5 122.519531 L 52.5 61 C 52.5 60.089844 52.902344 59.226562 53.613281 58.621094 L 57.199219 55.550781 C 57.898438 54.945312 58.8125 54.660156 59.730469 54.753906 C 60.648438 54.851562 61.488281 55.324219 62.042969 56.058594 L 90.734375 93.667969 L 106.585938 103.359375 L 106.585938 51.488281 L 92.578125 44.5 L 91.894531 77.027344 L 84.480469 67.195312 L 84.144531 31.496094 L 115.5 46.089844 L 115.5 107.324219 L 108.375 113.195312 L 85.9375 100.664062 L 61.03125 67.992188 L 60.691406 117.625 L 75.523438 125.222656 Z M 75.617188 101.640625 "/>
</g>
</svg>
