<?xml version="1.0" encoding="UTF-8"?>
<svg xmlns="http://www.w3.org/2000/svg" xmlns:xlink="http://www.w3.org/1999/xlink" width="168pt" height="168pt" viewBox="0 0 168 168" version="1.1">
<g id="surface1821">
<path style=" stroke:none;fill-rule:evenodd;fill:rgb(25.098039%,60%,80.392157%);fill-opacity:1;" d="M 168 84 C 168 130.390625 130.390625 168 84 168 C 37.609375 168 0 130.390625 0 84 C 0 37.609375 37.609375 0 84 0 C 130.390625 0 168 37.609375 168 84 "/>
<path style=" stroke:none;fill-rule:evenodd;fill:rgb(100%,100%,100%);fill-opacity:1;" d="M 10.527344 124.738281 C 13.703125 115.476562 19.824219 105.449219 28.351562 95.546875 L 28.351562 95.550781 C 25.214844 91.382812 25.613281 85.542969 29.285156 81.84375 C 32.960938 78.140625 38.792969 77.695312 42.988281 80.796875 C 49.757812 74.835938 56.960938 69.378906 64.53125 64.476562 C 100.933594 40.835938 139.40625 33.292969 158.171875 44.535156 C 163.578125 54.675781 166.832031 65.820312 167.730469 77.273438 C 161.671875 97.109375 141.660156 120.804688 113.140625 139.328125 C 93.46875 152.101562 73.1875 160.179688 55.742188 163.125 L 55.746094 163.128906 C 36.519531 156.234375 20.449219 142.59375 10.527344 124.738281 Z M 30.214844 97.464844 C 17.910156 111.683594 12.980469 126.308594 18.941406 135.496094 C 27.949219 149.371094 58.421875 145.574219 86.988281 127.027344 C 115.558594 108.472656 131.414062 82.183594 122.40625 68.304688 C 113.390625 54.429688 82.925781 58.226562 54.355469 76.773438 C 51.191406 78.832031 48.175781 80.984375 45.339844 83.203125 L 45.339844 83.207031 C 48.34375 87.476562 47.753906 93.308594 43.957031 96.890625 C 40.15625 100.472656 34.300781 100.71875 30.214844 97.464844 Z M 30.214844 97.464844 "/>
</g>
</svg>
