<?xml version="1.0" encoding="UTF-8"?>
<svg xmlns="http://www.w3.org/2000/svg" xmlns:xlink="http://www.w3.org/1999/xlink" width="168pt" height="168pt" viewBox="0 0 168 168" version="1.1">
<g id="surface1011">
<path style=" stroke:none;fill-rule:evenodd;fill:rgb(0%,56.078431%,73.333333%);fill-opacity:1;" d="M 168 84 C 168 130.390625 130.390625 168 84 168 C 37.609375 168 0 130.390625 0 84 C 0 37.609375 37.609375 0 84 0 C 130.390625 0 168 37.609375 168 84 "/>
<path style=" stroke:none;fill-rule:evenodd;fill:rgb(100%,100%,100%);fill-opacity:1;" d="M 136.929688 88.375 C 134.269531 88.375 132.109375 86.417969 132.109375 84 L 132.109375 79.621094 L 107.894531 79.621094 C 105.234375 79.621094 103.074219 77.664062 103.074219 75.246094 C 103.074219 72.832031 105.230469 70.871094 107.894531 70.871094 L 136.925781 70.871094 C 139.585938 70.871094 141.746094 72.828125 141.746094 75.246094 L 141.75 84 C 141.75 86.414062 139.597656 88.375 136.929688 88.375 Z M 113.046875 88.375 L 122.679688 88.375 C 125.339844 88.375 127.5 90.332031 127.5 92.75 C 127.5 95.164062 125.347656 97.128906 122.679688 97.128906 L 107.894531 97.128906 L 107.898438 97.125 C 107.128906 97.128906 106.371094 96.957031 105.675781 96.632812 L 77.578125 79.621094 L 69.484375 79.621094 C 66.824219 79.621094 64.664062 77.664062 64.664062 75.246094 C 64.664062 72.832031 66.816406 70.871094 69.484375 70.871094 L 79.117188 70.871094 C 80.15625 70.871094 81.117188 71.171875 81.90625 71.679688 L 109.375 88.375 L 113.050781 88.375 Z M 79.117188 88.375 C 81.777344 88.375 83.9375 90.332031 83.9375 92.75 C 83.9375 95.164062 81.78125 97.128906 79.117188 97.128906 L 69.484375 97.128906 L 69.484375 97.125 C 68.714844 97.125 67.957031 96.957031 67.261719 96.632812 L 39.164062 79.621094 L 31.070312 79.621094 C 28.410156 79.621094 26.25 77.664062 26.25 75.246094 C 26.25 72.832031 28.402344 70.871094 31.070312 70.871094 L 40.703125 70.871094 L 40.703125 70.875 C 41.691406 70.871094 42.660156 71.152344 43.492188 71.683594 L 70.960938 88.378906 L 79.121094 88.378906 Z M 31.070312 88.375 L 40.703125 88.375 C 43.363281 88.375 45.523438 90.332031 45.523438 92.753906 C 45.523438 95.167969 43.367188 97.128906 40.703125 97.128906 L 31.070312 97.125 C 28.410156 97.125 26.25 95.167969 26.25 92.75 C 26.25 90.335938 28.402344 88.371094 31.070312 88.371094 Z M 31.070312 88.375 "/>
</g>
</svg>
