<?xml version="1.0" encoding="UTF-8"?>
<svg xmlns="http://www.w3.org/2000/svg" xmlns:xlink="http://www.w3.org/1999/xlink" width="168pt" height="168pt" viewBox="0 0 168 168" version="1.1">
<g id="surface911">
<path style=" stroke:none;fill-rule:nonzero;fill:rgb(8.627451%,29.411765%,47.45098%);fill-opacity:1;" d="M 168 84 C 168 130.390625 130.390625 168 84 168 C 37.609375 168 0 130.390625 0 84 C 0 37.609375 37.609375 0 84 0 C 130.390625 0 168 37.609375 168 84 "/>
<path style=" stroke:none;fill-rule:nonzero;fill:rgb(100%,100%,100%);fill-opacity:1;" d="M 73.972656 98.007812 L 70.703125 104.992188 L 63.449219 104.992188 L 83.148438 63 L 96.289062 91 L 88.859375 91 L 82.980469 78.847656 L 77.089844 91.207031 Z M 102.605469 104.832031 L 117.988281 84.09375 L 102.496094 63.199219 L 110.976562 63.199219 L 122.21875 78.476562 L 118.128906 84.09375 L 122.21875 89.710938 L 110.984375 104.988281 L 95.429688 104.988281 L 92.144531 98.003906 L 99.398438 98.003906 Z M 126.367188 84.003906 L 122.214844 78.296875 L 133.457031 63.019531 L 141.75 63.019531 Z M 126.367188 84.003906 L 141.75 104.996094 L 133.453125 104.996094 L 122.21875 89.71875 Z M 59.964844 69.082031 L 59.964844 69.085938 C 63.773438 73.105469 65.824219 78.476562 65.660156 84.011719 C 65.734375 89.527344 63.695312 94.863281 59.964844 98.929688 C 56.175781 103.179688 51.488281 105 45.957031 105 C 40.640625 105.054688 35.550781 102.847656 31.953125 98.929688 C 28.160156 94.902344 26.109375 89.539062 26.25 84.011719 C 26.164062 79.679688 27.433594 75.433594 29.878906 71.855469 L 34.707031 77 C 33.195312 79.699219 32.566406 82.804688 32.90625 85.878906 C 33.246094 88.953125 34.542969 91.839844 36.609375 94.144531 C 38.976562 96.824219 42.375 98.371094 45.953125 98.394531 C 49.480469 98.394531 52.851562 96.855469 55.296875 94.140625 L 55.296875 94.144531 C 57.832031 91.460938 59.199219 87.882812 59.09375 84.195312 C 59.105469 80.519531 57.75 76.972656 55.292969 74.242188 C 52.914062 71.601562 49.503906 70.125 45.949219 70.199219 C 43.625 70.132812 41.339844 70.773438 39.390625 72.035156 L 34.5625 66.890625 C 37.804688 64.324219 41.835938 62.960938 45.96875 63.027344 C 51.289062 62.929688 56.390625 65.140625 59.960938 69.085938 Z M 59.964844 69.082031 "/>
</g>
</svg>
