<?xml version="1.0" encoding="UTF-8"?>
<svg xmlns="http://www.w3.org/2000/svg" xmlns:xlink="http://www.w3.org/1999/xlink" width="168pt" height="168pt" viewBox="0 0 168 168" version="1.1">
<g id="surface2144">
<path style=" stroke:none;fill-rule:nonzero;fill:rgb(0%,0%,0%);fill-opacity:1;" d="M 168 84 C 168 130.390625 130.390625 168 84 168 C 37.609375 168 0 130.390625 0 84 C 0 37.609375 37.609375 0 84 0 C 130.390625 0 168 37.609375 168 84 "/>
<path style=" stroke:none;fill-rule:nonzero;fill:rgb(100%,100%,100%);fill-opacity:1;" d="M 146.925781 77.011719 L 146.925781 77.347656 C 139.644531 81.90625 132.308594 86.410156 124.996094 90.957031 C 124.859375 91.054688 124.75 91.191406 124.683594 91.351562 C 126.636719 91.875 128.65625 92.269531 130.511719 93.121094 C 132.222656 93.882812 133.976562 94.875 134.941406 96.539062 C 135.867188 98.230469 136.097656 100.214844 135.582031 102.066406 C 135.304688 103.453125 134.722656 104.753906 134.195312 106.070312 C 132 111.332031 129.796875 116.574219 127.617188 121.855469 L 127.617188 121.859375 C 127.511719 122.117188 127.371094 122.363281 127.195312 122.585938 C 126.476562 122.570312 125.789062 122.308594 125.085938 122.144531 C 121.535156 121.269531 117.96875 120.40625 114.417969 119.519531 C 113.261719 119.195312 112.078125 119.003906 110.9375 118.628906 C 110.96875 117.910156 111.378906 117.296875 111.621094 116.648438 L 116.492188 104.988281 C 116.859375 104.179688 117.074219 103.171875 116.550781 102.382812 C 115.894531 101.257812 114.578125 100.835938 113.410156 100.515625 C 109.125 99.414062 104.8125 98.394531 100.515625 97.328125 C 99.902344 97.195312 99.304688 96.917969 98.65625 97.003906 C 98.277344 97.664062 98.058594 98.410156 97.753906 99.125 C 95.925781 103.410156 94.171875 107.71875 92.355469 112.003906 C 92.09375 112.601562 91.933594 113.265625 91.535156 113.789062 C 90.820312 113.789062 90.148438 113.511719 89.460938 113.347656 C 85.792969 112.445312 82.121094 111.519531 78.4375 110.628906 C 77.402344 110.351562 76.320312 110.175781 75.296875 109.824219 L 75.300781 109.824219 C 75.3125 109.535156 75.378906 109.246094 75.488281 108.980469 L 94.035156 64.511719 L 94.039062 64.511719 C 94.101562 64.363281 94.203125 64.234375 94.332031 64.132812 C 94.976562 64.175781 95.59375 64.4375 96.222656 64.585938 C 99.347656 65.332031 102.476562 66.132812 105.605469 66.894531 C 107.226562 67.316406 108.890625 67.640625 110.503906 68.121094 C 110.589844 68.425781 110.441406 68.734375 110.324219 69.023438 C 109.0625 71.890625 107.910156 74.796875 106.6875 77.664062 L 102.902344 86.757812 C 102.476562 87.824219 101.921875 88.847656 101.625 89.972656 C 102.171875 89.785156 102.636719 89.464844 103.117188 89.136719 L 127.824219 73.648438 C 128.277344 73.363281 128.683594 72.988281 129.199219 72.855469 C 129.957031 72.796875 130.667969 73.085938 131.386719 73.25 C 133.90625 73.789062 136.382812 74.511719 138.882812 75.085938 C 141.59375 75.691406 144.25 76.433594 146.925781 77.007812 Z M 88.628906 68.09375 C 88.761719 70.738281 87.753906 73.253906 86.71875 75.621094 C 83.925781 82.332031 81.101562 89.023438 78.324219 95.734375 C 77.316406 98.101562 76.441406 100.574219 74.890625 102.664062 C 73.789062 104.21875 72.253906 105.414062 70.480469 106.097656 C 68.246094 106.796875 65.875 106.96875 63.5625 106.597656 C 59.574219 106.097656 55.6875 105.023438 51.78125 104.082031 C 46.480469 102.753906 41.140625 101.46875 35.835938 100.132812 C 32.3125 99.289062 28.757812 98.378906 25.484375 96.773438 C 24.070312 96.085938 22.867188 95.03125 22.007812 93.71875 C 21.34375 92.632812 21.050781 91.363281 21.171875 90.09375 C 21.449219 87.769531 22.3125 85.558594 23.246094 83.425781 L 31.804688 62.871094 C 32.488281 61.296875 33.085938 59.667969 33.960938 58.183594 L 33.960938 58.1875 C 34.710938 56.8125 35.707031 55.585938 36.902344 54.574219 C 38.308594 53.503906 39.964844 52.816406 41.710938 52.570312 C 42.996094 52.453125 44.285156 52.519531 45.570312 52.542969 C 49.546875 53.128906 53.488281 53.953125 57.367188 55.007812 C 62.804688 56.320312 68.230469 57.699219 73.664062 59.011719 C 76.164062 59.625 78.652344 60.257812 81.09375 61.089844 C 82.726562 61.6875 84.394531 62.296875 85.828125 63.335938 C 87.457031 64.390625 88.496094 66.148438 88.632812 68.085938 Z M 69.625 72.773438 C 69.730469 72 69.179688 71.339844 68.53125 71.003906 C 67.21875 70.289062 65.722656 70.027344 64.292969 69.660156 C 60.503906 68.714844 56.710938 67.78125 52.902344 66.855469 L 52.902344 66.851562 C 51.824219 66.535156 50.6875 66.464844 49.574219 66.644531 C 48.289062 67.011719 47.640625 68.3125 47.207031 69.453125 C 45.054688 74.570312 42.953125 79.699219 40.792969 84.804688 C 40.558594 85.402344 40.320312 86 40.269531 86.640625 C 40.269531 87.375 40.777344 88.015625 41.402344 88.320312 C 42.34375 88.804688 43.367188 89.070312 44.359375 89.332031 L 56.199219 92.242188 C 57.574219 92.5625 59.019531 92.914062 60.425781 92.609375 C 61.605469 92.226562 62.210938 91.011719 62.648438 89.949219 L 68.449219 76.03125 C 68.90625 74.980469 69.488281 73.941406 69.636719 72.777344 Z M 69.625 72.773438 "/>
</g>
</svg>
