<?xml version="1.0" encoding="UTF-8"?>
<svg xmlns="http://www.w3.org/2000/svg" xmlns:xlink="http://www.w3.org/1999/xlink" width="168pt" height="168pt" viewBox="0 0 168 168" version="1.1">
<g id="surface1531">
<path style=" stroke:none;fill-rule:nonzero;fill:rgb(6.27451%,6.27451%,6.27451%);fill-opacity:1;" d="M 168 84 C 168 130.390625 130.390625 168 84 168 C 37.609375 168 0 130.390625 0 84 C 0 37.609375 37.609375 0 84 0 C 130.390625 0 168 37.609375 168 84 "/>
<path style=" stroke:none;fill-rule:nonzero;fill:rgb(100%,100%,100%);fill-opacity:1;" d="M 84.300781 93.324219 L 73.644531 63.933594 L 64.574219 63.933594 L 64.574219 102.378906 L 71.109375 102.378906 L 71.109375 75.292969 L 81 102.378906 L 87.425781 102.378906 L 97.304688 75.292969 L 97.304688 102.378906 L 104.003906 102.378906 L 104.003906 63.933594 L 94.949219 63.933594 Z M 40.273438 63 C 28.472656 63 21 71.898438 21 83.1875 C 21 94.46875 28.472656 103.347656 40.273438 103.347656 C 52.074219 103.347656 59.5625 94.53125 59.5625 83.1875 C 59.5625 71.835938 52.089844 63 40.265625 63 Z M 40.273438 96.511719 C 32.75 96.511719 28.25 90.851562 28.25 83.214844 C 28.25 75.570312 32.75 69.875 40.273438 69.875 C 47.796875 69.875 52.3125 75.585938 52.3125 83.1875 C 52.3125 90.785156 47.808594 96.511719 40.273438 96.511719 Z M 126.726562 88.390625 L 137.761719 88.390625 C 137.109375 93.996094 133.035156 96.632812 127.816406 96.632812 C 120.34375 96.632812 116.183594 91.136719 116.183594 83.222656 C 116.183594 75.804688 119.851562 69.714844 127.660156 69.714844 C 132.761719 69.714844 136.890625 72.320312 137.332031 76.691406 L 144.628906 76.691406 C 143.640625 67.902344 136.9375 63.011719 127.882812 63.011719 C 115.027344 63.011719 109.035156 72.902344 109.035156 83.445312 C 109.035156 94.769531 115.964844 103.332031 126.726562 103.332031 C 133.035156 103.332031 136.566406 100.414062 137.984375 97.945312 L 137.984375 102.339844 L 144.632812 102.339844 L 144.632812 81.78125 L 126.730469 81.78125 L 126.730469 88.394531 Z M 126.726562 88.390625 "/>
</g>
</svg>
