<?xml version="1.0" encoding="UTF-8"?>
<svg xmlns="http://www.w3.org/2000/svg" xmlns:xlink="http://www.w3.org/1999/xlink" width="168pt" height="168pt" viewBox="0 0 168 168" version="1.1">
<g id="surface896">
<path style=" stroke:none;fill-rule:evenodd;fill:rgb(10.980392%,20.392157%,47.843137%);fill-opacity:1;" d="M 168 84 C 168 130.390625 130.390625 168 84 168 C 37.609375 168 0 130.390625 0 84 C 0 37.609375 37.609375 0 84 0 C 130.390625 0 168 37.609375 168 84 "/>
<path style=" stroke:none;fill-rule:nonzero;fill:rgb(100%,100%,100%);fill-opacity:1;" d="M 52.839844 36.160156 C 46.152344 40.527344 40.449219 46.242188 36.09375 52.941406 L 36.09375 36.160156 Z M 131.609375 52.488281 L 131.613281 52.488281 C 127.296875 45.984375 121.695312 40.429688 115.160156 36.160156 L 131.613281 36.160156 Z M 115.398438 131.679688 C 121.835938 127.433594 127.347656 121.933594 131.613281 115.511719 L 131.613281 131.683594 Z M 36.09375 115.058594 C 40.394531 121.675781 46.011719 127.332031 52.601562 131.679688 L 36.09375 131.679688 Z M 136.5 84 C 136.5 112.949219 112.949219 136.5 84 136.5 C 55.050781 136.5 31.5 112.949219 31.5 84 C 31.5 55.050781 55.050781 31.5 84 31.5 C 112.949219 31.5 136.5 55.050781 136.5 84 Z M 84 122.28125 C 105.105469 122.28125 122.28125 105.109375 122.28125 84 C 122.28125 62.894531 105.109375 45.71875 84 45.71875 C 62.894531 45.71875 45.71875 62.890625 45.71875 84 C 45.71875 105.105469 62.890625 122.28125 84 122.28125 Z M 84 122.28125 "/>
</g>
</svg>
