<?xml version="1.0" encoding="UTF-8"?>
<svg xmlns="http://www.w3.org/2000/svg" xmlns:xlink="http://www.w3.org/1999/xlink" width="168pt" height="168pt" viewBox="0 0 168 168" version="1.1">
<g id="surface2014">
<path style=" stroke:none;fill-rule:nonzero;fill:rgb(0%,68.235294%,91.372549%);fill-opacity:1;" d="M 168 84 C 168 130.390625 130.390625 168 84 168 C 37.609375 168 0 130.390625 0 84 C 0 37.609375 37.609375 0 84 0 C 130.390625 0 168 37.609375 168 84 "/>
<path style=" stroke:none;fill-rule:nonzero;fill:rgb(100%,100%,100%);fill-opacity:1;" d="M 111 36.75 C 99.847656 36.75 90.75 45.875 90.457031 57.0625 L 90.457031 79.726562 C 88.398438 79.726562 86.347656 80.019531 84 80.019531 C 81.652344 80.019531 79.59375 80.019531 77.542969 80.3125 L 77.542969 57.054688 C 77.542969 45.871094 68.152344 36.746094 56.707031 37.042969 C 45.851562 37.042969 37.046875 46.167969 36.75 57.0625 L 36.75 111.226562 C 37.042969 122.410156 46.140625 131.539062 57.585938 131.246094 C 68.738281 130.953125 77.542969 122.121094 77.542969 111.226562 L 77.542969 88.558594 C 79.597656 88.558594 81.652344 88.265625 84 88.265625 C 86.347656 88.265625 88.398438 88.265625 90.457031 87.972656 L 90.457031 110.9375 C 90.75 122.121094 99.847656 131.25 111.292969 130.957031 C 122.445312 130.65625 131.25 121.820312 131.25 110.933594 L 131.25 57.0625 C 131.25 45.878906 122.152344 36.75 111 36.75 Z M 57.292969 44.992188 C 60.5 44.960938 63.585938 46.222656 65.847656 48.496094 C 68.113281 50.765625 69.367188 53.855469 69.328125 57.0625 L 69.328125 80.90625 C 63.371094 81.851562 57.554688 83.53125 52.011719 85.910156 C 49.664062 87.085938 47.3125 88.261719 45.261719 90.03125 L 45.261719 57.0625 C 45.261719 50.585938 50.542969 44.992188 57.292969 44.992188 Z M 69.324219 111.226562 L 69.328125 111.226562 C 69.367188 114.433594 68.113281 117.523438 65.847656 119.792969 C 63.585938 122.066406 60.5 123.328125 57.292969 123.296875 C 54.085938 123.328125 51 122.0625 48.734375 119.792969 C 46.46875 117.519531 45.21875 114.429688 45.261719 111.222656 L 45.261719 105.929688 C 45.261719 101.21875 49.078125 96.507812 55.535156 93.855469 C 59.933594 91.796875 64.632812 90.621094 69.621094 89.738281 L 69.328125 111.226562 Z M 111 123.296875 C 107.792969 123.328125 104.707031 122.0625 102.441406 119.792969 C 100.179688 117.519531 98.925781 114.429688 98.96875 111.222656 L 98.96875 87.386719 C 104.925781 86.441406 110.742188 84.757812 116.28125 82.378906 C 118.628906 81.203125 120.976562 80.023438 123.03125 78.257812 L 123.03125 111.226562 L 123.035156 111.226562 C 123.015625 117.871094 117.644531 123.257812 111 123.296875 Z M 112.757812 74.722656 C 108.359375 76.785156 103.660156 77.960938 98.671875 78.84375 L 98.671875 57.054688 L 98.671875 57.058594 C 98.632812 53.851562 99.886719 50.765625 102.152344 48.492188 C 104.417969 46.222656 107.5 44.960938 110.707031 44.992188 C 113.914062 44.960938 117 46.222656 119.261719 48.496094 C 121.527344 50.765625 122.78125 53.855469 122.738281 57.0625 L 122.738281 62.363281 C 123.03125 67.359375 119.214844 71.777344 112.761719 74.722656 Z M 112.757812 74.722656 "/>
</g>
</svg>
