<?xml version="1.0" encoding="UTF-8"?>
<svg xmlns="http://www.w3.org/2000/svg" xmlns:xlink="http://www.w3.org/1999/xlink" width="168pt" height="168pt" viewBox="0 0 168 168" version="1.1">
<g id="surface1061">
<path style=" stroke:none;fill-rule:nonzero;fill:rgb(0%,0%,0%);fill-opacity:1;" d="M 168 84 C 168 130.390625 130.390625 168 84 168 C 37.609375 168 0 130.390625 0 84 C 0 37.609375 37.609375 0 84 0 C 130.390625 0 168 37.609375 168 84 "/>
<path style=" stroke:none;fill-rule:evenodd;fill:rgb(100%,100%,100%);fill-opacity:1;" d="M 83.699219 138.132812 C 113.835938 138.132812 136.660156 117.941406 141.398438 91.523438 L 115.6875 91.523438 C 111.84375 105.550781 99.917969 115.820312 84.003906 115.820312 C 68.207031 115.820312 56.125 105.476562 52.121094 91.523438 L 26.25 91.523438 C 30.8125 118.035156 53.445312 138.132812 83.699219 138.132812 Z M 83.699219 138.132812 "/>
<path style=" stroke:none;fill-rule:evenodd;fill:rgb(100%,100%,100%);fill-opacity:1;" d="M 97.113281 39.515625 C 97.113281 46.84375 91.175781 52.785156 83.847656 52.785156 C 76.519531 52.785156 70.582031 46.84375 70.582031 39.515625 C 70.582031 32.191406 76.519531 26.25 83.847656 26.25 C 91.175781 26.25 97.113281 32.191406 97.113281 39.515625 "/>
<path style=" stroke:none;fill-rule:evenodd;fill:rgb(100%,100%,100%);fill-opacity:1;" d="M 50.6875 91.523438 L 50.6875 91.261719 C 50.6875 72.398438 64.199219 57 83.683594 57 C 103.171875 57 116.96875 72.660156 117 91.523438 Z M 50.6875 91.523438 "/>
</g>
</svg>
