<?xml version="1.0" encoding="UTF-8"?>
<svg xmlns="http://www.w3.org/2000/svg" xmlns:xlink="http://www.w3.org/1999/xlink" width="168pt" height="168pt" viewBox="0 0 168 168" version="1.1">
<g id="surface2004">
<path style=" stroke:none;fill-rule:nonzero;fill:rgb(19.607843%,64.313725%,74.509804%);fill-opacity:1;" d="M 168 84 C 168 130.390625 130.390625 168 84 168 C 37.609375 168 0 130.390625 0 84 C 0 37.609375 37.609375 0 84 0 C 130.390625 0 168 37.609375 168 84 "/>
<path style=" stroke:none;fill-rule:evenodd;fill:rgb(100%,100%,100%);fill-opacity:1;" d="M 131.25 127.140625 L 52.378906 49.984375 C 61.113281 41.464844 72.847656 36.710938 85.050781 36.75 C 110.566406 36.75 131.25 56.984375 131.25 81.945312 Z M 36.75 40.859375 L 115.621094 118.011719 L 115.621094 118.015625 C 106.886719 126.535156 95.152344 131.289062 82.949219 131.25 C 57.433594 131.25 36.75 111.015625 36.75 86.054688 Z M 36.75 40.859375 "/>
</g>
</svg>
