<?xml version="1.0" encoding="UTF-8"?>
<svg xmlns="http://www.w3.org/2000/svg" xmlns:xlink="http://www.w3.org/1999/xlink" width="168pt" height="168pt" viewBox="0 0 168 168" version="1.1">
<g id="surface2044">
<path style=" stroke:none;fill-rule:nonzero;fill:rgb(14.509804%,66.666667%,88.235294%);fill-opacity:1;" d="M 168 84 C 168 130.390625 130.390625 168 84 168 C 37.609375 168 0 130.390625 0 84 C 0 37.609375 37.609375 0 84 0 C 130.390625 0 168 37.609375 168 84 "/>
<path style=" stroke:none;fill-rule:evenodd;fill:rgb(100%,100%,100%);fill-opacity:1;" d="M 85.816406 131.214844 C 77.207031 131.308594 69.976562 129.753906 63.164062 126.367188 C 62.742188 126.15625 62.429688 126.148438 62.007812 126.382812 C 57.867188 128.722656 53.324219 130.257812 48.613281 130.910156 C 46.597656 131.171875 44.558594 131.457031 42.535156 131.042969 L 42.535156 131.039062 C 39.996094 130.542969 37.921875 128.710938 37.109375 126.253906 C 36.296875 123.796875 36.871094 121.089844 38.613281 119.175781 C 41.019531 116.441406 42.824219 113.234375 43.917969 109.761719 C 44.046875 109.410156 43.992188 109.015625 43.773438 108.710938 C 40.058594 102.8125 37.761719 96.128906 37.070312 89.191406 C 35.527344 73.851562 40.300781 60.710938 51.296875 49.9375 C 58.21875 43.082031 67.175781 38.652344 76.828125 37.316406 C 90.148438 35.367188 102.285156 38.445312 112.949219 46.703125 C 122.460938 54.074219 128.382812 63.78125 130.449219 75.636719 C 133.0625 90.640625 129.277344 104.007812 119.214844 115.433594 C 111.777344 123.875 102.324219 128.890625 91.207031 130.667969 C 89.097656 131.007812 86.953125 131.105469 85.820312 131.214844 Z M 52.058594 118.679688 C 52.398438 118.585938 52.597656 118.53125 52.792969 118.46875 L 52.792969 118.464844 C 55.78125 117.457031 58.601562 116.011719 61.164062 114.175781 C 63.011719 112.875 64.832031 112.8125 66.78125 113.921875 C 70.960938 116.316406 75.4375 117.808594 80.242188 118.316406 C 88.050781 119.152344 95.414062 117.664062 102.003906 113.433594 C 113.394531 106.125 119.066406 95.605469 118.453125 81.980469 C 118.058594 73.253906 114.640625 65.722656 108.453125 59.582031 C 100.992188 52.191406 91.914062 48.820312 81.398438 49.542969 C 74.3125 50.035156 67.90625 52.472656 62.453125 57.023438 C 51.886719 65.84375 47.804688 77.152344 50.148438 90.710938 C 50.914062 95.171875 52.695312 99.269531 55.203125 103.046875 L 55.199219 103.058594 C 56.167969 104.425781 56.496094 106.144531 56.097656 107.773438 C 55.496094 110.382812 54.652344 112.929688 53.578125 115.382812 C 53.109375 116.449219 52.605469 117.492188 52.066406 118.675781 Z M 84.035156 64.015625 L 87.027344 70.089844 C 88.078125 72.242188 89.160156 74.394531 90.175781 76.566406 C 90.4375 77.132812 90.789062 77.332031 91.378906 77.410156 C 95.789062 78.023438 100.195312 78.671875 104.597656 79.304688 C 104.75 79.332031 104.902344 79.371094 105.089844 79.410156 C 104.277344 80.25 103.519531 81.070312 102.726562 81.839844 C 100.238281 84.269531 97.746094 86.691406 95.234375 89.09375 C 94.796875 89.515625 94.625 89.90625 94.742188 90.554688 C 95.53125 94.980469 96.265625 99.417969 97.011719 103.851562 C 97.027344 103.960938 97.027344 104.078125 97.042969 104.292969 C 96.800781 104.199219 96.617188 104.140625 96.449219 104.050781 C 92.554688 101.996094 88.652344 99.949219 84.773438 97.867188 C 84.25 97.582031 83.839844 97.558594 83.292969 97.851562 C 79.386719 99.9375 75.464844 101.988281 71.542969 104.046875 C 71.386719 104.136719 71.21875 104.203125 70.914062 104.351562 C 71.109375 103.160156 71.277344 102.09375 71.460938 101.035156 C 72.082031 97.453125 72.695312 93.867188 73.351562 90.292969 C 73.445312 89.769531 73.152344 89.519531 72.859375 89.234375 C 69.734375 86.160156 66.601562 83.09375 63.460938 80.035156 C 63.28125 79.855469 63.03125 79.757812 62.808594 79.621094 L 62.972656 79.367188 L 67.78125 78.675781 C 70.804688 78.246094 73.824219 77.804688 76.851562 77.390625 C 77.335938 77.324219 77.554688 77.066406 77.753906 76.65625 C 79.734375 72.617188 81.734375 68.59375 83.722656 64.558594 C 83.796875 64.417969 83.878906 64.285156 84.039062 64.011719 Z M 84.035156 64.015625 "/>
</g>
</svg>
