<?xml version="1.0" encoding="UTF-8"?>
<svg xmlns="http://www.w3.org/2000/svg" xmlns:xlink="http://www.w3.org/1999/xlink" width="168pt" height="168pt" viewBox="0 0 168 168" version="1.1">
<g id="surface1226">
<path style=" stroke:none;fill-rule:nonzero;fill:rgb(20.392157%,26.666667%,35.686275%);fill-opacity:1;" d="M 168 84 C 168 130.390625 130.390625 168 84 168 C 37.609375 168 0 130.390625 0 84 C 0 37.609375 37.609375 0 84 0 C 130.390625 0 168 37.609375 168 84 "/>
<path style=" stroke:none;fill-rule:nonzero;fill:rgb(100%,100%,100%);fill-opacity:1;" d="M 83.667969 53.664062 L 94.21875 37.199219 L 94.222656 37.203125 C 99.847656 38.113281 105.195312 34.441406 106.359375 28.863281 C 107.527344 23.285156 104.097656 17.777344 98.578125 16.359375 C 94.246094 15.460938 89.808594 17.335938 87.429688 21.066406 C 85.054688 24.796875 85.226562 29.609375 87.871094 33.160156 L 74.777344 53.589844 L 74.777344 53.585938 C 63.738281 54.671875 53.589844 60.097656 46.554688 68.671875 C 39.523438 77.246094 36.1875 88.261719 37.28125 99.296875 C 38.371094 110.332031 43.800781 120.476562 52.371094 127.507812 C 60.941406 134.539062 71.953125 137.878906 82.988281 136.792969 C 94.019531 135.703125 104.167969 130.277344 111.199219 121.703125 C 118.230469 113.132812 121.574219 102.121094 120.488281 91.085938 C 119.546875 81.582031 115.378906 72.6875 108.679688 65.882812 C 101.984375 59.074219 93.15625 54.761719 83.667969 53.664062 Z M 78.863281 117.304688 L 78.867188 117.304688 C 72.984375 117.3125 67.339844 114.976562 63.179688 110.820312 C 59.019531 106.660156 56.683594 101.015625 56.691406 95.136719 C 56.683594 89.253906 59.019531 83.609375 63.179688 79.449219 C 67.339844 75.289062 72.980469 72.953125 78.867188 72.960938 C 83.371094 72.957031 87.769531 74.332031 91.472656 76.894531 C 95.179688 79.457031 98.015625 83.085938 99.601562 87.300781 C 95.265625 81.714844 87.21875 80.699219 81.628906 85.027344 C 76.035156 89.367188 75.019531 97.414062 79.355469 103.003906 C 81.777344 106.121094 85.5 107.949219 89.449219 107.957031 C 93.394531 107.960938 97.125 106.148438 99.5625 103.042969 C 97.964844 107.238281 95.132812 110.851562 91.4375 113.398438 C 87.738281 115.945312 83.355469 117.308594 78.867188 117.304688 Z M 78.863281 117.304688 "/>
<path style=" stroke:none;fill-rule:nonzero;fill:rgb(100%,100%,100%);fill-opacity:1;" d="M 83.667969 53.664062 L 94.21875 37.199219 L 94.222656 37.203125 C 99.847656 38.113281 105.195312 34.441406 106.359375 28.863281 C 107.527344 23.285156 104.097656 17.777344 98.578125 16.359375 C 94.246094 15.460938 89.808594 17.335938 87.429688 21.066406 C 85.054688 24.796875 85.226562 29.609375 87.871094 33.160156 L 74.777344 53.589844 L 74.777344 53.585938 C 63.738281 54.671875 53.589844 60.097656 46.554688 68.671875 C 39.523438 77.246094 36.1875 88.261719 37.28125 99.296875 C 38.371094 110.332031 43.800781 120.476562 52.371094 127.507812 C 60.941406 134.539062 71.953125 137.878906 82.988281 136.792969 C 94.019531 135.703125 104.167969 130.277344 111.199219 121.703125 C 118.230469 113.132812 121.574219 102.121094 120.488281 91.085938 C 119.546875 81.582031 115.378906 72.6875 108.679688 65.882812 C 101.984375 59.074219 93.15625 54.761719 83.667969 53.664062 Z M 78.863281 117.304688 L 78.867188 117.304688 C 72.984375 117.3125 67.339844 114.976562 63.179688 110.820312 C 59.019531 106.660156 56.683594 101.015625 56.691406 95.136719 C 56.683594 89.253906 59.019531 83.609375 63.179688 79.449219 C 67.339844 75.289062 72.980469 72.953125 78.867188 72.960938 C 83.371094 72.957031 87.769531 74.332031 91.472656 76.894531 C 95.179688 79.457031 98.015625 83.085938 99.601562 87.300781 C 95.265625 81.714844 87.21875 80.699219 81.628906 85.027344 C 76.035156 89.367188 75.019531 97.414062 79.355469 103.003906 C 81.777344 106.121094 85.5 107.949219 89.449219 107.957031 C 93.394531 107.960938 97.125 106.148438 99.5625 103.042969 C 97.964844 107.238281 95.132812 110.851562 91.4375 113.398438 C 87.738281 115.945312 83.355469 117.308594 78.867188 117.304688 Z M 78.863281 117.304688 "/>
</g>
</svg>
