<?xml version="1.0" encoding="UTF-8"?>
<svg xmlns="http://www.w3.org/2000/svg" xmlns:xlink="http://www.w3.org/1999/xlink" width="168pt" height="168pt" viewBox="0 0 168 168" version="1.1">
<g id="surface1191">
<path style=" stroke:none;fill-rule:nonzero;fill:rgb(26.27451%,57.254902%,80.392157%);fill-opacity:1;" d="M 168 84 C 168 130.390625 130.390625 168 84 168 C 37.609375 168 0 130.390625 0 84 C 0 37.609375 37.609375 0 84 0 C 130.390625 0 168 37.609375 168 84 "/>
<path style=" stroke:none;fill-rule:evenodd;fill:rgb(100%,100%,100%);fill-opacity:1;" d="M 88.503906 133.875 L 79.496094 133.875 C 72.734375 133.875 70.816406 127.605469 70.816406 122.820312 C 70.816406 118.03125 71.15625 115.863281 71.15625 113.699219 C 71.15625 110.285156 69.433594 101.765625 66.308594 98.195312 C 60.222656 91.238281 56.390625 85.007812 56.390625 75.96875 C 51.097656 73.234375 41.742188 70.722656 38.140625 66.625 C 34.546875 62.523438 31.5 56.699219 31.5 48.375 C 31.5 46.25 31.953125 43.246094 32.855469 39.371094 C 34.929688 45.847656 38.121094 50.292969 42.429688 52.707031 C 48.734375 56.246094 55.84375 58.867188 61.917969 58.867188 L 106.082031 58.867188 C 112.15625 58.867188 119.257812 56.242188 125.570312 52.707031 C 129.875 50.292969 133.074219 45.851562 135.144531 39.371094 C 136.046875 43.246094 136.5 46.25 136.5 48.375 C 136.5 56.695312 133.453125 62.511719 129.851562 66.613281 C 126.25 70.714844 116.894531 73.226562 111.601562 75.957031 C 111.601562 85.003906 107.769531 91.234375 101.683594 98.191406 C 98.558594 101.761719 96.835938 110.28125 96.835938 113.695312 C 96.835938 115.859375 97.175781 118.027344 97.175781 122.816406 C 97.175781 127.605469 95.257812 133.871094 88.496094 133.871094 Z M 88.503906 133.875 "/>
</g>
</svg>
