<?xml version="1.0" encoding="UTF-8"?>
<svg xmlns="http://www.w3.org/2000/svg" xmlns:xlink="http://www.w3.org/1999/xlink" width="168pt" height="168pt" viewBox="0 0 168 168" version="1.1">
<g id="surface1891">
<path style=" stroke:none;fill-rule:nonzero;fill:rgb(37.254902%,27.058824%,72.941176%);fill-opacity:1;" d="M 168 84 C 168 130.390625 130.390625 168 84 168 C 37.609375 168 0 130.390625 0 84 C 0 37.609375 37.609375 0 84 0 C 130.390625 0 168 37.609375 168 84 "/>
<path style=" stroke:none;fill-rule:nonzero;fill:rgb(100%,100%,100%);fill-opacity:1;" d="M 54.824219 48.089844 C 53.632812 50.097656 51.351562 51.191406 49.039062 50.855469 C 46.730469 50.523438 44.847656 48.832031 44.273438 46.570312 C 43.695312 44.308594 44.539062 41.921875 46.410156 40.523438 C 48.28125 39.125 50.808594 38.996094 52.816406 40.1875 C 55.550781 41.816406 56.453125 45.347656 54.828125 48.089844 M 35.140625 45.527344 L 35.136719 45.527344 C 34.296875 46.949219 32.679688 47.722656 31.046875 47.488281 C 29.414062 47.25 28.082031 46.054688 27.675781 44.453125 C 27.269531 42.851562 27.867188 41.164062 29.191406 40.179688 C 30.515625 39.191406 32.304688 39.101562 33.722656 39.945312 C 35.65625 41.101562 36.296875 43.59375 35.140625 45.527344 M 89.945312 129.003906 L 89.941406 129.003906 C 101.820312 127.601562 112.644531 121.515625 120.019531 112.101562 C 127.390625 102.6875 130.703125 90.71875 129.214844 78.851562 C 127.730469 66.984375 121.570312 56.203125 112.101562 48.898438 C 102.632812 41.589844 90.640625 38.367188 78.785156 39.9375 C 75.011719 40.289062 71.3125 41.21875 67.820312 42.6875 C 63.75 44.683594 61.125 48.003906 61.125 52.453125 C 61.125 58.226562 65.808594 62.921875 71.59375 62.921875 C 72.558594 62.921875 75.902344 61.863281 76.703125 61.589844 L 76.703125 61.585938 C 84.355469 58.917969 92.839844 60.257812 99.296875 65.164062 C 105.75 70.066406 109.320312 77.878906 108.800781 85.96875 C 108.375 92.765625 105.101562 99.066406 99.792969 103.324219 C 94.480469 107.585938 87.621094 109.410156 80.894531 108.347656 C 74.167969 107.289062 68.199219 103.445312 64.453125 97.761719 L 64.453125 97.765625 C 59.625 91.4375 60.734375 81.328125 60.730469 81.195312 C 60.535156 76.023438 56.59375 71.765625 51.453125 71.175781 C 46.308594 70.585938 41.503906 73.835938 40.140625 78.828125 C 39.90625 79.703125 39.785156 82.273438 39.820312 82.613281 C 39.285156 95.746094 44.53125 108.449219 54.175781 117.375 C 63.820312 126.300781 76.894531 130.550781 89.941406 129.003906 M 48.824219 64.101562 C 47.28125 66.703125 44.324219 68.117188 41.332031 67.683594 C 38.339844 67.253906 35.902344 65.0625 35.152344 62.132812 C 34.40625 59.203125 35.496094 56.113281 37.917969 54.300781 C 40.335938 52.488281 43.609375 52.3125 46.210938 53.855469 C 49.761719 55.964844 50.925781 60.554688 48.820312 64.101562 "/>
</g>
</svg>
