<?xml version="1.0" encoding="UTF-8"?>
<svg xmlns="http://www.w3.org/2000/svg" xmlns:xlink="http://www.w3.org/1999/xlink" width="168pt" height="168pt" viewBox="0 0 168 168" version="1.1">
<g id="surface1441">
<path style=" stroke:none;fill-rule:nonzero;fill:rgb(13.333333%,38.039216%,96.470588%);fill-opacity:1;" d="M 168 84 C 168 130.390625 130.390625 168 84 168 C 37.609375 168 0 130.390625 0 84 C 0 37.609375 37.609375 0 84 0 C 130.390625 0 168 37.609375 168 84 "/>
<path style=" stroke:none;fill-rule:nonzero;fill:rgb(100%,100%,100%);fill-opacity:1;" d="M 92.3125 131.019531 C 92.3125 135.496094 88.589844 139.125 84 139.125 C 79.410156 139.125 75.6875 135.496094 75.6875 131.019531 C 75.6875 126.542969 79.410156 122.914062 84 122.914062 C 88.589844 122.914062 92.3125 126.542969 92.3125 131.019531 "/>
<path style=" stroke:none;fill-rule:nonzero;fill:rgb(100%,100%,100%);fill-opacity:1;" d="M 92.3125 36.980469 C 92.3125 41.457031 88.589844 45.085938 84 45.085938 C 79.410156 45.085938 75.6875 41.457031 75.6875 36.980469 C 75.6875 32.503906 79.410156 28.875 84 28.875 C 88.589844 28.875 92.3125 32.503906 92.3125 36.980469 "/>
<path style=" stroke:none;fill-rule:nonzero;fill:rgb(100%,100%,100%);fill-opacity:1;" d="M 90.652344 60.761719 C 90.652344 64.34375 87.671875 67.246094 84 67.246094 C 80.328125 67.246094 77.347656 64.34375 77.347656 60.761719 C 77.347656 57.183594 80.328125 54.28125 84 54.28125 C 87.671875 54.28125 90.652344 57.183594 90.652344 60.761719 "/>
<path style=" stroke:none;fill-rule:nonzero;fill:rgb(100%,100%,100%);fill-opacity:1;" d="M 67.378906 48.871094 C 67.378906 52.453125 64.402344 55.355469 60.726562 55.355469 C 57.054688 55.355469 54.074219 52.453125 54.074219 48.871094 C 54.074219 45.292969 57.054688 42.386719 60.726562 42.386719 C 64.402344 42.386719 67.378906 45.292969 67.378906 48.871094 "/>
<path style=" stroke:none;fill-rule:nonzero;fill:rgb(100%,100%,100%);fill-opacity:1;" d="M 67.378906 119.667969 C 67.378906 123.25 64.402344 126.152344 60.726562 126.152344 C 57.054688 126.152344 54.074219 123.25 54.074219 119.667969 C 54.074219 116.085938 57.054688 113.183594 60.726562 113.183594 C 64.402344 113.183594 67.378906 116.085938 67.378906 119.667969 "/>
<path style=" stroke:none;fill-rule:nonzero;fill:rgb(100%,100%,100%);fill-opacity:1;" d="M 111.429688 72.921875 C 111.429688 76.503906 108.453125 79.40625 104.78125 79.40625 C 101.105469 79.40625 98.128906 76.503906 98.128906 72.921875 C 98.128906 69.339844 101.105469 66.4375 104.78125 66.4375 C 108.453125 66.4375 111.429688 69.339844 111.429688 72.921875 "/>
<path style=" stroke:none;fill-rule:nonzero;fill:rgb(100%,100%,100%);fill-opacity:1;" d="M 111.429688 95.351562 C 111.429688 98.929688 108.453125 101.835938 104.78125 101.835938 C 101.105469 101.835938 98.128906 98.929688 98.128906 95.351562 C 98.128906 91.769531 101.105469 88.867188 104.78125 88.867188 C 108.453125 88.867188 111.429688 91.769531 111.429688 95.351562 "/>
<path style=" stroke:none;fill-rule:nonzero;fill:rgb(100%,100%,100%);fill-opacity:1;" d="M 90.652344 107.242188 C 90.652344 110.824219 87.671875 113.726562 84 113.726562 C 80.328125 113.726562 77.347656 110.824219 77.347656 107.242188 C 77.347656 103.660156 80.328125 100.757812 84 100.757812 C 87.671875 100.757812 90.652344 103.660156 90.652344 107.242188 "/>
<path style=" stroke:none;fill-rule:nonzero;fill:rgb(100%,100%,100%);fill-opacity:1;" d="M 89.265625 84 C 89.265625 91 78.734375 91 78.734375 84 C 78.734375 77 89.265625 77 89.265625 84 "/>
<path style=" stroke:none;fill-rule:nonzero;fill:rgb(100%,100%,100%);fill-opacity:1;" d="M 65.992188 95.617188 C 65.992188 102.617188 55.460938 102.617188 55.460938 95.617188 C 55.460938 88.617188 65.992188 88.617188 65.992188 95.617188 "/>
<path style=" stroke:none;fill-rule:nonzero;fill:rgb(100%,100%,100%);fill-opacity:1;" d="M 65.992188 72.921875 C 65.992188 79.921875 55.460938 79.921875 55.460938 72.921875 C 55.460938 65.921875 65.992188 65.921875 65.992188 72.921875 "/>
<path style=" stroke:none;fill-rule:nonzero;fill:rgb(100%,100%,100%);fill-opacity:1;" d="M 43.253906 60.761719 C 43.253906 67.761719 32.753906 67.761719 32.753906 60.761719 C 32.753906 53.761719 43.253906 53.761719 43.253906 60.761719 "/>
<path style=" stroke:none;fill-rule:nonzero;fill:rgb(100%,100%,100%);fill-opacity:1;" d="M 43.253906 84 C 43.253906 91 32.753906 91 32.753906 84 C 32.753906 77 43.253906 77 43.253906 84 "/>
<path style=" stroke:none;fill-rule:nonzero;fill:rgb(100%,100%,100%);fill-opacity:1;" d="M 43.253906 107.238281 C 43.253906 114.238281 32.753906 114.238281 32.753906 107.238281 C 32.753906 100.238281 43.253906 100.238281 43.253906 107.238281 "/>
<path style=" stroke:none;fill-rule:nonzero;fill:rgb(100%,100%,100%);fill-opacity:1;" d="M 113.089844 48.871094 C 113.089844 53.347656 109.371094 56.976562 104.78125 56.976562 C 100.191406 56.976562 96.46875 53.347656 96.46875 48.871094 C 96.46875 44.394531 100.191406 40.765625 104.78125 40.765625 C 109.371094 40.765625 113.089844 44.394531 113.089844 48.871094 "/>
<path style=" stroke:none;fill-rule:nonzero;fill:rgb(100%,100%,100%);fill-opacity:1;" d="M 113.089844 119.402344 C 113.089844 123.878906 109.371094 127.507812 104.78125 127.507812 C 100.191406 127.507812 96.46875 123.878906 96.46875 119.402344 C 96.46875 114.925781 100.191406 111.292969 104.78125 111.292969 C 109.371094 111.292969 113.089844 114.925781 113.089844 119.402344 "/>
<path style=" stroke:none;fill-rule:nonzero;fill:rgb(100%,100%,100%);fill-opacity:1;" d="M 133.875 60.757812 C 133.875 65.234375 130.152344 68.863281 125.5625 68.863281 C 120.972656 68.863281 117.253906 65.234375 117.253906 60.757812 C 117.253906 56.28125 120.972656 52.652344 125.5625 52.652344 C 130.152344 52.652344 133.875 56.28125 133.875 60.757812 "/>
<path style=" stroke:none;fill-rule:nonzero;fill:rgb(100%,100%,100%);fill-opacity:1;" d="M 133.875 107.242188 C 133.875 111.71875 130.152344 115.347656 125.5625 115.347656 C 120.972656 115.347656 117.253906 111.71875 117.253906 107.242188 C 117.253906 102.765625 120.972656 99.136719 125.5625 99.136719 C 130.152344 99.136719 133.875 102.765625 133.875 107.242188 "/>
<path style=" stroke:none;fill-rule:nonzero;fill:rgb(100%,100%,100%);fill-opacity:1;" d="M 133.875 84 C 133.875 88.476562 130.152344 92.105469 125.5625 92.105469 C 120.972656 92.105469 117.253906 88.476562 117.253906 84 C 117.253906 79.523438 120.972656 75.894531 125.5625 75.894531 C 130.152344 75.894531 133.875 79.523438 133.875 84 "/>
</g>
</svg>
