<?xml version="1.0" encoding="UTF-8"?>
<svg xmlns="http://www.w3.org/2000/svg" xmlns:xlink="http://www.w3.org/1999/xlink" width="168pt" height="168pt" viewBox="0 0 168 168" version="1.1">
<g id="surface1954">
<path style=" stroke:none;fill-rule:nonzero;fill:rgb(39.607843%,79.607843%,55.294118%);fill-opacity:1;" d="M 168 84 C 168 130.390625 130.390625 168 84 168 C 37.609375 168 0 130.390625 0 84 C 0 37.609375 37.609375 0 84 0 C 130.390625 0 168 37.609375 168 84 "/>
<path style=" stroke:none;fill-rule:nonzero;fill:rgb(100%,100%,100%);fill-opacity:1;" d="M 96.882812 97.058594 L 70.921875 97.058594 L 70.921875 70.945312 L 96.882812 70.945312 Z M 136.046875 53.359375 L 136.046875 53.355469 C 134.953125 47.046875 131.597656 41.351562 126.613281 37.332031 C 121.972656 33.554688 116.167969 31.496094 110.183594 31.503906 C 92.558594 31.503906 74.917969 31.488281 57.296875 31.515625 C 48.097656 31.621094 39.40625 36.949219 34.933594 44.960938 C 32.445312 49.265625 31.511719 54.097656 31.503906 59.019531 C 31.515625 75.09375 31.5 91.179688 31.507812 107.25 C 31.476562 110.988281 31.640625 114.585938 32.804688 118.171875 C 35.402344 126.476562 42.414062 133.207031 50.777344 135.550781 C 48.246094 133.53125 47.128906 130.722656 46.304688 127.679688 C 44.605469 121.011719 44.472656 114.082031 44.746094 107.257812 C 44.71875 91.175781 44.757812 75.097656 44.726562 59.019531 C 44.753906 56.253906 44.957031 53.652344 46.371094 51.207031 C 48.550781 47.300781 52.796875 44.6875 57.300781 44.75 C 74.046875 44.734375 90.820312 44.75 107.570312 44.738281 C 110.101562 44.742188 112.398438 44.554688 114.816406 45.472656 L 114.808594 45.476562 C 118.894531 46.898438 121.957031 50.332031 122.898438 54.558594 C 123.398438 56.988281 123.265625 59.6875 123.269531 62.171875 L 123.269531 109.355469 C 123.269531 111.671875 123.011719 113.9375 122.019531 116.054688 C 119.964844 120.355469 115.523438 123.335938 110.714844 123.246094 C 97.453125 123.265625 84.179688 123.246094 70.917969 123.257812 C 70.898438 118.933594 70.902344 114.601562 70.917969 110.273438 C 81.738281 110.273438 92.558594 110.257812 103.378906 110.285156 C 105.710938 110.410156 108.394531 109.230469 109.46875 107.082031 C 110.074219 105.980469 110.171875 104.8125 110.199219 103.589844 C 110.1875 90.480469 110.195312 77.375 110.195312 64.261719 L 110.199219 64.261719 C 110.347656 61.878906 109.089844 59.632812 106.984375 58.515625 C 105.195312 57.464844 103.273438 57.738281 101.28125 57.703125 C 88.890625 57.734375 76.484375 57.6875 64.101562 57.730469 C 60.558594 57.640625 57.605469 60.726562 57.71875 64.261719 C 57.667969 83.097656 57.71875 102.039062 57.691406 120.886719 C 57.792969 124.628906 57.671875 128.179688 59.839844 131.417969 C 61.484375 134.09375 64.261719 135.457031 67.253906 136.046875 C 70.789062 136.617188 74.167969 136.484375 77.722656 136.488281 C 88.539062 136.488281 99.359375 136.484375 110.183594 136.5 C 115.566406 136.546875 120.808594 134.800781 125.226562 131.753906 C 129.96875 128.257812 133.640625 123.433594 135.332031 117.753906 C 136.503906 113.910156 136.480469 110.179688 136.503906 106.203125 L 136.503906 61.121094 C 136.484375 58.542969 136.453125 55.90625 136.058594 53.351562 "/>
</g>
</svg>
