<?xml version="1.0" encoding="UTF-8"?>
<svg xmlns="http://www.w3.org/2000/svg" xmlns:xlink="http://www.w3.org/1999/xlink" width="168pt" height="168pt" viewBox="0 0 168 168" version="1.1">
<g id="surface1944">
<path style=" stroke:none;fill-rule:nonzero;fill:rgb(96.862745%,57.647059%,11.764706%);fill-opacity:1;" d="M 168 84 C 168 130.390625 130.390625 168 84 168 C 37.609375 168 0 130.390625 0 84 C 0 37.609375 37.609375 0 84 0 C 130.390625 0 168 37.609375 168 84 "/>
<path style=" stroke:none;fill-rule:nonzero;fill:rgb(100%,100%,100%);fill-opacity:1;" d="M 84 21 C 49.207031 21 21 49.207031 21 84 C 21 118.792969 49.207031 147 84 147 C 118.792969 147 147 118.792969 147 84 C 147 67.292969 140.363281 51.265625 128.546875 39.453125 C 116.734375 27.636719 100.707031 21 84 21 Z M 115.5 51.519531 C 122.023438 51.519531 127.3125 56.808594 127.3125 63.332031 L 127.3125 81.046875 L 127.3125 81.042969 C 127.3125 87.566406 122.023438 92.855469 115.5 92.855469 L 100.875 92.855469 L 99.929688 97.285156 L 99.929688 97.289062 C 99.664062 98.402344 98.691406 99.207031 97.546875 99.257812 L 94.589844 99.257812 C 94.09375 99.277344 93.617188 99.058594 93.3125 98.667969 C 93.003906 98.277344 92.902344 97.765625 93.039062 97.289062 L 93.984375 92.863281 L 87.089844 92.863281 L 86.144531 97.289062 L 86.148438 97.289062 C 85.882812 98.402344 84.910156 99.207031 83.765625 99.257812 L 80.808594 99.257812 C 80.3125 99.277344 79.835938 99.058594 79.53125 98.667969 C 79.222656 98.277344 79.121094 97.765625 79.257812 97.289062 L 80.203125 92.863281 L 72.816406 92.863281 L 66.328125 123.375 L 50.578125 123.375 L 62.085938 69.230469 L 77.835938 69.230469 L 75.328125 81.042969 L 105.65625 81.042969 C 108.917969 81.042969 111.5625 78.402344 111.5625 75.140625 L 111.5625 69.230469 C 111.5625 65.976562 108.917969 63.328125 105.65625 63.328125 L 40.6875 63.332031 L 50.53125 51.519531 L 88.992188 51.519531 L 89.933594 47.089844 L 89.933594 47.085938 C 90.195312 45.972656 91.171875 45.167969 92.316406 45.117188 L 95.273438 45.117188 C 95.769531 45.097656 96.242188 45.316406 96.550781 45.707031 C 96.855469 46.097656 96.957031 46.609375 96.820312 47.085938 L 95.878906 51.515625 L 102.773438 51.515625 L 103.714844 47.085938 C 103.976562 45.972656 104.953125 45.167969 106.097656 45.117188 L 109.054688 45.117188 C 109.550781 45.097656 110.023438 45.316406 110.332031 45.707031 C 110.636719 46.097656 110.738281 46.609375 110.601562 47.085938 L 109.660156 51.515625 Z M 115.5 51.519531 "/>
</g>
</svg>
