<?xml version="1.0" encoding="UTF-8"?>
<svg xmlns="http://www.w3.org/2000/svg" xmlns:xlink="http://www.w3.org/1999/xlink" width="168pt" height="168pt" viewBox="0 0 168 168" version="1.1">
<g id="surface2277">
<path style=" stroke:none;fill-rule:evenodd;fill:rgb(0%,67.45098%,100%);fill-opacity:1;" d="M 168 84 C 168 130.390625 130.390625 168 84 168 C 37.609375 168 0 130.390625 0 84 C 0 37.609375 37.609375 0 84 0 C 130.390625 0 168 37.609375 168 84 "/>
<path style=" stroke:none;fill-rule:evenodd;fill:rgb(100%,100%,100%);fill-opacity:1;" d="M 79.171875 105.820312 C 79.828125 105.546875 80.570312 105.546875 81.226562 105.820312 C 81.886719 106.097656 82.410156 106.621094 82.675781 107.285156 C 83.242188 108.65625 82.59375 110.230469 81.222656 110.804688 L 63.339844 118.226562 L 60.96875 131.246094 L 48.664062 131.25 L 50.011719 123.761719 L 42.757812 126.769531 L 42.757812 126.773438 C 42.097656 127.046875 41.355469 127.042969 40.699219 126.769531 C 40.039062 126.496094 39.519531 125.96875 39.25 125.308594 C 38.6875 123.933594 39.335938 122.363281 40.703125 121.789062 L 51.152344 117.453125 L 51.941406 113.046875 L 37.835938 118.902344 L 37.832031 118.902344 C 37.171875 119.175781 36.433594 119.171875 35.777344 118.898438 C 35.117188 118.621094 34.597656 118.097656 34.328125 117.4375 C 33.765625 116.0625 34.414062 114.488281 35.785156 113.914062 L 53.074219 106.738281 L 65.660156 36.800781 L 101.21875 36.800781 C 122.992188 36.050781 133.875 43.320312 133.875 58.613281 C 133.875 78.011719 119.691406 93.015625 95.628906 93.015625 L 67.933594 93.019531 L 66.449219 101.1875 L 74.257812 97.949219 C 74.914062 97.675781 75.652344 97.679688 76.3125 97.953125 C 76.96875 98.230469 77.488281 98.753906 77.757812 99.414062 C 78.320312 100.785156 77.671875 102.355469 76.304688 102.929688 L 65.296875 107.503906 L 64.492188 111.914062 Z M 76.179688 47.824219 L 70.027344 81.554688 L 97.421875 81.554688 C 114.285156 81.554688 120.679688 70.082031 120.679688 61.761719 C 120.679688 53.445312 116.65625 47.824219 103.238281 47.824219 Z M 76.179688 47.824219 "/>
</g>
</svg>
