<?xml version="1.0" encoding="UTF-8"?>
<svg xmlns="http://www.w3.org/2000/svg" xmlns:xlink="http://www.w3.org/1999/xlink" width="168pt" height="168pt" viewBox="0 0 168 168" version="1.1">
<g id="surface691">
<path style=" stroke:none;fill-rule:nonzero;fill:rgb(22.352941%,50.980392%,37.647059%);fill-opacity:1;" d="M 168 84 C 168 130.390625 130.390625 168 84 168 C 37.609375 168 0 130.390625 0 84 C 0 37.609375 37.609375 0 84 0 C 130.390625 0 168 37.609375 168 84 "/>
<path style=" stroke:none;fill-rule:nonzero;fill:rgb(100%,100%,100%);fill-opacity:1;" d="M 97.664062 36.289062 C 106.789062 42.730469 116.292969 43.449219 128.445312 45.6875 C 139.5 47.742188 141.847656 59.03125 136.796875 73.40625 L 136.800781 73.40625 C 136.492188 72.890625 136.179688 72.378906 135.855469 71.871094 L 136.800781 73.402344 L 136.710938 73.636719 L 136.800781 73.402344 C 144.503906 86.484375 144.445312 100.65625 127.777344 107.90625 C 98.097656 120.820312 96.328125 146.257812 68.277344 132.566406 C 64.300781 130.609375 60.726562 127.917969 57.75 124.636719 L 56.65625 123.390625 L 55.644531 123.21875 C 36.816406 119.886719 24.460938 109.679688 35.894531 83.640625 C 46.011719 60.628906 36.976562 37.988281 68.003906 38.996094 L 68.015625 38.996094 C 76.5625 30.980469 86.417969 28.371094 97.664062 36.292969 Z M 68.753906 59.558594 C 55.746094 68.898438 51.460938 86.292969 60.121094 99.800781 L 60.121094 99.796875 C 64.257812 106.277344 70.804688 110.839844 78.316406 112.472656 C 85.828125 114.101562 93.679688 112.667969 100.128906 108.484375 C 113.558594 99.769531 115.394531 82.863281 108.761719 68.234375 C 101.964844 53.234375 83.300781 49.113281 68.757812 59.554688 Z M 68.753906 59.558594 "/>
</g>
</svg>
