<?xml version="1.0" encoding="UTF-8"?>
<svg xmlns="http://www.w3.org/2000/svg" xmlns:xlink="http://www.w3.org/1999/xlink" width="168pt" height="168pt" viewBox="0 0 168 168" version="1.1">
<g id="surface1616">
<path style=" stroke:none;fill-rule:nonzero;fill:rgb(18.823529%,17.254902%,17.254902%);fill-opacity:1;" d="M 168 84 C 168 130.390625 130.390625 168 84 168 C 37.609375 168 0 130.390625 0 84 C 0 37.609375 37.609375 0 84 0 C 130.390625 0 168 37.609375 168 84 "/>
<path style=" stroke:none;fill-rule:nonzero;fill:rgb(100%,100%,100%);fill-opacity:1;" d="M 141.277344 82.402344 C 140.988281 81.820312 140.609375 81.289062 140.148438 80.828125 C 130.164062 69.519531 109.839844 47.25 109.839844 47.25 L 84.027344 75.484375 L 57.882812 47.519531 C 57.882812 47.519531 37.320312 69.984375 27.246094 81.410156 C 25.933594 82.703125 25.933594 85.03125 27.109375 86.40625 C 32.34375 92.371094 58.054688 120.71875 58.054688 120.71875 L 83.988281 92.296875 L 109.746094 120.75 L 140.808594 86.382812 C 140.808594 86.382812 141.464844 85.699219 141.605469 85.242188 C 141.910156 84.296875 141.691406 83.269531 141.273438 82.402344 M 41.566406 85.546875 C 40.726562 84.554688 41.011719 82.996094 41.792969 82.054688 C 45.078125 78.3125 58.230469 64.203125 58.230469 64.203125 L 76.554688 83.65625 L 58.199219 103.730469 C 58.199219 103.730469 46.964844 91.738281 41.566406 85.542969 M 125.503906 86.203125 L 125.507812 86.210938 C 125.121094 86.875 124.667969 87.496094 124.164062 88.074219 L 109.9375 103.535156 L 91.558594 84 L 109.640625 64.179688 C 109.640625 64.179688 120.054688 74.96875 124.828125 80.769531 C 125.230469 81.273438 125.710938 81.75 125.914062 82.390625 C 126.351562 83.644531 126.070312 85.042969 125.5 86.203125 "/>
</g>
</svg>
