<?xml version="1.0" encoding="UTF-8"?>
<svg xmlns="http://www.w3.org/2000/svg" xmlns:xlink="http://www.w3.org/1999/xlink" width="168pt" height="168pt" viewBox="0 0 168 168" version="1.1">
<g id="surface1726">
<path style=" stroke:none;fill-rule:nonzero;fill:rgb(40%,20%,0%);fill-opacity:1;" d="M 168 84 C 168 130.390625 130.390625 168 84 168 C 37.609375 168 0 130.390625 0 84 C 0 37.609375 37.609375 0 84 0 C 130.390625 0 168 37.609375 168 84 "/>
<path style=" stroke:none;fill-rule:nonzero;fill:rgb(100%,100%,100%);fill-opacity:1;" d="M 61.363281 52.832031 L 67.925781 36.75 L 112.875 36.914062 C 119.4375 37.40625 127.3125 37.40625 131.742188 42.988281 C 136.992188 49.058594 135.84375 57.75 133.21875 64.640625 L 133.21875 64.636719 C 128.074219 79.710938 115.457031 91.023438 99.914062 94.5 C 89.089844 96.144531 78.09375 95.648438 67.101562 95.648438 C 69.289062 90.308594 71.480469 84.949219 73.664062 79.566406 C 82.6875 79.566406 91.875 80.058594 101.0625 78.585938 C 109.429688 76.453125 117.144531 68.085938 115.832031 58.898438 C 115.007812 54.960938 110.582031 53.15625 106.800781 53.15625 C 91.710938 52.5 76.613281 53.15625 61.523438 52.824219 L 61.359375 52.824219 Z M 61.363281 52.832031 "/>
<path style=" stroke:none;fill-rule:nonzero;fill:rgb(100%,100%,100%);fill-opacity:1;" d="M 42 57.257812 L 95.320312 57.257812 L 88.269531 75.46875 L 34.777344 75.46875 L 42 57.417969 Z M 50.53125 79.570312 L 69.070312 79.570312 L 49.71875 128.789062 L 31.5 128.789062 L 50.695312 79.570312 Z M 50.53125 79.570312 "/>
</g>
</svg>
