<?xml version="1.0" encoding="UTF-8"?>
<svg xmlns="http://www.w3.org/2000/svg" xmlns:xlink="http://www.w3.org/1999/xlink" width="168pt" height="168pt" viewBox="0 0 168 168" version="1.1">
<g id="surface2310">
<path style=" stroke:none;fill-rule:evenodd;fill:rgb(92.941176%,47.45098%,66.666667%);fill-opacity:1;" d="M 168 84 C 168 130.390625 130.390625 168 84 168 C 37.609375 168 0 130.390625 0 84 C 0 37.609375 37.609375 0 84 0 C 130.390625 0 168 37.609375 168 84 "/>
<path style=" stroke:none;fill-rule:evenodd;fill:rgb(100%,100%,100%);fill-opacity:0.5;" d="M 123.121094 46.878906 L 113.304688 56.765625 L 113.304688 56.761719 C 106.160156 49.535156 96.417969 45.472656 86.257812 45.480469 C 65.703125 45.480469 48.929688 61.808594 48.046875 82.28125 L 48.003906 82.28125 L 48.003906 119.671875 L 48.007812 119.671875 C 39.054688 109.953125 34.097656 97.214844 34.125 84 C 34.125 55.003906 57.464844 31.5 86.257812 31.5 C 100.109375 31.488281 113.386719 37.027344 123.121094 46.878906 Z M 123.121094 121.125 L 123.121094 121.121094 C 113.59375 130.765625 100.664062 136.285156 87.109375 136.5 L 87.109375 122.515625 C 96.972656 122.300781 106.367188 118.257812 113.304688 111.242188 Z M 123.121094 121.125 "/>
<path style=" stroke:none;fill-rule:evenodd;fill:rgb(100%,100%,100%);fill-opacity:1;" d="M 61.324219 130.117188 L 61.324219 82.289062 L 61.359375 82.289062 C 62.097656 68.613281 73.34375 57.75 87.109375 57.75 C 101.347656 57.75 112.890625 69.375 112.890625 83.714844 C 112.890625 98.050781 101.347656 109.675781 87.113281 109.675781 L 87.113281 109.679688 C 82.527344 109.683594 78.023438 108.457031 74.078125 106.125 L 74.078125 135.058594 L 74.078125 135.054688 C 69.625 133.984375 65.339844 132.324219 61.324219 130.121094 Z M 87.105469 96.84375 L 87.109375 96.839844 C 90.578125 96.832031 93.898438 95.441406 96.34375 92.980469 C 98.789062 90.519531 100.15625 87.1875 100.144531 83.714844 C 100.144531 76.464844 94.304688 70.589844 87.109375 70.589844 C 83.640625 70.605469 80.316406 71.992188 77.875 74.457031 C 75.429688 76.917969 74.066406 80.25 74.078125 83.714844 C 74.078125 90.960938 79.910156 96.839844 87.109375 96.839844 Z M 87.105469 96.84375 "/>
</g>
</svg>
