<?xml version="1.0" encoding="UTF-8"?>
<svg xmlns="http://www.w3.org/2000/svg" xmlns:xlink="http://www.w3.org/1999/xlink" width="168pt" height="168pt" viewBox="0 0 168 168" version="1.1">
<g id="surface1381">
<path style=" stroke:none;fill-rule:evenodd;fill:rgb(58.823529%,71.764706%,23.921569%);fill-opacity:1;" d="M 168 84 C 168 130.390625 130.390625 168 84 168 C 37.609375 168 0 130.390625 0 84 C 0 37.609375 37.609375 0 84 0 C 130.390625 0 168 37.609375 168 84 "/>
<path style=" stroke:none;fill-rule:nonzero;fill:rgb(100%,100%,100%);fill-opacity:1;" d="M 60.867188 84.550781 C 61.320312 85.90625 61.984375 87.175781 62.847656 88.320312 L 49.757812 75.101562 C 46.921875 72.238281 46.921875 67.621094 49.757812 64.757812 L 66.269531 48.234375 C 66.609375 47.980469 66.9375 47.710938 67.25 47.425781 L 67.726562 47.003906 L 81.097656 33.621094 L 81.101562 33.625 C 82.460938 32.261719 84.308594 31.496094 86.230469 31.5 C 88.15625 31.503906 90 32.273438 91.355469 33.640625 L 135.15625 77.757812 C 137.214844 80.6875 136.882812 84.667969 134.363281 87.214844 C 131.878906 89.71875 127.984375 90.144531 125.019531 88.238281 L 86.328125 49.179688 L 86.285156 49.128906 L 86.160156 48.992188 L 65.460938 69.699219 L 65.144531 69.960938 L 65.140625 69.957031 C 65.128906 69.96875 65.117188 69.984375 65.105469 70 L 85.558594 90.617188 L 85.558594 90.613281 C 87.390625 92.464844 88.105469 95.152344 87.4375 97.667969 C 86.765625 100.1875 84.8125 102.160156 82.304688 102.859375 C 79.792969 103.535156 77.113281 102.8125 75.285156 100.960938 L 64.804688 90.410156 C 64.652344 90.273438 64.5 90.09375 64.3125 89.90625 L 63.828125 89.421875 C 63.476562 89.027344 63.152344 88.613281 62.847656 88.179688 L 63.082031 88.457031 L 62.925781 88.253906 C 62.046875 87.136719 61.351562 85.886719 60.867188 84.550781 Z M 103.632812 98.058594 L 83.152344 77.429688 L 83.15625 77.433594 C 80.316406 74.570312 80.316406 69.953125 83.15625 67.089844 C 84.515625 65.722656 86.367188 64.957031 88.292969 64.960938 C 90.222656 64.964844 92.066406 65.738281 93.421875 67.109375 L 103.90625 77.660156 C 104.054688 77.792969 104.207031 77.976562 104.398438 78.160156 L 104.875 78.644531 C 105.148438 78.949219 105.398438 79.273438 105.632812 79.605469 L 105.75 79.746094 C 105.601562 79.535156 105.453125 79.328125 105.300781 79.121094 L 119.003906 92.914062 L 119 92.914062 C 121.84375 95.78125 121.84375 100.402344 119 103.265625 L 102.476562 119.792969 L 102.480469 119.792969 C 102.132812 120.042969 101.800781 120.304688 101.484375 120.585938 L 87.707031 134.363281 C 86.351562 135.730469 84.503906 136.5 82.578125 136.5 C 80.652344 136.5 78.804688 135.730469 77.449219 134.363281 L 32.945312 89.492188 C 30.699219 86.445312 31.117188 82.191406 33.914062 79.640625 C 36.707031 77.101562 40.976562 77.125 43.742188 79.695312 L 82.507812 118.835938 L 82.640625 118.992188 L 103.300781 98.339844 L 103.605469 98.09375 L 103.601562 98.089844 C 103.613281 98.082031 103.625 98.070312 103.636719 98.058594 Z M 103.632812 98.058594 "/>
</g>
</svg>
