<?xml version="1.0" encoding="UTF-8"?>
<svg xmlns="http://www.w3.org/2000/svg" xmlns:xlink="http://www.w3.org/1999/xlink" width="168pt" height="168pt" viewBox="0 0 168 168" version="1.1">
<g id="surface1401">
<path style=" stroke:none;fill-rule:evenodd;fill:rgb(0%,74.901961%,100%);fill-opacity:1;" d="M 168 84 C 168 130.390625 130.390625 168 84 168 C 37.609375 168 0 130.390625 0 84 C 0 37.609375 37.609375 0 84 0 C 130.390625 0 168 37.609375 168 84 "/>
<path style=" stroke:none;fill-rule:nonzero;fill:rgb(100%,100%,100%);fill-opacity:1;" d="M 44.152344 109.734375 L 43.636719 109.734375 L 43.636719 131.25 L 31.5 131.25 L 31.5 58.40625 L 43.363281 58.40625 L 43.363281 61.765625 L 43.832031 61.765625 C 47.972656 57.796875 53.25 57.6875 56.210938 57.6875 C 68.621094 57.6875 76.757812 69.515625 76.757812 85.3125 L 76.757812 87.359375 C 76.757812 103.796875 67.339844 113.59375 56 113.59375 C 50.691406 113.609375 46.761719 112.398438 44.152344 109.734375 Z M 65.488281 88.335938 L 65.488281 84.75 C 65.488281 74.460938 61.566406 67.578125 54.578125 67.578125 C 47.027344 67.578125 42.980469 75.578125 42.980469 84.75 L 42.980469 88.320312 C 42.980469 97.0625 46.964844 103.753906 54.789062 103.753906 C 60.949219 103.734375 65.488281 98.933594 65.488281 88.335938 Z M 82.636719 36.75 L 94.789062 36.75 L 94.789062 113.273438 L 82.636719 113.273438 Z M 129.515625 70.398438 C 122.699219 70.398438 115.933594 75.804688 115.933594 82.640625 L 115.933594 113.320312 L 103.84375 113.320312 L 103.84375 58.921875 L 115.042969 58.921875 L 115.042969 62.265625 L 115.5 62.265625 C 118.21875 59.398438 124.871094 58.054688 130.339844 58.132812 C 130.886719 58.132812 130.433594 58.148438 130.964844 58.148438 L 131.027344 70.398438 Z M 124.414062 100.25 L 136.5 100.25 L 136.5 113.273438 L 124.410156 113.273438 Z M 124.414062 100.25 "/>
</g>
</svg>
