<?xml version="1.0" encoding="UTF-8"?>
<svg xmlns="http://www.w3.org/2000/svg" xmlns:xlink="http://www.w3.org/1999/xlink" width="168pt" height="168pt" viewBox="0 0 168 168" version="1.1">
<g id="surface166">
<path style=" stroke:none;fill-rule:nonzero;fill:rgb(26.666667%,30.980392%,63.137255%);fill-opacity:1;" d="M 168 84 C 168 130.390625 130.390625 168 84 168 C 37.609375 168 0 130.390625 0 84 C 0 37.609375 37.609375 0 84 0 C 130.390625 0 168 37.609375 168 84 "/>
<path style=" stroke:none;fill-rule:nonzero;fill:rgb(100%,100%,100%);fill-opacity:1;" d="M 26.25 126 L 84 26.25 L 141.75 126 Z M 62.328125 75.199219 C 69.074219 70.695312 76.308594 68.421875 84 68.421875 C 91.691406 68.421875 98.925781 70.695312 105.671875 75.199219 L 84 37.769531 Z M 52.085938 92.890625 L 36.351562 120.070312 L 131.648438 120.070312 L 115.914062 92.894531 C 106.410156 103.335938 95.738281 108.640625 84 108.640625 C 72.261719 108.640625 61.582031 103.339844 52.078125 92.890625 Z M 84 102.714844 C 94.175781 102.714844 103.484375 98.042969 112.023438 88.539062 C 103.480469 79.019531 94.171875 74.355469 84 74.355469 C 73.824219 74.355469 64.515625 79.027344 55.976562 88.535156 C 64.519531 98.046875 73.828125 102.71875 84 102.71875 Z M 84 100.179688 C 77.910156 100.179688 72.96875 95.0625 72.96875 88.746094 C 72.96875 82.4375 77.902344 77.316406 84 77.316406 C 90.09375 77.316406 95.03125 82.433594 95.03125 88.746094 C 95.03125 95.0625 90.097656 100.179688 84 100.179688 Z M 84 94.246094 C 86.933594 94.246094 89.3125 91.785156 89.3125 88.742188 C 89.3125 85.703125 86.933594 83.238281 84 83.238281 C 81.066406 83.238281 78.6875 85.707031 78.6875 88.742188 C 78.6875 91.789062 81.066406 94.25 84 94.25 Z M 84 94.246094 "/>
</g>
</svg>
