<?xml version="1.0" encoding="UTF-8"?>
<svg xmlns="http://www.w3.org/2000/svg" xmlns:xlink="http://www.w3.org/1999/xlink" width="168pt" height="168pt" viewBox="0 0 168 168" version="1.1">
<g id="surface2350">
<path style=" stroke:none;fill-rule:evenodd;fill:rgb(86.27451%,83.921569%,80%);fill-opacity:1;" d="M 168 84 C 168 130.390625 130.390625 168 84 168 C 37.609375 168 0 130.390625 0 84 C 0 37.609375 37.609375 0 84 0 C 130.390625 0 168 37.609375 168 84 "/>
<path style=" stroke:none;fill-rule:nonzero;fill:rgb(100%,100%,100%);fill-opacity:1;" d="M 129.980469 40.59375 C 125.757812 36.433594 120.070312 34.109375 114.144531 34.125 C 108.132812 34.125 102.535156 36.433594 98.308594 40.59375 L 46.566406 91.550781 C 46.039062 92.078125 45.761719 92.808594 45.804688 93.554688 L 45.804688 119.785156 L 31.5 133.875 L 39.390625 133.875 L 49.984375 123.441406 L 76.464844 123.441406 C 77.21875 123.449219 77.9375 123.140625 78.449219 122.59375 L 129.929688 71.890625 L 129.984375 71.835938 C 134.144531 67.738281 136.492188 62.140625 136.5 56.300781 C 136.527344 50.402344 134.179688 44.746094 129.980469 40.601562 Z M 99.886719 46.515625 L 102.074219 44.363281 C 105.292969 41.195312 109.632812 39.425781 114.144531 39.449219 C 118.675781 39.449219 122.953125 41.203125 126.214844 44.363281 C 126.265625 44.414062 126.320312 44.511719 126.417969 44.5625 C 129.519531 47.722656 131.199219 51.832031 131.199219 56.25 C 131.199219 60.710938 129.414062 64.921875 126.210938 68.136719 L 123.96875 70.339844 L 103.957031 70.339844 L 117.097656 57.398438 L 117.101562 57.398438 C 118.144531 56.378906 118.191406 54.714844 117.199219 53.640625 C 117.148438 53.589844 117.148438 53.535156 117.09375 53.488281 L 117.097656 53.488281 C 116 52.4375 114.273438 52.4375 113.179688 53.488281 L 99.9375 66.527344 L 99.9375 46.507812 Z M 55.386719 118.128906 L 66.179688 107.492188 L 86.191406 107.492188 L 75.398438 118.128906 Z M 86.800781 87.132812 L 99.585938 74.542969 L 119.597656 74.542969 L 106.8125 87.132812 Z M 102.433594 91.449219 L 90.515625 103.183594 L 70.507812 103.183594 L 82.425781 91.449219 Z M 82.730469 63.414062 L 95.5625 50.773438 L 95.5625 70.734375 L 82.730469 83.421875 Z M 66.433594 79.457031 L 78.351562 67.722656 L 78.351562 87.683594 L 66.433594 99.417969 Z M 51.15625 94.503906 L 62.101562 83.773438 L 62.101562 103.734375 L 51.15625 114.464844 Z M 51.15625 94.503906 "/>
</g>
</svg>
