<?xml version="1.0" encoding="UTF-8"?>
<svg xmlns="http://www.w3.org/2000/svg" xmlns:xlink="http://www.w3.org/1999/xlink" width="168pt" height="168pt" viewBox="0 0 168 168" version="1.1">
<g id="surface1436">
<path style=" stroke:none;fill-rule:nonzero;fill:rgb(17.254902%,24.313725%,31.372549%);fill-opacity:1;" d="M 168 84 C 168 130.390625 130.390625 168 84 168 C 37.609375 168 0 130.390625 0 84 C 0 37.609375 37.609375 0 84 0 C 130.390625 0 168 37.609375 168 84 "/>
<path style=" stroke:none;fill-rule:nonzero;fill:rgb(100%,100%,100%);fill-opacity:1;" d="M 134.589844 119.070312 L 134.589844 113.820312 C 134.589844 112.78125 133.890625 112.085938 132.832031 112.085938 L 129.339844 112.085938 L 129.339844 106.816406 C 129.339844 105.773438 128.640625 105.0625 127.601562 105.0625 L 124.105469 105.0625 L 124.105469 66.5 L 127.582031 66.5 C 128.625 66.5 129.339844 65.808594 129.339844 64.746094 L 129.339844 59.496094 L 132.832031 59.496094 L 132.832031 59.5 C 133.679688 59.535156 134.425781 58.929688 134.566406 58.089844 C 134.746094 57.21875 134.394531 56.523438 133.699219 56.15625 L 84.78125 31.628906 L 84.78125 31.632812 C 84.273438 31.457031 83.726562 31.457031 83.21875 31.632812 L 32.546875 56.160156 L 32.542969 56.160156 C 31.863281 56.53125 31.507812 57.308594 31.671875 58.070312 C 31.671875 58.960938 32.371094 59.5 33.238281 59.5 L 38.488281 59.5 L 38.488281 64.75 C 38.488281 65.789062 39.1875 66.484375 40.226562 66.484375 L 43.722656 66.484375 L 43.722656 105.066406 L 40.246094 105.066406 C 39.195312 105.066406 38.488281 105.757812 38.488281 106.800781 L 38.488281 112.070312 L 34.996094 112.070312 C 33.945312 112.070312 33.253906 112.761719 33.253906 113.808594 L 33.253906 119.074219 C 32.214844 119.074219 31.5 119.773438 31.5 120.832031 C 31.5 121.890625 32.191406 122.585938 33.238281 122.585938 L 134.589844 122.585938 C 135.628906 122.585938 136.34375 121.894531 136.34375 120.851562 C 136.34375 119.800781 135.652344 119.070312 134.609375 119.070312 Z M 41.964844 62.988281 L 41.964844 59.496094 L 125.828125 59.496094 L 125.828125 62.988281 Z M 113.589844 66.503906 L 113.589844 105.058594 L 106.617188 105.058594 L 106.617188 66.496094 L 113.589844 66.496094 Z M 96.117188 66.503906 L 96.117188 105.058594 L 89.128906 105.058594 L 89.128906 66.496094 L 96.113281 66.496094 Z M 78.644531 66.503906 L 78.644531 105.058594 L 71.671875 105.058594 L 71.671875 66.496094 L 78.644531 66.496094 Z M 61.171875 66.503906 L 61.171875 105.058594 L 54.207031 105.058594 L 54.207031 66.496094 L 61.171875 66.496094 Z M 125.824219 112.0625 L 41.984375 112.066406 L 41.984375 108.554688 L 125.84375 108.554688 L 125.84375 112.066406 L 125.828125 112.066406 Z M 125.824219 112.0625 "/>
</g>
</svg>
