<?xml version="1.0" encoding="UTF-8"?>
<svg xmlns="http://www.w3.org/2000/svg" xmlns:xlink="http://www.w3.org/1999/xlink" width="168pt" height="168pt" viewBox="0 0 168 168" version="1.1">
<g id="surface1919">
<path style=" stroke:none;fill-rule:nonzero;fill:rgb(29.803922%,35.294118%,58.431373%);fill-opacity:1;" d="M 168 84 C 168 130.390625 130.390625 168 84 168 C 37.609375 168 0 130.390625 0 84 C 0 37.609375 37.609375 0 84 0 C 130.390625 0 168 37.609375 168 84 "/>
<path style=" stroke:none;fill-rule:nonzero;fill:rgb(100%,100%,100%);fill-opacity:1;" d="M 141.75 59.128906 L 141.519531 55.417969 L 140.375 58.53125 L 133.9375 63.9375 L 126.566406 65.035156 L 124.363281 62.992188 L 130.824219 54.417969 L 137.4375 52.496094 L 130.277344 52.644531 L 119.867188 59.898438 L 110.109375 59.226562 L 96.40625 52.5 L 88.3125 54.070312 L 63.054688 74.261719 L 50.886719 78.027344 L 45.878906 82.914062 L 36.921875 83.035156 L 32.484375 90.960938 L 26.25 92.683594 L 32.140625 93.457031 L 37.617188 86.355469 L 46.082031 88.050781 L 45.925781 95.652344 L 41.699219 106.59375 L 39.285156 116.714844 L 36.6875 120.753906 L 43.28125 119.355469 L 42.53125 115.21875 L 48.136719 104.097656 L 58.929688 99.914062 L 63.109375 93.257812 L 70.171875 88.324219 L 84.1875 90.292969 L 98.304688 84.335938 L 95.914062 93.757812 L 89.636719 94.304688 L 87.847656 102.03125 L 93.21875 98.59375 L 102.121094 94.882812 L 109.078125 84.386719 L 109.519531 79.425781 L 113.257812 83.136719 L 124.128906 89.695312 L 130.308594 86.875 L 129.945312 73.019531 L 128.148438 67.660156 L 136.222656 65.691406 Z M 141.75 59.128906 "/>
</g>
</svg>
