<?xml version="1.0" encoding="UTF-8"?>
<svg xmlns="http://www.w3.org/2000/svg" xmlns:xlink="http://www.w3.org/1999/xlink" width="168pt" height="168pt" viewBox="0 0 168 168" version="1.1">
<g id="surface836">
<path style=" stroke:none;fill-rule:evenodd;fill:rgb(6.27451%,35.686275%,18.431373%);fill-opacity:1;" d="M 168 84 C 168 130.390625 130.390625 168 84 168 C 37.609375 168 0 130.390625 0 84 C 0 37.609375 37.609375 0 84 0 C 130.390625 0 168 37.609375 168 84 "/>
<path style=" stroke:none;fill-rule:evenodd;fill:rgb(100%,100%,100%);fill-opacity:1;" d="M 63.171875 95.445312 L 61.125 105.878906 L 57.398438 125.046875 C 57.292969 125.625 57.144531 126.011719 56.410156 126.003906 C 51.78125 125.9375 47.148438 125.898438 42.519531 125.847656 C 42.410156 125.847656 42.292969 125.773438 42 125.664062 L 52.449219 73.480469 L 43.644531 73.472656 C 43.664062 73.085938 43.65625 72.851562 43.695312 72.632812 C 44.234375 69.8125 44.820312 67 45.308594 64.167969 C 45.445312 63.378906 45.796875 63.179688 46.53125 63.1875 C 48.683594 63.207031 50.835938 63.128906 52.976562 63.203125 C 54 63.234375 54.394531 62.941406 54.59375 61.933594 C 55.789062 55.695312 57.070312 49.480469 58.300781 43.253906 C 58.449219 42.511719 58.609375 42.003906 59.578125 42.003906 C 70.121094 42.035156 80.667969 41.9375 91.210938 42.070312 C 97.363281 42.148438 103.53125 42.464844 109.585938 43.707031 C 111.671875 44.136719 113.785156 44.695312 115.71875 45.554688 C 121.273438 48.023438 124.617188 52.296875 125.546875 58.210938 C 126.992188 67.402344 125.042969 75.851562 119.140625 83.210938 C 114.78125 88.628906 108.808594 91.667969 102.136719 93.515625 C 96.84375 94.980469 91.417969 95.4375 85.945312 95.449219 C 78.832031 95.464844 71.71875 95.449219 64.605469 95.445312 Z M 66.085938 81.070312 L 67.570312 81.070312 C 75.09375 81.070312 82.617188 81.085938 90.144531 81.058594 C 91.746094 81.058594 93.367188 80.992188 94.957031 80.796875 C 101.03125 80.074219 105.644531 77.160156 108.597656 71.871094 L 108.601562 71.871094 C 109.867188 69.578125 110.292969 66.917969 109.804688 64.34375 C 109.183594 60.683594 107 58.296875 103.289062 57.625 C 100.570312 57.105469 97.816406 56.808594 95.050781 56.730469 C 87.324219 56.589844 79.59375 56.644531 71.863281 56.625 C 71.585938 56.625 71.308594 56.667969 70.933594 56.699219 L 69.652344 63.25 L 91.125 63.25 L 89.152344 73.425781 L 67.613281 73.425781 L 66.089844 81.070312 Z M 66.085938 81.070312 "/>
</g>
</svg>
