<?xml version="1.0" encoding="UTF-8"?>
<svg xmlns="http://www.w3.org/2000/svg" xmlns:xlink="http://www.w3.org/1999/xlink" width="168pt" height="168pt" viewBox="0 0 168 168" version="1.1">
<g id="surface2370">
<path style=" stroke:none;fill-rule:nonzero;fill:rgb(1.960784%,73.72549%,66.27451%);fill-opacity:1;" d="M 168 84 C 168 130.390625 130.390625 168 84 168 C 37.609375 168 0 130.390625 0 84 C 0 37.609375 37.609375 0 84 0 C 130.390625 0 168 37.609375 168 84 "/>
<path style=" stroke:none;fill-rule:evenodd;fill:rgb(100%,100%,100%);fill-opacity:1;" d="M 146.972656 83.757812 C 147.082031 84.253906 146.835938 84.757812 146.375 84.972656 L 145.976562 85.160156 L 133.871094 97.296875 L 138.566406 114.859375 L 138.5625 114.859375 C 138.71875 115.433594 138.375 116.027344 137.800781 116.183594 L 120.953125 120.703125 L 116.308594 138.082031 C 116.15625 138.652344 115.570312 138.996094 114.996094 138.847656 L 97.199219 134.070312 L 84.609375 146.6875 L 84.609375 146.683594 C 84.40625 146.886719 84.132812 147.003906 83.847656 147.003906 C 83.5625 147.003906 83.289062 146.886719 83.085938 146.683594 L 70.648438 134.214844 L 53.417969 138.84375 L 53.417969 138.847656 C 53.144531 138.921875 52.851562 138.882812 52.605469 138.738281 C 52.359375 138.597656 52.179688 138.359375 52.105469 138.085938 L 47.453125 120.707031 L 30.609375 116.179688 L 30.613281 116.183594 C 30.335938 116.109375 30.101562 115.925781 29.957031 115.679688 C 29.8125 115.429688 29.777344 115.136719 29.851562 114.859375 L 34.394531 97.863281 L 21.320312 84.753906 L 21.320312 84.757812 C 20.902344 84.335938 20.902344 83.65625 21.320312 83.234375 L 34.03125 70.480469 L 29.488281 53.492188 C 29.335938 52.914062 29.679688 52.324219 30.253906 52.167969 L 47.867188 47.433594 L 52.457031 30.265625 C 52.613281 29.6875 53.203125 29.347656 53.78125 29.5 L 70.445312 33.976562 L 83.085938 21.304688 C 83.511719 20.898438 84.183594 20.898438 84.609375 21.304688 L 97.402344 34.125 L 114.632812 29.496094 C 114.910156 29.421875 115.203125 29.460938 115.453125 29.605469 C 115.699219 29.746094 115.878906 29.984375 115.953125 30.261719 L 116.074219 30.714844 L 116.070312 30.710938 C 116.097656 30.78125 116.117188 30.851562 116.128906 30.921875 L 120.539062 47.429688 L 138.15625 52.164062 C 138.734375 52.320312 139.070312 52.910156 138.917969 53.488281 L 134.222656 71.042969 L 146.070312 82.921875 L 146.074219 82.921875 C 146.519531 82.988281 146.875 83.316406 146.972656 83.753906 Z M 133.222656 94.886719 L 140.289062 87.808594 L 132.324219 91.519531 L 133.222656 94.890625 Z M 135.800781 112.878906 L 132.109375 99.0625 L 124.773438 106.414062 L 124.773438 106.417969 L 135.796875 112.878906 Z M 124.199219 108.574219 L 121.601562 118.296875 L 134.753906 114.761719 L 124.203125 108.578125 Z M 114.757812 135.539062 L 118.554688 121.347656 L 108.191406 124.128906 Z M 101.613281 129.632812 L 98.953125 132.304688 L 109.394531 135.109375 Z M 84.921875 143.3125 L 94.792969 133.417969 L 84.921875 130.765625 Z M 82.769531 130.960938 L 73.050781 133.570312 L 82.761719 143.3125 L 82.761719 130.960938 Z M 55.527344 136.042969 L 68.894531 132.457031 L 61.734375 125.273438 Z M 49.855469 121.347656 L 52.820312 132.445312 L 53.710938 122.386719 L 49.851562 121.347656 Z M 33.632812 114.757812 L 46.808594 118.296875 L 44.183594 108.496094 Z M 43.121094 106.621094 L 36.148438 99.628906 L 32.609375 112.859375 Z M 24.851562 85.253906 L 35.035156 95.460938 L 37.761719 85.253906 Z M 35.773438 76.984375 L 34.675781 72.890625 L 26.097656 81.488281 Z M 32.246094 55.449219 L 35.789062 68.714844 L 42.875 61.613281 L 32.242188 55.449219 Z M 44.519531 59.964844 L 47.230469 49.84375 L 33.316406 53.582031 L 44.453125 60.035156 L 44.519531 59.96875 Z M 53.824219 33.503906 L 50.273438 46.785156 L 59.96875 44.179688 L 53.820312 33.507812 Z M 66.121094 38.3125 L 68.6875 35.738281 L 58.628906 33.035156 Z M 82.773438 24.675781 L 72.851562 34.625 L 82.773438 37.292969 Z M 84.925781 37.484375 L 95.003906 34.773438 L 84.925781 24.671875 Z M 113.253906 32.109375 L 99.164062 35.890625 L 106.714844 43.464844 L 113.257812 32.109375 Z M 114.84375 45.90625 L 118.140625 46.789062 L 115.605469 37.300781 Z M 135.054688 53.570312 L 121.183594 49.84375 L 123.859375 59.882812 L 135.046875 53.566406 Z M 124.949219 61.746094 L 132.46875 69.28125 L 136.179688 55.40625 L 124.949219 61.75 Z M 143.019531 82.910156 L 133.585938 73.453125 L 131.054688 82.910156 Z M 130.597656 85.066406 L 131.753906 89.398438 L 141.050781 85.066406 Z M 128.96875 90.695312 L 129.773438 90.328125 L 129.421875 89.015625 L 128.976562 90.695312 Z M 128.246094 93.414062 L 125.882812 102.238281 L 131.464844 96.648438 L 130.339844 92.4375 Z M 121.730469 109.464844 L 109.746094 121.476562 L 119.195312 118.941406 Z M 106.679688 121.503906 L 122.84375 105.296875 L 125.699219 94.601562 L 98.488281 107.28125 Z M 106.21875 125.019531 L 103.164062 128.082031 L 111.269531 133.789062 L 106.21875 125.023438 Z M 100.492188 126.199219 L 101.375 126.820312 L 102.546875 125.644531 Z M 97.777344 126.921875 L 88.371094 129.453125 L 96.554688 131.652344 L 99.832031 128.367188 L 97.785156 126.921875 Z M 80.046875 129.453125 L 64.890625 125.378906 L 71.296875 131.804688 Z M 56.121094 119.648438 L 56.015625 120.765625 L 57.679688 121.210938 L 56.121094 119.644531 Z M 54.132812 117.652344 L 46.945312 110.460938 L 49.214844 118.949219 L 53.914062 120.210938 L 54.132812 117.664062 Z M 42.789062 103.230469 L 38.988281 89.011719 L 36.792969 97.21875 Z M 37.40625 83.097656 L 36.335938 79.101562 L 27.761719 83.089844 L 37.40625 83.089844 Z M 39.84375 77.464844 L 38.320312 78.179688 L 38.988281 80.679688 Z M 40.574219 74.75 L 43.410156 64.132812 L 36.4375 71.125 L 37.753906 76.058594 L 40.574219 74.746094 Z M 47.566406 56.910156 L 57.324219 47.128906 L 49.628906 49.199219 L 47.566406 56.917969 Z M 61.65625 42.789062 L 64.574219 39.863281 L 56.824219 34.410156 L 61.652344 42.789062 Z M 67.746094 42.097656 L 66.367188 41.125 L 64.53125 42.960938 L 67.75 42.09375 Z M 70.460938 41.367188 L 80.046875 38.792969 L 71.089844 36.386719 L 67.910156 39.566406 L 70.460938 41.363281 Z M 88.363281 38.792969 L 102.90625 42.699219 L 96.765625 36.539062 L 88.367188 38.792969 Z M 112.390625 49.15625 L 112.539062 47.519531 L 110.109375 46.867188 L 112.394531 49.15625 Z M 114.375 51.152344 L 121.105469 57.898438 L 118.78125 49.199219 L 114.648438 48.085938 Z M 125.261719 65.117188 L 129.417969 80.679688 L 131.824219 71.695312 L 125.261719 65.121094 Z M 94.949219 101.136719 L 97.40625 105.40625 L 126.429688 91.886719 L 128.25 85.070312 L 111.371094 85.070312 L 110.515625 94.699219 L 110.519531 94.699219 C 110.476562 95.164062 110.140625 95.546875 109.6875 95.652344 C 109.230469 95.757812 108.761719 95.554688 108.523438 95.15625 L 103.285156 86.285156 L 94.953125 101.136719 Z M 90.832031 108.472656 L 95.445312 106.320312 L 93.71875 103.328125 Z M 72.53125 106.53125 L 98.1875 124.589844 L 104.921875 122.777344 L 96.523438 108.199219 L 88.710938 111.84375 L 88.714844 111.839844 C 88.289062 112.042969 87.78125 111.941406 87.464844 111.597656 C 87.144531 111.25 87.085938 110.738281 87.324219 110.328125 L 92.222656 101.597656 L 75.265625 101.785156 L 72.535156 106.519531 Z M 71.449219 108.40625 L 63.207031 122.707031 L 84.207031 128.34375 L 95.472656 125.316406 Z M 72.757812 101.816406 L 65.949219 101.894531 L 70.761719 105.28125 Z M 59.160156 85.257812 L 56.367188 116.851562 L 61.269531 121.761719 L 69.679688 107.15625 L 61.972656 101.738281 L 61.976562 101.734375 C 61.59375 101.464844 61.429688 100.980469 61.570312 100.53125 C 61.707031 100.085938 62.117188 99.777344 62.585938 99.769531 L 73 99.648438 L 64.496094 85.253906 L 59.167969 85.253906 Z M 57.007812 85.257812 L 40.207031 85.257812 L 45.824219 106.285156 L 54.382812 114.859375 L 57.007812 85.261719 Z M 63.214844 83.101562 L 59.859375 77.421875 L 59.355469 83.101562 Z M 70.828125 63.035156 L 42.394531 76.28125 L 40.574219 83.097656 L 57.199219 83.097656 L 58.011719 73.890625 L 58.011719 73.886719 C 58.0625 73.429688 58.394531 73.050781 58.847656 72.945312 C 59.296875 72.84375 59.765625 73.039062 60.007812 73.433594 L 65.273438 82.34375 L 73.5 67.679688 L 70.824219 63.035156 Z M 69.746094 61.160156 L 61.1875 46.308594 L 46.449219 61.085938 L 43.117188 73.566406 Z M 96.03125 62.011719 L 70.042969 43.714844 L 63.238281 45.546875 L 71.703125 60.246094 L 80.101562 56.328125 L 80.105469 56.328125 C 80.53125 56.125 81.039062 56.226562 81.355469 56.570312 C 81.675781 56.917969 81.730469 57.433594 81.496094 57.839844 L 76.582031 66.597656 L 93.496094 66.410156 Z M 97.113281 60.132812 L 105.464844 45.628906 L 84.203125 39.917969 L 72.757812 42.996094 L 97.113281 60.136719 Z M 96 66.378906 L 102.140625 66.316406 L 97.800781 63.253906 L 96 66.382812 Z M 109.210938 85.074219 L 105.0625 85.074219 L 108.667969 91.175781 L 109.207031 85.074219 Z M 74.730469 65.492188 L 77.984375 59.703125 L 72.785156 62.125 L 74.726562 65.5 Z M 93.4375 99.445312 L 102.015625 84.148438 L 92.855469 68.640625 L 92.828125 68.582031 L 75.363281 68.777344 L 66.542969 84.496094 L 75.496094 99.632812 L 93.335938 99.433594 C 93.371094 99.433594 93.402344 99.445312 93.441406 99.449219 Z M 114.132812 53.960938 L 111.566406 82.921875 L 127.800781 82.921875 L 122.226562 62.078125 L 114.136719 53.960938 Z M 109.40625 82.921875 L 112.148438 51.96875 L 107.175781 46.988281 L 98.878906 61.382812 L 106.125 66.476562 L 106.125 66.464844 C 106.507812 66.734375 106.675781 67.222656 106.539062 67.671875 C 106.398438 68.121094 105.984375 68.429688 105.515625 68.433594 L 95.304688 68.542969 L 103.792969 82.914062 L 109.398438 82.914062 Z M 112.730469 45.347656 L 113.570312 35.882812 L 108.742188 44.273438 L 112.730469 45.351562 Z M 55.828125 122.953125 L 54.960938 132.707031 L 59.949219 124.054688 Z M 55.828125 122.953125 "/>
</g>
</svg>
