<?xml version="1.0" encoding="UTF-8"?>
<svg xmlns="http://www.w3.org/2000/svg" xmlns:xlink="http://www.w3.org/1999/xlink" width="168pt" height="168pt" viewBox="0 0 168 168" version="1.1">
<g id="surface961">
<path style=" stroke:none;fill-rule:evenodd;fill:rgb(23.529412%,69.019608%,32.941176%);fill-opacity:1;" d="M 168 84 C 168 130.390625 130.390625 168 84 168 C 37.609375 168 0 130.390625 0 84 C 0 37.609375 37.609375 0 84 0 C 130.390625 0 168 37.609375 168 84 "/>
<path style=" stroke:none;fill-rule:evenodd;fill:rgb(100%,100%,100%);fill-opacity:1;" d="M 47.25 39.375 C 110.738281 41.722656 135.21875 79.832031 122.929688 113.835938 C 119.449219 123.300781 115.746094 128.484375 107.96875 133.875 C 108.285156 132.511719 108.609375 131.144531 108.859375 129.742188 C 113.457031 103.214844 104.738281 71.289062 62.070312 53.652344 C 96.015625 73.855469 109.714844 109.800781 93.886719 133.007812 C 66.9375 137.246094 47.25 114.234375 47.25 87.722656 Z M 47.25 39.375 "/>
</g>
</svg>
