<?xml version="1.0" encoding="UTF-8"?>
<svg xmlns="http://www.w3.org/2000/svg" xmlns:xlink="http://www.w3.org/1999/xlink" width="168pt" height="168pt" viewBox="0 0 168 168" version="1.1">
<g id="surface1416">
<path style=" stroke:none;fill-rule:evenodd;fill:rgb(20.392157%,56.078431%,55.294118%);fill-opacity:1;" d="M 168 84 C 168 130.390625 130.390625 168 84 168 C 37.609375 168 0 130.390625 0 84 C 0 37.609375 37.609375 0 84 0 C 130.390625 0 168 37.609375 168 84 "/>
<path style=" stroke:none;fill-rule:nonzero;fill:rgb(100%,100%,100%);fill-opacity:1;" d="M 122.386719 36.980469 C 124.996094 39.6875 124.996094 43.96875 122.386719 46.671875 L 105.953125 63.519531 L 105.957031 63.519531 C 105.433594 64.054688 104.828125 64.496094 104.160156 64.832031 C 101.679688 66.230469 98.566406 65.777344 96.589844 63.722656 L 80.21875 46.957031 L 48.691406 79.292969 L 56.304688 87.078125 C 58.574219 89.464844 58.558594 93.214844 56.269531 95.582031 C 55.183594 96.707031 53.6875 97.34375 52.125 97.351562 C 50.5625 97.355469 49.0625 96.734375 47.964844 95.617188 L 35.859375 83.265625 C 33.546875 80.875 33.546875 77.085938 35.859375 74.695312 L 35.945312 74.617188 L 35.941406 74.617188 C 35.96875 74.59375 35.992188 74.566406 36.015625 74.539062 L 76.042969 33.484375 L 76.046875 33.484375 L 76.050781 33.480469 L 76.183594 33.34375 C 78.246094 31.199219 81.570312 30.882812 84 32.601562 C 84.378906 32.859375 84.734375 33.148438 85.050781 33.476562 L 100.714844 49.503906 L 112.929688 36.976562 L 112.933594 36.980469 C 114.171875 35.699219 115.878906 34.980469 117.664062 34.980469 C 119.445312 34.980469 121.152344 35.699219 122.394531 36.980469 Z M 132.140625 84.765625 C 134.460938 87.140625 134.464844 90.929688 132.148438 93.308594 L 132.0625 93.386719 C 132.035156 93.410156 132.011719 93.4375 131.984375 93.464844 L 91.800781 134.660156 L 91.800781 134.664062 C 90.566406 135.945312 88.824219 136.613281 87.050781 136.492188 C 85.273438 136.367188 83.640625 135.464844 82.59375 134.027344 L 67.28125 118.363281 L 55.136719 130.847656 C 53.445312 132.589844 50.980469 133.277344 48.664062 132.644531 C 46.347656 132.007812 44.539062 130.160156 43.917969 127.789062 C 43.304688 125.421875 43.96875 122.890625 45.675781 121.164062 L 62.101562 104.320312 C 63.035156 103.34375 64.238281 102.683594 65.550781 102.417969 C 67.671875 101.945312 69.886719 102.605469 71.425781 104.183594 L 87.835938 120.972656 L 119.304688 88.714844 L 111.691406 80.929688 L 111.695312 80.929688 C 109.425781 78.542969 109.441406 74.789062 111.730469 72.421875 C 112.816406 71.300781 114.3125 70.660156 115.875 70.65625 C 117.4375 70.648438 118.9375 71.273438 120.035156 72.386719 L 131.96875 84.59375 L 131.980469 84.605469 L 131.996094 84.617188 Z M 132.140625 84.765625 "/>
</g>
</svg>
