<?xml version="1.0" encoding="UTF-8"?>
<svg xmlns="http://www.w3.org/2000/svg" xmlns:xlink="http://www.w3.org/1999/xlink" width="168pt" height="168pt" viewBox="0 0 168 168" version="1.1">
<g id="surface2099">
<path style=" stroke:none;fill-rule:nonzero;fill:rgb(8.235294%,15.294118%,26.27451%);fill-opacity:1;" d="M 168 84 C 168 130.390625 130.390625 168 84 168 C 37.609375 168 0 130.390625 0 84 C 0 37.609375 37.609375 0 84 0 C 130.390625 0 168 37.609375 168 84 "/>
<path style=" stroke:none;fill-rule:nonzero;fill:rgb(100%,100%,100%);fill-opacity:1;" d="M 84.257812 43.660156 C 77.347656 43.660156 71.746094 39.8125 71.746094 35.0625 C 71.746094 30.3125 77.347656 26.464844 84.257812 26.464844 C 91.167969 26.464844 96.761719 30.3125 96.761719 35.0625 C 96.761719 39.8125 91.164062 43.660156 84.257812 43.660156 Z M 77.785156 139.648438 L 77.785156 47.796875 L 105.671875 47.796875 C 106.707031 47.796875 107.4375 48.570312 107.4375 49.601562 L 107.4375 100.570312 C 107.4375 101.597656 106.703125 102.480469 105.671875 102.480469 L 90.300781 102.480469 L 90.300781 139.652344 C 90.300781 140.6875 89.511719 141.625 88.480469 141.625 L 79.722656 141.625 C 78.65625 141.582031 77.808594 140.71875 77.785156 139.65625 Z M 73.082031 102.472656 L 62.53125 102.472656 L 62.527344 102.476562 C 61.46875 102.464844 60.601562 101.621094 60.5625 100.5625 L 60.5625 49.601562 C 60.5625 48.566406 61.492188 47.796875 62.519531 47.796875 L 73.078125 47.796875 L 73.078125 102.480469 Z M 73.082031 102.472656 "/>
</g>
</svg>
