<?xml version="1.0" encoding="UTF-8"?>
<svg xmlns="http://www.w3.org/2000/svg" xmlns:xlink="http://www.w3.org/1999/xlink" width="168pt" height="168pt" viewBox="0 0 168 168" version="1.1">
<g id="surface1526">
<path style=" stroke:none;fill-rule:nonzero;fill:rgb(22.745098%,54.901961%,74.117647%);fill-opacity:1;" d="M 168 84 C 168 130.390625 130.390625 168 84 168 C 37.609375 168 0 130.390625 0 84 C 0 37.609375 37.609375 0 84 0 C 130.390625 0 168 37.609375 168 84 "/>
<path style=" stroke:none;fill-rule:nonzero;fill:rgb(100%,100%,100%);fill-opacity:1;" d="M 70.71875 94.734375 L 79.527344 94.734375 C 82.042969 94.746094 84.53125 94.191406 86.808594 93.121094 C 88.960938 92.054688 90.882812 90.582031 92.460938 88.773438 C 94.03125 86.90625 95.242188 84.769531 96.050781 82.46875 L 96.054688 82.46875 C 96.925781 80.136719 97.367188 77.667969 97.355469 75.179688 C 97.371094 72.753906 96.886719 70.347656 95.9375 68.113281 C 95.027344 65.851562 93.742188 63.753906 92.136719 61.917969 C 90.519531 60.078125 88.5625 58.566406 86.371094 57.464844 C 84.128906 56.304688 81.632812 55.707031 79.105469 55.722656 L 55.953125 55.722656 L 55.953125 111.914062 L 70.738281 111.914062 Z M 70.71875 69.292969 L 78.210938 69.292969 C 79.25 69.363281 80.226562 69.832031 80.929688 70.601562 C 81.800781 71.46875 82.347656 72.996094 82.347656 75.382812 C 82.347656 77.773438 81.808594 79.1875 81.035156 79.960938 C 80.390625 80.722656 79.519531 81.261719 78.542969 81.261719 L 70.71875 81.261719 Z M 70.71875 69.292969 "/>
<path style=" stroke:none;fill-rule:nonzero;fill:rgb(100%,100%,100%);fill-opacity:1;" d="M 36.871094 42.15625 L 36.871094 125.566406 C 36.871094 128.558594 39.292969 130.972656 42.277344 130.972656 L 125.6875 130.972656 C 128.675781 130.972656 131.09375 128.558594 131.09375 125.566406 L 131.097656 42.15625 C 131.097656 40.722656 130.53125 39.34375 129.515625 38.332031 C 128.5 37.316406 127.125 36.746094 125.691406 36.746094 L 42.277344 36.746094 C 39.292969 36.746094 36.871094 39.164062 36.871094 42.152344 Z M 114.585938 119.878906 L 53.265625 119.878906 C 51.832031 119.878906 50.453125 119.3125 49.4375 118.296875 C 48.425781 117.28125 47.855469 115.90625 47.855469 114.472656 L 47.855469 53.152344 C 47.851562 51.714844 48.421875 50.335938 49.4375 49.320312 C 50.453125 48.308594 51.832031 47.738281 53.265625 47.738281 L 114.585938 47.738281 C 117.578125 47.738281 119.992188 50.160156 119.992188 53.144531 L 119.992188 114.464844 C 119.992188 117.457031 117.578125 119.878906 114.585938 119.878906 Z M 114.585938 119.878906 "/>
<path style=" stroke:none;fill-rule:nonzero;fill:rgb(100%,100%,100%);fill-opacity:1;" d="M 77.347656 101.371094 L 112.035156 101.371094 L 112.035156 112.027344 L 77.347656 112.027344 Z M 77.347656 101.371094 "/>
</g>
</svg>
