<?xml version="1.0" encoding="UTF-8"?>
<svg xmlns="http://www.w3.org/2000/svg" xmlns:xlink="http://www.w3.org/1999/xlink" width="168pt" height="168pt" viewBox="0 0 168 168" version="1.1">
<g id="surface1881">
<path style=" stroke:none;fill-rule:evenodd;fill:rgb(6.27451%,38.039216%,89.019608%);fill-opacity:1;" d="M 168 84 C 168 130.390625 130.390625 168 84 168 C 37.609375 168 0 130.390625 0 84 C 0 37.609375 37.609375 0 84 0 C 130.390625 0 168 37.609375 168 84 "/>
<path style=" stroke:none;fill-rule:evenodd;fill:rgb(100%,100%,100%);fill-opacity:1;" d="M 127.476562 109.550781 C 127.917969 114.070312 126.503906 118.535156 122.132812 121.429688 C 120.039062 122.820312 117.703125 123.371094 115.191406 123.371094 C 94.402344 123.359375 73.613281 123.367188 52.820312 123.359375 L 52.820312 123.363281 C 52.363281 123.363281 51.910156 123.351562 51.457031 123.328125 C 46.898438 123.082031 42.59375 119.777344 41.125 115.46875 C 40.472656 113.5625 40.375 111.609375 40.453125 109.550781 L 53.105469 109.550781 C 54.324219 109.546875 55.132812 108.660156 54.859375 107.550781 L 54.855469 107.550781 C 54.714844 107.121094 54.464844 106.738281 54.128906 106.433594 C 48.96875 101.277344 43.792969 96.144531 38.621094 91 L 33.886719 86.285156 C 32.105469 84.527344 31.25 82.398438 31.566406 79.921875 C 31.722656 78.703125 32.117188 77.507812 32.511719 76.332031 L 32.507812 76.328125 C 34.71875 69.667969 38.226562 63.511719 42.835938 58.21875 C 49.359375 50.625 57.871094 44.996094 67.414062 41.96875 C 73.628906 39.933594 80.167969 39.085938 86.691406 39.464844 C 102.105469 40.390625 114.941406 46.65625 125.117188 58.210938 C 130.324219 64.121094 134.113281 71.140625 136.195312 78.734375 C 136.984375 81.5625 136.238281 84.109375 134.140625 86.195312 C 130.203125 90.121094 126.234375 94.019531 122.28125 97.929688 C 119.378906 100.800781 116.480469 103.683594 113.582031 106.566406 C 112.625 107.511719 112.722656 108.769531 113.8125 109.332031 C 114.128906 109.488281 114.519531 109.542969 114.878906 109.542969 C 118.867188 109.558594 122.863281 109.554688 126.859375 109.554688 Z M 44.320312 112.386719 C 44.378906 114.078125 44.828125 115.578125 45.816406 116.890625 C 47.453125 119.074219 49.664062 120.105469 52.40625 120.097656 L 115.550781 120.097656 C 115.796875 120.097656 116.042969 120.085938 116.285156 120.070312 L 116.289062 120.074219 C 118.644531 119.984375 120.824219 118.796875 122.183594 116.871094 C 123.160156 115.558594 123.617188 114.058594 123.644531 112.394531 Z M 98.226562 71.714844 C 98.378906 71.816406 98.488281 71.871094 98.578125 71.941406 C 103.765625 75.804688 107.050781 80.867188 108.300781 87.203125 C 108.984375 90.648438 108.890625 94.082031 108.082031 97.5 L 108.082031 97.496094 C 107.34375 100.601562 106.007812 103.53125 104.144531 106.125 C 103.789062 106.570312 103.65625 107.152344 103.789062 107.710938 C 104.152344 109.140625 105.773438 109.601562 106.84375 108.554688 C 108.417969 107.027344 109.957031 105.46875 111.515625 103.925781 C 117.792969 97.679688 124.074219 91.4375 130.359375 85.199219 C 131.722656 83.84375 132.324219 82.226562 131.988281 80.335938 C 131.835938 79.515625 131.542969 78.71875 131.265625 77.929688 L 131.261719 77.929688 C 129.222656 72.015625 126.226562 66.472656 122.394531 61.523438 C 119.460938 57.726562 115.972656 54.394531 112.050781 51.632812 C 111.851562 51.488281 111.710938 51.277344 111.664062 51.035156 C 111.546875 49.90625 110.898438 48.898438 109.921875 48.320312 C 108.945312 47.742188 107.75 47.664062 106.707031 48.105469 C 106.492188 48.191406 106.253906 48.191406 106.039062 48.109375 C 100.503906 45.476562 94.515625 43.929688 88.398438 43.554688 C 83.535156 43.1875 78.648438 43.464844 73.855469 44.371094 C 69.855469 45.136719 65.96875 46.417969 62.296875 48.183594 C 62.011719 48.347656 61.664062 48.347656 61.378906 48.183594 C 60.308594 47.660156 59.046875 47.710938 58.027344 48.324219 C 57.011719 48.941406 56.371094 50.03125 56.335938 51.21875 C 56.335938 51.535156 56.21875 51.71875 55.980469 51.90625 C 54.375 53.183594 52.703125 54.394531 51.203125 55.785156 C 44.148438 62.320312 39.347656 70.296875 36.265625 79.34375 C 35.488281 81.632812 36.003906 83.597656 37.710938 85.292969 L 56.402344 103.871094 C 57.96875 105.429688 59.527344 106.988281 61.105469 108.539062 C 62.015625 109.429688 63.382812 109.273438 63.976562 108.21875 C 64.378906 107.488281 64.28125 106.769531 63.804688 106.097656 C 61.292969 102.621094 59.746094 98.539062 59.332031 94.269531 C 58.964844 90.757812 59.375 87.210938 60.539062 83.878906 C 60.800781 83.117188 61.128906 82.371094 61.4375 81.585938 L 68.851562 85.945312 L 68.847656 85.941406 C 67.308594 89.664062 67.199219 93.824219 68.539062 97.621094 C 69.878906 101.417969 72.570312 104.589844 76.105469 106.523438 C 79.4375 108.347656 83.304688 108.960938 87.039062 108.253906 C 90.777344 107.546875 94.152344 105.566406 96.589844 102.648438 C 99.003906 99.777344 100.285156 96.441406 100.359375 92.6875 C 100.464844 87.089844 98.148438 82.628906 93.796875 79.152344 Z M 122.71875 87.675781 C 122.582031 86.804688 122.457031 86 122.320312 85.199219 L 122.320312 85.195312 C 121.8125 82.230469 120.945312 79.339844 119.738281 76.585938 C 119.605469 76.269531 119.574219 76.03125 119.734375 75.703125 L 119.730469 75.703125 C 120.148438 74.820312 120.179688 73.804688 119.8125 72.898438 C 119.441406 71.992188 118.710938 71.285156 117.792969 70.941406 C 116.894531 70.605469 115.898438 70.640625 115.03125 71.050781 C 114.160156 71.457031 113.492188 72.199219 113.179688 73.105469 C 112.867188 74.015625 112.945312 75.011719 113.394531 75.859375 C 113.84375 76.707031 114.625 77.328125 115.550781 77.578125 C 116.058594 77.675781 116.472656 78.039062 116.632812 78.53125 C 118.230469 82.441406 119.117188 86.496094 119.242188 90.710938 C 119.253906 90.960938 119.171875 91.207031 119.011719 91.402344 C 116.613281 93.816406 114.191406 96.210938 111.78125 98.609375 C 111.695312 98.6875 111.597656 98.75 111.5625 98.789062 C 113.863281 87.398438 111.0625 77.519531 101.914062 70.085938 C 92.40625 62.367188 81.8125 61.773438 70.6875 66.792969 L 67.289062 60.929688 C 68.5 60.390625 69.667969 59.828125 70.859375 59.332031 L 70.859375 59.335938 C 73.929688 58.109375 77.152344 57.316406 80.441406 56.972656 C 80.867188 56.925781 81.175781 56.992188 81.507812 57.328125 C 82.164062 58.007812 83.066406 58.386719 84.011719 58.382812 C 84.953125 58.375 85.855469 57.988281 86.503906 57.304688 C 86.730469 57.039062 87.074219 56.914062 87.417969 56.96875 C 95.464844 57.839844 102.449219 61 108.339844 66.527344 C 108.8125 66.972656 109.257812 67.441406 109.714844 67.902344 C 110.527344 68.722656 111.425781 68.742188 112.253906 67.945312 L 117.773438 62.605469 L 118.289062 62.117188 C 118.949219 62.957031 119.617188 63.765625 120.238281 64.605469 L 120.234375 64.605469 C 123.820312 69.453125 126.570312 74.867188 128.371094 80.617188 C 128.628906 81.3125 128.441406 82.089844 127.894531 82.585938 L 123.042969 87.410156 C 122.957031 87.488281 122.859375 87.550781 122.71875 87.671875 Z M 116.070312 59.796875 L 111.355469 64.359375 C 111.214844 64.238281 111.082031 64.128906 110.960938 64.011719 L 110.964844 64.011719 C 106.054688 59.289062 99.980469 55.957031 93.359375 54.351562 C 91.507812 53.898438 89.589844 53.691406 87.707031 53.386719 C 87.375 53.335938 87.152344 53.265625 86.945312 52.949219 L 86.945312 52.953125 C 86.285156 51.949219 85.164062 51.347656 83.964844 51.347656 C 82.765625 51.351562 81.648438 51.957031 80.992188 52.960938 C 80.835938 53.175781 80.601562 53.316406 80.339844 53.359375 C 68.191406 54.691406 58.65625 60.382812 51.675781 70.328125 C 51.515625 70.578125 51.253906 70.738281 50.960938 70.765625 C 48.515625 71.164062 47.269531 73.546875 48.285156 75.804688 C 48.363281 76.007812 48.363281 76.230469 48.285156 76.433594 C 46.816406 79.78125 45.832031 83.324219 45.371094 86.949219 C 45.339844 87.175781 45.292969 87.394531 45.238281 87.707031 L 44.785156 87.285156 C 43.285156 85.789062 41.792969 84.277344 40.269531 82.800781 C 39.566406 82.117188 39.335938 81.394531 39.664062 80.4375 C 43.199219 70.304688 48.816406 61.632812 57.566406 55.160156 C 57.667969 55.085938 57.769531 55.023438 57.867188 54.945312 C 58.183594 54.667969 58.472656 54.589844 58.9375 54.714844 L 58.941406 54.714844 C 59.894531 54.980469 60.914062 54.835938 61.75 54.3125 C 62.589844 53.789062 63.167969 52.9375 63.347656 51.964844 C 63.398438 51.757812 63.535156 51.578125 63.71875 51.472656 C 65.988281 50.351562 68.351562 49.445312 70.785156 48.761719 C 76.535156 47.128906 82.402344 46.703125 88.335938 47.128906 C 93.800781 47.476562 99.152344 48.84375 104.113281 51.160156 C 104.429688 51.308594 104.585938 51.476562 104.636719 51.84375 C 104.792969 52.917969 105.433594 53.863281 106.378906 54.402344 C 107.324219 54.941406 108.464844 55.011719 109.46875 54.59375 C 109.636719 54.53125 109.90625 54.527344 110.035156 54.613281 C 112.183594 56.09375 114.15625 57.773438 115.976562 59.628906 C 116.011719 59.664062 116.027344 59.71875 116.070312 59.796875 Z M 96.835938 92.242188 C 96.871094 99.230469 91.113281 104.988281 84.046875 105.03125 C 76.976562 105.050781 71.214844 99.355469 71.152344 92.285156 C 71.121094 85.285156 76.871094 79.542969 83.953125 79.507812 C 91.027344 79.464844 96.792969 85.164062 96.835938 92.238281 Z M 56.421875 98.878906 L 53.105469 95.546875 C 51.742188 94.183594 50.363281 92.835938 49.011719 91.460938 L 49.007812 91.460938 C 48.832031 91.28125 48.726562 91.042969 48.714844 90.792969 C 48.839844 86.453125 49.78125 82.171875 51.488281 78.179688 C 51.574219 77.914062 51.804688 77.722656 52.078125 77.679688 C 54.433594 77.128906 55.53125 75.070312 54.699219 72.824219 C 54.648438 72.667969 54.648438 72.429688 54.726562 72.300781 L 54.726562 72.296875 C 57.304688 68.480469 60.617188 65.214844 64.46875 62.691406 C 64.484375 62.679688 64.5 62.679688 64.574219 62.660156 L 65.964844 65.03125 L 68.882812 70.070312 C 69.472656 71.097656 70.238281 71.324219 71.25 70.710938 L 71.253906 70.710938 C 73.902344 69.105469 76.835938 68.03125 79.894531 67.542969 C 85.152344 66.652344 90.558594 67.484375 95.304688 69.917969 C 95.351562 69.945312 95.390625 69.980469 95.484375 70.054688 L 91.078125 77.441406 C 82.757812 74.316406 75.878906 76.179688 70.324219 83.09375 L 62.9375 78.753906 C 63.597656 77.867188 64.230469 77.011719 64.875 76.171875 C 65.136719 75.824219 65.441406 75.511719 65.734375 75.183594 C 66.1875 74.679688 66.1875 74.394531 65.722656 73.921875 L 65.726562 73.925781 C 65.316406 73.511719 64.910156 73.101562 64.496094 72.695312 C 63.941406 72.148438 63.667969 72.148438 63.140625 72.714844 L 63.140625 72.71875 C 60.902344 75.113281 59.101562 77.890625 57.828125 80.914062 C 56.023438 85.148438 55.304688 89.769531 55.738281 94.351562 C 55.875 95.820312 56.175781 97.277344 56.421875 98.878906 Z M 83.972656 56.828125 L 83.972656 56.824219 C 82.890625 56.804688 82.019531 55.929688 82 54.847656 C 82.035156 53.765625 82.914062 52.902344 83.996094 52.882812 C 85.078125 52.910156 85.945312 53.785156 85.964844 54.867188 C 85.941406 55.953125 85.058594 56.824219 83.972656 56.832031 Z M 59.824219 49.40625 L 59.824219 49.402344 C 60.347656 49.386719 60.855469 49.585938 61.234375 49.949219 C 61.609375 50.3125 61.828125 50.808594 61.835938 51.335938 C 61.835938 52.429688 60.945312 53.320312 59.851562 53.320312 C 58.753906 53.320312 57.867188 52.429688 57.867188 51.335938 C 57.878906 50.261719 58.75 49.398438 59.824219 49.402344 Z M 116.53125 76.179688 L 116.527344 76.175781 C 115.488281 76.132812 114.667969 75.285156 114.65625 74.246094 C 114.648438 73.203125 115.453125 72.339844 116.492188 72.277344 C 117.570312 72.265625 118.449219 73.132812 118.460938 74.207031 C 118.472656 75.285156 117.605469 76.167969 116.527344 76.175781 Z M 108.117188 49.40625 C 109.234375 49.40625 110.085938 50.246094 110.082031 51.359375 L 110.078125 51.355469 C 110.074219 52.425781 109.210938 53.292969 108.140625 53.296875 C 107.617188 53.304688 107.113281 53.105469 106.738281 52.742188 C 106.363281 52.375 106.148438 51.878906 106.144531 51.355469 C 106.136719 50.832031 106.34375 50.328125 106.714844 49.960938 C 107.085938 49.589844 107.589844 49.386719 108.113281 49.398438 Z M 53.421875 74.226562 L 53.417969 74.222656 C 53.421875 74.746094 53.214844 75.25 52.84375 75.617188 C 52.472656 75.984375 51.96875 76.1875 51.445312 76.175781 C 50.921875 76.183594 50.417969 75.980469 50.046875 75.609375 C 49.679688 75.238281 49.476562 74.730469 49.488281 74.207031 C 49.492188 73.136719 50.363281 72.273438 51.433594 72.277344 C 51.957031 72.265625 52.460938 72.46875 52.835938 72.835938 C 53.207031 73.199219 53.417969 73.703125 53.417969 74.222656 Z M 53.421875 74.226562 "/>
</g>
</svg>
