<?xml version="1.0" encoding="UTF-8"?>
<svg xmlns="http://www.w3.org/2000/svg" xmlns:xlink="http://www.w3.org/1999/xlink" width="168pt" height="168pt" viewBox="0 0 168 168" version="1.1">
<g id="surface1661">
<path style=" stroke:none;fill-rule:nonzero;fill:rgb(13.333333%,70.980392%,45.098039%);fill-opacity:1;" d="M 168 84 C 168 130.390625 130.390625 168 84 168 C 37.609375 168 0 130.390625 0 84 C 0 37.609375 37.609375 0 84 0 C 130.390625 0 168 37.609375 168 84 "/>
<path style=" stroke:none;fill-rule:nonzero;fill:rgb(99.607843%,100%,100%);fill-opacity:1;" d="M 79.90625 140.722656 C 84.511719 140.984375 89.976562 140.710938 93.902344 140.015625 C 102.421875 138.546875 111.164062 134.738281 118.335938 129.375 C 121.554688 126.953125 127.070312 121.4375 129.464844 118.246094 C 134.863281 111.042969 138.417969 102.984375 140.253906 93.730469 C 140.929688 90.230469 141.019531 78.152344 140.410156 74.566406 C 137.035156 55.585938 125.449219 40.136719 108.464844 31.984375 L 108.464844 31.976562 C 108.015625 31.761719 107.566406 31.554688 107.117188 31.347656 L 109.320312 39.179688 C 110.582031 43.53125 113.152344 52.699219 115.085938 59.503906 C 120.203125 77.5 120.148438 77.195312 120.332031 81.765625 C 120.421875 84.15625 120.363281 86.820312 120.148438 88.449219 C 117.96875 104.789062 105.003906 117.722656 88.597656 119.933594 C 85.257812 120.390625 79.621094 120.179688 76.464844 119.503906 C 75.300781 119.226562 74.285156 119.074219 74.191406 119.136719 C 74.101562 119.257812 79.15625 137.5 79.957031 139.953125 C 80.125 140.457031 80.183594 140.65625 79.90625 140.726562 Z M 61.113281 136.140625 L 61.109375 136.136719 C 61.074219 136.113281 61.039062 136.082031 61.003906 136.054688 C 60.820312 135.84375 59.414062 131.367188 57.90625 126.0625 C 56.410156 120.761719 53.617188 110.941406 51.746094 104.296875 C 49.84375 97.644531 48.125 91.144531 47.882812 89.886719 C 47.394531 87.128906 47.332031 80.6875 47.792969 77.933594 L 47.796875 77.929688 C 48.375 74.539062 49.40625 71.238281 50.863281 68.117188 C 55.980469 57.386719 64.996094 50.304688 76.886719 47.699219 C 80.105469 46.996094 87.554688 46.996094 90.804688 47.699219 C 92.121094 48.007812 93.324219 48.128906 93.445312 47.976562 C 93.566406 47.851562 92.304688 42.980469 90.652344 37.152344 C 89.628906 33.660156 88.664062 30.152344 87.753906 26.628906 C 86.632812 26.613281 85.515625 26.609375 84.394531 26.613281 C 77.5625 26.582031 75.816406 26.765625 70.539062 27.988281 C 59.136719 30.65625 48.101562 37.464844 40.46875 46.449219 C 27.804688 61.347656 23.546875 81.675781 29.1875 100.15625 C 31.242188 106.964844 33.785156 111.964844 38.050781 117.753906 L 38.046875 117.753906 C 44.011719 125.777344 51.960938 132.109375 61.109375 136.136719 Z M 74.621094 146.140625 C 72.96875 145.898438 71.371094 145.621094 71.097656 145.5 L 71.09375 145.5 C 70.121094 145.210938 69.140625 144.953125 68.148438 144.730469 C 58.398438 142.367188 48.039062 136.578125 40.28125 129.152344 C 34.363281 123.480469 28.449219 114.898438 25.964844 108.429688 C 25.628906 107.601562 25.230469 106.617188 25.074219 106.28125 C 24.25 104.53125 22.78125 99.414062 21.949219 95.277344 C 21.058594 90.957031 21 90.183594 21 83.902344 C 21 80.042969 21.15625 76.363281 21.335938 75.320312 C 21.550781 74.3125 21.949219 72.070312 22.285156 70.386719 C 22.59375 68.671875 23.050781 66.953125 23.265625 66.554688 L 23.269531 66.554688 C 23.410156 66.328125 23.515625 66.078125 23.578125 65.820312 C 23.421875 65.820312 24.832031 61.253906 25.078125 60.917969 C 25.199219 60.761719 25.566406 59.9375 25.871094 59.082031 C 26.394531 57.636719 28.113281 54.148438 28.757812 53.097656 C 28.9375 52.855469 29.734375 51.507812 30.5625 50.125 C 31.417969 48.71875 32.246094 47.394531 32.398438 47.214844 C 32.582031 47 33.59375 45.714844 34.640625 44.363281 C 43.777344 32.738281 57.660156 24.339844 72.28125 21.613281 C 76.605469 20.785156 91.347656 20.816406 95.734375 21.644531 C 102.757812 22.957031 110.238281 25.871094 116.582031 29.734375 C 119.648438 31.636719 119.863281 31.761719 123.328125 34.515625 C 126.269531 36.847656 131.144531 41.75 133.261719 44.511719 C 134.089844 45.613281 135.128906 46.933594 135.5625 47.453125 C 135.992188 48.007812 136.359375 48.53125 136.359375 48.648438 C 136.359375 48.804688 136.695312 49.324219 137.09375 49.84375 C 137.492188 50.367188 138.441406 52.046875 139.242188 53.550781 C 140.007812 55.082031 140.773438 56.464844 140.894531 56.617188 C 141.015625 56.800781 141.597656 58.0625 142.15625 59.46875 C 146.292969 69.925781 147.730469 79.890625 146.597656 90.652344 C 146.136719 95.273438 144.050781 103.460938 142.460938 106.957031 C 142.152344 107.691406 141.878906 108.363281 141.878906 108.457031 C 141.878906 108.730469 139.242188 114.007812 138.445312 115.324219 C 131.976562 126.054688 122.8125 134.695312 112.449219 139.847656 C 110.667969 140.738281 108.984375 141.5625 108.679688 141.722656 C 106.621094 142.792969 99.847656 144.847656 94.820312 145.890625 C 91.695312 146.53125 78.601562 146.6875 74.617188 146.132812 Z M 88.386719 102.304688 C 95.039062 100.621094 100.804688 94.949219 102.457031 88.480469 C 103.070312 86.054688 103.101562 81.367188 102.488281 79.003906 C 99.941406 68.949219 89.488281 62.539062 79.652344 65.023438 C 75.605469 66.035156 73.457031 67.226562 70.605469 70.085938 C 66.53125 74.164062 64.839844 78.207031 64.871094 83.910156 C 64.902344 92.589844 70.542969 99.917969 79.003906 102.179688 C 81.550781 102.863281 85.964844 102.914062 88.386719 102.304688 Z M 88.386719 102.304688 "/>
</g>
</svg>
