<?xml version="1.0" encoding="UTF-8"?>
<svg xmlns="http://www.w3.org/2000/svg" xmlns:xlink="http://www.w3.org/1999/xlink" width="168pt" height="168pt" viewBox="0 0 168 168" version="1.1">
<g id="surface1979">
<path style=" stroke:none;fill-rule:evenodd;fill:rgb(20%,20%,20%);fill-opacity:1;" d="M 168 84 C 168 130.390625 130.390625 168 84 168 C 37.609375 168 0 130.390625 0 84 C 0 37.609375 37.609375 0 84 0 C 130.390625 0 168 37.609375 168 84 "/>
<path style=" stroke:none;fill-rule:nonzero;fill:rgb(100%,100%,100%);fill-opacity:1;" d="M 58.757812 42 L 99.519531 42 C 110.796875 42.667969 123.203125 47.300781 128.183594 58.066406 C 134.414062 71.773438 131.316406 91.050781 117.28125 98.875 C 104.335938 106.277344 88.847656 103.359375 74.628906 103.96875 C 74.246094 110.972656 76.203125 119.121094 71.320312 125.042969 C 69.355469 127.878906 60.351562 131.253906 60.351562 131.253906 C 60.351562 131.253906 59.523438 123.648438 59.21875 106.527344 C 59.023438 101.800781 59.796875 96.5 63.855469 93.429688 C 68.605469 89.34375 75.34375 90.621094 81.113281 90.410156 C 89.828125 90.179688 98.984375 91.511719 107.257812 88.152344 C 119.394531 83.191406 119.835938 62.929688 107.605469 57.824219 C 95.117188 52.984375 81.324219 57.386719 68.492188 54.710938 C 62.664062 53.078125 60.046875 47.339844 58.757812 42.007812 Z M 36.75 65.257812 C 47.40625 65.453125 58.085938 64.886719 68.722656 65.527344 C 76.457031 66.121094 81.53125 73.125 82.339844 80.285156 C 71.609375 80.234375 60.851562 80.625 50.117188 80.152344 C 43.523438 79.769531 38.65625 74.414062 36.75 68.507812 Z M 36.75 65.257812 "/>
</g>
</svg>
