<?xml version="1.0" encoding="UTF-8"?>
<svg xmlns="http://www.w3.org/2000/svg" xmlns:xlink="http://www.w3.org/1999/xlink" width="168pt" height="168pt" viewBox="0 0 168 168" version="1.1">
<g id="surface1701">
<path style=" stroke:none;fill-rule:nonzero;fill:rgb(7.45098%,27.843137%,90.980392%);fill-opacity:1;" d="M 168 84 C 168 130.390625 130.390625 168 84 168 C 37.609375 168 0 130.390625 0 84 C 0 37.609375 37.609375 0 84 0 C 130.390625 0 168 37.609375 168 84 "/>
<path style=" stroke:none;fill-rule:nonzero;fill:rgb(100%,100%,100%);fill-opacity:1;" d="M 84 26.25 C 52.105469 26.25 26.25 52.105469 26.25 84 C 26.25 115.894531 52.105469 141.75 84 141.75 C 115.894531 141.75 141.75 115.894531 141.75 84 C 141.75 52.105469 115.894531 26.25 84 26.25 Z M 138.808594 81.636719 L 134.136719 81.683594 L 134.117188 79.726562 L 138.796875 79.683594 L 138.816406 81.636719 Z M 137.613281 71.539062 L 132.976562 72.183594 L 132.707031 70.242188 L 137.335938 69.601562 L 137.609375 71.542969 Z M 133.625 59.242188 L 134.433594 61.027344 L 130.175781 62.960938 L 129.367188 61.179688 L 133.621094 59.242188 Z M 127.785156 50.347656 L 129.078125 51.816406 L 125.5625 54.902344 L 124.277344 53.433594 L 127.789062 50.347656 Z M 120.933594 43.035156 L 122.414062 44.316406 L 119.363281 47.855469 L 117.878906 46.578125 Z M 112.769531 36.425781 L 114.40625 37.492188 L 111.859375 41.414062 L 110.222656 40.355469 L 112.769531 36.429688 Z M 103.476562 31.84375 L 105.371094 32.34375 L 104.183594 36.863281 L 102.289062 36.363281 L 103.480469 31.847656 Z M 93.265625 29.335938 L 95.214844 29.492188 L 94.828125 34.152344 L 92.878906 33.988281 L 93.265625 29.332031 Z M 82.691406 28.101562 L 84.644531 28.101562 L 84.644531 32.78125 L 82.691406 32.78125 Z M 74.007812 29.335938 L 74.394531 33.992188 L 72.441406 34.160156 L 72.054688 29.5 Z M 63.792969 31.84375 L 64.980469 36.363281 L 63.089844 36.863281 L 61.898438 32.347656 L 63.789062 31.84375 Z M 54.503906 36.425781 L 57.050781 40.351562 L 55.40625 41.410156 L 52.859375 37.488281 L 54.503906 36.421875 Z M 46.339844 43.039062 L 49.390625 46.578125 L 47.910156 47.855469 L 44.859375 44.316406 L 46.339844 43.035156 Z M 39.492188 50.335938 L 43.007812 53.421875 L 41.710938 54.890625 L 38.199219 51.808594 L 39.492188 50.339844 Z M 33.660156 59.238281 L 37.914062 61.175781 L 37.109375 62.960938 L 32.851562 61.019531 Z M 29.9375 69.597656 L 34.574219 70.238281 L 34.300781 72.179688 L 29.671875 71.535156 L 29.941406 69.59375 Z M 28.488281 79.675781 L 33.160156 79.71875 L 33.144531 81.675781 L 28.472656 81.628906 Z M 28.917969 90.660156 L 33.570312 90.1875 L 33.765625 92.128906 L 29.113281 92.601562 Z M 31.035156 100.605469 L 35.59375 99.546875 L 36.039062 101.453125 L 31.480469 102.511719 Z M 36.132812 112.484375 L 35.167969 110.785156 L 39.226562 108.464844 L 40.199219 110.164062 L 36.136719 112.484375 Z M 42.757812 120.816406 L 41.335938 119.472656 L 44.554688 116.074219 L 45.972656 117.417969 Z M 50.242188 127.46875 L 48.652344 126.335938 L 51.367188 122.523438 L 52.957031 123.664062 Z M 58.976562 133.300781 L 57.242188 132.390625 L 59.414062 128.253906 L 61.148438 129.164062 Z M 68.640625 137.019531 L 66.707031 136.695312 L 67.480469 132.085938 L 69.414062 132.410156 Z M 77.085938 138.605469 L 77.050781 133.925781 L 79.007812 133.90625 L 79.042969 138.585938 Z M 35.386719 84 C 35.386719 57.195312 57.195312 35.386719 84 35.386719 C 110.804688 35.386719 132.613281 57.195312 132.613281 84 C 132.613281 110.804688 110.804688 132.613281 84 132.613281 C 57.195312 132.613281 35.386719 110.804688 35.386719 84 Z M 87.8125 139.023438 L 87.75 139.027344 L 87.324219 134.375 L 89.273438 134.195312 L 89.335938 134.183594 L 89.761719 138.839844 L 87.8125 139.019531 Z M 98.234375 136.828125 L 97.421875 132.222656 L 99.347656 131.882812 L 100.160156 136.492188 Z M 108.179688 133.394531 L 106.578125 129 L 108.414062 128.332031 L 110.015625 132.726562 Z M 117.003906 127.988281 L 114.117188 124.3125 L 115.648438 123.09375 L 118.542969 126.769531 L 117.003906 127.980469 Z M 124.53125 120.652344 L 121.171875 117.40625 L 122.527344 115.992188 L 125.886719 119.246094 L 124.53125 120.648438 Z M 130.683594 112.75 L 126.902344 109.992188 L 128.058594 108.410156 L 131.839844 111.160156 L 130.683594 112.746094 Z M 135.679688 103.351562 L 131.257812 101.808594 L 131.902344 99.960938 L 136.316406 101.503906 L 135.675781 103.347656 Z M 138.4375 92.695312 L 133.765625 92.484375 L 133.855469 90.527344 L 138.527344 90.742188 Z M 102.5625 108.839844 L 102.558594 108.839844 C 103.339844 109.679688 103.363281 110.960938 102.589844 111.726562 C 101.816406 112.488281 100.542969 112.449219 99.707031 111.652344 L 99.707031 111.65625 L 98.246094 110.1875 L 94.929688 106.820312 L 94.929688 106.828125 C 92.777344 107.855469 90.40625 108.335938 88.023438 108.230469 L 78.898438 108.230469 C 70.636719 108.535156 63 104.410156 63.621094 90.988281 C 63.640625 90.425781 63.585938 83.203125 63.585938 82.628906 L 63.601562 77.210938 C 63.585938 63.824219 66.855469 57.753906 75.875 55.605469 C 76.898438 55.359375 82.480469 55.238281 83.546875 55.238281 L 84.023438 55.238281 C 85.09375 55.238281 90.019531 55.359375 91.042969 55.605469 C 100.0625 57.753906 103.332031 63.820312 103.316406 77.210938 L 103.332031 82.632812 C 103.332031 83.203125 103.273438 90.421875 103.300781 90.992188 C 103.636719 98.238281 101.558594 101.386719 98.277344 104.503906 L 101.113281 107.363281 L 102.566406 108.839844 Z M 88.601562 103.96875 C 89.644531 103.96875 90.679688 103.820312 91.679688 103.527344 L 89.8125 101.636719 L 88.351562 100.15625 C 87.5625 99.316406 87.546875 98.039062 88.320312 97.277344 C 89.09375 96.511719 90.367188 96.546875 91.203125 97.339844 L 92.65625 98.808594 L 95.277344 101.464844 L 95.277344 101.472656 C 95.410156 101.347656 95.542969 101.222656 95.664062 101.089844 C 98.109375 98.527344 99.277344 96.386719 99.039062 91.1875 C 99.023438 90.820312 99.019531 90.816406 99.054688 84.292969 L 99.066406 82.628906 L 99.0625 78.964844 C 99.058594 76.726562 99.050781 77.515625 99.050781 77.207031 C 99.054688 71.273438 98.382812 66.117188 96.941406 63.792969 C 96.085938 62.40625 94.605469 60.851562 90.125 59.769531 C 88.097656 59.605469 86.0625 59.515625 84.027344 59.503906 L 83.542969 59.503906 C 82.195312 59.503906 77.679688 59.640625 76.796875 59.773438 C 72.3125 60.855469 70.832031 62.410156 69.976562 63.796875 C 68.53125 66.121094 67.859375 71.277344 67.871094 77.210938 C 67.871094 77.527344 67.867188 76.734375 67.859375 78.96875 L 67.863281 78.964844 C 67.859375 80.742188 67.859375 82.519531 67.863281 84.292969 C 67.898438 90.8125 67.898438 90.824219 67.878906 91.1875 C 67.644531 96.386719 68.8125 98.527344 71.261719 101.089844 C 73.535156 103.472656 76.355469 103.976562 78.316406 103.976562 L 78.742188 103.964844 L 78.820312 103.960938 L 88.179688 103.960938 C 88.320312 103.972656 88.464844 103.972656 88.605469 103.972656 Z M 88.601562 103.96875 "/>
</g>
</svg>
