<?xml version="1.0" encoding="UTF-8"?>
<svg xmlns="http://www.w3.org/2000/svg" xmlns:xlink="http://www.w3.org/1999/xlink" width="168pt" height="168pt" viewBox="0 0 168 168" version="1.1">
<g id="surface201">
<path style=" stroke:none;fill-rule:nonzero;fill:rgb(100%,54.901961%,0%);fill-opacity:1;" d="M 168 84 C 168 130.390625 130.390625 168 84 168 C 37.609375 168 0 130.390625 0 84 C 0 37.609375 37.609375 0 84 0 C 130.390625 0 168 37.609375 168 84 "/>
<path style=" stroke:none;fill-rule:nonzero;fill:rgb(100%,100%,100%);fill-opacity:1;" d="M 118.597656 102.085938 C 118.867188 104.191406 118.265625 105.003906 117.601562 105.003906 C 116.933594 105.003906 116 104.191406 115.003906 102.5625 C 114.007812 100.933594 113.601562 99.097656 114.136719 98.152344 C 114.46875 97.539062 115.203125 97.265625 116.070312 97.605469 C 117.804688 98.289062 118.46875 100.929688 118.601562 102.082031 Z M 109.269531 106.707031 C 111.332031 108.472656 111.9375 110.503906 110.867188 112 L 110.863281 112 C 110.183594 112.792969 109.179688 113.242188 108.132812 113.214844 C 106.984375 113.226562 105.867188 112.816406 105 112.0625 C 103.136719 110.433594 102.601562 107.722656 103.796875 106.230469 L 103.796875 106.226562 C 104.316406 105.585938 105.109375 105.234375 105.933594 105.277344 C 107 105.277344 108.203125 105.75 109.265625 106.699219 Z M 36.75 78.195312 C 36.75 52.398438 57.277344 31.5 82.601562 31.5 C 107.933594 31.5 128.460938 52.40625 128.460938 78.195312 C 128.460938 86.609375 126.234375 94.878906 122 102.15625 C 121.863281 102.359375 121.527344 102.292969 121.464844 102.019531 C 119.867188 90.546875 113 84.238281 103.003906 82.335938 C 102.132812 82.199219 102 81.652344 103.136719 81.523438 C 106.203125 81.25 110.535156 81.320312 112.796875 81.726562 C 112.933594 80.53125 113.003906 79.328125 113 78.125 C 113 61.089844 99.402344 47.246094 82.671875 47.246094 C 65.945312 47.246094 52.347656 61.089844 52.347656 78.125 C 52.347656 95.167969 65.945312 109.011719 82.671875 109.011719 L 84.074219 109.011719 C 83.597656 106.253906 83.394531 103.460938 83.46875 100.664062 C 83.535156 98.761719 83.941406 98.492188 84.738281 99.980469 C 88.9375 107.382812 94.933594 114.035156 106.667969 116.675781 C 116.265625 118.855469 125.863281 121.363281 136.195312 134.734375 C 137.125 135.890625 135.726562 137.105469 134.664062 136.15625 C 124.132812 126.652344 114.535156 123.53125 105.804688 123.53125 C 96.003906 123.605469 89.339844 124.894531 82.605469 124.894531 C 57.277344 124.898438 36.75 103.980469 36.75 78.1875 Z M 36.75 78.195312 "/>
</g>
</svg>
