<?xml version="1.0" encoding="UTF-8"?>
<svg xmlns="http://www.w3.org/2000/svg" xmlns:xlink="http://www.w3.org/1999/xlink" width="168pt" height="168pt" viewBox="0 0 168 168" version="1.1">
<g id="surface681">
<path style=" stroke:none;fill-rule:nonzero;fill:rgb(38.039216%,0%,53.72549%);fill-opacity:1;" d="M 168 84 C 168 130.390625 130.390625 168 84 168 C 37.609375 168 0 130.390625 0 84 C 0 37.609375 37.609375 0 84 0 C 130.390625 0 168 37.609375 168 84 "/>
<path style=" stroke:none;fill-rule:evenodd;fill:rgb(100%,100%,100%);fill-opacity:1;" d="M 86.574219 26.265625 C 113.507812 27.714844 135.304688 46.40625 140.65625 72.824219 C 141.359375 76.308594 141.546875 79.917969 141.742188 83.480469 C 141.914062 86.628906 139.863281 88.757812 137.023438 88.75 C 134.242188 88.75 132.417969 86.734375 132.351562 83.605469 C 131.84375 60.574219 116.285156 41.578125 93.828125 36.777344 C 90.46875 36.0625 86.960938 36.054688 83.527344 35.664062 C 80.914062 35.371094 79.179688 33.359375 79.253906 30.808594 C 79.328125 28.285156 81.21875 26.402344 83.851562 26.273438 C 84.761719 26.230469 85.667969 26.269531 86.578125 26.269531 Z M 81.542969 141.75 C 55.695312 140.972656 32.449219 121.378906 27.546875 96.011719 C 26.800781 92.125 26.519531 88.140625 26.261719 84.1875 C 26.105469 81.773438 27.640625 80.039062 29.882812 79.460938 C 31.742188 78.976562 33.90625 79.769531 34.847656 81.539062 C 35.320312 82.4375 35.546875 83.570312 35.566406 84.605469 C 35.949219 106.675781 50.875 125.671875 72.296875 130.953125 C 76.160156 131.910156 80.234375 132.0625 84.226562 132.484375 C 86.503906 132.71875 88.332031 134.269531 88.636719 136.488281 C 88.925781 138.589844 87.601562 140.933594 85.589844 141.433594 C 84.292969 141.753906 82.890625 141.652344 81.542969 141.742188 Z M 83.914062 62.984375 C 95.34375 62.949219 104.941406 72.320312 105.019531 83.589844 C 105.046875 87.476562 101.484375 89.921875 98.195312 88.246094 C 96.410156 87.34375 95.644531 85.832031 95.570312 83.820312 C 95.457031 78.203125 91.320312 73.480469 85.769531 72.628906 C 79.722656 71.601562 73.839844 75.707031 72.664062 81.78125 C 71.460938 87.988281 75.347656 94.03125 81.394531 95.335938 C 82.222656 95.515625 83.074219 95.613281 83.914062 95.660156 C 86.726562 95.808594 88.703125 97.746094 88.679688 100.386719 C 88.660156 103.0625 86.542969 105.046875 83.675781 105.074219 C 74.667969 105.152344 66.171875 98.578125 63.714844 89.632812 C 60.046875 76.273438 70.082031 63.027344 83.910156 62.984375 Z M 123.578125 82.707031 C 123.472656 83.597656 123.511719 84.71875 123.183594 85.714844 C 122.5 87.835938 120.242188 89.0625 118.039062 88.707031 C 115.746094 88.328125 114.113281 86.449219 114.085938 83.878906 C 114.050781 79.960938 113.414062 76.160156 111.808594 72.605469 C 106.492188 60.871094 97.390625 54.578125 84.488281 53.96875 C 81.332031 53.8125 79.238281 51.964844 79.257812 49.140625 C 79.285156 46.316406 81.394531 44.472656 84.597656 44.484375 C 103.863281 44.519531 120.703125 59.429688 123.144531 78.628906 C 123.3125 79.925781 123.421875 81.222656 123.582031 82.707031 Z M 44.507812 85.128906 C 44.238281 82.992188 44.785156 80.886719 47.226562 79.761719 C 50.441406 78.277344 53.804688 80.574219 53.867188 84.351562 C 53.929688 87.96875 54.550781 91.449219 55.851562 94.820312 L 55.855469 94.820312 C 57.972656 100.394531 61.707031 105.214844 66.578125 108.65625 C 71.445312 112.101562 77.234375 114.011719 83.195312 114.152344 C 87.269531 114.257812 89.636719 117.207031 88.339844 120.558594 C 87.617188 122.449219 86.019531 123.546875 83.835938 123.523438 C 72.277344 123.417969 62.527344 119.085938 54.730469 110.597656 C 48.308594 103.652344 44.671875 94.589844 44.507812 85.132812 Z M 105.0625 99.933594 C 104.867188 102.28125 104.066406 103.765625 102.300781 104.589844 C 100.546875 105.410156 98.765625 105.28125 97.367188 103.984375 L 97.367188 103.988281 C 94.828125 101.632812 92.375 99.1875 90.011719 96.652344 C 88.382812 94.910156 88.542969 92.164062 90.136719 90.445312 C 91.765625 88.695312 94.671875 88.335938 96.453125 89.96875 C 99.089844 92.375 101.582031 94.945312 104.011719 97.566406 C 104.652344 98.257812 104.832031 99.378906 105.0625 99.929688 Z M 105.0625 99.933594 "/>
</g>
</svg>
