<?xml version="1.0" encoding="UTF-8"?>
<svg xmlns="http://www.w3.org/2000/svg" xmlns:xlink="http://www.w3.org/1999/xlink" width="168pt" height="168pt" viewBox="0 0 168 168" version="1.1">
<g id="surface1716">
<path style=" stroke:none;fill-rule:nonzero;fill:rgb(0%,0%,0%);fill-opacity:1;" d="M 168 84 C 168 130.390625 130.390625 168 84 168 C 37.609375 168 0 130.390625 0 84 C 0 37.609375 37.609375 0 84 0 C 130.390625 0 168 37.609375 168 84 "/>
<path style=" stroke:none;fill-rule:nonzero;fill:rgb(100%,100%,100%);fill-opacity:1;" d="M 55.417969 35.40625 L 82.855469 68.222656 L 101.261719 57.167969 C 101.261719 57.167969 79.035156 26.84375 73.132812 28.980469 C 67.25 31.175781 61.34375 33.316406 55.417969 35.402344 Z M 101.953125 57.167969 C 101.953125 57.167969 106.125 49.675781 108.210938 39.683594 C 108.210938 39.683594 129.046875 48.242188 121.058594 69.652344 L 101.960938 57.167969 Z M 101.953125 57.167969 "/>
<path style=" stroke:none;fill-rule:nonzero;fill:rgb(100%,100%,100%);fill-opacity:1;" d="M 121.066406 69.652344 L 122.800781 92.121094 L 130.792969 91.054688 C 130.792969 91.054688 132.878906 90.339844 132.527344 86.417969 C 132.179688 82.132812 131.488281 73.214844 131.488281 73.214844 C 131.488281 73.214844 131.835938 71.078125 126.972656 70.363281 C 121.066406 69.292969 121.066406 69.648438 121.066406 69.648438 Z M 122.800781 92.128906 L 106.824219 105.328125 L 114.121094 119.953125 C 114.121094 119.953125 115.855469 125.660156 121.066406 119.238281 C 125.929688 112.816406 128.011719 111.746094 127.660156 107.824219 C 127.3125 103.898438 126.273438 94.621094 122.796875 92.125 Z M 106.472656 105.328125 L 84.597656 95.335938 L 65.492188 134.9375 C 65.492188 134.9375 64.105469 137.789062 68.96875 138.144531 C 73.832031 138.859375 81.820312 140.644531 85.988281 136.359375 C 90.15625 132.4375 106.480469 105.328125 106.480469 105.328125 Z M 84.597656 94.980469 L 82.511719 68.582031 L 35.277344 71.796875 C 35.277344 71.796875 32.496094 72.152344 32.847656 77.503906 C 33.195312 84.636719 33.886719 92.488281 33.886719 92.488281 C 33.886719 92.488281 33.539062 95.695312 39.792969 96.058594 C 46.039062 96.410156 83.902344 96.410156 84.597656 94.980469 Z M 84.597656 94.980469 "/>
</g>
</svg>
