<?xml version="1.0" encoding="UTF-8"?>
<svg xmlns="http://www.w3.org/2000/svg" xmlns:xlink="http://www.w3.org/1999/xlink" width="168pt" height="168pt" viewBox="0 0 168 168" version="1.1">
<g id="surface101">
<path style=" stroke:none;fill-rule:evenodd;fill:rgb(14.509804%,14.509804%,14.509804%);fill-opacity:1;" d="M 168 84 C 168 130.390625 130.390625 168 84 168 C 37.609375 168 0 130.390625 0 84 C 0 37.609375 37.609375 0 84 0 C 130.390625 0 168 37.609375 168 84 "/>
<path style=" stroke:none;fill-rule:nonzero;fill:rgb(100%,100%,100%);fill-opacity:1;" d="M 134.546875 111.347656 C 135.640625 111.371094 136.511719 112.269531 136.5 113.363281 L 136.5 123.375 L 103.535156 123.375 L 103.410156 114.660156 C 103.414062 114.085938 103.667969 113.539062 104.109375 113.167969 C 104.238281 113 104.386719 112.847656 104.546875 112.710938 C 119.074219 102.578125 124.65625 83.285156 117.890625 66.59375 C 111.125 49.902344 93.886719 40.460938 76.695312 44.019531 C 59.507812 47.574219 47.132812 63.152344 47.128906 81.242188 C 47.117188 93.605469 53.007812 105.183594 62.882812 112.191406 C 63.097656 112.3125 63.273438 112.492188 63.386719 112.710938 C 64.121094 113.054688 64.589844 113.789062 64.589844 114.597656 L 64.464844 123.3125 L 31.5 123.3125 L 31.5 113.296875 C 31.5 112.183594 32.375 111.28125 33.453125 111.28125 C 34.53125 111.28125 35.40625 112.183594 35.40625 113.296875 L 35.40625 119.34375 L 60.617188 119.34375 L 60.679688 115.574219 L 60.617188 115.574219 C 46.121094 105.0625 39.902344 86.078125 45.234375 68.648438 C 50.582031 51.21875 66.253906 39.375 83.972656 39.375 C 101.691406 39.375 117.363281 51.21875 122.703125 68.648438 C 128.042969 86.078125 121.820312 105.0625 107.320312 115.574219 L 107.386719 119.40625 L 132.597656 119.40625 L 132.597656 113.363281 C 132.585938 112.269531 133.457031 111.371094 134.550781 111.347656 Z M 108.515625 84.171875 C 112.863281 89.699219 114.1875 94.640625 112.296875 97.890625 C 110.847656 100.425781 107.761719 101.792969 103.28125 101.792969 L 103.285156 101.792969 C 100.472656 101.722656 97.679688 101.308594 94.96875 100.558594 C 92.511719 109.140625 88.539062 114.671875 84 114.671875 C 79.464844 114.671875 75.496094 109.144531 73.097656 100.558594 C 70.386719 101.308594 67.59375 101.722656 64.78125 101.792969 C 60.304688 101.792969 57.214844 100.429688 55.765625 97.890625 C 53.433594 93.859375 56.082031 87.554688 62.128906 81.117188 C 61.214844 80.167969 60.351562 79.167969 59.546875 78.125 C 55.199219 72.597656 53.875 67.71875 55.765625 64.339844 C 57.214844 61.804688 60.300781 60.4375 64.78125 60.4375 C 67.59375 60.507812 70.386719 60.925781 73.097656 61.675781 C 75.554688 53.09375 79.527344 47.5625 84.066406 47.5625 C 88.601562 47.5625 92.570312 53.089844 94.96875 61.738281 C 97.679688 60.988281 100.472656 60.574219 103.285156 60.507812 C 107.761719 60.507812 110.851562 61.871094 112.300781 64.410156 C 114.191406 67.792969 112.867188 72.667969 108.519531 78.195312 L 108.515625 78.195312 C 107.710938 79.238281 106.847656 80.234375 105.933594 81.1875 C 106.847656 82.132812 107.707031 83.128906 108.515625 84.175781 Z M 103.34375 62.910156 L 103.347656 62.910156 C 100.730469 62.992188 98.132812 63.363281 95.597656 64.011719 C 96.273438 67.097656 96.753906 70.226562 97.046875 73.378906 C 99.535156 75.214844 101.914062 77.214844 104.171875 79.363281 C 105.054688 78.449219 105.871094 77.472656 106.628906 76.566406 C 110.21875 71.945312 111.542969 67.984375 110.21875 65.578125 C 109.023438 63.367188 105.808594 62.910156 103.347656 62.910156 Z M 89.484375 90.933594 C 91.3125 89.832031 93.074219 88.660156 94.714844 87.488281 C 94.902344 85.402344 94.96875 83.324219 94.96875 81.113281 C 94.96875 78.902344 94.84375 76.753906 94.714844 74.738281 L 94.714844 74.746094 C 93.015625 73.550781 91.269531 72.421875 89.480469 71.363281 C 87.679688 70.339844 85.855469 69.363281 84 68.4375 C 82.121094 69.308594 80.292969 70.285156 78.519531 71.363281 C 76.628906 72.464844 74.921875 73.574219 73.285156 74.746094 C 73.097656 76.761719 73.03125 78.910156 73.03125 81.121094 C 73.03125 83.324219 73.15625 85.480469 73.285156 87.496094 L 73.285156 87.492188 C 76.691406 89.882812 80.273438 92.011719 84 93.859375 C 85.878906 92.988281 87.707031 92.011719 89.480469 90.933594 Z M 94.460938 90.738281 C 93.199219 91.515625 92.003906 92.296875 90.742188 93.078125 C 89.480469 93.855469 88.222656 94.574219 86.960938 95.21875 C 89.03125 96.152344 91.15625 96.957031 93.324219 97.628906 C 93.765625 95.480469 94.144531 93.203125 94.457031 90.734375 Z M 81.164062 95.222656 L 77.382812 93.082031 C 76.121094 92.300781 74.863281 91.515625 73.660156 90.742188 C 73.886719 93.0625 74.265625 95.363281 74.792969 97.636719 C 76.957031 96.953125 79.082031 96.152344 81.160156 95.226562 Z M 70.828125 85.597656 L 70.828125 85.601562 C 70.753906 84.109375 70.710938 82.613281 70.703125 81.117188 C 70.703125 79.558594 70.765625 78.125 70.828125 76.628906 C 68.996094 78.015625 67.246094 79.511719 65.597656 81.117188 C 67.257812 82.707031 69.003906 84.210938 70.828125 85.601562 Z M 73.664062 71.621094 L 73.664062 71.625 C 74.847656 70.792969 76.066406 70.011719 77.316406 69.285156 C 78.644531 68.503906 79.90625 67.789062 81.164062 67.136719 C 79.089844 66.203125 76.964844 65.402344 74.796875 64.730469 C 74.355469 66.871094 73.976562 69.152344 73.664062 71.625 Z M 86.898438 67.132812 C 88.160156 67.785156 89.417969 68.496094 90.679688 69.28125 C 91.941406 70.058594 93.199219 70.839844 94.402344 71.621094 L 94.398438 71.625 C 94.175781 69.304688 93.796875 67.003906 93.265625 64.734375 C 91.101562 65.417969 88.976562 66.214844 86.898438 67.140625 Z M 97.296875 76.6875 C 97.359375 78.1875 97.421875 79.617188 97.421875 81.175781 C 97.421875 82.734375 97.359375 84.230469 97.296875 85.664062 C 99.125 84.167969 100.886719 82.671875 102.460938 81.175781 L 102.464844 81.179688 C 100.84375 79.574219 99.117188 78.074219 97.296875 76.695312 Z M 84.0625 50.035156 C 80.847656 50.035156 77.574219 54.585938 75.425781 62.320312 C 78.375 63.25 81.257812 64.378906 84.0625 65.695312 L 84.0625 65.699219 C 86.863281 64.382812 89.75 63.257812 92.699219 62.328125 C 90.550781 54.589844 87.214844 50.039062 84.0625 50.039062 Z M 57.90625 65.574219 C 56.519531 67.980469 57.84375 72.011719 61.496094 76.496094 C 62.253906 77.46875 63.070312 78.375 63.953125 79.351562 C 66.199219 77.199219 68.574219 75.203125 71.078125 73.378906 C 71.367188 70.230469 71.851562 67.101562 72.527344 64.019531 C 69.996094 63.335938 67.394531 62.96875 64.777344 62.910156 C 62.316406 62.910156 59.164062 63.367188 57.90625 65.578125 Z M 64.777344 99.382812 C 67.398438 99.332031 70 98.9375 72.527344 98.207031 L 72.527344 98.210938 C 71.851562 95.125 71.371094 92 71.078125 88.855469 C 68.542969 87.050781 66.144531 85.050781 63.890625 82.871094 C 58.472656 88.660156 56.332031 93.859375 57.90625 96.71875 C 59.101562 98.929688 62.316406 99.386719 64.777344 99.386719 Z M 84.0625 112.253906 C 87.210938 112.253906 90.550781 107.703125 92.699219 99.96875 L 92.699219 99.976562 C 89.746094 99.042969 86.863281 97.914062 84.0625 96.59375 C 81.261719 97.910156 78.378906 99.042969 75.425781 99.976562 C 77.574219 107.710938 80.910156 112.261719 84.0625 112.261719 Z M 110.21875 96.714844 C 111.542969 94.375 110.21875 90.347656 106.628906 85.726562 L 106.628906 85.734375 C 105.84375 84.769531 105.023438 83.839844 104.171875 82.941406 C 101.925781 85.09375 99.550781 87.089844 97.046875 88.925781 C 96.757812 92.070312 96.273438 95.199219 95.597656 98.285156 C 98.128906 98.960938 100.730469 99.335938 103.347656 99.386719 C 105.808594 99.386719 108.960938 98.929688 110.21875 96.71875 Z M 84.0625 71.621094 C 89.15625 71.621094 93.292969 75.859375 93.328125 81.113281 C 93.328125 86.347656 89.21875 90.59375 84.144531 90.605469 C 79.074219 90.617188 74.945312 86.390625 74.921875 81.15625 C 74.902344 75.921875 78.992188 71.652344 84.0625 71.621094 Z M 84.0625 88.199219 C 87.8125 88.167969 90.839844 85.042969 90.871094 81.175781 C 90.871094 77.296875 87.824219 74.15625 84.0625 74.15625 C 80.296875 74.15625 77.253906 77.296875 77.253906 81.175781 C 77.253906 85.054688 80.304688 88.199219 84.0625 88.199219 Z M 84.0625 88.199219 "/>
</g>
</svg>
