<?xml version="1.0" encoding="UTF-8"?>
<svg xmlns="http://www.w3.org/2000/svg" xmlns:xlink="http://www.w3.org/1999/xlink" width="168pt" height="168pt" viewBox="0 0 168 168" version="1.1">
<g id="surface761">
<path style=" stroke:none;fill-rule:evenodd;fill:rgb(27.058824%,27.058824%,27.058824%);fill-opacity:1;" d="M 168 84 C 168 130.390625 130.390625 168 84 168 C 37.609375 168 0 130.390625 0 84 C 0 37.609375 37.609375 0 84 0 C 130.390625 0 168 37.609375 168 84 "/>
<path style=" stroke:none;fill-rule:evenodd;fill:rgb(100%,100%,100%);fill-opacity:1;" d="M 60.375 84 C 60.375 70.976562 70.976562 60.375 84 60.375 C 97.023438 60.375 107.625 70.976562 107.625 84 C 107.625 87.429688 106.875 90.679688 105.554688 93.625 L 89.960938 78.03125 L 78.03125 89.964844 L 93.625 105.558594 L 93.628906 105.554688 C 90.601562 106.917969 87.320312 107.625 84 107.625 C 77.738281 107.617188 71.730469 105.125 67.300781 100.699219 C 62.875 96.269531 60.382812 90.261719 60.375 84 M 122.394531 84 C 122.398438 76.585938 120.246094 69.328125 116.199219 63.117188 L 131.25 48.058594 L 119.941406 36.75 L 104.882812 51.808594 C 98.867188 47.898438 91.707031 45.609375 84 45.609375 C 76.292969 45.609375 69.132812 47.898438 63.117188 51.804688 L 48.058594 36.75 L 36.75 48.058594 L 51.808594 63.117188 C 47.898438 69.132812 45.609375 76.292969 45.609375 84 C 45.609375 91.707031 47.902344 98.867188 51.808594 104.882812 L 36.75 119.941406 L 48.058594 131.25 L 63.117188 116.191406 C 69.132812 120.101562 76.292969 122.390625 84 122.390625 C 91.707031 122.390625 98.867188 120.101562 104.882812 116.191406 L 119.941406 131.25 L 131.25 119.941406 L 116.191406 104.882812 C 120.246094 98.671875 122.398438 91.414062 122.394531 84 "/>
</g>
</svg>
