<?xml version="1.0" encoding="UTF-8"?>
<svg xmlns="http://www.w3.org/2000/svg" xmlns:xlink="http://www.w3.org/1999/xlink" width="168pt" height="168pt" viewBox="0 0 168 168" version="1.1">
<g id="surface1141">
<path style=" stroke:none;fill-rule:evenodd;fill:rgb(18.039216%,60.392157%,81.568627%);fill-opacity:1;" d="M 168 84 C 168 130.390625 130.390625 168 84 168 C 37.609375 168 0 130.390625 0 84 C 0 37.609375 37.609375 0 84 0 C 130.390625 0 168 37.609375 168 84 "/>
<path style=" stroke:none;fill-rule:nonzero;fill:rgb(100%,100%,100%);fill-opacity:1;" d="M 132.894531 124.089844 L 122.535156 114.871094 L 101.578125 130.59375 C 101.828125 131.144531 101.957031 131.738281 101.953125 132.34375 C 101.972656 134.617188 100.144531 136.476562 97.871094 136.5 C 95.890625 136.488281 94.199219 135.066406 93.847656 133.117188 L 71.21875 133.117188 L 71.222656 133.117188 C 70.871094 135.066406 69.183594 136.484375 67.207031 136.5 C 64.929688 136.480469 63.097656 134.617188 63.117188 132.34375 C 63.113281 131.742188 63.242188 131.148438 63.488281 130.605469 L 44.871094 116.746094 C 44.128906 117.417969 43.164062 117.789062 42.164062 117.789062 C 39.886719 117.769531 38.054688 115.90625 38.074219 113.632812 C 38.074219 112.058594 38.933594 110.6875 40.207031 109.980469 L 33.367188 88.140625 L 33.363281 88.136719 C 32.207031 88.238281 31.058594 87.847656 30.203125 87.0625 C 29.351562 86.273438 28.867188 85.160156 28.875 84 C 28.867188 82.816406 29.371094 81.683594 30.253906 80.894531 C 31.136719 80.109375 32.320312 79.738281 33.496094 79.878906 L 40.222656 58.035156 L 40.21875 58.035156 C 38.890625 57.296875 38.066406 55.890625 38.074219 54.367188 C 38.074219 52.074219 39.90625 50.210938 42.164062 50.210938 C 43.222656 50.210938 44.191406 50.621094 44.914062 51.292969 L 63.671875 37.746094 C 63.308594 37.113281 63.113281 36.390625 63.117188 35.65625 C 63.117188 33.363281 64.949219 31.5 67.207031 31.5 C 69.203125 31.5 70.867188 32.953125 71.222656 34.882812 L 93.851562 34.882812 L 93.847656 34.882812 C 94.199219 32.933594 95.890625 31.511719 97.871094 31.5 C 100.128906 31.5 101.957031 33.363281 101.957031 35.65625 L 101.953125 35.65625 C 101.957031 36.355469 101.785156 37.039062 101.457031 37.652344 L 120.09375 51.355469 C 120.847656 50.621094 121.859375 50.210938 122.914062 50.210938 C 125.171875 50.210938 127 52.074219 127 54.367188 L 126.996094 54.367188 C 127.003906 55.769531 126.304688 57.082031 125.140625 57.859375 L 131.839844 79.851562 C 132.980469 79.773438 134.101562 80.179688 134.929688 80.96875 C 135.757812 81.757812 136.21875 82.855469 136.195312 84 C 136.203125 85.117188 135.761719 86.1875 134.964844 86.972656 C 134.167969 87.753906 133.089844 88.183594 131.972656 88.15625 L 124.113281 113.515625 L 134.175781 122.472656 L 134.179688 122.472656 C 135.292969 121.464844 136.742188 120.90625 138.242188 120.90625 C 141.628906 120.90625 144.375 123.699219 144.375 127.144531 C 144.375 130.589844 141.628906 133.382812 138.242188 133.382812 C 136.601562 133.367188 135.035156 132.703125 133.886719 131.53125 C 132.734375 130.363281 132.097656 128.785156 132.109375 127.144531 C 132.109375 126.03125 132.394531 124.992188 132.898438 124.089844 Z M 98.21875 128.199219 L 106.027344 110.617188 L 106.023438 110.617188 C 105.382812 110.085938 104.914062 109.378906 104.679688 108.582031 L 86.566406 111.21875 L 86.566406 111.214844 C 86.4375 111.984375 86.097656 112.703125 85.582031 113.289062 L 96.328125 128.488281 C 96.925781 128.242188 97.574219 128.140625 98.21875 128.199219 Z M 100.28125 128.988281 L 120.59375 113.746094 L 111.835938 109.933594 C 110.914062 111.15625 109.386719 111.753906 107.882812 111.484375 L 100.148438 128.894531 C 100.191406 128.921875 100.238281 128.953125 100.28125 128.980469 Z M 94.691406 129.730469 L 83.875 114.441406 C 83.007812 114.746094 82.0625 114.746094 81.195312 114.441406 L 70.378906 129.730469 L 70.382812 129.726562 C 70.695312 130.117188 70.933594 130.5625 71.089844 131.039062 L 93.980469 131.039062 C 94.136719 130.5625 94.375 130.117188 94.6875 129.726562 Z M 130.011719 87.574219 L 130.011719 87.570312 C 128.769531 86.808594 128.015625 85.457031 128.019531 84 C 128.019531 82.53125 128.765625 81.242188 129.894531 80.503906 L 123.5625 59.714844 L 122.144531 80.054688 C 123.773438 80.601562 124.953125 82.160156 124.953125 84.003906 L 124.957031 84 C 124.964844 85.769531 123.847656 87.351562 122.179688 87.9375 L 123.578125 108.339844 L 130.015625 87.570312 Z M 118.179688 80.871094 L 109.863281 64.570312 L 109.863281 64.566406 C 109.183594 64.789062 108.460938 64.828125 107.761719 64.679688 L 100.453125 80.78125 C 101.40625 81.578125 101.957031 82.757812 101.953125 84 C 101.957031 85.261719 101.386719 86.460938 100.40625 87.253906 L 107.941406 103.289062 C 108.480469 103.199219 109.035156 103.21875 109.566406 103.351562 L 118.066406 87.023438 C 117.242188 86.234375 116.773438 85.140625 116.777344 84 C 116.777344 82.75 117.324219 81.628906 118.179688 80.867188 Z M 120.144531 88.101562 L 120.140625 88.09375 C 120.046875 88.078125 119.953125 88.054688 119.859375 88.03125 L 111.371094 104.328125 L 111.367188 104.328125 C 112.378906 105.273438 112.855469 106.65625 112.644531 108.023438 L 121.78125 112.003906 L 120.144531 88.09375 Z M 120.113281 79.921875 L 121.613281 58.324219 L 121.609375 58.316406 C 120.820312 58.046875 120.132812 57.539062 119.636719 56.863281 L 112.613281 59.796875 C 112.863281 61.105469 112.484375 62.457031 111.589844 63.445312 L 120.011719 79.929688 L 120.007812 79.929688 C 120.042969 79.925781 120.078125 79.921875 120.109375 79.914062 Z M 98.546875 88.113281 L 98.542969 88.105469 C 97.957031 88.203125 97.355469 88.171875 96.785156 88.011719 L 85.640625 107.804688 L 85.636719 107.804688 C 85.972656 108.199219 86.230469 108.648438 86.398438 109.136719 L 104.605469 106.492188 C 104.816406 105.542969 105.339844 104.707031 106.066406 104.128906 L 98.542969 88.09375 Z M 98.597656 79.917969 L 105.933594 63.765625 L 105.929688 63.757812 C 105.183594 63.101562 104.695312 62.203125 104.554688 61.21875 L 86.3125 58.566406 L 86.308594 58.570312 C 86.109375 59.058594 85.816406 59.507812 85.449219 59.886719 L 96.679688 80.019531 C 97.300781 79.828125 97.960938 79.792969 98.601562 79.910156 Z M 95.015625 86.984375 L 95.015625 86.976562 C 94.222656 86.1875 93.777344 85.117188 93.78125 84 C 93.78125 82.875 94.222656 81.851562 94.9375 81.105469 L 83.703125 60.957031 L 83.699219 60.957031 C 83.074219 61.148438 82.410156 61.183594 81.769531 61.058594 L 70.183594 81.148438 C 70.898438 81.925781 71.296875 82.941406 71.296875 84 C 71.296875 85.097656 70.871094 86.152344 70.101562 86.933594 L 81.484375 106.488281 L 81.484375 106.492188 C 82.300781 106.273438 83.164062 106.3125 83.953125 106.613281 L 95.015625 86.976562 Z M 35.285156 87.429688 L 41.804688 108.25 L 43.34375 88.070312 L 43.34375 88.0625 C 41.449219 87.628906 40.109375 85.941406 40.121094 84 C 40.109375 82.03125 41.484375 80.328125 43.414062 79.921875 L 41.824219 59.792969 L 35.402344 80.660156 C 36.445312 81.453125 37.058594 82.6875 37.054688 84 C 37.054688 85.417969 36.351562 86.675781 35.285156 87.421875 Z M 55.695312 103.316406 L 55.695312 103.308594 C 56.304688 103.191406 56.929688 103.210938 57.523438 103.371094 L 64.714844 87.300781 C 63.703125 86.507812 63.113281 85.289062 63.117188 84 C 63.117188 82.699219 63.707031 81.539062 64.625 80.777344 L 57.316406 64.679688 L 57.3125 64.679688 C 56.808594 64.785156 56.289062 64.796875 55.78125 64.707031 L 46.964844 80.933594 C 47.816406 81.726562 48.300781 82.835938 48.300781 84 C 48.304688 85.128906 47.847656 86.214844 47.039062 87.003906 L 55.703125 103.308594 Z M 57.394531 111.453125 L 57.398438 111.445312 C 55.871094 111.804688 54.273438 111.246094 53.304688 110.015625 L 46.21875 113.101562 L 46.214844 113.101562 C 46.296875 113.746094 46.226562 114.402344 46.015625 115.015625 L 64.785156 128.992188 C 64.839844 128.949219 64.894531 128.910156 64.953125 128.871094 L 57.394531 111.441406 Z M 52.445312 108.128906 L 52.449219 108.125 C 52.183594 106.660156 52.714844 105.164062 53.847656 104.195312 L 45.378906 88.261719 L 43.734375 109.785156 L 43.738281 109.789062 C 44.425781 110.082031 45.023438 110.558594 45.460938 111.167969 L 52.449219 108.121094 Z M 60.476562 106.558594 L 78.667969 109.152344 L 78.671875 109.148438 C 78.882812 108.527344 79.238281 107.964844 79.707031 107.507812 L 68.347656 87.992188 L 68.34375 87.996094 C 67.78125 88.164062 67.183594 88.203125 66.601562 88.117188 L 59.304688 104.398438 L 59.304688 104.394531 C 59.90625 104.980469 60.316406 105.734375 60.480469 106.554688 Z M 60.371094 108.644531 L 60.375 108.636719 C 60.15625 109.34375 59.753906 109.976562 59.210938 110.476562 L 66.890625 128.195312 C 67.523438 128.148438 68.15625 128.246094 68.742188 128.488281 L 79.496094 113.289062 C 78.980469 112.707031 78.640625 111.992188 78.507812 111.226562 L 60.375 108.636719 Z M 52.480469 59.703125 L 45.492188 56.785156 L 45.496094 56.777344 C 45.058594 57.410156 44.453125 57.902344 43.75 58.207031 L 45.429688 79.476562 L 53.914062 63.851562 C 52.691406 62.847656 52.136719 61.246094 52.484375 59.703125 Z M 57.46875 56.578125 L 64.6875 39.566406 L 46.035156 53.039062 L 46.039062 53.035156 C 46.230469 53.613281 46.292969 54.230469 46.226562 54.835938 L 53.417969 57.84375 C 54.421875 56.6875 55.988281 56.199219 57.472656 56.574219 Z M 60.523438 61.160156 L 60.527344 61.15625 C 60.398438 62.164062 59.90625 63.085938 59.148438 63.757812 L 66.476562 79.910156 C 67.136719 79.789062 67.820312 79.832031 68.460938 80.042969 L 79.917969 60.167969 L 79.914062 60.164062 C 79.40625 59.730469 79.011719 59.179688 78.761719 58.558594 L 60.527344 61.15625 Z M 59.261719 57.578125 C 59.703125 58 60.050781 58.519531 60.273438 59.09375 L 78.464844 56.5 L 78.472656 56.5 C 78.554688 55.742188 78.847656 55.015625 79.3125 54.410156 L 68.863281 39.457031 L 68.863281 39.460938 C 68.222656 39.75 67.515625 39.867188 66.816406 39.800781 L 59.273438 57.578125 Z M 108.207031 56.46875 L 108.214844 56.46875 C 109.550781 56.34375 110.863281 56.890625 111.71875 57.921875 L 118.859375 54.941406 C 118.777344 54.332031 118.832031 53.707031 119.011719 53.121094 L 100.484375 39.5 Z M 104.761719 59.144531 L 104.769531 59.148438 C 105.0625 58.351562 105.59375 57.664062 106.292969 57.179688 L 98.367188 39.785156 L 98.363281 39.785156 C 97.628906 39.875 96.886719 39.761719 96.210938 39.460938 L 85.761719 54.414062 L 85.765625 54.410156 C 86.226562 55.023438 86.519531 55.746094 86.605469 56.511719 L 104.769531 59.152344 Z M 94.605469 38.167969 C 94.335938 37.800781 94.125 37.394531 93.984375 36.960938 L 71.085938 36.960938 C 70.945312 37.394531 70.734375 37.800781 70.460938 38.167969 L 80.929688 53.144531 C 81.949219 52.703125 83.109375 52.703125 84.132812 53.144531 Z M 94.605469 38.167969 "/>
</g>
</svg>
