<?xml version="1.0" encoding="UTF-8"?>
<svg xmlns="http://www.w3.org/2000/svg" xmlns:xlink="http://www.w3.org/1999/xlink" width="168pt" height="168pt" viewBox="0 0 168 168" version="1.1">
<g id="surface621">
<path style=" stroke:none;fill-rule:evenodd;fill:rgb(61.568627%,29.411765%,93.72549%);fill-opacity:1;" d="M 168 84 C 168 130.390625 130.390625 168 84 168 C 37.609375 168 0 130.390625 0 84 C 0 37.609375 37.609375 0 84 0 C 130.390625 0 168 37.609375 168 84 "/>
<path style=" stroke:none;fill-rule:nonzero;fill:rgb(100%,100%,100%);fill-opacity:1;" d="M 60.21875 40.21875 C 67.359375 40.21875 73.960938 44.03125 77.53125 50.214844 C 81.101562 56.402344 81.101562 64.023438 77.53125 70.207031 C 73.960938 76.394531 67.359375 80.203125 60.21875 80.203125 C 53.074219 80.203125 46.476562 76.394531 42.902344 70.207031 C 39.332031 64.023438 39.332031 56.402344 42.902344 50.214844 C 46.476562 44.03125 53.074219 40.21875 60.21875 40.21875 Z M 80.207031 107.785156 L 80.203125 107.789062 C 80.203125 113.089844 78.097656 118.175781 74.347656 121.925781 C 70.597656 125.671875 65.515625 127.78125 60.210938 127.78125 C 54.910156 127.78125 49.824219 125.671875 46.074219 121.925781 C 42.328125 118.175781 40.21875 113.089844 40.21875 107.789062 C 40.21875 102.484375 42.328125 97.402344 46.074219 93.652344 C 49.824219 89.902344 54.910156 87.796875 60.210938 87.796875 C 67.527344 87.796875 74.542969 84.890625 79.714844 79.71875 C 84.886719 74.546875 87.789062 67.53125 87.789062 60.21875 C 87.789062 54.914062 89.898438 49.832031 93.644531 46.082031 C 97.394531 42.332031 102.480469 40.226562 107.78125 40.226562 C 113.085938 40.226562 118.167969 42.332031 121.917969 46.082031 C 125.667969 49.832031 127.773438 54.914062 127.773438 60.21875 C 127.773438 65.519531 125.667969 70.605469 121.917969 74.355469 C 118.167969 78.101562 113.085938 80.210938 107.78125 80.210938 C 100.46875 80.210938 93.457031 83.117188 88.285156 88.289062 C 83.113281 93.460938 80.210938 100.472656 80.210938 107.789062 Z M 107.785156 127.777344 L 107.78125 127.78125 C 100.640625 127.78125 94.039062 123.96875 90.46875 117.785156 C 86.898438 111.597656 86.898438 103.976562 90.46875 97.792969 C 94.039062 91.605469 100.640625 87.796875 107.78125 87.796875 C 114.925781 87.796875 121.523438 91.605469 125.097656 97.792969 C 128.667969 103.976562 128.667969 111.597656 125.097656 117.785156 C 121.523438 123.96875 114.925781 127.78125 107.78125 127.78125 Z M 107.785156 113.8125 L 107.78125 113.816406 C 111.109375 113.816406 113.808594 111.117188 113.808594 107.789062 C 113.808594 104.460938 111.109375 101.761719 107.78125 101.761719 C 104.453125 101.761719 101.753906 104.460938 101.753906 107.789062 C 101.753906 111.117188 104.453125 113.816406 107.78125 113.816406 Z M 60.21875 113.8125 L 60.21875 113.816406 C 63.546875 113.816406 66.246094 111.117188 66.246094 107.789062 C 66.246094 104.460938 63.546875 101.761719 60.21875 101.761719 C 56.890625 101.761719 54.191406 104.460938 54.191406 107.789062 C 54.191406 111.117188 56.890625 113.816406 60.21875 113.816406 Z M 107.785156 66.238281 L 107.78125 66.238281 C 111.109375 66.238281 113.808594 63.539062 113.808594 60.210938 C 113.808594 56.882812 111.109375 54.183594 107.78125 54.183594 C 104.453125 54.183594 101.753906 56.882812 101.753906 60.210938 C 101.753906 63.539062 104.453125 66.238281 107.78125 66.238281 Z M 60.21875 66.238281 C 63.546875 66.238281 66.246094 63.539062 66.246094 60.210938 C 66.246094 56.882812 63.546875 54.183594 60.21875 54.183594 C 56.890625 54.183594 54.191406 56.882812 54.191406 60.210938 C 54.191406 63.539062 56.890625 66.238281 60.21875 66.238281 Z M 60.21875 66.238281 "/>
</g>
</svg>
