<?xml version="1.0" encoding="UTF-8"?>
<svg xmlns="http://www.w3.org/2000/svg" xmlns:xlink="http://www.w3.org/1999/xlink" width="168pt" height="168pt" viewBox="0 0 168 168" version="1.1">
<g id="surface426">
<path style=" stroke:none;fill-rule:nonzero;fill:rgb(0%,0%,0%);fill-opacity:1;" d="M 168 84 C 168 130.390625 130.390625 168 84 168 C 37.609375 168 0 130.390625 0 84 C 0 37.609375 37.609375 0 84 0 C 130.390625 0 168 37.609375 168 84 "/>
<path style=" stroke:none;fill-rule:nonzero;fill:rgb(100%,100%,100%);fill-opacity:1;" d="M 65.507812 33.785156 L 65.507812 136.042969 L 47.25 136.042969 L 47.25 31.5 L 65.507812 31.5 Z M 78.523438 31.5 L 88.792969 31.5 C 110.023438 31.5 124.179688 44.964844 124.179688 64.140625 C 124.179688 79.664062 115.726562 91.535156 100.433594 95.414062 L 127.140625 136.042969 L 105.683594 136.042969 L 69.164062 79.433594 L 86.742188 79.433594 C 98.382812 79.433594 105.683594 74.183594 105.683594 63.914062 C 105.683594 53.640625 98.386719 48.390625 86.742188 48.390625 L 78.75 48.390625 L 78.75 31.5 Z M 78.523438 31.5 "/>
</g>
</svg>
