<?xml version="1.0" encoding="UTF-8"?>
<svg xmlns="http://www.w3.org/2000/svg" xmlns:xlink="http://www.w3.org/1999/xlink" width="168pt" height="168pt" viewBox="0 0 168 168" version="1.1">
<g id="surface721">
<path style=" stroke:none;fill-rule:nonzero;fill:rgb(42.352941%,27.058824%,86.27451%);fill-opacity:1;" d="M 168 84 C 168 130.390625 130.390625 168 84 168 C 37.609375 168 0 130.390625 0 84 C 0 37.609375 37.609375 0 84 0 C 130.390625 0 168 37.609375 168 84 "/>
<path style=" stroke:none;fill-rule:nonzero;fill:rgb(100%,100%,100%);fill-opacity:1;" d="M 128.652344 69.59375 L 128.652344 109.878906 L 83.984375 135.746094 L 39.296875 109.878906 L 39.296875 58.144531 L 84 32.234375 L 118.328125 52.132812 L 123.515625 49.140625 L 84 26.25 L 34.125 55.125 L 34.125 112.875 L 84 141.75 L 133.875 112.875 L 133.875 66.601562 Z M 128.652344 69.59375 "/>
<path style=" stroke:none;fill-rule:nonzero;fill:rgb(100%,100%,100%);fill-opacity:1;" d="M 71.488281 109.914062 L 64.023438 109.914062 L 64.023438 84.765625 L 88.933594 84.765625 C 91.296875 84.746094 93.554688 83.785156 95.207031 82.097656 C 96.871094 80.417969 97.789062 78.144531 97.8125 75.78125 L 97.8125 75.785156 C 97.828125 73.421875 96.878906 71.15625 95.1875 69.503906 C 94.371094 68.675781 93.402344 68.015625 92.332031 67.5625 C 91.257812 67.105469 90.101562 66.875 88.933594 66.890625 L 64.023438 66.890625 L 64.023438 59.242188 L 88.949219 59.242188 C 93.308594 59.261719 97.507812 61.027344 100.574219 64.113281 C 103.671875 67.210938 105.402344 71.398438 105.441406 75.785156 C 105.460938 79.128906 104.445312 82.402344 102.527344 85.144531 C 100.757812 87.757812 98.265625 89.816406 95.351562 91.046875 C 92.46875 91.960938 89.464844 92.414062 86.441406 92.394531 L 71.488281 92.394531 Z M 105.261719 109.277344 L 96.546875 109.277344 L 89.820312 97.515625 L 89.820312 97.519531 C 92.480469 97.355469 95.105469 96.8125 97.613281 95.914062 L 105.257812 109.28125 Z M 123.441406 61.222656 L 128.597656 64.089844 L 133.742188 61.222656 L 133.742188 55.144531 L 128.597656 52.152344 L 123.441406 55.144531 Z M 123.441406 61.222656 "/>
</g>
</svg>
