<?xml version="1.0" encoding="UTF-8"?>
<svg xmlns="http://www.w3.org/2000/svg" xmlns:xlink="http://www.w3.org/1999/xlink" width="168pt" height="168pt" viewBox="0 0 168 168" version="1.1">
<g id="surface1711">
<path style=" stroke:none;fill-rule:evenodd;fill:rgb(20.784314%,33.333333%,97.647059%);fill-opacity:1;" d="M 168 84 C 168 130.390625 130.390625 168 84 168 C 37.609375 168 0 130.390625 0 84 C 0 37.609375 37.609375 0 84 0 C 130.390625 0 168 37.609375 168 84 "/>
<path style=" stroke:none;fill-rule:nonzero;fill:rgb(100%,100%,100%);fill-opacity:1;" d="M 75.390625 34.792969 C 79.851562 33.964844 84.421875 34.058594 88.9375 34.285156 C 94.144531 34.894531 99.363281 35.984375 104.152344 38.136719 L 104.148438 38.136719 C 113.710938 42.132812 121.816406 48.96875 127.371094 57.71875 C 129.433594 60.726562 130.820312 64.097656 132.210938 67.441406 C 133.503906 65.382812 134.65625 63.242188 135.78125 61.089844 C 136.265625 60.078125 137.277344 59.292969 138.457031 59.347656 C 140.089844 59.21875 141.535156 60.398438 141.734375 62.023438 C 141.867188 63.285156 141.074219 64.371094 140.554688 65.460938 C 138.917969 68.769531 136.800781 71.824219 134.613281 74.804688 C 134.210938 75.234375 134.378906 75.832031 134.425781 76.359375 C 136.863281 90.730469 132.226562 106.023438 122.351562 116.847656 L 122.347656 116.847656 C 116.652344 123.175781 109.480469 127.992188 101.464844 130.867188 C 92.234375 134.097656 82.070312 134.824219 72.527344 132.566406 C 58.6875 129.570312 46.445312 120.445312 39.484375 108.335938 C 37.960938 105.882812 36.992188 103.160156 35.789062 100.554688 C 34.476562 102.574219 33.363281 104.703125 32.246094 106.824219 L 32.246094 106.828125 C 31.710938 107.894531 30.652344 108.601562 29.457031 108.683594 C 27.457031 108.683594 25.640625 106.53125 26.445312 104.613281 C 28.167969 100.65625 30.523438 96.992188 33.164062 93.566406 C 33.730469 92.972656 33.652344 92.132812 33.546875 91.394531 L 33.546875 91.398438 C 32.566406 85.078125 32.851562 78.628906 34.386719 72.421875 C 38.429688 54.972656 52.917969 40.398438 70.480469 35.855469 C 72.109375 35.472656 73.734375 35.066406 75.390625 34.789062 Z M 62.988281 45.34375 C 53.679688 50.238281 46.1875 58.421875 42.304688 68.085938 C 40.058594 73.925781 38.914062 80.203125 39.257812 86.449219 L 39.257812 86.453125 C 40.246094 85.710938 41.183594 84.914062 42.074219 84.058594 C 47.296875 79.398438 53.414062 75.785156 59.808594 72.90625 C 71.6875 67.503906 84.773438 65.179688 97.769531 64.546875 C 93.375 59.988281 88.609375 55.785156 84.214844 51.226562 C 85.601562 49.703125 87.101562 48.296875 88.605469 46.890625 C 90.3125 48.433594 91.886719 50.109375 93.554688 51.6875 C 98.960938 57.070312 104.53125 62.292969 109.851562 67.746094 C 104.179688 73.398438 98.363281 78.914062 92.695312 84.566406 L 92.695312 84.570312 C 92.214844 85.023438 91.714844 85.445312 91.191406 85.84375 C 89.761719 84.40625 88.105469 83.144531 86.960938 81.460938 C 90.445312 77.808594 94.414062 74.605469 97.761719 70.820312 C 91.765625 70.90625 85.800781 71.753906 79.933594 72.921875 C 75.191406 73.765625 70.636719 75.367188 66.085938 76.894531 C 56.550781 80.464844 47.757812 86.15625 41.054688 93.769531 C 40.65625 94.164062 40.714844 94.746094 40.820312 95.238281 C 41.613281 98.640625 43.109375 101.820312 44.746094 104.898438 C 50.152344 114.648438 59.5 122.179688 70.234375 125.582031 C 76.511719 127.515625 83.210938 128.257812 89.742188 127.351562 L 89.738281 127.347656 C 98.867188 126.203125 107.429688 122.292969 114.273438 116.140625 C 124.066406 107.507812 129.554688 94.359375 128.710938 81.449219 C 127.675781 82.253906 126.753906 83.164062 125.785156 84.039062 L 125.785156 84.035156 C 119.21875 89.6875 111.664062 94.074219 103.503906 96.984375 C 92.898438 100.921875 81.601562 102.957031 70.289062 103.277344 C 71.277344 104.570312 72.492188 105.648438 73.644531 106.800781 C 77.03125 110.097656 80.371094 113.4375 83.808594 116.679688 C 82.484375 118.238281 80.941406 119.597656 79.484375 121.027344 C 78.019531 119.835938 76.753906 118.449219 75.390625 117.140625 C 70.277344 112.183594 65.214844 107.164062 60.113281 102.1875 L 60.105469 102.191406 C 59.402344 101.546875 58.75 100.847656 58.164062 100.089844 C 60.375 97.71875 62.914062 95.667969 65.179688 93.347656 C 69.066406 89.59375 72.84375 85.730469 76.777344 82.023438 C 78.246094 83.453125 79.789062 84.816406 81.097656 86.398438 C 77.601562 90.019531 73.878906 93.429688 70.335938 97.003906 C 74.222656 97.199219 78.054688 96.53125 81.90625 96.164062 C 84.6875 95.871094 87.425781 95.238281 90.167969 94.667969 C 104.265625 91.414062 117.992188 84.71875 127.453125 73.6875 C 123.832031 58.023438 110.511719 45.128906 94.660156 41.484375 C 84.101562 38.800781 72.589844 40.328125 62.988281 45.34375 Z M 62.988281 45.34375 "/>
</g>
</svg>
