<?xml version="1.0" encoding="UTF-8"?>
<svg xmlns="http://www.w3.org/2000/svg" xmlns:xlink="http://www.w3.org/1999/xlink" width="168pt" height="168pt" viewBox="0 0 168 168" version="1.1">
<g id="surface511">
<path style=" stroke:none;fill-rule:evenodd;fill:rgb(89.019608%,2.352941%,7.45098%);fill-opacity:1;" d="M 168 84 C 168 130.390625 130.390625 168 84 168 C 37.609375 168 0 130.390625 0 84 C 0 37.609375 37.609375 0 84 0 C 130.390625 0 168 37.609375 168 84 "/>
<path style=" stroke:none;fill-rule:evenodd;fill:rgb(100%,100%,100%);fill-opacity:0.75;" d="M 80.644531 141.75 C 50.609375 141.75 26.25 117.636719 26.25 87.894531 C 26.25 58.152344 50.605469 34.039062 80.644531 34.039062 C 110.691406 34.039062 135.046875 58.152344 135.046875 87.894531 C 135.046875 117.636719 110.6875 141.75 80.640625 141.75 Z M 90.039062 49.472656 C 102.722656 54.664062 111.835938 64.433594 118.304688 77.601562 L 123.1875 74.203125 C 117.707031 61.015625 107.578125 50.652344 91.289062 43.929688 L 90.039062 49.46875 Z M 90.039062 49.472656 "/>
<path style=" stroke:none;fill-rule:nonzero;fill:rgb(100%,100%,100%);fill-opacity:1;" d="M 141.707031 48.933594 C 141.707031 36.410156 131.445312 26.25 118.792969 26.25 C 106.140625 26.25 95.875 36.410156 95.875 48.933594 C 95.875 50.128906 95.96875 51.324219 96.160156 52.503906 C 103.789062 56.945312 109.914062 63.320312 114.8125 71.277344 C 116.125 71.503906 117.457031 71.625 118.792969 71.625 C 131.445312 71.625 141.710938 61.464844 141.710938 48.933594 Z M 141.707031 48.933594 "/>
</g>
</svg>
