<?xml version="1.0" encoding="UTF-8"?>
<svg xmlns="http://www.w3.org/2000/svg" xmlns:xlink="http://www.w3.org/1999/xlink" width="168pt" height="168pt" viewBox="0 0 168 168" version="1.1">
<g id="surface1301">
<path style=" stroke:none;fill-rule:nonzero;fill:rgb(16.470588%,16.470588%,16.470588%);fill-opacity:1;" d="M 168 84 C 168 130.390625 130.390625 168 84 168 C 37.609375 168 0 130.390625 0 84 C 0 37.609375 37.609375 0 84 0 C 130.390625 0 168 37.609375 168 84 "/>
<path style=" stroke:none;fill-rule:nonzero;fill:rgb(100%,100%,100%);fill-opacity:1;" d="M 52.5 31.53125 L 95.082031 31.53125 C 95.597656 31.375 95.859375 31.847656 96.195312 32.109375 C 100.210938 35.898438 103.808594 40.105469 106.9375 44.65625 C 111.378906 51.019531 114.867188 58 117.289062 65.371094 C 119.820312 73.160156 121.015625 81.40625 120.703125 89.59375 L 98.996094 89.59375 L 98.992188 89.597656 C 99.101562 88.507812 99.140625 87.414062 99.109375 86.320312 C 98.882812 78.597656 96.5 71.023438 92.746094 64.3125 C 88.730469 57.125 83.121094 50.925781 76.75 45.773438 C 69.808594 40.160156 61.996094 35.730469 53.859375 32.148438 C 53.40625 31.9375 52.933594 31.769531 52.5 31.527344 Z M 68.261719 69.996094 L 68.261719 70 C 75.542969 83.175781 82.816406 96.355469 90.074219 109.546875 C 91.824219 112.726562 93.589844 115.898438 95.324219 119.085938 C 86.289062 124.871094 77.28125 130.710938 68.25 136.5 L 68.25 70 Z M 68.261719 69.996094 "/>
</g>
</svg>
