<?xml version="1.0" encoding="UTF-8"?>
<svg xmlns="http://www.w3.org/2000/svg" xmlns:xlink="http://www.w3.org/1999/xlink" width="168pt" height="168pt" viewBox="0 0 168 168" version="1.1">
<g id="surface1984">
<path style=" stroke:none;fill-rule:nonzero;fill:rgb(3.137255%,3.137255%,9.019608%);fill-opacity:1;" d="M 168 84 C 168 130.390625 130.390625 168 84 168 C 37.609375 168 0 130.390625 0 84 C 0 37.609375 37.609375 0 84 0 C 130.390625 0 168 37.609375 168 84 "/>
<path style=" stroke:none;fill-rule:nonzero;fill:rgb(100%,100%,100%);fill-opacity:1;" d="M 49.558594 51.207031 L 57.769531 46.476562 L 58.933594 48.382812 L 89.382812 30.796875 L 87.140625 29.46875 L 84.894531 28.230469 L 83.816406 27.5625 L 34.125 56.273438 L 34.125 57.511719 L 48.394531 49.296875 Z M 49.558594 69.289062 L 73.445312 55.519531 L 74.523438 57.4375 L 105.0625 39.839844 L 102.824219 38.511719 L 100.582031 37.273438 L 99.496094 36.605469 L 34.125 74.265625 L 34.125 75.59375 L 48.394531 67.382812 Z M 49.558594 78.328125 L 81.246094 60.003906 L 82.324219 61.910156 L 112.863281 44.324219 L 110.625 43.074219 L 108.367188 41.742188 L 107.296875 41.082031 L 34.125 83.316406 L 34.125 84.628906 L 48.394531 76.34375 Z M 49.558594 87.296875 L 89.289062 64.390625 L 90.382812 66.3125 L 120.664062 48.804688 L 118.410156 47.550781 L 116.171875 46.238281 L 115.09375 45.644531 L 34.125 92.363281 L 34.125 93.601562 L 48.394531 85.390625 Z M 49.558594 96.335938 L 97.09375 68.878906 L 98.179688 70.875 L 128.46875 53.371094 L 126.210938 52.039062 L 124.070312 50.789062 L 122.90625 50.132812 L 34.125 101.402344 L 34.125 102.640625 L 48.394531 94.429688 Z M 131.851562 55.277344 L 130.695312 54.609375 L 34.125 110.445312 L 34.125 111.683594 L 48.394531 103.472656 L 49.558594 105.378906 L 97.09375 77.921875 L 98.179688 79.832031 L 133.511719 59.507812 L 133.511719 56.273438 Z M 40.265625 117.167969 L 48.230469 112.601562 L 49.390625 114.511719 L 96.851562 87.054688 L 98.007812 89.035156 L 133.519531 68.460938 L 133.519531 62.078125 L 39.191406 116.507812 Z M 96.851562 96.09375 L 98.007812 98.089844 L 133.519531 77.511719 L 133.519531 71.121094 L 46.988281 121.066406 L 48.058594 121.734375 L 56.195312 117.003906 L 57.34375 118.910156 M 55.863281 126.214844 L 64.074219 121.488281 L 65.144531 123.484375 L 96.855469 105.140625 L 98 107.046875 L 133.515625 86.5625 L 133.515625 80.09375 L 54.777344 125.554688 Z M 63.742188 130.691406 L 71.875 126.050781 L 72.945312 127.957031 L 96.847656 114.179688 L 98.003906 116.085938 L 133.515625 95.601562 L 133.515625 89.128906 L 62.578125 130.109375 Z M 70.378906 134.59375 L 71.539062 135.261719 L 79.675781 130.527344 L 80.746094 132.523438 L 96.847656 123.230469 L 98.003906 125.148438 L 133.515625 104.648438 L 133.519531 98.175781 Z M 79.339844 139.734375 L 87.476562 135.09375 L 88.625 137 L 96.847656 132.191406 L 98.003906 134.1875 L 133.515625 113.6875 L 133.515625 107.21875 L 78.253906 139.164062 Z M 97.257812 35.28125 L 95.019531 34.042969 L 92.777344 32.710938 L 91.617188 32.050781 L 34.125 65.308594 L 34.125 66.546875 L 48.394531 58.335938 L 49.558594 60.242188 L 65.644531 50.960938 L 66.738281 52.867188 Z M 97.257812 35.28125 "/>
</g>
</svg>
