<?xml version="1.0" encoding="UTF-8"?>
<svg xmlns="http://www.w3.org/2000/svg" xmlns:xlink="http://www.w3.org/1999/xlink" width="168pt" height="168pt" viewBox="0 0 168 168" version="1.1">
<g id="surface1426">
<path style=" stroke:none;fill-rule:evenodd;fill:rgb(37.647059%,16.470588%,32.156863%);fill-opacity:1;" d="M 168 84 C 168 130.390625 130.390625 168 84 168 C 37.609375 168 0 130.390625 0 84 C 0 37.609375 37.609375 0 84 0 C 130.390625 0 168 37.609375 168 84 "/>
<path style=" stroke:none;fill-rule:evenodd;fill:rgb(100%,100%,100%);fill-opacity:1;" d="M 108.054688 85.636719 C 106.59375 81.5625 103.988281 77.996094 100.546875 75.367188 L 100.511719 75.324219 L 100.511719 75.328125 C 100.148438 75.050781 99.773438 74.785156 99.394531 74.535156 L 99.320312 74.484375 L 99.320312 74.480469 C 98.945312 74.234375 98.5625 74 98.175781 73.773438 L 98.070312 73.710938 C 97.691406 73.488281 97.300781 73.289062 96.898438 73.105469 L 96.78125 73.042969 L 96.785156 73.042969 C 96.375 72.851562 95.960938 72.667969 95.542969 72.492188 L 95.40625 72.441406 L 95.410156 72.441406 C 94.058594 71.878906 92.660156 71.449219 91.230469 71.160156 C 90.40625 72.652344 89.34375 74.007812 88.089844 75.164062 C 91.035156 75.398438 93.882812 76.339844 96.390625 77.910156 L 96.53125 77.996094 L 97.222656 78.46875 L 97.539062 78.6875 C 97.75 78.84375 97.941406 79.003906 98.160156 79.160156 L 98.511719 79.445312 C 98.699219 79.601562 98.875 79.761719 99.050781 79.921875 L 99.40625 80.261719 L 99.894531 80.753906 L 100.25 81.136719 L 100.6875 81.644531 L 101.027344 82.070312 L 101.421875 82.59375 C 101.554688 82.765625 101.640625 82.902344 101.746094 83.054688 C 101.851562 83.207031 101.988281 83.40625 102.097656 83.589844 L 102.402344 84.09375 C 102.496094 84.261719 102.613281 84.449219 102.707031 84.628906 C 102.8125 84.800781 102.894531 84.996094 102.992188 85.183594 C 103.082031 85.371094 103.171875 85.53125 103.25 85.707031 L 103.25 85.714844 C 103.351562 85.949219 103.445312 86.183594 103.535156 86.421875 C 104.035156 87.664062 104.386719 88.960938 104.585938 90.285156 L 105.15625 92.40625 C 105.398438 93.289062 107.628906 101.101562 112.800781 103.730469 C 118.726562 106.769531 126.578125 110.523438 129.664062 112.007812 L 88.890625 135.949219 L 88.894531 119.542969 C 88.894531 116.953125 94.144531 113.925781 96.574219 112.859375 L 96.714844 112.78125 C 97.214844 112.535156 97.710938 112.265625 98.183594 111.984375 L 98.386719 111.878906 L 98.390625 111.878906 C 99.441406 111.242188 100.441406 110.53125 101.382812 109.742188 L 101.636719 109.515625 L 101.925781 109.257812 L 101.921875 109.257812 C 102.21875 108.992188 102.507812 108.71875 102.789062 108.4375 L 102.9375 108.296875 C 103.246094 107.988281 103.558594 107.691406 103.828125 107.332031 L 104.085938 107.039062 C 104.316406 106.765625 104.539062 106.488281 104.753906 106.203125 L 104.941406 105.96875 C 105.203125 105.621094 105.445312 105.265625 105.6875 104.902344 L 105.773438 104.796875 C 106.097656 104.289062 106.386719 103.777344 106.691406 103.25 L 106.691406 103.246094 C 105.546875 101.867188 104.566406 100.359375 103.773438 98.753906 C 103.449219 99.664062 103.039062 100.542969 102.566406 101.390625 C 102.367188 101.757812 102.15625 102.113281 101.945312 102.460938 L 101.851562 102.601562 C 101.652344 102.894531 101.445312 103.183594 101.230469 103.46875 L 101.042969 103.710938 L 101.042969 103.707031 C 100.828125 103.984375 100.601562 104.253906 100.371094 104.511719 L 100.246094 104.660156 L 100.242188 104.660156 C 98.722656 106.316406 96.910156 107.679688 94.894531 108.675781 L 94.511719 108.871094 C 93.476562 109.328125 84.363281 113.371094 84.363281 119.519531 L 84.363281 135.929688 L 43.464844 111.949219 C 46.09375 110.34375 53.78125 105.871094 60.101562 103.902344 C 62.574219 103.144531 67.824219 106.386719 70.800781 108.765625 L 70.980469 108.921875 C 71.375 109.289062 71.789062 109.640625 72.21875 109.972656 L 72.367188 110.105469 C 73.3125 110.863281 74.320312 111.539062 75.375 112.136719 L 76.082031 112.519531 L 76.222656 112.59375 C 76.910156 112.941406 77.613281 113.253906 78.332031 113.535156 L 78.648438 113.65625 L 78.859375 113.742188 C 79.894531 114.121094 80.960938 114.414062 82.035156 114.632812 L 82.035156 114.625 C 82.882812 113.109375 83.976562 111.746094 85.269531 110.589844 C 83.546875 110.464844 81.847656 110.09375 80.226562 109.488281 L 79.949219 109.382812 L 79.414062 109.167969 L 79.140625 109.050781 L 78.621094 108.808594 L 78.617188 108.8125 C 77.414062 108.226562 76.28125 107.511719 75.234375 106.679688 L 73.605469 105.230469 C 72.109375 103.945312 70.492188 102.808594 68.773438 101.839844 C 64.730469 99.582031 61.351562 98.847656 58.757812 99.644531 C 53.351562 101.3125 47.261719 104.558594 43.542969 106.699219 L 84.378906 34.683594 L 84.378906 66.21875 C 84.378906 67.335938 82.699219 70.257812 77.085938 72.734375 L 76.699219 72.945312 C 76.152344 73.207031 75.621094 73.492188 75.101562 73.796875 L 74.996094 73.847656 L 74.996094 73.851562 C 73.269531 74.871094 71.683594 76.113281 70.28125 77.546875 L 70.230469 77.597656 L 70.230469 77.601562 C 69.699219 78.148438 69.195312 78.71875 68.722656 79.316406 L 68.664062 79.394531 C 68.4375 79.6875 68.214844 79.984375 67.996094 80.28125 L 67.921875 80.386719 L 67.925781 80.386719 C 67.730469 80.671875 67.539062 80.957031 67.359375 81.25 L 67.296875 81.339844 L 67.292969 81.339844 C 67.109375 81.636719 66.933594 81.9375 66.765625 82.246094 L 66.644531 82.460938 C 66.492188 82.753906 66.339844 83.070312 66.1875 83.34375 L 66.121094 83.484375 L 66.117188 83.484375 C 65.984375 83.761719 65.855469 84.042969 65.734375 84.324219 L 65.601562 84.640625 C 65.480469 84.933594 65.371094 85.25 65.261719 85.53125 L 65.15625 85.847656 C 65.078125 86.074219 65.003906 86.300781 64.9375 86.53125 C 64.902344 86.65625 64.859375 86.777344 64.828125 86.910156 C 64.527344 87.960938 64.304688 89.039062 64.171875 90.125 L 64.121094 90.613281 L 64.117188 90.613281 C 64.09375 90.835938 64.074219 91.058594 64.058594 91.28125 C 64.046875 91.507812 64.058594 91.726562 64.023438 91.949219 C 63.988281 92.175781 64.023438 92.222656 64.023438 92.371094 L 64.023438 92.871094 C 64.023438 93.972656 64.109375 95.074219 64.277344 96.171875 L 64.277344 96.167969 C 66.035156 96.597656 67.738281 97.234375 69.347656 98.058594 C 68.851562 96.472656 68.585938 94.828125 68.558594 93.167969 L 68.558594 92.867188 C 68.558594 92.46875 68.558594 92.074219 68.605469 91.65625 L 68.605469 91.339844 C 68.605469 91 68.671875 90.652344 68.722656 90.3125 L 68.722656 90.164062 C 68.777344 89.785156 68.851562 89.40625 68.941406 89.035156 L 69.003906 88.746094 C 69.082031 88.429688 69.160156 88.125 69.261719 87.816406 L 69.324219 87.617188 C 69.429688 87.253906 69.558594 86.902344 69.695312 86.550781 L 69.800781 86.316406 C 69.917969 86.027344 70.042969 85.738281 70.171875 85.449219 L 70.273438 85.230469 C 70.4375 84.890625 70.613281 84.558594 70.796875 84.226562 L 70.898438 84.0625 L 70.902344 84.0625 C 71.066406 83.777344 71.238281 83.5 71.421875 83.222656 L 71.554688 83.027344 C 71.769531 82.710938 71.992188 82.417969 72.226562 82.09375 L 72.269531 82.042969 C 72.496094 81.753906 72.730469 81.476562 72.972656 81.203125 L 73.105469 81.046875 C 74.214844 79.828125 75.484375 78.761719 76.886719 77.882812 L 78.820312 76.992188 C 79.855469 76.535156 88.925781 72.382812 88.925781 66.230469 L 88.917969 34.6875 L 130.074219 107.242188 C 126.398438 105.472656 119.941406 102.347656 114.902344 99.789062 C 112.023438 98.320312 110.0625 93.136719 109.558594 91.277344 L 109.003906 89.097656 L 109 89.097656 C 108.792969 87.929688 108.492188 86.777344 108.097656 85.660156 L 108.054688 85.640625 Z M 135.933594 108.472656 L 90.574219 28.535156 L 90.574219 28.539062 C 89.757812 27.117188 88.238281 26.242188 86.597656 26.25 C 84.960938 26.246094 83.449219 27.117188 82.636719 28.539062 L 37.328125 108.480469 C 36.140625 110.578125 36.867188 113.242188 38.953125 114.445312 L 84.296875 141.117188 L 84.300781 141.113281 C 85.738281 141.957031 87.519531 141.957031 88.960938 141.113281 L 134.300781 114.464844 C 136.386719 113.265625 137.117188 110.605469 135.933594 108.507812 L 135.945312 108.476562 Z M 135.933594 108.472656 "/>
</g>
</svg>
