<?xml version="1.0" encoding="UTF-8"?>
<svg xmlns="http://www.w3.org/2000/svg" xmlns:xlink="http://www.w3.org/1999/xlink" width="168pt" height="168pt" viewBox="0 0 168 168" version="1.1">
<g id="surface126">
<path style=" stroke:none;fill-rule:nonzero;fill:rgb(5.490196%,5.490196%,12.941176%);fill-opacity:1;" d="M 168 84 C 168 130.390625 130.390625 168 84 168 C 37.609375 168 0 130.390625 0 84 C 0 37.609375 37.609375 0 84 0 C 130.390625 0 168 37.609375 168 84 "/>
<path style=" stroke:none;fill-rule:evenodd;fill:rgb(100%,100%,100%);fill-opacity:1;" d="M 60.636719 80.035156 L 54.125 75.808594 L 54.128906 75.808594 C 53.539062 75.425781 53.355469 74.644531 53.710938 74.039062 L 78.828125 31.457031 C 79.289062 30.675781 80.125 30.191406 81.035156 30.1875 L 86.960938 30.1875 C 87.867188 30.191406 88.707031 30.675781 89.164062 31.457031 L 114.28125 74.039062 C 114.640625 74.644531 114.457031 75.425781 113.867188 75.808594 L 107.355469 80.035156 C 107.0625 80.222656 106.707031 80.28125 106.371094 80.199219 C 106.035156 80.121094 105.742188 79.90625 105.566406 79.605469 L 84.550781 43.980469 C 84.4375 43.785156 84.226562 43.664062 84 43.664062 C 83.773438 43.664062 83.5625 43.785156 83.449219 43.980469 L 62.433594 79.605469 C 62.257812 79.90625 61.964844 80.125 61.628906 80.207031 C 61.289062 80.285156 60.929688 80.226562 60.636719 80.035156 Z M 120.890625 85.257812 L 130.886719 102.203125 L 130.886719 102.207031 C 131.597656 103.414062 131.238281 104.96875 130.074219 105.746094 L 85.398438 134.777344 C 84.550781 135.332031 83.460938 135.332031 82.613281 134.777344 L 37.9375 105.746094 C 36.761719 104.976562 36.398438 103.414062 37.117188 102.207031 L 47.113281 85.261719 C 47.289062 84.957031 47.578125 84.742188 47.917969 84.660156 C 48.257812 84.578125 48.617188 84.640625 48.910156 84.828125 L 55.414062 89.054688 C 56.003906 89.4375 56.1875 90.21875 55.828125 90.824219 L 50.117188 100.511719 C 49.945312 100.816406 50.035156 101.199219 50.328125 101.394531 L 83.65625 123.050781 C 83.867188 123.191406 84.128906 123.191406 84.34375 123.050781 L 117.679688 101.394531 C 117.972656 101.203125 118.066406 100.8125 117.890625 100.511719 L 112.175781 90.824219 C 111.820312 90.21875 112 89.4375 112.589844 89.054688 L 119.101562 84.828125 C 119.394531 84.640625 119.75 84.582031 120.089844 84.664062 C 120.425781 84.746094 120.714844 84.960938 120.890625 85.261719 Z M 120.890625 85.257812 "/>
</g>
</svg>
