<?xml version="1.0" encoding="UTF-8"?>
<svg xmlns="http://www.w3.org/2000/svg" xmlns:xlink="http://www.w3.org/1999/xlink" width="168pt" height="168pt" viewBox="0 0 168 168" version="1.1">
<g id="surface1506">
<path style=" stroke:none;fill-rule:nonzero;fill:rgb(0%,90.196078%,62.745098%);fill-opacity:1;" d="M 168 84 C 168 130.390625 130.390625 168 84 168 C 37.609375 168 0 130.390625 0 84 C 0 37.609375 37.609375 0 84 0 C 130.390625 0 168 37.609375 168 84 "/>
<path style=" stroke:none;fill-rule:nonzero;fill:rgb(100%,100%,100%);fill-opacity:1;" d="M 121.132812 39.375 C 122.070312 39.355469 122.976562 39.71875 123.636719 40.382812 L 123.605469 40.351562 C 124.125 40.867188 124.464844 41.539062 124.570312 42.261719 L 124.617188 42.808594 L 124.582031 60.746094 C 124.582031 63.101562 123.648438 65.367188 121.976562 67.03125 L 99.714844 89.222656 L 123.535156 112.96875 L 123.539062 112.96875 C 125.230469 114.625 126.191406 116.882812 126.207031 119.25 C 126.222656 121.617188 125.292969 123.890625 123.625 125.566406 C 121.957031 127.242188 119.6875 128.183594 117.320312 128.179688 C 114.953125 128.171875 112.6875 127.222656 111.027344 125.539062 L 80.917969 95.523438 C 79.242188 93.863281 78.296875 91.597656 78.296875 89.238281 C 78.296875 86.875 79.242188 84.613281 80.917969 82.949219 L 107.285156 56.636719 L 62.671875 56.636719 L 62.671875 119.054688 L 62.667969 119.054688 C 62.710938 121.457031 61.773438 123.777344 60.070312 125.476562 C 58.371094 127.175781 56.054688 128.113281 53.648438 128.074219 L 52.757812 128.042969 C 48.109375 127.636719 44.5625 123.71875 44.625 119.054688 L 44.625 49.070312 C 44.625 43.472656 48.628906 39.375 54.054688 39.375 Z M 121.132812 39.375 "/>
</g>
</svg>
