<?xml version="1.0" encoding="UTF-8"?>
<svg xmlns="http://www.w3.org/2000/svg" xmlns:xlink="http://www.w3.org/1999/xlink" width="168pt" height="168pt" viewBox="0 0 168 168" version="1.1">
<g id="surface2227">
<path style=" stroke:none;fill-rule:nonzero;fill:rgb(80%,11.764706%,27.45098%);fill-opacity:1;" d="M 168 84 C 168 130.390625 130.390625 168 84 168 C 37.609375 168 0 130.390625 0 84 C 0 37.609375 37.609375 0 84 0 C 130.390625 0 168 37.609375 168 84 "/>
<path style=" stroke:none;fill-rule:nonzero;fill:rgb(100%,100%,100%);fill-opacity:1;" d="M 62.035156 48.511719 C 70.820312 41.90625 81.285156 37.90625 92.238281 36.960938 C 93.351562 36.734375 94.558594 37.4375 94.523438 38.667969 C 94.628906 41.609375 94.554688 44.546875 94.554688 47.488281 C 94.628906 48.402344 94.144531 49.589844 93.09375 49.613281 C 83.402344 50.683594 74.195312 54.644531 66.191406 60.113281 C 65.433594 60.539062 65.601562 61.519531 65.667969 62.234375 C 66.222656 67.390625 65.847656 72.582031 66 77.753906 C 92.113281 77.828125 118.238281 77.742188 144.363281 77.796875 C 145.609375 77.691406 146.921875 78.402344 146.820312 79.792969 C 146.953125 88.585938 146.847656 97.378906 146.871094 106.167969 C 146.890625 110.945312 145.875 115.890625 142.980469 119.796875 C 138.414062 125.933594 130.378906 129.613281 122.746094 128.261719 C 117.339844 127.453125 112.667969 124.097656 109.390625 119.839844 L 109.390625 119.835938 C 100.472656 126.542969 89.832031 130.578125 78.707031 131.464844 C 77.578125 131.480469 76.734375 130.371094 76.90625 129.292969 C 76.941406 126.214844 76.84375 123.128906 76.957031 120.054688 C 77.21875 118.425781 79.226562 118.742188 80.417969 118.472656 C 89.574219 117.042969 98.332031 113.207031 105.808594 107.761719 C 105.421875 102.050781 105.289062 96.324219 105.402344 90.597656 C 79.195312 90.429688 52.976562 90.585938 26.769531 90.511719 C 25.613281 90.644531 24.5 89.777344 24.613281 88.554688 C 24.59375 79.300781 24.597656 70.039062 24.625 60.78125 C 24.675781 55.941406 26.207031 51.046875 29.414062 47.355469 C 33.640625 42.546875 40.015625 39.476562 46.480469 39.851562 C 52.675781 40.097656 58.359375 43.621094 62.035156 48.503906 Z M 35.175781 62.378906 C 35.164062 67.800781 35.160156 73.230469 35.1875 78.664062 C 41.664062 78.660156 48.132812 78.753906 54.605469 78.613281 C 54.617188 73.320312 54.683594 68.035156 54.574219 62.742188 C 54.472656 57.671875 49.890625 53.1875 44.796875 53.292969 C 39.824219 53.089844 35.292969 57.441406 35.171875 62.375 Z M 117.648438 90.152344 C 117.597656 95.308594 117.636719 100.46875 117.617188 105.625 C 117.585938 107.6875 118.210938 109.703125 119.402344 111.382812 C 121.890625 114.9375 126.847656 116.492188 130.898438 114.921875 C 134.640625 113.535156 137.113281 109.621094 137.074219 105.683594 C 137.074219 100.507812 137.101562 95.339844 137.054688 90.164062 C 130.585938 90.113281 124.117188 90.136719 117.652344 90.148438 Z M 117.648438 90.152344 "/>
</g>
</svg>
