<?xml version="1.0" encoding="UTF-8"?>
<svg xmlns="http://www.w3.org/2000/svg" xmlns:xlink="http://www.w3.org/1999/xlink" width="168pt" height="168pt" viewBox="0 0 168 168" version="1.1">
<g id="surface2257">
<path style=" stroke:none;fill-rule:evenodd;fill:rgb(37.647059%,89.411765%,86.666667%);fill-opacity:1;" d="M 168 84 C 168 130.390625 130.390625 168 84 168 C 37.609375 168 0 130.390625 0 84 C 0 37.609375 37.609375 0 84 0 C 130.390625 0 168 37.609375 168 84 "/>
<path style=" stroke:none;fill-rule:evenodd;fill:rgb(100%,100%,100%);fill-opacity:1;" d="M 53.257812 105.125 C 54.832031 102.734375 56.324219 100.5 57.730469 98.40625 L 41.644531 98.40625 C 41.375 98.40625 41.15625 98.1875 41.15625 97.917969 L 41.15625 94.578125 C 41.15625 94.308594 41.375 94.089844 41.644531 94.089844 L 60.660156 94.089844 C 70.828125 79.238281 75.910156 73.121094 75.910156 72.496094 C 75.910156 71.535156 75.699219 71.058594 72.234375 71.058594 C 65.386719 71.058594 54.128906 66.171875 54.128906 52.824219 C 54.128906 45.566406 65.871094 36.75 72.726562 36.75 C 75.90625 36.75 76.394531 38.097656 74.929688 38.1875 C 71.011719 38.429688 62.445312 46.25 62.445312 53.78125 C 62.445312 58.820312 66.917969 67.457031 76.882812 67.457031 C 88.652344 67.457031 98.707031 48.746094 123.144531 48.746094 C 137.828125 48.746094 141.746094 60.234375 141.746094 63.382812 C 141.746094 66.53125 137.164062 68.179688 130.976562 68.179688 C 124.792969 68.179688 124.5625 57.140625 112.128906 57.140625 C 92.609375 57.140625 75.988281 78.277344 68.003906 94.089844 L 81.78125 94.089844 C 82.054688 94.089844 82.269531 94.308594 82.269531 94.578125 L 82.269531 97.917969 L 82.273438 97.917969 C 82.273438 98.046875 82.222656 98.171875 82.132812 98.265625 C 82.039062 98.359375 81.914062 98.410156 81.785156 98.410156 L 65.984375 98.410156 C 64.890625 100.929688 64.078125 103.214844 63.570312 105.128906 L 77.378906 105.128906 C 77.652344 105.128906 77.871094 105.339844 77.871094 105.613281 L 77.871094 108.957031 L 77.867188 108.957031 C 77.867188 109.226562 77.648438 109.445312 77.378906 109.445312 L 62.949219 109.445312 C 63.207031 115.566406 68.339844 121.085938 78.363281 126 L 39.929688 126 C 43.375 120.445312 46.875 114.929688 50.429688 109.445312 L 37.242188 109.445312 C 37.113281 109.449219 36.988281 109.398438 36.894531 109.304688 C 36.800781 109.214844 36.75 109.089844 36.75 108.957031 L 36.75 105.613281 C 36.75 105.34375 36.96875 105.125 37.238281 105.125 Z M 53.257812 105.125 "/>
</g>
</svg>
