<?xml version="1.0" encoding="UTF-8"?>
<svg xmlns="http://www.w3.org/2000/svg" xmlns:xlink="http://www.w3.org/1999/xlink" width="168pt" height="168pt" viewBox="0 0 168 168" version="1.1">
<g id="surface26">
<path style=" stroke:none;fill-rule:evenodd;fill:rgb(95.686275%,57.647059%,32.156863%);fill-opacity:1;" d="M 168 84 C 168 130.390625 130.390625 168 84 168 C 37.609375 168 0 130.390625 0 84 C 0 37.609375 37.609375 0 84 0 C 130.390625 0 168 37.609375 168 84 "/>
<path style=" stroke:none;fill-rule:evenodd;fill:rgb(100%,100%,100%);fill-opacity:1;" d="M 66.175781 48.0625 C 61.675781 48.0625 58.027344 44.355469 58.027344 39.785156 C 58.027344 35.210938 61.675781 31.5 66.175781 31.5 C 70.679688 31.5 74.328125 35.207031 74.328125 39.785156 C 74.328125 44.363281 70.679688 48.0625 66.175781 48.0625 Z M 102.097656 136.5 C 99.917969 136.480469 97.835938 135.597656 96.308594 134.046875 C 94.777344 132.492188 93.929688 130.394531 93.949219 128.214844 C 93.949219 123.648438 97.597656 119.9375 102.097656 119.9375 C 106.601562 119.9375 110.25 123.644531 110.25 128.214844 C 110.25 132.792969 106.601562 136.5 102.097656 136.5 Z M 69.519531 74.601562 C 67.984375 75.800781 66.027344 76.328125 64.097656 76.066406 C 62.164062 75.804688 60.421875 74.773438 59.257812 73.210938 C 56.800781 69.941406 57.40625 65.3125 60.621094 62.785156 L 98.199219 33.585938 L 98.203125 33.585938 C 99.738281 32.386719 101.695312 31.859375 103.625 32.121094 C 105.558594 32.382812 107.300781 33.410156 108.464844 34.976562 C 110.925781 38.246094 110.316406 42.878906 107.101562 45.40625 Z M 69.796875 104.363281 C 68.261719 105.5625 66.304688 106.089844 64.375 105.828125 C 62.441406 105.566406 60.699219 104.539062 59.535156 102.972656 C 57.074219 99.703125 57.683594 95.070312 60.898438 92.542969 L 98.476562 63.347656 L 98.480469 63.347656 C 100.015625 62.148438 101.972656 61.621094 103.902344 61.882812 C 105.835938 62.144531 107.578125 63.175781 108.742188 64.738281 C 111.199219 68.007812 110.59375 72.636719 107.378906 75.164062 Z M 69.796875 134.964844 L 69.796875 134.96875 C 68.261719 136.164062 66.304688 136.691406 64.375 136.429688 C 62.441406 136.167969 60.699219 135.140625 59.535156 133.574219 C 57.074219 130.304688 57.683594 125.671875 60.898438 123.144531 L 98.476562 93.949219 L 98.480469 93.949219 C 100.015625 92.75 101.972656 92.222656 103.902344 92.484375 C 105.835938 92.746094 107.578125 93.777344 108.742188 95.339844 C 111.199219 98.609375 110.59375 103.238281 107.378906 105.765625 Z M 69.796875 134.964844 "/>
</g>
</svg>
