<?xml version="1.0" encoding="UTF-8"?>
<svg xmlns="http://www.w3.org/2000/svg" xmlns:xlink="http://www.w3.org/1999/xlink" width="168pt" height="168pt" viewBox="0 0 168 168" version="1.1">
<g id="surface1431">
<path style=" stroke:none;fill-rule:evenodd;fill:rgb(100%,84.705882%,0%);fill-opacity:1;" d="M 168 84 C 168 130.390625 130.390625 168 84 168 C 37.609375 168 0 130.390625 0 84 C 0 37.609375 37.609375 0 84 0 C 130.390625 0 168 37.609375 168 84 "/>
<path style=" stroke:none;fill-rule:evenodd;fill:rgb(100%,100%,100%);fill-opacity:1;" d="M 124.335938 67.652344 C 124.636719 67.351562 125.226562 67.351562 125.8125 67.351562 C 134.667969 67.351562 141.75 74.847656 141.75 83.851562 C 141.75 92.25 135.554688 98.851562 127.585938 100.347656 L 125.8125 100.347656 C 122.863281 100.347656 119.910156 99.449219 117.253906 97.949219 C 116.390625 97.34375 115.355469 97.027344 114.304688 97.050781 C 113.125 97.050781 111.941406 97.351562 111.058594 97.949219 C 108.988281 99.152344 108.109375 101.25 108.109375 103.652344 L 108.109375 106.351562 L 108.109375 106.347656 C 107.796875 110.054688 106.21875 113.539062 103.636719 116.21875 C 101.054688 118.894531 97.628906 120.601562 93.9375 121.050781 L 92.167969 121.050781 C 89.21875 121.050781 86.265625 120.152344 83.609375 118.652344 C 82.429688 118.054688 81.546875 117.753906 80.363281 117.753906 C 79.183594 117.753906 78 118.054688 77.113281 118.652344 C 75.050781 119.855469 74.164062 121.953125 74.164062 124.355469 L 74.164062 127.054688 C 73.574219 134.855469 67.375 140.855469 59.707031 141.753906 L 58.230469 141.753906 C 49.375 141.753906 42.292969 134.25 42.292969 125.253906 C 42.585938 116.855469 48.488281 109.957031 56.457031 109.050781 L 58.230469 109.050781 C 61.179688 109.050781 64.132812 109.953125 66.789062 111.457031 L 66.789062 111.453125 C 67.652344 112.058594 68.6875 112.375 69.742188 112.351562 C 70.921875 112.351562 72.105469 112.050781 72.988281 111.453125 C 75.058594 110.25 75.9375 108.152344 75.9375 105.75 C 75.347656 97.050781 81.550781 89.25 90.105469 88.351562 L 91.875 88.351562 C 94.824219 88.351562 97.777344 89.25 100.433594 90.75 C 101.613281 91.347656 102.503906 91.648438 103.683594 91.648438 C 104.859375 91.648438 106.046875 91.347656 106.929688 90.75 C 108.992188 89.546875 109.878906 87.449219 109.878906 85.046875 C 109.289062 76.347656 115.78125 68.546875 124.335938 67.648438 Z M 90.40625 46.949219 C 90.996094 46.648438 91.292969 46.648438 92.175781 46.648438 C 101.03125 46.648438 108.113281 54.144531 108.113281 63.148438 C 107.820312 71.546875 101.917969 78.445312 93.945312 79.34375 L 92.175781 79.34375 C 89.226562 79.34375 86.273438 78.445312 83.617188 76.945312 L 83.617188 76.949219 C 82.753906 76.34375 81.71875 76.027344 80.667969 76.050781 C 79.488281 76.050781 78.304688 76.351562 77.421875 76.949219 C 75.351562 78.152344 74.464844 80.25 74.464844 82.652344 L 74.464844 85.351562 C 73.875 93.148438 67.683594 99.148438 60.007812 100.050781 L 58.53125 100.050781 C 49.679688 100.050781 42.59375 92.554688 42.59375 83.550781 C 42.59375 75.457031 48.5 68.851562 56.464844 67.652344 L 58.238281 67.652344 C 61.1875 67.652344 64.140625 68.550781 66.796875 70.050781 C 67.65625 70.65625 68.691406 70.972656 69.746094 70.949219 C 70.925781 70.949219 72.109375 70.648438 72.992188 70.050781 C 75.0625 68.847656 75.941406 66.75 75.941406 64.347656 C 75.351562 55.648438 81.847656 47.847656 90.40625 46.949219 Z M 57.9375 26.25 C 66.738281 26.25 73.871094 33.503906 73.871094 42.453125 C 73.871094 51.398438 66.730469 58.648438 57.9375 58.648438 C 49.132812 58.648438 42 51.398438 42 42.453125 C 42 33.503906 49.140625 26.25 57.9375 26.25 Z M 57.9375 26.25 "/>
</g>
</svg>
