<?xml version="1.0" encoding="UTF-8"?>
<svg xmlns="http://www.w3.org/2000/svg" xmlns:xlink="http://www.w3.org/1999/xlink" width="168pt" height="168pt" viewBox="0 0 168 168" version="1.1">
<g id="surface1051">
<path style=" stroke:none;fill-rule:nonzero;fill:rgb(55.294118%,9.411765%,10.588235%);fill-opacity:1;" d="M 168 84 C 168 130.390625 130.390625 168 84 168 C 37.609375 168 0 130.390625 0 84 C 0 37.609375 37.609375 0 84 0 C 130.390625 0 168 37.609375 168 84 "/>
<path style=" stroke:none;fill-rule:nonzero;fill:rgb(100%,100%,100%);fill-opacity:1;" d="M 134.902344 82.59375 C 138.683594 82.59375 141.75 85.585938 141.75 89.289062 C 141.75 92.992188 138.683594 95.984375 134.902344 95.984375 C 132.015625 95.984375 129.542969 94.230469 128.539062 91.757812 L 109.007812 91.757812 L 101.804688 104.566406 C 100.617188 106.675781 97.367188 106.050781 97.085938 103.664062 L 95.46875 89.976562 L 89.484375 134.359375 C 89.085938 137.308594 84.671875 137.171875 84.464844 134.203125 L 79.554688 62.453125 L 74.355469 109.988281 C 74.039062 112.824219 69.878906 112.96875 69.367188 110.160156 L 63.863281 79.941406 L 61.324219 89.890625 L 61.332031 89.886719 C 61.035156 90.992188 60.03125 91.761719 58.882812 91.753906 L 34.019531 91.753906 C 32.628906 91.753906 31.5 90.652344 31.5 89.285156 C 31.5 87.921875 32.628906 86.816406 34.019531 86.816406 L 56.910156 86.816406 L 61.839844 67.542969 C 62.5 64.960938 66.292969 65.089844 66.773438 67.710938 L 71.230469 92.222656 L 77.632812 33.703125 C 77.964844 30.707031 82.453125 30.789062 82.65625 33.796875 L 87.804688 109.082031 L 93.128906 69.582031 C 93.515625 66.699219 97.796875 66.730469 98.136719 69.617188 L 101.191406 95.421875 L 105.308594 88.09375 C 105.761719 87.300781 106.605469 86.816406 107.519531 86.820312 L 128.539062 86.820312 C 129.605469 84.25 132.121094 82.578125 134.902344 82.59375 Z M 134.902344 82.59375 "/>
</g>
</svg>
