<?xml version="1.0" encoding="UTF-8"?>
<svg xmlns="http://www.w3.org/2000/svg" xmlns:xlink="http://www.w3.org/1999/xlink" width="168pt" height="168pt" viewBox="0 0 168 168" version="1.1">
<g id="surface631">
<path style=" stroke:none;fill-rule:evenodd;fill:rgb(39.215686%,81.960784%,100%);fill-opacity:1;" d="M 168 84 C 168 130.390625 130.390625 168 84 168 C 37.609375 168 0 130.390625 0 84 C 0 37.609375 37.609375 0 84 0 C 130.390625 0 168 37.609375 168 84 "/>
<path style=" stroke:none;fill-rule:evenodd;fill:rgb(100%,100%,100%);fill-opacity:1;" d="M 55.125 80 L 64.386719 80 L 64.386719 36.75 L 88.257812 36.75 C 92.6875 36.75 96.730469 37.269531 100.386719 38.308594 C 104.039062 39.347656 107.167969 40.933594 109.777344 43.054688 C 112.386719 45.175781 114.429688 47.867188 115.910156 51.117188 C 117.386719 54.371094 118.125 58.257812 118.125 62.777344 C 118.125 67.296875 117.335938 71.230469 115.777344 74.574219 L 115.777344 74.578125 C 114.304688 77.800781 112.117188 80.652344 109.382812 82.914062 C 106.578125 85.1875 103.339844 86.871094 99.867188 87.863281 C 96.007812 88.976562 92.011719 89.527344 87.996094 89.492188 L 74.820312 89.492188 L 74.820312 103.183594 L 95.820312 103.183594 L 95.820312 112.136719 L 74.820312 112.136719 L 74.816406 131.25 L 64.382812 131.25 L 64.382812 112.132812 L 55.125 112.132812 L 55.125 103.179688 L 64.386719 103.179688 L 64.386719 89.488281 L 55.125 89.492188 Z M 88.253906 80 C 94.253906 80 98.972656 78.578125 102.40625 75.730469 C 105.839844 72.878906 107.5625 68.5625 107.5625 62.777344 C 107.5625 56.996094 105.839844 52.792969 102.40625 50.171875 C 98.972656 47.546875 94.253906 46.234375 88.257812 46.234375 L 74.816406 46.234375 L 74.816406 79.996094 Z M 88.253906 80 "/>
</g>
</svg>
