<?xml version="1.0" encoding="UTF-8"?>
<svg xmlns="http://www.w3.org/2000/svg" xmlns:xlink="http://www.w3.org/1999/xlink" width="168pt" height="168pt" viewBox="0 0 168 168" version="1.1">
<g id="surface831">
<path style=" stroke:none;fill-rule:evenodd;fill:rgb(21.960784%,25.490196%,50.980392%);fill-opacity:1;" d="M 168 84 C 168 130.390625 130.390625 168 84 168 C 37.609375 168 0 130.390625 0 84 C 0 37.609375 37.609375 0 84 0 C 130.390625 0 168 37.609375 168 84 "/>
<path style=" stroke:none;fill-rule:evenodd;fill:rgb(100%,100%,100%);fill-opacity:1;" d="M 49.875 141.75 L 68.871094 53.609375 L 79.527344 119.757812 Z M 69.238281 53.105469 L 98.097656 119.828125 L 80.023438 119.511719 L 69.238281 53.097656 Z M 69.667969 52.601562 L 107.46875 57.972656 L 98.710938 119.828125 Z M 99.382812 118.878906 L 107.902344 58.539062 L 113.476562 65.617188 L 99.378906 118.878906 Z M 107.347656 57.402344 L 70.460938 52.15625 L 103.671875 41.226562 Z M 70.28125 51.589844 L 92.886719 35.917969 L 103.671875 40.660156 Z M 69.726562 51.402344 L 74.085938 43.058594 L 92.523438 35.667969 Z M 74.085938 42.6875 L 76.164062 36.175781 L 91.359375 35.667969 L 74.085938 42.683594 Z M 76.042969 35.667969 L 80.941406 30.421875 L 91.484375 35.164062 Z M 81.25 30.109375 L 88.601562 26.507812 L 98.105469 37.628906 L 81.253906 30.109375 Z M 89.644531 26.949219 L 100.613281 31.753906 L 98.648438 37.691406 Z M 99.015625 37.878906 L 101.035156 31.816406 L 103.488281 40.160156 L 99.015625 37.882812 Z M 88.847656 26.25 L 96.875 26.25 L 100.847656 30.671875 C 100.921875 30.757812 100.929688 30.886719 100.863281 30.980469 C 100.792969 31.074219 100.671875 31.113281 100.5625 31.070312 Z M 101.53125 31.304688 L 117.859375 35.863281 L 117.855469 35.863281 C 118.027344 35.902344 118.148438 36.054688 118.148438 36.230469 C 118.148438 36.40625 118.027344 36.558594 117.855469 36.597656 L 103.980469 40.402344 L 101.527344 31.304688 Z M 101.53125 31.304688 "/>
</g>
</svg>
