<?xml version="1.0" encoding="UTF-8"?>
<svg xmlns="http://www.w3.org/2000/svg" xmlns:xlink="http://www.w3.org/1999/xlink" width="168pt" height="168pt" viewBox="0 0 168 168" version="1.1">
<g id="surface11">
<path style=" stroke:none;fill-rule:nonzero;fill:rgb(23.921569%,34.509804%,69.019608%);fill-opacity:1;" d="M 168 84 C 168 130.390625 130.390625 168 84 168 C 37.609375 168 0 130.390625 0 84 C 0 37.609375 37.609375 0 84 0 C 130.390625 0 168 37.609375 168 84 "/>
<path style=" stroke:none;fill-rule:nonzero;fill:rgb(100%,100%,100%);fill-opacity:1;" d="M 83.925781 21 C 49.222656 21 21 49.222656 21 83.925781 C 21 118.628906 49.222656 146.84375 83.925781 146.84375 C 118.628906 146.84375 146.84375 118.625 146.84375 83.925781 C 146.847656 49.222656 118.625 21 83.925781 21 Z M 83.925781 29.566406 C 98.347656 29.550781 112.183594 35.269531 122.382812 45.46875 C 132.578125 55.667969 138.300781 69.503906 138.28125 83.925781 C 138.296875 98.347656 132.578125 112.183594 122.378906 122.378906 C 112.183594 132.578125 98.347656 138.296875 83.925781 138.28125 C 69.503906 138.300781 55.667969 132.578125 45.46875 122.382812 C 35.269531 112.183594 29.550781 98.347656 29.566406 83.925781 C 29.550781 69.503906 35.269531 55.667969 45.46875 45.46875 C 55.667969 35.269531 69.503906 29.550781 83.925781 29.566406 Z M 83.925781 29.566406 "/>
<path style=" stroke:none;fill-rule:nonzero;fill:rgb(100%,100%,100%);fill-opacity:1;" d="M 60.546875 60.691406 L 60.546875 107.152344 L 107.296875 107.152344 L 107.296875 60.691406 Z M 68.160156 68.304688 L 99.679688 68.304688 L 99.679688 99.542969 L 68.164062 99.542969 L 68.164062 68.304688 Z M 68.160156 68.304688 "/>
</g>
</svg>
