<?xml version="1.0" encoding="UTF-8"?>
<svg xmlns="http://www.w3.org/2000/svg" xmlns:xlink="http://www.w3.org/1999/xlink" width="168pt" height="168pt" viewBox="0 0 168 168" version="1.1">
<g id="surface2420">
<path style=" stroke:none;fill-rule:nonzero;fill:rgb(0%,65.490196%,61.568627%);fill-opacity:1;" d="M 168 84 C 168 130.390625 130.390625 168 84 168 C 37.609375 168 0 130.390625 0 84 C 0 37.609375 37.609375 0 84 0 C 130.390625 0 168 37.609375 168 84 "/>
<path style=" stroke:none;fill-rule:nonzero;fill:rgb(100%,100%,100%);fill-opacity:1;" d="M 80.554688 95.289062 L 81.367188 99.261719 L 82.863281 97.273438 L 84.332031 104.734375 L 85.800781 97.28125 L 87.296875 99.265625 L 88.109375 95.292969 Z M 88.320312 88.96875 L 88.320312 77.777344 C 88.320312 75.59375 84.367188 70.070312 84.367188 70.070312 C 84.367188 70.070312 80.378906 75.59375 80.378906 77.777344 L 80.378906 88.96875 L 80.378906 88.964844 C 77.792969 89.800781 75.535156 91.4375 73.9375 93.632812 L 94.738281 93.632812 L 94.734375 93.632812 C 93.144531 91.441406 90.898438 89.808594 88.320312 88.964844 Z M 132.277344 100.339844 C 132.277344 98.777344 131.652344 97.28125 130.546875 96.179688 C 129.441406 95.082031 127.945312 94.464844 126.382812 94.46875 C 123.128906 94.46875 120.488281 97.09375 120.488281 100.339844 C 120.492188 101.898438 121.113281 103.390625 122.222656 104.492188 C 123.328125 105.589844 124.824219 106.207031 126.382812 106.203125 C 129.636719 106.203125 132.277344 103.578125 132.277344 100.339844 Z M 122.933594 100.339844 C 122.933594 98.945312 123.769531 97.691406 125.054688 97.15625 C 126.347656 96.621094 127.832031 96.914062 128.824219 97.898438 C 129.8125 98.875 130.109375 100.355469 129.574219 101.640625 C 128.945312 103.160156 127.332031 104.027344 125.71875 103.710938 C 124.105469 103.394531 122.9375 101.984375 122.929688 100.339844 Z M 122.933594 100.339844 "/>
<path style=" stroke:none;fill-rule:nonzero;fill:rgb(100%,100%,100%);fill-opacity:1;" d="M 84.335938 21 C 49.375 21.042969 21.042969 49.21875 21 84 C 21 108.011719 35.832031 127.332031 55.507812 128.957031 C 67.476562 129.9375 79.054688 125.695312 86.675781 121.953125 C 91.226562 120.09375 95.460938 117.542969 99.234375 114.390625 L 100.054688 113.714844 C 100.667969 113.183594 101.242188 112.675781 101.789062 112.15625 C 108.933594 105.425781 117.445312 93.308594 117.445312 73.832031 L 117.445312 71.679688 L 84.613281 49.277344 L 51.773438 71.683594 L 51.773438 73.820312 C 51.773438 93.308594 60.277344 105.414062 67.421875 112.144531 C 68.257812 112.933594 69.132812 113.710938 70.046875 114.449219 C 73.039062 113.371094 76.03125 112.265625 78.945312 110.980469 C 71.492188 106.160156 60.679688 95.746094 59.964844 75.929688 L 84.609375 59.109375 L 109.246094 75.929688 C 108.667969 91.941406 101.421875 101.777344 95.085938 107.328125 L 94.296875 107.933594 C 94.101562 108.082031 75.082031 122.433594 56.183594 120.871094 C 44.359375 119.894531 34.773438 110.339844 30.957031 97.027344 L 30.960938 97.023438 C 33.03125 95.566406 34.097656 93.066406 33.722656 90.5625 C 33.34375 88.058594 31.585938 85.980469 29.179688 85.195312 L 29.179688 84 C 29.179688 76.289062 30.816406 68.660156 33.992188 61.628906 C 37.53125 63.078125 41.46875 63.210938 45.097656 62.011719 C 48.726562 60.8125 51.808594 58.355469 53.785156 55.082031 C 56.675781 50.292969 56.832031 44.335938 54.191406 39.40625 C 54.007812 39.078125 53.816406 38.753906 53.613281 38.433594 C 65.921875 30.214844 81.011719 27.269531 95.507812 30.253906 C 109.988281 33.226562 122.667969 41.890625 130.699219 54.300781 C 127.023438 57.398438 125.675781 62.453125 127.339844 66.953125 C 129.007812 71.464844 133.3125 74.453125 138.121094 74.445312 L 138.652344 74.445312 C 139.230469 77.59375 139.527344 80.796875 139.542969 84 C 139.542969 112.460938 116.773438 134.953125 84.21875 138.90625 C 58.183594 142.085938 41.484375 131.335938 41.484375 131.335938 C 51.234375 142.023438 64.851562 147 84.351562 147 C 119.058594 146.628906 147 118.527344 147 84 C 147 49.464844 119.054688 21.367188 84.335938 21 Z M 31.242188 92.472656 C 31.089844 93.183594 30.753906 93.84375 30.273438 94.382812 C 29.808594 92.269531 29.484375 90.125 29.3125 87.964844 C 30.847656 88.90625 31.621094 90.714844 31.242188 92.480469 Z M 52.027344 40.539062 C 54.703125 45.539062 53.953125 51.683594 50.152344 55.890625 C 46.339844 60.113281 40.304688 61.519531 35.015625 59.414062 C 38.9375 51.683594 44.621094 44.980469 51.609375 39.847656 C 51.734375 40.074219 51.902344 40.308594 52.035156 40.546875 L 52.027344 40.546875 Z M 138.121094 72.007812 C 134.394531 72.007812 131.042969 69.734375 129.691406 66.285156 C 128.335938 62.828125 129.253906 58.894531 132 56.394531 C 134.851562 61.25 136.933594 66.515625 138.167969 72.003906 L 138.117188 72.003906 Z M 138.121094 72.007812 "/>
</g>
</svg>
