<?xml version="1.0" encoding="UTF-8"?>
<svg xmlns="http://www.w3.org/2000/svg" xmlns:xlink="http://www.w3.org/1999/xlink" width="168pt" height="168pt" viewBox="0 0 168 168" version="1.1">
<g id="surface1751">
<path style=" stroke:none;fill-rule:nonzero;fill:rgb(0%,40.784314%,54.901961%);fill-opacity:1;" d="M 168 84 C 168 130.390625 130.390625 168 84 168 C 37.609375 168 0 130.390625 0 84 C 0 37.609375 37.609375 0 84 0 C 130.390625 0 168 37.609375 168 84 "/>
<path style=" stroke:none;fill-rule:nonzero;fill:rgb(100%,100%,100%);fill-opacity:1;" d="M 141.691406 119.023438 L 141.691406 52.488281 L 83.921875 19.214844 L 83.84375 19.257812 L 26.273438 52.527344 L 26.273438 119.042969 L 83.890625 152.234375 L 83.894531 152.238281 L 141.6875 119.027344 Z M 116.125 108.386719 L 106.269531 102.738281 L 84.285156 115.5 C 84.152344 115.574219 83.992188 115.574219 83.863281 115.5 L 58.636719 100.878906 L 58.625 75.441406 L 36.464844 62.738281 L 83.703125 35.042969 L 83.707031 35.042969 C 83.746094 35.019531 83.792969 35.019531 83.832031 35.042969 L 127.707031 60.128906 L 119.949219 64.617188 L 83.855469 43.847656 L 51.847656 62.636719 L 62.953125 69.015625 L 83.878906 56.847656 L 83.890625 56.835938 L 109.457031 71.457031 L 109.445312 95.660156 L 131.238281 108.140625 L 131.234375 108.507812 L 83.898438 136.144531 L 40.019531 111.089844 L 47.699219 106.589844 L 83.824219 127.3125 L 116.128906 108.382812 Z M 116.125 108.386719 "/>
<path style=" stroke:none;fill-rule:nonzero;fill:rgb(100%,100%,100%);fill-opacity:1;" d="M 90.851562 79.511719 L 90.851562 79.332031 L 90.847656 79.214844 L 90.84375 79.152344 L 90.832031 79.019531 L 90.832031 78.976562 L 90.816406 78.835938 L 90.816406 78.800781 L 90.796875 78.652344 L 90.796875 78.625 L 90.777344 78.472656 L 90.777344 78.453125 L 90.75 78.296875 L 90.746094 78.285156 L 90.714844 78.128906 L 90.710938 78.113281 L 90.675781 77.957031 L 90.675781 77.945312 L 90.667969 77.945312 C 90.65625 77.894531 90.644531 77.839844 90.628906 77.789062 L 90.628906 77.777344 L 90.582031 77.621094 L 90.582031 77.617188 L 90.535156 77.449219 C 90.507812 77.339844 90.472656 77.234375 90.429688 77.132812 L 90.429688 77.128906 L 90.367188 76.972656 L 90.367188 76.96875 C 90.347656 76.917969 90.328125 76.863281 90.304688 76.8125 L 90.238281 76.65625 L 90.171875 76.507812 L 90.097656 76.351562 L 90.023438 76.203125 L 89.9375 76.054688 L 89.9375 76.058594 C 89.910156 76.011719 89.882812 75.960938 89.855469 75.914062 L 89.855469 75.910156 L 89.769531 75.773438 L 89.765625 75.769531 C 89.734375 75.722656 89.707031 75.679688 89.675781 75.636719 L 89.675781 75.625 L 89.585938 75.5 C 89.585938 75.5 89.585938 75.488281 89.574219 75.488281 L 89.484375 75.363281 L 89.472656 75.351562 C 89.441406 75.308594 89.421875 75.265625 89.382812 75.226562 L 89.378906 75.214844 L 89.277344 75.09375 L 89.265625 75.082031 L 89.171875 74.964844 L 89.160156 74.953125 L 89.054688 74.84375 L 89.0625 74.847656 C 89.054688 74.84375 89.054688 74.839844 89.050781 74.832031 L 88.949219 74.722656 C 88.945312 74.71875 88.941406 74.714844 88.941406 74.707031 L 88.839844 74.601562 C 88.800781 74.5625 88.761719 74.523438 88.71875 74.480469 L 88.597656 74.359375 C 88.558594 74.324219 88.519531 74.289062 88.476562 74.257812 L 88.460938 74.242188 C 88.425781 74.207031 88.390625 74.171875 88.351562 74.140625 L 88.335938 74.125 C 88.300781 74.09375 88.265625 74.0625 88.226562 74.035156 L 88.210938 74.023438 L 88.09375 73.929688 L 88.078125 73.917969 L 87.957031 73.828125 L 87.941406 73.816406 L 87.820312 73.726562 L 87.804688 73.714844 L 87.683594 73.628906 L 87.667969 73.625 L 87.542969 73.539062 L 87.53125 73.527344 L 87.398438 73.449219 L 87.386719 73.449219 L 87.25 73.363281 L 87.238281 73.363281 L 87.097656 73.277344 L 87.09375 73.277344 L 87.097656 73.289062 C 83.617188 71.820312 79.59375 73.359375 77.984375 76.777344 C 76.371094 80.195312 77.746094 84.277344 81.097656 86.027344 L 78.050781 99.949219 L 89.570312 99.949219 L 86.5 86.035156 C 89.136719 84.933594 90.851562 82.359375 90.851562 79.507812 Z M 90.851562 79.511719 "/>
</g>
</svg>
