<?xml version="1.0" encoding="UTF-8"?>
<svg xmlns="http://www.w3.org/2000/svg" xmlns:xlink="http://www.w3.org/1999/xlink" width="168pt" height="168pt" viewBox="0 0 168 168" version="1.1">
<g id="surface2119">
<path style=" stroke:none;fill-rule:nonzero;fill:rgb(71.372549%,53.72549%,0%);fill-opacity:1;" d="M 168 84 C 168 130.390625 130.390625 168 84 168 C 37.609375 168 0 130.390625 0 84 C 0 37.609375 37.609375 0 84 0 C 130.390625 0 168 37.609375 168 84 "/>
<path style=" stroke:none;fill-rule:nonzero;fill:rgb(100%,100%,100%);fill-opacity:1;" d="M 139.824219 83.039062 L 83.039062 26.25 L 26.25 83.039062 L 83.039062 104.019531 Z M 43.910156 78.226562 L 82.410156 38.863281 C 82.410156 38.863281 120.046875 77.363281 121.632812 78.132812 C 123.222656 78.898438 95.746094 78.132812 95.746094 78.132812 L 83.042969 65.140625 L 70.191406 78.230469 Z M 83.039062 108.015625 L 139.824219 86.890625 L 83.039062 139.828125 L 26.25 87.175781 L 83.039062 108.019531 Z M 83.039062 108.015625 "/>
</g>
</svg>
