<?xml version="1.0" encoding="UTF-8"?>
<svg xmlns="http://www.w3.org/2000/svg" xmlns:xlink="http://www.w3.org/1999/xlink" width="168pt" height="168pt" viewBox="0 0 168 168" version="1.1">
<g id="surface1246">
<path style=" stroke:none;fill-rule:nonzero;fill:rgb(16.862745%,46.666667%,70.196078%);fill-opacity:1;" d="M 168 84 C 168 130.390625 130.390625 168 84 168 C 37.609375 168 0 130.390625 0 84 C 0 37.609375 37.609375 0 84 0 C 130.390625 0 168 37.609375 168 84 "/>
<path style=" stroke:none;fill-rule:nonzero;fill:rgb(100%,100%,100%);fill-opacity:1;" d="M 141.75 84.203125 C 141.503906 116.269531 115.515625 141.984375 83.597656 141.742188 C 51.648438 141.507812 25.992188 115.40625 26.25 83.40625 C 26.511719 51.710938 52.574219 26.039062 84.261719 26.25 C 116.183594 26.464844 141.980469 52.480469 141.75 84.210938 Z M 30.429688 84.019531 C 30.488281 113.523438 54.359375 137.34375 83.921875 137.410156 C 113.515625 137.460938 137.660156 113.480469 137.5625 83.945312 C 137.453125 53.179688 111.96875 29.976562 82.636719 30.480469 C 54.277344 30.964844 30.371094 55.070312 30.429688 84.019531 Z M 98.074219 58.945312 L 95.9375 65.78125 C 91.957031 65.125 88.273438 64.34375 84.539062 63.976562 C 82.324219 63.761719 80.023438 64.339844 79.167969 66.832031 C 78.285156 69.390625 78.179688 72.113281 80.296875 74.085938 C 82.46875 76.105469 85.023438 77.707031 87.40625 79.503906 C 89.59375 81.152344 92.003906 82.589844 93.917969 84.519531 C 99.101562 89.75 100.019531 96.089844 97.890625 102.925781 C 96.628906 106.980469 93.628906 109.539062 89.785156 111.09375 C 83.90625 113.476562 73.894531 112.300781 68.269531 108.519531 L 70.738281 101.359375 C 74.320312 102.304688 77.59375 103.4375 80.964844 103.972656 C 84.179688 104.480469 87.542969 103.988281 89.191406 100.707031 C 90.851562 97.398438 90.324219 93.917969 87.726562 91.261719 C 85.722656 89.214844 83.207031 87.65625 80.859375 85.949219 C 79.292969 84.816406 77.546875 83.921875 76.023438 82.734375 L 76.023438 82.738281 C 73.074219 80.484375 70.972656 77.292969 70.0625 73.691406 C 69.152344 70.089844 69.484375 66.285156 71.011719 62.894531 C 72.375 59.609375 75.257812 57.199219 78.730469 56.433594 C 85.320312 54.867188 91.707031 55.578125 98.078125 58.953125 Z M 55.652344 83.042969 L 55.65625 83.042969 C 55.65625 86.699219 52.710938 89.675781 49.054688 89.710938 C 45.378906 89.726562 42.238281 86.523438 42.324219 82.863281 L 42.324219 82.867188 C 42.46875 79.21875 45.46875 76.335938 49.117188 76.335938 C 52.792969 76.386719 55.679688 79.355469 55.660156 83.046875 Z M 119.140625 76.515625 C 122.804688 76.511719 125.535156 79.214844 125.582031 82.898438 L 125.585938 82.902344 C 125.625 84.703125 124.9375 86.441406 123.675781 87.722656 C 122.414062 89.007812 120.6875 89.722656 118.886719 89.710938 C 115.226562 89.652344 112.296875 86.660156 112.3125 83.003906 C 112.3125 79.160156 115.09375 76.519531 119.144531 76.519531 Z M 119.140625 76.515625 "/>
</g>
</svg>
