<?xml version="1.0" encoding="UTF-8"?>
<svg xmlns="http://www.w3.org/2000/svg" xmlns:xlink="http://www.w3.org/1999/xlink" width="168pt" height="168pt" viewBox="0 0 168 168" version="1.1">
<g id="surface1736">
<path style=" stroke:none;fill-rule:nonzero;fill:rgb(1.568627%,67.843137%,93.72549%);fill-opacity:1;" d="M 168 84 C 168 130.390625 130.390625 168 84 168 C 37.609375 168 0 130.390625 0 84 C 0 37.609375 37.609375 0 84 0 C 130.390625 0 168 37.609375 168 84 "/>
<path style=" stroke:none;fill-rule:nonzero;fill:rgb(100%,100%,100%);fill-opacity:1;" d="M 56.4375 37.101562 L 47.25 46.550781 L 47.25 84 L 56.4375 93.449219 L 92.847656 93.449219 L 92.847656 112.347656 L 74.8125 112.351562 L 74.8125 102.902344 L 47.25 102.898438 L 47.25 121.796875 L 56.4375 131.246094 L 111.222656 131.246094 L 120.410156 121.796875 L 120.410156 84 L 111.222656 74.550781 L 74.8125 74.550781 L 74.8125 55.652344 L 93.1875 55.652344 L 93.1875 65.101562 L 120.75 65.101562 L 120.75 46.199219 L 111.5625 36.75 L 56.4375 36.75 Z M 56.4375 37.101562 "/>
</g>
</svg>
