<?xml version="1.0" encoding="UTF-8"?>
<svg xmlns="http://www.w3.org/2000/svg" xmlns:xlink="http://www.w3.org/1999/xlink" width="168pt" height="168pt" viewBox="0 0 168 168" version="1.1">
<g id="surface1876">
<path style=" stroke:none;fill-rule:nonzero;fill:rgb(28.235294%,69.803922%,32.941176%);fill-opacity:1;" d="M 168 84 C 168 130.390625 130.390625 168 84 168 C 37.609375 168 0 130.390625 0 84 C 0 37.609375 37.609375 0 84 0 C 130.390625 0 168 37.609375 168 84 "/>
<path style=" stroke:none;fill-rule:evenodd;fill:rgb(100%,100%,100%);fill-opacity:1;" d="M 119.074219 38.683594 L 124.035156 43.1875 L 61.390625 78.949219 L 31.066406 61.492188 L 33.902344 55.859375 L 61.390625 71.488281 L 119.074219 38.675781 Z M 106.464844 31.5 L 113.121094 34.882812 L 61.394531 64.449219 L 37.308594 50.789062 L 41.414062 45.863281 L 61.394531 57.265625 L 106.46875 31.5 Z M 128.429688 47.832031 L 132.109375 52.761719 L 61.390625 93.171875 L 27.238281 73.742188 L 28.796875 67.546875 L 61.390625 86.132812 L 128.429688 47.835938 Z M 138.628906 65.996094 C 140.707031 71.816406 141.746094 77.914062 141.746094 84.296875 C 141.746094 90.679688 140.707031 96.882812 138.628906 102.882812 L 137.210938 106.6875 L 137.214844 106.691406 C 134.304688 113.519531 130.121094 119.730469 124.886719 124.992188 C 119.59375 130.191406 113.332031 134.304688 106.460938 137.105469 C 99.191406 140.203125 91.683594 141.75 83.933594 141.75 C 76.089844 141.75 68.578125 140.203125 61.394531 137.105469 C 54.601562 134.234375 48.402344 130.125 43.113281 124.992188 C 37.820312 119.777344 33.628906 113.554688 30.785156 106.691406 C 27.792969 99.605469 26.242188 91.992188 26.25 84.300781 L 26.25 80.5 L 61.394531 100.355469 L 135.515625 58.113281 L 138.632812 66 Z M 138.628906 65.996094 "/>
</g>
</svg>
