<?xml version="1.0" encoding="UTF-8"?>
<svg xmlns="http://www.w3.org/2000/svg" xmlns:xlink="http://www.w3.org/1999/xlink" width="168pt" height="168pt" viewBox="0 0 168 168" version="1.1">
<g id="surface86">
<path style=" stroke:none;fill-rule:evenodd;fill:rgb(12.54902%,93.333333%,50.980392%);fill-opacity:1;" d="M 168 84 C 168 130.390625 130.390625 168 84 168 C 37.609375 168 0 130.390625 0 84 C 0 37.609375 37.609375 0 84 0 C 130.390625 0 168 37.609375 168 84 "/>
<path style=" stroke:none;fill-rule:evenodd;fill:rgb(100%,100%,100%);fill-opacity:1;" d="M 84 39.375 C 95.835938 39.375 107.1875 44.078125 115.554688 52.445312 C 123.921875 60.8125 128.625 72.164062 128.625 84 L 128.625 128.625 L 84 128.625 C 68.058594 128.625 53.324219 120.121094 45.355469 106.3125 C 37.382812 92.503906 37.382812 75.496094 45.355469 61.6875 C 53.324219 47.878906 68.058594 39.375 84 39.375 Z M 110.773438 110.773438 L 110.773438 84.402344 C 110.773438 69.597656 98.933594 57.296875 84.136719 57.222656 L 84.136719 57.226562 C 76.992188 57.195312 70.128906 60.023438 65.078125 65.078125 C 60.023438 70.128906 57.195312 76.992188 57.226562 84.136719 C 57.300781 98.9375 69.605469 110.773438 84.40625 110.773438 Z M 110.773438 110.773438 "/>
</g>
</svg>
