<?xml version="1.0" encoding="UTF-8"?>
<svg xmlns="http://www.w3.org/2000/svg" xmlns:xlink="http://www.w3.org/1999/xlink" width="168pt" height="168pt" viewBox="0 0 168 168" version="1.1">
<g id="surface1741">
<path style=" stroke:none;fill-rule:nonzero;fill:rgb(42.745098%,77.647059%,75.686275%);fill-opacity:1;" d="M 168 84 C 168 130.390625 130.390625 168 84 168 C 37.609375 168 0 130.390625 0 84 C 0 37.609375 37.609375 0 84 0 C 130.390625 0 168 37.609375 168 84 "/>
<path style=" stroke:none;fill-rule:nonzero;fill:rgb(100%,100%,100%);fill-opacity:1;" d="M 84 118.917969 C 66.871094 118.917969 52.960938 105.324219 52.960938 88.589844 C 52.960938 72.316406 81.058594 43.582031 82.25 42.375 L 83.71875 40.863281 L 85.230469 42.332031 C 86.457031 43.539062 115.035156 72.277344 115.035156 88.554688 C 115.035156 105.328125 101.121094 118.921875 83.996094 118.921875 Z M 83.765625 46.726562 C 79.28125 51.46875 75.023438 56.421875 71.007812 61.5625 C 61.90625 73.289062 57.09375 82.609375 57.09375 88.546875 C 57.09375 103.035156 69.175781 114.84375 84 114.84375 C 98.824219 114.84375 110.90625 103.03125 110.90625 88.550781 C 110.90625 82.609375 106.019531 73.289062 96.757812 61.558594 L 96.757812 61.5625 C 92.652344 56.421875 88.316406 51.472656 83.765625 46.726562 Z M 83.765625 46.726562 "/>
<path style=" stroke:none;fill-rule:nonzero;fill:rgb(100%,100%,100%);fill-opacity:1;" d="M 84 128.625 C 61.386719 128.625 43.027344 110.648438 43.027344 88.589844 C 43.027344 66.996094 73.867188 36.863281 75.179688 35.617188 C 76.007812 34.839844 77.292969 34.839844 78.121094 35.617188 C 78.914062 36.394531 78.914062 37.71875 78.121094 38.496094 C 77.804688 38.804688 47.199219 68.710938 47.199219 88.589844 C 47.199219 108.433594 63.738281 124.589844 84.042969 124.589844 C 104.351562 124.589844 120.882812 108.4375 120.882812 88.589844 C 120.882812 80.4375 115.476562 69.171875 105.222656 55.929688 C 97.351562 45.796875 89.445312 38.105469 89.367188 38.027344 C 88.964844 37.652344 88.738281 37.132812 88.738281 36.585938 C 88.738281 36.042969 88.964844 35.519531 89.367188 35.148438 C 89.753906 34.757812 90.285156 34.539062 90.835938 34.539062 C 91.386719 34.539062 91.917969 34.757812 92.304688 35.148438 C 93.652344 36.433594 125.054688 66.957031 125.054688 88.59375 C 124.96875 110.644531 106.613281 128.628906 84 128.628906 Z M 84 128.625 "/>
<path style=" stroke:none;fill-rule:nonzero;fill:rgb(100%,100%,100%);fill-opacity:1;" d="M 84 138.335938 C 56.5 138.335938 34.125 116.46875 34.125 89.59375 C 34.125 78.488281 39.847656 64.8125 51.09375 49.011719 L 51.09375 49.015625 C 56.195312 41.84375 61.816406 35.054688 67.902344 28.703125 C 68.710938 27.898438 70.015625 27.878906 70.84375 28.664062 C 71.238281 29.035156 71.464844 29.550781 71.472656 30.09375 C 71.484375 30.632812 71.269531 31.15625 70.886719 31.535156 C 64.953125 37.757812 59.46875 44.386719 54.472656 51.382812 C 43.863281 66.261719 38.253906 79.464844 38.253906 89.601562 C 38.253906 114.222656 58.761719 134.300781 83.996094 134.300781 C 109.234375 134.300781 129.738281 114.261719 129.738281 89.597656 C 129.738281 79.464844 124.09375 66.261719 113.40625 51.382812 L 113.410156 51.382812 C 108.359375 44.382812 102.820312 37.753906 96.835938 31.535156 C 96.453125 31.15625 96.238281 30.632812 96.246094 30.09375 C 96.253906 29.550781 96.484375 29.035156 96.878906 28.664062 C 97.707031 27.878906 99.007812 27.898438 99.816406 28.703125 C 101.207031 30.105469 133.875 63.269531 133.875 89.601562 C 133.875 116.472656 111.5 138.335938 84 138.335938 Z M 84 138.335938 "/>
</g>
</svg>
