<?xml version="1.0" encoding="UTF-8"?>
<svg xmlns="http://www.w3.org/2000/svg" xmlns:xlink="http://www.w3.org/1999/xlink" width="168pt" height="168pt" viewBox="0 0 168 168" version="1.1">
<g id="surface1411">
<path style=" stroke:none;fill-rule:nonzero;fill:rgb(58.823529%,29.411765%,61.176471%);fill-opacity:1;" d="M 168 84 C 168 130.390625 130.390625 168 84 168 C 37.609375 168 0 130.390625 0 84 C 0 37.609375 37.609375 0 84 0 C 130.390625 0 168 37.609375 168 84 "/>
<path style=" stroke:none;fill-rule:nonzero;fill:rgb(100%,100%,100%);fill-opacity:0.6;" d="M 107.660156 86.132812 L 84.183594 109.605469 L 131.128906 109.605469 Z M 107.660156 86.132812 "/>
<path style=" stroke:none;fill-rule:nonzero;fill:rgb(100%,100%,100%);fill-opacity:0.7;" d="M 60.523438 86.152344 L 84 62.683594 L 37.050781 62.683594 L 60.527344 86.15625 Z M 60.523438 86.152344 "/>
<path style=" stroke:none;fill-rule:nonzero;fill:rgb(100%,100%,100%);fill-opacity:0.4;" d="M 84.183594 109.609375 L 107.597656 86.195312 L 84.078125 62.664062 L 37.128906 109.609375 L 84.074219 156.558594 L 131.023438 109.609375 Z M 84.183594 109.609375 "/>
<path style=" stroke:none;fill-rule:nonzero;fill:rgb(100%,100%,100%);fill-opacity:0.8;" d="M 84.292969 15.75 L 37.375 62.667969 L 84 62.667969 L 60.660156 86.007812 L 84.296875 109.636719 L 131.242188 62.691406 Z M 84.292969 15.75 "/>
</g>
</svg>
