<?xml version="1.0" encoding="UTF-8"?>
<svg xmlns="http://www.w3.org/2000/svg" xmlns:xlink="http://www.w3.org/1999/xlink" width="168pt" height="168pt" viewBox="0 0 168 168" version="1.1">
<g id="surface1091">
<path style=" stroke:none;fill-rule:nonzero;fill:rgb(1.960784%,48.235294%,75.686275%);fill-opacity:1;" d="M 168 84 C 168 130.390625 130.390625 168 84 168 C 37.609375 168 0 130.390625 0 84 C 0 37.609375 37.609375 0 84 0 C 130.390625 0 168 37.609375 168 84 "/>
<path style=" stroke:none;fill-rule:nonzero;fill:rgb(100%,100%,100%);fill-opacity:1;" d="M 84 21 C 49.207031 21 21 49.207031 21 84 C 21 118.792969 49.207031 147 84 147 C 118.792969 147 147 118.792969 147 84 C 147 67.292969 140.363281 51.265625 128.546875 39.453125 C 116.734375 27.636719 100.707031 21 84 21 Z M 105.925781 107.765625 L 103.363281 107.765625 L 103.363281 122.109375 L 94.753906 122.109375 L 94.753906 107.765625 L 81.644531 107.765625 L 81.644531 102.4375 L 94.964844 102.4375 L 94.964844 92.808594 L 94.960938 92.808594 C 88.046875 96.664062 79.996094 97.96875 72.21875 96.496094 C 67.914062 95.472656 63.613281 93.121094 61.363281 89.226562 L 61.363281 89.222656 C 59.222656 85.414062 58.160156 81.097656 58.285156 76.730469 L 58.285156 53.988281 L 66.996094 53.988281 L 66.996094 77.550781 C 67.199219 82.667969 70.476562 87.792969 75.5 89.332031 L 75.5 89.328125 C 82.109375 90.847656 89.046875 89.742188 94.855469 86.253906 C 94.855469 79.082031 94.75 68.332031 94.855469 53.988281 L 103.664062 53.988281 L 103.664062 102.445312 L 105.921875 102.445312 L 105.921875 107.769531 Z M 105.925781 107.765625 "/>
</g>
</svg>
