<?xml version="1.0" encoding="UTF-8"?>
<svg xmlns="http://www.w3.org/2000/svg" xmlns:xlink="http://www.w3.org/1999/xlink" width="168pt" height="168pt" viewBox="0 0 168 168" version="1.1">
<g id="surface956">
<path style=" stroke:none;fill-rule:nonzero;fill:rgb(96.078431%,20.392157%,18.039216%);fill-opacity:1;" d="M 168 84 C 168 130.390625 130.390625 168 84 168 C 37.609375 168 0 130.390625 0 84 C 0 37.609375 37.609375 0 84 0 C 130.390625 0 168 37.609375 168 84 "/>
<path style=" stroke:none;fill-rule:nonzero;fill:rgb(100%,100%,100%);fill-opacity:1;" d="M 31.503906 84.652344 C 31.445312 78.800781 32.34375 72.984375 34.167969 67.425781 C 36.222656 61.125 39.457031 55.269531 43.695312 50.167969 C 48.503906 44.320312 54.546875 39.605469 61.386719 36.363281 C 65.921875 34.203125 70.757812 32.746094 75.730469 32.039062 C 78.71875 31.597656 81.742188 31.429688 84.761719 31.535156 C 90.722656 31.753906 96.601562 33.027344 102.117188 35.296875 C 102.203125 35.332031 102.300781 35.371094 102.3125 35.476562 C 102.324219 35.613281 102.203125 35.65625 102.101562 35.695312 L 100.210938 36.429688 C 96.09375 38.027344 92.070312 39.859375 88.15625 41.910156 C 83.816406 44.203125 79.644531 46.777344 75.777344 49.847656 C 72.417969 52.519531 69.347656 55.492188 66.851562 59.050781 C 65.171875 61.445312 63.847656 64.015625 63.125 66.890625 C 62.199219 70.523438 62.425781 74.121094 63.476562 77.683594 C 64.25 80.320312 65.410156 82.785156 66.691406 85.191406 C 68.308594 88.238281 70.140625 91.148438 71.824219 94.152344 C 73.355469 96.882812 74.785156 99.664062 75.730469 102.683594 C 76.386719 104.789062 76.78125 106.945312 76.738281 109.160156 L 76.738281 109.164062 C 76.667969 112.035156 75.929688 114.855469 74.578125 117.390625 C 72.988281 120.457031 70.808594 123.039062 68.382812 125.421875 C 66.140625 127.621094 63.703125 129.558594 61.191406 131.40625 C 60.824219 131.679688 60.535156 131.667969 60.152344 131.46875 L 60.148438 131.46875 C 56.484375 129.609375 53.058594 127.316406 49.9375 124.640625 C 46.15625 121.394531 42.855469 117.628906 40.136719 113.453125 C 35.671875 106.59375 32.847656 98.800781 31.871094 90.679688 C 31.613281 88.679688 31.488281 86.667969 31.503906 84.652344 Z M 31.503906 84.652344 "/>
<path style=" stroke:none;fill-rule:nonzero;fill:rgb(100%,100%,100%);fill-opacity:1;" d="M 63.246094 132.515625 C 63.339844 132.289062 63.578125 132.285156 63.753906 132.222656 L 63.757812 132.222656 C 67.425781 130.878906 71.03125 129.382812 74.570312 127.726562 C 78.71875 125.773438 82.753906 123.609375 86.578125 121.085938 C 89.5625 119.148438 92.375 116.949219 94.976562 114.523438 C 97.539062 112.109375 99.804688 109.460938 101.570312 106.417969 C 103 103.949219 103.964844 101.320312 104.28125 98.480469 C 104.542969 95.898438 104.296875 93.289062 103.5625 90.796875 C 102.773438 88.019531 101.542969 85.429688 100.15625 82.90625 C 98.496094 79.878906 96.613281 76.972656 94.875 73.992188 C 93.398438 71.457031 92.023438 68.875 91.027344 66.105469 L 91.023438 66.109375 C 90.019531 63.449219 89.59375 60.605469 89.773438 57.769531 C 89.914062 55.828125 90.417969 53.957031 91.203125 52.164062 C 92.378906 49.464844 94.074219 47.109375 96.042969 44.933594 C 98.921875 41.746094 102.265625 39.105469 105.75 36.617188 C 106.132812 36.339844 106.453125 36.308594 106.878906 36.523438 C 110.585938 38.382812 114.050781 40.597656 117.246094 43.226562 C 120.515625 45.917969 123.425781 48.949219 125.960938 52.324219 L 125.964844 52.328125 C 131.984375 60.296875 135.582031 69.832031 136.316406 79.792969 C 136.433594 81.445312 136.535156 83.101562 136.488281 84.757812 L 136.488281 84.761719 C 136.375 89.589844 135.613281 94.378906 134.222656 99.003906 C 131.507812 107.898438 126.484375 115.914062 119.664062 122.234375 C 112.140625 129.207031 102.773438 133.875 92.679688 135.675781 C 89.121094 136.300781 85.515625 136.570312 81.90625 136.484375 C 75.691406 136.324219 69.554688 135.089844 63.761719 132.835938 C 63.574219 132.75 63.351562 132.730469 63.246094 132.519531 Z M 63.246094 132.515625 "/>
</g>
</svg>
