<?xml version="1.0" encoding="UTF-8"?>
<svg xmlns="http://www.w3.org/2000/svg" xmlns:xlink="http://www.w3.org/1999/xlink" width="168pt" height="168pt" viewBox="0 0 168 168" version="1.1">
<g id="surface2184">
<path style=" stroke:none;fill-rule:nonzero;fill:rgb(0%,0%,0%);fill-opacity:1;" d="M 168 84 C 168 130.390625 130.390625 168 84 168 C 37.609375 168 0 130.390625 0 84 C 0 37.609375 37.609375 0 84 0 C 130.390625 0 168 37.609375 168 84 "/>
<path style=" stroke:none;fill-rule:nonzero;fill:rgb(100%,100%,100%);fill-opacity:1;" d="M 118.199219 44.582031 L 118.199219 49.785156 L 51.503906 49.785156 L 51.503906 118.214844 L 118.199219 118.214844 L 118.199219 128.625 L 79.246094 128.324219 L 40.132812 127.878906 L 39.679688 83.554688 L 39.375 39.375 L 118.199219 39.375 Z M 118.199219 44.582031 "/>
<path style=" stroke:none;fill-rule:nonzero;fill:rgb(100%,100%,100%);fill-opacity:1;" d="M 124.414062 57.226562 C 130.324219 58.863281 135.480469 63.472656 137.144531 68.683594 C 138.054688 71.808594 137.601562 72.101562 132.292969 72.101562 C 128.199219 72.101562 125.929688 71.210938 124.566406 69.128906 C 122.292969 65.40625 111.980469 64.960938 108.953125 68.53125 C 105.621094 72.546875 109.257812 75.523438 121.082031 78.203125 C 126.992188 79.542969 133.210938 81.773438 134.875 83.257812 C 142.457031 89.953125 139.421875 104.679688 129.574219 108.695312 C 122.90625 111.371094 111.988281 111.371094 105.320312 108.695312 C 100.773438 106.761719 95.464844 100.070312 95.464844 95.90625 C 95.464844 93.230469 105.320312 94.269531 107.898438 97.390625 C 113.359375 103.492188 126.085938 102.597656 126.996094 96.050781 C 127.753906 90.996094 124.871094 88.765625 116.234375 87.71875 C 102.136719 85.785156 96.984375 81.472656 96.984375 71.652344 C 96.984375 60.050781 109.714844 53.210938 124.421875 57.226562 Z M 124.414062 57.226562 "/>
</g>
</svg>
