<?xml version="1.0" encoding="UTF-8"?>
<svg xmlns="http://www.w3.org/2000/svg" xmlns:xlink="http://www.w3.org/1999/xlink" width="168pt" height="168pt" viewBox="0 0 168 168" version="1.1">
<g id="surface1851">
<path style=" stroke:none;fill-rule:nonzero;fill:rgb(0%,44.705882%,100%);fill-opacity:1;" d="M 168 84 C 168 130.390625 130.390625 168 84 168 C 37.609375 168 0 130.390625 0 84 C 0 37.609375 37.609375 0 84 0 C 130.390625 0 168 37.609375 168 84 "/>
<path style=" stroke:none;fill-rule:nonzero;fill:rgb(100%,100%,100%);fill-opacity:1;" d="M 126.140625 67.214844 L 100.878906 123.375 L 90.78125 123.375 L 117.371094 64.261719 L 117.375 64.261719 C 120.4375 64.757812 123.402344 65.753906 126.140625 67.214844 Z M 81.9375 34.222656 L 43.070312 120.632812 C 33.160156 115.929688 26.25 105.625 26.25 93.625 C 26.25 77.191406 39.175781 63.878906 55.125 63.878906 C 55.125 48.15625 66.957031 35.320312 81.9375 34.226562 Z M 112.882812 63.875 L 86.109375 123.375 L 75.171875 123.375 L 108.78125 48.667969 C 111.371094 53.121094 112.875 58.308594 112.875 63.878906 Z M 122.828125 121.53125 L 139.976562 83.4375 C 141.109375 86.628906 141.757812 90.050781 141.757812 93.636719 C 141.757812 106.4375 133.882812 117.339844 122.832031 121.53125 Z M 130.398438 70.007812 C 132.792969 71.898438 134.914062 74.144531 136.625 76.722656 L 115.699219 123.226562 L 115.695312 123.226562 C 114.757812 123.328125 113.820312 123.375 112.878906 123.375 L 106.390625 123.375 L 130.394531 70.007812 Z M 84.105469 34.125 C 88.199219 34.140625 92.082031 35.039062 95.601562 36.648438 L 56.59375 123.375 L 55.125 123.375 C 51.503906 123.375 48.039062 122.660156 44.851562 121.394531 Z M 106.507812 45.246094 L 71.359375 123.375 L 59.566406 123.375 L 98.03125 37.878906 C 101.296875 39.757812 104.171875 42.269531 106.503906 45.246094 Z M 106.507812 45.246094 "/>
</g>
</svg>
