<?xml version="1.0" encoding="UTF-8"?>
<svg xmlns="http://www.w3.org/2000/svg" xmlns:xlink="http://www.w3.org/1999/xlink" width="168pt" height="168pt" viewBox="0 0 168 168" version="1.1">
<g id="surface471">
<path style=" stroke:none;fill-rule:evenodd;fill:rgb(99.215686%,65.098039%,8.627451%);fill-opacity:1;" d="M 168 84 C 168 130.390625 130.390625 168 84 168 C 37.609375 168 0 130.390625 0 84 C 0 37.609375 37.609375 0 84 0 C 130.390625 0 168 37.609375 168 84 "/>
<path style=" stroke:none;fill-rule:nonzero;fill:rgb(100%,100%,100%);fill-opacity:1;" d="M 62.585938 115.5 C 63.199219 117.410156 70.800781 125.285156 78.714844 125.285156 C 90.441406 125.285156 97.292969 118.207031 97.292969 107.96875 C 97.292969 98.488281 92.546875 93.070312 80.554688 87.796875 C 66.058594 81.925781 57.097656 73.34375 57.097656 59.042969 C 57.097656 43.246094 68.566406 31.5 85.828125 31.5 C 94.921875 31.5 104.136719 37.222656 107.191406 41.042969 L 99.855469 48.683594 C 96.957031 46.878906 93.476562 42.335938 85.433594 42.335938 C 73.3125 42.335938 68.695312 50.613281 68.695312 57.539062 C 68.695312 67.027344 74.101562 71.691406 86.351562 77.109375 C 101.378906 83.734375 109.019531 92.015625 109.019531 106.914062 C 109.019531 122.574219 98.8125 136.496094 77.859375 136.496094 C 69.292969 136.496094 60.140625 130.773438 54.636719 123.769531 Z M 72.363281 61.410156 C 70.53125 57.59375 71.753906 53.777344 71.753906 53.777344 C 118.183594 46.136719 109.632812 91.316406 109.632812 91.316406 C 105.96875 84.324219 102.304688 83.046875 102.304688 83.046875 C 102.914062 56.953125 72.363281 61.410156 72.363281 61.410156 Z M 93.136719 102.773438 C 94.972656 107.230469 92.851562 111.867188 92.851562 111.867188 C 39.984375 118.683594 54.265625 70.339844 54.25 70.339844 C 57.054688 77.761719 60.539062 79.5 60.539062 79.5 C 59.542969 109.773438 93.136719 102.773438 93.136719 102.773438 Z M 93.136719 102.773438 "/>
</g>
</svg>
