<?xml version="1.0" encoding="UTF-8"?>
<svg xmlns="http://www.w3.org/2000/svg" xmlns:xlink="http://www.w3.org/1999/xlink" width="168pt" height="168pt" viewBox="0 0 168 168" version="1.1">
<g id="surface141">
<path style=" stroke:none;fill-rule:evenodd;fill:rgb(55.686275%,58.039216%,58.431373%);fill-opacity:1;" d="M 168 84 C 168 130.390625 130.390625 168 84 168 C 37.609375 168 0 130.390625 0 84 C 0 37.609375 37.609375 0 84 0 C 130.390625 0 168 37.609375 168 84 "/>
<path style=" stroke:none;fill-rule:nonzero;fill:rgb(100%,100%,100%);fill-opacity:1;" d="M 40.019531 108.734375 C 38.816406 106.140625 37.925781 103.414062 37.363281 100.609375 C 37.039062 99.136719 36.835938 97.636719 36.75 96.128906 L 41.445312 96.128906 C 41.550781 97.339844 41.726562 98.546875 41.96875 99.738281 C 42.476562 102.199219 43.246094 104.648438 44.292969 106.878906 C 47.105469 112.84375 51.378906 116.246094 57.585938 116.246094 C 62.4375 116.246094 66.195312 114.304688 68.84375 110.878906 C 71.089844 107.984375 72.359375 104.148438 72.359375 100.925781 C 72.359375 96.792969 70.792969 93.75 67.671875 91.171875 C 65.132812 89.070312 62.207031 87.601562 56.167969 85.09375 L 55.101562 84.652344 C 48.824219 82.054688 45.925781 80.625 43.105469 78.398438 C 39.210938 75.320312 37.140625 71.503906 37.140625 66.617188 C 37.140625 60.761719 39.246094 55.800781 43.015625 52.296875 L 43.019531 52.296875 C 46.59375 49.023438 51.269531 47.222656 56.117188 47.25 C 62.835938 47.25 67.964844 50.046875 71.378906 54.953125 L 71.378906 48.285156 L 86.539062 48.285156 L 86.539062 115.207031 L 91.042969 115.207031 L 91.042969 96.429688 L 91.046875 96.425781 C 91.039062 96.273438 91.039062 96.117188 91.046875 95.964844 L 95.742188 96.121094 L 95.742188 96.355469 L 95.738281 96.359375 C 95.832031 97.496094 95.988281 98.628906 96.210938 99.75 C 96.699219 102.191406 97.457031 104.644531 98.503906 106.875 C 101.300781 112.832031 105.582031 116.242188 111.78125 116.242188 C 116.632812 116.242188 120.390625 114.300781 123.039062 110.875 C 125.285156 107.980469 126.554688 104.144531 126.554688 100.921875 C 126.554688 96.789062 124.988281 93.746094 121.867188 91.167969 C 119.328125 89.066406 116.402344 87.597656 110.363281 85.089844 L 109.296875 84.648438 C 103.019531 82.050781 100.121094 80.621094 97.300781 78.394531 C 93.40625 75.316406 91.335938 71.5 91.335938 66.613281 C 91.335938 60.757812 93.441406 55.796875 97.210938 52.292969 L 97.214844 52.289062 C 100.789062 49.019531 105.46875 47.21875 110.3125 47.25 C 117.03125 47.25 122.160156 50.046875 125.574219 54.953125 L 125.574219 48.566406 L 130.273438 48.566406 L 130.273438 71.78125 L 125.574219 71.78125 C 125.574219 66.929688 124.460938 62.015625 122.273438 58.386719 C 119.691406 54.097656 115.804688 51.757812 110.3125 51.757812 C 106.675781 51.734375 103.164062 53.078125 100.480469 55.527344 C 97.644531 58.171875 96.035156 61.957031 96.035156 66.609375 C 96.035156 70.074219 97.433594 72.648438 100.289062 74.90625 C 102.652344 76.769531 105.296875 78.070312 111.160156 80.503906 L 112.226562 80.945312 C 118.699219 83.628906 121.90625 85.25 124.929688 87.742188 C 129.0625 91.15625 131.25 95.429688 131.25 100.917969 C 131.25 105.097656 129.664062 109.875 126.808594 113.570312 C 123.296875 118.101562 118.167969 120.746094 111.78125 120.746094 C 107.355469 120.746094 103.558594 119.402344 100.441406 116.914062 L 100.441406 116.917969 C 98.578125 115.410156 96.984375 113.585938 95.738281 111.535156 L 95.738281 119.714844 L 81.847656 119.714844 L 81.847656 52.792969 L 76.074219 52.792969 L 76.074219 71.78125 L 71.378906 71.78125 C 71.378906 66.929688 70.265625 62.015625 68.078125 58.386719 C 65.496094 54.097656 61.609375 51.757812 56.117188 51.757812 C 52.480469 51.734375 48.96875 53.078125 46.285156 55.527344 C 43.449219 58.171875 41.839844 61.957031 41.839844 66.609375 C 41.839844 70.074219 43.238281 72.648438 46.09375 74.90625 C 48.457031 76.769531 51.101562 78.070312 56.964844 80.503906 L 58.03125 80.945312 C 64.503906 83.628906 67.710938 85.25 70.734375 87.742188 C 74.867188 91.15625 77.054688 95.429688 77.054688 100.917969 C 77.054688 105.097656 75.46875 109.875 72.613281 113.570312 C 69.101562 118.101562 63.972656 120.746094 57.585938 120.746094 C 53.160156 120.746094 49.363281 119.402344 46.246094 116.914062 L 46.246094 116.917969 C 44.335938 115.371094 42.707031 113.5 41.445312 111.390625 L 41.445312 119.433594 L 36.75 119.433594 L 36.75 96.125 L 41.445312 96.125 L 41.445312 111.390625 C 40.921875 110.53125 40.445312 109.644531 40.019531 108.734375 Z M 40.019531 108.734375 "/>
</g>
</svg>
