<?xml version="1.0" encoding="UTF-8"?>
<svg xmlns="http://www.w3.org/2000/svg" xmlns:xlink="http://www.w3.org/1999/xlink" width="168pt" height="168pt" viewBox="0 0 168 168" version="1.1">
<g id="surface441">
<path style=" stroke:none;fill-rule:nonzero;fill:rgb(99.607843%,77.647059%,5.098039%);fill-opacity:1;" d="M 168 84 C 168 130.390625 130.390625 168 84 168 C 37.609375 168 0 130.390625 0 84 C 0 37.609375 37.609375 0 84 0 C 130.390625 0 168 37.609375 168 84 "/>
<path style=" stroke:none;fill-rule:nonzero;fill:rgb(100%,100%,100%);fill-opacity:1;" d="M 140 53.273438 L 121.949219 42.882812 C 121.328125 42.515625 120.757812 42.195312 120.144531 41.84375 C 119.546875 41.503906 118.964844 41.136719 118.355469 40.785156 C 114.738281 38.714844 111.109375 36.710938 107.535156 34.570312 L 90.386719 24.667969 C 89.390625 24.0625 84.234375 21.035156 84.011719 21.035156 C 83.921875 21.035156 83.269531 21.457031 83.128906 21.542969 L 59.703125 35.035156 C 59.363281 35.230469 59.125 35.382812 58.777344 35.570312 L 58.785156 35.570312 C 58.488281 35.734375 58.191406 35.90625 57.902344 36.082031 L 56.105469 37.132812 C 55.800781 37.316406 55.492188 37.496094 55.183594 37.675781 L 53.417969 38.695312 C 52.796875 39.0625 52.214844 39.378906 51.605469 39.730469 L 47.976562 41.804688 C 47.660156 41.96875 47.398438 42.140625 47.09375 42.3125 L 42.558594 44.9375 C 41.929688 45.304688 41.347656 45.609375 40.730469 45.960938 L 37.144531 48.078125 C 35.34375 49.105469 33.539062 50.203125 31.710938 51.195312 C 30.90625 51.625 26.691406 54.199219 26.277344 54.308594 L 26.277344 121.058594 C 26.613281 121.089844 31.222656 123.835938 31.699219 124.121094 L 38.921875 128.300781 C 39.527344 128.667969 40.128906 129 40.726562 129.34375 L 44.296875 131.402344 C 44.601562 131.558594 44.875 131.738281 45.1875 131.910156 C 45.535156 132.097656 45.757812 132.261719 46.113281 132.433594 C 47.03125 132.90625 47.914062 133.46875 48.789062 134 L 53.335938 136.621094 C 53.652344 136.792969 53.902344 136.945312 54.210938 137.128906 C 55.984375 138.199219 57.828125 139.160156 59.597656 140.226562 L 65.933594 143.902344 C 70.117188 146.375 74.386719 148.679688 78.550781 151.179688 L 83.5 154.046875 C 84.289062 154.578125 84.578125 153.980469 85.816406 153.300781 L 96.664062 147.042969 C 97.261719 146.695312 97.84375 146.359375 98.476562 146.007812 L 100.246094 144.996094 C 100.546875 144.832031 100.824219 144.660156 101.121094 144.476562 L 111.070312 138.71875 C 114.042969 136.9375 117.109375 135.328125 120.078125 133.542969 L 139.886719 122.066406 C 140.175781 121.894531 140.464844 121.71875 140.769531 121.550781 C 141.085938 121.382812 141.382812 121.148438 141.742188 121.066406 L 141.75 54.304688 C 141.1875 53.925781 140.605469 53.636719 140 53.269531 Z M 104.351562 118.605469 L 87.472656 118.605469 L 87.472656 123.027344 C 87.472656 123.078125 87.453125 123.09375 87.398438 123.09375 L 79.261719 123.09375 L 79.261719 118.605469 L 63.675781 118.605469 L 63.675781 106.109375 C 63.675781 105.976562 63.832031 105.867188 63.910156 105.792969 L 65.492188 104.085938 C 65.539062 104.042969 65.585938 104 65.625 103.949219 C 65.660156 103.898438 65.703125 103.851562 65.746094 103.808594 L 66.664062 102.832031 L 66.675781 102.816406 L 66.949219 102.539062 L 67.070312 102.390625 L 67.363281 102.082031 L 67.394531 102.046875 L 68.375 100.988281 C 68.585938 100.773438 68.796875 100.566406 68.996094 100.332031 L 69.007812 100.320312 L 69.039062 100.277344 L 69.699219 99.574219 C 69.792969 99.46875 69.867188 99.410156 69.957031 99.296875 L 70.753906 98.445312 L 70.886719 98.3125 C 70.929688 98.265625 70.96875 98.214844 71.007812 98.164062 L 72.347656 96.734375 L 72.359375 96.722656 L 72.390625 96.6875 L 72.59375 96.476562 C 72.855469 96.140625 73.328125 95.71875 73.605469 95.382812 L 73.636719 95.339844 C 73.726562 95.234375 73.824219 95.160156 73.910156 95.0625 L 74.429688 94.5 C 74.796875 94.132812 75.113281 93.734375 75.480469 93.367188 L 76.660156 92.097656 L 76.792969 91.964844 L 77.308594 91.398438 C 77.410156 91.296875 77.503906 91.226562 77.582031 91.121094 C 77.660156 91.015625 77.761719 90.941406 77.851562 90.835938 L 78.371094 90.273438 C 78.421875 90.222656 78.464844 90.183594 78.511719 90.125 L 78.90625 89.699219 C 78.984375 89.59375 79.085938 89.519531 79.175781 89.414062 C 79.40625 89.15625 80.066406 88.480469 80.210938 88.289062 C 80.296875 88.183594 80.394531 88.121094 80.46875 88.015625 L 80.460938 88.027344 C 80.253906 87.773438 80.03125 87.53125 79.792969 87.300781 L 79.277344 86.734375 L 79.140625 86.601562 C 79.089844 86.539062 79.074219 86.507812 79.007812 86.445312 C 78.605469 86.035156 78.230469 85.601562 77.820312 85.183594 L 77.164062 84.476562 L 77.167969 84.476562 C 77.132812 84.425781 77.089844 84.378906 77.042969 84.335938 L 71.003906 77.859375 L 71.007812 77.859375 C 70.964844 77.800781 70.921875 77.75 70.875 77.699219 L 69.984375 76.738281 L 69.972656 76.726562 L 67.992188 74.59375 C 67.949219 74.542969 67.90625 74.507812 67.859375 74.460938 L 67.335938 73.882812 C 66.980469 73.515625 66.636719 73.117188 66.277344 72.753906 L 66.160156 72.628906 L 66.148438 72.617188 L 65.761719 72.191406 C 65.582031 71.996094 65.394531 71.820312 65.222656 71.625 C 65.164062 71.5625 65.15625 71.53125 65.089844 71.46875 C 64.734375 71.105469 64.40625 70.710938 64.039062 70.355469 C 63.996094 70.304688 63.953125 70.269531 63.914062 70.222656 C 63.867188 70.171875 63.679688 69.988281 63.679688 69.929688 L 63.679688 57.386719 L 79.261719 57.386719 L 79.257812 52.183594 C 82 52.183594 84.707031 52.234375 87.449219 52.234375 L 87.449219 57.222656 C 87.449219 57.28125 87.464844 57.300781 87.523438 57.300781 L 104.355469 57.300781 L 104.355469 69.957031 L 81.132812 69.957031 C 81.269531 70.167969 81.480469 70.339844 81.640625 70.527344 L 82.933594 71.945312 C 83.011719 72.050781 83.097656 72.125 83.1875 72.230469 C 83.40625 72.492188 83.65625 72.71875 83.871094 72.980469 L 85.75 75.042969 C 86.117188 75.398438 86.433594 75.804688 86.785156 76.171875 L 91.578125 81.4375 L 91.609375 81.480469 L 93.324219 83.371094 L 93.457031 83.496094 C 93.6875 83.726562 93.878906 83.988281 94.109375 84.21875 L 97.195312 87.59375 C 97.320312 87.730469 97.457031 87.855469 97.5625 88.015625 C 97.515625 88.089844 97.476562 88.109375 97.421875 88.171875 L 97.417969 88.179688 C 97.382812 88.230469 97.339844 88.277344 97.296875 88.320312 L 96.652344 89.019531 C 96.617188 89.070312 96.574219 89.117188 96.53125 89.160156 L 94.984375 90.855469 C 94.878906 90.957031 94.828125 91.039062 94.722656 91.140625 C 94.511719 91.351562 94.199219 91.746094 93.949219 91.980469 L 92.867188 93.183594 C 92.652344 93.441406 92.074219 94.011719 91.902344 94.234375 L 90.363281 95.914062 C 90.03125 96.316406 89.660156 96.664062 89.324219 97.0625 L 88.695312 97.746094 C 88.378906 98.066406 88.105469 98.40625 87.804688 98.734375 C 87.753906 98.785156 87.710938 98.824219 87.664062 98.882812 C 87.308594 99.285156 86.917969 99.671875 86.566406 100.089844 L 86.515625 100.152344 L 85.167969 101.617188 L 85.136719 101.652344 L 85.089844 101.703125 L 85.078125 101.71875 L 84.457031 102.402344 L 84.453125 102.402344 C 84.40625 102.445312 84.367188 102.488281 84.332031 102.539062 C 84.289062 102.585938 84.246094 102.632812 84.199219 102.675781 C 83.929688 102.9375 83.699219 103.253906 83.433594 103.515625 C 83.390625 103.558594 83.347656 103.605469 83.3125 103.65625 L 82.796875 104.222656 C 82.753906 104.273438 82.710938 104.308594 82.664062 104.355469 L 81.132812 106.046875 L 103.707031 106.046875 C 103.921875 106.046875 104.351562 105.996094 104.351562 106.113281 L 104.351562 118.609375 Z M 104.351562 118.605469 "/>
</g>
</svg>
