<?xml version="1.0" encoding="UTF-8"?>
<svg xmlns="http://www.w3.org/2000/svg" xmlns:xlink="http://www.w3.org/1999/xlink" width="168pt" height="168pt" viewBox="0 0 168 168" version="1.1">
<g id="surface386">
<path style=" stroke:none;fill-rule:evenodd;fill:rgb(70.196078%,5.098039%,13.72549%);fill-opacity:1;" d="M 168 84 C 168 130.390625 130.390625 168 84 168 C 37.609375 168 0 130.390625 0 84 C 0 37.609375 37.609375 0 84 0 C 130.390625 0 168 37.609375 168 84 "/>
<path style=" stroke:none;fill-rule:nonzero;fill:rgb(100%,100%,100%);fill-opacity:1;" d="M 88.792969 111.476562 L 83.898438 120.589844 L 79.003906 111.476562 C 49.449219 109.183594 26.25 87.144531 26.25 87.144531 C 26.25 87.09375 48.792969 65.734375 77.746094 62.921875 L 81.578125 56.359375 L 83.898438 52.5 L 87.835938 59.0625 L 90.050781 62.921875 C 119 65.683594 141.546875 87.144531 141.546875 87.144531 C 141.546875 87.144531 118.34375 109.183594 88.785156 111.476562 Z M 31.144531 87.144531 C 31.09375 87.144531 53.4375 102.410156 75.878906 105.640625 L 64.9375 85.164062 L 67.910156 80.007812 L 70.640625 85.109375 L 70.589844 85.160156 L 81.230469 106.109375 C 82.085938 106.160156 82.941406 106.160156 83.804688 106.160156 C 84.660156 106.160156 85.46875 106.160156 86.324219 106.109375 L 94.140625 90.527344 L 99.84375 79.902344 L 102.816406 85.058594 L 91.875 105.585938 C 114.320312 102.410156 136.65625 87.511719 136.65625 87.089844 C 136.65625 86.722656 115.378906 72.503906 93.484375 68.855469 L 96.8125 74.640625 L 94.039062 80.210938 L 86.824219 68.125 L 86.824219 68.128906 C 85.851562 68.066406 84.875 68.035156 83.898438 68.023438 C 82.9375 68.023438 81.929688 68.074219 80.921875 68.128906 L 73.554688 80.214844 L 70.835938 74.902344 L 74.3125 68.910156 C 52.425781 72.613281 31.140625 87.144531 31.140625 87.144531 Z M 31.144531 87.144531 "/>
</g>
</svg>
