<?xml version="1.0" encoding="UTF-8"?>
<svg xmlns="http://www.w3.org/2000/svg" xmlns:xlink="http://www.w3.org/1999/xlink" width="168pt" height="168pt" viewBox="0 0 168 168" version="1.1">
<g id="surface871">
<path style=" stroke:none;fill-rule:nonzero;fill:rgb(4.313725%,10.980392%,14.901961%);fill-opacity:1;" d="M 168 84 C 168 130.390625 130.390625 168 84 168 C 37.609375 168 0 130.390625 0 84 C 0 37.609375 37.609375 0 84 0 C 130.390625 0 168 37.609375 168 84 "/>
<path style=" stroke:none;fill-rule:nonzero;fill:rgb(100%,100%,100%);fill-opacity:1;" d="M 84 141.75 C 52.144531 141.65625 26.25 115.800781 26.25 84 C 26.25 52.199219 52.144531 26.34375 84 26.25 C 115.855469 26.34375 141.75 52.199219 141.75 84 C 141.75 115.800781 115.855469 141.6875 84 141.75 Z M 135.214844 93.1875 C 133.945312 96.113281 130.570312 97.484375 127.621094 96.273438 C 129.664062 98.40625 130.9375 101.265625 130.9375 104.410156 C 130.9375 105.335938 130.8125 106.195312 130.621094 107.054688 C 132.785156 102.664062 134.332031 98 135.210938 93.1875 Z M 129.859375 93.765625 C 131.460938 93.769531 132.757812 92.472656 132.761719 90.871094 C 132.765625 89.273438 131.46875 87.972656 129.871094 87.96875 C 128.269531 87.964844 126.96875 89.257812 126.964844 90.859375 C 126.960938 92.460938 128.253906 93.761719 129.851562 93.765625 Z M 131.160156 62.125 C 134.070312 70.269531 132.417969 79.347656 126.824219 85.941406 C 127.730469 85.390625 128.765625 85.09375 129.828125 85.082031 C 132.855469 85.082031 135.339844 87.402344 135.597656 90.394531 C 135.855469 88.292969 136.011719 86.195312 136.011719 84.03125 C 136.046875 76.457031 134.390625 68.972656 131.160156 62.125 Z M 128.199219 70.230469 C 128.1875 64.910156 126.066406 59.8125 122.296875 56.054688 C 118.53125 52.300781 113.425781 50.191406 108.109375 50.195312 C 102.789062 50.191406 97.683594 52.300781 93.917969 56.054688 C 90.152344 59.8125 88.027344 64.910156 88.015625 70.230469 C 88.027344 75.546875 90.152344 80.644531 93.917969 84.402344 C 97.683594 88.15625 102.789062 90.265625 108.109375 90.261719 C 113.425781 90.261719 118.527344 88.152344 122.292969 84.394531 C 126.058594 80.640625 128.183594 75.546875 128.199219 70.230469 Z M 107.308594 104.421875 C 107.308594 100.0625 109.722656 96.058594 113.59375 94.027344 C 108.691406 95.167969 103.558594 94.765625 98.894531 92.878906 C 102.859375 95.917969 105.796875 100.105469 107.308594 104.867188 C 107.339844 104.671875 107.308594 104.546875 107.308594 104.421875 Z M 108.457031 112.179688 L 108.460938 112.183594 C 108.453125 114.109375 108.21875 116.03125 107.757812 117.90625 C 108.714844 116 110.660156 114.792969 112.796875 114.792969 C 113.097656 114.789062 113.394531 114.820312 113.6875 114.886719 C 111.230469 113.625 109.292969 111.542969 108.203125 109.003906 C 108.371094 110.054688 108.457031 111.113281 108.460938 112.179688 Z M 119.105469 111.828125 L 119.105469 111.832031 C 123.210938 111.835938 126.546875 108.527344 126.570312 104.421875 C 126.570312 100.320312 123.222656 97.015625 119.105469 97.015625 C 114.988281 97.015625 111.675781 100.355469 111.675781 104.417969 C 111.675781 108.523438 115.023438 111.832031 119.109375 111.832031 Z M 124.015625 90.90625 C 124.027344 89.925781 124.277344 88.964844 124.75 88.101562 L 124.75 88.105469 C 122.632812 90.0625 120.195312 91.644531 117.542969 92.777344 C 118.058594 92.71875 118.566406 92.65625 119.109375 92.65625 L 119.105469 92.65625 C 121.226562 92.652344 123.3125 93.222656 125.132812 94.3125 C 124.40625 93.324219 124.015625 92.128906 124.019531 90.902344 Z M 83.996094 87.757812 C 87.144531 87.757812 90.265625 88.363281 93.183594 89.539062 C 88.28125 85.785156 84.996094 80.300781 83.996094 74.207031 C 82.992188 80.300781 79.707031 85.777344 74.8125 89.539062 C 77.734375 88.375 80.851562 87.769531 84 87.753906 Z M 83.996094 55.347656 L 83.996094 55.351562 C 81.773438 55.355469 79.59375 54.726562 77.714844 53.539062 C 81.027344 57.035156 83.214844 61.4375 84 66.1875 C 84.804688 61.441406 86.992188 57.042969 90.285156 53.535156 C 88.402344 54.722656 86.222656 55.351562 84 55.34375 Z M 95.925781 43.457031 C 95.925781 46.117188 95.027344 48.707031 93.375 50.808594 L 93.371094 50.808594 C 95.851562 48.933594 98.667969 47.550781 101.667969 46.734375 C 101.535156 46.734375 101.441406 46.765625 101.347656 46.765625 C 98.890625 46.765625 96.78125 45.242188 95.925781 43.074219 C 95.898438 43.199219 95.925781 43.332031 95.925781 43.457031 Z M 104.980469 36.433594 C 106.292969 37.515625 107.148438 39.101562 107.148438 40.917969 C 107.148438 43.21875 105.785156 45.300781 103.671875 46.226562 C 107.902344 45.449219 112.261719 45.796875 116.3125 47.234375 C 120.367188 48.675781 123.96875 51.160156 126.757812 54.433594 C 121.273438 46.5625 113.746094 40.335938 104.984375 36.429688 Z M 101.316406 38.054688 L 101.316406 38.058594 C 99.714844 38.054688 98.414062 39.347656 98.410156 40.949219 C 98.402344 42.546875 99.699219 43.847656 101.296875 43.851562 C 102.902344 43.859375 104.203125 42.5625 104.207031 40.960938 C 104.210938 39.359375 102.917969 38.054688 101.316406 38.050781 Z M 87.601562 32.105469 L 87.601562 32.109375 C 91.503906 33.347656 94.492188 36.507812 95.511719 40.472656 C 95.734375 37.445312 98.253906 35.101562 101.289062 35.097656 C 101.480469 35.101562 101.667969 35.121094 101.855469 35.160156 C 97.269531 33.488281 92.472656 32.460938 87.601562 32.109375 Z M 76.472656 43.457031 L 76.472656 43.460938 C 76.578125 47.539062 79.917969 50.789062 83.996094 50.789062 C 88.078125 50.789062 91.414062 47.539062 91.523438 43.460938 C 91.371094 39.414062 88.046875 36.210938 84 36.210938 C 79.953125 36.210938 76.628906 39.414062 76.476562 43.460938 Z M 66.113281 35.15625 L 66.113281 35.160156 C 66.300781 35.121094 66.492188 35.101562 66.683594 35.097656 C 69.726562 35.089844 72.25 37.441406 72.460938 40.472656 C 73.480469 36.507812 76.46875 33.347656 80.367188 32.109375 C 75.390625 32.488281 70.601562 33.507812 66.113281 35.160156 Z M 72.070312 43.457031 L 72.070312 43.460938 C 72.066406 43.332031 72.078125 43.203125 72.101562 43.078125 C 71.222656 45.300781 69.078125 46.761719 66.683594 46.765625 C 66.550781 46.765625 66.457031 46.734375 66.363281 46.734375 C 69.355469 47.554688 72.175781 48.9375 74.660156 50.804688 C 72.984375 48.722656 72.070312 46.132812 72.070312 43.460938 Z M 63.78125 40.941406 L 63.78125 40.945312 C 63.785156 42.546875 65.082031 43.839844 66.683594 43.839844 C 68.285156 43.839844 69.578125 42.539062 69.578125 40.941406 C 69.578125 39.339844 68.277344 38.042969 66.675781 38.042969 C 65.078125 38.046875 63.78125 39.34375 63.78125 40.945312 Z M 41.238281 54.460938 L 41.238281 54.464844 C 44.019531 51.183594 47.621094 48.695312 51.675781 47.253906 C 55.730469 45.8125 60.09375 45.46875 64.324219 46.257812 C 62.46875 45.449219 61.175781 43.730469 60.90625 41.726562 C 60.640625 39.722656 61.441406 37.726562 63.015625 36.460938 C 54.242188 40.347656 46.707031 46.574219 41.238281 54.464844 Z M 39.800781 70.230469 L 39.800781 70.234375 C 39.8125 75.554688 41.933594 80.652344 45.703125 84.40625 C 49.46875 88.164062 54.574219 90.269531 59.890625 90.269531 C 65.210938 90.269531 70.316406 88.164062 74.082031 84.40625 C 77.847656 80.652344 79.972656 75.554688 79.984375 70.234375 C 79.972656 64.914062 77.847656 59.816406 74.082031 56.0625 C 70.316406 52.304688 65.210938 50.199219 59.890625 50.199219 C 48.824219 50.230469 39.800781 59.199219 39.800781 70.234375 Z M 60.691406 104.417969 C 60.691406 104.542969 60.660156 104.707031 60.660156 104.832031 L 60.660156 104.835938 C 62.179688 100.078125 65.113281 95.894531 69.074219 92.847656 C 64.410156 94.730469 59.273438 95.132812 54.375 93.992188 C 58.25 96.027344 60.683594 100.042969 60.691406 104.421875 Z M 43.980469 90.898438 C 43.984375 92.132812 43.582031 93.328125 42.832031 94.300781 L 42.828125 94.304688 C 44.652344 93.222656 46.734375 92.652344 48.855469 92.65625 C 49.378906 92.652344 49.90625 92.691406 50.421875 92.78125 L 50.421875 92.785156 C 47.757812 91.671875 45.316406 90.089844 43.210938 88.109375 C 43.714844 88.949219 43.976562 89.921875 43.976562 90.902344 Z M 41.429688 104.417969 L 41.429688 104.421875 C 41.429688 108.523438 44.753906 111.851562 48.855469 111.851562 C 52.960938 111.851562 56.285156 108.523438 56.285156 104.421875 C 56.285156 100.316406 52.941406 97.007812 48.855469 97.007812 C 46.886719 97.003906 44.996094 97.78125 43.601562 99.171875 C 42.207031 100.5625 41.425781 102.453125 41.429688 104.421875 Z M 54.28125 114.882812 C 54.570312 114.851562 54.859375 114.78125 55.171875 114.78125 C 57.308594 114.785156 59.257812 115.988281 60.210938 117.898438 L 60.210938 117.90625 C 59.75 116.03125 59.515625 114.109375 59.507812 112.183594 C 59.519531 111.105469 59.59375 110.03125 59.734375 108.96875 C 58.667969 111.519531 56.742188 113.613281 54.28125 114.886719 Z M 32.371094 90.367188 C 32.632812 87.371094 35.136719 85.066406 38.148438 85.054688 C 39.203125 85.058594 40.242188 85.359375 41.140625 85.914062 L 41.140625 85.917969 C 35.542969 79.320312 33.890625 70.242188 36.800781 62.097656 C 32.679688 70.910156 31.144531 80.710938 32.371094 90.363281 Z M 38.144531 88.011719 L 38.148438 88.011719 C 36.546875 88.007812 35.246094 89.304688 35.242188 90.902344 C 35.242188 92.503906 36.535156 93.804688 38.136719 93.808594 C 39.738281 93.808594 41.035156 92.515625 41.039062 90.914062 C 41.042969 89.3125 39.746094 88.015625 38.148438 88.011719 Z M 37.066406 104.421875 C 37.066406 101.375 38.253906 98.457031 40.378906 96.285156 C 37.429688 97.492188 34.054688 96.121094 32.785156 93.199219 C 33.675781 98.09375 35.214844 102.738281 37.378906 107.058594 C 37.175781 106.195312 37.070312 105.308594 37.066406 104.421875 Z M 51.988281 115.773438 L 51.984375 115.773438 C 48.050781 116.847656 43.84375 115.8125 40.855469 113.039062 C 43.636719 117.148438 46.988281 120.839844 50.804688 124.011719 C 49.96875 123.011719 49.507812 121.753906 49.496094 120.449219 C 49.496094 118.574219 50.429688 116.828125 51.984375 115.777344 Z M 52.433594 120.445312 C 52.433594 121.960938 53.660156 123.1875 55.171875 123.1875 C 56.6875 123.1875 57.914062 121.960938 57.914062 120.445312 C 57.914062 118.933594 56.6875 117.703125 55.171875 117.703125 C 53.660156 117.703125 52.433594 118.933594 52.433594 120.445312 Z M 76.957031 135.554688 L 76.953125 135.554688 C 69.371094 133.261719 63.363281 127.445312 60.820312 119.941406 C 60.820312 120.097656 60.882812 120.257812 60.882812 120.449219 C 60.882812 122.398438 59.878906 124.210938 58.226562 125.246094 C 56.574219 126.28125 54.507812 126.390625 52.753906 125.542969 C 59.832031 130.890625 68.164062 134.335938 76.953125 135.554688 Z M 104.0625 112.183594 L 104.058594 112.183594 C 104.058594 105.015625 100.238281 98.394531 94.03125 94.8125 C 87.824219 91.230469 80.179688 91.230469 73.972656 94.8125 C 67.769531 98.394531 63.945312 105.015625 63.945312 112.183594 C 63.957031 117.496094 66.074219 122.585938 69.832031 126.339844 C 73.59375 130.097656 78.6875 132.207031 84 132.210938 C 89.3125 132.199219 94.40625 130.085938 98.164062 126.332031 C 101.921875 122.578125 104.039062 117.488281 104.054688 112.175781 Z M 115.285156 125.539062 C 113.527344 126.394531 111.457031 126.285156 109.796875 125.25 C 108.144531 124.214844 107.144531 122.398438 107.152344 120.449219 C 107.15625 120.28125 107.179688 120.109375 107.214844 119.941406 C 104.671875 127.445312 98.660156 133.261719 91.078125 135.554688 C 99.863281 134.320312 108.191406 130.875 115.28125 125.539062 Z M 115.574219 120.445312 C 115.574219 119.335938 114.90625 118.339844 113.882812 117.914062 C 112.859375 117.488281 111.679688 117.722656 110.898438 118.503906 C 110.113281 119.289062 109.878906 120.464844 110.300781 121.492188 C 110.722656 122.515625 111.71875 123.183594 112.828125 123.1875 C 114.335938 123.175781 115.554688 121.957031 115.566406 120.449219 Z M 127.144531 113.042969 C 124.15625 115.820312 119.945312 116.851562 116.015625 115.773438 C 117.570312 116.824219 118.503906 118.578125 118.503906 120.445312 C 118.503906 121.816406 117.996094 123.023438 117.195312 124.011719 C 121.011719 120.839844 124.363281 117.148438 127.144531 113.039062 Z M 127.144531 113.042969 "/>
</g>
</svg>
