<?xml version="1.0" encoding="UTF-8"?>
<svg xmlns="http://www.w3.org/2000/svg" xmlns:xlink="http://www.w3.org/1999/xlink" width="168pt" height="168pt" viewBox="0 0 168 168" version="1.1">
<g id="surface1296">
<path style=" stroke:none;fill-rule:nonzero;fill:rgb(35.686275%,42.745098%,93.333333%);fill-opacity:1;" d="M 168 84 C 168 130.390625 130.390625 168 84 168 C 37.609375 168 0 130.390625 0 84 C 0 37.609375 37.609375 0 84 0 C 130.390625 0 168 37.609375 168 84 "/>
<path style=" stroke:none;fill-rule:nonzero;fill:rgb(100%,100%,100%);fill-opacity:1;" d="M 69.824219 78.855469 C 66.894531 78.839844 63.972656 79.09375 61.089844 79.609375 C 63.460938 57.664062 81.753906 41.042969 103.53125 41.042969 C 116.867188 41.042969 126 47.574219 126 61.085938 C 126 74.605469 115.03125 81.136719 99.035156 81.136719 C 87.222656 81.136719 81.636719 78.859375 69.824219 78.859375 M 68.964844 86.859375 C 52.96875 86.859375 42 93.398438 42 106.910156 C 42 120.421875 51.136719 126.953125 64.46875 126.953125 C 86.246094 126.953125 104.535156 110.335938 106.910156 88.386719 L 106.910156 88.390625 C 104.027344 88.90625 101.105469 89.160156 98.175781 89.144531 C 86.363281 89.144531 80.773438 86.859375 68.964844 86.859375 "/>
</g>
</svg>
