<?xml version="1.0" encoding="UTF-8"?>
<svg xmlns="http://www.w3.org/2000/svg" xmlns:xlink="http://www.w3.org/1999/xlink" width="168pt" height="168pt" viewBox="0 0 168 168" version="1.1">
<g id="surface1036">
<path style=" stroke:none;fill-rule:nonzero;fill:rgb(37.254902%,80.392157%,97.647059%);fill-opacity:1;" d="M 168 84 C 168 130.390625 130.390625 168 84 168 C 37.609375 168 0 130.390625 0 84 C 0 37.609375 37.609375 0 84 0 C 130.390625 0 168 37.609375 168 84 "/>
<path style=" stroke:none;fill-rule:nonzero;fill:rgb(100%,100%,100%);fill-opacity:1;" d="M 58.234375 64.386719 C 57.613281 63.585938 56.65625 63.117188 55.644531 63.125 L 34.75 63.125 C 34.582031 63.121094 34.421875 63.058594 34.296875 62.941406 C 34.1875 62.835938 34.128906 62.691406 34.125 62.539062 L 34.125 47.839844 C 34.128906 47.6875 34.1875 47.539062 34.296875 47.433594 C 34.410156 47.300781 34.578125 47.234375 34.75 47.253906 L 56.832031 47.253906 C 62.398438 47.253906 67.199219 49.636719 71.253906 54.386719 L 76.625 61.226562 L 66.167969 74.53125 L 58.234375 64.382812 Z M 96.828125 54.324219 C 100.859375 49.621094 105.691406 47.257812 111.316406 47.257812 L 133.328125 47.257812 L 133.328125 47.253906 C 133.480469 47.242188 133.628906 47.289062 133.738281 47.390625 C 133.847656 47.511719 133.898438 47.675781 133.871094 47.839844 L 133.871094 62.539062 C 133.871094 62.695312 133.828125 62.832031 133.738281 62.941406 C 133.644531 63.070312 133.488281 63.140625 133.328125 63.121094 L 112.433594 63.121094 C 111.421875 63.113281 110.46875 63.582031 109.851562 64.378906 L 94.449219 83.949219 L 109.910156 103.648438 C 110.539062 104.390625 111.464844 104.839844 112.414062 104.820312 L 133.308594 104.820312 L 133.308594 104.816406 C 133.464844 104.804688 133.617188 104.871094 133.710938 104.996094 C 133.808594 105.132812 133.855469 105.300781 133.84375 105.46875 L 133.84375 120.167969 C 133.847656 120.3125 133.800781 120.457031 133.710938 120.570312 C 133.617188 120.699219 133.460938 120.769531 133.304688 120.75 L 111.3125 120.75 C 105.683594 120.75 100.898438 118.367188 96.886719 113.617188 L 84.078125 97.300781 L 71.273438 113.617188 C 67.242188 118.367188 62.410156 120.757812 56.785156 120.757812 L 34.753906 120.753906 C 34.597656 120.765625 34.441406 120.699219 34.34375 120.570312 C 34.242188 120.4375 34.191406 120.269531 34.214844 120.097656 L 34.214844 105.398438 C 34.214844 105.242188 34.261719 105.105469 34.347656 104.996094 L 34.34375 104.996094 C 34.441406 104.867188 34.597656 104.796875 34.753906 104.816406 L 55.648438 104.816406 C 56.640625 104.816406 57.589844 104.34375 58.238281 103.554688 L 73.351562 84.289062 L 96.828125 54.328125 Z M 96.828125 54.324219 "/>
</g>
</svg>
