<?xml version="1.0" encoding="UTF-8"?>
<svg xmlns="http://www.w3.org/2000/svg" xmlns:xlink="http://www.w3.org/1999/xlink" width="168pt" height="168pt" viewBox="0 0 168 168" version="1.1">
<g id="surface1666">
<path style=" stroke:none;fill-rule:nonzero;fill:rgb(9.803922%,57.254902%,28.235294%);fill-opacity:1;" d="M 168 84 C 168 130.390625 130.390625 168 84 168 C 37.609375 168 0 130.390625 0 84 C 0 37.609375 37.609375 0 84 0 C 130.390625 0 168 37.609375 168 84 "/>
<path style=" stroke:none;fill-rule:nonzero;fill:rgb(100%,100%,100%);fill-opacity:1;" d="M 84 21 C 49.207031 21 21 49.207031 21 84 C 21 118.792969 49.207031 147 84 147 C 118.792969 147 147 118.792969 147 84 C 147 67.292969 140.363281 51.265625 128.546875 39.453125 C 116.734375 27.636719 100.707031 21 84 21 Z M 98.402344 137.738281 C 83.757812 141.640625 68.152344 139.398438 55.199219 131.53125 C 42.246094 123.664062 33.0625 110.851562 29.773438 96.058594 C 26.484375 81.261719 29.375 65.765625 37.773438 53.152344 C 46.175781 40.539062 59.359375 31.898438 74.277344 29.226562 C 93.277344 25.871094 112.664062 32.597656 125.5 47.003906 C 138.332031 61.414062 142.785156 81.445312 137.265625 99.933594 C 131.742188 118.421875 117.035156 132.730469 98.402344 137.738281 Z M 98.402344 137.738281 "/>
<path style=" stroke:none;fill-rule:nonzero;fill:rgb(100%,100%,100%);fill-opacity:1;" d="M 99.382812 38.257812 C 99.382812 40.972656 99.382812 43.679688 99.488281 46.394531 C 95.855469 44.984375 92.078125 43.996094 88.222656 43.445312 C 88.066406 40.984375 88.769531 38.28125 88.050781 35.941406 L 88.046875 35.941406 C 85.300781 35.746094 82.546875 35.710938 79.792969 35.839844 C 79.65625 38.371094 79.707031 40.910156 79.792969 43.453125 C 75.9375 44.03125 72.160156 45.042969 68.527344 46.46875 C 68.605469 43.726562 68.632812 40.992188 68.59375 38.246094 L 68.597656 38.246094 C 55.738281 42.578125 45.292969 52.117188 39.816406 64.53125 C 34.339844 76.949219 34.339844 91.09375 39.816406 103.511719 C 45.292969 115.925781 55.738281 125.464844 68.597656 129.796875 C 68.597656 127.109375 68.570312 124.429688 68.519531 121.753906 C 72.121094 123.164062 75.878906 124.128906 79.714844 124.636719 C 79.714844 127.097656 79.714844 129.5625 79.566406 131.996094 C 82.507812 132.417969 85.488281 132.417969 88.429688 131.996094 C 88.296875 129.570312 88.226562 127.140625 88.222656 124.714844 C 92.058594 124.175781 95.828125 123.214844 99.457031 121.859375 C 99.371094 124.515625 99.371094 127.179688 99.457031 129.835938 C 112.3125 125.496094 122.746094 115.953125 128.214844 103.535156 C 133.679688 91.117188 133.671875 76.972656 128.1875 64.5625 C 122.707031 52.148438 112.257812 42.617188 99.398438 38.292969 L 99.386719 38.257812 Z M 106.574219 111.417969 C 100.230469 117.167969 91.222656 118.527344 82.949219 118.40625 C 75.6875 118.40625 68.003906 116.4375 62.757812 111.183594 C 59.976562 108.496094 58.398438 104.90625 56.988281 101.339844 C 62.058594 100.027344 67.292969 99.585938 72.402344 98.496094 L 72.402344 98.488281 C 73.050781 101.632812 75.328125 104.191406 78.378906 105.195312 C 83.015625 106.644531 88.757812 106.847656 92.621094 103.542969 C 95.363281 101.269531 95.441406 96.296875 92.042969 94.597656 C 84.078125 90.480469 74.15625 91.878906 66.628906 86.671875 C 56.261719 80.136719 55.492188 62.800781 65.640625 55.742188 C 73.398438 50.296875 83.773438 49.621094 92.773438 51.804688 C 100.910156 53.863281 106.710938 60.761719 109.503906 68.398438 C 104.496094 69.265625 99.492188 70.152344 94.484375 70.996094 C 93.167969 63.042969 82.03125 61.152344 76.496094 65.789062 C 73.347656 68.410156 74.15625 73.988281 78.09375 75.386719 C 86.703125 78.957031 97.046875 77.925781 104.675781 83.902344 C 113.53125 89.910156 114.457031 104.25 106.570312 111.414062 Z M 106.574219 111.417969 "/>
</g>
</svg>
