<?xml version="1.0" encoding="UTF-8"?>
<svg xmlns="http://www.w3.org/2000/svg" xmlns:xlink="http://www.w3.org/1999/xlink" width="168pt" height="168pt" viewBox="0 0 168 168" version="1.1">
<g id="surface616">
<path style=" stroke:none;fill-rule:nonzero;fill:rgb(40%,97.647059%,63.137255%);fill-opacity:1;" d="M 168 84 C 168 130.390625 130.390625 168 84 168 C 37.609375 168 0 130.390625 0 84 C 0 37.609375 37.609375 0 84 0 C 130.390625 0 168 37.609375 168 84 "/>
<path style=" stroke:none;fill-rule:nonzero;fill:rgb(100%,100%,100%);fill-opacity:1;" d="M 52.105469 103.355469 C 52.6875 102.785156 53.46875 102.464844 54.285156 102.464844 L 129.707031 102.464844 C 130.328125 102.457031 130.894531 102.828125 131.132812 103.402344 C 131.371094 103.976562 131.238281 104.636719 130.792969 105.074219 L 115.894531 119.851562 C 115.3125 120.425781 114.53125 120.75 113.714844 120.75 L 38.292969 120.75 C 37.671875 120.753906 37.109375 120.382812 36.871094 119.808594 C 36.632812 119.234375 36.765625 118.574219 37.207031 118.136719 L 52.105469 103.359375 Z M 52.105469 48.140625 C 52.6875 47.570312 53.46875 47.25 54.285156 47.25 L 129.707031 47.25 C 131.078125 47.25 131.765625 48.898438 130.792969 49.863281 L 115.894531 64.640625 L 115.894531 64.644531 C 115.3125 65.214844 114.53125 65.535156 113.714844 65.535156 L 38.292969 65.535156 C 37.675781 65.539062 37.113281 65.167969 36.875 64.59375 C 36.636719 64.023438 36.769531 63.363281 37.207031 62.925781 Z M 115.894531 75.570312 L 115.894531 75.574219 C 115.3125 75 114.53125 74.679688 113.714844 74.679688 L 38.292969 74.679688 C 37.671875 74.675781 37.109375 75.046875 36.871094 75.621094 C 36.632812 76.195312 36.765625 76.859375 37.207031 77.296875 L 52.105469 92.074219 C 52.683594 92.644531 53.46875 92.964844 54.285156 92.964844 L 129.707031 92.964844 L 129.707031 92.96875 C 130.328125 92.972656 130.890625 92.601562 131.128906 92.027344 C 131.367188 91.453125 131.234375 90.789062 130.792969 90.351562 L 115.894531 75.574219 Z M 115.894531 75.570312 "/>
</g>
</svg>
