<?xml version="1.0" encoding="UTF-8"?>
<svg xmlns="http://www.w3.org/2000/svg" xmlns:xlink="http://www.w3.org/1999/xlink" width="168pt" height="168pt" viewBox="0 0 168 168" version="1.1">
<g id="surface641">
<path style=" stroke:none;fill-rule:nonzero;fill:rgb(3.529412%,44.313725%,99.607843%);fill-opacity:1;" d="M 168 84 C 168 130.390625 130.390625 168 84 168 C 37.609375 168 0 130.390625 0 84 C 0 37.609375 37.609375 0 84 0 C 130.390625 0 168 37.609375 168 84 "/>
<path style=" stroke:none;fill-rule:evenodd;fill:rgb(100%,100%,100%);fill-opacity:1;" d="M 82.820312 23.878906 C 80.542969 24.265625 80.652344 24.21875 75.253906 27.429688 C 71.941406 29.398438 70.003906 30.527344 69.917969 30.527344 L 69.917969 30.523438 C 69.730469 30.605469 69.550781 30.714844 69.382812 30.839844 C 69.128906 31.023438 68.089844 31.652344 67.074219 32.257812 C 64.6875 33.671875 62.296875 35.078125 59.902344 36.476562 C 58.648438 37.210938 55.839844 38.859375 53.65625 40.152344 L 48.007812 43.460938 C 45.085938 45.148438 36.226562 50.421875 35.667969 50.804688 C 34.175781 51.832031 32.246094 54.777344 31.976562 56.421875 C 31.910156 56.84375 31.777344 57.234375 31.675781 57.296875 C 31.402344 57.476562 31.460938 110.152344 31.734375 110.941406 L 32.355469 112.695312 C 33.070312 114.730469 34.769531 116.8125 36.554688 117.839844 C 37.007812 118.097656 38.78125 119.136719 40.496094 120.15625 L 40.5 120.15625 C 43.726562 122.070312 46.960938 123.980469 50.199219 125.878906 C 50.382812 125.984375 50.804688 126.246094 51.128906 126.445312 C 51.453125 126.65625 51.90625 126.917969 52.140625 127.035156 C 52.371094 127.15625 53.464844 127.796875 54.554688 128.457031 C 56.550781 129.664062 56.96875 129.910156 58.71875 130.898438 C 59.226562 131.1875 60.402344 131.875 61.332031 132.429688 L 61.335938 132.429688 C 66.515625 135.464844 71.691406 138.515625 76.855469 141.578125 C 82.789062 145.085938 85.253906 145.230469 90.101562 142.382812 L 90.101562 142.378906 C 94.542969 139.765625 98.984375 137.152344 103.425781 134.53125 C 109.359375 131.050781 113.042969 128.871094 116.585938 126.761719 C 118.585938 125.570312 120.59375 124.390625 122.609375 123.222656 L 124.460938 122.140625 C 133.9375 116.695312 134.835938 115.945312 136.101562 112.363281 L 136.5 111.25 L 136.496094 84.042969 L 136.492188 56.832031 L 136.105469 55.699219 C 135.160156 52.917969 133.636719 51.261719 130.257812 49.304688 C 129.003906 48.582031 125.546875 46.554688 122.578125 44.804688 L 122.570312 44.808594 C 116.21875 41.066406 109.863281 37.320312 103.515625 33.570312 C 97.425781 29.96875 95.074219 28.582031 94.316406 28.152344 C 92.730469 27.238281 89.171875 25.097656 89.085938 25.003906 C 88.769531 24.648438 84.695312 23.507812 84.175781 23.640625 L 82.8125 23.882812 M 87.171875 39.019531 C 88.199219 39.371094 97.089844 44.515625 115.660156 55.515625 C 120.988281 58.671875 121.6875 59.265625 123.0625 61.785156 C 124.234375 63.941406 124.195312 63.214844 124.140625 84.480469 L 124.09375 103.617188 L 123.714844 104.6875 L 123.710938 104.679688 C 123.164062 106.246094 122.285156 107.679688 121.136719 108.878906 C 120.207031 109.8125 119.652344 110.171875 113.515625 113.773438 C 112.558594 114.335938 110.613281 115.484375 109.195312 116.335938 C 107.773438 117.1875 106.570312 117.835938 106.519531 117.789062 C 106.472656 117.738281 106.414062 106.644531 106.394531 93.136719 L 106.359375 68.578125 L 105.996094 67.570312 C 104.953125 64.640625 104.175781 63.925781 98.117188 60.351562 L 93.222656 57.464844 L 93.050781 77.207031 L 75.503906 77.207031 L 75.417969 42.113281 L 77.503906 40.894531 C 81.796875 38.378906 84.054688 37.9375 87.167969 39.015625 M 62.261719 74.832031 C 62.261719 99.886719 62.261719 100.109375 62.945312 101.570312 C 63.941406 103.726562 65.003906 104.6875 68.839844 106.882812 C 69.8125 107.4375 70.949219 108.105469 71.371094 108.363281 C 72.527344 109.085938 75.203125 110.601562 75.3125 110.601562 C 75.363281 110.601562 75.433594 106.234375 75.460938 100.894531 L 75.503906 91.1875 L 84.324219 91.140625 L 93.132812 91.097656 L 93.046875 125.855469 L 90.601562 127.292969 C 85.246094 130.4375 82.988281 130.371094 77.097656 126.898438 L 71.027344 123.332031 L 71.03125 123.328125 C 68.71875 121.976562 66.414062 120.609375 64.117188 119.222656 L 60.871094 117.304688 L 60.875 117.304688 C 59.417969 116.433594 57.953125 115.578125 56.480469 114.734375 C 55.164062 113.980469 53.859375 113.210938 52.5625 112.421875 C 51.804688 111.964844 51.046875 111.511719 50.285156 111.058594 C 46.882812 109.0625 45.402344 107.285156 44.5625 104.207031 C 44.089844 102.441406 44.015625 66.035156 44.484375 64.125 C 45.113281 61.558594 46.65625 59.289062 48.683594 57.949219 C 50.753906 56.578125 61.675781 50.210938 61.964844 50.207031 C 62.253906 50.195312 62.265625 51.402344 62.265625 74.828125 "/>
</g>
</svg>
