<?xml version="1.0" encoding="UTF-8"?>
<svg xmlns="http://www.w3.org/2000/svg" xmlns:xlink="http://www.w3.org/1999/xlink" width="168pt" height="168pt" viewBox="0 0 168 168" version="1.1">
<g id="surface1161">
<path style=" stroke:none;fill-rule:evenodd;fill:rgb(100%,23.137255%,50.588235%);fill-opacity:1;" d="M 168 84 C 168 130.390625 130.390625 168 84 168 C 37.609375 168 0 130.390625 0 84 C 0 37.609375 37.609375 0 84 0 C 130.390625 0 168 37.609375 168 84 "/>
<path style=" stroke:none;fill-rule:nonzero;fill:rgb(100%,100%,100%);fill-opacity:1;" d="M 44.410156 116.242188 L 44.410156 116.984375 L 36.65625 116.980469 L 36.65625 102.980469 L 36.414062 103.757812 L 29.007812 101.519531 L 33.191406 88.027344 L 32.675781 88.785156 L 26.25 84.515625 L 34.28125 72.789062 L 33.515625 73.398438 L 28.632812 67.464844 L 40.1875 58.246094 L 38.71875 58.808594 L 35.9375 51.679688 L 49.738281 46.460938 L 48.121094 46.566406 L 47.585938 38.953125 L 62.035156 37.957031 L 60.726562 37.664062 L 62.46875 30.226562 L 76.277344 33.367188 L 75.40625 32.875 L 79.273438 26.25 L 91.3125 33.097656 L 90.839844 32.605469 L 96.511719 27.398438 L 105.886719 37.300781 L 105.6875 36.902344 L 112.652344 33.554688 L 118.667969 45.703125 L 118.617188 45.363281 L 126.265625 44.167969 L 128.523438 58.203125 L 128.679688 57.207031 L 136.339844 58.398438 L 134.050781 72.636719 L 134.613281 71.492188 L 141.578125 74.839844 L 135.132812 87.863281 L 136.078125 86.867188 L 141.742188 92.082031 L 131.71875 102.667969 L 132.929688 101.980469 L 136.804688 108.59375 L 124.210938 115.753906 L 125.476562 115.464844 L 127.226562 122.902344 L 113.304688 126.066406 L 114.382812 126.140625 L 113.84375 133.757812 L 99.910156 132.796875 L 100.617188 133.066406 L 97.835938 140.195312 L 84.5 135.15625 L 85.34375 135.828125 L 80.464844 141.761719 L 69.457031 132.976562 L 70.003906 133.769531 L 63.578125 138.042969 L 55.703125 126.546875 L 55.9375 127.304688 L 48.523438 129.542969 Z M 44.410156 107.171875 L 49.25 105.710938 L 53.007812 117.839844 L 57.199219 115.058594 L 64.351562 125.507812 L 67.546875 121.621094 L 77.457031 129.527344 L 79.230469 124.976562 L 91.179688 129.492188 L 91.527344 124.5625 L 104.316406 125.445312 L 103.160156 120.535156 L 115.695312 117.683594 L 113.097656 113.253906 L 124.285156 106.890625 L 120.453125 103.375 L 129.289062 94.039062 L 124.574219 91.769531 L 130.261719 80.292969 L 125.105469 79.484375 L 127.132812 66.882812 L 122.199219 67.648438 L 120.179688 55.046875 L 115.738281 57.179688 L 110.09375 45.789062 L 106.472656 49.113281 L 97.746094 39.890625 L 95.246094 44.152344 L 84.195312 37.867188 L 83.050781 42.738281 L 70.617188 39.910156 L 70.980469 44.996094 L 58.21875 45.871094 L 60.101562 50.71875 L 48.078125 55.265625 L 51.316406 59.199219 L 41.226562 67.246094 L 45.484375 70.074219 L 38.21875 80.691406 L 43.117188 82.171875 L 39.320312 94.410156 L 44.414062 94.410156 Z M 82.472656 92.867188 C 82.472656 90.933594 81.789062 89.460938 80.429688 88.4375 C 79.066406 87.394531 76.625 86.300781 73.085938 85.167969 C 69.546875 84.011719 66.75 82.875 64.6875 81.753906 C 59.070312 78.707031 56.257812 74.613281 56.257812 69.453125 C 56.257812 66.769531 57.003906 64.382812 58.5 62.292969 C 60.023438 60.175781 62.183594 58.527344 64.996094 57.347656 C 67.832031 56.167969 71.007812 55.578125 74.519531 55.578125 C 78.058594 55.578125 81.207031 56.222656 83.96875 57.519531 C 86.734375 58.789062 88.878906 60.597656 90.398438 62.9375 L 90.394531 62.933594 C 91.945312 65.300781 92.75 68.082031 92.703125 70.910156 L 82.503906 70.910156 C 82.503906 68.636719 81.789062 66.871094 80.363281 65.625 C 78.933594 64.355469 76.929688 63.71875 74.347656 63.71875 C 71.855469 63.71875 69.910156 64.25 68.53125 65.320312 L 68.527344 65.320312 C 67.191406 66.277344 66.414062 67.835938 66.453125 69.476562 C 66.453125 71.089844 67.257812 72.441406 68.867188 73.535156 C 70.496094 74.621094 72.890625 75.644531 76.039062 76.601562 C 81.84375 78.351562 86.070312 80.523438 88.722656 83.113281 C 91.378906 85.707031 92.703125 88.933594 92.703125 92.792969 C 92.703125 97.09375 91.082031 100.464844 87.839844 102.921875 C 84.59375 105.351562 80.234375 106.570312 74.746094 106.570312 L 74.75 106.570312 C 71.171875 106.617188 67.628906 105.910156 64.34375 104.492188 C 61.21875 103.078125 58.824219 101.160156 57.171875 98.726562 C 55.539062 96.296875 54.71875 93.476562 54.71875 90.273438 L 64.957031 90.273438 C 64.957031 95.75 68.222656 98.488281 74.75 98.488281 C 77.175781 98.488281 79.070312 98 80.429688 97.019531 C 81.769531 96.066406 82.535156 94.503906 82.472656 92.863281 Z M 113.605469 62.425781 L 103.773438 98.398438 L 95.671875 97.832031 L 101.796875 60.746094 Z M 105.027344 102.148438 L 102.46875 114.859375 L 91.695312 111.714844 L 94.167969 99.523438 Z M 105.027344 102.148438 "/>
</g>
</svg>
