<?xml version="1.0" encoding="UTF-8"?>
<svg xmlns="http://www.w3.org/2000/svg" xmlns:xlink="http://www.w3.org/1999/xlink" width="168pt" height="168pt" viewBox="0 0 168 168" version="1.1">
<g id="surface1336">
<path style=" stroke:none;fill-rule:evenodd;fill:rgb(0%,69.019608%,59.607843%);fill-opacity:1;" d="M 168 84 C 168 130.390625 130.390625 168 84 168 C 37.609375 168 0 130.390625 0 84 C 0 37.609375 37.609375 0 84 0 C 130.390625 0 168 37.609375 168 84 "/>
<path style=" stroke:none;fill-rule:nonzero;fill:rgb(100%,100%,100%);fill-opacity:1;" d="M 31.5 65.054688 L 31.5 63.1875 L 75.6875 63.1875 L 75.6875 65.054688 Z M 31.5 59.621094 L 31.5 57.75 L 75.6875 57.75 L 75.6875 59.617188 Z M 50.136719 115.480469 L 50.136719 68.792969 L 51.910156 68.792969 L 51.910156 115.480469 Z M 55.28125 115.480469 L 55.28125 68.792969 L 57.050781 68.792969 L 57.050781 115.480469 Z M 135.25 111.660156 L 115.308594 90.59375 L 116.558594 89.277344 L 136.5 110.335938 Z M 86.726562 57.75 L 106.667969 78.816406 L 105.417969 80.132812 L 85.476562 59.070312 Z M 131.613281 115.5 L 111.671875 94.433594 L 112.921875 93.109375 L 132.863281 114.175781 Z M 83.09375 61.59375 L 103.035156 82.65625 L 101.78125 83.980469 L 81.839844 62.917969 Z M 111.554688 86.625 L 112.808594 85.300781 L 135.253906 61.589844 L 136.503906 62.914062 L 114.058594 86.625 L 112.808594 87.949219 L 110.425781 90.46875 L 109.171875 91.792969 L 86.730469 115.5 L 85.480469 114.175781 L 107.925781 90.464844 L 109.175781 89.140625 Z M 109.171875 81.460938 L 131.617188 57.75 L 132.867188 59.074219 L 110.421875 82.785156 L 109.171875 84.109375 L 106.789062 86.628906 L 105.535156 87.953125 L 83.097656 111.664062 L 81.84375 110.339844 L 104.289062 86.628906 L 105.539062 85.304688 L 107.929688 82.785156 Z M 109.171875 81.460938 "/>
</g>
</svg>
