<?xml version="1.0" encoding="UTF-8"?>
<svg xmlns="http://www.w3.org/2000/svg" xmlns:xlink="http://www.w3.org/1999/xlink" width="168pt" height="168pt" viewBox="0 0 168 168" version="1.1">
<g id="surface1046">
<path style=" stroke:none;fill-rule:evenodd;fill:rgb(10.980392%,10.980392%,10.980392%);fill-opacity:1;" d="M 168 84 C 168 130.390625 130.390625 168 84 168 C 37.609375 168 0 130.390625 0 84 C 0 37.609375 37.609375 0 84 0 C 130.390625 0 168 37.609375 168 84 "/>
<path style=" stroke:none;fill-rule:nonzero;fill:rgb(100%,100%,100%);fill-opacity:1;" d="M 82.503906 70.523438 C 84.109375 71.179688 85.71875 70.847656 87.003906 70.523438 C 87.96875 73.800781 89.578125 76.746094 91.175781 78.050781 C 90.214844 86.242188 87.324219 89.1875 84.109375 89.1875 C 79.617188 89.1875 77.363281 79.691406 77.363281 78.058594 C 78.328125 77.402344 81.222656 75.433594 82.507812 70.523438 Z M 77.683594 99.339844 C 79.617188 97.703125 80.898438 95.082031 82.503906 90.824219 C 83.789062 91.480469 85.71875 91.148438 87.003906 90.824219 C 87.96875 95.40625 88.929688 98.359375 91.175781 99.664062 C 90.535156 104.902344 87.324219 108.503906 84.429688 108.503906 C 80.257812 108.503906 78.328125 101.957031 77.683594 99.335938 Z M 51.984375 109.488281 C 53.269531 107.851562 53.269531 105.234375 52.628906 100.320312 C 53.589844 100.644531 54.554688 100.644531 55.203125 100.320312 C 57.125 104.902344 58.730469 107.847656 61.304688 109.488281 C 61.625 111.78125 61.304688 114.402344 60.339844 114.726562 C 56.804688 116.363281 53.59375 112.105469 51.992188 109.488281 Z M 38.492188 100.648438 C 39.136719 100.648438 39.457031 100.648438 40.097656 100.980469 C 42.351562 106.871094 46.203125 110.148438 46.203125 110.148438 C 47.488281 112.769531 48.128906 115.386719 47.164062 115.386719 C 44.277344 115.710938 42.023438 113.75 39.777344 109.492188 C 40.097656 108.511719 39.777344 107.855469 38.492188 100.652344 Z M 29.820312 100.648438 C 33.035156 114.402344 39.140625 113.746094 38.820312 113.089844 C 37.535156 110.800781 36.246094 109.820312 34.960938 108.835938 C 32.074219 105.886719 29.820312 99.664062 29.820312 100.644531 Z M 69.011719 109.488281 C 71.265625 107.851562 71.585938 104.25 71.90625 99.671875 C 73.191406 99.992188 74.792969 99.992188 75.757812 99.671875 C 76.402344 102.613281 77.363281 106.871094 80.257812 108.839844 C 79.9375 112.441406 78.972656 114.40625 76.722656 114.730469 C 75.117188 115.386719 70.617188 115.386719 69.011719 109.492188 Z M 41.386719 99.339844 C 42.671875 97.703125 42.992188 95.082031 43.3125 91.480469 C 44.277344 91.804688 45.566406 91.804688 46.199219 91.480469 C 47.164062 95.734375 48.773438 98.359375 50.703125 99.671875 C 51.34375 106.542969 50.703125 108.839844 49.417969 108.839844 C 46.53125 108.839844 42.671875 102.613281 41.386719 99.335938 Z M 31.425781 99.339844 C 31.425781 98.683594 31.746094 94.425781 32.070312 91.480469 L 33.351562 91.480469 C 34.957031 97.703125 37.210938 99.671875 37.210938 99.671875 C 38.816406 107.199219 38.816406 109.164062 37.527344 108.507812 C 34.640625 107.527344 32.394531 101.960938 31.425781 99.339844 Z M 57.125 99.339844 C 58.730469 98.027344 59.699219 95.738281 60.339844 91.480469 C 61.945312 92.132812 63.554688 91.804688 64.519531 91.480469 C 65.480469 95.734375 67.09375 98.359375 69.339844 99.671875 C 69.339844 103.269531 69.015625 109.164062 64.519531 108.175781 C 60.660156 107.199219 57.453125 100.648438 57.128906 99.339844 Z M 54.238281 98.359375 C 50.378906 98.359375 48.132812 92.132812 48.132812 90.167969 C 50.058594 88.203125 51.019531 84.601562 51.984375 78.382812 C 52.628906 78.707031 53.589844 78.707031 54.558594 78.382812 C 54.878906 85.261719 56.804688 88.207031 58.410156 89.84375 C 57.769531 95.410156 56.164062 98.359375 54.238281 98.359375 Z M 34.320312 90.167969 C 34.960938 88.855469 34.960938 88.53125 36.894531 78.382812 L 38.496094 78.382812 C 38.496094 85.261719 40.421875 88.53125 41.390625 89.84375 C 41.070312 93.445312 41.710938 98.359375 38.816406 98.359375 C 37.535156 98.359375 35.929688 96.722656 34.324219 90.167969 Z M 27.894531 78.707031 C 28.859375 79.039062 28.214844 87.546875 29.5 90.5 C 29.5 90.5 29.5 98.683594 28.859375 98.027344 C 24.039062 92.132812 27.253906 78.382812 27.894531 78.707031 Z M 66.445312 90.167969 C 68.691406 88.53125 69.980469 84.929688 71.90625 78.382812 C 73.191406 78.707031 74.792969 78.707031 75.757812 78.382812 C 76.402344 83.292969 77.683594 86.898438 80.257812 89.511719 C 79.617188 94.75 77.042969 98.359375 73.832031 98.359375 C 68.691406 98.359375 66.765625 91.152344 66.445312 90.167969 Z M 40.101562 77.398438 C 42.675781 76.417969 44.28125 70.847656 44.601562 70.191406 L 44.597656 70.191406 C 45.332031 70.847656 46.4375 70.847656 47.171875 70.191406 C 47.171875 74.449219 48.453125 76.417969 49.417969 77.070312 C 48.453125 82.636719 47.164062 89.1875 44.273438 89.1875 C 41.707031 89.1875 40.421875 83.292969 40.101562 77.402344 Z M 32.070312 89.511719 C 29.824219 89.511719 29.183594 81 29.824219 77.398438 C 29.824219 77.398438 31.75 74.449219 33.039062 70.191406 C 33.359375 70.191406 34.003906 70.523438 34.324219 70.191406 C 34.003906 74.449219 34.644531 76.417969 35.285156 77.398438 C 35.285156 77.398438 33.683594 89.511719 32.078125 89.511719 Z M 56.488281 77.398438 C 57.773438 76.742188 60.339844 73.140625 61.628906 69.863281 C 62.914062 70.519531 64.203125 70.519531 65.800781 70.1875 C 66.445312 73.792969 67.40625 76.082031 69.660156 77.394531 C 68.695312 83.285156 66.765625 89.179688 62.59375 89.179688 C 58.734375 89.179688 56.808594 81.320312 56.488281 77.394531 Z M 59.375 68.558594 C 57.453125 73.796875 55.523438 76.742188 52.953125 76.742188 C 49.738281 76.742188 49.417969 69.863281 49.417969 69.207031 C 51.992188 67.242188 53.910156 63.316406 55.519531 60.039062 L 57.773438 60.039062 C 57.128906 64.949219 58.414062 67.242188 59.378906 68.554688 Z M 43.636719 60.367188 C 42.03125 64.949219 42.675781 67.246094 43.320312 68.882812 C 40.746094 75.429688 39.460938 77.074219 37.535156 77.074219 C 35.609375 76.742188 35.609375 72.8125 36.25 69.539062 C 38.175781 68.226562 42.355469 60.699219 42.355469 60.367188 Z M 34.324219 60.699219 C 35.285156 60.367188 31.75 65.28125 32.078125 67.578125 C 32.394531 70.847656 28.539062 76.417969 28.21875 76.089844 C 26.9375 75.765625 29.503906 63.972656 34.324219 60.703125 Z M 79.941406 68.558594 C 78.976562 72.160156 77.6875 76.742188 72.230469 76.742188 C 69.34375 76.417969 67.738281 72.488281 67.089844 69.207031 C 70.304688 66.917969 71.910156 62.984375 72.875 60.039062 C 73.835938 60.363281 75.449219 60.363281 76.410156 60.039062 C 77.050781 64.949219 78.65625 67.242188 79.945312 68.554688 Z M 36.25 59.710938 C 36.890625 59.386719 41.070312 53.820312 43.316406 53.820312 C 44.601562 54.144531 41.070312 57.421875 41.390625 59.058594 C 40.425781 60.695312 35.929688 68.875 34.324219 68.875 C 33.039062 68.875 33.039062 64.621094 36.25 59.707031 Z M 115.277344 100.320312 C 114.953125 105.230469 114.953125 107.847656 115.917969 109.488281 C 114.632812 112.113281 111.097656 116.039062 107.570312 114.726562 C 106.277344 114.402344 106.277344 111.78125 106.597656 109.488281 C 109.492188 107.851562 111.417969 104.578125 112.703125 100.320312 C 113.34375 100.644531 114.308594 100.644531 115.277344 100.320312 Z M 128.125 100.320312 C 128.445312 100.644531 129.089844 100.644531 129.730469 99.988281 C 128.445312 107.195312 128.125 107.847656 128.445312 108.835938 C 126.199219 113.089844 123.953125 114.726562 121.058594 114.726562 C 119.773438 114.726562 120.417969 112.4375 122.023438 109.488281 C 122.023438 109.488281 125.875 106.21875 128.125 100.320312 Z M 133.269531 108.835938 C 131.976562 110.144531 130.695312 110.800781 129.730469 113.089844 C 129.410156 113.746094 135.515625 114.402344 138.722656 100.648438 C 138.082031 99.667969 136.148438 105.886719 133.261719 108.839844 Z M 96.320312 100.320312 C 96.320312 104.246094 97.285156 107.847656 99.214844 110.144531 C 97.609375 115.710938 93.113281 115.710938 91.507812 115.382812 C 89.253906 114.726562 88.613281 112.761719 87.972656 109.488281 C 90.539062 107.199219 91.824219 103.265625 92.464844 100.320312 C 93.75 100.644531 95.039062 100.644531 96.316406 100.320312 Z M 125.230469 91.148438 C 125.230469 95.082031 125.554688 97.699219 127.164062 99.007812 C 125.878906 102.285156 121.703125 108.511719 119.132812 108.511719 C 117.847656 108.511719 117.207031 106.21875 117.847656 99.339844 C 119.773438 98.027344 121.382812 94.75 122.347656 91.148438 L 122.339844 91.152344 C 123.238281 91.652344 124.332031 91.652344 125.226562 91.152344 Z M 136.796875 91.804688 C 136.796875 94.429688 136.796875 98.683594 137.441406 99.664062 C 136.15625 102.289062 133.90625 107.855469 131.335938 108.835938 C 129.730469 109.160156 130.050781 107.199219 131.65625 99.988281 C 131.65625 99.988281 133.910156 97.699219 135.515625 91.804688 Z M 108.207031 91.148438 C 108.851562 95.738281 109.492188 98.027344 111.421875 99.007812 C 111.105469 100.644531 107.570312 107.199219 104.035156 107.847656 C 99.535156 108.835938 99.214844 102.609375 99.214844 99.335938 C 101.460938 98.023438 103.066406 95.078125 104.035156 91.144531 C 105 91.476562 106.609375 91.800781 108.207031 91.144531 Z M 120.417969 90.167969 C 120.09375 92.132812 117.523438 98.359375 114.3125 98.359375 C 112.386719 98.359375 110.777344 95.082031 110.140625 89.84375 C 111.746094 88.53125 113.675781 85.261719 113.992188 78.382812 L 113.988281 78.382812 C 114.8125 78.710938 115.734375 78.710938 116.558594 78.382812 C 117.839844 84.277344 118.804688 88.207031 120.410156 90.167969 Z M 131.660156 78.382812 C 133.265625 88.53125 133.585938 88.863281 134.234375 90.167969 C 132.628906 96.390625 131.019531 98.359375 129.734375 98.359375 C 126.847656 98.359375 127.488281 93.121094 127.160156 89.84375 C 128.445312 88.53125 130.054688 85.261719 130.054688 78.382812 C 130.699219 78.707031 131.019531 78.382812 131.660156 78.382812 Z M 138.40625 90.167969 C 140.011719 87.546875 139.371094 79.039062 140.011719 78.382812 C 140.976562 78.050781 143.863281 92.464844 139.050781 97.703125 C 138.40625 98.359375 138.40625 90.167969 138.40625 90.167969 Z M 97.28125 78.382812 C 98.246094 84.929688 99.855469 88.53125 102.742188 90.167969 C 102.421875 91.148438 99.855469 98.359375 95.355469 98.359375 C 91.820312 98.683594 89.894531 94.425781 88.929688 89.511719 C 91.175781 86.898438 92.78125 83.289062 93.429688 78.382812 C 94.070312 78.707031 95.675781 78.707031 97.28125 78.382812 Z M 123.945312 70.191406 C 123.945312 70.847656 125.871094 76.417969 128.117188 78.050781 C 128.117188 83.617188 126.511719 89.84375 123.945312 89.84375 C 121.050781 89.84375 119.765625 83.621094 118.800781 77.726562 C 119.765625 76.746094 121.054688 74.449219 121.054688 70.523438 C 122.011719 70.902344 123.097656 70.78125 123.941406 70.191406 Z M 138.398438 77.398438 C 138.71875 81 138.078125 89.511719 136.472656 89.183594 C 134.867188 89.183594 133.257812 77.066406 133.257812 77.066406 C 133.902344 76.085938 134.542969 73.796875 134.222656 70.1875 L 134.226562 70.191406 C 134.59375 70.523438 135.148438 70.523438 135.511719 70.191406 C 136.792969 74.449219 138.398438 77.398438 138.398438 77.398438 Z M 106.917969 70.191406 C 108.199219 73.140625 110.453125 76.742188 112.378906 77.726562 C 112.058594 81.660156 109.804688 89.511719 106.273438 89.511719 C 101.453125 89.84375 100.171875 83.945312 99.207031 77.726562 C 101.132812 76.414062 102.421875 73.800781 102.742188 70.523438 C 104.027344 70.847656 105.628906 70.847656 106.921875 70.191406 Z M 114.949219 76.417969 C 112.695312 76.742188 110.769531 73.792969 108.523438 68.558594 C 109.804688 67.246094 110.769531 64.625 110.128906 60.042969 C 111.089844 60.367188 111.734375 60.367188 112.375 60.042969 C 114.300781 63.644531 116.226562 67.246094 118.476562 68.882812 C 118.476562 69.863281 118.160156 76.417969 114.941406 76.417969 Z M 125.222656 68.558594 C 125.546875 67.246094 126.1875 64.953125 124.261719 60.042969 L 125.546875 60.042969 C 125.546875 60.367188 130.039062 68.234375 131.648438 69.210938 C 132.292969 72.8125 132.292969 76.417969 130.363281 76.746094 C 128.761719 76.746094 127.476562 75.109375 125.222656 68.554688 Z M 136.144531 67.570312 C 136.46875 65.28125 133.257812 60.367188 133.578125 60.691406 C 138.722656 63.96875 140.648438 75.757812 139.683594 76.085938 C 139.363281 76.417969 135.832031 70.519531 136.148438 67.570312 Z M 95.351562 76.417969 C 90.53125 76.742188 89.246094 72.160156 88.285156 68.558594 C 89.890625 67.570312 91.5 64.625 91.820312 60.042969 C 92.78125 60.367188 94.394531 60.367188 95.355469 60.042969 C 96.316406 62.988281 97.929688 66.921875 100.496094 68.882812 C 100.175781 72.808594 98.570312 76.085938 95.351562 76.417969 Z M 125.222656 53.820312 C 126.828125 53.820312 131.648438 59.386719 131.96875 59.710938 C 135.507812 64.949219 135.507812 68.882812 134.222656 68.882812 C 132.296875 68.882812 128.117188 60.691406 127.15625 59.058594 C 127.472656 57.421875 123.941406 53.820312 125.222656 53.820312 Z M 53.90625 54.800781 C 53.265625 56.765625 52.945312 58.726562 53.90625 59.710938 C 51.980469 63.644531 48.765625 69.214844 45.875 68.882812 C 42.667969 68.226562 45.234375 60.691406 45.558594 60.042969 C 47.484375 59.0625 51.980469 52.839844 53.589844 52.839844 C 54.550781 53.164062 53.90625 54.804688 53.90625 54.804688 Z M 69.003906 54.476562 C 69.003906 56.441406 69.328125 58.730469 70.929688 59.710938 C 69.648438 63.644531 67.078125 68.882812 62.898438 68.558594 C 60.011719 68.226562 59.371094 63.320312 60.011719 59.710938 C 62.898438 58.730469 65.472656 52.507812 67.398438 52.507812 C 69.003906 52.507812 69.003906 54.144531 69.003906 54.476562 Z M 114.625 59.710938 C 115.265625 58.730469 115.265625 56.769531 114.625 54.800781 C 114.625 54.476562 113.980469 52.835938 114.941406 52.835938 C 116.546875 52.835938 121.046875 59.058594 122.972656 60.039062 C 123.292969 60.695312 125.859375 68.230469 122.652344 68.878906 C 119.4375 69.203125 116.546875 63.3125 114.621094 59.707031 Z M 97.59375 59.710938 C 98.878906 58.730469 99.199219 56.441406 99.519531 54.476562 C 99.519531 54.144531 99.519531 52.507812 101.125 52.507812 C 102.730469 52.183594 105.945312 58.730469 108.515625 59.710938 C 109.476562 63.96875 108.832031 68.226562 105.621094 68.558594 C 101.121094 69.210938 98.875 63.320312 97.589844 59.710938 Z M 84.101562 52.507812 C 87.316406 52.507812 87.316406 58.730469 89.886719 60.042969 C 89.886719 61.679688 88.921875 68.882812 83.78125 68.882812 C 79.28125 68.882812 78.320312 62.988281 78 60.042969 C 81.851562 58.40625 80.574219 52.507812 84.101562 52.507812 Z M 84.101562 52.507812 "/>
</g>
</svg>
