<?xml version="1.0" encoding="UTF-8"?>
<svg xmlns="http://www.w3.org/2000/svg" xmlns:xlink="http://www.w3.org/1999/xlink" width="168pt" height="168pt" viewBox="0 0 168 168" version="1.1">
<g id="surface2009">
<path style=" stroke:none;fill-rule:nonzero;fill:rgb(94.901961%,58.039216%,10.588235%);fill-opacity:1;" d="M 168 84 C 168 130.390625 130.390625 168 84 168 C 37.609375 168 0 130.390625 0 84 C 0 37.609375 37.609375 0 84 0 C 130.390625 0 168 37.609375 168 84 "/>
<path style=" stroke:none;fill-rule:nonzero;fill:rgb(100%,100%,100%);fill-opacity:1;" d="M 86.972656 26.25 L 87.03125 26.25 C 97.910156 37.011719 108.667969 47.878906 119.480469 58.699219 L 146.464844 58.699219 L 85.722656 144.761719 C 84.714844 134.65625 83.9375 124.550781 83.046875 114.449219 C 91.847656 101.792969 100.882812 89.25 109.679688 76.648438 L 89.589844 56.621094 L 89.585938 56.621094 C 89.566406 54.253906 89.371094 51.886719 88.992188 49.550781 C 88.335938 41.824219 87.921875 33.980469 86.972656 26.25 Z M 21.058594 112.664062 C 41.445312 84.019531 61.652344 55.253906 81.980469 26.546875 L 84.539062 56.976562 C 75.683594 69.632812 66.769531 82.117188 57.910156 94.71875 C 64.507812 101.3125 71.101562 108.027344 77.824219 114.625 C 78.714844 124.726562 79.488281 134.953125 80.5 145.117188 L 80.375 145.117188 L 48.101562 112.78125 C 39.070312 112.902344 30.035156 112.722656 21 112.902344 L 21 112.660156 L 21.058594 112.660156 Z M 21.058594 112.664062 "/>
</g>
</svg>
