<?xml version="1.0" encoding="UTF-8"?>
<svg xmlns="http://www.w3.org/2000/svg" xmlns:xlink="http://www.w3.org/1999/xlink" width="168pt" height="168pt" viewBox="0 0 168 168" version="1.1">
<g id="surface466">
<path style=" stroke:none;fill-rule:evenodd;fill:rgb(0.392157%,68.235294%,94.117647%);fill-opacity:1;" d="M 168 84 C 168 130.390625 130.390625 168 84 168 C 37.609375 168 0 130.390625 0 84 C 0 37.609375 37.609375 0 84 0 C 130.390625 0 168 37.609375 168 84 "/>
<path style=" stroke:none;fill-rule:evenodd;fill:rgb(100%,100%,100%);fill-opacity:1;" d="M 110.613281 99.171875 C 110.546875 110.058594 104.253906 119.332031 94.222656 123.136719 C 91.871094 124.027344 89.425781 124.683594 86.988281 125.292969 C 85.535156 125.660156 84.742188 126.378906 84.625 127.96875 C 84.476562 129.972656 84.273438 131.972656 83.996094 133.953125 C 83.660156 136.292969 82.855469 136.832031 80.703125 136.316406 C 76.996094 135.433594 76.597656 134.835938 77.089844 130.945312 C 77.132812 130.613281 77.179688 130.285156 77.214844 129.949219 C 77.582031 126.761719 77.128906 126.304688 74.082031 126.457031 C 72.710938 126.523438 72.140625 127.203125 72.007812 128.546875 C 71.828125 130.480469 71.640625 132.417969 71.324219 134.320312 C 71.007812 136.273438 70.191406 136.757812 68.3125 136.347656 C 64.300781 135.480469 64.007812 135.035156 64.53125 130.792969 C 65.191406 125.527344 65.175781 125.585938 60.316406 124.121094 C 58.164062 123.46875 56.074219 122.566406 53.96875 121.730469 C 52.6875 121.226562 52.269531 120.269531 52.613281 118.847656 C 53.054688 117.035156 53.359375 115.183594 53.738281 113.351562 C 54.390625 110.226562 55.902344 109.28125 58.789062 110.417969 C 63.902344 112.429688 69.152344 113.667969 74.617188 113.800781 C 79.546875 113.921875 84.425781 113.597656 88.921875 111.175781 C 91.894531 109.574219 94.078125 107.226562 95.175781 103.863281 C 96.804688 98.867188 95.34375 94.824219 90.660156 92.8125 C 86.800781 91.160156 82.660156 90.238281 78.769531 88.65625 C 75.316406 87.25 71.722656 85.84375 68.742188 83.632812 C 62.039062 78.675781 60.867188 71.347656 62.335938 63.519531 C 64.003906 54.695312 69.40625 48.972656 77.425781 45.933594 C 79.5625 45.128906 80.527344 44.007812 80.566406 41.609375 C 80.597656 39.011719 81.011719 36.410156 81.328125 33.824219 C 81.570312 31.835938 82.347656 31.277344 84.207031 31.582031 C 88.15625 32.226562 88.628906 32.851562 88.238281 36.953125 C 88.085938 38.554688 87.953125 40.15625 87.765625 41.746094 C 87.609375 43.085938 88.035156 43.699219 89.433594 43.742188 C 92.628906 43.835938 92.765625 43.777344 93.144531 40.472656 C 93.386719 38.347656 93.566406 36.214844 93.851562 34.09375 C 94.167969 31.742188 94.929688 31.207031 97.097656 31.648438 C 100.746094 32.398438 101.152344 32.957031 100.792969 36.757812 C 100.636719 38.421875 100.558594 40.101562 100.269531 41.746094 C 99.9375 43.636719 100.515625 44.511719 102.394531 44.949219 C 105.96875 45.777344 109.507812 46.828125 113.019531 47.921875 C 115.660156 48.742188 115.765625 49.039062 115.257812 51.785156 C 114.957031 53.429688 114.660156 55.078125 114.269531 56.699219 C 113.546875 59.753906 112.023438 60.664062 109.113281 59.6875 C 104.136719 58.007812 99.136719 56.492188 93.863281 56.265625 C 89.242188 56.070312 84.6875 56.140625 80.675781 59.042969 C 75.027344 63.128906 74.996094 71.433594 81 74.929688 C 84.820312 77.15625 89.238281 78.289062 93.378906 79.925781 C 95.902344 80.921875 98.496094 81.785156 100.921875 82.992188 C 107.421875 86.238281 110.679688 91.660156 110.609375 99.1875 "/>
</g>
</svg>
