<?xml version="1.0" encoding="UTF-8"?>
<svg xmlns="http://www.w3.org/2000/svg" xmlns:xlink="http://www.w3.org/1999/xlink" width="168pt" height="168pt" viewBox="0 0 168 168" version="1.1">
<g id="surface1366">
<path style=" stroke:none;fill-rule:evenodd;fill:rgb(29.411765%,63.529412%,94.901961%);fill-opacity:1;" d="M 168 84 C 168 130.390625 130.390625 168 84 168 C 37.609375 168 0 130.390625 0 84 C 0 37.609375 37.609375 0 84 0 C 130.390625 0 168 37.609375 168 84 "/>
<path style=" stroke:none;fill-rule:nonzero;fill:rgb(100%,100%,100%);fill-opacity:1;" d="M 51.816406 43.203125 C 52.949219 43.398438 50.125 50.921875 51.699219 59.515625 C 53.0625 66.882812 70.109375 95.40625 69.40625 105.191406 C 68.859375 111.332031 54.863281 125.746094 53.386719 124.785156 C 51.773438 124.339844 57.640625 114.546875 55.464844 106.390625 C 52.933594 96.878906 37.929688 72.285156 37.945312 61.429688 C 37.945312 53.488281 50.796875 42.691406 51.804688 43.207031 Z M 83.886719 31.96875 C 85.324219 32.214844 81.734375 41.816406 83.738281 52.753906 C 85.472656 62.160156 107.222656 98.535156 106.320312 111.003906 C 105.617188 118.847656 87.777344 137.207031 85.886719 135.992188 C 83.839844 135.429688 91.316406 122.941406 88.542969 112.535156 C 85.324219 100.417969 66.1875 69.054688 66.203125 55.210938 C 66.203125 45.074219 82.59375 31.324219 83.886719 31.972656 Z M 116.988281 43.203125 C 118.121094 43.398438 115.304688 50.921875 116.871094 59.515625 C 118.234375 66.882812 135.28125 95.40625 134.585938 105.191406 C 134.046875 111.332031 120.042969 125.746094 118.5625 124.785156 C 116.957031 124.339844 122.816406 114.546875 120.640625 106.390625 C 118.117188 96.878906 103.105469 72.285156 103.121094 61.429688 C 103.121094 53.488281 115.984375 42.691406 116.988281 43.207031 Z M 116.988281 43.203125 "/>
</g>
</svg>
