<?xml version="1.0" encoding="UTF-8"?>
<svg xmlns="http://www.w3.org/2000/svg" xmlns:xlink="http://www.w3.org/1999/xlink" width="168pt" height="168pt" viewBox="0 0 168 168" version="1.1">
<g id="surface586">
<path style=" stroke:none;fill-rule:evenodd;fill:rgb(14.901961%,51.372549%,100%);fill-opacity:1;" d="M 168 84 C 168 130.390625 130.390625 168 84 168 C 37.609375 168 0 130.390625 0 84 C 0 37.609375 37.609375 0 84 0 C 130.390625 0 168 37.609375 168 84 "/>
<path style=" stroke:none;fill-rule:nonzero;fill:rgb(100%,100%,100%);fill-opacity:1;" d="M 131.128906 99.597656 C 135.710938 102.34375 137.273438 108.238281 134.664062 112.894531 C 131.964844 117.628906 125.832031 119.308594 121.007812 116.664062 C 120.535156 116.40625 120.125 116.101562 119.707031 115.796875 L 93.84375 130.414062 C 93.90625 130.886719 93.945312 131.363281 93.949219 131.84375 C 93.949219 132.40625 93.949219 132.914062 93.84375 133.472656 C 92.960938 138.828125 87.820312 142.492188 82.367188 141.625 C 76.917969 140.757812 73.179688 135.714844 74.0625 130.367188 L 48.039062 115.648438 C 47.632812 115.9375 47.21875 116.207031 46.792969 116.460938 C 46.371094 116.664062 45.957031 116.917969 45.492188 117.070312 C 40.386719 119.113281 34.585938 116.691406 32.457031 111.621094 C 30.382812 106.582031 32.878906 100.875 38.015625 98.835938 L 38.015625 69.394531 C 37.542969 69.242188 37.089844 69.035156 36.664062 68.78125 C 36.277344 68.539062 35.894531 68.285156 35.523438 68.019531 C 32.640625 65.925781 31.125 62.429688 31.574219 58.894531 C 32.046875 55.351562 34.394531 52.34375 37.714844 51.023438 C 41.058594 49.679688 44.859375 50.191406 47.722656 52.378906 L 74.003906 37.453125 C 73.953125 36.996094 73.898438 36.59375 73.898438 36.128906 C 73.898438 30.730469 78.519531 26.25 84.027344 26.25 C 89.53125 26.25 94.042969 30.628906 94.050781 36.078125 C 94.050781 36.539062 94 36.945312 93.945312 37.40625 L 120.429688 52.433594 C 122.757812 50.726562 125.699219 50.089844 128.527344 50.683594 C 131.351562 51.277344 133.789062 53.042969 135.234375 55.539062 C 137.925781 60.273438 136.164062 66.285156 131.332031 68.9375 C 130.863281 69.136719 130.398438 69.394531 129.929688 69.546875 L 129.929688 99.042969 C 130.34375 99.199219 130.742188 99.382812 131.121094 99.597656 Z M 132.949219 111.925781 C 133.988281 110.214844 134.289062 108.160156 133.792969 106.222656 C 133.292969 104.285156 132.035156 102.632812 130.300781 101.632812 C 127.398438 99.960938 123.75 100.355469 121.269531 102.605469 L 109.371094 95.832031 L 109.375 95.832031 C 112.320312 89.882812 110.359375 82.664062 104.804688 79.023438 C 104.472656 77.898438 104.035156 76.808594 103.503906 75.761719 L 121.476562 65.777344 C 123.34375 67.511719 125.976562 68.21875 128.484375 67.667969 C 130.457031 67.242188 132.179688 66.042969 133.261719 64.335938 C 134.34375 62.632812 134.699219 60.5625 134.246094 58.59375 C 133.3125 54.519531 129.152344 52.027344 125.007812 52.941406 C 123.035156 53.367188 121.3125 54.5625 120.226562 56.269531 C 119.144531 57.972656 118.785156 60.039062 119.238281 62.007812 L 101.0625 72.144531 C 97.535156 68.019531 86.316406 65.265625 86.316406 65.265625 L 86.316406 42.804688 C 88.59375 42.148438 90.390625 40.386719 91.09375 38.121094 C 91.640625 36.324219 91.441406 34.382812 90.542969 32.734375 C 89.644531 31.085938 88.121094 29.867188 86.316406 29.351562 C 82.527344 28.234375 78.527344 30.269531 77.382812 33.992188 L 77.378906 33.992188 C 76.835938 35.789062 77.035156 37.730469 77.933594 39.375 C 78.832031 41.023438 80.351562 42.242188 82.15625 42.757812 L 82.15625 65.679688 C 82.15625 65.679688 76.035156 67.664062 73.644531 69.597656 L 73.648438 69.59375 C 71.109375 69.652344 68.621094 70.300781 66.375 71.484375 L 49.285156 61.855469 C 49.871094 59.410156 49.167969 56.835938 47.417969 55.03125 C 44.523438 51.976562 39.710938 51.816406 36.617188 54.671875 C 35.132812 56.023438 34.253906 57.914062 34.1875 59.917969 C 34.117188 61.925781 34.863281 63.871094 36.25 65.320312 C 39.148438 68.375 43.960938 68.535156 47.054688 65.675781 L 62.480469 74.332031 L 62.480469 74.335938 C 59.773438 76.964844 58.109375 80.484375 57.785156 84.242188 C 57.460938 88.003906 58.5 91.753906 60.714844 94.808594 L 47.160156 102.5 C 45.253906 100.761719 42.613281 100.078125 40.097656 100.667969 C 38.125 101.109375 36.410156 102.320312 35.335938 104.035156 C 34.265625 105.75 33.921875 107.820312 34.386719 109.789062 C 35.378906 113.851562 39.535156 116.355469 43.679688 115.386719 L 43.679688 115.382812 C 45.652344 114.945312 47.367188 113.734375 48.441406 112.019531 C 49.511719 110.308594 49.855469 108.238281 49.390625 106.269531 L 63.878906 98.070312 C 67.605469 101.027344 72.472656 102.203125 77.171875 101.277344 C 78.621094 101.9375 80.113281 102.5 81.632812 102.957031 L 81.632812 124.355469 L 81.636719 124.355469 C 79.558594 125 77.820312 126.449219 76.8125 128.378906 C 75.859375 130.253906 75.703125 132.4375 76.375 134.429688 C 77.050781 136.421875 78.5 138.0625 80.398438 138.972656 C 80.714844 139.128906 81.023438 139.277344 81.386719 139.382812 C 81.4375 139.382812 81.492188 139.433594 81.542969 139.433594 C 85.796875 140.703125 90.320312 138.410156 91.617188 134.234375 L 91.617188 134.238281 C 92.246094 132.222656 92.035156 130.042969 91.039062 128.183594 C 90.042969 126.324219 88.339844 124.945312 86.316406 124.351562 L 86.316406 103.371094 C 86.316406 103.371094 90.210938 103.015625 92.027344 102.453125 C 97.09375 104.449219 102.890625 103.265625 106.726562 99.449219 L 118.875 106.433594 C 118.109375 109.660156 119.570312 113.003906 122.460938 114.632812 C 126.113281 116.714844 130.757812 115.515625 132.949219 111.929688 Z M 41.914062 104.796875 C 43.070312 104.800781 44.128906 105.402344 44.71875 106.371094 C 44.984375 106.855469 45.125 107.402344 45.132812 107.957031 C 45.113281 109.714844 43.675781 111.125 41.914062 111.109375 C 40.15625 111.128906 38.710938 109.714844 38.691406 107.957031 C 38.691406 106.207031 40.136719 104.796875 41.914062 104.796875 Z M 87.40625 36.085938 L 87.40625 36.082031 C 87.378906 37.839844 85.941406 39.246094 84.183594 39.238281 C 82.425781 39.253906 80.984375 37.84375 80.964844 36.082031 C 80.964844 34.332031 82.410156 32.921875 84.183594 32.921875 C 85.96875 32.921875 87.40625 34.339844 87.40625 36.082031 Z M 126.664062 63.492188 L 126.667969 63.488281 C 124.914062 63.484375 123.484375 62.082031 123.449219 60.328125 C 123.449219 58.585938 124.894531 57.167969 126.667969 57.167969 C 128.453125 57.167969 129.890625 58.585938 129.890625 60.328125 C 129.871094 62.089844 128.425781 63.5 126.667969 63.484375 Z M 43.417969 57.417969 C 44.15625 57.816406 44.699219 58.496094 44.925781 59.304688 C 45.148438 60.109375 45.039062 60.976562 44.613281 61.699219 C 43.730469 63.222656 41.78125 63.746094 40.25 62.867188 C 39.511719 62.472656 38.964844 61.792969 38.738281 60.984375 C 38.515625 60.175781 38.628906 59.3125 39.054688 58.589844 C 39.9375 57.066406 41.890625 56.542969 43.417969 57.417969 Z M 127.964844 105.402344 C 128.699219 105.800781 129.242188 106.480469 129.46875 107.289062 C 129.695312 108.09375 129.582031 108.957031 129.160156 109.679688 C 128.554688 110.648438 127.496094 111.246094 126.351562 111.257812 C 125.199219 111.277344 124.121094 110.679688 123.527344 109.695312 C 122.941406 108.710938 122.941406 107.488281 123.527344 106.507812 C 124.121094 105.519531 125.199219 104.921875 126.351562 104.941406 C 126.917969 104.960938 127.472656 105.117188 127.964844 105.398438 Z M 80.96875 131.730469 L 80.964844 131.734375 C 80.96875 131.691406 80.988281 131.65625 81.019531 131.628906 C 81.3125 129.910156 82.929688 128.746094 84.652344 129.011719 C 86.375 129.246094 87.585938 130.828125 87.355469 132.550781 C 87.035156 134.128906 85.640625 135.261719 84.03125 135.25 C 83.148438 135.210938 82.324219 134.816406 81.742188 134.148438 C 81.164062 133.484375 80.882812 132.609375 80.964844 131.734375 Z M 99.460938 82.984375 L 99.457031 82.988281 C 102.628906 83.960938 104.78125 86.902344 104.753906 90.222656 C 104.753906 90.480469 104.703125 90.738281 104.703125 90.988281 C 104.652344 91.191406 104.652344 91.398438 104.597656 91.597656 L 104.597656 91.753906 C 104.492188 92.210938 104.386719 92.667969 104.175781 93.125 C 103.601562 94.527344 102.605469 95.71875 101.324219 96.535156 C 101.007812 96.691406 100.746094 96.84375 100.441406 96.996094 L 100.285156 97.046875 L 100.285156 97.050781 C 99.675781 97.335938 99.027344 97.523438 98.363281 97.613281 L 98.101562 97.660156 C 97.738281 97.660156 97.429688 97.710938 97.066406 97.710938 C 95.371094 97.710938 93.726562 97.15625 92.394531 96.128906 L 90.988281 96.738281 C 90.558594 96.949219 90.105469 97.101562 89.640625 97.199219 L 89.589844 97.199219 L 89.585938 97.203125 C 86.371094 98.0625 82.953125 97.71875 79.976562 96.234375 L 79.925781 96.234375 C 79.617188 96.082031 79.304688 95.929688 79.042969 95.777344 L 78.9375 95.726562 C 78.628906 95.527344 78.371094 95.324219 78.054688 95.117188 L 78.058594 95.113281 C 76.796875 95.667969 75.4375 95.945312 74.0625 95.929688 C 73.640625 95.929688 73.28125 95.929688 72.917969 95.878906 L 72.707031 95.828125 L 71.773438 95.679688 L 71.667969 95.628906 L 71.667969 95.625 C 71.335938 95.5625 71.007812 95.476562 70.6875 95.367188 C 69.847656 95.089844 69.046875 94.714844 68.296875 94.246094 C 66.734375 93.28125 65.5 91.859375 64.765625 90.175781 C 64.765625 90.070312 64.714844 90.019531 64.660156 89.917969 C 64.597656 89.742188 64.527344 89.574219 64.449219 89.40625 C 64.386719 89.292969 64.335938 89.171875 64.292969 89.050781 C 64.242188 88.898438 64.140625 88.746094 64.140625 88.59375 C 64.128906 88.4375 64.09375 88.28125 64.035156 88.136719 C 63.984375 87.980469 63.984375 87.925781 63.929688 87.726562 C 63.878906 87.523438 63.878906 87.324219 63.828125 87.117188 C 63.828125 86.960938 63.777344 86.859375 63.777344 86.761719 C 63.734375 86.441406 63.714844 86.113281 63.722656 85.789062 C 63.71875 85.398438 63.734375 85.007812 63.777344 84.621094 C 63.777344 84.46875 63.828125 84.367188 63.828125 84.265625 C 63.878906 83.960938 63.933594 83.710938 63.984375 83.453125 C 64.035156 83.347656 64.035156 83.199219 64.089844 83.097656 L 64.09375 83.089844 C 64.152344 82.8125 64.238281 82.542969 64.347656 82.277344 C 64.398438 82.171875 64.398438 82.125 64.453125 82.023438 L 64.453125 82.027344 C 64.570312 81.710938 64.707031 81.402344 64.867188 81.105469 L 64.917969 81 L 64.921875 81.003906 C 66.65625 77.824219 69.921875 75.777344 73.535156 75.605469 C 73.691406 75.554688 73.851562 75.554688 74.058594 75.554688 C 74.683594 75.554688 75.308594 75.605469 75.925781 75.710938 C 76.1875 75.394531 76.445312 75.144531 76.753906 74.839844 L 77.015625 74.585938 C 77.324219 74.328125 77.582031 74.078125 77.898438 73.871094 L 78.054688 73.765625 C 78.257812 73.613281 78.621094 73.363281 78.777344 73.257812 C 78.933594 73.15625 79.191406 72.953125 79.347656 72.902344 L 79.359375 72.902344 C 79.542969 72.839844 79.714844 72.753906 79.878906 72.648438 C 80.1875 72.492188 80.707031 72.238281 81.019531 72.140625 L 81.28125 71.9375 L 81.28125 71.933594 C 83.359375 71.128906 85.613281 70.867188 87.820312 71.175781 L 87.871094 71.175781 C 88.292969 71.21875 88.707031 71.28125 89.117188 71.375 L 89.167969 71.375 C 89.589844 71.425781 89.949219 71.585938 90.363281 71.683594 L 90.414062 71.734375 C 90.828125 71.882812 91.191406 72.035156 91.554688 72.191406 L 91.660156 72.242188 C 92.015625 72.390625 92.363281 72.558594 92.699219 72.746094 L 92.75 72.796875 C 93.058594 72.953125 93.421875 73.207031 93.738281 73.40625 L 93.789062 73.457031 C 94.152344 73.660156 94.460938 73.914062 94.769531 74.171875 L 94.820312 74.222656 L 94.832031 74.230469 C 96.566406 75.6875 97.90625 77.5625 98.726562 79.679688 L 98.726562 79.730469 C 98.832031 80.035156 98.9375 80.390625 99.042969 80.695312 C 99.042969 80.800781 99.09375 80.898438 99.09375 81 C 99.179688 81.261719 99.25 81.539062 99.296875 81.8125 L 99.453125 82.984375 Z M 99.460938 82.984375 "/>
</g>
</svg>
