<?xml version="1.0" encoding="UTF-8"?>
<svg xmlns="http://www.w3.org/2000/svg" xmlns:xlink="http://www.w3.org/1999/xlink" width="168pt" height="168pt" viewBox="0 0 168 168" version="1.1">
<g id="surface2242">
<path style=" stroke:none;fill-rule:nonzero;fill:rgb(45.098039%,14.117647%,94.117647%);fill-opacity:1;" d="M 168 84 C 168 130.390625 130.390625 168 84 168 C 37.609375 168 0 130.390625 0 84 C 0 37.609375 37.609375 0 84 0 C 130.390625 0 168 37.609375 168 84 "/>
<path style=" stroke:none;fill-rule:nonzero;fill:rgb(100%,100%,100%);fill-opacity:1;" d="M 145.292969 70.675781 L 145.292969 68.25 C 141.316406 68.257812 137.488281 69.769531 134.578125 72.480469 C 131.667969 75.1875 129.886719 78.898438 129.597656 82.867188 C 129.316406 78.90625 127.546875 75.195312 124.644531 72.484375 C 121.742188 69.773438 117.921875 68.261719 113.953125 68.25 L 113.953125 70.675781 C 117.484375 70.675781 120.875 72.078125 123.375 74.578125 C 125.871094 77.078125 127.277344 80.464844 127.277344 84 C 127.285156 87.535156 125.886719 90.933594 123.382812 93.433594 C 120.882812 95.933594 117.488281 97.335938 113.953125 97.324219 L 113.953125 99.75 C 117.929688 99.742188 121.757812 98.230469 124.667969 95.519531 C 127.578125 92.8125 129.359375 89.101562 129.648438 85.132812 C 129.929688 89.105469 131.707031 92.820312 134.621094 95.53125 C 137.535156 98.242188 141.367188 99.75 145.347656 99.75 L 145.347656 97.324219 C 137.988281 97.320312 132.027344 91.355469 132.027344 84 C 132.015625 80.472656 133.40625 77.085938 135.898438 74.585938 C 138.386719 72.085938 141.765625 70.679688 145.292969 70.675781 Z M 61.125 99.75 L 61.125 97.945312 L 61.074219 84 L 58.75 84 L 58.75 99.75 M 92.628906 68.25 C 83.949219 68.25 76.878906 75.328125 76.878906 84 C 76.878906 92.671875 83.949219 99.75 92.628906 99.75 L 92.625 99.75 C 98.253906 99.75 103.453125 96.75 106.265625 91.875 C 109.078125 87 109.078125 81 106.265625 76.125 C 103.453125 71.25 98.253906 68.25 92.625 68.25 Z M 92.628906 97.324219 L 92.625 97.324219 C 89.046875 97.394531 85.589844 96.023438 83.035156 93.515625 C 80.476562 91.011719 79.035156 87.582031 79.035156 84.003906 C 79.035156 80.421875 80.476562 76.992188 83.035156 74.488281 C 85.589844 71.980469 89.046875 70.609375 92.625 70.679688 C 99.980469 70.683594 105.941406 76.644531 105.945312 84 C 105.953125 87.535156 104.554688 90.929688 102.054688 93.429688 C 99.554688 95.929688 96.160156 97.332031 92.625 97.324219 Z M 50.074219 68.25 C 41.394531 68.25 34.324219 75.328125 34.324219 84 C 34.308594 91.351562 28.351562 97.308594 21 97.324219 L 21 99.75 C 29.671875 99.75 36.75 92.671875 36.75 84 C 36.765625 76.648438 42.722656 70.691406 50.074219 70.675781 L 70.3125 70.675781 L 70.3125 68.25 Z M 50.074219 68.25 "/>
</g>
</svg>
