<?xml version="1.0" encoding="UTF-8"?>
<svg xmlns="http://www.w3.org/2000/svg" xmlns:xlink="http://www.w3.org/1999/xlink" width="168pt" height="168pt" viewBox="0 0 168 168" version="1.1">
<g id="surface221">
<path style=" stroke:none;fill-rule:nonzero;fill:rgb(17.647059%,76.862745%,90.588235%);fill-opacity:1;" d="M 168 84 C 168 130.390625 130.390625 168 84 168 C 37.609375 168 0 130.390625 0 84 C 0 37.609375 37.609375 0 84 0 C 130.390625 0 168 37.609375 168 84 "/>
<path style=" stroke:none;fill-rule:nonzero;fill:rgb(100%,100%,100%);fill-opacity:1;" d="M 27.0625 47.4375 C 32.683594 47.4375 38.496094 47.058594 44.125 47.5625 C 46.625 50.371094 47.1875 54.308594 49.121094 57.558594 C 74.375 57.683594 99.746094 57.558594 125 57.558594 C 126.875 57.683594 129.183594 57.746094 130.125 59.621094 C 131.25 61.683594 130.441406 64.121094 129.375 65.996094 C 124.25 74.683594 119.375 83.5 114.375 92.246094 C 112.5 95.375 111.246094 98.871094 108.4375 101.3125 C 106.128906 103.25 102.933594 103.371094 100 103.371094 L 64.996094 103.371094 C 63.121094 103.371094 61.121094 103.1875 60 101.6875 C 56.378906 97.625 54.433594 92.4375 52.0625 87.6875 L 52.058594 87.683594 C 47.949219 79.457031 43.929688 71.1875 39.996094 62.875 C 39.183594 61 38.183594 59.316406 37.246094 57.5625 C 33.9375 57.5625 30.621094 57.5625 27.375 57.4375 C 26.746094 54.128906 26.746094 50.753906 27.058594 47.441406 Z M 66.5 110.121094 L 66.5 110.125 C 69.046875 109.519531 71.6875 109.476562 74.25 109.996094 C 77.121094 110.625 79.625 112.808594 80.3125 115.6875 C 81.058594 118.996094 81.058594 122.566406 79.746094 125.746094 C 78.496094 128.625 75.371094 130 72.4375 130.25 C 69.0625 130.496094 65.1875 130.25 62.683594 127.746094 C 60 124.75 60 120.375 60.5625 116.621094 C 60.933594 113.496094 63.433594 110.808594 66.496094 110.121094 Z M 97.746094 110.121094 C 100.871094 109.4375 104.246094 109.496094 107.25 110.621094 C 110.121094 111.8125 111.625 114.9375 111.871094 117.871094 C 112.25 121.308594 111.871094 125.246094 109.371094 127.871094 C 107.0625 130.058594 103.683594 130.371094 100.625 130.308594 C 97.621094 130.1875 94.378906 129.058594 92.8125 126.25 L 92.816406 126.253906 C 91.324219 123.207031 90.925781 119.738281 91.6875 116.433594 C 92.316406 113.371094 94.691406 110.816406 97.75 110.125 Z M 97.746094 110.121094 "/>
</g>
</svg>
