<?xml version="1.0" encoding="UTF-8"?>
<svg xmlns="http://www.w3.org/2000/svg" xmlns:xlink="http://www.w3.org/1999/xlink" width="168pt" height="168pt" viewBox="0 0 168 168" version="1.1">
<g id="surface2039">
<path style=" stroke:none;fill-rule:evenodd;fill:rgb(7.45098%,52.941176%,78.823529%);fill-opacity:1;" d="M 168 84 C 168 130.390625 130.390625 168 84 168 C 37.609375 168 0 130.390625 0 84 C 0 37.609375 37.609375 0 84 0 C 130.390625 0 168 37.609375 168 84 "/>
<path style=" stroke:none;fill-rule:nonzero;fill:rgb(100%,100%,100%);fill-opacity:1;" d="M 84.277344 96.457031 L 134.644531 67.140625 L 84.277344 37.300781 L 34.414062 67.140625 Z M 31.746094 81.128906 C 31.746094 82.546875 32.496094 83.859375 33.722656 84.578125 L 84.265625 114.019531 L 135.636719 83.632812 L 135.632812 83.632812 C 136.835938 82.9375 138.3125 82.9375 139.515625 83.628906 C 140.714844 84.324219 141.457031 85.605469 141.457031 86.992188 L 141.457031 100.777344 C 141.457031 102.148438 140.734375 103.417969 139.5625 104.125 L 86.238281 135.957031 L 86.238281 135.953125 C 85.03125 136.675781 83.53125 136.679688 82.320312 135.96875 L 27.613281 103.808594 C 26.304688 103.03125 25.859375 101.34375 26.621094 100.023438 C 26.984375 99.390625 27.589844 98.925781 28.292969 98.738281 C 29 98.550781 29.75 98.65625 30.382812 99.027344 L 84.261719 130.699219 L 135.957031 99.839844 L 135.957031 89.863281 L 86.222656 119.277344 L 86.226562 119.28125 C 85.027344 119.992188 83.535156 119.996094 82.332031 119.296875 L 30.972656 89.371094 L 30.96875 89.371094 C 28.042969 87.660156 26.246094 84.519531 26.25 81.128906 L 26.25 68.144531 C 26.246094 66.960938 26.878906 65.863281 27.902344 65.269531 C 28.929688 64.675781 30.195312 64.675781 31.222656 65.269531 L 34.414062 67.144531 L 30.402344 69.542969 C 29.625 70.011719 28.660156 70.066406 27.835938 69.679688 C 27.011719 69.296875 26.429688 68.53125 26.285156 67.628906 C 26.097656 66.503906 26.617188 65.371094 27.597656 64.785156 L 82.296875 32.046875 L 82.300781 32.046875 C 83.511719 31.320312 85.023438 31.316406 86.238281 32.035156 L 139.847656 63.796875 L 139.84375 63.796875 C 141.03125 64.503906 141.753906 65.785156 141.75 67.167969 C 141.746094 68.550781 141.011719 69.824219 139.816406 70.523438 L 86.203125 101.730469 C 85.003906 102.429688 83.519531 102.429688 82.320312 101.722656 L 28.453125 70.050781 C 29.03125 70.390625 29.734375 70.445312 30.355469 70.199219 C 30.980469 69.957031 31.457031 69.4375 31.648438 68.796875 C 31.714844 68.585938 31.75 68.367188 31.753906 68.144531 L 31.753906 81.132812 Z M 31.746094 81.128906 "/>
</g>
</svg>
