<?xml version="1.0" encoding="UTF-8"?>
<svg xmlns="http://www.w3.org/2000/svg" xmlns:xlink="http://www.w3.org/1999/xlink" width="168pt" height="168pt" viewBox="0 0 168 168" version="1.1">
<g id="surface1511">
<path style=" stroke:none;fill-rule:nonzero;fill:rgb(33.333333%,27.45098%,100%);fill-opacity:1;" d="M 168 84 C 168 130.390625 130.390625 168 84 168 C 37.609375 168 0 130.390625 0 84 C 0 37.609375 37.609375 0 84 0 C 130.390625 0 168 37.609375 168 84 "/>
<path style=" stroke:none;fill-rule:nonzero;fill:rgb(100%,100%,100%);fill-opacity:1;" d="M 101.425781 99.921875 L 120.378906 128.625 L 106.21875 128.625 L 83.957031 94.902344 L 61.707031 128.625 L 47.617188 128.625 L 66.574219 99.996094 L 39.375 99.996094 L 39.375 89.128906 L 128.625 89.128906 L 128.625 99.921875 Z M 128.625 67.699219 L 128.625 78.644531 L 39.375 78.644531 L 39.375 67.703125 L 66.050781 67.703125 L 47.316406 39.375 L 61.480469 39.375 L 83.960938 73.546875 L 106.515625 39.375 L 120.679688 39.375 L 101.949219 67.699219 Z M 128.625 67.699219 "/>
</g>
</svg>
