<?xml version="1.0" encoding="UTF-8"?>
<svg xmlns="http://www.w3.org/2000/svg" xmlns:xlink="http://www.w3.org/1999/xlink" width="168pt" height="168pt" viewBox="0 0 168 168" version="1.1">
<g id="surface706">
<path style=" stroke:none;fill-rule:nonzero;fill:rgb(89.803922%,20.392157%,19.215686%);fill-opacity:1;" d="M 168 84 C 168 130.390625 130.390625 168 84 168 C 37.609375 168 0 130.390625 0 84 C 0 37.609375 37.609375 0 84 0 C 130.390625 0 168 37.609375 168 84 "/>
<path style=" stroke:none;fill-rule:nonzero;fill:rgb(100%,100%,100%);fill-opacity:1;" d="M 63.613281 27.898438 C 63.839844 27.722656 64.117188 27.632812 64.402344 27.636719 C 64.6875 27.636719 64.960938 27.726562 65.1875 27.898438 L 71.785156 32.84375 L 71.789062 32.84375 C 72.367188 33.28125 72.484375 34.105469 72.046875 34.683594 C 71.613281 35.265625 70.789062 35.378906 70.207031 34.945312 L 64.402344 30.605469 L 45.515625 44.761719 L 128.464844 106.996094 L 128.46875 106.996094 C 128.800781 107.246094 128.996094 107.636719 128.996094 108.054688 C 128.996094 108.46875 128.800781 108.859375 128.46875 109.109375 L 122.375 113.675781 L 122.371094 113.679688 C 121.789062 114.113281 120.964844 113.992188 120.53125 113.410156 C 120.09375 112.828125 120.214844 112.003906 120.796875 111.566406 L 125.484375 108.050781 L 42.53125 45.828125 C 42.195312 45.582031 42 45.191406 42 44.777344 C 42 44.363281 42.195312 43.972656 42.53125 43.726562 L 63.617188 27.902344 Z M 84.703125 27.898438 C 85.164062 27.539062 85.8125 27.535156 86.277344 27.886719 L 128.460938 59.527344 L 128.460938 59.53125 C 128.917969 59.867188 129.101562 60.460938 128.914062 60.996094 C 128.738281 61.535156 128.234375 61.898438 127.667969 61.898438 L 106.578125 61.898438 L 106.582031 61.898438 C 106.296875 61.894531 106.019531 61.804688 105.792969 61.636719 L 78.109375 40.878906 L 78.109375 40.875 C 77.527344 40.441406 77.40625 39.613281 77.84375 39.03125 C 78.28125 38.449219 79.105469 38.328125 79.691406 38.765625 L 107.027344 59.261719 L 123.71875 59.261719 L 85.5 30.597656 L 59.039062 50.441406 L 59.035156 50.441406 C 58.757812 50.652344 58.40625 50.742188 58.058594 50.691406 C 57.710938 50.640625 57.402344 50.457031 57.191406 50.175781 C 56.753906 49.59375 56.875 48.769531 57.457031 48.332031 Z M 48.351562 55.171875 C 48.933594 54.820312 49.691406 54.96875 50.097656 55.511719 C 50.503906 56.058594 50.429688 56.824219 49.925781 57.28125 L 45.511719 60.589844 L 128.46875 122.824219 C 128.800781 123.070312 129 123.460938 129 123.878906 C 129 124.296875 128.800781 124.6875 128.46875 124.933594 L 107.378906 140.75 L 107.378906 140.753906 C 106.910156 141.097656 106.273438 141.097656 105.804688 140.753906 L 99.699219 136.175781 C 99.417969 135.964844 99.234375 135.648438 99.183594 135.304688 C 99.136719 134.957031 99.226562 134.605469 99.4375 134.324219 C 99.875 133.742188 100.707031 133.625 101.289062 134.0625 L 106.589844 138.035156 L 125.488281 123.859375 L 42.515625 61.644531 C 42.1875 61.394531 41.992188 61.003906 41.992188 60.589844 C 41.992188 60.175781 42.1875 59.785156 42.515625 59.535156 L 48.34375 55.175781 Z M 43.316406 106.722656 L 43.316406 106.734375 L 64.398438 106.734375 C 64.679688 106.730469 64.957031 106.820312 65.183594 106.996094 L 92.566406 127.527344 C 93.152344 127.960938 93.269531 128.789062 92.835938 129.371094 C 92.402344 129.953125 91.574219 130.074219 90.992188 129.636719 L 63.976562 109.367188 L 47.277344 109.367188 L 85.503906 138.03125 L 111.910156 118.226562 L 111.910156 118.230469 C 112.492188 117.792969 113.320312 117.910156 113.757812 118.492188 C 114.195312 119.074219 114.078125 119.902344 113.496094 120.339844 L 86.296875 140.730469 L 86.292969 140.730469 C 86.066406 140.902344 85.789062 140.992188 85.507812 140.992188 C 85.222656 140.996094 84.941406 140.90625 84.714844 140.730469 L 42.519531 109.097656 L 42.519531 109.101562 C 42.097656 109.09375 41.707031 108.890625 41.460938 108.546875 C 41.21875 108.203125 41.152344 107.761719 41.285156 107.363281 C 41.421875 106.964844 41.738281 106.652344 42.140625 106.527344 C 42.539062 106.398438 42.980469 106.472656 43.316406 106.722656 Z M 43.316406 106.722656 "/>
</g>
</svg>
