<?xml version="1.0" encoding="UTF-8"?>
<svg xmlns="http://www.w3.org/2000/svg" xmlns:xlink="http://www.w3.org/1999/xlink" width="168pt" height="168pt" viewBox="0 0 168 168" version="1.1">
<g id="surface1964">
<path style=" stroke:none;fill-rule:nonzero;fill:rgb(17.647059%,61.176471%,85.882353%);fill-opacity:1;" d="M 168 84 C 168 130.390625 130.390625 168 84 168 C 37.609375 168 0 130.390625 0 84 C 0 37.609375 37.609375 0 84 0 C 130.390625 0 168 37.609375 168 84 "/>
<path style=" stroke:none;fill-rule:nonzero;fill:rgb(100%,100%,100%);fill-opacity:1;" d="M 94.820312 47.691406 C 112.691406 66.414062 117.226562 69.71875 121.570312 70.914062 C 106.476562 69.023438 97.960938 67.953125 83.738281 60.488281 L 74.761719 70.9375 L 131.25 83.476562 C 113.578125 98.503906 105.925781 106.507812 94.820312 120.300781 L 73.449219 120.296875 C 64.058594 106.550781 57.792969 102.089844 45.730469 96.53125 C 61.785156 98.011719 70.710938 99 83.742188 106.714844 L 93.511719 95.742188 L 36.75 83.476562 C 49.949219 72.597656 57.628906 65.34375 73.441406 47.691406 Z M 74.761719 45.082031 C 79.644531 39.070312 81.640625 36.148438 84.265625 31.5 C 86.839844 36.289062 88.828125 39.242188 93.503906 45.082031 Z M 93.503906 122.917969 C 88.613281 128.929688 86.613281 131.855469 84 136.5 C 81.425781 131.710938 79.433594 128.757812 74.761719 122.917969 Z M 93.503906 122.917969 "/>
</g>
</svg>
