<?xml version="1.0" encoding="UTF-8"?>
<svg xmlns="http://www.w3.org/2000/svg" xmlns:xlink="http://www.w3.org/1999/xlink" width="168pt" height="168pt" viewBox="0 0 168 168" version="1.1">
<g id="surface2159">
<path style=" stroke:none;fill-rule:nonzero;fill:rgb(83.921569%,34.509804%,57.254902%);fill-opacity:1;" d="M 168 84 C 168 130.390625 130.390625 168 84 168 C 37.609375 168 0 130.390625 0 84 C 0 37.609375 37.609375 0 84 0 C 130.390625 0 168 37.609375 168 84 "/>
<path style=" stroke:none;fill-rule:evenodd;fill:rgb(100%,100%,100%);fill-opacity:1;" d="M 72.417969 36.855469 C 82.195312 37.679688 95.132812 43.050781 107.601562 52.144531 C 120.023438 61.289062 129.136719 72.171875 133.011719 81.367188 C 135.847656 88.039062 135.941406 93.945312 133.105469 98.007812 L 113.648438 125.871094 C 110.8125 129.933594 105.285156 131.726562 98.25 131.148438 C 88.472656 130.277344 75.484375 124.953125 63.066406 115.8125 C 50.597656 106.714844 41.53125 95.832031 37.605469 86.636719 C 34.777344 79.964844 34.679688 74.058594 37.515625 69.996094 L 57.019531 42.132812 C 59.855469 38.070312 65.335938 36.277344 72.417969 36.855469 Z M 113.304688 102.207031 C 112.925781 102.144531 112.566406 102.402344 112.5 102.78125 C 112.433594 103.160156 112.6875 103.523438 113.0625 103.59375 C 116.90625 104.277344 120.34375 104.398438 123.214844 103.929688 L 123.21875 103.929688 C 123.578125 103.847656 123.816406 103.496094 123.753906 103.128906 C 123.695312 102.761719 123.363281 102.507812 122.992188 102.542969 C 120.292969 102.984375 117.007812 102.863281 113.304688 102.207031 Z M 107.050781 101.433594 L 107.054688 101.433594 C 107 101.613281 107.023438 101.808594 107.113281 101.972656 C 107.203125 102.132812 107.355469 102.253906 107.535156 102.308594 C 108.460938 102.570312 109.371094 102.808594 110.269531 103.015625 C 110.632812 103.0625 110.96875 102.832031 111.050781 102.476562 C 111.132812 102.121094 110.929688 101.765625 110.585938 101.652344 C 109.714844 101.441406 108.820312 101.210938 107.914062 100.953125 C 107.542969 100.847656 107.15625 101.0625 107.054688 101.433594 Z M 59.714844 44.117188 L 59.621094 44.304688 C 57.496094 47.550781 57.96875 52.144531 60.1875 57.367188 C 63.914062 66.171875 72.65625 76.476562 84.511719 85.1875 C 96.367188 93.890625 108.691406 99.070312 117.996094 99.84375 C 123.570312 100.28125 127.960938 99.265625 130.28125 96.214844 L 130.417969 95.972656 C 132.6875 92.777344 132.214844 88.035156 129.996094 82.714844 C 126.261719 73.957031 117.523438 63.65625 105.621094 54.941406 C 93.765625 46.238281 81.441406 41.058594 72.136719 40.289062 C 66.464844 39.800781 61.984375 40.867188 59.714844 44.109375 Z M 55.808594 56.96875 C 55.4375 57.078125 55.226562 57.46875 55.335938 57.839844 C 57.730469 66.050781 63.808594 73.867188 73.371094 82.671875 L 74.449219 83.660156 L 74.445312 83.660156 C 75.183594 84.328125 75.929688 84.996094 76.679688 85.652344 C 76.972656 85.90625 77.414062 85.871094 77.667969 85.578125 L 77.667969 85.582031 C 77.921875 85.289062 77.894531 84.84375 77.601562 84.589844 C 77.023438 84.089844 76.46875 83.59375 75.910156 83.09375 L 74.824219 82.105469 C 65.148438 73.269531 59.023438 65.484375 56.675781 57.445312 L 56.671875 57.445312 C 56.621094 57.265625 56.503906 57.117188 56.339844 57.027344 C 56.175781 56.9375 55.984375 56.914062 55.808594 56.96875 Z M 83.375 55.484375 C 88.003906 55.921875 94.191406 58.480469 100.097656 62.835938 C 106.046875 67.195312 110.441406 72.371094 112.277344 76.769531 C 113.371094 79.238281 113.652344 81.414062 112.566406 82.910156 C 111.527344 84.410156 109.402344 84.851562 106.800781 84.605469 C 102.128906 84.21875 95.984375 81.609375 90.039062 77.253906 C 84.085938 72.894531 79.695312 67.765625 77.855469 63.367188 C 76.816406 60.898438 76.53125 58.722656 77.570312 57.226562 C 78.609375 55.726562 80.730469 55.289062 83.375 55.484375 Z M 55.039062 51.398438 C 54.65625 51.414062 54.355469 51.742188 54.367188 52.128906 C 54.410156 53.085938 54.507812 54.046875 54.675781 55.015625 L 54.679688 55.015625 C 54.746094 55.394531 55.105469 55.648438 55.488281 55.582031 C 55.867188 55.515625 56.121094 55.152344 56.054688 54.773438 C 55.898438 53.878906 55.804688 52.976562 55.765625 52.070312 C 55.757812 51.882812 55.679688 51.710938 55.542969 51.582031 C 55.40625 51.457031 55.226562 51.390625 55.039062 51.398438 Z M 55.039062 51.398438 "/>
</g>
</svg>
