<?xml version="1.0" encoding="UTF-8"?>
<svg xmlns="http://www.w3.org/2000/svg" xmlns:xlink="http://www.w3.org/1999/xlink" width="168pt" height="168pt" viewBox="0 0 168 168" version="1.1">
<g id="surface2109">
<path style=" stroke:none;fill-rule:nonzero;fill:rgb(0%,50.980392%,77.647059%);fill-opacity:1;" d="M 168 84 C 168 130.390625 130.390625 168 84 168 C 37.609375 168 0 130.390625 0 84 C 0 37.609375 37.609375 0 84 0 C 130.390625 0 168 37.609375 168 84 "/>
<path style=" stroke:none;fill-rule:nonzero;fill:rgb(100%,100%,100%);fill-opacity:1;" d="M 94.742188 79.289062 C 94.515625 79.246094 94.285156 79.328125 94.144531 79.507812 C 94.046875 79.628906 94.003906 79.785156 94.027344 79.941406 C 94.046875 80.097656 94.136719 80.234375 94.265625 80.324219 C 117.253906 97.007812 84.53125 135.207031 21 94.558594 C 74.863281 145.246094 149.871094 89.257812 94.742188 79.292969 Z M 64.0625 56.988281 C 16.359375 72.25 71.007812 108.242188 75.75 90.0625 L 75.746094 90.0625 C 75.789062 89.910156 75.765625 89.746094 75.683594 89.609375 C 75.601562 89.472656 75.46875 89.378906 75.3125 89.34375 C 75.199219 89.316406 75.085938 89.316406 74.976562 89.351562 C 67.957031 91.636719 29.296875 80.824219 64.054688 56.992188 Z M 147 66.160156 C 105.699219 36.707031 28.203125 60.996094 68.183594 81.789062 C 68.476562 81.941406 68.839844 81.832031 69.007812 81.542969 C 69.089844 81.382812 69.097656 81.191406 69.023438 81.027344 C 52.761719 46.671875 135.351562 57.121094 147 66.160156 Z M 112.726562 108.953125 C 134.5625 99.03125 116.804688 65.058594 87.925781 71.613281 L 87.925781 71.617188 C 87.605469 71.6875 87.28125 71.488281 87.203125 71.167969 C 87.152344 70.953125 87.234375 70.726562 87.414062 70.589844 C 109.882812 53.707031 152.0625 93.121094 112.730469 108.953125 Z M 112.726562 108.953125 "/>
</g>
</svg>
