<?xml version="1.0" encoding="UTF-8"?>
<svg xmlns="http://www.w3.org/2000/svg" xmlns:xlink="http://www.w3.org/1999/xlink" width="168pt" height="168pt" viewBox="0 0 168 168" version="1.1">
<g id="surface736">
<path style=" stroke:none;fill-rule:nonzero;fill:rgb(0%,13.72549%,25.882353%);fill-opacity:1;" d="M 168 84 C 168 130.390625 130.390625 168 84 168 C 37.609375 168 0 130.390625 0 84 C 0 37.609375 37.609375 0 84 0 C 130.390625 0 168 37.609375 168 84 "/>
<path style=" stroke:none;fill-rule:nonzero;fill:rgb(100%,100%,100%);fill-opacity:1;" d="M 21 68.25 L 27.816406 68.25 L 27.816406 74.660156 L 21 74.660156 Z M 27.816406 93.3125 L 47.644531 93.3125 L 47.644531 99.75 L 21 99.75 L 21 81.070312 L 41.003906 81.070312 L 41.003906 87.476562 L 27.820312 87.476562 L 27.820312 93.316406 Z M 120.359375 81.070312 L 147 81.070312 L 147 99.75 L 126.996094 99.75 L 126.996094 93.3125 L 140.183594 93.3125 L 140.183594 87.480469 L 120.355469 87.480469 L 120.355469 81.070312 Z M 140.300781 74.96875 L 120.351562 74.96875 L 120.351562 68.558594 L 140.300781 68.558594 Z M 54.144531 81.070312 L 80.789062 81.070312 L 80.789062 93.585938 L 74.152344 93.585938 L 74.144531 99.75 L 54.136719 99.75 L 54.136719 81.070312 Z M 73.972656 93.3125 L 73.972656 87.480469 L 60.953125 87.480469 L 60.953125 93.308594 L 73.972656 93.308594 Z M 54.136719 68.25 L 80.78125 68.25 L 80.78125 74.660156 L 54.136719 74.660156 Z M 87.390625 81.070312 L 114.035156 81.070312 L 114.035156 93.585938 L 107.398438 93.585938 L 107.398438 99.75 L 87.394531 99.75 L 87.394531 81.070312 Z M 107.195312 93.3125 L 107.195312 87.480469 L 94.175781 87.480469 L 94.175781 93.308594 L 107.195312 93.308594 Z M 87.390625 68.25 L 114.035156 68.25 L 114.035156 74.660156 L 87.390625 74.660156 Z M 87.390625 68.25 "/>
</g>
</svg>
