<?xml version="1.0" encoding="UTF-8"?>
<svg xmlns="http://www.w3.org/2000/svg" xmlns:xlink="http://www.w3.org/1999/xlink" width="168pt" height="168pt" viewBox="0 0 168 168" version="1.1">
<g id="surface976">
<path style=" stroke:none;fill-rule:evenodd;fill:rgb(48.235294%,20.392157%,43.137255%);fill-opacity:1;" d="M 168 84 C 168 130.390625 130.390625 168 84 168 C 37.609375 168 0 130.390625 0 84 C 0 37.609375 37.609375 0 84 0 C 130.390625 0 168 37.609375 168 84 "/>
<path style=" stroke:none;fill-rule:nonzero;fill:rgb(100%,100%,100%);fill-opacity:1;" d="M 42.492188 71.808594 L 53.570312 82.886719 L 31.5 82.886719 Z M 53.570312 85.195312 L 42.492188 96.1875 L 31.5 85.195312 Z M 68.542969 70.21875 L 57.464844 81.210938 L 57.464844 59.144531 Z M 55.15625 81.210938 L 44.167969 70.21875 L 55.160156 59.140625 Z M 70.140625 68.542969 L 59.148438 57.550781 L 81.214844 57.550781 Z M 70.140625 44.167969 L 81.210938 55.238281 L 59.144531 55.238281 Z M 96.191406 42.570312 L 85.113281 53.5625 L 85.113281 31.5 Z M 82.804688 53.5625 L 71.808594 42.578125 L 82.804688 31.5 Z M 68.546875 97.855469 L 57.46875 108.847656 L 57.46875 86.78125 Z M 44.171875 97.855469 L 55.164062 86.785156 L 55.164062 108.851562 Z M 97.785156 68.539062 L 86.792969 57.546875 L 108.859375 57.546875 Z M 86.792969 55.234375 L 97.785156 44.15625 L 108.863281 55.234375 Z M 81.21875 112.839844 L 70.140625 123.832031 L 59.152344 112.839844 Z M 70.140625 99.453125 L 81.21875 110.53125 L 59.152344 110.53125 Z M 123.835938 70.222656 L 112.765625 81.214844 L 112.765625 59.148438 Z M 99.460938 70.222656 L 110.453125 59.144531 L 110.453125 81.214844 Z M 71.8125 125.503906 L 82.804688 114.4375 L 82.808594 136.5 Z M 85.117188 114.4375 L 96.195312 125.507812 L 85.113281 136.5 Z M 97.785156 123.835938 L 86.792969 112.84375 L 108.859375 112.84375 Z M 97.785156 99.460938 L 108.863281 110.539062 L 86.78125 110.535156 Z M 112.761719 86.792969 L 123.839844 97.871094 L 112.761719 108.859375 Z M 99.457031 97.871094 L 110.449219 86.792969 L 110.449219 108.859375 Z M 125.429688 96.191406 L 114.4375 85.203125 L 136.5 85.195312 Z M 125.429688 71.816406 L 136.5 82.886719 L 114.433594 82.886719 Z M 125.429688 71.816406 "/>
</g>
</svg>
