<?xml version="1.0" encoding="UTF-8"?>
<svg xmlns="http://www.w3.org/2000/svg" xmlns:xlink="http://www.w3.org/1999/xlink" width="168pt" height="168pt" viewBox="0 0 168 168" version="1.1">
<g id="surface1281">
<path style=" stroke:none;fill-rule:nonzero;fill:rgb(32.156863%,26.666667%,83.137255%);fill-opacity:1;" d="M 168 84 C 168 130.390625 130.390625 168 84 168 C 37.609375 168 0 130.390625 0 84 C 0 37.609375 37.609375 0 84 0 C 130.390625 0 168 37.609375 168 84 "/>
<path style=" stroke:none;fill-rule:nonzero;fill:rgb(100%,100%,100%);fill-opacity:1;" d="M 82.425781 143.851562 C 48.5 143.851562 21 116.351562 21 82.425781 C 21 48.5 48.5 21 82.425781 21 C 116.351562 21 143.851562 48.5 143.851562 82.425781 C 143.851562 116.351562 116.351562 143.851562 82.425781 143.851562 Z M 97.597656 103.425781 L 82.425781 82.425781 L 67.253906 103.425781 L 54.917969 82.425781 L 68.671875 58.90625 L 96.183594 58.90625 L 109.9375 82.425781 L 97.601562 103.425781 Z M 102.113281 48.824219 L 62.738281 48.824219 L 43.101562 82.425781 L 62.789062 116.027344 L 102.113281 116.027344 L 121.75 82.425781 Z M 102.113281 48.824219 "/>
</g>
</svg>
