<?xml version="1.0" encoding="UTF-8"?>
<svg xmlns="http://www.w3.org/2000/svg" xmlns:xlink="http://www.w3.org/1999/xlink" width="168pt" height="168pt" viewBox="0 0 168 168" version="1.1">
<g id="surface1686">
<path style=" stroke:none;fill-rule:evenodd;fill:rgb(7.843137%,78.431373%,100%);fill-opacity:1;" d="M 168 84 C 168 130.390625 130.390625 168 84 168 C 37.609375 168 0 130.390625 0 84 C 0 37.609375 37.609375 0 84 0 C 130.390625 0 168 37.609375 168 84 "/>
<path style=" stroke:none;fill-rule:nonzero;fill:rgb(100%,100%,100%);fill-opacity:1;" d="M 131.671875 60.257812 C 134.996094 62.949219 137.089844 68.519531 136.355469 72.609375 L 129.214844 112.109375 C 128.46875 116.226562 124.53125 120.757812 120.480469 122.179688 L 81.53125 135.855469 C 77.476562 137.277344 71.453125 136.25 68.132812 133.554688 L 36.328125 107.742188 C 33.003906 105.050781 30.90625 99.503906 31.65625 95.390625 L 38.796875 55.890625 C 39.53125 51.777344 43.46875 47.25 47.527344 45.820312 L 86.480469 32.140625 C 90.539062 30.710938 96.558594 31.753906 99.882812 34.441406 Z M 98.539062 77.992188 L 100.125 69.960938 L 85.257812 69.988281 L 87.359375 59.402344 L 82.550781 59.402344 C 79.085938 64.714844 74.039062 68.800781 68.125 71.085938 L 66.777344 78.011719 L 73.277344 78.011719 C 73.277344 78.011719 71.078125 87.957031 70.335938 91.625 C 68.5 100.96875 73.117188 107.59375 80.214844 107.59375 L 92.226562 107.59375 L 94.328125 98.722656 L 84.28125 98.722656 C 79.820312 98.722656 80.054688 96.28125 80.921875 91.949219 L 83.6875 77.972656 Z M 98.539062 77.992188 "/>
</g>
</svg>
