<?xml version="1.0" encoding="UTF-8"?>
<svg xmlns="http://www.w3.org/2000/svg" xmlns:xlink="http://www.w3.org/1999/xlink" width="168pt" height="168pt" viewBox="0 0 168 168" version="1.1">
<g id="surface2410">
<path style=" stroke:none;fill-rule:nonzero;fill:rgb(3.137255%,60%,80.392157%);fill-opacity:1;" d="M 168 84 C 168 130.390625 130.390625 168 84 168 C 37.609375 168 0 130.390625 0 84 C 0 37.609375 37.609375 0 84 0 C 130.390625 0 168 37.609375 168 84 "/>
<path style=" stroke:none;fill-rule:nonzero;fill:rgb(100%,100%,100%);fill-opacity:1;" d="M 141.59375 88.550781 C 140.613281 102.5625 135.019531 114.648438 124.820312 124.816406 C 122.246094 127.394531 119.554688 129.679688 116.734375 131.667969 L 116.734375 131.671875 C 116.609375 131.484375 116.476562 131.304688 116.328125 131.132812 L 140.949219 88.476562 C 141.160156 88.511719 141.371094 88.539062 141.589844 88.550781 Z M 114.097656 133.429688 C 105.226562 138.976562 95.1875 141.75 84 141.75 C 73.304688 141.75 63.660156 139.214844 55.066406 134.148438 C 56.359375 134.910156 57.671875 135.609375 59.007812 136.25 L 59.011719 136.246094 C 59.140625 136.03125 59.253906 135.804688 59.347656 135.566406 L 108.65625 135.566406 L 108.652344 135.566406 C 108.742188 135.804688 108.855469 136.03125 108.984375 136.246094 C 110.734375 135.40625 112.433594 134.460938 114.097656 133.425781 Z M 51.265625 131.695312 C 48.359375 129.640625 45.636719 127.339844 43.128906 124.820312 C 32.960938 114.652344 27.390625 102.558594 26.40625 88.554688 L 26.40625 88.550781 C 26.621094 88.542969 26.832031 88.519531 27.042969 88.476562 L 51.671875 131.132812 C 51.519531 131.308594 51.386719 131.496094 51.265625 131.695312 Z M 26.25 83.109375 C 26.460938 67.53125 32.078125 54.203125 43.125 43.125 C 54.417969 31.878906 68.039062 26.25 84 26.25 C 99.960938 26.25 113.566406 31.878906 124.820312 43.128906 C 136.054688 54.363281 141.699219 67.917969 141.75 83.785156 C 141.746094 82.371094 141.695312 80.957031 141.59375 79.546875 C 141.378906 79.558594 141.167969 79.585938 140.957031 79.625 L 116.355469 36.890625 C 116.507812 36.714844 116.644531 36.523438 116.765625 36.324219 C 114.3125 34.585938 111.71875 33.054688 109.011719 31.746094 C 108.871094 31.984375 108.75 32.234375 108.652344 32.492188 L 59.34375 32.492188 L 59.347656 32.492188 C 59.25 32.234375 59.132812 31.984375 58.988281 31.746094 C 56.304688 33.039062 53.722656 34.554688 51.238281 36.304688 C 51.359375 36.515625 51.5 36.726562 51.667969 36.914062 L 27.039062 79.628906 L 27.042969 79.625 C 26.832031 79.582031 26.617188 79.558594 26.402344 79.546875 C 26.324219 80.722656 26.269531 81.910156 26.253906 83.113281 Z M 138.316406 81.15625 C 137.964844 81.550781 137.6875 82.011719 137.496094 82.507812 L 117.140625 82.507812 L 117.144531 82.507812 C 116.90625 81.894531 116.539062 81.335938 116.066406 80.875 C 115.605469 80.402344 115.046875 80.035156 114.429688 79.800781 L 114.429688 39.753906 L 138.316406 81.160156 Z M 137.496094 85.582031 C 137.6875 86.078125 137.964844 86.535156 138.316406 86.933594 L 114.429688 128.292969 L 114.429688 88.289062 C 115.046875 88.054688 115.605469 87.691406 116.066406 87.21875 C 116.539062 86.757812 116.90625 86.199219 117.144531 85.582031 L 137.5 85.582031 Z M 30.5 82.515625 L 30.503906 82.515625 C 30.3125 82.015625 30.035156 81.558594 29.683594 81.160156 L 53.570312 39.753906 L 53.570312 79.804688 C 52.953125 80.039062 52.394531 80.40625 51.933594 80.882812 C 51.460938 81.339844 51.09375 81.898438 50.855469 82.515625 Z M 59.296875 35.664062 C 59.320312 35.628906 59.335938 35.59375 59.351562 35.558594 L 108.660156 35.558594 C 108.851562 36.054688 109.128906 36.511719 109.476562 36.914062 L 94.410156 62.953125 C 93.375 62.75 92.300781 62.929688 91.390625 63.460938 Z M 59.347656 82.515625 L 59.351562 82.515625 C 59.113281 81.898438 58.746094 81.339844 58.273438 80.882812 C 57.8125 80.410156 57.253906 80.042969 56.636719 79.804688 L 56.636719 39.753906 L 80.550781 81.109375 L 80.550781 81.105469 C 80.203125 81.523438 79.9375 82 79.761719 82.515625 Z M 97.839844 68.988281 L 97.84375 68.984375 C 98.03125 68.46875 98.128906 67.921875 98.121094 67.375 C 98.132812 66.316406 97.761719 65.289062 97.074219 64.484375 L 111.375 39.757812 L 111.375 79.800781 C 111.144531 79.882812 110.917969 79.988281 110.707031 80.109375 L 97.84375 68.980469 Z M 89.425781 65.769531 L 89.429688 65.765625 C 89.21875 66.277344 89.113281 66.824219 89.117188 67.375 C 89.117188 68.476562 89.472656 69.445312 90.195312 70.269531 L 84.796875 79.578125 L 84.796875 79.574219 C 84.273438 79.46875 83.734375 79.46875 83.210938 79.574219 L 60.984375 41.160156 L 89.421875 65.765625 Z M 88.269531 82.515625 L 88.273438 82.515625 C 88.085938 82.003906 87.8125 81.527344 87.460938 81.113281 L 92.832031 71.800781 C 93.863281 72.003906 94.9375 71.820312 95.847656 71.289062 L 108.710938 82.414062 C 108.695312 82.449219 108.679688 82.484375 108.660156 82.519531 L 88.273438 82.519531 Z M 109.730469 87.226562 L 109.734375 87.222656 C 110.195312 87.695312 110.757812 88.0625 111.375 88.300781 L 111.375 128.296875 L 87.460938 86.867188 C 87.789062 86.488281 88.046875 86.054688 88.226562 85.585938 L 108.660156 85.585938 C 108.894531 86.203125 109.261719 86.761719 109.734375 87.222656 Z M 83.261719 88.453125 L 83.265625 88.453125 C 83.773438 88.519531 84.292969 88.511719 84.796875 88.425781 L 107.019531 126.914062 L 78.605469 102.339844 L 78.609375 102.339844 C 78.800781 101.824219 78.894531 101.277344 78.890625 100.726562 C 78.90625 99.667969 78.53125 98.640625 77.839844 97.839844 Z M 108.707031 132.390625 L 108.710938 132.390625 C 108.695312 132.425781 108.679688 132.460938 108.660156 132.496094 L 59.351562 132.496094 C 59.171875 131.996094 58.902344 131.535156 58.558594 131.132812 L 73.59375 105.144531 L 73.59375 105.148438 C 74.628906 105.351562 75.703125 105.171875 76.613281 104.636719 L 108.710938 132.386719 Z M 75.175781 96.300781 L 75.179688 96.300781 C 74.144531 96.097656 73.070312 96.277344 72.160156 96.808594 L 59.296875 85.6875 L 59.296875 85.691406 C 59.320312 85.65625 59.335938 85.621094 59.351562 85.585938 L 79.785156 85.585938 C 79.964844 86.058594 80.226562 86.503906 80.578125 86.914062 L 75.179688 96.300781 Z M 70.1875 99.113281 L 70.191406 99.113281 C 69.984375 99.625 69.882812 100.175781 69.886719 100.726562 C 69.886719 101.828125 70.242188 102.789062 70.964844 103.613281 L 56.636719 128.320312 L 56.636719 88.292969 C 56.867188 88.210938 57.089844 88.109375 57.304688 87.988281 L 70.195312 99.117188 Z M 51.929688 87.222656 L 51.933594 87.222656 C 52.394531 87.695312 52.953125 88.0625 53.570312 88.300781 L 53.570312 128.296875 L 29.683594 86.941406 C 30.035156 86.542969 30.3125 86.082031 30.503906 85.585938 L 50.859375 85.585938 L 50.855469 85.585938 C 51.09375 86.203125 51.460938 86.761719 51.933594 87.222656 Z M 51.929688 87.222656 "/>
</g>
</svg>
