<?xml version="1.0" encoding="UTF-8"?>
<svg xmlns="http://www.w3.org/2000/svg" xmlns:xlink="http://www.w3.org/1999/xlink" width="168pt" height="168pt" viewBox="0 0 168 168" version="1.1">
<g id="surface1806">
<path style=" stroke:none;fill-rule:nonzero;fill:rgb(95.686275%,76.078431%,34.117647%);fill-opacity:1;" d="M 168 84 C 168 130.390625 130.390625 168 84 168 C 37.609375 168 0 130.390625 0 84 C 0 37.609375 37.609375 0 84 0 C 130.390625 0 168 37.609375 168 84 "/>
<path style=" stroke:none;fill-rule:nonzero;fill:rgb(100%,100%,100%);fill-opacity:1;" d="M 44.074219 113.078125 L 37.972656 109.535156 L 37.972656 56.097656 L 47.800781 50.386719 L 53.902344 53.925781 L 44.074219 59.644531 L 44.074219 78.21875 L 68.925781 92.667969 L 68.925781 99.539062 L 44.074219 85.097656 L 44.074219 113.082031 Z M 129.9375 102.445312 L 129.9375 109.53125 L 83.957031 136.253906 L 74.128906 130.535156 L 74.128906 123.449219 L 83.957031 129.160156 L 99.941406 119.871094 L 99.941406 90.984375 L 105.851562 87.546875 L 105.851562 116.4375 L 129.933594 102.441406 Z M 141.660156 82.808594 L 141.660156 81.601562 L 117.929688 95.398438 L 117.929688 88.519531 L 141.660156 74.726562 L 141.660156 49.28125 L 83.949219 15.75 L 55.101562 32.519531 L 54.0625 33.125 L 77.792969 46.917969 L 71.882812 50.351562 L 48.152344 36.558594 L 26.25 49.28125 L 26.25 116.34375 L 55.097656 133.113281 L 56.140625 133.71875 L 56.140625 106.136719 L 62.050781 109.570312 L 62.050781 137.160156 L 83.953125 149.882812 L 141.65625 116.351562 L 141.65625 82.820312 Z M 111.761719 70.082031 L 87.875 83.972656 L 87.875 112.859375 L 83.957031 115.132812 L 81 113.417969 L 81 85.644531 L 56.140625 71.195312 L 56.140625 66.648438 L 59.097656 64.925781 L 82.996094 78.8125 L 107.855469 64.375 L 111.765625 66.648438 L 111.765625 70.085938 Z M 77.859375 32.917969 L 83.953125 29.378906 L 129.933594 56.101562 L 129.933594 67.519531 L 123.84375 71.058594 L 123.84375 59.632812 L 107.84375 50.347656 L 82.992188 64.789062 L 77.074219 61.355469 L 101.933594 46.90625 Z M 77.859375 32.917969 "/>
</g>
</svg>
