<?xml version="1.0" encoding="UTF-8"?>
<svg xmlns="http://www.w3.org/2000/svg" xmlns:xlink="http://www.w3.org/1999/xlink" width="168pt" height="168pt" viewBox="0 0 168 168" version="1.1">
<g id="surface1801">
<path style=" stroke:none;fill-rule:nonzero;fill:rgb(26.27451%,25.882353%,27.843137%);fill-opacity:1;" d="M 168 84 C 168 130.390625 130.390625 168 84 168 C 37.609375 168 0 130.390625 0 84 C 0 37.609375 37.609375 0 84 0 C 130.390625 0 168 37.609375 168 84 "/>
<path style=" stroke:none;fill-rule:nonzero;fill:rgb(100%,100%,100%);fill-opacity:1;" d="M 84 21 C 61.660156 21 41.011719 32.917969 29.84375 52.269531 C 18.671875 71.617188 18.671875 95.453125 29.84375 114.804688 C 41.011719 134.152344 61.660156 146.070312 84 146.070312 C 118.539062 146.070312 146.53125 118.070312 146.53125 83.53125 C 146.53125 49 118.546875 21 84 21 M 84 143.539062 C 50.832031 143.539062 23.941406 116.648438 23.941406 83.480469 C 23.941406 50.320312 50.835938 23.429688 84 23.429688 C 117.164062 23.429688 144.058594 50.320312 144.058594 83.488281 C 144.058594 116.652344 117.167969 143.542969 84 143.542969 "/>
<path style=" stroke:none;fill-rule:nonzero;fill:rgb(100%,100%,100%);fill-opacity:1;" d="M 90.867188 89.679688 L 106.722656 89.679688 L 106.722656 113.074219 C 106.722656 115.394531 104.34375 116.632812 102.078125 117.824219 C 99.855469 119.011719 96.238281 118.753906 90.144531 118.753906 L 82.710938 118.753906 C 71.296875 119.011719 68.09375 118.132812 65.359375 116.941406 C 62.625 115.703125 61.226562 113.949219 61.226562 111.675781 L 61.226562 89.679688 L 53.015625 89.679688 L 53.015625 114.464844 C 53.015625 115.808594 53.6875 117.359375 54.722656 118.753906 C 55.910156 120.355469 55.757812 120.816406 58.335938 122.109375 C 60.660156 123.296875 62.988281 124.226562 67.167969 124.746094 C 70.421875 125.15625 69.855469 125.054688 75.640625 125.15625 L 89.375 125.15625 C 99.703125 124.953125 101.816406 125.675781 107.960938 122.578125 C 112.976562 120.09375 114.679688 117.207031 115.039062 115.34375 L 115.039062 81.628906 L 90.925781 81.628906 L 90.925781 89.683594 M 69.496094 41.964844 C 65.3125 42.226562 61.851562 43.519531 59.167969 44.546875 C 56.433594 45.582031 55.859375 46.820312 54.726562 48.164062 C 53.675781 49.382812 53.089844 50.941406 53.074219 52.554688 L 53.074219 80.027344 L 61.335938 80.027344 L 61.332031 55.175781 C 61.332031 53.058594 62.625 51.359375 65.152344 50.121094 C 67.734375 48.828125 71.503906 48.210938 75.015625 48.210938 L 91.121094 48.210938 C 97.261719 48.210938 100.570312 48.105469 102.480469 49.238281 C 104.445312 50.476562 106.769531 51.5625 106.769531 53.890625 L 106.769531 60.449219 L 115.027344 60.449219 L 115.03125 51.625 C 114.878906 50.484375 113.640625 47.234375 107.800781 44.496094 C 102.535156 42.019531 100.835938 41.867188 92.570312 41.867188 "/>
</g>
</svg>
