<?xml version="1.0" encoding="UTF-8"?>
<svg xmlns="http://www.w3.org/2000/svg" xmlns:xlink="http://www.w3.org/1999/xlink" width="168pt" height="168pt" viewBox="0 0 168 168" version="1.1">
<g id="surface1969">
<path style=" stroke:none;fill-rule:evenodd;fill:rgb(16.470588%,72.156863%,90.196078%);fill-opacity:1;" d="M 168 84 C 168 130.390625 130.390625 168 84 168 C 37.609375 168 0 130.390625 0 84 C 0 37.609375 37.609375 0 84 0 C 130.390625 0 168 37.609375 168 84 "/>
<path style=" stroke:none;fill-rule:nonzero;fill:rgb(100%,100%,100%);fill-opacity:1;" d="M 57.539062 31.5 L 110.460938 31.5 L 115.5 36.714844 L 115.5 131.289062 L 110.460938 136.503906 L 57.539062 136.5 L 52.5 131.285156 L 52.5 36.714844 Z M 62.578125 126.066406 L 105.417969 126.066406 L 105.421875 41.933594 L 62.582031 41.933594 Z M 100.03125 98.925781 L 89.074219 98.925781 L 89.074219 110.804688 L 79.183594 110.804688 L 79.183594 98.929688 L 68.226562 98.929688 L 68.226562 88.699219 L 100.03125 88.699219 Z M 100.03125 69.621094 L 100.03125 79.847656 L 68.226562 79.847656 L 68.226562 69.621094 L 79.183594 69.621094 L 79.183594 57.742188 L 89.074219 57.742188 L 89.074219 69.621094 Z M 100.03125 69.621094 "/>
</g>
</svg>
