<?xml version="1.0" encoding="UTF-8"?>
<svg xmlns="http://www.w3.org/2000/svg" xmlns:xlink="http://www.w3.org/1999/xlink" width="168pt" height="168pt" viewBox="0 0 168 168" version="1.1">
<g id="surface91">
<path style=" stroke:none;fill-rule:nonzero;fill:rgb(93.72549%,28.627451%,30.196078%);fill-opacity:1;" d="M 168 84 C 168 130.390625 130.390625 168 84 168 C 37.609375 168 0 130.390625 0 84 C 0 37.609375 37.609375 0 84 0 C 130.390625 0 168 37.609375 168 84 "/>
<path style=" stroke:none;fill-rule:evenodd;fill:rgb(100%,100%,100%);fill-opacity:1;" d="M 31.5 59.777344 C 31.5 58.660156 32.410156 57.75 33.53125 57.75 L 59.90625 57.75 C 72.074219 57.75 79.6875 64.027344 79.6875 72.894531 C 79.6875 76.597656 77.996094 79.960938 74.617188 82.992188 C 79.347656 85.683594 81.714844 89.722656 81.714844 95.105469 C 81.714844 107.730469 69.542969 110.25 61.425781 110.25 L 33.527344 110.25 C 32.40625 110.25 31.5 109.34375 31.5 108.222656 L 31.5 102.183594 C 31.5 101.058594 32.410156 100.152344 33.527344 100.152344 L 61.425781 100.152344 C 67.175781 100.152344 70.050781 98.300781 70.050781 94.597656 C 70.050781 90.894531 67.171875 88.875 61.425781 88.539062 L 33.527344 88.542969 C 32.410156 88.542969 31.503906 87.636719 31.5 86.519531 L 31.5 80.480469 C 31.5 79.355469 32.410156 78.449219 33.527344 78.449219 L 61.425781 78.449219 C 65.484375 77.777344 67.515625 76.097656 67.515625 73.402344 C 67.515625 69.699219 65.484375 67.847656 61.425781 67.847656 L 33.527344 67.851562 C 32.988281 67.851562 32.472656 67.636719 32.089844 67.253906 C 31.710938 66.875 31.5 66.359375 31.5 65.820312 Z M 86.285156 59.777344 C 86.285156 58.660156 87.195312 57.75 88.3125 57.75 L 115.199219 57.75 C 116.316406 57.75 117.230469 58.660156 117.230469 59.777344 L 117.230469 108.222656 L 117.226562 108.222656 C 117.226562 108.761719 117.011719 109.277344 116.632812 109.660156 C 116.25 110.039062 115.734375 110.25 115.195312 110.25 L 107.582031 110.25 C 106.464844 110.25 105.554688 109.34375 105.554688 108.222656 L 105.554688 69.878906 C 105.558594 69.339844 105.34375 68.824219 104.964844 68.441406 C 104.585938 68.058594 104.070312 67.847656 103.53125 67.847656 L 88.304688 67.847656 C 87.1875 67.847656 86.277344 66.9375 86.277344 65.820312 Z M 124.320312 57.75 L 134.46875 57.75 C 135.585938 57.75 136.496094 58.660156 136.496094 59.777344 L 136.496094 65.816406 L 136.496094 65.8125 C 136.496094 66.351562 136.285156 66.871094 135.902344 67.25 C 135.523438 67.632812 135.007812 67.847656 134.46875 67.847656 L 124.320312 67.847656 C 123.199219 67.847656 122.292969 66.9375 122.292969 65.820312 L 122.292969 59.78125 C 122.292969 58.65625 123.203125 57.75 124.320312 57.75 Z M 124.320312 57.75 "/>
</g>
</svg>
