<?xml version="1.0" encoding="UTF-8"?>
<svg xmlns="http://www.w3.org/2000/svg" xmlns:xlink="http://www.w3.org/1999/xlink" width="168pt" height="168pt" viewBox="0 0 168 168" version="1.1">
<g id="surface346">
<path style=" stroke:none;fill-rule:nonzero;fill:rgb(14.117647%,86.666667%,48.235294%);fill-opacity:1;" d="M 168 84 C 168 130.390625 130.390625 168 84 168 C 37.609375 168 0 130.390625 0 84 C 0 37.609375 37.609375 0 84 0 C 130.390625 0 168 37.609375 168 84 "/>
<path style=" stroke:none;fill-rule:nonzero;fill:rgb(100%,100%,100%);fill-opacity:1;" d="M 68.734375 41.542969 L 91.847656 31.5 L 91.660156 58.027344 L 120.75 58.027344 L 120.75 76.402344 L 91.464844 76.402344 L 91.464844 108.234375 C 91.464844 117.894531 107.84375 119.035156 114.007812 115.816406 L 119.59375 132.492188 C 105.914062 140.445312 68.539062 138.550781 68.539062 108.425781 L 68.539062 41.539062 L 68.734375 41.539062 Z M 47.15625 81.328125 C 41.40625 81.328125 36.75 75.730469 36.75 68.828125 C 36.75 61.917969 41.40625 56.324219 47.15625 56.324219 C 52.898438 56.324219 57.554688 61.921875 57.554688 68.828125 C 57.554688 75.730469 52.898438 81.328125 47.15625 81.328125 Z M 47.15625 81.328125 "/>
</g>
</svg>
