<?xml version="1.0" encoding="UTF-8"?>
<svg xmlns="http://www.w3.org/2000/svg" xmlns:xlink="http://www.w3.org/1999/xlink" width="168pt" height="168pt" viewBox="0 0 168 168" version="1.1">
<g id="surface1691">
<path style=" stroke:none;fill-rule:nonzero;fill:rgb(53.72549%,35.294118%,97.254902%);fill-opacity:1;" d="M 168 84 C 168 130.390625 130.390625 168 84 168 C 37.609375 168 0 130.390625 0 84 C 0 37.609375 37.609375 0 84 0 C 130.390625 0 168 37.609375 168 84 "/>
<path style=" stroke:none;fill-rule:evenodd;fill:rgb(100%,100%,100%);fill-opacity:1;" d="M 93.292969 74.8125 C 94.132812 74.761719 94.972656 74.761719 95.8125 74.8125 C 103.582031 75.335938 107.152344 85.890625 112.085938 85.3125 C 107.460938 89.09375 102.097656 91.867188 96.335938 93.449219 C 91.402344 94.171875 86.640625 91.316406 84.945312 86.625 L 84.945312 107.625 L 115.5 90.195312 L 115.5 63 Z M 78.121094 74.761719 C 75.777344 72.820312 74.367188 69.976562 74.234375 66.9375 L 74.234375 66.515625 C 74.234375 60.425781 84.050781 50.765625 84.367188 50.765625 C 84.683594 51.082031 94.5 60.476562 94.5 66.515625 L 94.5 66.988281 C 94.40625 69.6875 93.277344 72.242188 91.351562 74.128906 L 115.5 61.160156 L 84 45.726562 L 52.5 61.003906 L 78.121094 74.757812 Z M 83.265625 86.835938 C 81.589844 91.546875 76.824219 94.425781 71.871094 93.710938 C 66.113281 92.128906 60.746094 89.355469 56.121094 85.574219 C 61.054688 85.941406 64.574219 75.335938 72.394531 75.074219 L 72.398438 75.074219 C 73.238281 75.023438 74.078125 75.023438 74.917969 75.074219 L 52.5 63 L 52.5 90.246094 L 83.316406 108.042969 L 83.265625 86.832031 Z M 83.265625 86.835938 "/>
<path style=" stroke:none;fill-rule:nonzero;fill:rgb(100%,100%,100%);fill-opacity:1;" d="M 84 21 C 49.207031 21 21 49.207031 21 84 C 21 118.792969 49.207031 147 84 147 C 118.792969 147 147 118.792969 147 84 C 147 67.292969 140.363281 51.265625 128.546875 39.453125 C 116.734375 27.636719 100.707031 21 84 21 Z M 48.824219 58.746094 L 84 41.683594 L 119.226562 58.746094 L 119.226562 92.292969 L 84 112.613281 L 48.824219 92.296875 Z M 119.332031 105.996094 L 84.261719 126.261719 L 48.773438 105.785156 L 48.773438 103.84375 L 84.261719 124.320312 L 119.332031 104.054688 Z M 119.332031 102.058594 L 84.261719 122.324219 L 48.773438 101.847656 L 48.773438 99.75 L 84.261719 120.277344 L 119.332031 100.011719 Z M 119.332031 98.121094 L 84.261719 118.386719 L 48.773438 97.910156 L 48.773438 95.96875 L 84.261719 116.496094 L 119.332031 96.230469 Z M 119.332031 98.121094 "/>
</g>
</svg>
