<?xml version="1.0" encoding="UTF-8"?>
<svg xmlns="http://www.w3.org/2000/svg" xmlns:xlink="http://www.w3.org/1999/xlink" width="168pt" height="168pt" viewBox="0 0 168 168" version="1.1">
<g id="surface2104">
<path style=" stroke:none;fill-rule:evenodd;fill:rgb(100%,75.294118%,30.588235%);fill-opacity:1;" d="M 168 84 C 168 130.390625 130.390625 168 84 168 C 37.609375 168 0 130.390625 0 84 C 0 37.609375 37.609375 0 84 0 C 130.390625 0 168 37.609375 168 84 "/>
<path style=" stroke:none;fill-rule:nonzero;fill:rgb(100%,100%,100%);fill-opacity:1;" d="M 81.890625 62.25 L 81.90625 62.25 L 81.75 62.933594 L 80.386719 69.375 L 80.230469 69.375 L 71.230469 107.625 L 59.789062 107.625 L 68.960938 69.375 L 53.566406 69.375 L 44.929688 107.625 L 32.351562 107.625 L 43.785156 60.375 L 82.285156 60.375 Z M 103.632812 60.375 L 122.691406 60.375 C 139.085938 61.125 137.558594 72 137.558594 72 L 141.75 72 L 140.226562 76.5 L 136.410156 76.5 C 135.269531 80.625 127.644531 82.878906 127.644531 82.878906 C 136.410156 84.003906 136.035156 90.753906 136.035156 90.753906 L 140.230469 90.753906 L 139.085938 95.253906 L 135.652344 95.253906 C 134.777344 101.5 129.238281 104.535156 124.683594 105.980469 L 124.683594 105.976562 C 121.929688 106.835938 119.0625 107.265625 116.175781 107.253906 L 92.191406 107.253906 Z M 38.445312 69.375 L 26.25 69.375 L 28.539062 60.375 L 40.734375 60.375 Z M 90.671875 102.375 L 80.761719 79.121094 L 84.957031 61.125 L 94.863281 83.25 Z M 119.832031 79.121094 C 121.195312 79.121094 122.507812 78.597656 123.46875 77.640625 C 124.429688 76.683594 124.976562 75.402344 124.976562 74.058594 C 124.976562 72.714844 124.4375 71.429688 123.46875 70.476562 C 122.503906 69.527344 121.195312 68.996094 119.832031 68.996094 L 112.402344 69 L 110.117188 79.121094 Z M 117.265625 98.625 C 120.683594 98.625 123.457031 96.019531 123.457031 92.8125 C 123.457031 89.597656 120.699219 86.996094 117.265625 86.996094 L 108.332031 86.996094 L 105.582031 98.625 Z M 117.265625 98.625 "/>
</g>
</svg>
