<?xml version="1.0" encoding="UTF-8"?>
<svg xmlns="http://www.w3.org/2000/svg" xmlns:xlink="http://www.w3.org/1999/xlink" width="168pt" height="168pt" viewBox="0 0 168 168" version="1.1">
<g id="surface231">
<path style=" stroke:none;fill-rule:nonzero;fill:rgb(100%,26.27451%,60.784314%);fill-opacity:1;" d="M 168 84 C 168 130.390625 130.390625 168 84 168 C 37.609375 168 0 130.390625 0 84 C 0 37.609375 37.609375 0 84 0 C 130.390625 0 168 37.609375 168 84 "/>
<path style=" stroke:none;fill-rule:evenodd;fill:rgb(100%,100%,100%);fill-opacity:1;" d="M 95.6875 72.472656 L 125.261719 123.375 L 43.285156 123.375 L 53.109375 107.085938 L 97.273438 107.097656 L 86.082031 88.828125 Z M 65.5 84.316406 L 95.566406 34.335938 L 136.5 103.25 L 116.84375 103.25 L 95.214844 65.660156 L 84.710938 84.320312 Z M 91.144531 103.316406 L 31.5 103.03125 L 72.488281 34.125 L 82.253906 50.640625 L 59.664062 86.960938 L 81.539062 86.960938 Z M 91.144531 103.316406 "/>
</g>
</svg>
