<?xml version="1.0" encoding="UTF-8"?>
<svg xmlns="http://www.w3.org/2000/svg" xmlns:xlink="http://www.w3.org/1999/xlink" width="168pt" height="168pt" viewBox="0 0 168 168" version="1.1">
<g id="surface2395">
<path style=" stroke:none;fill-rule:nonzero;fill:rgb(100%,25.098039%,50.588235%);fill-opacity:1;" d="M 168 84 C 168 130.390625 130.390625 168 84 168 C 37.609375 168 0 130.390625 0 84 C 0 37.609375 37.609375 0 84 0 C 130.390625 0 168 37.609375 168 84 "/>
<path style=" stroke:none;fill-rule:nonzero;fill:rgb(100%,100%,100%);fill-opacity:1;" d="M 72.921875 112.890625 L 73.753906 131.25 C 73.753906 131.25 83.597656 129.582031 93.851562 131.25 L 94.671875 112.890625 Z M 61.035156 98.699219 C 61.035156 98.699219 89.746094 96.195312 106.5625 98.699219 L 108.199219 78.671875 L 108.203125 78.671875 C 92.230469 77.433594 76.1875 77.433594 60.21875 78.671875 Z M 136.5 46.957031 C 136.5 46.957031 81.539062 35.269531 31.5 47.789062 L 35.191406 70.738281 L 39.707031 61.976562 C 39.707031 61.976562 86.871094 54.882812 129.113281 61.976562 L 133.21875 70.742188 Z M 136.5 46.957031 "/>
</g>
</svg>
