<?xml version="1.0" encoding="UTF-8"?>
<svg xmlns="http://www.w3.org/2000/svg" xmlns:xlink="http://www.w3.org/1999/xlink" width="168pt" height="168pt" viewBox="0 0 168 168" version="1.1">
<g id="surface2300">
<path style=" stroke:none;fill-rule:nonzero;fill:rgb(10.196078%,12.156863%,21.176471%);fill-opacity:1;" d="M 168 84 C 168 130.390625 130.390625 168 84 168 C 37.609375 168 0 130.390625 0 84 C 0 37.609375 37.609375 0 84 0 C 130.390625 0 168 37.609375 168 84 "/>
<path style=" stroke:none;fill-rule:nonzero;fill:rgb(100%,100%,100%);fill-opacity:1;" d="M 97.257812 75.9375 C 98.796875 75.941406 100.070312 74.726562 100.136719 73.183594 C 100.203125 71.644531 99.046875 70.324219 97.507812 70.191406 L 77.347656 70.191406 L 77.347656 65.152344 C 76.941406 63.71875 75.632812 62.730469 74.144531 62.730469 C 72.65625 62.730469 71.347656 63.71875 70.941406 65.152344 L 70.941406 70.191406 L 65.550781 70.191406 C 63.964844 70.191406 62.679688 71.476562 62.679688 73.0625 C 62.679688 74.648438 63.964844 75.9375 65.550781 75.9375 L 70.949219 75.9375 L 70.949219 93.472656 C 70.972656 97.882812 72.738281 102.105469 75.863281 105.222656 C 78.988281 108.339844 83.214844 110.09375 87.628906 110.109375 C 91.304688 110.050781 94.859375 108.753906 97.707031 106.429688 L 98.914062 105.421875 C 99.699219 104.867188 100.214844 104.011719 100.328125 103.058594 C 100.445312 102.105469 100.148438 101.148438 99.511719 100.425781 C 98.878906 99.707031 97.96875 99.289062 97.007812 99.28125 C 96.050781 99.269531 95.132812 99.671875 94.484375 100.378906 L 93.574219 101.136719 C 90.628906 103.578125 86.519531 104.050781 83.089844 102.34375 C 79.59375 100.675781 77.359375 97.148438 77.347656 93.273438 L 77.347656 75.9375 Z M 130.019531 95.492188 L 130.015625 95.492188 C 130.152344 94.835938 130.019531 94.152344 129.648438 93.59375 C 129.28125 93.035156 128.703125 92.648438 128.046875 92.515625 L 126.785156 92.515625 L 126.789062 92.515625 C 125.632812 92.511719 124.628906 93.308594 124.371094 94.433594 C 121.898438 105.25 114.96875 114.519531 105.289062 119.953125 C 95.613281 125.382812 84.089844 126.472656 73.566406 122.949219 C 63.039062 119.421875 54.496094 111.613281 50.042969 101.449219 C 45.589844 91.285156 45.636719 79.710938 50.179688 69.582031 C 53.828125 60.777344 60.828125 53.777344 69.636719 50.132812 C 78.144531 46.332031 87.722656 45.65625 96.679688 48.21875 C 105.640625 50.78125 113.410156 56.421875 118.625 64.144531 C 119.390625 65.261719 120.90625 65.574219 122.050781 64.847656 L 122.503906 64.542969 C 123.761719 63.746094 124.148438 62.085938 123.363281 60.816406 C 117.675781 52.445312 109.355469 46.214844 99.71875 43.121094 C 90.085938 40.023438 79.691406 40.242188 70.191406 43.734375 C 57.988281 47.925781 48.347656 57.4375 43.984375 69.582031 C 39.460938 81.285156 40.019531 94.34375 45.53125 105.617188 C 51.042969 116.890625 61.003906 125.351562 73.015625 128.972656 C 85.03125 132.589844 98.007812 131.035156 108.828125 124.679688 C 119.644531 118.324219 127.324219 107.746094 130.015625 95.492188 Z M 88.589844 25.988281 L 83.546875 25.988281 C 65.097656 26.761719 48.027344 35.984375 37.257812 50.988281 C 26.492188 65.996094 23.226562 85.117188 28.402344 102.847656 C 28.863281 104.367188 30.464844 105.222656 31.984375 104.765625 L 32.386719 104.765625 C 33.644531 104.15625 34.285156 102.730469 33.898438 101.386719 C 29.414062 86.03125 31.925781 69.480469 40.765625 56.144531 C 49.601562 42.8125 63.867188 34.050781 79.753906 32.195312 C 95.644531 30.339844 111.542969 35.582031 123.214844 46.523438 C 134.882812 57.464844 141.140625 72.992188 140.3125 88.96875 C 139.488281 104.945312 131.660156 119.742188 118.925781 129.421875 C 106.1875 139.097656 89.832031 142.671875 74.21875 139.1875 C 73.191406 138.96875 72.132812 139.363281 71.496094 140.195312 C 70.859375 140.988281 70.679688 142.050781 71.019531 143.003906 C 71.359375 143.960938 72.167969 144.671875 73.160156 144.882812 C 89.351562 147.851562 106.054688 144.035156 119.355469 134.332031 C 132.65625 124.628906 141.386719 109.890625 143.507812 93.5625 C 145.625 77.238281 140.945312 60.757812 130.5625 47.980469 C 120.179688 35.203125 105.003906 27.253906 88.589844 25.988281 Z M 88.589844 25.988281 "/>
</g>
</svg>
