<?xml version="1.0" encoding="UTF-8"?>
<svg xmlns="http://www.w3.org/2000/svg" xmlns:xlink="http://www.w3.org/1999/xlink" width="168pt" height="168pt" viewBox="0 0 168 168" version="1.1">
<g id="surface281">
<path style=" stroke:none;fill-rule:nonzero;fill:rgb(18.823529%,34.509804%,65.098039%);fill-opacity:1;" d="M 168 84 C 168 130.390625 130.390625 168 84 168 C 37.609375 168 0 130.390625 0 84 C 0 37.609375 37.609375 0 84 0 C 130.390625 0 168 37.609375 168 84 "/>
<path style=" stroke:none;fill-rule:nonzero;fill:rgb(100%,100%,100%);fill-opacity:1;" d="M 83.972656 142.945312 C 51.433594 142.945312 25.050781 116.5625 25.050781 84.023438 C 25.054688 51.488281 51.433594 25.105469 83.972656 25.105469 C 116.511719 25.105469 142.894531 51.488281 142.894531 84.027344 C 142.894531 116.566406 116.511719 142.949219 83.972656 142.949219 M 83.972656 21.355469 C 49.410156 21.355469 21.296875 49.46875 21.296875 84.03125 C 21.296875 118.59375 49.410156 146.707031 83.972656 146.707031 C 118.535156 146.707031 146.648438 118.59375 146.648438 84.03125 C 146.648438 49.464844 118.535156 21.351562 83.972656 21.351562 "/>
<path style=" stroke:none;fill-rule:evenodd;fill:rgb(100%,100%,100%);fill-opacity:1;" d="M 106.042969 106.445312 L 102.773438 120.613281 L 101.984375 124.042969 L 98.46875 124.042969 L 80.382812 124.03125 L 80.308594 124.03125 C 73.058594 123.910156 67.367188 121.984375 63.632812 118.582031 C 66.855469 124.269531 73.703125 127.558594 83.257812 127.71875 L 83.332031 127.71875 L 101.414062 127.730469 L 104.929688 127.730469 L 105.722656 124.300781 L 108.992188 110.132812 L 106.441406 104.71875 Z M 100.359375 45.695312 L 97.777344 40.324219 L 97.410156 42.003906 L 94.957031 53.171875 L 98.714844 53.171875 Z M 113.417969 58.617188 L 110.164062 72.398438 L 109.355469 75.800781 L 89.757812 75.800781 L 84.78125 98.523438 C 84.675781 99.175781 84.613281 99.835938 84.613281 100.203125 C 84.613281 100.523438 84.648438 100.726562 84.679688 100.828125 L 84.675781 100.828125 C 85.050781 100.964844 85.449219 101.035156 85.847656 101.027344 L 87.988281 101.027344 L 92.703125 79.492188 L 112.300781 79.492188 L 113.105469 76.085938 L 116.359375 62.304688 L 113.828125 56.867188 L 113.40625 58.621094 Z M 64.792969 75.800781 L 51.136719 75.800781 L 55.839844 79.492188 L 63.988281 79.492188 Z M 64.792969 75.800781 "/>
<path style=" stroke:none;fill-rule:evenodd;fill:rgb(100%,100%,100%);fill-opacity:1;" d="M 86.277344 105.453125 L 85.777344 105.453125 C 81.976562 105.351562 80.179688 103.375 80.179688 100.203125 C 80.179688 99.445312 80.304688 98.445312 80.433594 97.695312 L 86.199219 71.382812 L 105.855469 71.382812 L 109.109375 57.601562 L 89.453125 57.601562 L 93.085938 41.0625 L 77.050781 41.0625 L 73.414062 57.601562 L 56.015625 57.597656 L 52.886719 71.378906 L 70.285156 71.378906 L 63.511719 102.328125 C 63.144531 103.828125 63.011719 105.582031 63.011719 106.460938 C 63.011719 115.292969 69.976562 119.4375 80.378906 119.613281 L 98.460938 119.617188 L 101.730469 105.453125 L 86.273438 105.453125 Z M 86.277344 105.453125 "/>
</g>
</svg>
