<?xml version="1.0" encoding="UTF-8"?>
<svg xmlns="http://www.w3.org/2000/svg" xmlns:xlink="http://www.w3.org/1999/xlink" width="168pt" height="168pt" viewBox="0 0 168 168" version="1.1">
<g id="surface406">
<path style=" stroke:none;fill-rule:evenodd;fill:rgb(18.823529%,75.294118%,94.901961%);fill-opacity:1;" d="M 168 84 C 168 130.390625 130.390625 168 84 168 C 37.609375 168 0 130.390625 0 84 C 0 37.609375 37.609375 0 84 0 C 130.390625 0 168 37.609375 168 84 "/>
<path style=" stroke:none;fill-rule:nonzero;fill:rgb(100%,100%,100%);fill-opacity:1;" d="M 53.144531 36.75 L 114.957031 36.75 C 114.957031 36.75 116.59375 44.910156 125.351562 45.453125 C 125.351562 45.453125 154.34375 112.914062 83.777344 141.75 C 83.777344 141.75 18.683594 121.074219 41.65625 46 C 41.65625 46 51.503906 45.453125 53.144531 36.75 Z M 111.683594 42.121094 L 56.453125 42.121094 L 56.378906 43.296875 C 55.917969 45.863281 54.628906 47.65625 52.746094 48.863281 C 51.578125 49.597656 50.269531 50.082031 48.902344 50.285156 L 47.9375 50.378906 L 47.664062 51.3125 C 42.578125 68.691406 42.402344 83.703125 46.410156 96.515625 C 49.695312 107.015625 55.644531 115.625 63.484375 122.503906 C 67.621094 126.132812 72.195312 129.222656 77.105469 131.707031 C 78.734375 132.53125 80.253906 133.207031 81.613281 133.753906 C 82.4375 134.085938 83.042969 134.300781 83.371094 134.410156 L 83.886719 134.566406 L 84.386719 134.355469 C 103.84375 126.039062 115.613281 113.472656 120.882812 97.816406 C 125.242188 84.902344 124.851562 71.152344 121.601562 58.132812 L 121.605469 58.132812 C 120.980469 55.636719 120.226562 53.171875 119.347656 50.75 C 119.277344 50.558594 119.203125 50.371094 119.128906 50.179688 L 118.792969 49.351562 L 117.894531 49.292969 C 115.34375 49.125 113.722656 48.085938 112.71875 46.414062 C 112.183594 45.519531 111.851562 44.515625 111.746094 43.476562 Z M 58.949219 44.980469 C 92.375 44.984375 109.085938 44.992188 109.085938 44.996094 C 109.316406 45.976562 109.691406 46.953125 110.242188 47.882812 C 111.585938 50.113281 113.742188 51.621094 116.769531 52.050781 L 116.765625 52.054688 C 117.558594 54.277344 118.242188 56.535156 118.8125 58.828125 C 121.941406 71.363281 122.308594 84.585938 118.15625 96.910156 C 113.195312 111.648438 102.164062 123.511719 83.761719 131.507812 L 83.765625 131.507812 C 81.9375 130.820312 80.152344 130.03125 78.414062 129.148438 C 73.722656 126.777344 69.34375 123.824219 65.390625 120.363281 C 57.929688 113.8125 52.28125 105.640625 49.164062 95.671875 C 45.394531 83.625 45.496094 69.457031 50.183594 52.96875 L 50.179688 52.96875 C 51.636719 52.632812 53.03125 52.058594 54.300781 51.265625 C 56.589844 49.835938 58.25 47.589844 58.945312 44.980469 Z M 97.589844 74.285156 L 96 74.285156 C 96.15625 71.09375 95.449219 64.140625 86.8125 62.210938 L 86.808594 62.210938 C 84.300781 61.613281 81.671875 61.734375 79.226562 62.558594 C 75.855469 63.753906 71.835938 66.765625 71.683594 74.285156 L 70.511719 74.285156 L 70.511719 74.289062 C 68.03125 74.289062 66.011719 76.292969 65.996094 78.777344 L 65.996094 97.546875 C 66.011719 100.027344 68.03125 102.035156 70.511719 102.035156 L 97.59375 102.035156 C 100.074219 102.035156 102.09375 100.027344 102.105469 97.546875 L 102.105469 78.777344 C 102.09375 76.292969 100.074219 74.289062 97.59375 74.289062 Z M 87.0625 95.503906 L 81.046875 95.503906 L 82.636719 87.59375 L 82.636719 87.597656 C 81.09375 86.929688 80.230469 85.273438 80.574219 83.628906 C 80.917969 81.984375 82.371094 80.808594 84.050781 80.820312 C 85.027344 80.398438 86.136719 80.4375 87.078125 80.925781 C 88.019531 81.414062 88.691406 82.300781 88.910156 83.339844 C 89.125 84.378906 88.867188 85.457031 88.199219 86.285156 C 87.53125 87.109375 86.53125 87.589844 85.46875 87.597656 Z M 75.574219 74.285156 C 75.722656 71.828125 76.761719 66.011719 83.234375 65.582031 C 83.234375 65.582031 91.769531 65.113281 91.617188 74.285156 Z M 75.574219 74.285156 "/>
</g>
</svg>
