<?xml version="1.0" encoding="UTF-8"?>
<svg xmlns="http://www.w3.org/2000/svg" xmlns:xlink="http://www.w3.org/1999/xlink" width="168pt" height="168pt" viewBox="0 0 168 168" version="1.1">
<g id="surface1491">
<path style=" stroke:none;fill-rule:nonzero;fill:rgb(0%,51.764706%,23.921569%);fill-opacity:1;" d="M 168 84 C 168 130.390625 130.390625 168 84 168 C 37.609375 168 0 130.390625 0 84 C 0 37.609375 37.609375 0 84 0 C 130.390625 0 168 37.609375 168 84 "/>
<path style=" stroke:none;fill-rule:nonzero;fill:rgb(100%,100%,100%);fill-opacity:1;" d="M 84.03125 29.398438 C 86.101562 29.398438 88.132812 29.9375 89.921875 30.972656 L 127.511719 52.675781 L 127.511719 52.679688 C 131.160156 54.785156 133.40625 58.679688 133.402344 62.890625 L 133.402344 107.167969 C 133.402344 111.378906 131.160156 115.269531 127.511719 117.375 L 89.917969 139.082031 C 86.269531 141.1875 81.777344 141.1875 78.128906 139.082031 L 40.53125 117.375 C 36.882812 115.269531 34.636719 111.378906 34.632812 107.167969 L 34.632812 62.890625 C 34.632812 58.679688 36.878906 54.789062 40.527344 52.679688 L 78.121094 30.976562 C 79.917969 29.941406 81.953125 29.394531 84.015625 29.394531 L 84.027344 29.394531 Z M 84.019531 21.203125 C 80.515625 21.207031 77.070312 22.128906 74.035156 23.882812 L 36.433594 45.582031 C 30.261719 49.15625 26.457031 55.75 26.445312 62.882812 L 26.445312 107.164062 C 26.457031 114.296875 30.261719 120.890625 36.433594 124.46875 L 74.023438 146.171875 C 80.207031 149.742188 87.824219 149.742188 94.003906 146.171875 L 131.597656 124.46875 L 131.601562 124.46875 C 137.777344 120.890625 141.582031 114.296875 141.59375 107.164062 L 141.59375 62.882812 C 141.582031 55.75 137.777344 49.15625 131.601562 45.582031 L 94.011719 23.875 L 94.011719 23.871094 C 90.972656 22.117188 87.523438 21.195312 84.015625 21.195312 Z M 84.019531 21.203125 "/>
<path style=" stroke:none;fill-rule:nonzero;fill:rgb(100%,100%,100%);fill-opacity:1;" d="M 79.417969 91.980469 C 78.539062 91.980469 77.726562 91.511719 77.285156 90.75 L 72.765625 82.910156 L 72.765625 82.914062 C 72.324219 82.152344 72.324219 81.214844 72.765625 80.457031 L 77.285156 72.617188 C 77.726562 71.855469 78.539062 71.386719 79.417969 71.390625 L 88.648438 71.390625 L 88.644531 71.390625 C 89.523438 71.390625 90.332031 71.859375 90.773438 72.617188 L 95.300781 80.457031 L 95.296875 80.457031 C 95.738281 81.214844 95.738281 82.152344 95.296875 82.914062 L 90.769531 90.753906 L 90.773438 90.75 C 90.332031 91.511719 89.523438 91.980469 88.644531 91.980469 L 79.414062 91.980469 Z M 67.085938 79.636719 C 67.964844 79.636719 68.773438 79.167969 69.214844 78.410156 L 73.734375 70.570312 C 74.175781 69.808594 74.175781 68.875 73.734375 68.113281 L 68.097656 58.34375 L 57.089844 64.351562 L 57.089844 64.347656 C 56.285156 64.789062 55.792969 65.640625 55.8125 66.558594 C 55.902344 70.957031 56.417969 75.335938 57.339844 79.636719 Z M 100.976562 79.636719 L 100.972656 79.636719 C 100.097656 79.636719 99.285156 79.167969 98.847656 78.410156 L 94.320312 70.570312 C 93.882812 69.808594 93.882812 68.875 94.320312 68.113281 L 99.957031 58.34375 L 110.960938 64.351562 L 110.964844 64.347656 C 111.769531 64.789062 112.261719 65.636719 112.246094 66.554688 C 112.15625 70.953125 111.644531 75.335938 110.722656 79.636719 L 100.972656 79.636719 Z M 85.207031 50.285156 C 84.472656 49.886719 83.589844 49.886719 82.855469 50.285156 L 71.695312 56.375 L 77.292969 66.066406 L 77.289062 66.066406 C 77.730469 66.824219 78.539062 67.292969 79.417969 67.292969 L 88.648438 67.292969 L 88.644531 67.292969 C 89.523438 67.296875 90.335938 66.828125 90.773438 66.066406 L 96.371094 56.378906 L 85.210938 50.289062 Z M 58.359375 83.734375 L 58.359375 83.730469 C 60.464844 91.222656 63.828125 98.300781 68.308594 104.664062 L 73.742188 95.257812 C 74.179688 94.496094 74.179688 93.558594 73.742188 92.800781 L 69.214844 84.960938 C 68.777344 84.199219 67.96875 83.734375 67.089844 83.730469 L 58.359375 83.730469 Z M 109.695312 83.734375 L 109.695312 83.730469 C 107.589844 91.222656 104.226562 98.300781 99.75 104.664062 L 94.316406 95.257812 C 93.878906 94.496094 93.878906 93.558594 94.316406 92.800781 L 98.847656 84.960938 C 99.285156 84.199219 100.097656 83.734375 100.972656 83.730469 L 109.699219 83.730469 Z M 79.417969 96.074219 C 78.539062 96.074219 77.726562 96.542969 77.285156 97.304688 L 70.984375 108.226562 L 70.984375 108.222656 C 74.378906 112.4375 78.253906 116.242188 82.53125 119.558594 C 83.417969 120.238281 84.652344 120.238281 85.539062 119.558594 C 89.8125 116.242188 93.6875 112.433594 97.078125 108.21875 L 90.777344 97.304688 C 90.339844 96.542969 89.527344 96.074219 88.652344 96.074219 L 79.414062 96.074219 Z M 79.417969 96.074219 "/>
</g>
</svg>
