<?xml version="1.0" encoding="UTF-8"?>
<svg xmlns="http://www.w3.org/2000/svg" xmlns:xlink="http://www.w3.org/1999/xlink" width="168pt" height="168pt" viewBox="0 0 168 168" version="1.1">
<g id="surface1761">
<path style=" stroke:none;fill-rule:nonzero;fill:rgb(93.72549%,0%,15.294118%);fill-opacity:1;" d="M 168 84 C 168 130.390625 130.390625 168 84 168 C 37.609375 168 0 130.390625 0 84 C 0 37.609375 37.609375 0 84 0 C 130.390625 0 168 37.609375 168 84 "/>
<path style=" stroke:none;fill-rule:nonzero;fill:rgb(100%,100%,100%);fill-opacity:1;" d="M 115.144531 52.042969 L 39.375 38.097656 L 79.25 138.4375 L 134.8125 70.742188 Z M 113.925781 58.183594 L 125.519531 69.203125 L 93.820312 74.941406 L 113.929688 58.183594 Z M 86.929688 73.792969 L 53.519531 46.082031 L 108.128906 56.128906 L 86.929688 73.789062 Z M 84.550781 78.695312 L 79.101562 123.742188 L 49.726562 49.808594 Z M 89.589844 81.085938 L 124.695312 74.734375 L 84.429688 123.785156 Z M 89.589844 81.085938 "/>
</g>
</svg>
