<?xml version="1.0" encoding="UTF-8"?>
<svg xmlns="http://www.w3.org/2000/svg" xmlns:xlink="http://www.w3.org/1999/xlink" width="168pt" height="168pt" viewBox="0 0 168 168" version="1.1">
<g id="surface1786">
<path style=" stroke:none;fill-rule:nonzero;fill:rgb(16.862745%,18.039216%,49.803922%);fill-opacity:1;" d="M 168 84 C 168 130.390625 130.390625 168 84 168 C 37.609375 168 0 130.390625 0 84 C 0 37.609375 37.609375 0 84 0 C 130.390625 0 168 37.609375 168 84 "/>
<path style=" stroke:none;fill-rule:nonzero;fill:rgb(100%,100%,100%);fill-opacity:1;" d="M 89.550781 99.898438 L 89.550781 69.132812 L 93.59375 69.132812 C 106.953125 69.132812 110.246094 56.675781 110.246094 56.675781 L 75.160156 56.675781 C 58.507812 56.675781 55.683594 69.140625 55.683594 69.140625 L 76.382812 69.140625 L 76.382812 115.429688 C 76.382812 115.429688 89.550781 111.476562 89.550781 99.898438 Z M 89.550781 99.898438 "/>
<path style=" stroke:none;fill-rule:nonzero;fill:rgb(100%,100%,100%);fill-opacity:1;" d="M 128.074219 123.867188 C 139.875 111.601562 144.402344 94.570312 140.15625 78.28125 L 140.152344 78.28125 C 137.914062 69.757812 133.414062 61.996094 127.132812 55.8125 C 126.566406 55.257812 126 54.6875 125.335938 54.132812 L 124.769531 53.570312 L 124.773438 53.570312 C 124.386719 53.199219 123.976562 52.855469 123.542969 52.542969 L 122.785156 51.980469 L 121.65625 51.140625 L 120.988281 50.667969 L 120.992188 50.667969 C 120.539062 50.371094 120.101562 50.0625 119.671875 49.734375 L 118.816406 49.179688 L 118.816406 49.175781 C 118.464844 48.921875 118.085938 48.699219 117.6875 48.519531 L 116.835938 47.957031 C 116.457031 47.769531 116.078125 47.484375 115.703125 47.300781 L 114.851562 46.828125 C 114.472656 46.644531 114.09375 46.457031 113.625 46.273438 L 113.335938 46.179688 C 114.375 47.019531 115.410156 47.960938 116.355469 48.894531 C 125.054688 57.519531 129.949219 69.261719 129.949219 81.515625 C 129.949219 93.765625 125.054688 105.507812 116.355469 114.136719 C 93.328125 136.972656 55.953125 136.972656 32.917969 114.136719 C 32.066406 113.296875 31.3125 112.457031 30.464844 111.617188 L 29.804688 110.867188 L 29.804688 110.863281 C 29.308594 110.289062 28.835938 109.695312 28.386719 109.085938 C 31.347656 114.890625 35.203125 120.199219 39.8125 124.808594 C 63.878906 148.675781 102.949219 148.675781 127.015625 124.808594 L 127.011719 124.808594 C 127.433594 124.574219 127.792969 124.253906 128.074219 123.863281 Z M 128.074219 123.867188 "/>
<path style=" stroke:none;fill-rule:nonzero;fill:rgb(100%,100%,100%);fill-opacity:1;" d="M 54.601562 117.527344 C 53.550781 116.671875 52.539062 115.765625 51.574219 114.8125 C 42.867188 106.179688 37.96875 94.421875 37.96875 82.160156 C 37.96875 69.898438 42.867188 58.140625 51.574219 49.507812 C 74.628906 26.648438 112.035156 26.648438 135.085938 49.507812 C 136.691406 51.105469 138.199219 52.789062 139.617188 54.570312 C 136.652344 48.785156 132.796875 43.507812 128.1875 38.921875 C 104.101562 15.027344 64.988281 15.027344 40.902344 38.921875 C 40.617188 39.199219 40.335938 39.578125 39.957031 39.855469 C 23.992188 56.535156 21.816406 81.457031 34.574219 100.382812 C 39.582031 107.679688 46.566406 113.769531 54.597656 117.523438 Z M 54.601562 117.527344 "/>
</g>
</svg>
