<?xml version="1.0" encoding="UTF-8"?>
<svg xmlns="http://www.w3.org/2000/svg" xmlns:xlink="http://www.w3.org/1999/xlink" width="168pt" height="168pt" viewBox="0 0 168 168" version="1.1">
<g id="surface206">
<path style=" stroke:none;fill-rule:evenodd;fill:rgb(21.568627%,28.235294%,31.764706%);fill-opacity:1;" d="M 168 84 C 168 130.390625 130.390625 168 84 168 C 37.609375 168 0 130.390625 0 84 C 0 37.609375 37.609375 0 84 0 C 130.390625 0 168 37.609375 168 84 "/>
<path style=" stroke:none;fill-rule:evenodd;fill:rgb(100%,100%,100%);fill-opacity:1;" d="M 92.925781 80.851562 L 92.925781 120.742188 C 93.996094 120.480469 95.046875 120.179688 96.074219 119.832031 L 96.074219 135.109375 C 89.1875 136.730469 82.046875 136.945312 75.074219 135.742188 L 75.074219 80.851562 L 56.699219 80.851562 L 56.699219 66.152344 L 111.300781 66.152344 L 111.300781 80.851562 Z M 100.277344 133.929688 L 100.273438 118.125 C 110.671875 113.164062 118.242188 103.734375 120.832031 92.511719 C 123.421875 81.285156 120.753906 69.492188 113.582031 60.476562 C 106.410156 51.460938 95.519531 46.207031 84 46.207031 C 72.480469 46.207031 61.589844 51.460938 54.417969 60.476562 C 47.246094 69.492188 44.578125 81.285156 47.167969 92.511719 C 49.757812 103.734375 57.328125 113.164062 67.726562 118.125 L 67.726562 133.925781 C 46.699219 127.078125 31.5 107.308594 31.5 84 C 31.5 55.003906 55.003906 31.5 84 31.5 C 112.996094 31.5 136.5 55.003906 136.5 84 C 136.5 107.308594 121.300781 127.078125 100.273438 133.925781 Z M 100.277344 133.929688 "/>
</g>
</svg>
