<?xml version="1.0" encoding="UTF-8"?>
<svg xmlns="http://www.w3.org/2000/svg" xmlns:xlink="http://www.w3.org/1999/xlink" width="168pt" height="168pt" viewBox="0 0 168 168" version="1.1">
<g id="surface341">
<path style=" stroke:none;fill-rule:evenodd;fill:rgb(0%,91.764706%,56.470588%);fill-opacity:1;" d="M 168 84 C 168 130.390625 130.390625 168 84 168 C 37.609375 168 0 130.390625 0 84 C 0 37.609375 37.609375 0 84 0 C 130.390625 0 168 37.609375 168 84 "/>
<path style=" stroke:none;fill-rule:nonzero;fill:rgb(100%,100%,100%);fill-opacity:0.698;" d="M 95.628906 39.417969 L 136.457031 60.773438 L 97.117188 84.886719 L 95.625 39.417969 Z M 72.371094 128.359375 L 31.542969 107.003906 L 70.882812 82.886719 L 72.375 128.363281 Z M 72.371094 128.359375 "/>
<path style=" stroke:none;fill-rule:nonzero;fill:rgb(100%,100%,100%);fill-opacity:1;" d="M 136.457031 108.566406 L 79.691406 141.75 L 79.691406 95.1875 L 136.460938 60.773438 L 136.460938 108.5625 Z M 31.542969 59.214844 L 88.308594 26.25 L 88.308594 72.628906 L 31.542969 107 L 31.542969 59.210938 Z M 31.542969 59.214844 "/>
</g>
</svg>
