<?xml version="1.0" encoding="UTF-8"?>
<svg xmlns="http://www.w3.org/2000/svg" xmlns:xlink="http://www.w3.org/1999/xlink" width="168pt" height="168pt" viewBox="0 0 168 168" version="1.1">
<g id="surface306">
<path style=" stroke:none;fill-rule:nonzero;fill:rgb(100%,29.019608%,29.019608%);fill-opacity:1;" d="M 168 84 C 168 130.390625 130.390625 168 84 168 C 37.609375 168 0 130.390625 0 84 C 0 37.609375 37.609375 0 84 0 C 130.390625 0 168 37.609375 168 84 "/>
<path style=" stroke:none;fill-rule:nonzero;fill:rgb(100%,100%,100%);fill-opacity:1;" d="M 101.472656 99.648438 L 96.160156 99.648438 C 95.675781 99.652344 95.210938 99.460938 94.871094 99.117188 C 94.527344 98.777344 94.335938 98.3125 94.335938 97.828125 L 94.335938 83.851562 L 85.03125 89.65625 L 85.035156 89.660156 C 84.25 90.152344 83.253906 90.152344 82.472656 89.660156 L 73.222656 83.855469 L 73.222656 97.832031 C 73.222656 98.820312 72.433594 99.652344 71.402344 99.652344 L 66.136719 99.652344 L 66.132812 99.648438 C 65.652344 99.652344 65.1875 99.460938 64.84375 99.117188 C 64.503906 98.777344 64.3125 98.3125 64.3125 97.828125 L 64.3125 70.859375 C 64.3125 69.527344 65.394531 68.445312 66.726562 68.445312 C 67.214844 68.445312 67.65625 68.597656 68.050781 68.890625 L 82.71875 78.980469 C 83.320312 79.425781 84.140625 79.425781 84.742188 78.980469 L 99.40625 68.890625 L 99.402344 68.890625 C 100.140625 68.394531 101.09375 68.34375 101.882812 68.753906 C 102.671875 69.164062 103.171875 69.96875 103.195312 70.859375 L 103.195312 97.828125 C 103.21875 98.300781 103.046875 98.765625 102.722656 99.109375 C 102.398438 99.453125 101.945312 99.648438 101.472656 99.648438 Z M 56.386719 99.601562 L 23.414062 99.601562 C 22.082031 99.601562 21 98.523438 21 97.1875 L 21 70.070312 C 21.019531 69.054688 21.851562 68.242188 22.867188 68.25 L 28.191406 68.25 C 29.171875 68.25 30.011719 69.039062 30.011719 70.070312 L 30.011719 90.691406 L 49.992188 90.691406 L 49.992188 70.070312 C 49.992188 69.082031 50.78125 68.25 51.8125 68.25 L 56.976562 68.25 C 57.964844 68.25 58.796875 69.039062 58.796875 70.070312 L 58.796875 97.191406 L 58.804688 97.191406 C 58.800781 98.523438 57.722656 99.601562 56.390625 99.601562 Z M 111.214844 68.25 L 144.195312 68.25 C 145.527344 68.253906 146.605469 69.332031 146.605469 70.664062 L 146.605469 97.78125 C 146.605469 98.769531 145.816406 99.601562 144.832031 99.601562 L 139.519531 99.601562 C 139.035156 99.605469 138.570312 99.414062 138.230469 99.070312 C 137.886719 98.730469 137.695312 98.265625 137.695312 97.78125 L 137.695312 78.339844 C 137.6875 77.691406 137.164062 77.167969 136.515625 77.160156 L 118.945312 77.160156 C 118.296875 77.167969 117.769531 77.691406 117.761719 78.339844 L 117.761719 97.78125 C 117.761719 98.769531 116.972656 99.601562 115.941406 99.601562 L 110.628906 99.601562 C 110.144531 99.605469 109.679688 99.414062 109.339844 99.070312 C 108.996094 98.730469 108.804688 98.265625 108.804688 97.78125 L 108.804688 70.660156 C 108.808594 69.328125 109.890625 68.25 111.222656 68.25 Z M 111.214844 68.25 "/>
<path style=" stroke:none;fill-rule:nonzero;fill:rgb(100%,100%,100%);fill-opacity:1;" d="M 125.050781 82.867188 L 130.316406 82.867188 C 131.296875 82.867188 132.136719 83.65625 132.136719 84.6875 L 132.136719 90.054688 C 132.136719 91.042969 131.347656 91.875 130.316406 91.875 L 125.050781 91.875 C 124.566406 91.875 124.101562 91.683594 123.761719 91.34375 C 123.417969 91 123.226562 90.535156 123.226562 90.054688 L 123.226562 84.640625 C 123.226562 83.652344 124.066406 82.867188 125.046875 82.867188 Z M 125.050781 82.867188 "/>
</g>
</svg>
