<?xml version="1.0" encoding="UTF-8"?>
<svg xmlns="http://www.w3.org/2000/svg" xmlns:xlink="http://www.w3.org/1999/xlink" width="168pt" height="168pt" viewBox="0 0 168 168" version="1.1">
<g id="surface376">
<path style=" stroke:none;fill-rule:nonzero;fill:rgb(100%,0%,47.843137%);fill-opacity:1;" d="M 168 84 C 168 130.390625 130.390625 168 84 168 C 37.609375 168 0 130.390625 0 84 C 0 37.609375 37.609375 0 84 0 C 130.390625 0 168 37.609375 168 84 "/>
<path style=" stroke:none;fill-rule:nonzero;fill:rgb(100%,100%,100%);fill-opacity:1;" d="M 64.371094 30.277344 C 62.875 30.046875 62.8125 30.015625 63.515625 29.910156 C 64.863281 29.699219 68.058594 29.988281 70.257812 30.507812 C 75.386719 31.730469 80.054688 34.855469 85.042969 40.402344 L 86.367188 41.871094 L 88.257812 41.570312 C 96.238281 40.285156 104.359375 41.308594 111.148438 44.441406 C 113.015625 45.300781 115.960938 47.019531 116.332031 47.464844 C 116.453125 47.601562 116.667969 48.507812 116.808594 49.476562 C 117.3125 52.820312 117.0625 55.382812 116.042969 57.300781 C 115.488281 58.339844 115.453125 58.664062 115.828125 59.558594 L 115.820312 59.5625 C 116.179688 60.3125 116.9375 60.792969 117.773438 60.800781 C 119.464844 60.800781 121.28125 58.070312 122.121094 54.273438 L 122.457031 52.765625 L 123.117188 53.515625 C 126.75 57.632812 129.601562 63.242188 130.089844 67.234375 L 130.222656 68.277344 L 129.609375 67.332031 C 128.558594 65.703125 127.507812 64.589844 126.15625 63.695312 C 123.71875 62.082031 121.140625 61.539062 114.316406 61.175781 C 108.152344 60.851562 104.660156 60.324219 101.207031 59.195312 C 95.320312 57.277344 92.355469 54.722656 85.363281 45.550781 C 82.261719 41.476562 80.339844 39.222656 78.433594 37.414062 C 74.09375 33.289062 69.828125 31.125 64.375 30.273438 Z M 64.371094 30.277344 "/>
<path style=" stroke:none;fill-rule:nonzero;fill:rgb(100%,100%,100%);fill-opacity:1;" d="M 117.714844 39.375 C 117.871094 36.644531 118.238281 34.84375 118.984375 33.199219 C 119.277344 32.546875 119.554688 32.011719 119.597656 32.011719 L 119.601562 32.015625 C 119.554688 32.382812 119.457031 32.742188 119.3125 33.085938 C 118.773438 34.683594 118.683594 36.867188 119.054688 39.402344 C 119.527344 42.625 119.800781 43.085938 123.203125 46.570312 C 124.804688 48.203125 126.664062 50.261719 127.335938 51.148438 L 128.558594 52.753906 L 127.335938 51.605469 C 125.839844 50.203125 122.394531 47.457031 121.632812 47.070312 C 121.125 46.808594 121.042969 46.8125 120.730469 47.121094 C 120.441406 47.414062 120.378906 47.84375 120.34375 49.898438 C 120.28125 53.089844 119.84375 55.148438 118.789062 57.195312 C 118.222656 58.296875 118.132812 58.066406 118.648438 56.8125 C 119.03125 55.878906 119.070312 55.46875 119.070312 52.375 C 119.070312 46.160156 118.328125 44.667969 114 42.105469 L 113.992188 42.105469 C 112.691406 41.347656 111.351562 40.65625 109.980469 40.027344 C 109.304688 39.753906 108.648438 39.433594 108.019531 39.070312 C 108.140625 38.949219 112.359375 40.179688 114.058594 40.835938 C 116.589844 41.808594 117.003906 41.933594 117.3125 41.8125 C 117.515625 41.734375 117.617188 41.136719 117.714844 39.375 Z M 67.277344 50.007812 C 64.238281 45.824219 62.359375 39.402344 62.761719 34.605469 L 62.886719 33.121094 L 63.578125 33.246094 C 64.878906 33.480469 67.121094 34.316406 68.171875 34.957031 C 71.050781 36.707031 72.296875 39.011719 73.5625 44.921875 C 73.933594 46.65625 74.421875 48.613281 74.648438 49.28125 C 75.003906 50.347656 76.371094 52.839844 77.484375 54.464844 C 78.28125 55.628906 77.746094 56.179688 75.984375 56.023438 C 73.285156 55.777344 69.632812 53.257812 67.273438 50.011719 Z M 114.027344 81.167969 C 99.816406 75.445312 94.8125 70.480469 94.8125 62.101562 C 94.8125 60.867188 94.855469 59.859375 94.902344 59.859375 C 94.953125 59.859375 95.507812 60.261719 96.125 60.761719 C 99.007812 63.070312 102.234375 64.058594 111.167969 65.359375 C 116.421875 66.132812 119.382812 66.75 122.113281 67.652344 C 130.785156 70.53125 136.152344 76.367188 137.433594 84.316406 C 137.800781 86.625 137.585938 90.957031 136.980469 93.242188 C 136.507812 95.046875 135.054688 98.296875 134.671875 98.425781 C 134.566406 98.457031 134.460938 98.054688 134.429688 97.492188 C 134.28125 94.511719 132.777344 91.601562 130.238281 89.421875 C 127.355469 86.949219 123.488281 84.976562 114.019531 81.167969 Z M 104.050781 83.539062 L 104.054688 83.539062 C 103.886719 82.523438 103.65625 81.519531 103.367188 80.535156 L 103 79.453125 L 103.675781 80.210938 C 104.605469 81.261719 105.34375 82.59375 105.964844 84.378906 C 106.441406 85.738281 106.496094 86.144531 106.488281 88.351562 C 106.488281 90.523438 106.429688 90.976562 105.988281 92.203125 L 105.992188 92.207031 C 105.378906 94.007812 104.351562 95.640625 102.996094 96.972656 C 100.398438 99.617188 97.0625 101.078125 92.242188 101.6875 C 91.402344 101.792969 88.964844 101.972656 86.820312 102.082031 C 81.414062 102.367188 77.859375 102.941406 74.660156 104.066406 C 74.371094 104.195312 74.0625 104.269531 73.746094 104.285156 C 73.621094 104.152344 75.792969 102.855469 77.59375 101.992188 C 80.128906 100.769531 82.648438 100.101562 88.304688 99.164062 C 91.097656 98.695312 93.984375 98.136719 94.714844 97.910156 C 101.632812 95.789062 105.1875 90.320312 104.050781 83.539062 Z M 104.050781 83.539062 "/>
<path style=" stroke:none;fill-rule:nonzero;fill:rgb(100%,100%,100%);fill-opacity:1;" d="M 110.566406 95.109375 C 108.675781 91.050781 108.246094 87.128906 109.28125 83.476562 C 109.390625 83.089844 109.570312 82.769531 109.675781 82.769531 L 109.671875 82.765625 C 110.027344 82.894531 110.363281 83.074219 110.664062 83.300781 C 111.535156 83.890625 113.277344 84.875 117.925781 87.40625 C 123.726562 90.570312 127.035156 93.023438 129.285156 95.816406 C 131.253906 98.269531 132.472656 101.0625 133.058594 104.464844 C 133.390625 106.390625 133.195312 111.027344 132.703125 112.96875 C 131.144531 119.089844 127.515625 123.898438 122.351562 126.703125 C 121.863281 126.984375 121.359375 127.234375 120.839844 127.453125 C 120.765625 127.453125 121.039062 126.753906 121.453125 125.894531 C 123.1875 122.261719 123.390625 118.722656 122.074219 114.785156 C 121.269531 112.375 119.628906 109.429688 116.316406 104.464844 C 112.464844 98.691406 111.519531 97.144531 110.566406 95.109375 Z M 57.191406 117.007812 C 62.46875 112.554688 69.023438 109.394531 75.003906 108.425781 C 77.578125 108.003906 81.871094 108.171875 84.253906 108.78125 C 88.074219 109.757812 91.5 111.953125 93.277344 114.5625 C 95.011719 117.113281 95.761719 119.339844 96.53125 124.285156 C 96.847656 126.238281 97.175781 128.195312 97.277344 128.644531 C 97.855469 131.207031 98.992188 133.257812 100.402344 134.289062 C 102.632812 135.921875 106.480469 136.023438 110.261719 134.550781 L 110.261719 134.546875 C 110.65625 134.367188 111.070312 134.234375 111.5 134.160156 C 111.636719 134.296875 109.734375 135.574219 108.390625 136.246094 L 108.390625 136.242188 C 106.804688 137.089844 105.027344 137.523438 103.230469 137.492188 C 99.765625 137.492188 96.886719 135.734375 94.488281 132.136719 C 94.015625 131.429688 92.957031 129.3125 92.125 127.425781 C 89.59375 121.652344 88.34375 119.886719 85.40625 117.960938 C 82.839844 116.28125 79.535156 115.980469 77.054688 117.199219 C 73.789062 118.800781 72.882812 122.972656 75.21875 125.613281 C 76.148438 126.664062 77.878906 127.570312 79.296875 127.746094 L 79.296875 127.75 C 80.546875 127.914062 81.808594 127.527344 82.753906 126.695312 C 83.699219 125.859375 84.238281 124.652344 84.226562 123.390625 C 84.226562 121.648438 83.554688 120.660156 81.875 119.898438 C 79.582031 118.863281 77.113281 120.070312 77.125 122.230469 C 77.128906 123.148438 77.527344 123.726562 78.453125 124.148438 C 79.046875 124.410156 79.058594 124.4375 78.574219 124.335938 C 76.46875 123.894531 75.976562 121.359375 77.671875 119.675781 C 79.703125 117.648438 83.910156 118.542969 85.351562 121.304688 C 85.960938 122.464844 86.027344 124.78125 85.5 126.175781 C 84.320312 129.300781 80.863281 130.9375 77.363281 130.046875 C 74.980469 129.4375 74.007812 128.78125 71.136719 125.820312 C 66.144531 120.675781 64.207031 119.679688 57.003906 118.554688 L 55.625 118.339844 L 57.199219 117.011719 Z M 57.191406 117.007812 "/>
<path style=" stroke:none;fill-rule:evenodd;fill:rgb(100%,100%,100%);fill-opacity:1;" d="M 32.527344 17.585938 L 33.03125 18.199219 C 52.5 42.035156 62.558594 54.402344 63.199219 55.285156 C 64.25 56.746094 63.855469 58.050781 62.050781 59.082031 C 61.046875 59.652344 58.980469 60.230469 57.949219 60.230469 C 56.777344 60.230469 55.460938 59.667969 54.5 58.761719 C 53.824219 58.117188 51.085938 54.03125 44.773438 44.230469 C 41.8125 39.597656 38.816406 34.992188 35.785156 30.40625 C 35.527344 30.164062 35.53125 30.171875 44.28125 45.820312 C 49.773438 55.648438 51.632812 59.117188 51.632812 59.585938 C 51.632812 60.53125 51.371094 61.023438 50.203125 62.328125 C 48.261719 64.496094 47.394531 66.933594 46.765625 71.972656 C 46.0625 77.625 44.089844 81.617188 38.605469 88.445312 C 35.402344 92.445312 34.878906 93.179688 34.0625 94.792969 C 33.042969 96.820312 32.765625 97.957031 32.648438 100.519531 C 32.527344 103.230469 32.765625 104.980469 33.59375 107.570312 C 34.316406 109.839844 35.074219 111.339844 37.007812 114.332031 C 38.675781 116.921875 39.636719 118.839844 39.636719 119.59375 C 39.636719 120.191406 39.753906 120.191406 42.339844 119.609375 C 48.53125 118.210938 53.554688 115.75 56.382812 112.738281 C 58.132812 110.875 58.539062 109.84375 58.554688 107.289062 C 58.558594 105.621094 58.503906 105.269531 58.050781 104.308594 C 57.316406 102.742188 55.976562 101.441406 53.027344 99.425781 C 49.15625 96.78125 47.507812 94.648438 47.054688 91.722656 C 46.675781 89.324219 47.113281 87.628906 49.253906 83.144531 C 51.464844 78.503906 52.015625 76.53125 52.386719 71.851562 C 52.621094 68.828125 52.953125 67.636719 53.824219 66.679688 C 54.726562 65.683594 55.546875 65.339844 57.789062 65.035156 C 61.441406 64.535156 63.769531 63.589844 65.679688 61.832031 C 67.339844 60.300781 68.03125 58.824219 68.136719 56.609375 L 68.222656 54.929688 L 67.292969 53.847656 C 65.960938 52.292969 54.929688 40.125 34.195312 17.328125 L 33.640625 16.722656 L 32.527344 17.589844 Z M 41.527344 103.59375 C 42.285156 102.25 41.890625 100.546875 40.613281 99.675781 C 39.417969 98.878906 37.550781 99.253906 37.550781 100.296875 C 37.550781 100.613281 37.722656 100.84375 38.117188 101.046875 C 38.785156 101.386719 38.832031 101.777344 38.3125 102.558594 C 37.78125 103.355469 37.824219 104.058594 38.433594 104.539062 C 39.410156 105.304688 40.796875 104.878906 41.53125 103.59375 Z M 70.527344 65.917969 C 68.8125 66.441406 67.144531 68.265625 66.625 70.171875 C 66.308594 71.332031 66.488281 73.375 66.960938 74.003906 C 67.722656 75.023438 68.460938 75.289062 70.457031 75.273438 C 74.363281 75.246094 77.753906 73.574219 78.152344 71.476562 C 78.476562 69.761719 76.980469 67.382812 74.929688 66.332031 C 73.871094 65.796875 71.617188 65.582031 70.523438 65.917969 Z M 75.09375 69.488281 C 75.699219 68.632812 75.429688 67.703125 74.410156 67.082031 C 72.457031 65.890625 69.507812 66.871094 69.507812 68.71875 C 69.507812 69.632812 71.046875 70.636719 72.453125 70.636719 C 73.398438 70.636719 74.679688 70.074219 75.09375 69.488281 Z M 75.09375 69.488281 "/>
</g>
</svg>
