<?xml version="1.0" encoding="UTF-8"?>
<svg xmlns="http://www.w3.org/2000/svg" xmlns:xlink="http://www.w3.org/1999/xlink" width="168pt" height="168pt" viewBox="0 0 168 168" version="1.1">
<g id="surface696">
<path style=" stroke:none;fill-rule:evenodd;fill:rgb(96.078431%,52.54902%,20.392157%);fill-opacity:1;" d="M 168 84 C 168 130.390625 130.390625 168 84 168 C 37.609375 168 0 130.390625 0 84 C 0 37.609375 37.609375 0 84 0 C 130.390625 0 168 37.609375 168 84 "/>
<path style=" stroke:none;fill-rule:nonzero;fill:rgb(100%,100%,100%);fill-opacity:1;" d="M 69.761719 119.34375 L 69.78125 119.34375 C 76.023438 118.585938 81.273438 116.699219 85.53125 113.671875 C 91.167969 109.628906 93.988281 104.496094 93.988281 98.269531 C 93.988281 93.019531 91.925781 88.625 87.804688 85.027344 C 83.671875 81.441406 78.078125 79.261719 71.015625 78.507812 C 68.617188 78.199219 65.214844 77.972656 60.847656 77.71875 C 51.324219 77.140625 45.144531 75.839844 42.277344 73.796875 L 42.277344 73.800781 C 41.257812 73.066406 40.402344 72.136719 39.757812 71.058594 C 39.214844 70.078125 38.929688 68.976562 38.9375 67.855469 C 38.9375 64.910156 40.636719 62.421875 44.066406 60.464844 C 47.488281 58.511719 51.816406 57.515625 57.074219 57.515625 C 62.054688 57.515625 66.996094 58.367188 71.667969 60.035156 C 91.753906 67.195312 110.9375 92.226562 123.710938 110.152344 C 113.300781 116.480469 99.121094 120.378906 83.496094 120.378906 C 78.898438 120.378906 74.304688 120.039062 69.757812 119.34375 Z M 47.296875 109.148438 C 28.957031 102.453125 20.929688 85.910156 29.988281 69.847656 C 30.242188 72.105469 31.074219 74.273438 32.417969 76.148438 C 34.097656 78.503906 36.566406 80.421875 39.804688 81.929688 C 51.117188 86.84375 71.925781 83.703125 80.492188 89.945312 C 83.375 92.046875 84.816406 94.726562 84.816406 98 C 84.816406 102.109375 82.804688 105.476562 78.785156 108.089844 C 74.769531 110.703125 69.539062 112.011719 63.101562 112.011719 L 63.105469 112.007812 C 57.710938 111.976562 52.363281 111.011719 47.300781 109.148438 Z M 47.296875 109.148438 "/>
<path style=" stroke:none;fill-rule:nonzero;fill:rgb(100%,100%,100%);fill-opacity:0.5;" d="M 136.039062 99.09375 L 136.039062 68.359375 C 139.488281 73.027344 141.414062 78.238281 141.414062 83.726562 C 141.414062 89.21875 139.488281 94.421875 136.039062 99.09375 Z M 127.382812 59.929688 L 127.410156 99.101562 C 115.109375 81.640625 96.730469 59.667969 74.136719 52.328125 C 70.226562 51.050781 66.191406 50.210938 62.097656 49.824219 C 69.101562 48.097656 76.289062 47.234375 83.5 47.25 C 101.035156 47.25 116.757812 52.164062 127.378906 59.929688 Z M 127.382812 59.929688 "/>
</g>
</svg>
