<?xml version="1.0" encoding="UTF-8"?>
<svg xmlns="http://www.w3.org/2000/svg" xmlns:xlink="http://www.w3.org/1999/xlink" width="168pt" height="168pt" viewBox="0 0 168 168" version="1.1">
<g id="surface526">
<path style=" stroke:none;fill-rule:evenodd;fill:rgb(42.352941%,87.058824%,2.745098%);fill-opacity:1;" d="M 168 84 C 168 130.390625 130.390625 168 84 168 C 37.609375 168 0 130.390625 0 84 C 0 37.609375 37.609375 0 84 0 C 130.390625 0 168 37.609375 168 84 "/>
<path style=" stroke:none;fill-rule:evenodd;fill:rgb(100%,100%,100%);fill-opacity:1;" d="M 118.125 100.558594 C 118.125 114.050781 107.171875 123.007812 91.003906 124.355469 L 91.003906 136.5 L 79.925781 136.5 L 79.925781 124.234375 C 68.988281 123.003906 58.597656 118.800781 49.875 112.085938 L 58.023438 100.925781 C 65.285156 106.570312 72.15625 110.25 80.4375 111.476562 L 80.4375 87.429688 C 61.847656 82.769531 53.191406 76.019531 53.191406 62.160156 C 53.191406 48.914062 64.011719 39.835938 79.929688 38.609375 L 79.925781 31.5 L 91.003906 31.5 L 91.003906 38.859375 C 99.660156 39.820312 107.914062 43.035156 114.945312 48.183594 L 107.8125 59.710938 C 102.210938 55.664062 96.484375 53.085938 90.496094 51.863281 L 90.496094 75.167969 C 109.851562 79.828125 118.125 87.3125 118.125 100.558594 Z M 80.429688 72.59375 L 80.429688 51.003906 C 72.414062 51.617188 68.214844 55.914062 68.214844 61.308594 C 68.214844 66.453125 70.628906 69.773438 80.4375 72.597656 Z M 103.097656 101.417969 C 103.097656 95.90625 100.421875 92.59375 90.492188 89.769531 L 90.492188 111.976562 C 98.515625 111.355469 103.097656 107.308594 103.097656 101.425781 Z M 103.097656 101.417969 "/>
</g>
</svg>
