<?xml version="1.0" encoding="UTF-8"?>
<svg xmlns="http://www.w3.org/2000/svg" xmlns:xlink="http://www.w3.org/1999/xlink" width="168pt" height="168pt" viewBox="0 0 168 168" version="1.1">
<g id="surface901">
<path style=" stroke:none;fill-rule:nonzero;fill:rgb(24.313725%,45.098039%,76.862745%);fill-opacity:1;" d="M 168 84 C 168 130.390625 130.390625 168 84 168 C 37.609375 168 0 130.390625 0 84 C 0 37.609375 37.609375 0 84 0 C 130.390625 0 168 37.609375 168 84 "/>
<path style=" stroke:none;fill-rule:nonzero;fill:rgb(100%,100%,100%);fill-opacity:1;" d="M 105.117188 95.152344 C 105.117188 84 98.398438 80.179688 84.957031 78.582031 C 75.359375 77.304688 73.445312 74.761719 73.445312 70.296875 C 73.445312 65.835938 76.648438 62.96875 83.042969 62.96875 C 88.800781 62.96875 92.003906 64.878906 93.601562 69.664062 L 93.597656 69.664062 C 93.9375 70.609375 94.832031 71.246094 95.839844 71.253906 L 100.957031 71.253906 C 101.554688 71.269531 102.132812 71.039062 102.554688 70.617188 C 102.980469 70.195312 103.210938 69.621094 103.199219 69.023438 L 103.199219 68.707031 C 102.574219 65.246094 100.824219 62.089844 98.21875 59.726562 C 95.613281 57.363281 92.304688 55.925781 88.796875 55.640625 L 88.796875 47.996094 C 88.796875 46.71875 87.835938 45.765625 86.238281 45.445312 L 81.433594 45.445312 C 80.15625 45.445312 79.195312 46.402344 78.875 47.996094 L 78.875 55.324219 C 69.273438 56.59375 63.199219 62.96875 63.199219 70.9375 C 63.199219 81.449219 69.59375 85.589844 83.035156 87.1875 C 91.996094 88.777344 94.875 90.695312 94.875 95.792969 C 94.875 100.886719 90.398438 104.390625 84.316406 104.390625 C 75.996094 104.390625 73.117188 100.890625 72.15625 96.105469 C 71.839844 94.835938 70.875 94.195312 69.914062 94.195312 L 64.476562 94.195312 L 64.480469 94.195312 C 63.882812 94.179688 63.308594 94.410156 62.886719 94.832031 C 62.460938 95.253906 62.230469 95.832031 62.242188 96.425781 L 62.242188 96.742188 C 63.519531 104.710938 68.640625 110.445312 79.199219 112.039062 L 79.199219 119.6875 C 79.199219 120.957031 80.160156 121.917969 81.757812 122.234375 L 86.5625 122.234375 C 87.839844 122.234375 88.800781 121.277344 89.121094 119.6875 L 89.117188 112.035156 C 98.71875 110.445312 105.113281 103.75 105.113281 95.144531 Z M 105.117188 95.152344 "/>
<path style=" stroke:none;fill-rule:nonzero;fill:rgb(100%,100%,100%);fill-opacity:1;" d="M 67.683594 128.609375 C 42.726562 119.683594 29.925781 91.964844 39.207031 67.429688 C 44.003906 54.042969 54.5625 43.851562 67.683594 39.070312 C 68.964844 38.433594 69.601562 37.480469 69.601562 35.882812 L 69.601562 31.421875 C 69.601562 30.152344 68.964844 29.195312 67.683594 28.875 C 67.363281 28.875 66.722656 28.875 66.402344 29.191406 C 51.859375 33.730469 39.726562 43.886719 32.699219 57.40625 C 25.671875 70.925781 24.332031 86.691406 28.96875 101.203125 C 34.722656 119.054688 48.484375 132.753906 66.402344 138.488281 C 67.683594 139.125 68.964844 138.488281 69.28125 137.210938 C 69.601562 136.894531 69.601562 136.570312 69.601562 135.933594 L 69.601562 131.472656 C 69.601562 130.515625 68.644531 129.246094 67.683594 128.605469 Z M 101.597656 29.195312 C 100.316406 28.554688 99.035156 29.195312 98.71875 30.464844 C 98.398438 30.785156 98.398438 31.105469 98.398438 31.742188 L 98.398438 36.203125 C 98.398438 37.480469 99.355469 38.75 100.316406 39.390625 C 125.273438 48.316406 138.074219 76.035156 128.792969 100.570312 C 123.996094 113.957031 113.4375 124.148438 100.316406 128.929688 C 99.035156 129.566406 98.398438 130.519531 98.398438 132.117188 L 98.398438 136.578125 C 98.398438 137.847656 99.035156 138.804688 100.316406 139.125 C 100.636719 139.125 101.277344 139.125 101.597656 138.808594 C 116.140625 134.269531 128.273438 124.113281 135.300781 110.59375 C 142.328125 97.074219 143.667969 81.308594 139.03125 66.796875 C 133.277344 48.632812 119.195312 34.929688 101.597656 29.195312 Z M 101.597656 29.195312 "/>
</g>
</svg>
