<?xml version="1.0" encoding="UTF-8"?>
<svg xmlns="http://www.w3.org/2000/svg" xmlns:xlink="http://www.w3.org/1999/xlink" width="168pt" height="168pt" viewBox="0 0 168 168" version="1.1">
<g id="surface371">
<path style=" stroke:none;fill-rule:evenodd;fill:rgb(14.901961%,63.137255%,48.235294%);fill-opacity:1;" d="M 168 84 C 168 130.390625 130.390625 168 84 168 C 37.609375 168 0 130.390625 0 84 C 0 37.609375 37.609375 0 84 0 C 130.390625 0 168 37.609375 168 84 "/>
<path style=" stroke:none;fill-rule:evenodd;fill:rgb(100%,100%,100%);fill-opacity:1;" d="M 94.089844 91.261719 L 94.089844 91.25 C 93.511719 91.292969 90.535156 91.46875 83.894531 91.46875 C 78.59375 91.46875 74.859375 91.3125 73.546875 91.25 L 73.546875 91.265625 C 53.136719 90.367188 37.898438 86.8125 37.898438 82.5625 C 37.898438 78.316406 53.132812 74.761719 73.546875 73.847656 L 73.546875 87.730469 C 74.878906 87.824219 78.703125 88.050781 83.984375 88.050781 C 90.320312 88.050781 93.496094 87.789062 94.089844 87.734375 L 94.089844 73.859375 C 114.460938 74.769531 129.660156 78.320312 129.660156 82.5625 C 129.660156 86.816406 114.460938 90.359375 94.089844 91.261719 M 94.089844 72.414062 L 94.089844 59.992188 L 122.511719 59.992188 L 122.515625 41.050781 L 45.125 41.050781 L 45.125 59.992188 L 73.546875 59.992188 L 73.546875 72.410156 C 50.445312 73.46875 33.074219 78.046875 33.074219 83.53125 C 33.074219 89.011719 50.445312 93.585938 73.546875 94.652344 L 73.546875 134.457031 L 94.089844 134.457031 L 94.089844 94.640625 C 117.152344 93.582031 134.484375 89.007812 134.484375 83.53125 C 134.484375 78.054688 117.152344 73.484375 94.089844 72.417969 "/>
</g>
</svg>
