<?xml version="1.0" encoding="UTF-8"?>
<svg xmlns="http://www.w3.org/2000/svg" xmlns:xlink="http://www.w3.org/1999/xlink" width="168pt" height="168pt" viewBox="0 0 168 168" version="1.1">
<g id="surface1386">
<path style=" stroke:none;fill-rule:evenodd;fill:rgb(18.823529%,21.176471%,47.843137%);fill-opacity:1;" d="M 168 84 C 168 130.390625 130.390625 168 84 168 C 37.609375 168 0 130.390625 0 84 C 0 37.609375 37.609375 0 84 0 C 130.390625 0 168 37.609375 168 84 "/>
<path style=" stroke:none;fill-rule:nonzero;fill:rgb(100%,100%,100%);fill-opacity:1;" d="M 75.351562 117.066406 L 75.351562 47.398438 L 55.125 47.398438 L 55.125 31.5 L 112.875 31.5 L 112.875 47.398438 L 92.648438 47.398438 L 92.648438 117.066406 Z M 70.695312 136.5 C 60.253906 136.5 55.3125 131.480469 55.3125 120.867188 L 55.3125 51.953125 L 70.507812 51.953125 L 70.507812 120.160156 C 70.507812 121.839844 71.058594 122.398438 72.707031 122.398438 L 95.488281 122.398438 C 97.136719 122.398438 97.691406 121.835938 97.691406 120.160156 L 97.691406 51.953125 L 112.875 51.953125 L 112.875 120.863281 C 112.875 131.480469 107.929688 136.496094 97.492188 136.496094 Z M 70.695312 136.5 "/>
</g>
</svg>
