<?xml version="1.0" encoding="UTF-8"?>
<svg xmlns="http://www.w3.org/2000/svg" xmlns:xlink="http://www.w3.org/1999/xlink" width="168pt" height="168pt" viewBox="0 0 168 168" version="1.1">
<g id="surface2029">
<path style=" stroke:none;fill-rule:nonzero;fill:rgb(100%,60%,20%);fill-opacity:1;" d="M 168 84 C 168 130.390625 130.390625 168 84 168 C 37.609375 168 0 130.390625 0 84 C 0 37.609375 37.609375 0 84 0 C 130.390625 0 168 37.609375 168 84 "/>
<path style=" stroke:none;fill-rule:nonzero;fill:rgb(100%,100%,100%);fill-opacity:1;" d="M 31.5 42 C 37.296875 42.011719 43.097656 42.011719 48.886719 42 L 59.863281 100.695312 C 60.035156 101.5625 60.246094 102.417969 60.472656 103.269531 C 61.332031 99.855469 61.875 96.371094 62.59375 92.925781 L 72.589844 42 L 89.410156 42.003906 C 83.242188 69.472656 77.074219 96.945312 70.894531 124.414062 L 50.015625 124.414062 C 43.835938 96.960938 37.667969 69.511719 31.5 42.050781 Z M 96.148438 67.894531 C 99.808594 63.296875 105.65625 61.210938 111.292969 60.84375 C 116.859375 60.457031 122.851562 60.960938 127.566406 64.277344 C 131.738281 67.195312 134.027344 72.132812 135.117188 77.039062 C 136.433594 83.191406 136.503906 89.511719 136.496094 95.78125 L 105.679688 95.78125 C 105.707031 100.417969 105.417969 105.199219 106.964844 109.640625 C 107.714844 111.824219 109.117188 114 111.34375 114.789062 C 113.714844 115.5625 116.574219 115.058594 118.304688 113.144531 C 120.613281 110.53125 121.097656 106.867188 121.601562 103.511719 L 135.585938 103.511719 C 135.269531 109.078125 134.242188 114.957031 130.597656 119.328125 C 126.945312 123.875 121.054688 125.734375 115.476562 125.957031 C 109.417969 126.1875 102.839844 125.363281 98.011719 121.285156 C 93.523438 117.542969 91.566406 111.609375 90.789062 105.921875 C 90.011719 99.375 89.96875 92.75 90.332031 86.171875 C 90.820312 79.757812 91.980469 72.960938 96.136719 67.882812 Z M 108.085938 74.429688 C 105.703125 77.863281 105.640625 82.285156 105.679688 86.332031 L 121.597656 86.332031 C 121.351562 82.484375 121.378906 78.421875 119.644531 74.898438 C 117.492188 70.550781 110.6875 70.535156 108.09375 74.4375 L 108.082031 74.4375 Z M 108.085938 74.429688 "/>
</g>
</svg>
