<?xml version="1.0" encoding="UTF-8"?>
<svg xmlns="http://www.w3.org/2000/svg" xmlns:xlink="http://www.w3.org/1999/xlink" width="168pt" height="168pt" viewBox="0 0 168 168" version="1.1">
<g id="surface1546">
<path style=" stroke:none;fill-rule:evenodd;fill:rgb(8.235294%,74.117647%,100%);fill-opacity:1;" d="M 168 84 C 168 130.390625 130.390625 168 84 168 C 37.609375 168 0 130.390625 0 84 C 0 37.609375 37.609375 0 84 0 C 130.390625 0 168 37.609375 168 84 "/>
<path style=" stroke:none;fill-rule:nonzero;fill:rgb(100%,100%,100%);fill-opacity:1;" d="M 77.375 129.851562 L 36.960938 47.492188 C 36.660156 46.875 36.699219 46.148438 37.0625 45.566406 C 37.421875 44.984375 38.058594 44.628906 38.746094 44.625 L 52.753906 44.625 C 53.503906 44.625 54.207031 45.046875 54.539062 45.707031 L 84.054688 105.457031 C 86.679688 110.8125 94.296875 110.8125 96.925781 105.457031 L 126.347656 45.753906 C 126.691406 45.085938 127.382812 44.671875 128.132812 44.671875 L 129.875 44.671875 C 130.910156 44.671875 131.566406 45.753906 131.097656 46.644531 L 90.253906 129.855469 C 87.625 135.210938 80.011719 135.210938 77.375 129.855469 Z M 77.375 129.851562 "/>
</g>
</svg>
