<?xml version="1.0" encoding="UTF-8"?>
<svg xmlns="http://www.w3.org/2000/svg" xmlns:xlink="http://www.w3.org/1999/xlink" width="168pt" height="168pt" viewBox="0 0 168 168" version="1.1">
<g id="surface626">
<path style=" stroke:none;fill-rule:evenodd;fill:rgb(33.72549%,33.72549%,33.72549%);fill-opacity:1;" d="M 168 84 C 168 130.390625 130.390625 168 84 168 C 37.609375 168 0 130.390625 0 84 C 0 37.609375 37.609375 0 84 0 C 130.390625 0 168 37.609375 168 84 "/>
<path style=" stroke:none;fill-rule:nonzero;fill:rgb(100%,100%,100%);fill-opacity:1;" d="M 58.449219 75.054688 L 42.027344 75.054688 L 42.027344 66.03125 L 54.996094 66.03125 L 45.046875 40.042969 L 53.257812 36.75 L 71.894531 85.402344 L 96.050781 85.558594 L 114.742188 36.75 L 122.957031 40.042969 L 113.003906 66.03125 L 125.972656 66.03125 L 125.972656 75.0625 L 109.550781 75.0625 L 105.503906 85.613281 L 126 85.746094 L 125.949219 94.769531 L 102.0625 94.617188 L 84 141.75 L 65.855469 94.390625 L 42 94.230469 L 42.050781 85.210938 L 62.390625 85.34375 Z M 75.355469 94.449219 L 84 117.011719 L 92.597656 94.558594 Z M 75.355469 94.449219 "/>
</g>
</svg>
