<?xml version="1.0" encoding="UTF-8"?>
<svg xmlns="http://www.w3.org/2000/svg" xmlns:xlink="http://www.w3.org/1999/xlink" width="168pt" height="168pt" viewBox="0 0 168 168" version="1.1">
<g id="surface196">
<path style=" stroke:none;fill-rule:nonzero;fill:rgb(20%,54.509804%,89.803922%);fill-opacity:1;" d="M 168 84 C 168 130.390625 130.390625 168 84 168 C 37.609375 168 0 130.390625 0 84 C 0 37.609375 37.609375 0 84 0 C 130.390625 0 168 37.609375 168 84 "/>
<path style=" stroke:none;fill-rule:nonzero;fill:rgb(100%,100%,100%);fill-opacity:1;" d="M 118.808594 88.820312 C 122.640625 89.847656 126.421875 91.042969 129.824219 93.136719 C 131.335938 94.066406 132.75 95.15625 134.023438 96.386719 C 135.914062 98.488281 135.789062 100.703125 134.066406 102.921875 C 132.554688 104.855469 130.496094 106.085938 128.308594 107.117188 C 122.765625 109.789062 116.882812 111.3125 110.878906 112.214844 C 106 112.949219 101.046875 113.371094 96.125 113.984375 L 96.121094 113.984375 C 95.65625 114.082031 95.246094 114.363281 94.988281 114.765625 C 91.542969 119.898438 88.140625 125.039062 84.699219 130.179688 C 84.421875 130.519531 84.167969 130.875 83.941406 131.25 C 80.304688 125.792969 76.703125 120.308594 73.144531 114.800781 C 72.835938 114.277344 72.28125 113.949219 71.671875 113.941406 C 61.839844 113.242188 52.136719 111.96875 42.847656 108.640625 C 39.90625 107.613281 37.09375 106.335938 34.65625 104.402344 C 34.523438 104.277344 34.355469 104.191406 34.234375 104.070312 C 30.664062 101.074219 30.574219 97.863281 34.023438 94.777344 C 36.753906 92.308594 40.113281 90.914062 43.597656 89.84375 C 47.082031 88.773438 50.613281 87.996094 54.144531 87.09375 C 54.3125 87.050781 54.480469 87.050781 54.773438 86.96875 C 47.167969 75.335938 39.648438 63.820312 31.957031 52.144531 C 32.417969 52.101562 32.753906 52.058594 33.050781 52.058594 C 37.800781 52.015625 42.546875 52.058594 47.292969 52.015625 L 47.300781 52.015625 C 47.988281 51.976562 48.632812 52.347656 48.941406 52.960938 C 60.4375 70.496094 71.925781 88.035156 83.398438 105.59375 L 83.394531 105.59375 C 83.566406 105.886719 83.761719 106.164062 83.984375 106.417969 C 86.628906 102.429688 89.191406 98.605469 91.710938 94.777344 C 100.949219 80.8125 110.195312 66.863281 119.441406 52.925781 C 119.777344 52.433594 120.03125 52.058594 120.785156 52.058594 C 125.78125 52.101562 130.785156 52.101562 135.785156 52.101562 C 136.019531 52.101562 136.257812 52.113281 136.5 52.144531 C 128.699219 63.914062 120.882812 75.671875 113.054688 87.421875 C 115.035156 87.910156 116.925781 88.324219 118.8125 88.820312 Z M 46.714844 98.691406 C 47.691406 99.777344 48.839844 100.710938 50.117188 101.441406 C 55.367188 104.238281 61.167969 105.261719 67.179688 106.167969 C 67.09375 105.882812 67.09375 105.757812 67.054688 105.679688 C 63.648438 100.535156 60.289062 95.359375 56.886719 90.21875 L 56.882812 90.214844 C 56.605469 89.945312 56.214844 89.820312 55.832031 89.886719 C 53.835938 90.542969 51.882812 91.324219 49.988281 92.234375 L 49.992188 92.230469 C 48.761719 92.90625 47.667969 93.800781 46.757812 94.863281 C 45.695312 95.910156 45.675781 97.613281 46.714844 98.683594 Z M 112.886719 103.128906 L 112.886719 103.125 C 115.175781 102.507812 117.269531 101.320312 118.976562 99.671875 C 120.660156 97.992188 120.660156 96.097656 118.976562 94.371094 L 118.976562 94.367188 C 118.558594 93.917969 118.078125 93.527344 117.554688 93.214844 C 115.75 92.3125 113.859375 91.449219 112.003906 90.546875 C 111.375 90.214844 110.996094 90.460938 110.617188 91.039062 C 108.644531 94.085938 106.628906 97.078125 104.609375 100.085938 C 103.347656 101.976562 102.089844 103.90625 100.789062 105.882812 C 101.125 105.925781 101.460938 105.925781 101.796875 105.882812 C 105.492188 104.980469 109.230469 104.15625 112.886719 103.125 Z M 112.925781 47.25 L 84.152344 93.09375 L 54.992188 47.25 Z M 112.925781 47.25 "/>
</g>
</svg>
