<?xml version="1.0" encoding="UTF-8"?>
<svg xmlns="http://www.w3.org/2000/svg" xmlns:xlink="http://www.w3.org/1999/xlink" width="168pt" height="168pt" viewBox="0 0 168 168" version="1.1">
<g id="surface816">
<path style=" stroke:none;fill-rule:evenodd;fill:rgb(25.098039%,54.117647%,94.509804%);fill-opacity:1;" d="M 168 84 C 168 130.390625 130.390625 168 84 168 C 37.609375 168 0 130.390625 0 84 C 0 37.609375 37.609375 0 84 0 C 130.390625 0 168 37.609375 168 84 "/>
<path style=" stroke:none;fill-rule:nonzero;fill:rgb(100%,100%,100%);fill-opacity:1;" d="M 121.007812 53.953125 C 122.136719 52.03125 123.996094 50.648438 126.160156 50.121094 C 128.328125 49.589844 130.613281 49.953125 132.503906 51.136719 C 136.441406 53.605469 137.679688 58.855469 135.265625 62.882812 C 126.320312 77.78125 116.222656 93.375 107.808594 105.28125 C 95.523438 122.660156 92.863281 128.628906 84 128.628906 C 75.136719 128.628906 73.144531 123.363281 60.507812 105.234375 C 53 94.472656 43.585938 80.0625 32.839844 63.046875 L 32.839844 63.042969 C 30.335938 59.082031 31.441406 53.847656 35.332031 51.238281 C 37.195312 50.015625 39.472656 49.59375 41.648438 50.074219 C 43.828125 50.550781 45.71875 51.890625 46.894531 53.785156 C 57.515625 70.59375 81.507812 105.632812 84.070312 108.757812 C 86.746094 105.585938 112.273438 68.507812 121.007812 53.949219 Z M 121.007812 53.953125 "/>
</g>
</svg>
