<?xml version="1.0" encoding="UTF-8"?>
<svg xmlns="http://www.w3.org/2000/svg" xmlns:xlink="http://www.w3.org/1999/xlink" width="168pt" height="168pt" viewBox="0 0 168 168" version="1.1">
<g id="surface151">
<path style=" stroke:none;fill-rule:evenodd;fill:rgb(25.490196%,54.509804%,79.215686%);fill-opacity:1;" d="M 168 84 C 168 130.390625 130.390625 168 84 168 C 37.609375 168 0 130.390625 0 84 C 0 37.609375 37.609375 0 84 0 C 130.390625 0 168 37.609375 168 84 "/>
<path style=" stroke:none;fill-rule:nonzero;fill:rgb(100%,100%,100%);fill-opacity:1;" d="M 106.390625 42 L 131.25 42 L 84 136.5 L 36.75 42 L 61.445312 42 L 84.160156 89.84375 Z M 84 68.035156 C 79.863281 68.035156 76.507812 64.589844 76.507812 60.34375 C 76.507812 56.097656 79.863281 52.648438 84 52.648438 C 88.136719 52.648438 91.492188 56.097656 91.492188 60.34375 C 91.492188 64.589844 88.132812 68.035156 84 68.035156 Z M 117.941406 89.246094 C 122.078125 89.246094 125.433594 92.695312 125.429688 96.941406 C 125.429688 101.195312 122.082031 104.632812 117.941406 104.632812 C 113.804688 104.632812 110.449219 101.1875 110.449219 96.941406 C 110.449219 92.695312 113.804688 89.25 117.941406 89.25 Z M 117.941406 89.246094 "/>
</g>
</svg>
