<?xml version="1.0" encoding="UTF-8"?>
<svg xmlns="http://www.w3.org/2000/svg" xmlns:xlink="http://www.w3.org/1999/xlink" width="168pt" height="168pt" viewBox="0 0 168 168" version="1.1">
<g id="surface531">
<path style=" stroke:none;fill-rule:nonzero;fill:rgb(19.215686%,39.607843%,83.137255%);fill-opacity:1;" d="M 168 84 C 168 130.390625 130.390625 168 84 168 C 37.609375 168 0 130.390625 0 84 C 0 37.609375 37.609375 0 84 0 C 130.390625 0 168 37.609375 168 84 "/>
<path style=" stroke:none;fill-rule:evenodd;fill:rgb(100%,100%,100%);fill-opacity:1;" d="M 46.441406 38.996094 C 49.335938 36.511719 53.390625 34.480469 56.921875 35.914062 C 63.273438 38.488281 80.316406 72.894531 80.316406 72.894531 C 80.316406 72.894531 104.167969 38.980469 112.730469 35.890625 C 115.65625 34.835938 119.660156 36.6875 122.714844 38.976562 C 133.433594 47 134.542969 58.191406 133.617188 61.300781 C 132.453125 65.207031 73.214844 140.433594 73.214844 140.433594 C 71.441406 139.710938 36.34375 74.507812 34.445312 63.351562 C 32.628906 52.6875 38.8125 45.445312 46.441406 38.992188 Z M 46.441406 38.996094 "/>
</g>
</svg>
