<?xml version="1.0" encoding="UTF-8"?>
<svg xmlns="http://www.w3.org/2000/svg" xmlns:xlink="http://www.w3.org/1999/xlink" width="168pt" height="168pt" viewBox="0 0 168 168" version="1.1">
<g id="surface1321">
<path style=" stroke:none;fill-rule:evenodd;fill:rgb(1.568627%,52.54902%,34.117647%);fill-opacity:1;" d="M 168 84 C 168 130.390625 130.390625 168 84 168 C 37.609375 168 0 130.390625 0 84 C 0 37.609375 37.609375 0 84 0 C 130.390625 0 168 37.609375 168 84 "/>
<path style=" stroke:none;fill-rule:nonzero;fill:rgb(100%,100%,100%);fill-opacity:1;" d="M 13.816406 86.992188 L 24.054688 75.332031 L 60.480469 75.332031 L 82.859375 103.882812 L 141.425781 22.753906 C 145.019531 25.996094 148.289062 29.585938 151.191406 33.464844 C 154.210938 37.484375 156.839844 41.785156 159.042969 46.304688 L 87.144531 145.753906 C 85.785156 147.183594 84.355469 147.894531 82.859375 147.894531 C 81.359375 147.894531 79.851562 147.179688 78.332031 145.753906 L 32.863281 86.988281 L 13.816406 86.988281 Z M 13.816406 86.992188 "/>
</g>
</svg>
