<?xml version="1.0" encoding="UTF-8"?>
<svg xmlns="http://www.w3.org/2000/svg" xmlns:xlink="http://www.w3.org/1999/xlink" width="168pt" height="168pt" viewBox="0 0 168 168" version="1.1">
<g id="surface161">
<path style=" stroke:none;fill-rule:nonzero;fill:rgb(16.470588%,32.156863%,51.764706%);fill-opacity:1;" d="M 168 84 C 168 130.390625 130.390625 168 84 168 C 37.609375 168 0 130.390625 0 84 C 0 37.609375 37.609375 0 84 0 C 130.390625 0 168 37.609375 168 84 "/>
<path style=" stroke:none;fill-rule:nonzero;fill:rgb(100%,100%,100%);fill-opacity:0.704;" d="M 106.429688 26.554688 L 122.300781 26.554688 L 92.46875 66.371094 L 119.238281 66.371094 L 55.292969 141.445312 L 75.976562 88.398438 L 52.613281 88.398438 L 76.171875 26.554688 Z M 106.429688 26.554688 "/>
<path style=" stroke:none;fill-rule:nonzero;fill:rgb(100%,100%,100%);fill-opacity:1;" d="M 106.429688 26.554688 L 107.386719 26.554688 L 80.574219 72.296875 L 105.089844 72.296875 L 55.292969 141.4375 L 75.976562 88.398438 L 52.613281 88.398438 L 76.171875 26.554688 Z M 106.429688 26.554688 "/>
</g>
</svg>
