<?xml version="1.0" encoding="UTF-8"?>
<svg xmlns="http://www.w3.org/2000/svg" xmlns:xlink="http://www.w3.org/1999/xlink" width="168pt" height="168pt" viewBox="0 0 168 168" version="1.1">
<g id="surface421">
<path style=" stroke:none;fill-rule:evenodd;fill:rgb(22.352941%,60.784314%,19.607843%);fill-opacity:1;" d="M 168 84 C 168 130.390625 130.390625 168 84 168 C 37.609375 168 0 130.390625 0 84 C 0 37.609375 37.609375 0 84 0 C 130.390625 0 168 37.609375 168 84 "/>
<path style=" stroke:none;fill-rule:nonzero;fill:rgb(100%,100%,100%);fill-opacity:1;" d="M 114.921875 39.207031 C 114.355469 41.484375 114.453125 44.40625 115.085938 44.667969 C 115.714844 44.9375 117.300781 43.429688 118.230469 41.71875 C 119.121094 40.144531 119.914062 39.675781 121.011719 40.082031 C 122.464844 40.648438 122.234375 41.152344 119.253906 43.730469 C 116.777344 45.878906 116.277344 46.648438 116.945312 47.316406 C 117.339844 47.71875 117.632812 47.652344 119.054688 46.878906 C 120.839844 45.945312 121.835938 46.007812 121.835938 47.082031 C 121.835938 47.582031 121.175781 47.984375 118.757812 48.917969 C 117.035156 49.589844 115.34375 50.460938 114.953125 50.898438 C 114.160156 51.769531 112.769531 54.519531 111.117188 58.574219 C 109.695312 62.089844 108.335938 64.675781 107.441406 65.675781 C 106.710938 66.480469 104.265625 66.988281 99.105469 67.386719 C 96.691406 67.585938 96.390625 67.554688 96.261719 66.984375 L 96.257812 66.984375 C 95.886719 65.425781 95.589844 63.847656 95.367188 62.257812 C 95.367188 62.15625 96.589844 62.191406 98.113281 62.292969 C 100.828125 62.492188 103.535156 63.226562 104.796875 64.097656 C 105.757812 64.769531 105.855469 64.667969 106.289062 62.789062 C 106.8125 60.648438 107.941406 57.832031 109.660156 54.347656 C 110.953125 51.765625 110.988281 51.566406 110.851562 49.117188 C 110.6875 46.402344 110.222656 45.230469 108.605469 43.453125 C 108.007812 42.824219 107.644531 42.113281 107.746094 41.847656 L 107.742188 41.851562 C 107.824219 41.648438 107.890625 41.433594 107.941406 41.21875 C 107.941406 41.152344 108.234375 41.082031 108.570312 41.082031 C 108.964844 41.082031 109.65625 41.6875 110.285156 42.589844 C 112.039062 45.074219 112.570312 44.601562 112.570312 40.480469 C 112.570312 38.605469 112.703125 37.804688 113.132812 37.332031 C 113.792969 36.597656 114.324219 36.566406 114.886719 37.230469 C 115.21875 37.632812 115.21875 38.070312 114.921875 39.210938 Z M 88.613281 53.246094 C 88.84375 55.730469 89.304688 56.59375 90.796875 57.132812 C 91.390625 57.367188 92.214844 57.710938 92.613281 57.839844 C 93.574219 58.238281 93.839844 59.675781 94.867188 69.0625 C 95.960938 79.246094 96.191406 80.691406 97.21875 83.839844 C 98.773438 88.628906 98.636719 94.191406 96.820312 99.789062 C 95.890625 102.671875 94.867188 103.980469 92.75 105.117188 C 88.511719 107.359375 84.140625 105.722656 80.738281 100.625 C 78.207031 96.949219 77.273438 92.382812 78.15625 87.992188 C 78.65625 85.644531 78.917969 82.097656 78.679688 81.21875 C 78.585938 80.789062 77.523438 79.449219 76.332031 78.171875 C 72.625 74.320312 68.71875 67.414062 69.484375 66.175781 C 69.714844 65.839844 69.878906 64.800781 69.878906 63.898438 C 69.878906 62.054688 69.355469 61.316406 67.035156 60.011719 C 65.511719 59.140625 65.414062 58.269531 66.671875 55.855469 C 67.363281 54.449219 67.765625 54.148438 71.238281 52.371094 C 74.777344 50.566406 76.367188 50.0625 81.628906 49.121094 C 83.8125 48.71875 85.398438 48.753906 86.589844 49.257812 C 87.980469 49.863281 88.375 50.628906 88.609375 53.246094 Z M 57.308594 65.746094 C 57.308594 67.453125 57.871094 69.132812 58.269531 68.695312 C 58.4375 68.527344 58.792969 67.585938 59.128906 66.617188 C 59.652344 64.9375 60.621094 63.941406 61.28125 64.371094 C 61.84375 64.738281 61.644531 66.679688 60.914062 67.886719 C 59.921875 69.53125 59.921875 72.648438 60.949219 74.726562 C 61.972656 76.738281 64.089844 78.949219 65.019531 78.949219 C 65.582031 78.914062 66.242188 78.109375 68.066406 74.996094 L 70.375 71.074219 L 70.742188 73.421875 C 71.109375 76.066406 70.941406 76.871094 69.449219 79.453125 C 67.796875 82.367188 65.941406 84.644531 65.25 84.644531 C 64.457031 84.644531 62.667969 82.871094 61.144531 80.589844 C 60.550781 79.644531 58.898438 77.839844 57.507812 76.53125 L 54.960938 74.152344 L 53.40625 74.421875 L 53.410156 74.425781 C 52.457031 74.601562 51.492188 74.703125 50.527344 74.726562 C 49.335938 74.757812 49.203125 74.691406 49.109375 73.855469 C 49.003906 73.121094 49.171875 72.882812 49.867188 72.714844 L 49.863281 72.71875 C 50.617188 72.585938 51.390625 72.574219 52.148438 72.679688 C 53.074219 72.816406 53.769531 72.746094 54.132812 72.480469 C 54.695312 72.078125 54.664062 72.007812 54.101562 71.339844 C 53.769531 70.9375 52.777344 70.398438 51.847656 70.101562 C 49.539062 69.367188 48.042969 68.359375 48.042969 67.585938 C 48.042969 66.582031 49.304688 66.347656 50.328125 67.183594 C 53.742188 70.003906 54.695312 70.402344 55.59375 69.492188 C 56.222656 68.863281 56.054688 67.65625 54.996094 65.542969 C 54.070312 63.664062 53.734375 61.921875 54.234375 61.421875 C 54.566406 61.054688 55.425781 61.152344 56.019531 61.621094 C 56.71875 62.1875 57.3125 64.035156 57.3125 65.742188 Z M 117.832031 95.933594 C 117.007812 96.808594 114.625 99.59375 112.539062 102.101562 C 106.378906 109.539062 105.757812 110.34375 106.019531 110.617188 C 106.28125 110.878906 111.511719 108.570312 112.703125 107.667969 C 114.195312 106.492188 116.902344 103.613281 117.402344 102.636719 C 117.632812 102.238281 117.964844 101 118.199219 99.921875 C 118.59375 97.910156 119.683594 96.371094 120.675781 96.371094 C 121.335938 96.371094 121.636719 97.144531 121.375 98.144531 L 121.375 98.148438 C 120.921875 99.28125 120.371094 100.371094 119.722656 101.402344 C 118.894531 102.773438 118.332031 104.011719 118.394531 104.148438 C 118.726562 104.648438 119.953125 104.410156 121.375 103.578125 C 122.199219 103.105469 123.390625 101.871094 124.285156 100.597656 C 126.039062 98.121094 127.230469 97.046875 128.289062 97.046875 C 129.179688 97.046875 130.242188 98.1875 130.011719 98.851562 C 129.90625 99.121094 128.382812 100.425781 126.667969 101.738281 C 123.691406 103.980469 122.761719 105.152344 123.292969 106.023438 C 123.59375 106.527344 126.339844 105.855469 129.25 104.554688 C 134.210938 102.308594 135.570312 102.171875 136.363281 103.679688 C 137.023438 104.925781 135.402344 105.691406 129.050781 107.097656 C 127.296875 107.5 125.375 108.136719 124.78125 108.503906 L 123.6875 109.175781 L 124.449219 109.8125 C 125.109375 110.351562 125.804688 110.453125 129.078125 110.453125 C 132.023438 110.453125 133.121094 110.585938 133.613281 110.953125 C 134.242188 111.457031 134.207031 111.492188 133.28125 112.328125 C 132.683594 112.832031 132.125 113.101562 131.789062 112.964844 C 130.335938 112.359375 125.40625 111.457031 123.613281 111.457031 C 120.40625 111.457031 120.136719 112.632812 123.050781 113.765625 C 124.375 114.304688 124.871094 114.910156 124.605469 115.613281 C 124.3125 116.417969 123.511719 116.28125 120.636719 114.941406 C 114.808594 112.226562 113.753906 112.089844 106.777344 113 C 103.464844 113.4375 102.503906 113.472656 102.140625 113.132812 C 101.410156 112.527344 101.542969 111.960938 102.570312 111.058594 C 103.394531 110.355469 109.785156 98.457031 109.484375 98.191406 C 109.316406 98.023438 102.871094 100.332031 98.195312 102.277344 C 97.601562 102.511719 97.601562 102.480469 98.195312 101.542969 C 100.382812 97.957031 106.699219 93.929688 114.050781 91.421875 C 117.855469 90.113281 118.089844 90.082031 119.671875 90.113281 C 120.730469 90.179688 121.03125 90.316406 121.09375 90.847656 C 121.199219 91.6875 119.871094 93.765625 117.816406 95.941406 Z M 41.957031 107.773438 C 43.179688 109.515625 45.996094 112.46875 46.417969 112.46875 C 46.855469 112.46875 46.484375 109.550781 45.695312 106.5 C 44.964844 103.71875 44.902344 102.378906 45.464844 101.8125 C 45.894531 101.375 47.355469 101.277344 47.949219 101.675781 C 48.179688 101.8125 48.441406 103.722656 48.640625 106.605469 C 49.007812 111.867188 49.269531 112.835938 50.558594 113.671875 C 51.386719 114.242188 51.449219 114.242188 51.851562 113.707031 C 52.050781 113.402344 52.28125 112.164062 52.320312 110.925781 C 52.414062 107.609375 53.210938 106.132812 54.628906 106.605469 C 55.726562 106.9375 55.824219 108.3125 54.996094 110.925781 C 54.035156 113.972656 53.871094 116.1875 54.304688 119.167969 C 54.933594 123.226562 56.457031 126.84375 57.214844 126.070312 C 57.382812 125.9375 57.476562 121.414062 57.515625 116.054688 C 57.546875 107.675781 57.617188 106 58.113281 104.425781 C 59.039062 101.539062 59.238281 101.40625 62.875 101.40625 C 68.867188 101.40625 79.984375 103.019531 81.46875 104.082031 C 83.058594 105.226562 82.730469 105.628906 79.585938 106.632812 C 72.734375 108.742188 69.394531 109.148438 65.257812 108.34375 C 63.902344 108.070312 62.675781 107.90625 62.542969 107.976562 C 62.410156 108.039062 62.542969 108.8125 62.804688 109.683594 C 63.632812 112.398438 63.402344 114.074219 61.449219 120.035156 C 60.425781 123.085938 59.464844 126.640625 59.332031 127.910156 C 59.199219 129.1875 58.832031 130.457031 58.632812 130.722656 C 57.773438 131.761719 56.816406 131.292969 55.257812 129.117188 C 53.308594 126.441406 50.226562 123.488281 48.441406 122.550781 C 47.679688 122.148438 45.164062 121.410156 42.882812 120.871094 C 38.78125 119.9375 37.460938 119.296875 37.953125 118.5 C 38.121094 118.195312 38.84375 118.164062 40.4375 118.296875 C 43.347656 118.601562 43.582031 118.195312 41.628906 116.355469 L 41.628906 116.351562 C 39.496094 114.460938 37.058594 112.953125 34.414062 111.894531 C 31.929688 110.890625 31.5 110.554688 31.5 109.753906 C 31.5 109.113281 32.425781 108.441406 33.320312 108.441406 C 33.613281 108.441406 34.941406 109.351562 36.230469 110.488281 C 38.945312 112.796875 40.828125 113.90625 41.859375 113.742188 C 43.75 113.46875 41.492188 109.082031 37.953125 106.128906 C 36.660156 105.058594 35.40625 103.75 35.140625 103.246094 C 34.710938 102.40625 34.710938 102.3125 35.308594 101.875 L 35.304688 101.875 C 35.855469 101.558594 36.488281 101.414062 37.121094 101.472656 C 38.148438 101.578125 38.382812 101.777344 39.605469 103.917969 C 40.335938 105.226562 41.390625 106.964844 41.957031 107.769531 Z M 89.40625 50.234375 C 91.097656 49.972656 91.453125 51.34375 91.453125 51.3125 C 92.351562 53.621094 91.820312 56.511719 91.820312 56.511719 C 90.628906 56.277344 89.734375 54.800781 89.734375 54.800781 C 89.042969 53.15625 89.402344 50.242188 89.402344 50.242188 Z M 65.550781 59.789062 C 65.550781 59.789062 68.097656 61.195312 69.058594 62.703125 C 69.058594 62.703125 69.71875 64.277344 69.222656 65.417969 C 69.222656 65.417969 66.578125 64.179688 65.253906 62.101562 C 65.253906 62.136719 64.394531 61.03125 65.554688 59.792969 Z M 65.550781 59.789062 "/>
</g>
</svg>
