<?xml version="1.0" encoding="UTF-8"?>
<svg xmlns="http://www.w3.org/2000/svg" xmlns:xlink="http://www.w3.org/1999/xlink" width="168pt" height="168pt" viewBox="0 0 168 168" version="1.1">
<g id="surface2247">
<path style=" stroke:none;fill-rule:evenodd;fill:rgb(7.45098%,41.568627%,67.843137%);fill-opacity:1;" d="M 168 84 C 168 130.390625 130.390625 168 84 168 C 37.609375 168 0 130.390625 0 84 C 0 37.609375 37.609375 0 84 0 C 130.390625 0 168 37.609375 168 84 "/>
<path style=" stroke:none;fill-rule:evenodd;fill:rgb(100%,100%,100%);fill-opacity:1;" d="M 36.75 58.222656 L 50.75 64.15625 L 50.75 97.507812 L 84 77.625 L 117.570312 97.507812 L 117.570312 64.15625 L 131.25 58.222656 L 131.25 121.085938 L 84 93.183594 L 36.75 121.085938 Z M 38.339844 55.65625 L 84 28.875 L 129.980469 55.65625 L 117.570312 60.789062 L 84 41.386719 L 50.75 60.789062 Z M 48.203125 117.714844 L 58.546875 111.78125 L 84.15625 126.613281 L 109.449219 111.78125 L 120.105469 117.714844 L 84.15625 139.125 Z M 48.203125 117.714844 "/>
</g>
</svg>
