<?xml version="1.0" encoding="UTF-8"?>
<svg xmlns="http://www.w3.org/2000/svg" xmlns:xlink="http://www.w3.org/1999/xlink" width="168pt" height="168pt" viewBox="0 0 168 168" version="1.1">
<g id="surface1181">
<path style=" stroke:none;fill-rule:evenodd;fill:rgb(97.254902%,56.470588%,13.333333%);fill-opacity:1;" d="M 168 84 C 168 130.390625 130.390625 168 84 168 C 37.609375 168 0 130.390625 0 84 C 0 37.609375 37.609375 0 84 0 C 130.390625 0 168 37.609375 168 84 "/>
<path style=" stroke:none;fill-rule:evenodd;fill:rgb(100%,100%,100%);fill-opacity:1;" d="M 147 99.550781 L 134.589844 99.550781 L 125.785156 92.011719 L 117.011719 99.519531 L 106.523438 99.519531 L 101.507812 93.429688 L 84.226562 93.429688 L 88.601562 88.027344 L 97.101562 88.027344 L 90.628906 80.109375 L 68.027344 107.625 L 57.539062 107.625 L 64.082031 99.632812 L 53.15625 99.632812 L 47.25 83.074219 L 41.390625 99.507812 L 30.308594 99.507812 L 21 73.714844 L 29.503906 73.714844 L 35.761719 91.28125 L 42 73.792969 L 52.5 73.792969 L 58.722656 91.242188 L 64.9375 73.785156 L 73.46875 73.785156 L 64.082031 99.632812 L 66.171875 97.082031 L 85.34375 73.746094 L 95.894531 73.746094 L 111.847656 93.214844 L 119.523438 86.617188 L 95.234375 65.625 L 107.703125 65.625 Z M 134.6875 83.949219 L 128.832031 78.929688 L 134.675781 73.953125 L 146.488281 73.964844 Z M 134.6875 83.949219 "/>
</g>
</svg>
