<?xml version="1.0" encoding="UTF-8"?>
<svg xmlns="http://www.w3.org/2000/svg" xmlns:xlink="http://www.w3.org/1999/xlink" width="168pt" height="168pt" viewBox="0 0 168 168" version="1.1">
<g id="surface1631">
<path style=" stroke:none;fill-rule:nonzero;fill:rgb(12.54902%,10.196078%,17.647059%);fill-opacity:1;" d="M 168 84 C 168 130.390625 130.390625 168 84 168 C 37.609375 168 0 130.390625 0 84 C 0 37.609375 37.609375 0 84 0 C 130.390625 0 168 37.609375 168 84 "/>
<path style=" stroke:none;fill-rule:nonzero;fill:rgb(100%,100%,100%);fill-opacity:1;" d="M 119.792969 50.328125 L 116.644531 53.476562 C 124.160156 61.695312 128.328125 72.429688 128.328125 83.570312 C 128.328125 94.707031 124.160156 105.441406 116.644531 113.664062 L 119.792969 116.8125 C 128.152344 107.746094 132.792969 95.863281 132.792969 83.53125 C 132.792969 71.199219 128.152344 59.320312 119.792969 50.253906 Z M 53.550781 50.597656 C 61.769531 43.082031 72.503906 38.914062 83.644531 38.914062 C 94.78125 38.914062 105.515625 43.082031 113.734375 50.597656 L 116.882812 47.449219 L 116.886719 47.449219 C 107.820312 39.089844 95.9375 34.449219 83.605469 34.449219 C 71.273438 34.449219 59.394531 39.089844 50.328125 47.449219 Z M 50.601562 113.691406 L 50.597656 113.695312 C 43.09375 105.476562 38.929688 94.746094 38.929688 83.617188 C 38.929688 72.484375 43.09375 61.757812 50.597656 53.539062 L 47.449219 50.390625 C 39.089844 59.457031 34.449219 71.335938 34.449219 83.667969 C 34.449219 96 39.089844 107.882812 47.449219 116.949219 L 50.597656 113.695312 Z M 113.695312 116.601562 C 105.472656 124.117188 94.738281 128.289062 83.601562 128.289062 C 72.460938 128.289062 61.726562 124.117188 53.507812 116.601562 L 50.359375 119.75 L 50.359375 119.753906 C 59.425781 128.113281 71.304688 132.753906 83.636719 132.753906 C 95.96875 132.753906 107.851562 128.113281 116.917969 119.753906 L 113.695312 116.605469 Z M 103.5 73.101562 C 102.871094 66.527344 97.199219 64.324219 90.027344 63.652344 L 90.027344 54.601562 L 84.484375 54.601562 L 84.484375 63.484375 L 80.054688 63.484375 L 80.050781 54.601562 L 74.550781 54.601562 L 74.550781 63.714844 L 63.304688 63.714844 L 63.304688 69.648438 C 63.304688 69.648438 67.398438 69.574219 67.335938 69.648438 C 68.871094 69.476562 70.265625 70.554688 70.488281 72.082031 L 70.488281 97.03125 C 70.453125 97.554688 70.210938 98.042969 69.816406 98.386719 C 69.425781 98.734375 68.910156 98.910156 68.386719 98.867188 C 68.460938 98.929688 64.355469 98.867188 64.355469 98.867188 L 63.304688 105.492188 L 74.445312 105.492188 L 74.445312 114.753906 L 79.988281 114.753906 L 79.988281 105.628906 L 84.417969 105.628906 L 84.417969 114.710938 L 89.972656 114.710938 L 89.972656 105.554688 C 99.339844 104.988281 105.871094 102.675781 106.6875 93.910156 C 107.347656 86.855469 104.03125 83.703125 98.726562 82.433594 C 101.949219 80.847656 103.945312 77.90625 103.492188 73.097656 Z M 95.730469 92.820312 C 95.730469 99.707031 83.929688 98.921875 80.167969 98.921875 L 80.167969 86.699219 C 83.925781 86.710938 95.730469 85.628906 95.730469 92.820312 Z M 93.15625 75.601562 C 93.15625 81.902344 83.308594 81.136719 80.179688 81.136719 L 80.179688 70.027344 C 83.308594 70.027344 93.15625 69.039062 93.15625 75.601562 Z M 93.15625 75.601562 "/>
<path style=" stroke:none;fill-rule:nonzero;fill:rgb(100%,100%,100%);fill-opacity:1;" d="M 83.601562 140.972656 C 51.921875 140.96875 26.25 115.285156 26.25 83.605469 C 26.25 51.933594 51.933594 26.25 83.605469 26.25 C 115.285156 26.25 140.96875 51.921875 140.972656 83.601562 C 140.976562 98.816406 134.933594 113.414062 124.171875 124.171875 C 113.414062 134.933594 98.816406 140.976562 83.601562 140.972656 Z M 83.601562 30.722656 C 54.417969 30.742188 30.777344 54.414062 30.785156 83.601562 C 30.796875 112.785156 54.460938 136.4375 83.640625 136.4375 C 112.824219 136.4375 136.488281 112.785156 136.496094 83.601562 L 136.5 83.601562 C 136.503906 69.570312 130.933594 56.117188 121.011719 46.195312 C 111.089844 36.277344 97.628906 30.710938 83.601562 30.722656 Z M 83.601562 30.722656 "/>
</g>
</svg>
