<?xml version="1.0" encoding="UTF-8"?>
<svg xmlns="http://www.w3.org/2000/svg" xmlns:xlink="http://www.w3.org/1999/xlink" width="168pt" height="168pt" viewBox="0 0 168 168" version="1.1">
<g id="surface1071">
<path style=" stroke:none;fill-rule:evenodd;fill:rgb(72.156863%,0%,0%);fill-opacity:1;" d="M 168 84 C 168 130.390625 130.390625 168 84 168 C 37.609375 168 0 130.390625 0 84 C 0 37.609375 37.609375 0 84 0 C 130.390625 0 168 37.609375 168 84 "/>
<path style=" stroke:none;fill-rule:nonzero;fill:rgb(100%,100%,100%);fill-opacity:1;" d="M 135.9375 59.78125 C 136.757812 61.171875 136.644531 62.632812 135.832031 64.058594 C 134.613281 66 133.492188 67.980469 132.332031 69.9375 C 129.152344 75.375 125.96875 80.816406 122.777344 86.253906 L 122.777344 86.257812 C 116.40625 97.078125 110.027344 107.898438 103.644531 118.714844 C 102.914062 120.070312 101.449219 120.867188 99.914062 120.746094 C 98.300781 120.671875 97.15625 119.875 96.398438 118.484375 C 95.617188 117.09375 94.800781 115.71875 93.984375 114.332031 C 91.308594 109.753906 88.617188 105.1875 85.9375 100.625 C 85.339844 99.589844 84.726562 98.578125 84.035156 97.433594 C 83.363281 98.574219 82.726562 99.585938 82.128906 100.625 L 74.082031 114.328125 L 74.078125 114.324219 C 73.253906 115.699219 72.449219 117.085938 71.664062 118.480469 C 70.902344 119.871094 69.761719 120.667969 68.148438 120.742188 L 68.144531 120.746094 C 66.609375 120.859375 65.148438 120.066406 64.414062 118.714844 C 61.386719 113.617188 58.390625 108.519531 55.382812 103.402344 L 55.382812 103.398438 C 52.003906 97.691406 48.636719 91.976562 45.28125 86.257812 C 42.105469 80.820312 38.917969 75.378906 35.726562 69.941406 C 34.570312 67.984375 33.425781 66.003906 32.230469 64.0625 C 31.359375 62.632812 31.234375 61.175781 32.046875 59.785156 C 32.84375 58.414062 34.132812 57.753906 35.785156 57.753906 C 46.117188 57.789062 56.453125 57.859375 66.785156 57.769531 C 69.394531 57.753906 70.953125 58.75 72.171875 60.925781 C 74.78125 65.582031 77.558594 70.125 80.242188 74.726562 C 81.367188 76.667969 82.472656 78.628906 83.613281 80.570312 C 83.703125 80.710938 83.847656 80.824219 83.980469 80.941406 L 83.980469 80.9375 C 84.121094 80.839844 84.238281 80.714844 84.335938 80.570312 C 85.464844 78.628906 86.566406 76.664062 87.710938 74.722656 C 90.410156 70.117188 93.171875 65.554688 95.78125 60.921875 C 96.992188 58.75 98.554688 57.75 101.164062 57.773438 C 111.5 57.859375 121.832031 57.789062 132.171875 57.753906 C 133.855469 57.753906 135.144531 58.414062 135.941406 59.785156 Z M 79.011719 89.996094 C 79.21875 89.5625 79.222656 89.0625 79.027344 88.625 C 78.503906 87.554688 77.808594 86.539062 77.195312 85.484375 C 73.5 79.175781 69.796875 72.882812 66.117188 66.558594 C 65.738281 65.914062 65.304688 65.683594 64.542969 65.683594 C 57.65625 65.71875 50.761719 65.71875 43.875 65.734375 C 43.550781 65.734375 43.222656 65.785156 42.75 65.824219 C 51.160156 80.171875 59.496094 94.414062 67.933594 108.800781 C 68.65625 107.59375 69.273438 106.628906 69.855469 105.628906 C 72.933594 100.429688 75.980469 95.21875 79.011719 89.996094 Z M 100.0625 108.800781 C 108.488281 94.414062 116.832031 80.171875 125.261719 65.824219 C 124.773438 65.789062 124.464844 65.734375 124.136719 65.734375 C 117.242188 65.71875 110.355469 65.71875 103.46875 65.683594 C 102.707031 65.683594 102.273438 65.914062 101.894531 66.554688 L 101.898438 66.554688 C 98.210938 72.867188 94.515625 79.179688 90.820312 85.484375 C 90.199219 86.519531 89.527344 87.53125 88.984375 88.625 L 88.980469 88.625 C 88.785156 89.058594 88.785156 89.558594 88.980469 89.996094 C 92.027344 95.214844 95.074219 100.429688 98.140625 105.628906 C 98.71875 106.625 99.335938 107.609375 100.0625 108.800781 Z M 100.0625 108.800781 "/>
</g>
</svg>
