<?xml version="1.0" encoding="UTF-8"?>
<svg xmlns="http://www.w3.org/2000/svg" xmlns:xlink="http://www.w3.org/1999/xlink" width="168pt" height="168pt" viewBox="0 0 168 168" version="1.1">
<g id="surface606">
<path style=" stroke:none;fill-rule:nonzero;fill:rgb(34.117647%,51.372549%,79.607843%);fill-opacity:1;" d="M 168 84 C 168 130.390625 130.390625 168 84 168 C 37.609375 168 0 130.390625 0 84 C 0 37.609375 37.609375 0 84 0 C 130.390625 0 168 37.609375 168 84 "/>
<path style=" stroke:none;fill-rule:nonzero;fill:rgb(100%,100%,100%);fill-opacity:1;" d="M 80.011719 21 L 86.523438 21 L 86.519531 21 C 100.734375 21.683594 114.261719 27.332031 124.738281 36.960938 C 126.523438 38.117188 126.523438 40.949219 124.421875 41.6875 C 122.636719 42.109375 121.273438 40.53125 119.90625 39.585938 L 119.910156 39.585938 C 108.304688 30.746094 93.726562 26.75 79.238281 28.433594 C 64.75 30.117188 51.476562 37.351562 42.210938 48.613281 C 32.050781 61.109375 27.863281 77.425781 30.75 93.269531 C 33.636719 109.117188 43.304688 122.90625 57.222656 131.015625 C 71.136719 139.125 87.898438 140.746094 103.109375 135.449219 C 121.960938 128.925781 135.996094 112.976562 140.070312 93.449219 C 140.996094 89.621094 141.59375 85.722656 141.855469 81.792969 L 141.855469 81.796875 C 141.996094 80.597656 143.066406 79.734375 144.265625 79.847656 C 145.464844 79.960938 146.351562 81.011719 146.265625 82.214844 L 146.054688 88.726562 C 145.238281 103.90625 138.800781 118.242188 127.996094 128.941406 C 117.039062 139.800781 102.453125 146.234375 87.046875 147 L 80.851562 147 C 65.195312 146.207031 50.398438 139.621094 39.335938 128.519531 C 28.273438 117.417969 21.734375 102.597656 21 86.941406 L 21 81.058594 C 21.761719 65.554688 28.195312 50.871094 39.074219 39.800781 C 49.953125 28.726562 64.523438 22.035156 80.011719 21 Z M 80.011719 21 "/>
<path style=" stroke:none;fill-rule:nonzero;fill:rgb(100%,100%,100%);fill-opacity:1;" d="M 131.25 53.65625 C 135.449219 49.035156 144.164062 51.554688 145.109375 57.75 C 146.472656 63.316406 141.121094 68.039062 135.660156 67.621094 C 128.414062 74.972656 122.640625 83.6875 117.707031 92.820312 C 115.710938 95.550781 118.230469 99.121094 116.65625 101.957031 C 114.765625 107.523438 106.578125 108.675781 103.007812 104.058594 C 100.382812 101.117188 101.117188 97.023438 102.484375 93.769531 L 102.480469 93.765625 C 100.480469 89.617188 97.820312 85.824219 94.605469 82.53125 L 91.457031 82.636719 L 91.453125 82.636719 C 84.558594 90.234375 78.859375 98.835938 74.550781 108.148438 C 75.285156 110.984375 75.8125 114.34375 73.816406 116.863281 C 71.191406 121.167969 64.261719 121.589844 61.007812 117.597656 C 58.59375 114.867188 58.90625 110.984375 60.167969 107.726562 L 60.164062 107.730469 C 56.539062 97.871094 51.363281 88.65625 44.835938 80.429688 C 40.742188 80.21875 36.4375 77.804688 35.910156 73.5 C 34.546875 67.621094 41.265625 61.949219 46.832031 64.574219 C 51.765625 66.359375 53.132812 72.660156 50.71875 76.964844 L 50.714844 76.964844 C 54.683594 87.03125 60.25 96.394531 67.199219 104.683594 C 74.757812 97.195312 80.910156 88.410156 85.363281 78.75 C 84.523438 75.914062 84 72.660156 85.886719 70.035156 C 88.722656 65.414062 96.28125 65.308594 99.222656 69.929688 C 101.425781 72.765625 100.691406 76.542969 99.433594 79.589844 C 101.382812 83.746094 103.96875 87.570312 107.101562 90.929688 L 110.25 90.71875 C 117.914062 82.632812 124.949219 73.707031 129.675781 63.523438 C 129.152344 60.164062 128.519531 56.171875 131.355469 53.652344 Z M 131.25 53.65625 "/>
</g>
</svg>
