<?xml version="1.0" encoding="UTF-8"?>
<svg xmlns="http://www.w3.org/2000/svg" xmlns:xlink="http://www.w3.org/1999/xlink" width="168pt" height="168pt" viewBox="0 0 168 168" version="1.1">
<g id="surface1929">
<path style=" stroke:none;fill-rule:evenodd;fill:rgb(5.098039%,78.823529%,96.862745%);fill-opacity:1;" d="M 168 84 C 168 130.390625 130.390625 168 84 168 C 37.609375 168 0 130.390625 0 84 C 0 37.609375 37.609375 0 84 0 C 130.390625 0 168 37.609375 168 84 "/>
<path style=" stroke:none;fill-rule:nonzero;fill:rgb(100%,100%,100%);fill-opacity:0.305;" d="M 99.246094 82.628906 L 83.261719 95.039062 L 76.714844 72.332031 L 38.789062 62.171875 L 88.5625 64.730469 Z M 99.246094 82.628906 "/>
<path style=" stroke:none;fill-rule:nonzero;fill:rgb(100%,100%,100%);fill-opacity:0.7;" d="M 43.417969 125.964844 L 129.078125 59.484375 L 136.5 76 L 126.761719 73.308594 L 126.421875 90.445312 Z M 43.417969 125.964844 "/>
<path style=" stroke:none;fill-rule:nonzero;fill:rgb(100%,100%,100%);fill-opacity:1;" d="M 119.679688 93.34375 L 94.757812 50.5 L 31.5 47.25 L 79.710938 60.171875 L 92.785156 104.746094 Z M 119.679688 93.34375 "/>
</g>
</svg>
