<?xml version="1.0" encoding="UTF-8"?>
<svg xmlns="http://www.w3.org/2000/svg" xmlns:xlink="http://www.w3.org/1999/xlink" width="168pt" height="168pt" viewBox="0 0 168 168" version="1.1">
<g id="surface1406">
<path style=" stroke:none;fill-rule:evenodd;fill:rgb(100%,90.196078%,0%);fill-opacity:1;" d="M 168 84 C 168 130.390625 130.390625 168 84 168 C 37.609375 168 0 130.390625 0 84 C 0 37.609375 37.609375 0 84 0 C 130.390625 0 168 37.609375 168 84 "/>
<path style=" stroke:none;fill-rule:evenodd;fill:rgb(100%,100%,100%);fill-opacity:1;" d="M 20.964844 28.480469 C 25.117188 23.769531 29.785156 19.535156 34.875 15.855469 L 58.246094 99.425781 L 68.605469 55.125 L 88.242188 55.125 L 98.59375 99.425781 L 110.863281 55.125 L 130.546875 55.125 L 130.730469 55.914062 L 152.117188 133.164062 L 152.117188 133.160156 C 148.242188 138.523438 143.75 143.414062 138.730469 147.730469 L 120.6875 82.578125 L 110.398438 119.738281 L 110.214844 120.527344 L 88.238281 120.527344 L 78.425781 84.132812 L 68.609375 120.527344 L 46.628906 120.523438 L 46.445312 119.734375 Z M 20.964844 28.480469 "/>
</g>
</svg>
