<?xml version="1.0" encoding="UTF-8"?>
<svg xmlns="http://www.w3.org/2000/svg" xmlns:xlink="http://www.w3.org/1999/xlink" width="168pt" height="168pt" viewBox="0 0 168 168" version="1.1">
<g id="surface1421">
<path style=" stroke:none;fill-rule:nonzero;fill:rgb(50.980392%,0%,100%);fill-opacity:1;" d="M 168 84 C 168 130.390625 130.390625 168 84 168 C 37.609375 168 0 130.390625 0 84 C 0 37.609375 37.609375 0 84 0 C 130.390625 0 168 37.609375 168 84 "/>
<path style=" stroke:none;fill-rule:evenodd;fill:rgb(100%,100%,100%);fill-opacity:1;" d="M 96.671875 69.121094 L 93.101562 69.996094 C 89.878906 70.785156 87.621094 73.617188 87.621094 76.875 L 87.621094 100.699219 L 75.824219 103.585938 C 73.902344 104.074219 71.945312 102.921875 71.4375 101.003906 C 71.367188 100.722656 71.332031 100.433594 71.332031 100.144531 L 71.332031 60.480469 C 71.332031 58.851562 72.460938 57.433594 74.074219 57.035156 L 92.175781 52.605469 C 94.097656 52.117188 96.054688 53.269531 96.5625 55.1875 C 96.636719 55.464844 96.667969 55.753906 96.667969 56.042969 L 96.667969 69.121094 Z M 56.84375 68.902344 L 52.371094 70 C 49.148438 70.789062 46.886719 73.621094 46.886719 76.878906 L 46.886719 100.925781 L 36 103.59375 L 36 103.585938 C 34.074219 104.074219 32.117188 102.921875 31.609375 101.003906 C 31.539062 100.722656 31.5 100.433594 31.5 100.144531 L 31.5 60.480469 C 31.5 58.851562 32.628906 57.433594 34.242188 57.035156 L 52.347656 52.605469 C 54.269531 52.117188 56.226562 53.269531 56.738281 55.1875 C 56.8125 55.464844 56.84375 55.753906 56.84375 56.042969 L 56.84375 68.90625 Z M 113.894531 57.148438 L 131.996094 52.71875 L 132 52.714844 C 133.921875 52.230469 135.878906 53.378906 136.390625 55.292969 C 136.460938 55.574219 136.5 55.863281 136.5 56.152344 L 136.5 95.820312 C 136.5 97.449219 135.371094 98.867188 133.757812 99.257812 L 115.652344 103.6875 L 115.652344 103.691406 C 113.730469 104.179688 111.773438 103.03125 111.261719 101.113281 C 111.191406 100.832031 111.15625 100.542969 111.160156 100.253906 L 111.160156 60.585938 C 111.160156 58.957031 112.289062 57.539062 113.902344 57.148438 Z M 113.894531 57.148438 "/>
<path style=" stroke:none;fill-rule:evenodd;fill:rgb(100%,100%,100%);fill-opacity:0.504;" d="M 67.710938 69.898438 L 67.710938 100.144531 C 67.710938 100.722656 67.777344 101.300781 67.921875 101.867188 L 67.917969 101.867188 C 68.855469 105.378906 72.25 107.652344 75.851562 107.183594 L 75.851562 112.113281 C 75.851562 113.742188 74.722656 115.160156 73.109375 115.550781 L 55.007812 119.980469 L 55.007812 119.984375 C 53.085938 120.472656 51.125 119.324219 50.617188 117.40625 C 50.542969 117.125 50.507812 116.835938 50.511719 116.542969 L 50.511719 76.875 C 50.511719 75.246094 51.640625 73.828125 53.253906 73.4375 Z M 107.539062 70.117188 L 107.539062 100.253906 C 107.539062 100.832031 107.613281 101.410156 107.75 101.976562 C 108.726562 105.773438 112.660156 108.082031 116.539062 107.132812 L 116.589844 107.121094 L 116.589844 112.109375 L 116.585938 112.109375 C 116.574219 113.75 115.441406 115.171875 113.847656 115.550781 L 95.742188 119.980469 L 95.738281 119.984375 C 93.816406 120.46875 91.859375 119.320312 91.351562 117.40625 C 91.277344 117.125 91.242188 116.835938 91.246094 116.542969 L 91.246094 76.875 C 91.246094 75.246094 92.375 73.828125 93.988281 73.4375 L 107.535156 70.121094 Z M 107.539062 70.117188 "/>
</g>
</svg>
