<?xml version="1.0" encoding="UTF-8"?>
<svg xmlns="http://www.w3.org/2000/svg" xmlns:xlink="http://www.w3.org/1999/xlink" width="168pt" height="168pt" viewBox="0 0 168 168" version="1.1">
<g id="surface461">
<path style=" stroke:none;fill-rule:nonzero;fill:rgb(23.137255%,34.901961%,59.607843%);fill-opacity:1;" d="M 168 84 C 168 130.390625 130.390625 168 84 168 C 37.609375 168 0 130.390625 0 84 C 0 37.609375 37.609375 0 84 0 C 130.390625 0 168 37.609375 168 84 "/>
<path style=" stroke:none;fill-rule:evenodd;fill:rgb(100%,100%,100%);fill-opacity:1;" d="M 74.109375 31.550781 L 83.980469 31.550781 L 83.980469 62.429688 L 74.109375 52.125 Z M 74.109375 31.550781 "/>
<path style=" stroke:none;fill-rule:evenodd;fill:rgb(100%,100%,100%);fill-opacity:1;" d="M 31.558594 41.964844 L 57.539062 41.964844 C 66.34375 51.179688 75.183594 60.375 83.988281 69.613281 C 89.085938 64.316406 94.167969 58.980469 99.246094 53.667969 C 103 49.777344 106.738281 45.867188 110.480469 41.960938 L 136.398438 41.960938 C 124.300781 54.195312 112.222656 66.4375 100.121094 78.660156 C 98.851562 79.9375 97.574219 81.222656 96.332031 82.511719 C 96.636719 82.835938 96.960938 83.15625 97.234375 83.503906 L 132.78125 119.445312 L 136.410156 123.097656 L 116.300781 123.097656 C 115.78125 123.097656 115.261719 123.128906 114.753906 123.0625 C 113.320312 123.019531 111.882812 123.082031 110.449219 123.03125 C 107.851562 120.347656 105.285156 117.628906 102.683594 114.9375 C 97.574219 109.625 92.488281 104.28125 87.378906 98.957031 C 86.246094 97.78125 85.136719 96.574219 83.976562 95.429688 C 81.507812 98.054688 78.980469 100.644531 76.496094 103.269531 L 62.441406 117.9375 C 60.804688 119.644531 59.1875 121.359375 57.539062 123.035156 C 56.121094 123.078125 54.695312 123.035156 53.265625 123.054688 C 52.453125 123.15625 51.628906 123.085938 50.8125 123.105469 L 31.550781 123.101562 L 69.707031 84.515625 C 70.363281 83.855469 71.015625 83.1875 71.648438 82.511719 L 31.550781 41.964844 Z M 31.558594 41.964844 "/>
<path style=" stroke:none;fill-rule:evenodd;fill:rgb(100%,100%,100%);fill-opacity:1;" d="M 84 102.539062 C 87.285156 106.019531 90.613281 109.464844 93.910156 112.933594 C 93.929688 119.796875 93.910156 126.648438 93.910156 133.511719 L 83.988281 133.511719 C 83.988281 123.183594 83.988281 112.863281 84.007812 102.535156 Z M 84 102.539062 "/>
</g>
</svg>
