<?xml version="1.0" encoding="UTF-8"?>
<svg xmlns="http://www.w3.org/2000/svg" xmlns:xlink="http://www.w3.org/1999/xlink" width="168pt" height="168pt" viewBox="0 0 168 168" version="1.1">
<g id="surface716">
<path style=" stroke:none;fill-rule:evenodd;fill:rgb(98.039216%,62.745098%,5.098039%);fill-opacity:1;" d="M 168 84 C 168 130.390625 130.390625 168 84 168 C 37.609375 168 0 130.390625 0 84 C 0 37.609375 37.609375 0 84 0 C 130.390625 0 168 37.609375 168 84 "/>
<path style=" stroke:none;fill-rule:nonzero;fill:rgb(100%,100%,100%);fill-opacity:1;" d="M 136.457031 75.972656 L 86.746094 133.773438 L 84.515625 136.5 L 31.535156 76.554688 L 31.703125 76.488281 L 31.5 76.457031 L 52.089844 42.03125 L 52.101562 42.042969 L 52.089844 42 L 116.421875 42 L 116.410156 42.035156 L 136.5 75.96875 Z M 67.492188 78.382812 L 56.101562 97.671875 L 84.199219 129.761719 L 112.355469 97.410156 L 101.214844 78.328125 Z M 52.90625 94.027344 L 62.144531 78.386719 L 39.242188 78.421875 Z M 103.953125 73.835938 L 129.960938 73.792969 L 113.632812 46.449219 L 88.003906 46.5 Z M 129 78.277344 L 106.566406 78.3125 L 115.558594 93.722656 Z M 98.597656 73.847656 L 84.472656 49.632812 L 70.140625 73.886719 Z M 54.503906 46.578125 L 38.230469 73.945312 L 64.796875 73.898438 L 80.96875 46.523438 Z M 54.503906 46.578125 "/>
</g>
</svg>
