<?xml version="1.0" encoding="UTF-8"?>
<svg xmlns="http://www.w3.org/2000/svg" xmlns:xlink="http://www.w3.org/1999/xlink" width="168pt" height="168pt" viewBox="0 0 168 168" version="1.1">
<g id="surface1796">
<path style=" stroke:none;fill-rule:evenodd;fill:rgb(96.862745%,57.647059%,10.196078%);fill-opacity:1;" d="M 168 84 C 168 130.390625 130.390625 168 84 168 C 37.609375 168 0 130.390625 0 84 C 0 37.609375 37.609375 0 84 0 C 130.390625 0 168 37.609375 168 84 "/>
<path style=" stroke:none;fill-rule:nonzero;fill:rgb(100%,100%,100%);fill-opacity:1;" d="M 136.378906 103.707031 L 133.519531 115.167969 L 125.878906 113.265625 L 128.734375 101.800781 L 117.273438 98.945312 L 119.179688 91.304688 L 130.640625 94.160156 L 133.5 82.699219 L 141.140625 84.605469 L 138.285156 96.066406 L 149.746094 98.921875 L 147.839844 106.566406 Z M 108.203125 72.238281 C 107.136719 79.324219 103.273438 82.769531 98.164062 84 C 105.152344 87.691406 108.691406 93.382812 105.242188 103.304688 C 100.957031 115.625 90.929688 116.71875 77.617188 114.226562 L 74.308594 127.46875 L 66.507812 125.527344 L 69.769531 112.453125 L 69.765625 112.449219 C 67.6875 111.933594 65.617188 111.398438 63.550781 110.839844 L 60.273438 123.964844 L 52.484375 122.023438 L 55.792969 108.75 C 53.964844 108.28125 52.117188 107.789062 50.226562 107.316406 L 40.066406 104.78125 L 43.992188 95.636719 C 43.992188 95.636719 49.742188 97.164062 49.664062 97.054688 C 51.878906 97.59375 52.867188 96.121094 53.261719 95.136719 L 58.480469 74.199219 L 59.308594 74.402344 C 59.042969 74.296875 58.773438 74.210938 58.496094 74.140625 L 62.222656 59.195312 C 62.328125 57.5 61.765625 55.367188 58.601562 54.574219 C 58.726562 54.496094 52.9375 53.167969 52.9375 53.167969 L 55.0625 44.640625 L 65.824219 47.328125 L 65.8125 47.363281 C 67.429688 47.765625 69.097656 48.152344 70.800781 48.535156 L 74.070312 35.421875 L 81.871094 37.363281 L 78.664062 50.226562 C 80.757812 50.699219 82.863281 51.183594 84.910156 51.695312 L 88.097656 38.921875 L 95.90625 40.863281 L 92.636719 53.984375 C 102.484375 57.398438 109.671875 62.558594 108.203125 72.238281 Z M 90.210938 97.882812 C 92.789062 87.539062 75.816406 84.96875 70.523438 83.644531 L 66.148438 101.21875 C 71.441406 102.53125 87.753906 107.796875 90.21875 97.878906 Z M 92.769531 72.179688 C 95.109375 62.765625 80.914062 60.75 76.511719 59.652344 L 72.539062 75.597656 C 76.945312 76.699219 90.519531 81.199219 92.773438 72.179688 Z M 92.769531 72.179688 "/>
</g>
</svg>
