<?xml version="1.0" encoding="UTF-8"?>
<svg xmlns="http://www.w3.org/2000/svg" xmlns:xlink="http://www.w3.org/1999/xlink" width="168pt" height="168pt" viewBox="0 0 168 168" version="1.1">
<g id="surface656">
<path style=" stroke:none;fill-rule:nonzero;fill:rgb(12.941176%,68.627451%,40.392157%);fill-opacity:1;" d="M 168 84 C 168 130.390625 130.390625 168 84 168 C 37.609375 168 0 130.390625 0 84 C 0 37.609375 37.609375 0 84 0 C 130.390625 0 168 37.609375 168 84 "/>
<path style=" stroke:none;fill-rule:nonzero;fill:rgb(100%,100%,100%);fill-opacity:1;" d="M 84 147 C 49.207031 147 21 118.792969 21 84 C 21 49.207031 49.207031 21 84 21 C 118.792969 21 147 49.207031 147 84 C 147 118.792969 118.792969 147 84 147 Z M 108.21875 61.167969 C 107.292969 59.90625 105.789062 58.882812 103.71875 58.085938 C 101.65625 57.292969 98.816406 56.894531 95.214844 56.894531 L 87.601562 56.894531 L 93.78125 39.910156 L 97.902344 28.585938 C 93.761719 27.554688 89.515625 26.988281 85.25 26.902344 C 84.828125 26.902344 84.410156 26.871094 83.988281 26.871094 C 83.34375 26.875 82.699219 26.890625 82.058594 26.921875 C 51.457031 27.941406 26.871094 53.140625 26.871094 84 C 26.871094 100.449219 33.96875 116.09375 46.347656 126.914062 L 50.824219 114.601562 C 43.109375 106.277344 38.824219 95.347656 38.828125 84 C 38.828125 61.277344 55.691406 42.4375 77.558594 39.296875 C 78.640625 39.140625 79.757812 39.035156 80.867188 38.941406 L 64.371094 84.269531 L 97.285156 81.03125 L 97.28125 81.027344 C 97.265625 81.019531 97.25 81.011719 97.230469 81.007812 C 98.253906 80.675781 99.234375 80.242188 100.171875 79.695312 C 102.574219 78.316406 104.683594 76.484375 106.390625 74.304688 C 107.324219 73.097656 108.070312 71.742188 108.585938 70.300781 C 109.164062 68.757812 109.496094 67.128906 109.5625 65.488281 L 109.5625 65.484375 C 109.628906 63.933594 109.152344 62.40625 108.21875 61.167969 Z M 94.179688 72.21875 C 93.460938 74.171875 92.34375 75.546875 90.792969 76.339844 C 89.34375 77.113281 87.726562 77.523438 86.085938 77.539062 L 80.152344 77.539062 L 84.132812 66.597656 L 90.066406 66.597656 C 90.773438 66.597656 91.484375 66.6875 92.167969 66.871094 L 92.164062 66.871094 C 92.789062 67.015625 93.367188 67.320312 93.84375 67.75 C 94.308594 68.214844 94.589844 68.828125 94.636719 69.484375 C 94.695312 70.417969 94.539062 71.355469 94.179688 72.21875 Z M 100.800781 29.390625 L 96.699219 40.664062 L 96.699219 40.660156 C 108.628906 44.148438 118.597656 52.398438 124.25 63.46875 C 129.902344 74.539062 130.746094 87.449219 126.578125 99.15625 C 122.410156 110.867188 113.601562 120.34375 102.222656 125.351562 C 90.847656 130.359375 77.910156 130.457031 66.460938 125.621094 C 65.539062 125.226562 64.628906 124.800781 63.734375 124.347656 L 68.417969 111.511719 L 76.019531 111.511719 C 82.90625 111.511719 88.554688 110.347656 92.976562 108.003906 C 97.390625 105.667969 100.535156 101.933594 102.410156 96.800781 C 103.097656 94.898438 103.355469 93.230469 103.152344 91.792969 L 103.152344 91.789062 C 103 90.480469 102.566406 89.21875 101.882812 88.09375 C 101.265625 87.105469 100.441406 86.265625 99.464844 85.628906 C 98.703125 85.132812 97.894531 84.714844 97.050781 84.378906 L 63.839844 87.65625 L 53.15625 116.957031 L 48.796875 128.949219 L 48.796875 128.945312 C 52.9375 132.191406 57.5 134.855469 62.363281 136.863281 C 69.226562 139.6875 76.574219 141.136719 84 141.132812 C 115.5 141.132812 141.128906 115.507812 141.128906 84.003906 C 141.128906 58.347656 124.128906 36.585938 100.796875 29.394531 Z M 76.441406 89.632812 L 83.371094 89.632812 C 84.199219 89.636719 85.023438 89.71875 85.839844 89.867188 C 86.628906 89.992188 87.386719 90.28125 88.066406 90.707031 C 88.695312 91.136719 89.148438 91.777344 89.335938 92.511719 C 89.554688 93.304688 89.441406 94.34375 88.972656 95.628906 L 88.972656 95.632812 C 88.558594 96.867188 87.886719 97.996094 86.996094 98.945312 C 86.25 99.71875 85.367188 100.34375 84.390625 100.792969 L 84.394531 100.792969 C 83.492188 101.203125 82.539062 101.476562 81.558594 101.601562 C 80.695312 101.722656 79.824219 101.785156 78.949219 101.792969 L 72.003906 101.792969 Z M 76.441406 89.632812 "/>
</g>
</svg>
