<?xml version="1.0" encoding="UTF-8"?>
<svg xmlns="http://www.w3.org/2000/svg" xmlns:xlink="http://www.w3.org/1999/xlink" width="168pt" height="168pt" viewBox="0 0 168 168" version="1.1">
<g id="surface676">
<path style=" stroke:none;fill-rule:evenodd;fill:rgb(33.72549%,95.686275%,94.509804%);fill-opacity:1;" d="M 168 84 C 168 130.390625 130.390625 168 84 168 C 37.609375 168 0 130.390625 0 84 C 0 37.609375 37.609375 0 84 0 C 130.390625 0 168 37.609375 168 84 "/>
<path style=" stroke:none;fill-rule:nonzero;fill:rgb(100%,100%,100%);fill-opacity:1;" d="M 31.5 47.335938 C 31.5 47.257812 32.601562 47.25 46.820312 47.261719 L 62.144531 47.277344 L 70.859375 61.941406 L 79.722656 76.855469 L 79.871094 77.101562 L 81.257812 74.738281 C 82.015625 73.4375 82.632812 72.347656 82.621094 72.316406 C 82.609375 72.285156 79.277344 66.65625 75.21875 59.820312 C 71.160156 52.984375 67.835938 47.363281 67.835938 47.324219 C 67.835938 47.257812 70.140625 47.246094 83.96875 47.246094 C 92.925781 47.246094 100.097656 47.265625 100.097656 47.296875 C 100.097656 47.402344 65.894531 105.554688 65.816406 105.570312 C 65.757812 105.582031 60.753906 97.128906 48.617188 76.5 C 39.203125 60.511719 31.5 47.386719 31.5 47.335938 Z M 105.734375 47.289062 C 105.734375 47.269531 112.664062 47.253906 121.121094 47.253906 L 136.5 47.25 L 136.480469 47.367188 C 136.464844 47.433594 128.800781 60.496094 119.449219 76.394531 C 108.113281 95.644531 102.40625 105.300781 102.335938 105.3125 C 102.269531 105.324219 100.660156 102.652344 95.273438 93.585938 C 91.429688 87.128906 88.273438 81.824219 88.253906 81.816406 C 88.210938 81.789062 85.457031 86.46875 85.476562 86.53125 C 85.480469 86.558594 88.648438 91.886719 92.5 98.375 L 92.5 98.371094 C 94.867188 102.308594 97.195312 106.273438 99.480469 110.261719 C 99.433594 110.445312 84.066406 136.484375 84.003906 136.5 C 83.902344 136.519531 68.625 110.566406 68.65625 110.433594 C 68.683594 110.375 105.164062 48.222656 105.726562 47.285156 Z M 105.734375 47.289062 "/>
</g>
</svg>
