<?xml version="1.0" encoding="UTF-8"?>
<svg xmlns="http://www.w3.org/2000/svg" xmlns:xlink="http://www.w3.org/1999/xlink" width="168pt" height="168pt" viewBox="0 0 168 168" version="1.1">
<g id="surface211">
<path style=" stroke:none;fill-rule:evenodd;fill:rgb(92.941176%,8.627451%,31.372549%);fill-opacity:1;" d="M 168 84 C 168 130.390625 130.390625 168 84 168 C 37.609375 168 0 130.390625 0 84 C 0 37.609375 37.609375 0 84 0 C 130.390625 0 168 37.609375 168 84 "/>
<path style=" stroke:none;fill-rule:evenodd;fill:rgb(100%,100%,100%);fill-opacity:1;" d="M 123.269531 52.5 L 102.039062 52.5 C 101.167969 52.5 100.335938 52.855469 99.730469 53.476562 L 61.011719 93.003906 C 60.402344 93.625 59.570312 93.980469 58.699219 93.980469 L 51.601562 93.980469 C 50.730469 93.980469 49.898438 93.625 49.292969 93.003906 L 44.273438 87.890625 C 43.660156 87.265625 43.3125 86.421875 43.3125 85.542969 L 43.3125 78.3125 C 43.3125 77.433594 43.65625 76.589844 44.273438 75.960938 L 49.292969 70.847656 C 49.898438 70.226562 50.730469 69.875 51.601562 69.871094 L 58.699219 69.871094 C 59.566406 69.871094 60.394531 70.222656 61.007812 70.847656 L 64.089844 73.988281 L 64.09375 73.988281 C 64.699219 74.613281 65.53125 74.964844 66.402344 74.964844 C 67.273438 74.964844 68.105469 74.613281 68.710938 73.988281 L 76.160156 66.40625 C 77.4375 65.097656 77.4375 63.011719 76.160156 61.703125 L 68.074219 53.476562 L 68.078125 53.476562 C 67.46875 52.855469 66.636719 52.503906 65.765625 52.5 L 44.535156 52.5 C 43.664062 52.503906 42.832031 52.855469 42.226562 53.476562 L 27.210938 68.765625 C 26.597656 69.394531 26.253906 70.238281 26.253906 71.117188 L 26.253906 92.738281 C 26.253906 93.621094 26.601562 94.472656 27.210938 95.089844 L 42.226562 110.382812 C 42.835938 111 43.667969 111.351562 44.535156 111.351562 L 65.773438 111.351562 C 66.640625 111.351562 67.472656 111 68.082031 110.375 L 106.800781 70.851562 L 106.800781 70.855469 C 107.40625 70.230469 108.238281 69.875 109.109375 69.871094 L 116.207031 69.871094 C 117.074219 69.871094 117.902344 70.222656 118.515625 70.847656 L 123.535156 75.960938 L 123.539062 75.960938 C 124.152344 76.589844 124.5 77.433594 124.5 78.3125 L 124.5 85.542969 C 124.496094 86.421875 124.152344 87.261719 123.539062 87.890625 L 118.519531 93.003906 C 117.910156 93.625 117.078125 93.980469 116.207031 93.980469 L 109.109375 93.980469 C 108.242188 93.980469 107.40625 93.625 106.800781 93.003906 L 103.691406 89.839844 C 103.089844 89.21875 102.265625 88.867188 101.402344 88.863281 C 100.539062 88.859375 99.707031 89.199219 99.097656 89.8125 L 89.910156 98.957031 C 89.28125 99.589844 88.929688 100.445312 88.929688 101.335938 L 88.929688 122.546875 C 88.929688 124.382812 90.394531 125.875 92.195312 125.875 L 102.90625 125.875 C 103.78125 125.867188 104.617188 125.511719 105.230469 124.890625 C 105.84375 124.265625 106.183594 123.425781 106.175781 122.550781 L 106.175781 114.675781 C 106.175781 112.839844 107.640625 111.351562 109.441406 111.351562 L 123.273438 111.351562 C 124.144531 111.351562 124.976562 111 125.585938 110.382812 L 140.601562 95.089844 C 141.214844 94.460938 141.5625 93.617188 141.5625 92.734375 L 141.5625 71.113281 L 141.5625 71.117188 C 141.5625 70.238281 141.21875 69.394531 140.605469 68.765625 L 125.589844 53.476562 C 124.984375 52.855469 124.148438 52.503906 123.28125 52.5 "/>
</g>
</svg>
