<?xml version="1.0" encoding="UTF-8"?>
<svg xmlns="http://www.w3.org/2000/svg" xmlns:xlink="http://www.w3.org/1999/xlink" width="168pt" height="168pt" viewBox="0 0 168 168" version="1.1">
<g id="surface556">
<path style=" stroke:none;fill-rule:evenodd;fill:rgb(30.980392%,47.843137%,63.529412%);fill-opacity:1;" d="M 168 84 C 168 130.390625 130.390625 168 84 168 C 37.609375 168 0 130.390625 0 84 C 0 37.609375 37.609375 0 84 0 C 130.390625 0 168 37.609375 168 84 "/>
<path style=" stroke:none;fill-rule:nonzero;fill:rgb(100%,100%,100%);fill-opacity:1;" d="M 69.871094 63 L 84.246094 63 C 91.1875 63 103.582031 67.214844 103.582031 84 C 103.582031 100.785156 91.191406 105 84.246094 105 L 69.878906 105 Z M 77.796875 96.496094 L 83.75 96.496094 C 88.707031 96.496094 94.652344 93.460938 94.652344 84 C 94.652344 74.539062 88.703125 71.503906 83.75 71.503906 L 77.804688 71.503906 Z M 109.042969 63 L 112.015625 63 L 138.78125 99.886719 L 138.777344 63 L 141.75 63 L 141.75 105 L 138.773438 105 L 112.007812 68.921875 L 112.007812 105 L 109.03125 105 Z M 26.25 63 L 36.160156 63 L 36.160156 73.5 L 26.25 73.5 Z M 41.125 63 L 51.03125 63 L 51.03125 73.5 L 41.125 73.5 Z M 55.992188 63 L 65.910156 63 L 65.910156 73.5 L 55.992188 73.5 Z M 55.992188 78.75 L 65.910156 78.75 L 65.910156 89.25 L 55.992188 89.25 Z M 55.992188 94.5 L 65.910156 94.5 L 65.910156 105 L 55.992188 105 Z M 41.125 78.75 L 51.03125 78.75 L 51.03125 89.25 L 41.125 89.25 Z M 41.125 78.75 "/>
</g>
</svg>
