<?xml version="1.0" encoding="UTF-8"?>
<svg xmlns="http://www.w3.org/2000/svg" xmlns:xlink="http://www.w3.org/1999/xlink" width="168pt" height="168pt" viewBox="0 0 168 168" version="1.1">
<g id="surface366">
<path style=" stroke:none;fill-rule:evenodd;fill:rgb(40.392157%,69.803922%,90.980392%);fill-opacity:1;" d="M 168 84 C 168 130.390625 130.390625 168 84 168 C 37.609375 168 0 130.390625 0 84 C 0 37.609375 37.609375 0 84 0 C 130.390625 0 168 37.609375 168 84 "/>
<path style=" stroke:none;fill-rule:evenodd;fill:rgb(100%,100%,100%);fill-opacity:1;" d="M 32.261719 62.757812 C 31.769531 58.71875 31.515625 54.65625 31.5 50.589844 C 38.390625 46.664062 45.703125 43.53125 53.296875 41.25 C 63.953125 38.042969 75.046875 36.53125 86.171875 36.769531 C 89.152344 36.828125 93.46875 37.15625 96.746094 37.511719 C 88.328125 42.027344 82.410156 50.117188 80.65625 59.507812 C 80.339844 61.15625 80.167969 62.867188 80.109375 64.695312 C 80.023438 67.507812 79.753906 69.726562 79.164062 71.796875 L 79.164062 71.800781 C 77.390625 78.070312 73.125 83.335938 67.355469 86.371094 C 61.589844 89.40625 54.832031 89.941406 48.660156 87.855469 C 42.488281 85.765625 37.441406 81.238281 34.703125 75.328125 C 34.472656 74.824219 34.296875 74.292969 34.175781 73.753906 C 33.347656 70.125 32.707031 66.453125 32.261719 62.757812 Z M 119.480469 107.699219 C 118.230469 109.640625 116.90625 111.53125 115.53125 113.394531 C 115.574219 108.09375 114.253906 102.867188 111.699219 98.222656 C 109.070312 93.328125 105.179688 89.226562 100.433594 86.339844 L 99.960938 86.050781 L 99.960938 86.054688 C 99.699219 85.898438 99.4375 85.742188 99.179688 85.582031 C 93.210938 81.785156 89.570312 76.472656 88.292969 69.617188 L 88.289062 69.613281 C 87.175781 63.640625 88.398438 57.46875 91.703125 52.371094 C 95.007812 47.273438 100.144531 43.640625 106.050781 42.214844 C 110.355469 41.175781 114.609375 41.324219 118.84375 42.652344 C 122.09375 43.675781 125.378906 45.015625 129.386719 46.890625 C 131.695312 47.976562 134.027344 49.183594 136.503906 50.585938 L 136.503906 50.582031 C 136.472656 57.90625 135.675781 65.203125 134.132812 72.359375 C 131.4375 84.933594 126.472656 96.90625 119.484375 107.699219 Z M 103.535156 126.984375 L 103.535156 126.980469 C 97.609375 132.628906 91.054688 137.585938 84.003906 141.75 C 82.183594 140.699219 80.402344 139.582031 78.664062 138.394531 C 61.828125 127.070312 48.554688 111.1875 40.402344 92.605469 C 44.289062 94.890625 48.625 96.296875 53.109375 96.726562 C 59.703125 97.394531 66.339844 95.972656 72.082031 92.667969 C 74.84375 91.09375 77.886719 90.078125 81.039062 89.679688 C 86.628906 88.972656 92.285156 90.28125 97.003906 93.363281 C 101.71875 96.449219 105.179688 101.109375 106.773438 106.511719 C 108.53125 112.398438 108.019531 118.175781 105.289062 123.875 C 105.058594 124.359375 104.859375 124.746094 104.386719 125.675781 L 104.15625 126.132812 C 104 126.449219 103.789062 126.734375 103.535156 126.980469 Z M 103.535156 126.984375 "/>
</g>
</svg>
