<?xml version="1.0" encoding="UTF-8"?>
<svg xmlns="http://www.w3.org/2000/svg" xmlns:xlink="http://www.w3.org/1999/xlink" width="168pt" height="168pt" viewBox="0 0 168 168" version="1.1">
<g id="surface456">
<path style=" stroke:none;fill-rule:nonzero;fill:rgb(11.764706%,70.980392%,98.039216%);fill-opacity:1;" d="M 168 84 C 168 130.390625 130.390625 168 84 168 C 37.609375 168 0 130.390625 0 84 C 0 37.609375 37.609375 0 84 0 C 130.390625 0 168 37.609375 168 84 "/>
<path style=" stroke:none;fill-rule:nonzero;fill:rgb(100%,100%,100%);fill-opacity:1;" d="M 138.625 37.542969 L 119.566406 45.996094 L 119.570312 45.996094 C 118.4375 46.613281 117.730469 47.800781 117.730469 49.09375 L 117.730469 117.238281 C 117.726562 118.542969 118.457031 119.742188 119.621094 120.335938 L 138.679688 128.578125 C 139.230469 128.878906 139.902344 128.867188 140.441406 128.542969 C 140.980469 128.21875 141.308594 127.632812 141.304688 127.003906 L 141.304688 39.117188 C 141.285156 38.488281 140.941406 37.914062 140.398438 37.59375 C 139.855469 37.273438 139.1875 37.253906 138.625 37.542969 Z M 47.355469 45.890625 L 28.875 37.492188 C 28.324219 37.1875 27.652344 37.203125 27.113281 37.527344 C 26.570312 37.851562 26.242188 38.4375 26.25 39.066406 L 26.25 126.953125 L 26.25 126.949219 C 26.25 127.597656 26.601562 128.195312 27.167969 128.511719 C 27.734375 128.828125 28.429688 128.8125 28.980469 128.472656 L 47.566406 118.65625 C 48.609375 118.019531 49.246094 116.886719 49.246094 115.664062 L 49.246094 48.988281 C 49.203125 47.695312 48.488281 46.519531 47.355469 45.890625 Z M 105.316406 69.148438 L 85.417969 57.757812 L 85.417969 57.753906 C 84.328125 57.125 82.988281 57.125 81.898438 57.753906 L 61.632812 69.042969 L 61.636719 69.042969 C 60.53125 69.683594 59.851562 70.863281 59.851562 72.140625 L 59.851562 95.242188 C 59.851562 96.519531 60.535156 97.699219 61.636719 98.339844 L 81.902344 109.996094 C 82.988281 110.625 84.332031 110.625 85.417969 109.996094 L 105.316406 98.445312 L 105.316406 98.441406 C 106.417969 97.800781 107.097656 96.621094 107.101562 95.34375 L 107.101562 72.242188 L 107.101562 72.246094 C 107.109375 70.964844 106.429688 69.78125 105.316406 69.148438 Z M 105.316406 69.148438 "/>
</g>
</svg>
