<?xml version="1.0" encoding="UTF-8"?>
<svg xmlns="http://www.w3.org/2000/svg" xmlns:xlink="http://www.w3.org/1999/xlink" width="168pt" height="168pt" viewBox="0 0 168 168" version="1.1">
<g id="surface2325">
<path style=" stroke:none;fill-rule:nonzero;fill:rgb(0%,0%,0%);fill-opacity:1;" d="M 168 84 C 168 130.390625 130.390625 168 84 168 C 37.609375 168 0 130.390625 0 84 C 0 37.609375 37.609375 0 84 0 C 130.390625 0 168 37.609375 168 84 "/>
<path style=" stroke:none;fill-rule:nonzero;fill:rgb(100%,100%,100%);fill-opacity:1;" d="M 121.433594 48.78125 L 108.832031 55.207031 L 47.941406 86.21875 L 47.941406 86.222656 C 46.78125 77.289062 48.980469 68.246094 54.117188 60.847656 C 59.253906 53.453125 66.960938 48.230469 75.734375 46.199219 C 84.507812 44.167969 93.722656 45.476562 101.585938 49.863281 L 108.800781 46.1875 L 109.878906 45.636719 C 100.703125 38.980469 89.328125 36.09375 78.089844 37.566406 C 66.855469 39.042969 56.609375 44.769531 49.464844 53.566406 C 42.320312 62.363281 38.816406 73.566406 39.679688 84.867188 C 39.925781 88.109375 38.199219 91.179688 35.300781 92.65625 L 31.496094 94.597656 L 31.496094 103.648438 L 42.699219 97.9375 L 46.328125 96.085938 L 49.902344 94.265625 L 114.089844 61.558594 L 121.304688 57.890625 L 136.214844 50.292969 L 136.210938 41.242188 Z M 136.21875 59.34375 L 53.554688 101.429688 L 46.339844 105.105469 L 31.5 112.679688 L 31.5 121.726562 L 46.242188 114.21875 L 58.847656 107.792969 L 119.800781 76.734375 C 120.980469 85.679688 118.785156 94.742188 113.640625 102.152344 C 108.5 109.566406 100.78125 114.796875 91.988281 116.824219 C 83.199219 118.851562 73.964844 117.53125 66.097656 113.117188 L 65.652344 113.351562 L 57.828125 117.339844 L 57.828125 117.34375 C 67.003906 124.003906 78.382812 126.894531 89.621094 125.417969 C 100.863281 123.941406 111.109375 118.214844 118.253906 109.410156 C 125.402344 100.609375 128.898438 89.402344 128.03125 78.097656 C 127.789062 74.859375 129.511719 71.789062 132.40625 70.3125 L 136.21875 68.371094 Z M 136.21875 59.34375 "/>
</g>
</svg>
