<?xml version="1.0" encoding="UTF-8"?>
<svg xmlns="http://www.w3.org/2000/svg" xmlns:xlink="http://www.w3.org/1999/xlink" width="168pt" height="168pt" viewBox="0 0 168 168" version="1.1">
<g id="surface1461">
<path style=" stroke:none;fill-rule:nonzero;fill:rgb(86.666667%,2.352941%,19.607843%);fill-opacity:1;" d="M 168 84 C 168 130.390625 130.390625 168 84 168 C 37.609375 168 0 130.390625 0 84 C 0 37.609375 37.609375 0 84 0 C 130.390625 0 168 37.609375 168 84 "/>
<path style=" stroke:none;fill-rule:nonzero;fill:rgb(100%,100%,100%);fill-opacity:1;" d="M 119.082031 36.75 L 91.992188 36.75 L 83.9375 50.671875 L 75.910156 36.75 L 48.808594 36.75 L 21 84.917969 L 47.925781 131.539062 L 66.179688 99.9375 L 84 130.703125 L 101.765625 99.9375 L 120.0625 131.753906 L 147 85.132812 Z M 47.890625 113.105469 L 31.605469 84.933594 L 44.558594 62.503906 L 60.832031 90.695312 L 47.886719 113.128906 L 47.886719 113.101562 Z M 49.90625 53.246094 L 54.199219 45.785156 L 70.425781 45.785156 L 78.589844 59.921875 L 66.179688 81.441406 L 49.90625 53.242188 Z M 83.925781 112.214844 L 71.523438 90.679688 L 83.933594 69.171875 L 89.480469 78.75 L 96.359375 90.683594 L 83.9375 112.191406 L 83.925781 112.21875 Z M 89.265625 59.925781 L 97.445312 45.789062 L 113.671875 45.789062 L 118.019531 53.242188 L 101.640625 81.445312 L 89.265625 59.921875 Z M 131.097656 94.246094 L 120.109375 113.308594 L 107.046875 90.628906 L 123.320312 62.496094 L 127.710938 70.054688 L 136.390625 85.085938 Z M 131.097656 94.246094 "/>
</g>
</svg>
