<?xml version="1.0" encoding="UTF-8"?>
<svg xmlns="http://www.w3.org/2000/svg" xmlns:xlink="http://www.w3.org/1999/xlink" width="168pt" height="168pt" viewBox="0 0 168 168" version="1.1">
<g id="surface1846">
<path style=" stroke:none;fill-rule:evenodd;fill:rgb(0%,29.019608%,50.196078%);fill-opacity:1;" d="M 168 84 C 168 130.390625 130.390625 168 84 168 C 37.609375 168 0 130.390625 0 84 C 0 37.609375 37.609375 0 84 0 C 130.390625 0 168 37.609375 168 84 "/>
<path style=" stroke:none;fill-rule:evenodd;fill:rgb(100%,100%,100%);fill-opacity:1;" d="M 120.75 102.585938 L 112.964844 131.25 L 47.25 131.25 L 47.25 126.457031 L 82.898438 85.933594 L 47.96875 41.960938 L 47.96875 36.75 L 112.707031 36.75 L 114.964844 59.074219 L 110.816406 59.074219 C 108.082031 53.988281 105.761719 50.179688 103.84375 47.65625 C 101.933594 45.132812 100.226562 43.5625 98.726562 42.9375 C 97.667969 42.421875 96.207031 42.054688 94.347656 41.835938 L 94.347656 41.832031 C 92.128906 41.585938 89.898438 41.472656 87.664062 41.492188 L 69.273438 41.492188 L 96.832031 75.828125 L 96.832031 77.480469 L 62.769531 116.148438 L 101.644531 116.148438 C 103.554688 116.148438 105.308594 115.691406 106.894531 114.785156 C 108.480469 113.871094 109.855469 112.726562 111.015625 111.351562 L 111.015625 111.347656 C 112.234375 109.925781 113.316406 108.390625 114.246094 106.765625 C 115.238281 105.039062 116.113281 103.246094 116.859375 101.398438 Z M 120.75 102.585938 "/>
</g>
</svg>
