<?xml version="1.0" encoding="UTF-8"?>
<svg xmlns="http://www.w3.org/2000/svg" xmlns:xlink="http://www.w3.org/1999/xlink" width="168pt" height="168pt" viewBox="0 0 168 168" version="1.1">
<g id="surface1136">
<path style=" stroke:none;fill-rule:nonzero;fill:rgb(100%,40%,0%);fill-opacity:1;" d="M 168 84 C 168 130.390625 130.390625 168 84 168 C 37.609375 168 0 130.390625 0 84 C 0 37.609375 37.609375 0 84 0 C 130.390625 0 168 37.609375 168 84 "/>
<path style=" stroke:none;fill-rule:nonzero;fill:rgb(100%,100%,100%);fill-opacity:1;" d="M 147 84 C 147 118.796875 118.796875 147 84 147 C 49.203125 147 21 118.796875 21 84 C 21 69.925781 25.625 56.929688 33.402344 46.445312 L 43.691406 56.734375 L 43.691406 56.738281 C 38.226562 64.777344 35.3125 74.277344 35.320312 84 C 35.320312 110.828125 57.125 132.625 83.949219 132.625 C 110.769531 132.625 132.574219 110.820312 132.574219 84 L 132.578125 84 C 132.574219 74.277344 129.660156 64.78125 124.210938 56.730469 L 134.5 46.441406 C 142.640625 57.269531 147.03125 70.453125 147 84 "/>
<path style=" stroke:none;fill-rule:nonzero;fill:rgb(100%,100%,100%);fill-opacity:1;" d="M 118.84375 84 C 118.835938 93.238281 115.160156 102.09375 108.628906 108.628906 C 102.09375 115.160156 93.238281 118.835938 84 118.84375 C 74.761719 118.835938 65.902344 115.164062 59.367188 108.628906 C 52.835938 102.097656 49.160156 93.238281 49.152344 84 C 49.152344 77.945312 50.726562 71.992188 53.730469 66.726562 L 84 96.988281 L 114.273438 66.714844 L 114.273438 66.71875 C 117.273438 71.984375 118.851562 77.9375 118.847656 84 "/>
<path style=" stroke:none;fill-rule:nonzero;fill:rgb(100%,100%,100%);fill-opacity:1;" d="M 125.195312 36.355469 L 84 77.5 L 52.601562 46.152344 L 42.804688 36.355469 C 54.222656 26.417969 68.863281 20.960938 84 21 C 99.75 21 114.125 26.757812 125.195312 36.355469 "/>
</g>
</svg>
