<?xml version="1.0" encoding="UTF-8"?>
<svg xmlns="http://www.w3.org/2000/svg" xmlns:xlink="http://www.w3.org/1999/xlink" width="168pt" height="168pt" viewBox="0 0 168 168" version="1.1">
<g id="surface1601">
<path style=" stroke:none;fill-rule:evenodd;fill:rgb(100%,40%,0%);fill-opacity:1;" d="M 168 84 C 168 130.390625 130.390625 168 84 168 C 37.609375 168 0 130.390625 0 84 C 0 37.609375 37.609375 0 84 0 C 130.390625 0 168 37.609375 168 84 "/>
<path style=" stroke:none;fill-rule:nonzero;fill:rgb(100%,100%,100%);fill-opacity:1;" d="M 83.84375 27.484375 C 115.265625 27.484375 140.675781 52.894531 140.675781 84.308594 L 140.671875 84.308594 C 140.652344 90.433594 139.664062 96.511719 137.746094 102.328125 L 120.808594 102.328125 L 120.808594 54.585938 L 83.847656 91.546875 L 46.886719 54.585938 L 46.886719 102.328125 L 29.945312 102.328125 C 28.027344 96.511719 27.042969 90.433594 27.023438 84.308594 C 27.023438 52.894531 52.433594 27.484375 83.847656 27.484375 Z M 75.378906 99.855469 L 84 108.332031 L 92.46875 99.859375 L 108.488281 83.6875 L 108.488281 113.71875 L 132.359375 113.71875 C 122.058594 130.65625 103.667969 140.992188 83.847656 140.976562 C 63.363281 140.976562 45.34375 130.046875 35.335938 113.71875 L 59.203125 113.71875 L 59.203125 83.6875 L 75.375 99.859375 Z M 75.378906 99.855469 "/>
</g>
</svg>
