<?xml version="1.0" encoding="UTF-8"?>
<svg xmlns="http://www.w3.org/2000/svg" xmlns:xlink="http://www.w3.org/1999/xlink" width="168pt" height="168pt" viewBox="0 0 168 168" version="1.1">
<g id="surface981">
<path style=" stroke:none;fill-rule:nonzero;fill:rgb(92.54902%,6.27451%,46.27451%);fill-opacity:1;" d="M 168 84 C 168 130.390625 130.390625 168 84 168 C 37.609375 168 0 130.390625 0 84 C 0 37.609375 37.609375 0 84 0 C 130.390625 0 168 37.609375 168 84 "/>
<path style=" stroke:none;fill-rule:evenodd;fill:rgb(100%,100%,100%);fill-opacity:1;" d="M 110.511719 110.25 C 107.351562 110.25 103.882812 108.660156 103.882812 103.886719 C 103.882812 101.535156 105.71875 94.304688 109.386719 82.195312 C 110.136719 80.328125 110.511719 78.644531 110.511719 77.160156 C 110.511719 74.300781 108.308594 71.4375 104.203125 71.4375 C 101.820312 71.4375 96.628906 72.382812 95.050781 77.476562 C 94 80.875 91.582031 89.886719 87.789062 104.523438 C 86.320312 108.339844 83.6875 110.25 79.902344 110.25 C 74.222656 110.25 73.273438 106.113281 73.273438 103.566406 C 73.273438 102.558594 74.785156 96.464844 77.816406 85.296875 C 78.996094 81.570312 79.585938 78.855469 79.585938 77.160156 C 79.585938 74.613281 77.695312 71.4375 73.277344 71.4375 C 68.863281 71.4375 64.757812 74.613281 62.867188 81.613281 C 61.605469 86.285156 59.816406 93.285156 57.5 102.613281 C 56.238281 107.707031 53.394531 110.253906 48.980469 110.253906 C 44.980469 110.253906 42.878906 108.027344 42.671875 103.570312 L 49.925781 73.347656 L 33.824219 73.34375 C 31.8125 73.414062 29.855469 72.667969 28.394531 71.273438 C 26.9375 69.882812 26.105469 67.960938 26.085938 65.945312 C 26.0625 63.929688 26.855469 61.988281 28.285156 60.566406 C 29.710938 59.144531 31.652344 58.359375 33.667969 58.386719 L 60.648438 58.386719 C 64.433594 58.386719 66.75 60.191406 67.589844 63.792969 C 71.378906 59.027344 76.425781 57.75 80.851562 57.75 C 85.277344 57.75 90.949219 60.296875 93.472656 66.023438 C 96.9375 62.203125 102.9375 57.75 111.460938 57.75 C 119.347656 57.75 125.976562 63.15625 125.976562 72.703125 C 125.976562 76.308594 124.1875 83.84375 120.609375 95.300781 L 134.453125 95.207031 C 138.5 95.207031 141.75 98.578125 141.75 102.730469 C 141.75 106.878906 138.5 110.25 134.488281 110.25 Z M 110.511719 110.25 "/>
</g>
</svg>
