<?xml version="1.0" encoding="UTF-8"?>
<svg xmlns="http://www.w3.org/2000/svg" xmlns:xlink="http://www.w3.org/1999/xlink" width="168pt" height="168pt" viewBox="0 0 168 168" version="1.1">
<g id="surface2435">
<path style=" stroke:none;fill-rule:evenodd;fill:rgb(0%,50.980392%,0%);fill-opacity:1;" d="M 168 84 C 168 130.390625 130.390625 168 84 168 C 37.609375 168 0 130.390625 0 84 C 0 37.609375 37.609375 0 84 0 C 130.390625 0 168 37.609375 168 84 "/>
<path style=" stroke:none;fill-rule:nonzero;fill:rgb(100%,100%,100%);fill-opacity:1;" d="M 77.648438 120.75 L 68.207031 120.75 L 62.527344 98.4375 L 76.414062 91.183594 L 80.933594 104.097656 L 84.300781 87.0625 L 102.753906 77.417969 L 101.734375 82.542969 L 112.390625 82.644531 C 116.507812 82.582031 119.695312 81.191406 121.960938 78.480469 C 124.230469 75.765625 125.304688 72.128906 125.191406 67.542969 C 125.171875 66.953125 125.113281 66.363281 125.007812 65.78125 L 139.339844 58.289062 C 141.324219 61.9375 142.082031 66.238281 141.617188 71.179688 C 140.851562 78.382812 137.730469 84.148438 132.277344 88.46875 C 126.824219 92.792969 119.867188 94.957031 111.417969 94.957031 L 99.3125 94.90625 L 94.183594 120.75 Z M 79.859375 63.050781 L 89.046875 63.050781 L 74.886719 83.132812 L 39.921875 101.40625 L 52.878906 83.082031 L 40.425781 47.25 L 58.695312 47.25 L 65.152344 72.390625 L 70.675781 63.046875 L 79.863281 63.046875 L 70.675781 63.046875 L 80.535156 47.25 L 92.164062 47.25 L 119.074219 47.300781 C 125.191406 47.46875 130.203125 49.089844 134.121094 52.167969 L 119.421875 59.855469 C 119.0625 59.789062 118.695312 59.742188 118.328125 59.71875 L 106.285156 59.613281 L 104.710938 67.539062 L 86.246094 77.1875 L 89.039062 63.042969 Z M 30.378906 115.246094 L 58.34375 100.625 L 46.015625 120.75 L 26.25 120.75 L 30.277344 115.054688 Z M 30.378906 115.246094 "/>
</g>
</svg>
