<?xml version="1.0" encoding="UTF-8"?>
<svg xmlns="http://www.w3.org/2000/svg" xmlns:xlink="http://www.w3.org/1999/xlink" width="168pt" height="168pt" viewBox="0 0 168 168" version="1.1">
<g id="surface1206">
<path style=" stroke:none;fill-rule:evenodd;fill:rgb(30.980392%,65.490196%,51.764706%);fill-opacity:1;" d="M 168 84 C 168 130.390625 130.390625 168 84 168 C 37.609375 168 0 130.390625 0 84 C 0 37.609375 37.609375 0 84 0 C 130.390625 0 168 37.609375 168 84 "/>
<path style=" stroke:none;fill-rule:evenodd;fill:rgb(100%,100%,100%);fill-opacity:1;" d="M 134.269531 67.441406 L 91.691406 55.242188 L 77.128906 80.046875 L 60.214844 60.425781 L 67.878906 59.4375 L 75.78125 68.71875 L 84.546875 53.183594 L 45.960938 42.121094 L 45.957031 42.125 C 44.902344 41.8125 43.761719 42.089844 42.964844 42.847656 C 42.167969 43.605469 41.835938 44.730469 42.09375 45.800781 L 59.1875 114.449219 L 77.546875 83.539062 L 94.460938 103.160156 L 86.796875 104.148438 L 78.902344 94.867188 L 61.523438 123.832031 L 64.097656 134.175781 L 64.097656 134.167969 C 64.371094 135.238281 65.1875 136.078125 66.246094 136.382812 C 67.308594 136.683594 68.445312 136.402344 69.242188 135.640625 L 135.550781 72.589844 L 135.550781 72.585938 C 136.347656 71.832031 136.675781 70.707031 136.410156 69.640625 C 136.144531 68.574219 135.328125 67.734375 134.269531 67.441406 Z M 134.269531 67.441406 "/>
</g>
</svg>
