<?xml version="1.0" encoding="UTF-8"?>
<svg xmlns="http://www.w3.org/2000/svg" xmlns:xlink="http://www.w3.org/1999/xlink" width="168pt" height="168pt" viewBox="0 0 168 168" version="1.1">
<g id="surface2262">
<path style=" stroke:none;fill-rule:evenodd;fill:rgb(100%,84.705882%,10.588235%);fill-opacity:1;" d="M 168 84 C 168 130.390625 130.390625 168 84 168 C 37.609375 168 0 130.390625 0 84 C 0 37.609375 37.609375 0 84 0 C 130.390625 0 168 37.609375 168 84 "/>
<path style=" stroke:none;fill-rule:nonzero;fill:rgb(100%,100%,100%);fill-opacity:1;" d="M 126 81.699219 C 126 104.921875 108.011719 112.816406 92.871094 112.816406 L 92.871094 118.871094 L 104.550781 118.871094 L 104.550781 127.070312 L 92.875 127.070312 L 92.878906 136.5 L 74.609375 136.5 L 74.609375 127.070312 L 63.441406 127.070312 L 63.441406 118.871094 L 74.585938 118.871094 L 74.585938 112.738281 C 69.738281 112.738281 42 111.589844 42 80.015625 L 42 42 L 60.140625 42 L 60.140625 81.46875 C 60.140625 97.949219 74.664062 97.796875 74.664062 97.796875 L 74.660156 42 L 92.878906 42 L 92.878906 97.796875 C 92.878906 97.796875 107.863281 98.636719 107.863281 81.242188 L 107.859375 42 L 126 42 Z M 126 81.699219 "/>
</g>
</svg>
