<?xml version="1.0" encoding="UTF-8"?>
<svg xmlns="http://www.w3.org/2000/svg" xmlns:xlink="http://www.w3.org/1999/xlink" width="168pt" height="168pt" viewBox="0 0 168 168" version="1.1">
<g id="surface2340">
<path style=" stroke:none;fill-rule:nonzero;fill:rgb(45.882353%,26.27451%,89.019608%);fill-opacity:1;" d="M 168 84 C 168 130.390625 130.390625 168 84 168 C 37.609375 168 0 130.390625 0 84 C 0 37.609375 37.609375 0 84 0 C 130.390625 0 168 37.609375 168 84 "/>
<path style=" stroke:none;fill-rule:evenodd;fill:rgb(100%,100%,100%);fill-opacity:1;" d="M 62.453125 65.941406 C 62.265625 67.542969 62.085938 69.226562 61.96875 70.914062 C 59.15625 72.941406 56.523438 75.007812 54.082031 77.078125 C 52.820312 78.148438 51.605469 79.21875 50.460938 80.332031 C 41.425781 70.796875 37.570312 62.226562 40.054688 57.824219 C 42.238281 53.917969 49.566406 52.808594 59.859375 54.914062 C 60.269531 53.078125 60.671875 51.316406 61.15625 49.632812 C 48.683594 47.027344 39.167969 48.75 35.578125 55.144531 C 34.613281 56.863281 34.117188 58.800781 34.136719 60.769531 L 34.136719 60.964844 C 34.210938 70.03125 42.835938 82.164062 57.238281 93.609375 C 58.714844 94.796875 60.308594 95.980469 61.9375 97.167969 L 61.933594 97.167969 C 62.328125 102.191406 63.03125 107.1875 64.042969 112.125 C 51.570312 115.457031 42.496094 114.617188 40.019531 110.214844 C 37.835938 106.3125 40.574219 99.160156 47.457031 91.003906 L 43.867188 87.097656 C 35.351562 97.050781 31.949219 106.5 35.539062 112.925781 C 38.058594 117.445312 43.5 119.59375 50.828125 119.59375 C 58.195312 119.59375 67.445312 117.410156 77.585938 113.164062 L 77.589844 113.164062 C 79.671875 112.285156 81.734375 111.355469 83.769531 110.371094 L 84 110.25 C 87.222656 111.777344 90.40625 113.160156 93.554688 114.34375 C 94.917969 114.878906 96.289062 115.339844 97.625 115.796875 C 94.179688 128.652344 88.925781 136.382812 84 136.382812 C 79.632812 136.382812 75.007812 130.339844 71.636719 120.003906 C 69.980469 120.605469 68.300781 121.144531 66.601562 121.617188 C 70.671875 134.09375 76.847656 141.75 84 141.75 C 94.398438 141.75 102.691406 125.601562 105.546875 102.058594 C 105.730469 100.457031 105.878906 98.773438 106.023438 97.125 C 108.949219 95.023438 111.695312 92.839844 114.246094 90.621094 C 115.355469 89.664062 116.4375 88.683594 117.5 87.675781 C 126.570312 97.167969 130.414062 105.777344 127.9375 110.175781 C 125.90625 113.8125 119.203125 115.039062 110.023438 113.46875 L 108.171875 113.121094 C 107.789062 114.871094 107.359375 116.605469 106.878906 118.328125 C 107.65625 118.480469 108.433594 118.632812 109.171875 118.75 C 111.851562 119.230469 114.5625 119.488281 117.28125 119.515625 C 124.71875 119.515625 130.011719 117.257812 132.453125 112.894531 C 135.714844 107.078125 133.34375 98.613281 125.753906 89.128906 C 121.832031 84.195312 116.722656 79.21875 110.800781 74.472656 C 109.277344 73.25 107.691406 72.058594 106.101562 70.875 C 105.824219 67.308594 105.378906 63.757812 104.769531 60.234375 C 104.507812 58.742188 104.25 57.289062 103.957031 55.875 C 106.0625 55.296875 108.105469 54.835938 110.0625 54.496094 C 119.246094 52.921875 125.945312 54.148438 127.980469 57.789062 C 130.121094 61.617188 127.496094 68.621094 120.835938 76.617188 C 122.128906 77.917969 123.3125 79.222656 124.425781 80.480469 L 124.425781 80.476562 C 124.890625 79.949219 125.332031 79.398438 125.753906 78.835938 C 133.308594 69.34375 135.714844 60.886719 132.457031 55.070312 C 129.203125 49.253906 120.945312 47.148438 109.210938 49.175781 C 103.765625 50.09375 97.808594 51.894531 91.625 54.347656 C 91.367188 54.457031 91.148438 54.535156 90.890625 54.652344 C 88.816406 55.492188 86.742188 56.410156 84.667969 57.410156 C 84.484375 57.484375 84.300781 57.597656 84.113281 57.671875 L 84.109375 57.664062 C 80.972656 56.144531 77.777344 54.753906 74.523438 53.496094 C 73.160156 52.960938 71.78125 52.5 70.453125 52.042969 C 73.886719 39.222656 79.148438 31.5 84.066406 31.5 C 88.433594 31.5 93.097656 37.585938 96.46875 47.917969 C 98.175781 47.339844 99.839844 46.808594 101.507812 46.3125 C 97.3125 33.941406 91.140625 26.25 83.953125 26.25 C 73.589844 26.25 65.261719 42.398438 62.449219 65.941406 Z M 95.542969 63.988281 C 95.46875 63.910156 95.359375 63.871094 95.28125 63.832031 C 93.546875 62.804688 91.765625 61.804688 90.066406 60.851562 L 90.070312 60.847656 C 90.207031 60.765625 90.355469 60.703125 90.511719 60.652344 C 92.621094 59.734375 94.734375 58.894531 96.769531 58.167969 C 97.472656 57.894531 98.175781 57.667969 98.84375 57.4375 C 99.136719 58.855469 99.394531 60.273438 99.65625 61.761719 C 99.949219 63.484375 100.171875 65.242188 100.390625 67.042969 L 100.390625 67.046875 C 98.789062 66.003906 97.171875 64.984375 95.542969 63.988281 Z M 68.265625 61.957031 C 68.523438 60.386719 68.78125 58.894531 69.117188 57.441406 C 72.101562 58.449219 75.039062 59.585938 77.925781 60.847656 C 76.183594 61.804688 74.410156 62.800781 72.671875 63.828125 C 72.585938 63.867188 72.511719 63.921875 72.445312 63.988281 C 70.78125 64.984375 69.152344 66.015625 67.5625 67.050781 C 67.78125 65.285156 68.003906 63.605469 68.265625 61.957031 Z M 75.257812 99.617188 L 75.257812 99.613281 C 74.019531 98.894531 72.796875 98.140625 71.59375 97.355469 C 70.003906 96.347656 68.4375 95.300781 66.894531 94.214844 C 66.667969 90.828125 66.554688 87.433594 66.558594 84.035156 C 66.558594 82.199219 66.59375 80.402344 66.667969 78.636719 C 66.742188 76.992188 66.820312 75.421875 66.929688 73.859375 C 69.554688 72.023438 72.335938 70.222656 75.257812 68.457031 C 76.371094 67.773438 77.515625 67.117188 78.628906 66.507812 C 80.402344 65.511719 82.183594 64.589844 83.957031 63.671875 L 83.957031 63.675781 C 86.917969 65.160156 89.816406 66.757812 92.65625 68.460938 C 93.917969 69.226562 95.132812 69.957031 96.320312 70.71875 C 97.949219 71.753906 99.5 72.789062 101.023438 73.859375 L 101.027344 73.855469 C 101.367188 79.042969 101.441406 84.242188 101.246094 89.433594 C 101.171875 91.039062 101.097656 92.648438 100.984375 94.214844 C 98.359375 96.050781 95.582031 97.851562 92.65625 99.613281 C 91.878906 100.074219 91.140625 100.53125 90.363281 100.953125 C 88.398438 102.101562 86.441406 103.136719 84.515625 104.128906 C 84.332031 104.207031 84.148438 104.324219 83.960938 104.398438 L 83.957031 104.394531 C 81.003906 102.90625 78.101562 101.3125 75.257812 99.617188 Z M 56.972656 86.492188 C 56.011719 85.6875 55.125 84.84375 54.230469 84.039062 C 55.453125 82.929688 56.714844 81.78125 58.046875 80.671875 C 59.15625 79.753906 60.304688 78.796875 61.523438 77.878906 C 61.449219 79.40625 61.417969 80.976562 61.417969 82.546875 L 61.417969 84.039062 C 61.417969 86.144531 61.449219 88.175781 61.523438 90.203125 L 61.523438 90.199219 C 59.960938 89.019531 58.445312 87.78125 56.972656 86.488281 Z M 106.539062 85.574219 L 106.539062 84.042969 C 106.539062 81.941406 106.503906 79.910156 106.429688 77.882812 L 106.429688 77.878906 C 108.953125 79.800781 111.375 81.859375 113.683594 84.042969 C 112.722656 84.917969 111.71875 85.839844 110.6875 86.71875 C 110.539062 86.828125 110.386719 86.980469 110.242188 87.097656 C 109.023438 88.132812 107.722656 89.203125 106.394531 90.238281 C 106.46875 88.710938 106.542969 87.140625 106.542969 85.566406 Z M 68.304688 106.3125 L 68.300781 106.308594 C 68.015625 104.554688 67.765625 102.796875 67.5625 101.03125 C 69.152344 102.066406 70.742188 103.058594 72.410156 104.054688 C 72.484375 104.128906 72.597656 104.171875 72.671875 104.207031 C 74.410156 105.242188 76.148438 106.234375 77.921875 107.1875 C 77.921875 107.1875 77.890625 107.1875 77.890625 107.230469 C 76.089844 108.003906 74.273438 108.746094 72.445312 109.453125 C 72.1875 109.5625 71.929688 109.640625 71.667969 109.757812 C 70.816406 110.0625 69.96875 110.371094 69.117188 110.640625 L 69.117188 110.636719 C 68.816406 109.203125 68.542969 107.761719 68.300781 106.3125 Z M 94.695312 109.148438 L 94.695312 109.140625 C 93.117188 108.53125 91.546875 107.894531 89.992188 107.230469 L 90.660156 106.882812 C 92.183594 106.042969 93.695312 105.160156 95.253906 104.277344 L 95.25 104.28125 C 96.960938 103.226562 98.664062 102.152344 100.359375 101.066406 C 100.132812 102.789062 99.914062 104.511719 99.65625 106.117188 C 99.394531 107.691406 99.101562 109.183594 98.800781 110.675781 C 97.472656 110.175781 96.101562 109.679688 94.695312 109.144531 Z M 77.296875 84.042969 C 77.296875 80.257812 80.292969 77.15625 83.964844 77.15625 C 87.625 77.15625 90.621094 80.253906 90.621094 84.042969 C 90.621094 87.832031 87.628906 90.929688 83.957031 90.929688 C 80.292969 90.929688 77.292969 87.832031 77.292969 84.042969 Z M 77.296875 84.042969 "/>
</g>
</svg>
