<?xml version="1.0" encoding="UTF-8"?>
<svg xmlns="http://www.w3.org/2000/svg" xmlns:xlink="http://www.w3.org/1999/xlink" width="168pt" height="168pt" viewBox="0 0 168 168" version="1.1">
<g id="surface411">
<path style=" stroke:none;fill-rule:nonzero;fill:rgb(13.72549%,16.078431%,18.431373%);fill-opacity:1;" d="M 168 84 C 168 130.390625 130.390625 168 84 168 C 37.609375 168 0 130.390625 0 84 C 0 37.609375 37.609375 0 84 0 C 130.390625 0 168 37.609375 168 84 "/>
<path style=" stroke:none;fill-rule:nonzero;fill:rgb(100%,100%,100%);fill-opacity:1;" d="M 121.117188 42 L 136.289062 42 L 104.710938 73.273438 C 99.191406 78.714844 91.75 81.761719 84 81.761719 C 76.25 81.761719 68.808594 78.714844 63.289062 73.273438 L 31.683594 42 L 46.882812 42 L 70.875 65.746094 C 74.367188 69.195312 79.082031 71.128906 83.988281 71.128906 C 88.898438 71.128906 93.609375 69.195312 97.105469 65.746094 Z M 46.699219 128.957031 L 31.5 128.957031 L 63.289062 97.492188 C 68.808594 92.054688 76.25 89.003906 84 89.003906 C 91.75 89.003906 99.191406 92.054688 104.710938 97.492188 L 136.5 128.949219 L 121.300781 128.949219 L 97.125 105 C 93.632812 101.550781 88.917969 99.617188 84.011719 99.617188 C 79.101562 99.617188 74.390625 101.550781 70.894531 105 L 46.691406 128.957031 Z M 46.699219 128.957031 "/>
</g>
</svg>
