<?xml version="1.0" encoding="UTF-8"?>
<svg xmlns="http://www.w3.org/2000/svg" xmlns:xlink="http://www.w3.org/1999/xlink" width="168pt" height="168pt" viewBox="0 0 168 168" version="1.1">
<g id="surface1271">
<path style=" stroke:none;fill-rule:nonzero;fill:rgb(82.352941%,11.764706%,16.862745%);fill-opacity:1;" d="M 168 84 C 168 130.390625 130.390625 168 84 168 C 37.609375 168 0 130.390625 0 84 C 0 37.609375 37.609375 0 84 0 C 130.390625 0 168 37.609375 168 84 "/>
<path style=" stroke:none;fill-rule:nonzero;fill:rgb(100%,100%,100%);fill-opacity:1;" d="M 84.734375 30.738281 L 84.734375 15.75 L 140.519531 47.941406 L 127.621094 55.4375 Z M 128.476562 106.425781 L 128.476562 57.035156 L 141.5 49.539062 L 141.503906 113.925781 L 128.484375 106.429688 Z M 84.734375 132.722656 L 127.621094 108.027344 L 140.519531 115.519531 L 84.734375 147.710938 Z M 27.109375 115.519531 L 40.128906 108.027344 L 82.890625 132.722656 L 82.890625 147.710938 Z M 26.25 49.539062 L 39.148438 57.035156 L 39.148438 106.425781 L 26.25 113.925781 Z M 27.109375 47.941406 L 82.890625 15.75 L 82.890625 30.738281 L 40.136719 55.441406 Z M 83.933594 32.148438 L 40.933594 56.859375 L 40.933594 106.5 L 83.9375 131.320312 L 126.820312 106.5 L 126.820312 56.859375 L 83.9375 32.15625 Z M 118.460938 76.511719 L 116.617188 79.703125 L 104.332031 72.824219 L 88.601562 81.664062 L 104.324219 90.511719 L 116.609375 83.632812 L 118.457031 86.824219 L 108.136719 92.597656 L 118.457031 98.371094 L 116.613281 101.566406 L 106.292969 95.792969 L 106.292969 107.34375 L 102.480469 107.34375 L 102.492188 93.710938 L 86.769531 84.863281 L 86.769531 102.554688 L 98.933594 109.3125 L 97.089844 112.445312 L 86.769531 106.671875 L 86.769531 118.222656 L 82.949219 118.226562 L 82.949219 106.675781 L 72.628906 112.449219 L 70.664062 109.257812 L 82.949219 102.496094 L 82.949219 84.867188 L 67.21875 93.714844 L 67.21875 107.355469 L 63.285156 107.355469 L 63.285156 95.804688 L 53.089844 101.578125 L 51.121094 98.382812 L 61.441406 92.609375 L 51.121094 86.835938 L 53.089844 83.644531 L 65.253906 90.523438 L 81.105469 81.675781 L 65.25 72.828125 L 53.089844 79.707031 L 51.121094 76.515625 L 61.441406 70.742188 L 51.121094 64.96875 L 53.089844 61.777344 L 63.285156 67.550781 L 63.285156 55.9375 L 67.222656 55.9375 L 67.222656 69.578125 L 82.945312 78.425781 L 82.945312 60.796875 L 70.78125 54.035156 L 72.625 50.84375 L 82.945312 56.617188 L 82.945312 45.066406 L 86.757812 45.066406 L 86.757812 56.617188 L 97.078125 50.84375 L 98.914062 54.035156 L 86.753906 60.796875 L 86.753906 78.488281 L 102.476562 69.640625 L 102.476562 55.9375 L 106.289062 55.9375 L 106.289062 67.488281 L 116.609375 61.714844 L 118.445312 64.910156 L 108.128906 70.683594 L 118.449219 76.515625 Z M 118.460938 76.511719 "/>
</g>
</svg>
