<?xml version="1.0" encoding="UTF-8"?>
<svg xmlns="http://www.w3.org/2000/svg" xmlns:xlink="http://www.w3.org/1999/xlink" width="168pt" height="168pt" viewBox="0 0 168 168" version="1.1">
<g id="surface636">
<path style=" stroke:none;fill-rule:evenodd;fill:rgb(65.098039%,87.843137%,0%);fill-opacity:1;" d="M 168 84 C 168 130.390625 130.390625 168 84 168 C 37.609375 168 0 130.390625 0 84 C 0 37.609375 37.609375 0 84 0 C 130.390625 0 168 37.609375 168 84 "/>
<path style=" stroke:none;fill-rule:evenodd;fill:rgb(100%,100%,100%);fill-opacity:1;" d="M 95.496094 136.5 C 87.832031 136.5 82.246094 134.695312 78.738281 131.09375 C 75.238281 127.480469 73.484375 123.589844 73.484375 119.421875 C 73.484375 117.898438 73.789062 116.613281 74.402344 115.574219 C 75.003906 114.542969 75.867188 113.691406 76.90625 113.105469 C 77.964844 112.507812 79.269531 112.203125 80.816406 112.203125 C 82.363281 112.203125 83.671875 112.507812 84.734375 113.105469 C 85.792969 113.710938 86.625 114.527344 87.238281 115.574219 C 87.851562 116.613281 88.15625 117.898438 88.15625 119.421875 C 88.15625 121.265625 87.710938 122.765625 86.8125 123.929688 C 86.027344 125.015625 84.910156 125.816406 83.632812 126.214844 C 84.691406 127.660156 86.363281 128.683594 88.648438 129.28125 C 90.933594 129.925781 93.214844 130.246094 95.496094 130.246094 L 95.492188 130.246094 C 98.554688 130.28125 101.558594 129.402344 104.117188 127.722656 C 106.683594 126.039062 108.578125 123.550781 109.796875 120.269531 C 111.019531 116.976562 111.632812 113.25 111.632812 109.082031 C 111.632812 104.550781 110.960938 100.683594 109.617188 97.472656 C 108.308594 94.222656 106.371094 91.820312 103.804688 90.253906 L 103.808594 90.253906 C 101.308594 88.710938 98.429688 87.898438 95.492188 87.910156 C 93.539062 87.910156 91.09375 88.707031 88.15625 90.316406 L 82.773438 92.960938 L 82.773438 90.316406 L 106.988281 58.5625 L 73.484375 58.5625 L 73.484375 91.515625 C 73.484375 94.246094 74.09375 96.488281 75.320312 98.25 C 76.539062 100.015625 78.417969 100.894531 80.9375 100.894531 C 82.894531 100.894531 84.769531 100.253906 86.566406 98.96875 L 86.566406 98.972656 C 88.367188 97.683594 89.9375 96.097656 91.214844 94.285156 C 91.339844 93.96875 91.550781 93.695312 91.828125 93.496094 C 92.050781 93.308594 92.328125 93.207031 92.621094 93.203125 C 93.074219 93.203125 93.597656 93.421875 94.210938 93.859375 C 94.769531 94.464844 95.074219 95.261719 95.066406 96.085938 C 94.996094 96.652344 94.894531 97.214844 94.761719 97.769531 C 93.375 100.816406 91.453125 103.140625 89.011719 104.746094 L 89.015625 104.746094 C 86.621094 106.335938 83.8125 107.171875 80.945312 107.152344 C 73.691406 107.152344 68.675781 105.75 65.902344 102.941406 C 63.128906 100.136719 61.746094 96.328125 61.746094 91.515625 L 61.746094 58.5625 L 44.625 58.5625 L 44.625 52.425781 L 61.738281 52.425781 L 61.738281 38.484375 L 57.832031 34.632812 L 57.835938 31.5 L 69.207031 31.5 L 73.484375 33.664062 L 73.484375 52.425781 L 117.746094 52.304688 L 122.15625 56.636719 L 95.003906 83.339844 C 96.648438 82.691406 98.378906 82.285156 100.136719 82.132812 C 103.078125 82.132812 106.375 83.058594 110.042969 84.90625 C 113.753906 86.707031 116.605469 89.195312 118.601562 92.359375 C 120.601562 95.488281 121.886719 98.496094 122.453125 101.382812 L 122.457031 101.382812 C 123.027344 103.910156 123.335938 106.488281 123.375 109.078125 C 123.414062 114.042969 122.28125 118.945312 120.074219 123.390625 C 117.949219 127.722656 114.414062 131.199219 110.046875 133.25 C 105.507812 135.429688 100.53125 136.539062 95.496094 136.5 Z M 95.496094 136.5 "/>
</g>
</svg>
