<?xml version="1.0" encoding="UTF-8"?>
<svg xmlns="http://www.w3.org/2000/svg" xmlns:xlink="http://www.w3.org/1999/xlink" width="168pt" height="168pt" viewBox="0 0 168 168" version="1.1">
<g id="surface2252">
<path style=" stroke:none;fill-rule:nonzero;fill:rgb(14.509804%,66.666667%,89.019608%);fill-opacity:1;" d="M 168 84 C 168 130.390625 130.390625 168 84 168 C 37.609375 168 0 130.390625 0 84 C 0 37.609375 37.609375 0 84 0 C 130.390625 0 168 37.609375 168 84 "/>
<path style=" stroke:none;fill-rule:nonzero;fill:rgb(100%,100%,100%);fill-opacity:1;" d="M 141.75 84 C 141.75 115.894531 115.894531 141.75 84 141.75 C 52.105469 141.75 26.25 115.894531 26.25 84 C 26.25 52.101562 52.105469 26.25 84 26.25 C 115.894531 26.25 141.75 52.105469 141.75 84 Z M 121.957031 85.816406 C 121.992188 85.160156 121.957031 85.816406 121.957031 85.148438 C 121.957031 66.210938 107.964844 49.390625 89.816406 46.5625 L 89.816406 35.539062 L 78.054688 39.203125 L 78.058594 46.566406 C 59.917969 49.390625 46.023438 65.046875 46.023438 83.972656 C 46.023438 103.34375 60.566406 119.304688 79.328125 121.589844 L 79.328125 132.445312 L 91.089844 128.78125 L 91.089844 121.191406 L 91.085938 121.191406 C 104.289062 118.636719 115.15625 109.292969 119.652344 96.621094 L 107.46875 96.621094 C 105.191406 100.878906 101.800781 104.441406 97.65625 106.921875 C 93.515625 109.40625 88.777344 110.71875 83.949219 110.71875 C 77.191406 110.710938 70.691406 108.152344 65.746094 103.546875 C 60.800781 98.945312 57.78125 92.644531 57.292969 85.90625 L 121.960938 85.816406 Z M 59.0625 74.183594 C 61.027344 69.183594 64.453125 64.894531 68.890625 61.871094 C 73.332031 58.847656 78.578125 57.230469 83.949219 57.230469 C 89.316406 57.234375 94.558594 58.855469 98.992188 61.878906 C 103.429688 64.902344 106.851562 69.191406 108.816406 74.1875 L 59.066406 74.1875 Z M 59.0625 74.183594 "/>
</g>
</svg>
