<?xml version="1.0" encoding="UTF-8"?>
<svg xmlns="http://www.w3.org/2000/svg" xmlns:xlink="http://www.w3.org/1999/xlink" width="168pt" height="168pt" viewBox="0 0 168 168" version="1.1">
<g id="surface51">
<path style=" stroke:none;fill-rule:evenodd;fill:rgb(13.72549%,72.156863%,32.156863%);fill-opacity:1;" d="M 168 84 C 168 130.390625 130.390625 168 84 168 C 37.609375 168 0 130.390625 0 84 C 0 37.609375 37.609375 0 84 0 C 130.390625 0 168 37.609375 168 84 "/>
<path style=" stroke:none;fill-rule:nonzero;fill:rgb(100%,100%,100%);fill-opacity:1;" d="M 98.304688 100.527344 L 116.101562 100.527344 L 116.101562 116.089844 L 62.632812 116.089844 L 129.007812 49.664062 C 131.160156 47.488281 131.820312 44.246094 130.6875 41.402344 C 129.488281 38.574219 126.710938 36.742188 123.636719 36.75 L 44.363281 36.75 C 42.335938 36.734375 40.390625 37.535156 38.960938 38.96875 C 37.53125 40.402344 36.734375 42.347656 36.75 44.371094 L 36.75 100.523438 L 69.695312 67.554688 L 51.898438 67.554688 L 51.898438 51.910156 L 105.28125 51.910156 L 38.992188 118.335938 C 36.839844 120.511719 36.179688 123.753906 37.3125 126.597656 C 38.515625 129.40625 41.238281 131.25 44.363281 131.25 L 123.636719 131.25 C 125.660156 131.25 127.597656 130.445312 129.023438 129.015625 C 130.453125 127.585938 131.253906 125.648438 131.25 123.628906 L 131.25 67.558594 Z M 98.304688 100.527344 "/>
</g>
</svg>
