<?xml version="1.0" encoding="UTF-8"?>
<svg xmlns="http://www.w3.org/2000/svg" xmlns:xlink="http://www.w3.org/1999/xlink" width="168pt" height="168pt" viewBox="0 0 168 168" version="1.1">
<g id="surface351">
<path style=" stroke:none;fill-rule:nonzero;fill:rgb(0%,41.568627%,89.019608%);fill-opacity:1;" d="M 168 84 C 168 130.390625 130.390625 168 84 168 C 37.609375 168 0 130.390625 0 84 C 0 37.609375 37.609375 0 84 0 C 130.390625 0 168 37.609375 168 84 "/>
<path style=" stroke:none;fill-rule:nonzero;fill:rgb(100%,100%,100%);fill-opacity:1;" d="M 79.851562 117.390625 L 79.851562 51.207031 L 87.054688 51.207031 L 87.054688 117.390625 Z M 79.851562 117.390625 "/>
<path style=" stroke:none;fill-rule:nonzero;fill:rgb(100%,100%,100%);fill-opacity:1;" d="M 116.535156 73.257812 L 94.273438 79.160156 L 89.3125 56.058594 L 95.925781 54.566406 L 98.539062 65.507812 C 98.539062 65.507812 104.550781 55.648438 96.535156 45.433594 C 91.808594 40.183594 89.570312 39.964844 84.269531 39.132812 C 79.609375 38.464844 68.773438 40.042969 65.542969 52.6875 C 64.179688 60.835938 65.714844 66.863281 76.214844 74.753906 L 75.625 83.539062 C 75.625 83.539062 63.902344 75.28125 60.878906 69.488281 C 58.542969 64.90625 54.527344 55.855469 61.769531 43.253906 C 65.664062 36.953125 73.351562 30.910156 86.890625 31.546875 C 93.695312 31.832031 110.320312 40.15625 107.742188 59.59375 C 107.296875 63.238281 105.40625 68.089844 105.40625 68.089844 L 114.542969 66.058594 L 116.527344 73.261719 Z M 103.824219 125.042969 C 99.75 131.234375 91.90625 137.066406 78.398438 136.082031 C 71.589844 135.621094 55.203125 126.851562 58.289062 107.492188 C 58.828125 103.871094 60.851562 99.078125 60.851562 99.078125 L 51.667969 100.863281 L 49.871094 93.625 L 72.289062 88.3125 L 76.648438 111.539062 L 69.980469 112.863281 L 67.660156 101.839844 C 67.660156 101.839844 61.390625 111.527344 69.125 121.964844 C 73.703125 127.339844 75.933594 127.613281 81.230469 128.578125 C 85.859375 129.375 96.738281 128.074219 100.304688 115.519531 C 101.878906 107.417969 100.492188 101.34375 90.21875 93.164062 L 91.042969 84.398438 C 91.042969 84.398438 102.546875 92.957031 105.414062 98.832031 C 107.609375 103.492188 111.378906 112.65625 103.824219 125.050781 Z M 103.824219 125.042969 "/>
</g>
</svg>
