<?xml version="1.0" encoding="UTF-8"?>
<svg xmlns="http://www.w3.org/2000/svg" xmlns:xlink="http://www.w3.org/1999/xlink" width="168pt" height="168pt" viewBox="0 0 168 168" version="1.1">
<g id="surface1681">
<path style=" stroke:none;fill-rule:nonzero;fill:rgb(12.941176%,64.705882%,87.058824%);fill-opacity:1;" d="M 168 84 C 168 130.390625 130.390625 168 84 168 C 37.609375 168 0 130.390625 0 84 C 0 37.609375 37.609375 0 84 0 C 130.390625 0 168 37.609375 168 84 "/>
<path style=" stroke:none;fill-rule:nonzero;fill:rgb(100%,100%,100%);fill-opacity:1;" d="M 112.824219 87.019531 C 114.609375 88.929688 115.691406 91.476562 115.691406 94.269531 C 115.691406 100.195312 110.820312 105 104.8125 105 C 98.8125 105 93.945312 100.195312 93.945312 94.269531 C 93.945312 91.476562 95.027344 88.929688 96.800781 87.019531 C 95.632812 87.914062 94.058594 88.078125 92.734375 87.4375 C 91.410156 86.800781 90.554688 85.472656 90.527344 84 C 90.523438 83.140625 90.816406 82.308594 91.351562 81.636719 C 89.414062 83.390625 86.835938 84.460938 84 84.460938 C 81.164062 84.460938 78.585938 83.390625 76.648438 81.636719 C 77.183594 82.308594 77.476562 83.140625 77.472656 84 C 77.472656 86.117188 75.738281 87.832031 73.585938 87.832031 L 73.589844 87.832031 C 72.726562 87.832031 71.882812 87.546875 71.199219 87.019531 C 72.972656 88.929688 74.058594 91.476562 74.058594 94.269531 C 74.058594 100.195312 69.1875 105 63.1875 105 C 57.179688 105 52.308594 100.195312 52.308594 94.269531 C 52.308594 91.476562 53.394531 88.929688 55.167969 87.019531 L 55.171875 87.019531 C 54.003906 87.914062 52.433594 88.078125 51.105469 87.4375 C 49.78125 86.800781 48.925781 85.472656 48.898438 84 C 48.898438 83.140625 49.1875 82.308594 49.722656 81.636719 C 47.785156 83.390625 45.207031 84.460938 42.371094 84.460938 C 36.363281 84.460938 31.5 79.65625 31.5 73.730469 C 31.5 67.804688 36.367188 63 42.371094 63 C 48.378906 63 53.242188 67.804688 53.242188 73.730469 L 53.246094 73.730469 C 53.246094 76.421875 52.222656 79.015625 50.382812 80.980469 C 51.550781 80.082031 53.125 79.917969 54.453125 80.558594 C 55.78125 81.195312 56.636719 82.527344 56.664062 84 C 56.664062 84.859375 56.375 85.691406 55.839844 86.363281 C 57.773438 84.609375 60.355469 83.539062 63.191406 83.539062 C 66.027344 83.539062 68.597656 84.609375 70.542969 86.363281 L 70.539062 86.363281 C 70.003906 85.691406 69.710938 84.859375 69.710938 84 C 68.636719 83.175781 68.066406 81.851562 68.207031 80.503906 C 68.347656 79.15625 69.179688 77.980469 70.398438 77.394531 C 71.617188 76.804688 73.054688 76.894531 74.195312 77.625 C 75.335938 78.355469 76.015625 79.628906 75.988281 80.980469 C 74.148438 79.015625 73.128906 76.421875 73.128906 73.730469 C 73.128906 67.804688 77.996094 63 84 63 C 90.007812 63 94.871094 67.804688 94.871094 73.730469 C 94.875 76.421875 93.851562 79.015625 92.011719 80.980469 C 93.179688 80.082031 94.753906 79.917969 96.082031 80.558594 C 97.410156 81.195312 98.261719 82.527344 98.289062 84 C 98.292969 84.859375 98 85.691406 97.464844 86.363281 C 99.398438 84.609375 101.980469 83.539062 104.816406 83.539062 C 107.652344 83.539062 110.222656 84.609375 112.167969 86.363281 C 111.628906 85.691406 111.335938 84.859375 111.335938 84 C 110.261719 83.175781 109.695312 81.851562 109.835938 80.503906 C 109.976562 79.15625 110.804688 77.980469 112.027344 77.394531 C 113.246094 76.804688 114.683594 76.894531 115.824219 77.625 C 116.960938 78.355469 117.640625 79.628906 117.617188 80.980469 C 115.777344 79.015625 114.753906 76.421875 114.753906 73.730469 C 114.753906 67.804688 119.621094 63 125.625 63 C 131.632812 63 136.5 67.804688 136.5 73.730469 C 136.5 79.65625 131.632812 84.460938 125.628906 84.460938 C 122.792969 84.460938 120.214844 83.390625 118.277344 81.636719 C 118.8125 82.308594 119.101562 83.140625 119.101562 84 C 119.101562 86.117188 117.367188 87.832031 115.214844 87.832031 C 114.351562 87.832031 113.511719 87.546875 112.828125 87.019531 Z M 112.824219 87.019531 "/>
</g>
</svg>
