<?xml version="1.0" encoding="UTF-8"?>
<svg xmlns="http://www.w3.org/2000/svg" xmlns:xlink="http://www.w3.org/1999/xlink" width="168pt" height="168pt" viewBox="0 0 168 168" version="1.1">
<g id="surface1201">
<path style=" stroke:none;fill-rule:evenodd;fill:rgb(78.431373%,43.921569%,20.784314%);fill-opacity:1;" d="M 168 84 C 168 130.390625 130.390625 168 84 168 C 37.609375 168 0 130.390625 0 84 C 0 37.609375 37.609375 0 84 0 C 130.390625 0 168 37.609375 168 84 "/>
<path style=" stroke:none;fill-rule:nonzero;fill:rgb(100%,100%,100%);fill-opacity:1;" d="M 83.957031 141.75 C 52.0625 141.730469 26.25 115.867188 26.25 83.925781 C 26.25 52.054688 52.144531 26.230469 84.078125 26.25 C 115.921875 26.269531 141.792969 52.152344 141.75 84.011719 C 141.6875 115.523438 116.359375 141.710938 83.957031 141.75 Z M 60.421875 110.40625 C 60.585938 110.097656 60.710938 109.851562 60.832031 109.648438 C 65.996094 100.535156 71.175781 91.429688 76.351562 82.339844 C 80.886719 74.371094 85.414062 66.390625 89.921875 58.410156 C 90.050781 58.097656 90.371094 57.90625 90.710938 57.9375 C 95.980469 57.964844 101.273438 57.964844 106.539062 57.964844 L 107.289062 57.964844 C 99.96875 70.878906 92.703125 83.707031 85.378906 96.605469 C 85.640625 96.625 85.789062 96.625 85.929688 96.625 C 99.15625 96.625 112.367188 96.628906 125.578125 96.644531 C 126.023438 96.644531 126.167969 96.480469 126.265625 96.09375 L 126.269531 96.097656 C 128.269531 89.035156 128.457031 81.582031 126.820312 74.429688 C 124.847656 65.765625 120.515625 58.453125 114.125 52.335938 C 111.257812 49.605469 108.003906 47.308594 104.464844 45.527344 C 95.675781 41.042969 86.421875 39.621094 76.71875 41.328125 C 67.058594 43.042969 58.921875 47.605469 52.25 54.820312 C 51.375 55.765625 50.582031 56.777344 49.746094 57.761719 C 49.765625 57.820312 49.808594 57.867188 49.832031 57.917969 L 87.527344 57.917969 C 87.316406 58.3125 87.175781 58.59375 87.011719 58.863281 C 84.71875 62.9375 82.390625 66.992188 80.117188 71.070312 L 80.113281 71.070312 C 79.929688 71.480469 79.503906 71.726562 79.054688 71.679688 C 67.179688 71.660156 55.304688 71.652344 43.4375 71.660156 L 42.722656 71.660156 C 36.707031 90.574219 45.207031 114.300781 66.527344 123.792969 C 87.171875 133.011719 108.816406 124.527344 118.964844 110.367188 C 99.460938 110.402344 79.945312 110.417969 60.425781 110.402344 Z M 126.796875 120.371094 C 134.121094 112.234375 140.628906 98.847656 140.222656 82.765625 C 139.898438 69.519531 135.359375 57.878906 126.882812 47.589844 C 124.238281 50.257812 121.652344 52.84375 119.09375 55.433594 C 132.535156 71.597656 133.109375 95.5 119.234375 112.664062 Z M 126.796875 120.371094 "/>
</g>
</svg>
