<?xml version="1.0" encoding="UTF-8"?>
<svg xmlns="http://www.w3.org/2000/svg" xmlns:xlink="http://www.w3.org/1999/xlink" width="168pt" height="168pt" viewBox="0 0 168 168" version="1.1">
<g id="surface2345">
<path style=" stroke:none;fill-rule:evenodd;fill:rgb(92.54902%,69.803922%,26.666667%);fill-opacity:1;" d="M 168 84 C 168 130.390625 130.390625 168 84 168 C 37.609375 168 0 130.390625 0 84 C 0 37.609375 37.609375 0 84 0 C 130.390625 0 168 37.609375 168 84 "/>
<path style=" stroke:none;fill-rule:nonzero;fill:rgb(100%,100%,100%);fill-opacity:1;" d="M 79.253906 104.191406 L 112.3125 104.191406 L 112.3125 121.777344 L 91.96875 121.777344 C 92.304688 126.808594 92.476562 131.472656 92.8125 136.5 L 75.691406 136.5 L 75.691406 121.957031 L 55.34375 121.957031 C 55.34375 116.21875 54.667969 110.476562 55.683594 105.089844 C 56.191406 102.21875 59.242188 99.703125 61.105469 97.195312 L 61.109375 97.191406 C 67.558594 89.136719 74.058594 81.117188 80.609375 73.144531 C 83.15625 70.089844 85.695312 67.21875 88.578125 63.808594 L 56.867188 63.808594 L 56.867188 46.222656 L 75.695312 46.222656 L 75.695312 31.5 L 92.136719 31.5 L 92.136719 45.859375 L 112.652344 45.859375 C 112.652344 51.78125 113.328125 57.523438 112.3125 62.910156 C 111.804688 65.78125 108.753906 68.296875 106.722656 70.804688 L 106.722656 70.808594 C 100.273438 78.863281 93.773438 86.882812 87.222656 94.855469 C 84.664062 98.050781 82.007812 101.164062 79.253906 104.191406 Z M 79.253906 104.191406 "/>
</g>
</svg>
