<?xml version="1.0" encoding="UTF-8"?>
<svg xmlns="http://www.w3.org/2000/svg" xmlns:xlink="http://www.w3.org/1999/xlink" width="168pt" height="168pt" viewBox="0 0 168 168" version="1.1">
<g id="surface186">
<path style=" stroke:none;fill-rule:nonzero;fill:rgb(9.411765%,23.529412%,52.941176%);fill-opacity:1;" d="M 168 84 C 168 130.390625 130.390625 168 84 168 C 37.609375 168 0 130.390625 0 84 C 0 37.609375 37.609375 0 84 0 C 130.390625 0 168 37.609375 168 84 "/>
<path style=" stroke:none;fill-rule:evenodd;fill:rgb(100%,100%,100%);fill-opacity:1;" d="M 26.25 81.980469 L 49.847656 68.65625 L 73.441406 81.980469 L 73.441406 107.425781 L 49.847656 120.75 L 26.25 107.425781 Z M 94.550781 81.980469 L 118.148438 68.65625 L 141.75 81.980469 L 141.75 107.425781 L 118.152344 120.75 L 94.558594 107.425781 L 94.558594 81.980469 Z M 92.074219 104.082031 L 83.796875 108.632812 L 75.925781 104.3125 L 75.925781 79.957031 L 54.402344 67.796875 L 54.402344 58.957031 L 83.796875 42 L 113.1875 58.957031 L 113.1875 68.039062 L 92.078125 79.957031 L 92.078125 104.085938 Z M 92.074219 104.082031 "/>
</g>
</svg>
