<?xml version="1.0" encoding="UTF-8"?>
<svg xmlns="http://www.w3.org/2000/svg" xmlns:xlink="http://www.w3.org/1999/xlink" width="168pt" height="168pt" viewBox="0 0 168 168" version="1.1">
<g id="surface1116">
<path style=" stroke:none;fill-rule:nonzero;fill:rgb(0%,91.764706%,67.058824%);fill-opacity:1;" d="M 168 84 C 168 130.390625 130.390625 168 84 168 C 37.609375 168 0 130.390625 0 84 C 0 37.609375 37.609375 0 84 0 C 130.390625 0 168 37.609375 168 84 "/>
<path style=" stroke:none;fill-rule:nonzero;fill:rgb(100%,100%,100%);fill-opacity:1;" d="M 130.199219 50.230469 L 120.855469 64.773438 C 123.835938 70.617188 125.378906 77.089844 125.347656 83.648438 C 125.347656 106.75 106.65625 125.347656 83.648438 125.347656 C 77.117188 125.378906 70.679688 123.835938 64.867188 120.855469 L 50.230469 130.289062 C 59.664062 136.988281 71.125 141.046875 83.558594 141.046875 C 115.210938 141.046875 140.957031 115.390625 140.957031 83.648438 C 140.957031 71.128906 136.988281 59.667969 130.199219 50.230469 Z M 130.199219 50.230469 "/>
<path style=" stroke:none;fill-rule:nonzero;fill:rgb(100%,100%,100%);fill-opacity:1;" d="M 83.648438 112.296875 C 90.371094 112.296875 96.882812 109.945312 102.050781 105.644531 C 107.21875 101.34375 110.71875 95.371094 111.945312 88.761719 C 93.796875 84.8125 74.824219 88.753906 59.75 99.609375 C 65.089844 107.570312 74.058594 112.335938 83.648438 112.304688 Z M 83.648438 112.296875 "/>
<path style=" stroke:none;fill-rule:nonzero;fill:rgb(100%,100%,100%);fill-opacity:1;" d="M 97.753906 82.058594 C 102.777344 82.058594 107.625 82.589844 112.390625 83.648438 C 112.390625 76.003906 109.351562 68.671875 103.945312 63.261719 C 98.539062 57.855469 91.207031 54.816406 83.558594 54.816406 C 75.246094 54.820312 67.34375 58.425781 61.882812 64.695312 C 56.425781 70.964844 53.945312 79.289062 55.082031 87.523438 C 47.851562 93.082031 44.414062 97.402344 44.234375 97.578125 L 44.238281 97.578125 C 42.675781 93.128906 41.875 88.449219 41.859375 83.738281 C 41.859375 60.636719 60.550781 42.03125 83.558594 42.03125 C 90.347656 42.03125 96.695312 43.617188 102.335938 46.53125 L 116.882812 37.097656 L 116.886719 37.097656 C 107.25 30.023438 95.601562 26.222656 83.648438 26.25 C 68.421875 26.234375 53.8125 32.277344 43.046875 43.046875 C 32.277344 53.8125 26.234375 68.421875 26.25 83.648438 C 26.25 96.433594 30.398438 108.160156 37.449219 117.679688 C 40.179688 112.746094 43.445312 108.246094 47.234375 104.1875 C 47.234375 104.1875 52.878906 98.285156 57.199219 95.289062 C 68.964844 86.671875 83.171875 82.035156 97.753906 82.058594 Z M 97.753906 82.058594 "/>
</g>
</svg>
