<?xml version="1.0" encoding="UTF-8"?>
<svg xmlns="http://www.w3.org/2000/svg" xmlns:xlink="http://www.w3.org/1999/xlink" width="168pt" height="168pt" viewBox="0 0 168 168" version="1.1">
<g id="surface946">
<path style=" stroke:none;fill-rule:nonzero;fill:rgb(2.745098%,73.72549%,61.176471%);fill-opacity:1;" d="M 168 84 C 168 130.390625 130.390625 168 84 168 C 37.609375 168 0 130.390625 0 84 C 0 37.609375 37.609375 0 84 0 C 130.390625 0 168 37.609375 168 84 "/>
<path style=" stroke:none;fill-rule:evenodd;fill:rgb(100%,100%,100%);fill-opacity:1;" d="M 125.460938 35.148438 C 122.472656 34.402344 115.511719 34.503906 113.375 37.4375 C 115.511719 38.628906 117.003906 40.464844 119.191406 40.519531 C 121.378906 40.570312 123.917969 38.476562 126.699219 39.675781 C 125.507812 39.675781 120.136719 40.671875 119.789062 42.3125 C 120.539062 43.546875 121.441406 44.679688 122.472656 45.695312 C 123.871094 46.839844 124.015625 47.238281 126.105469 46.09375 L 126.105469 46.089844 C 128.664062 44.476562 130.59375 42.035156 131.574219 39.175781 C 131.574219 37.683594 132.019531 38.675781 130.929688 37.4375 C 129.324219 36.230469 127.445312 35.445312 125.460938 35.148438 Z M 97.410156 37.785156 C 101.449219 35.628906 106.140625 35.042969 110.585938 36.140625 C 110.15625 31.351562 107.917969 26.90625 104.324219 23.710938 C 108.628906 26.386719 111.660156 30.695312 112.722656 35.644531 C 115.164062 35.25 117.699219 34.304688 120.035156 33.953125 C 119.613281 29.191406 117.519531 24.734375 114.121094 21.371094 C 112.476562 19.828125 107.851562 15.75 105.210938 15.75 C 102.570312 15.75 99.140625 21.71875 98.148438 24.15625 C 96.445312 28.5 96.1875 33.277344 97.402344 37.785156 Z M 97.410156 37.785156 "/>
<path style=" stroke:none;fill-rule:evenodd;fill:rgb(100%,100%,100%);fill-opacity:1;" d="M 96.757812 45.589844 C 95.867188 43.453125 99.792969 42.609375 100.988281 42.753906 C 103.125 43.382812 105.082031 44.507812 106.710938 46.035156 C 109.839844 48.375 116.003906 55.289062 120.535156 53.648438 C 125.0625 52.003906 119.691406 44 117.203125 41.910156 L 117.199219 41.910156 C 113.078125 38.023438 107.363281 36.3125 101.78125 37.289062 C 99.273438 38.039062 97.214844 39.863281 96.164062 42.253906 C 95.863281 43.351562 94.773438 45.585938 96.761719 45.585938 Z M 96.757812 45.589844 "/>
<path style=" stroke:none;fill-rule:nonzero;fill:rgb(100%,100%,100%);fill-opacity:1;" d="M 117.546875 75.433594 C 114.765625 73.742188 113.765625 68.765625 112.027344 66.035156 C 109.636719 62.203125 106.15625 59.074219 104.066406 55.09375 C 101.976562 51.113281 101.730469 48.078125 98.148438 46.191406 L 98.152344 46.191406 C 95.367188 44.722656 92.035156 44.722656 89.25 46.191406 C 84.804688 48.207031 80.125 49.675781 75.320312 50.570312 L 75.320312 50.566406 C 73.191406 51.074219 71.101562 51.722656 69.058594 52.511719 C 67.355469 53.46875 65.574219 54.28125 63.734375 54.941406 C 59.15625 55.585938 50.703125 49.96875 51.5 58.667969 C 51.5 60.265625 53.136719 61.109375 52.640625 63.144531 C 52.148438 65.1875 49.957031 66.976562 48.914062 68.566406 L 48.914062 68.570312 C 46.769531 72.167969 45.097656 76.03125 43.9375 80.058594 C 41.109375 89.179688 41.660156 99.011719 45.480469 107.761719 C 47.316406 112.066406 49.769531 116.089844 52.742188 119.699219 C 54.195312 121.394531 55.472656 123.226562 56.574219 125.167969 C 57.414062 127.46875 58.464844 129.683594 59.707031 131.78125 L 59.707031 131.785156 C 61.902344 134.542969 65.457031 135.828125 68.90625 135.121094 C 70.644531 134.523438 72.3125 133.738281 73.882812 132.78125 C 76.566406 131.714844 79.371094 130.996094 82.234375 130.640625 C 92.6875 129.003906 102.21875 123.71875 109.140625 115.71875 C 112.421875 111.761719 114.96875 107.246094 116.65625 102.390625 C 117.636719 99.683594 118.351562 96.886719 118.792969 94.039062 C 119.046875 92.25 118.5 87.71875 119.789062 86.53125 C 120.628906 85.726562 122.625 85.535156 123.222656 84.78125 C 123.675781 83.792969 124.023438 82.761719 124.261719 81.699219 C 125.207031 78.765625 119.6875 76.429688 117.550781 75.429688 Z M 121.328125 82.546875 C 120.582031 84.238281 117.652344 85.234375 116.355469 87.023438 C 114.496094 90.378906 112.015625 93.347656 109.046875 95.777344 C 106.058594 97.335938 102.617188 97.800781 99.320312 97.089844 C 96.019531 96.382812 93.074219 94.546875 90.988281 91.894531 C 88.785156 89.144531 87.59375 85.722656 87.605469 82.199219 C 87.605469 79.464844 90.59375 72.597656 87.605469 71.105469 C 84.625 69.613281 83.230469 74.4375 82.085938 76.082031 L 82.089844 76.082031 C 80.085938 79.40625 77.042969 81.976562 73.433594 83.390625 C 70.621094 84.34375 67.605469 84.511719 64.707031 83.882812 C 61.808594 83.25 59.132812 81.84375 56.972656 79.808594 C 54.046875 75.644531 53.183594 70.371094 54.632812 65.488281 C 54.699219 63.035156 54.480469 60.578125 53.984375 58.175781 C 53.984375 54.59375 57.117188 55.886719 59.65625 56.386719 C 65.941406 57.503906 71.914062 59.964844 77.164062 63.597656 C 82.09375 67.695312 88.007812 70.4375 94.320312 71.550781 C 98.546875 71.949219 102.734375 72.664062 106.855469 73.691406 C 108.890625 74.289062 110.78125 75.28125 112.773438 75.980469 C 114.875 76.664062 116.910156 77.539062 118.84375 78.617188 C 120.1875 79.210938 122.125 80.402344 121.378906 82.34375 L 121.328125 82.542969 Z M 121.328125 82.546875 "/>
</g>
</svg>
