<?xml version="1.0" encoding="UTF-8"?>
<svg xmlns="http://www.w3.org/2000/svg" xmlns:xlink="http://www.w3.org/1999/xlink" width="168pt" height="168pt" viewBox="0 0 168 168" version="1.1">
<g id="surface986">
<path style=" stroke:none;fill-rule:nonzero;fill:rgb(28.627451%,75.686275%,74.901961%);fill-opacity:1;" d="M 168 84 C 168 130.390625 130.390625 168 84 168 C 37.609375 168 0 130.390625 0 84 C 0 37.609375 37.609375 0 84 0 C 130.390625 0 168 37.609375 168 84 "/>
<path style=" stroke:none;fill-rule:nonzero;fill:rgb(100%,100%,100%);fill-opacity:0.304;" d="M 47.25 38.226562 L 105.597656 66.488281 L 120.535156 59.757812 L 62.429688 31.5 Z M 47.25 38.226562 "/>
<path style=" stroke:none;fill-rule:nonzero;fill:rgb(100%,100%,100%);fill-opacity:0.646;" d="M 105.597656 66.417969 L 120.535156 59.691406 L 120.535156 74.734375 L 105.597656 81.460938 Z M 105.597656 136.160156 L 105.597656 89.242188 L 120.535156 82.445312 L 120.535156 129.4375 Z M 105.597656 136.160156 "/>
<path style=" stroke:none;fill-rule:nonzero;fill:rgb(100%,100%,100%);fill-opacity:1;" d="M 47.25 38.242188 L 47.25 53.453125 L 87.636719 73.074219 L 47.25 93.070312 L 47.25 108.0625 L 105.597656 136.269531 L 105.597656 121.179688 L 65.96875 101.90625 L 105.597656 81.53125 L 105.597656 66.488281 Z M 47.25 38.242188 "/>
</g>
</svg>
