<?xml version="1.0" encoding="UTF-8"?>
<svg xmlns="http://www.w3.org/2000/svg" xmlns:xlink="http://www.w3.org/1999/xlink" width="168pt" height="168pt" viewBox="0 0 168 168" version="1.1">
<g id="surface811">
<path style=" stroke:none;fill-rule:nonzero;fill:rgb(0%,0%,30.196078%);fill-opacity:1;" d="M 168 84 C 168 130.390625 130.390625 168 84 168 C 37.609375 168 0 130.390625 0 84 C 0 37.609375 37.609375 0 84 0 C 130.390625 0 168 37.609375 168 84 "/>
<path style=" stroke:none;fill-rule:nonzero;fill:rgb(100%,100%,100%);fill-opacity:1;" d="M 81.402344 32.9375 C 80.917969 34.984375 79.46875 41.441406 78.808594 45.769531 C 78.546875 47.542969 77.445312 49.910156 80.519531 51.1875 C 79.816406 51.324219 79.601562 51.414062 79.378906 51.367188 C 77.183594 51.09375 74.941406 50.777344 72.75 50.507812 C 72.265625 50.460938 71.652344 50.371094 71.210938 50.597656 C 68.269531 52.144531 66.957031 55.832031 68.445312 58.972656 C 69.285156 60.746094 69.546875 62.386719 69.195312 64.253906 L 69.195312 64.25 C 69.148438 64.734375 69.242188 65.222656 69.457031 65.65625 C 71.167969 69.847656 71.476562 74.03125 70.113281 78.398438 C 69.894531 79.082031 70.027344 79.90625 70.070312 80.628906 C 70.160156 82.042969 70.242188 83.453125 70.375 84.859375 C 68.222656 83.132812 65.859375 81.582031 64.054688 79.488281 L 64.054688 79.492188 C 62.242188 77.359375 61.355469 74.589844 61.597656 71.804688 C 61.640625 71.257812 61.203125 70.617188 60.851562 70.121094 C 59.839844 68.621094 58.65625 67.253906 57.824219 65.660156 C 56.636719 63.386719 55.1875 62.429688 52.816406 63.160156 C 51.636719 63.523438 50.53125 64.292969 49.523438 65.070312 C 48.648438 65.699219 47.894531 66.523438 47.109375 67.253906 C 47.019531 67.160156 46.890625 67.070312 46.804688 66.980469 C 46.9375 66.660156 46.976562 66.296875 47.15625 65.976562 C 48.382812 63.703125 48.335938 63.746094 46.632812 61.835938 C 43.335938 58.152344 40.480469 54.191406 39.25 49.183594 C 38.636719 46.683594 37.886719 44.222656 37.234375 41.765625 C 33.9375 45.859375 33.5 60.613281 36.75 66.433594 C 35.738281 61.289062 34.730469 56.421875 35.867188 51.414062 C 36.085938 52.554688 36.21875 53.644531 36.265625 54.785156 C 36.4375 58.832031 37.40625 62.660156 39.117188 66.25 C 39.46875 67.023438 40.480469 67.476562 41.226562 68.023438 C 41.488281 68.207031 41.839844 68.296875 42.144531 68.433594 C 42.101562 68.617188 42.101562 68.800781 42.054688 68.933594 C 40.433594 68.84375 38.851562 68.660156 37.226562 68.617188 C 36.175781 68.570312 34.949219 68.296875 34.113281 68.753906 C 33.011719 69.34375 32.132812 70.488281 31.519531 71.621094 C 31.347656 71.9375 32.222656 73.210938 32.882812 73.714844 C 34.636719 75.03125 35.824219 76.488281 35.558594 78.945312 C 35.511719 79.539062 36.171875 80.589844 36.746094 80.8125 C 38.320312 81.40625 38.761719 82.585938 39.023438 84.089844 C 39.203125 85.046875 39.332031 86.273438 39.949219 86.820312 C 41.921875 88.640625 42.539062 90.824219 42.585938 93.46875 C 42.628906 95.148438 43.503906 96.882812 43.289062 98.519531 C 43.109375 99.933594 43.375 100.976562 43.945312 101.796875 L 43.902344 101.796875 L 44.035156 101.933594 C 44.386719 102.480469 44.871094 102.929688 45.4375 103.347656 L 46.582031 104.441406 C 46.582031 104.441406 48.554688 106.578125 48.597656 108.671875 C 48.644531 110.765625 48.464844 111.035156 49.082031 112.902344 C 49.703125 114.722656 50.53125 116.179688 50.796875 117.726562 C 51.058594 119.273438 50.488281 119.726562 51.410156 120.730469 C 52.328125 121.726562 53.34375 122.410156 54.390625 123.554688 C 55.402344 124.734375 56.851562 125.144531 57.820312 126.148438 C 58.785156 127.144531 60.320312 129.015625 61.503906 130.195312 C 62.117188 130.835938 62.953125 131.335938 63.566406 131.695312 C 63.746094 131.878906 63.828125 131.96875 63.785156 132.0625 C 62.949219 133.878906 64.660156 133.835938 65.324219 134.425781 C 66.464844 135.429688 68.089844 136.0625 68.921875 137.292969 C 70.417969 139.523438 72.351562 140.664062 74.765625 141.347656 C 74.984375 141.394531 75.25 141.4375 75.332031 141.574219 C 75.640625 141.941406 75.855469 142.394531 76.125 142.800781 C 76.035156 142.9375 75.90625 143.074219 75.816406 143.210938 C 78.230469 144.078125 80.644531 144.984375 83.0625 145.804688 C 83.546875 145.988281 84.164062 145.988281 84.601562 145.855469 C 86.621094 145.171875 88.644531 144.4375 90.660156 143.714844 C 91.054688 143.578125 91.667969 143.167969 91.625 142.984375 C 91.320312 141.53125 92.5 141.757812 93.164062 141.394531 C 94.738281 140.527344 96.585938 139.894531 97.773438 138.664062 C 99.222656 137.117188 100.539062 135.519531 102.472656 134.472656 C 103.261719 134.015625 104.839844 133.835938 104.046875 132.109375 C 104.003906 132.015625 104.445312 131.652344 104.667969 131.425781 C 104.972656 131.148438 105.324219 130.921875 105.765625 130.558594 C 106.070312 130.421875 106.421875 130.191406 106.992188 129.78125 L 106.996094 129.78125 C 108.78125 128.3125 110.441406 126.699219 111.957031 124.957031 C 113.007812 123.640625 114.722656 122 114.722656 122 C 114.722656 122 113.621094 119.40625 114.328125 117.128906 L 118.054688 114.355469 C 118.847656 112.671875 119.066406 112.03125 119.945312 110.300781 C 120.78125 108.566406 120.996094 105.25 122.1875 103.925781 C 123.238281 102.792969 124.511719 101.878906 124.464844 101.152344 L 124.46875 101.15625 C 124.742188 100.382812 124.832031 99.554688 124.730469 98.742188 C 124.605469 97.5625 124.992188 96.328125 125.128906 95.144531 C 125.21875 94.148438 125.128906 93.144531 125.390625 92.1875 C 125.832031 90.640625 126.136719 88.820312 127.101562 87.726562 C 128.152344 86.546875 128.859375 85.5 128.992188 83.90625 C 129.125 82.542969 129.648438 81.449219 131.011719 80.808594 C 131.667969 80.492188 132.324219 79.402344 132.324219 78.671875 C 132.28125 76.625 132.9375 75.171875 134.609375 74.078125 C 135.09375 73.761719 135.449219 73.210938 135.925781 72.851562 C 136.714844 72.257812 136.585938 71.574219 136.144531 70.804688 C 135.003906 68.757812 133.289062 68.027344 131.011719 68.441406 C 129.296875 68.757812 126.707031 68.933594 125.78125 68.933594 C 124.863281 68.933594 125.519531 68.25 125.519531 68.25 C 128.769531 68.160156 129.164062 65.476562 129.910156 63.292969 C 130.53125 61.472656 130.875 59.558594 131.1875 57.648438 C 131.496094 55.828125 131.496094 54.960938 131.84375 52.136719 C 132.195312 49.316406 133.03125 57.601562 131.710938 64.386719 C 134.347656 60.382812 133.511719 45.859375 130.570312 41.585938 C 130.480469 41.675781 130.390625 41.722656 130.390625 41.8125 C 130.257812 42.359375 130.175781 42.90625 130.042969 43.449219 C 128.765625 50.410156 126.132812 56.648438 121.257812 61.746094 C 119.457031 63.609375 119.546875 63.65625 120.773438 66.066406 C 120.90625 66.296875 120.90625 66.613281 120.945312 66.933594 C 119.894531 66.433594 119.109375 65.707031 118.316406 65.023438 L 118.324219 65.019531 C 116.925781 63.671875 115.039062 62.949219 113.09375 63.019531 C 110.992188 63.019531 110.417969 64.5625 109.800781 66.066406 C 108.660156 68.796875 105.984375 70.480469 105.894531 74.125 C 105.761719 79.449219 101.023438 82.132812 97.945312 85.679688 C 97.902344 85.730469 97.773438 85.636719 97.59375 85.636719 C 97.550781 85.453125 97.421875 85.226562 97.460938 85.042969 C 97.460938 81.765625 98.34375 78.445312 96.894531 75.304688 C 96.804688 75.121094 96.847656 74.847656 96.894531 74.667969 C 97.460938 70.070312 97.992188 65.515625 98.605469 60.964844 C 98.691406 60.375 99 59.832031 99.261719 59.285156 C 100.800781 56.007812 99.65625 52.277344 96.542969 50.636719 L 96.546875 50.640625 C 96.164062 50.46875 95.738281 50.402344 95.320312 50.457031 C 93.605469 50.683594 91.9375 51.003906 90.269531 51.230469 C 89.429688 51.367188 88.558594 51.367188 87.722656 51.414062 C 87.675781 51.277344 87.632812 51.140625 87.589844 51.046875 C 88.992188 50.59375 89.695312 49.734375 89.390625 48.1875 L 86.226562 32.4375 C 86.140625 32.027344 86.054688 29.980469 86.535156 31.03125 C 87.019531 32.125 88.554688 36.804688 89.433594 39.765625 C 90.269531 42.632812 90.925781 45.59375 91.671875 48.5 C 90.445312 40.355469 88.558594 32.433594 83.902344 25.199219 L 83.898438 25.199219 C 82.660156 26.753906 81.667969 28.488281 80.960938 30.34375 C 79.832031 33.65625 78.777344 36.996094 77.800781 40.355469 C 77.054688 42.949219 75.125 48.046875 75.957031 48.179688 C 76.785156 48.320312 80.871094 33.027344 81.132812 31.9375 C 81.394531 30.84375 81.882812 30.886719 81.394531 32.933594 Z M 81.402344 32.9375 "/>
</g>
</svg>
