<?xml version="1.0" encoding="UTF-8"?>
<svg xmlns="http://www.w3.org/2000/svg" xmlns:xlink="http://www.w3.org/1999/xlink" width="168pt" height="168pt" viewBox="0 0 168 168" version="1.1">
<g id="surface806">
<path style=" stroke:none;fill-rule:nonzero;fill:rgb(18.823529%,17.254902%,17.254902%);fill-opacity:1;" d="M 168 84 C 168 130.390625 130.390625 168 84 168 C 37.609375 168 0 130.390625 0 84 C 0 37.609375 37.609375 0 84 0 C 130.390625 0 168 37.609375 168 84 "/>
<path style=" stroke:none;fill-rule:evenodd;fill:rgb(100%,100%,100%);fill-opacity:1;" d="M 81.355469 141.75 C 79.9375 141.601562 78.519531 141.472656 77.101562 141.304688 C 69.480469 140.394531 62.121094 137.960938 55.460938 134.144531 C 55.359375 134.09375 55.273438 134.011719 55.078125 133.882812 C 66.660156 125.21875 78.1875 116.609375 89.78125 107.949219 L 93.273438 111.347656 C 95.214844 113.25 97.167969 115.128906 99.074219 117.054688 C 99.546875 117.527344 99.886719 117.523438 100.4375 117.238281 L 100.4375 117.234375 C 106.210938 114.351562 111.144531 110.027344 114.757812 104.683594 L 115.320312 103.855469 C 115.484375 104.042969 115.636719 104.195312 115.761719 104.363281 C 119.789062 109.730469 123.808594 115.09375 127.851562 120.445312 C 128.203125 120.90625 128.160156 121.179688 127.789062 121.601562 C 118.429688 132.238281 106.792969 138.789062 92.773438 141.03125 C 91.007812 141.316406 89.21875 141.417969 87.4375 141.613281 C 87.203125 141.640625 86.964844 141.703125 86.734375 141.75 L 81.351562 141.75 Z M 86.449219 26.25 C 87.425781 26.351562 88.40625 26.453125 89.390625 26.542969 C 97.664062 27.332031 105.402344 29.78125 112.613281 33.894531 C 112.71875 33.957031 112.808594 34.03125 112.980469 34.15625 L 77.710938 59.457031 C 77.242188 59.015625 76.792969 58.597656 76.347656 58.160156 C 73.871094 55.746094 71.382812 53.335938 68.917969 50.898438 C 68.523438 50.511719 68.226562 50.46875 67.730469 50.714844 L 67.726562 50.714844 C 61.847656 53.613281 56.835938 58.003906 53.183594 63.441406 L 52.660156 64.230469 L 39.703125 46.96875 C 41.011719 45.582031 42.21875 44.203125 43.523438 42.925781 C 52.042969 34.613281 62.160156 29.328125 73.882812 27.203125 C 76.140625 26.792969 78.445312 26.65625 80.730469 26.390625 C 80.988281 26.363281 81.246094 26.300781 81.496094 26.253906 L 86.441406 26.253906 Z M 33.90625 55.304688 L 60.128906 89.683594 L 54.835938 95.113281 C 53.519531 96.460938 52.210938 97.828125 50.867188 99.15625 C 50.488281 99.535156 50.472656 99.824219 50.703125 100.285156 L 50.703125 100.28125 C 53.601562 106.15625 57.984375 111.171875 63.425781 114.824219 C 63.609375 114.941406 63.792969 115.058594 63.964844 115.191406 C 63.996094 115.210938 64.011719 115.265625 64.105469 115.445312 L 46.988281 128.285156 C 36.75 119.46875 30.109375 108.605469 27.441406 95.433594 C 24.585938 81.332031 26.902344 68.007812 33.910156 55.300781 Z M 108.324219 78.246094 L 113.144531 73.242188 C 114.488281 71.84375 115.8125 70.433594 117.1875 69.074219 C 117.617188 68.648438 117.613281 68.328125 117.359375 67.824219 C 114.445312 61.878906 110.007812 56.808594 104.496094 53.136719 C 104.300781 53.003906 104.113281 52.863281 103.78125 52.628906 L 120.996094 39.714844 C 130.746094 48.0625 137.21875 58.351562 140.191406 70.769531 C 143.902344 86.265625 140.59375 101.597656 134.167969 112.390625 L 108.320312 78.25 Z M 108.324219 78.246094 "/>
</g>
</svg>
